<svg xmlns="http://www.w3.org/2000/svg" width="394" height="346" fill="none" viewBox="0 0 394 346"><path fill="#6654A4" d="M200.202 346L60.8059 265.482V261.756L200.202 342.286L340.484 261.246V264.972L200.202 346Z"/><path fill="#EBF5F8" d="M200.202 342.286L60.8059 261.756L201.087 180.728L340.483 261.246L200.202 342.286Z"/><path fill="#072359" d="M165.083 217.625L160.594 220.222L165.059 222.795L169.547 220.198L165.083 217.625Z"/><path fill="#072359" d="M151.557 235.746L165.022 227.966L160.57 225.393L156.106 222.808L151.618 225.405L156.082 227.978L142.617 235.758L147.069 238.343L142.58 240.928L138.128 238.355L133.664 235.782L129.176 238.368L133.628 240.953L129.139 243.538L133.603 246.111L138.092 243.526L142.556 246.099L138.068 248.696L142.532 251.269L151.509 246.087L147.044 243.514L151.533 240.916L155.997 243.489L160.485 240.904L156.021 238.319L151.557 235.746Z"/><path fill="#072359" d="M164.998 233.137L160.51 235.734L164.974 238.307L169.462 235.71L164.998 233.137Z"/><path fill="#072359" d="M155.961 248.66L160.425 251.233L164.889 253.818L169.378 251.221L164.913 248.648L160.449 246.063L155.997 243.49L151.509 246.087L155.961 248.66Z"/><path fill="#072359" d="M160.485 240.905L164.937 243.478L169.438 240.88L164.974 238.307L160.485 240.905Z"/><path fill="#072359" d="M187.391 230.515L182.927 227.93L178.463 225.357L169.486 230.539L173.95 233.125L178.415 235.698L169.438 240.88L173.89 243.466L178.378 240.868L182.842 243.441L187.331 240.856L182.867 238.271L187.355 235.686L182.903 233.1L187.391 230.515Z"/><path fill="#072359" d="M155.936 253.83L151.472 251.257L146.984 253.843L151.448 256.428L155.912 259.001L160.4 256.404L155.936 253.83Z"/><path fill="#072359" d="M173.866 248.624L178.33 251.209L182.782 253.782L191.759 248.599L187.307 246.014L182.818 248.612L178.354 246.038L173.89 243.465L169.402 246.051L173.866 248.624Z"/><path fill="#072359" d="M196.308 235.661L191.844 233.088L187.355 235.685L191.819 238.258L196.283 240.831L200.772 238.246L196.308 235.661Z"/><path fill="#072359" d="M223.215 225.272L218.726 227.869L223.191 230.442L227.679 227.857L223.215 225.272Z"/><path fill="#072359" d="M227.703 222.687L232.167 225.26L236.656 222.662L232.191 220.089L227.703 222.687Z"/><path fill="#072359" d="M241.107 225.247L245.608 222.65L241.144 220.077L236.655 222.662L241.107 225.247Z"/><path fill="#072359" d="M227.618 238.198L232.106 235.601L227.642 233.028L223.19 230.442L218.702 233.04L214.238 230.467L209.749 233.052L214.213 235.637L218.665 238.21L223.154 235.613L227.618 238.198Z"/><path fill="#072359" d="M236.594 233.003L241.083 230.418L236.619 227.833L232.13 230.43L236.594 233.003Z"/><path fill="#072359" d="M218.641 243.381L223.129 240.783L218.665 238.21L214.177 240.808L209.725 238.222L205.26 235.649L200.772 238.247L205.236 240.82L200.748 243.417L196.284 240.832L191.795 243.429L196.247 246.002L200.711 248.576L182.758 258.953L187.222 261.526L182.733 264.123L178.269 261.55L173.805 258.965L178.293 256.38L173.841 253.795L151.387 266.769L155.851 269.342L169.317 261.562L173.781 264.135L160.315 271.915L164.78 274.501L173.756 269.306L178.208 271.891L182.697 269.294L187.161 271.867L191.625 274.452L187.137 277.037L191.601 279.61L196.089 277.025L200.541 279.598L209.518 274.416L205.066 271.843L200.578 274.428L196.114 271.855L200.602 269.257L196.138 266.684L191.65 269.282L187.185 266.696L191.686 264.111L196.138 266.684L200.626 264.087L196.174 261.514L191.71 258.941L209.664 248.563L205.2 245.99L209.688 243.393L214.152 245.966L209.664 248.563L214.128 251.137L223.105 245.954L218.641 243.381Z"/><path fill="#072359" d="M173.72 274.477L169.232 277.074L173.696 279.647L178.184 277.05L173.72 274.477Z"/><path fill="#072359" d="M205.152 256.331L209.604 258.904L218.58 253.721L214.128 251.136L205.152 256.331Z"/><path fill="#072359" d="M250.012 235.564L258.989 230.382L254.525 227.809L245.548 232.991L250.012 235.564Z"/><path fill="#072359" d="M209.58 264.075L205.116 261.501L200.627 264.087L205.091 266.672L209.58 264.075Z"/><path fill="#072359" d="M187.113 282.208L182.648 279.635L178.16 282.232L173.696 279.659L164.719 284.842L160.255 282.269L155.791 279.696L151.327 277.122L155.815 274.525L151.351 271.952L146.887 269.379L124.444 282.341L128.909 284.915L133.373 287.488L137.837 290.061L146.814 284.878L142.35 282.305L137.861 284.902L133.397 282.329L137.885 279.732L142.35 282.305L146.838 279.708L151.302 282.281L146.814 284.878L151.278 287.451L142.301 292.634L146.765 295.207L151.229 297.78L155.694 300.353L160.158 302.926L164.622 305.499L169.11 302.902L164.646 300.329L160.182 297.756L155.718 295.183L151.254 292.61L160.231 287.427L164.695 290L169.159 292.573L164.67 295.171L169.135 297.744L178.111 292.561L182.576 295.134L187.064 292.537L182.6 289.964L187.088 287.366L182.624 284.793L187.113 282.208ZM173.635 289.988L169.171 287.415L173.659 284.817L178.124 287.391L173.635 289.988Z"/><path fill="#072359" d="M218.555 258.892L214.067 261.477L218.531 264.062L222.995 266.635L227.484 264.038L223.02 261.465L218.555 258.892Z"/><path fill="#072359" d="M254.439 243.32L258.928 240.723L263.392 243.296L267.88 240.711L272.345 243.284L276.797 245.857L267.82 251.04L272.284 253.625L285.749 245.845L281.285 243.272L276.833 240.686L272.369 238.113L267.905 235.54L263.441 232.955L249.975 240.735L254.439 243.32Z"/><path fill="#072359" d="M191.601 279.61L187.113 282.208L191.565 284.781L187.076 287.378L191.541 289.951L200.517 284.769L204.982 287.342L209.434 289.927L213.934 287.329L209.47 284.756L213.958 282.159L209.494 279.586L205.006 282.171L200.542 279.598L196.053 282.195L191.601 279.61Z"/><path fill="#072359" d="M218.496 269.233L214.044 266.647L209.555 269.245L214.007 271.818L218.471 274.403L222.96 271.806L218.496 269.233Z"/><path fill="#072359" d="M231.912 271.793L236.376 274.367L240.828 276.94L245.317 274.354L240.865 271.769L236.4 269.196L231.936 266.623L227.448 269.208L231.912 271.793Z"/><path fill="#072359" d="M254.33 263.989L258.818 261.404L254.354 258.819L249.865 261.416L254.33 263.989Z"/><path fill="#072359" d="M263.331 253.636L258.867 251.063L263.355 248.466L258.891 245.893L240.937 256.27L236.473 253.697L240.962 251.1L236.497 248.527L240.986 245.929L245.45 248.502L249.938 245.905L245.474 243.332L241.01 240.759L245.499 238.161L241.034 235.588L223.081 245.966L227.545 248.539L218.568 253.721L223.032 256.294L227.521 253.697L231.985 256.27L236.449 258.843L227.472 264.026L231.936 266.599L236.425 264.002L240.889 266.575L245.353 269.148L249.817 271.721L254.281 274.294L249.793 276.891L254.257 279.464L263.234 274.282L258.77 271.709L263.258 269.111L267.722 271.684L272.211 269.087L267.747 266.514L272.235 263.917L276.699 266.49L281.163 269.063L263.21 279.44L267.674 282.013L294.604 266.453L290.14 263.88L285.652 266.478L281.188 263.904L276.723 261.331L281.212 258.734L276.748 256.161L272.284 253.588L267.795 256.185L263.331 253.636ZM267.771 261.38L254.306 269.16L249.841 266.587L245.377 264.014L240.913 261.441L254.378 253.661L258.843 256.234L263.307 258.807L267.771 261.38Z"/><path fill="#072359" d="M222.851 292.487L218.387 289.902L213.898 292.5L218.362 295.073L222.826 297.658L227.278 300.231L231.743 302.804L236.207 305.389L240.695 302.792L236.231 300.219L231.767 297.634L236.255 295.048L240.72 297.621L245.208 295.024L240.744 292.451L236.292 289.878L227.315 295.061L222.851 292.487Z"/><path fill="#072359" d="M240.804 282.11L236.34 279.537L231.851 282.122L227.399 279.549L231.888 276.952L227.424 274.379L218.447 279.561L222.911 282.147L227.363 284.72L222.875 287.317L227.339 289.89L236.316 284.708L240.78 287.281L245.244 289.854L249.696 292.439L254.184 289.842L249.732 287.269L258.709 282.074L254.245 279.501L245.268 284.683L240.804 282.11Z"/><path fill="#072359" d="M290.152 258.758L285.664 261.356L290.128 263.929L294.617 261.331L290.152 258.758Z"/><path fill="#072359" d="M299.105 258.746L303.593 256.149L299.129 253.576L294.665 250.991L285.688 256.185L290.152 258.759L294.641 256.161L299.105 258.746Z"/><path fill="#072359" d="M299.081 263.917L294.593 266.502L299.045 269.087L312.51 261.307L308.058 258.722L303.57 261.32L299.106 258.746L294.617 261.332L299.081 263.917Z"/><path fill="#072359" d="M263.137 289.83L258.673 287.245L254.184 289.842L258.649 292.415L263.137 289.83Z"/><path fill="#072359" d="M267.625 287.232L272.114 284.635L267.65 282.062L263.161 284.659L267.625 287.232Z"/><path fill="#072359" d="M146.96 259.014L142.495 256.441L138.031 253.868L133.567 251.294L129.103 248.721L124.639 246.148L120.174 243.575L88.7554 261.72L93.2196 264.293L97.6838 266.866L102.148 269.44L106.612 272.013L111.076 274.586L115.54 277.159L120.005 279.732L151.424 261.587L146.96 259.014ZM120.029 274.574L115.565 272.001L111.101 269.427L106.636 266.854L102.172 264.281L97.708 261.708L120.15 248.746L124.614 251.319L129.079 253.892L133.543 256.465L138.007 259.038L142.471 261.611L120.029 274.574Z"/><path fill="#072359" d="M120.053 269.403L133.519 261.623L120.138 253.892L106.673 261.672L120.053 269.403Z"/><path fill="#072359" d="M169.571 215.028L174.035 217.601L178.5 220.174L182.964 222.747L187.428 225.32L191.892 227.893L196.356 230.466L200.82 233.04L232.239 214.894L227.775 212.321L223.311 209.748L218.847 207.175L214.383 204.602L209.918 202.029L205.454 199.456L200.99 196.883L169.571 215.028ZM205.43 204.626L209.894 207.199L214.358 209.773L218.823 212.346L223.287 214.919L200.845 227.881L196.38 225.308L191.916 222.735L187.452 220.162L182.988 217.589L178.524 215.016L200.966 202.053L205.43 204.626Z"/><path fill="#072359" d="M200.942 207.224L187.477 215.004L200.857 222.735L214.322 214.956L200.942 207.224Z"/><path fill="#072359" d="M173.526 310.669L177.99 313.242L182.454 315.816L186.919 318.389L191.383 320.962L195.847 323.535L200.311 326.108L231.73 307.963L227.266 305.39L222.802 302.817L218.338 300.243L213.873 297.67L209.409 295.097L204.945 292.524L200.481 289.951L169.062 308.096L173.526 310.669ZM200.457 295.109L204.921 297.683L209.385 300.256L213.849 302.829L218.313 305.402L222.778 307.975L200.335 320.937L195.871 318.364L191.407 315.791L186.943 313.218L182.479 310.645L178.015 308.072L200.457 295.109Z"/><path fill="#072359" d="M200.432 300.279L186.967 308.059L200.348 315.791L213.813 308.011L200.432 300.279Z"/><path fill="url(#paint0_linear)" d="M378.998 136.876C392.245 144.523 393.677 156.102 382.213 162.729L285.13 218.815C273.654 225.441 253.626 224.604 240.379 216.958L14.4046 86.4097C1.58229 79.006 -0.176692 67.9248 10.1346 61.2129C-3.82809 70.0852 -2.69991 86.252 9.45523 96.5443C10.8624 97.7702 12.5122 98.9596 14.4168 100.052L240.391 230.588C253.638 238.234 273.666 239.072 285.142 232.445C285.142 232.445 382.929 175.946 383.268 175.727C400.312 165.083 394.162 145.057 378.998 136.876Z"/><path fill="url(#paint1_linear)" d="M382.213 162.717L285.13 218.803C273.654 225.429 253.626 224.592 240.379 216.946L14.4049 86.4099C1.15796 78.7635 -0.273484 67.1846 11.1902 60.5577L108.274 4.47163C119.749 -2.15529 139.778 -1.31782 153.025 6.32862L378.999 136.876C392.246 144.523 393.677 156.09 382.213 162.717Z"/><path fill="url(#paint2_linear)" d="M282.922 215.659C272.696 221.57 256.113 221.594 245.959 215.732L16.5157 83.1934C6.35002 77.319 6.41068 67.7428 16.637 61.8441L110.482 7.62717C120.708 1.71636 137.291 1.69208 147.444 7.55435L376.888 140.093C387.054 145.967 386.993 155.543 376.767 161.442L282.922 215.659Z"/><path fill="#EBF5F8" stroke="#072359" stroke-miterlimit="10" stroke-width=".196" d="M116.595 11.1589L104.974 17.8707C103.931 18.4776 103.919 19.4607 104.962 20.0555C108.565 22.1431 108.553 25.5293 104.925 27.6291L51.2705 58.6275C47.6434 60.7272 41.772 60.7394 38.1692 58.6518C37.1259 58.0449 35.4276 58.057 34.3843 58.6639L22.763 65.3758C15.9211 69.3325 15.8847 75.7167 22.6902 79.6491L252.134 212.187C258.927 216.12 269.99 216.096 276.832 212.139L370.677 157.922C377.518 153.965 377.555 147.581 370.749 143.649L141.306 11.1103C134.501 7.19001 123.437 7.20215 116.595 11.1589Z"/><path fill="#6654A4" d="M368.833 155.556L272.72 211.083C268.147 213.729 260.165 213.389 254.876 210.343L242.247 203.048C236.97 200.002 236.388 195.39 240.961 192.744L337.074 137.216C341.648 134.57 349.63 134.91 354.919 137.957L367.547 145.251C372.836 148.298 373.406 152.91 368.833 155.556Z" opacity=".15"/><path fill="#EBF5F8" d="M200.299 177.209L91.072 114.12L200.99 50.6299L310.204 113.719L200.299 177.209Z"/><path fill="#072359" d="M172.785 79.5405L169.267 81.5675L172.761 83.5944L176.279 81.5553L172.785 79.5405Z"/><path fill="#072359" d="M162.183 93.741L172.736 87.6481L169.243 85.6212L165.749 83.6064L162.231 85.6334L165.725 87.6603L155.171 93.7532L158.665 95.7679L155.147 97.7949L151.653 95.7801L148.159 93.7653L144.641 95.7922L148.135 97.8191L144.617 99.8461L148.111 101.861L151.629 99.8339L155.135 101.849L151.617 103.888L155.11 105.903L162.146 101.837L158.64 99.8218L162.158 97.7827L165.664 99.8097L169.17 97.7706L165.676 95.7558L162.183 93.741Z"/><path fill="#072359" d="M172.712 91.6895L169.194 93.7285L172.688 95.7432L176.206 93.7163L172.712 91.6895Z"/><path fill="#072359" d="M165.64 103.863L169.134 105.878L172.627 107.893L176.145 105.866L172.651 103.839L169.158 101.824L165.664 99.8096L162.146 101.836L165.64 103.863Z"/><path fill="#072359" d="M169.17 97.7701L172.676 99.797L176.182 97.758L172.688 95.7432L169.17 97.7701Z"/><path fill="#072359" d="M190.253 89.6384L186.759 87.6115L183.266 85.5967L176.23 89.6626L179.723 91.6774L183.217 93.7043L176.181 97.7581L179.687 99.7851L183.205 97.746L186.699 99.7729L190.216 97.7339L186.711 95.7191L190.229 93.68L186.735 91.6653L190.253 89.6384Z"/><path fill="#072359" d="M165.616 107.905L162.122 105.89L158.604 107.917L162.098 109.944L165.592 111.959L169.11 109.932L165.616 107.905Z"/><path fill="#072359" d="M179.663 103.827L183.157 105.854L186.651 107.869L193.686 103.803L190.193 101.788L186.675 103.815L183.181 101.8L179.687 99.7852L176.169 101.812L179.663 103.827Z"/><path fill="#072359" d="M197.241 93.6681L193.747 91.6533L190.229 93.6802L193.735 95.7071L197.229 97.7219L200.747 95.695L197.241 93.6681Z"/><path fill="#072359" d="M218.324 85.5361L214.807 87.5631L218.3 89.59L221.818 87.5509L218.324 85.5361Z"/><path fill="#072359" d="M221.842 83.4971L225.336 85.524L228.854 83.485L225.36 81.4702L221.842 83.4971Z"/><path fill="#072359" d="M232.347 85.5124L235.865 83.4733L232.371 81.4585L228.853 83.4854L232.347 85.5124Z"/><path fill="#072359" d="M221.781 95.6584L225.299 93.6194L221.806 91.6046L218.3 89.5898L214.782 91.6167L211.288 89.602L207.77 91.6289L211.276 93.6436L214.77 95.6706L218.288 93.6315L221.781 95.6584Z"/><path fill="#072359" d="M228.818 91.5924L232.335 89.5534L228.83 87.5386L225.312 89.5776L228.818 91.5924Z"/><path fill="#072359" d="M214.746 99.7122L218.263 97.6853L214.77 95.6705L211.252 97.6975L207.758 95.6827L204.264 93.6558L200.746 95.6948L204.24 97.7096L200.722 99.7486L197.228 97.7217L193.711 99.7608L197.204 101.776L200.698 103.79L186.626 111.922L190.12 113.937L186.602 115.976L183.108 113.949L179.614 111.934L183.132 109.895L179.639 107.881L162.049 118.039L165.543 120.054L176.096 113.961L179.59 115.988L169.048 122.081L172.542 124.096L179.578 120.03L183.072 122.057L186.59 120.018L190.083 122.045L193.577 124.059L190.059 126.086L193.553 128.113L197.071 126.074L200.564 128.101L207.6 124.035L204.107 122.02L200.589 124.047L197.095 122.033L200.613 119.994L197.119 117.979L193.601 120.006L190.108 117.991L193.613 115.964L197.119 117.979L200.637 115.94L197.131 113.925L193.638 111.91L207.71 103.778L204.216 101.763L207.734 99.7244L211.228 101.751L207.71 103.778L211.203 105.805L218.239 101.739L214.746 99.7122Z"/><path fill="#072359" d="M179.555 124.083L176.037 126.11L179.531 128.137L183.049 126.098L179.555 124.083Z"/><path fill="#072359" d="M204.168 109.858L207.662 111.885L214.698 107.819L211.204 105.805L204.168 109.858Z"/><path fill="#072359" d="M239.323 93.5954L246.359 89.5294L242.853 87.5146L235.829 91.5806L239.323 93.5954Z"/><path fill="#072359" d="M207.649 115.927L204.144 113.913L200.638 115.94L204.131 117.966L207.649 115.927Z"/><path fill="#072359" d="M190.035 130.14L186.542 128.126L183.024 130.153L179.53 128.138L172.494 132.204L169 130.189L165.507 128.174L162.013 126.159L165.531 124.133L162.037 122.118L158.543 120.103L140.954 130.262L144.447 132.277L147.941 134.291L151.435 136.306L158.471 132.24L154.977 130.225L151.459 132.252L147.965 130.238L151.483 128.211L154.977 130.225L158.495 128.199L161.989 130.213L158.471 132.24L161.964 134.255L154.928 138.321L158.422 140.336L161.916 142.351L165.41 144.365L168.903 146.38L172.397 148.395L175.915 146.368L172.421 144.353L168.928 142.338L165.434 140.324L161.94 138.309L168.976 134.243L172.47 136.258L175.963 138.272L172.445 140.299L175.939 142.314L182.975 138.248L186.469 140.263L189.987 138.236L186.493 136.221L190.011 134.194L186.517 132.18L190.035 130.14ZM179.481 136.233L175.988 134.219L179.506 132.192L182.999 134.206L179.481 136.233Z"/><path fill="#072359" d="M214.673 111.874L211.155 113.9L214.661 115.915L218.154 117.942L221.672 115.903L218.179 113.888L214.673 111.874Z"/><path fill="#072359" d="M242.793 99.6643L246.311 97.6374L249.804 99.6522L253.322 97.6252L256.816 99.64L260.31 101.667L253.274 105.721L256.779 107.748L267.321 101.643L263.828 99.6279L260.334 97.6131L256.84 95.5862L253.346 93.5714L249.853 91.5566L239.299 97.6495L242.793 99.6643Z"/><path fill="#072359" d="M193.554 128.114L190.036 130.141L193.529 132.155L190.011 134.194L193.505 136.209L200.541 132.143L204.035 134.17L207.541 136.185L211.046 134.158L207.553 132.131L211.071 130.104L207.577 128.089L204.059 130.116L200.565 128.102L197.047 130.128L193.554 128.114Z"/><path fill="#072359" d="M214.636 119.97L211.143 117.955L207.625 119.982L211.118 122.009L214.612 124.024L218.13 121.985L214.636 119.97Z"/><path fill="#072359" d="M225.142 121.972L228.635 123.999L232.129 126.014L235.647 123.987L232.153 121.96L228.66 119.945L225.166 117.93L221.648 119.957L225.142 121.972Z"/><path fill="#072359" d="M242.707 115.867L246.225 113.84L242.731 111.813L239.213 113.852L242.707 115.867Z"/><path fill="#072359" d="M249.755 107.759L246.261 105.744L249.779 103.717L246.286 101.702L232.214 109.834L228.72 107.819L232.238 105.793L228.744 103.778L232.262 101.751L235.756 103.766L239.274 101.739L235.78 99.724L232.287 97.7092L235.805 95.6823L232.311 93.6675L218.239 101.799L221.733 103.814L214.697 107.88L218.191 109.895L221.708 107.868L225.202 109.883L228.696 111.898L221.66 115.964L225.154 117.978L228.672 115.951L232.165 117.966L235.659 119.981L239.153 121.996L242.646 124.01L239.128 126.037L242.622 128.052L249.658 123.986L246.164 121.971L249.682 119.945L253.176 121.959L256.694 119.932L253.2 117.918L256.718 115.891L260.212 117.905L263.706 119.92L249.634 128.052L253.127 130.067L274.235 117.881L270.742 115.866L267.224 117.893L263.73 115.879L260.236 113.864L263.754 111.837L260.26 109.822L256.767 107.807L253.249 109.834L249.755 107.759ZM253.237 113.827L242.683 119.92L239.189 117.905L235.695 115.879L232.202 113.864L242.756 107.771L246.249 109.786L249.743 111.8L253.237 113.827Z"/><path fill="#072359" d="M218.045 138.187L214.552 136.172L211.034 138.199L214.528 140.226L218.021 142.241L221.515 144.268L225.009 146.283L228.502 148.297L232.02 146.27L228.527 144.243L225.033 142.229L228.551 140.202L232.044 142.217L235.562 140.19L232.069 138.163L228.575 136.148L221.539 140.214L218.045 138.187Z"/><path fill="#072359" d="M232.105 130.067L228.611 128.052L225.094 130.079L221.6 128.065L225.118 126.026L221.624 124.011L214.588 128.077L218.082 130.091L221.576 132.106L218.058 134.145L221.563 136.16L228.587 132.094L232.093 134.121L235.587 136.136L239.08 138.151L242.598 136.124L239.105 134.109L246.14 130.043L242.635 128.016L235.611 132.082L232.105 130.067Z"/><path fill="#072359" d="M270.778 111.764L267.26 113.803L270.754 115.818L274.272 113.791L270.778 111.764Z"/><path fill="#072359" d="M277.79 111.753L281.308 109.726L277.814 107.711L274.321 105.684L267.285 109.75L270.778 111.765L274.296 109.738L277.79 111.753Z"/><path fill="#072359" d="M277.766 115.806L274.248 117.833L277.742 119.86L288.296 113.767L284.802 111.74L281.284 113.779L277.79 111.752L274.272 113.791L277.766 115.806Z"/><path fill="#072359" d="M249.61 136.112L246.116 134.097L242.598 136.124L246.092 138.139L249.61 136.112Z"/><path fill="#072359" d="M253.129 134.073L256.647 132.046L253.153 130.031L249.635 132.058L253.129 134.073Z"/><path fill="#072359" d="M158.58 111.97L155.086 109.956L151.592 107.941L148.099 105.926L144.605 103.911L141.111 101.897L137.618 99.8818L112.992 114.107L116.486 116.121L119.979 118.136L123.473 120.151L126.967 122.166L130.46 124.181L133.954 126.195L137.448 128.21L162.073 113.985L158.58 111.97ZM137.472 124.156L133.978 122.141L130.485 120.127L126.991 118.112L123.497 116.097L120.003 114.082L137.593 103.924L141.087 105.938L144.581 107.953L148.074 109.968L151.568 111.983L155.062 113.997L137.472 124.156Z"/><path fill="#072359" d="M137.496 120.115L148.05 114.01L137.569 107.953L127.015 114.058L137.496 120.115Z"/><path fill="#072359" d="M176.303 77.5133L179.796 79.5281L183.29 81.5429L186.784 83.5577L190.278 85.5724L193.771 87.5872L197.265 89.602L200.759 91.6167L225.384 77.392L221.891 75.3772L218.397 73.3624L214.903 71.3477L211.41 69.3329L207.916 67.3181L204.422 65.3033L200.929 63.2886L176.303 77.5133ZM204.386 69.3572L207.88 71.3719L211.373 73.3867L214.867 75.4015L218.361 77.4162L200.771 87.5751L197.277 85.5603L193.783 83.5455L190.29 81.5308L186.796 79.516L183.302 77.5012L200.892 67.3424L204.386 69.3572Z"/><path fill="#072359" d="M200.868 71.3838L190.326 77.4888L200.807 83.5452L211.361 77.4402L200.868 71.3838Z"/><path fill="#072359" d="M179.396 152.436L182.89 154.451L186.384 156.465L189.877 158.48L193.371 160.495L196.865 162.51L200.358 164.525L224.984 150.3L221.49 148.285L217.997 146.27L214.503 144.255L211.009 142.241L207.516 140.226L204.022 138.211L200.528 136.196L175.903 150.421L179.396 152.436ZM200.504 140.25L203.998 142.265L207.491 144.28L210.985 146.294L214.479 148.309L217.973 150.324L200.383 160.483L196.889 158.468L193.395 156.453L189.902 154.439L186.408 152.424L182.914 150.409L200.504 140.25Z"/><path fill="#072359" d="M200.48 144.304L189.926 150.397L200.407 156.454L210.961 150.361L200.48 144.304Z"/><path fill="#6654A4" d="M114.946 121.025L111.877 122.797L96.8344 114.106L111.974 105.368L115.031 107.128L102.96 114.094L114.946 121.025Z"/><path fill="#6654A4" d="M216.008 62.6453L212.939 64.4174L200.954 57.4991L188.884 64.4659L185.827 62.6939L200.966 53.9551L216.008 62.6453Z"/><path fill="#6654A4" d="M304.455 113.731L289.316 122.482L286.259 120.71L298.329 113.743L286.331 106.813L289.413 105.041L304.455 113.731Z"/><path fill="#6654A4" d="M215.462 165.144L200.323 173.883L185.268 165.193L188.35 163.421L200.335 170.351L212.405 163.372L215.462 165.144Z"/><path fill="#F7FEFE" d="M296.752 169.428C292.227 172.038 292.203 176.286 296.703 178.883C301.204 181.48 308.543 181.468 313.068 178.859C317.592 176.249 317.617 172.001 313.116 169.404C308.616 166.806 301.276 166.819 296.752 169.428Z"/><path fill="#F7FEFE" d="M292.674 167.086C285.881 171.018 285.845 177.366 292.602 181.262C299.359 185.17 310.349 185.146 317.143 181.213C323.936 177.281 323.972 170.933 317.215 167.037C310.458 163.129 299.468 163.153 292.674 167.086ZM314.049 179.429C308.978 182.354 300.742 182.379 295.707 179.466C290.661 176.553 290.697 171.795 295.768 168.87C300.839 165.945 309.075 165.921 314.11 168.833C319.144 171.746 319.12 176.492 314.049 179.429Z"/><path fill="url(#paint3_linear)" d="M252.316 90.1245L159.454 143.771L190.909 161.94L237.34 135.117L283.771 108.294L252.316 90.1245Z"/><path fill="#403567" d="M64.566 122.518C64.566 121.996 64.2506 121.402 63.8624 121.183L46.4424 111.122C46.2726 111.024 46.1149 111.024 45.9936 111.097L45.9815 111.085L44.4893 111.947L62.8313 123.951L64.3234 123.089L64.3112 123.077C64.4568 123.004 64.566 122.81 64.566 122.518Z"/><path fill="#6654A4" d="M44.9496 113.853L62.3696 123.914C62.7578 124.133 63.0732 123.902 63.0732 123.38C63.0732 122.858 62.7578 122.264 62.3696 122.045L44.9496 111.984C44.5614 111.765 44.246 111.996 44.246 112.518C44.246 113.027 44.5614 113.634 44.9496 113.853Z"/><path fill="#403567" d="M88.2446 136.208C88.2446 135.687 87.9292 135.092 87.541 134.873L70.1211 124.812C69.9513 124.714 69.7936 124.714 69.6723 124.787L69.6602 124.775L68.1681 125.637L86.5099 137.641L88.002 136.779L87.9899 136.767C88.1476 136.682 88.2446 136.5 88.2446 136.208Z"/><path fill="#6654A4" d="M68.6411 127.543L86.061 137.604C86.4492 137.823 86.7646 137.592 86.7646 137.07C86.7646 136.548 86.4492 135.954 86.061 135.735L68.6411 125.673C68.2529 125.455 67.9375 125.686 67.9375 126.207C67.9375 126.717 68.2529 127.312 68.6411 127.543Z"/><defs><linearGradient id="paint0_linear" x1="307.596" x2="46.487" y1="182.538" y2="34.215" gradientUnits="userSpaceOnUse"><stop stop-color="#403C77"/><stop offset=".711" stop-color="#6654A4"/><stop offset="1" stop-color="#A191D7"/></linearGradient><linearGradient id="paint1_linear" x1="294.945" x2="229.202" y1="208.84" y2="-27.688" gradientUnits="userSpaceOnUse"><stop stop-color="#61519E"/><stop offset=".53" stop-color="#9282CA"/><stop offset="1" stop-color="#A192D7"/></linearGradient><linearGradient id="paint2_linear" x1="54.629" x2="196.63" y1="29.568" y2="275.386" gradientUnits="userSpaceOnUse"><stop stop-color="#A292DA"/><stop offset="1" stop-color="#3B2D6D"/></linearGradient><linearGradient id="paint3_linear" x1="206.662" x2="220.948" y1="117.397" y2="142.128" gradientUnits="userSpaceOnUse"><stop stop-color="#F05665"/><stop offset=".947" stop-color="#F05665" stop-opacity=".07"/></linearGradient></defs></svg>