<svg width="50" height="51" viewBox="0 0 50 51" fill="none" xmlns="http://www.w3.org/2000/svg">
<path fill-rule="evenodd" clip-rule="evenodd" d="M15.0412 12.9279C13.2412 12.9279 11.5537 13.6237 10.2912 14.8883C7.67035 17.5133 7.67035 21.7862 10.2933 24.4154L24.9995 39.1466L39.7078 24.4154C42.3308 21.7862 42.3308 17.5133 39.7078 14.8883C37.1828 12.3571 32.7328 12.3612 30.2078 14.8883L26.4745 18.6279C25.6912 19.4133 24.3078 19.4133 23.5245 18.6279L19.7912 14.8862C18.5287 13.6237 16.8433 12.9279 15.0412 12.9279ZM24.9996 44.1779C24.4475 44.1779 23.9163 43.9591 23.5267 43.5654L7.34336 27.3571C3.10169 23.1071 3.10169 16.1925 7.34336 11.9425C9.39336 9.89248 12.1267 8.76123 15.0413 8.76123C17.9559 8.76123 20.6913 9.89248 22.7392 11.9425L24.9996 14.2071L27.26 11.9446C29.31 9.89248 32.0434 8.76123 34.96 8.76123C37.8725 8.76123 40.6079 9.89248 42.6559 11.9425C46.8996 16.1925 46.8996 23.1071 42.6579 27.3571L26.4746 43.5675C26.0829 43.9591 25.5538 44.1779 24.9996 44.1779Z" fill="#FF5364"/>
<mask id="mask0" mask-type="alpha" maskUnits="userSpaceOnUse" x="4" y="8" width="42" height="37">
<path fill-rule="evenodd" clip-rule="evenodd" d="M15.0412 12.9279C13.2412 12.9279 11.5537 13.6237 10.2912 14.8883C7.67035 17.5133 7.67035 21.7862 10.2933 24.4154L24.9995 39.1466L39.7078 24.4154C42.3308 21.7862 42.3308 17.5133 39.7078 14.8883C37.1828 12.3571 32.7328 12.3612 30.2078 14.8883L26.4745 18.6279C25.6912 19.4133 24.3078 19.4133 23.5245 18.6279L19.7912 14.8862C18.5287 13.6237 16.8433 12.9279 15.0412 12.9279ZM24.9996 44.1779C24.4475 44.1779 23.9163 43.9591 23.5267 43.5654L7.34336 27.3571C3.10169 23.1071 3.10169 16.1925 7.34336 11.9425C9.39336 9.89248 12.1267 8.76123 15.0413 8.76123C17.9559 8.76123 20.6913 9.89248 22.7392 11.9425L24.9996 14.2071L27.26 11.9446C29.31 9.89248 32.0434 8.76123 34.96 8.76123C37.8725 8.76123 40.6079 9.89248 42.6559 11.9425C46.8996 16.1925 46.8996 23.1071 42.6579 27.3571L26.4746 43.5675C26.0829 43.9591 25.5538 44.1779 24.9996 44.1779Z" fill="white"/>
</mask>
<g mask="url(#mask0)">
<rect y="0.427734" width="50" height="50" fill="#FF5364"/>
</g>
</svg>
