<svg width="385" height="346" viewBox="0 0 385 346" fill="none" xmlns="http://www.w3.org/2000/svg">
<path opacity="0.9" d="M149.556 147.926C205.774 120.388 321.892 -4.28697 373.53 95.1647C416.743 178.385 321.168 256.453 263.947 285.014C189.513 322.18 80.105 307.504 21.209 237.249C-4.11926 206.998 -13.2581 164.23 30.9268 156.271C45.8343 153.58 71.1419 163.385 87.9929 162.53C109.589 161.435 130.741 157.137 149.556 147.926Z" fill="#D6DCFD"/>
<path d="M168.295 93.8133C166.209 98.9296 153.928 98.5867 141.054 93.2226C128.179 87.8586 119.438 79.3695 121.534 74.2627C122.015 73.0812 123.365 68.6509 124.819 68.0316C129.614 65.9927 138.741 70.585 148.624 74.7009C157.827 78.531 168.342 80.9987 169.975 86.0388C170.966 89.1162 168.889 92.3556 168.295 93.8133Z" fill="#6654A4"/>
<path opacity="0.2" d="M169.984 86.0478C170.768 90.0589 169.041 91.9835 168.295 93.8128C167.521 95.6993 165.369 96.8426 162.32 97.2618C161.952 97.319 161.565 97.3571 161.168 97.3857C159.12 97.5381 156.751 97.4143 154.165 97.0141C153.834 96.976 153.504 96.9093 153.164 96.8521C150.635 96.4139 147.935 95.7088 145.151 94.7751C144.848 94.6703 144.546 94.5655 144.244 94.4512C143.187 94.0796 142.111 93.6699 141.045 93.2221C139.978 92.7838 138.94 92.3075 137.93 91.8216C137.637 91.6882 137.354 91.5452 137.071 91.4023C134.532 90.1352 132.229 88.7537 130.209 87.3436C129.944 87.1625 129.69 86.972 129.435 86.8005C127.32 85.2475 125.546 83.6564 124.205 82.0843C123.97 81.8176 123.762 81.5603 123.554 81.2935C121.525 78.6925 120.723 76.2248 121.525 74.2526C122.044 72.9759 123.186 68.6409 124.8 68.0216C126.414 67.4118 128.5 67.4976 130.917 68.012C131.228 68.0787 131.549 68.155 131.87 68.2407C136.637 69.4602 142.536 72.1756 148.605 74.7004C155.769 77.6826 164.236 80.779 168.38 84.3519C168.635 84.571 168.871 84.7902 169.088 85.0188C169.446 85.3618 169.73 85.7048 169.984 86.0478Z" fill="black"/>
<g opacity="0.2">
<path opacity="0.2" d="M132.323 67.45L131.889 68.2503L124.225 82.094C123.989 81.8272 123.781 81.5699 123.573 81.3032L130.936 68.0217L131.502 66.9927L132.323 67.45Z" fill="black"/>
</g>
<g opacity="0.2">
<path opacity="0.2" d="M138.119 73.0909L130.218 87.3537C129.954 87.1727 129.699 86.9821 129.444 86.8106L137.298 72.624L138.119 73.0909Z" fill="black"/>
</g>
<g opacity="0.2">
<path opacity="0.2" d="M152.645 81.2842L145.169 94.7849C144.867 94.6801 144.565 94.5753 144.263 94.4609L151.824 80.8174L152.645 81.2842Z" fill="black"/>
</g>
<g opacity="0.2">
<path opacity="0.2" d="M145.887 77.4732L137.939 91.8313C137.646 91.6979 137.363 91.555 137.08 91.4121L145.056 77.0063L145.887 77.4732Z" fill="black"/>
</g>
<g opacity="0.2">
<path opacity="0.2" d="M161.452 83.8948L154.175 97.0239C153.844 96.9858 153.514 96.9191 153.174 96.8619L160.622 83.4185L161.452 83.8948Z" fill="black"/>
</g>
<path d="M169.928 89.316C167.842 94.4323 155.713 94.2323 142.838 88.8682C129.963 83.5042 121.223 75.015 123.318 69.9082C125.404 64.7919 137.533 64.992 150.408 70.356C163.273 75.7201 172.014 84.2092 169.928 89.316Z" fill="#6654A4"/>
<path opacity="0.2" d="M165.548 87.4967C164.076 91.1077 154.618 90.6027 144.434 86.3629C134.249 82.1231 127.189 75.7587 128.661 72.1382C130.133 68.5272 139.591 69.0322 149.776 73.2719C159.97 77.5213 167.03 83.8857 165.548 87.4967Z" fill="white"/>
<path d="M233.348 47.5659C236.699 51.9391 230.299 62.5147 219.293 71.1277C208.288 79.7311 196.64 83.1611 193.289 78.7879C192.515 77.778 189.381 74.3862 189.57 72.8141C190.203 67.6025 198.688 61.8954 207.146 55.2833C215.018 49.1284 222.361 41.1443 227.515 42.2209C230.639 42.8879 232.395 46.3273 233.348 47.5659Z" fill="#6654A4"/>
<path opacity="0.2" d="M227.515 42.2305C231.357 43.5453 232.15 46.0034 233.348 47.5659C234.585 49.1761 234.5 51.6342 233.348 54.5116C233.216 54.8641 233.056 55.2166 232.886 55.5787C231.999 57.4461 230.715 59.4659 229.091 61.5239C228.893 61.7907 228.676 62.0479 228.459 62.3147C226.826 64.306 224.872 66.3258 222.682 68.298C222.446 68.5076 222.201 68.7268 221.955 68.9364C221.106 69.67 220.228 70.4132 219.303 71.1277C218.397 71.8423 217.472 72.5188 216.556 73.1571C216.292 73.3477 216.028 73.5192 215.773 73.7002C213.423 75.2913 211.091 76.6252 208.864 77.6923C208.571 77.8352 208.288 77.959 208.005 78.0924C205.626 79.169 203.361 79.9313 201.36 80.3314C201.02 80.4076 200.689 80.4648 200.359 80.5124C197.112 80.9983 194.592 80.4743 193.299 78.7879C192.459 77.7018 189.306 74.5481 189.57 72.8236C189.844 71.0991 190.958 69.3175 192.6 67.4691C192.817 67.2309 193.034 66.9832 193.27 66.745C196.687 63.1817 201.954 59.3611 207.146 55.3024C213.272 50.5195 220.143 44.641 225.278 42.7831C225.589 42.6592 225.901 42.5735 226.203 42.4877C226.666 42.3639 227.09 42.2781 227.515 42.2305Z" fill="black"/>
<g opacity="0.2">
<path opacity="0.2" d="M192.798 65.9546L193.26 66.7359L201.34 80.3318C201 80.408 200.67 80.4651 200.339 80.5128L192.59 67.46L191.986 66.45L192.798 65.9546Z" fill="black"/>
</g>
<g opacity="0.2">
<path opacity="0.2" d="M200.528 63.6865L208.853 77.6921C208.561 77.835 208.278 77.9589 207.994 78.0923L199.707 64.1629L200.528 63.6865Z" fill="black"/>
</g>
<g opacity="0.2">
<path opacity="0.2" d="M214.791 55.0454L222.672 68.3079C222.436 68.5175 222.191 68.7366 221.945 68.9462L213.979 55.5409L214.791 55.0454Z" fill="black"/>
</g>
<g opacity="0.2">
<path opacity="0.2" d="M208.165 59.0659L216.547 73.1668C216.282 73.3573 216.018 73.5288 215.763 73.7099L207.353 59.5518L208.165 59.0659Z" fill="black"/>
</g>
<g opacity="0.2">
<path opacity="0.2" d="M221.417 48.6235L229.081 61.5335C228.883 61.8002 228.666 62.0575 228.449 62.3242L220.605 49.119L221.417 48.6235Z" fill="black"/>
</g>
<path d="M216.432 67.4013C227.44 58.7956 233.644 48.2749 230.29 43.9027C226.935 39.5304 215.292 42.9622 204.283 51.5679C193.275 60.1736 187.071 70.6943 190.425 75.0666C193.78 79.4389 205.423 76.007 216.432 67.4013Z" fill="#6654A4"/>
<path opacity="0.2" d="M215.068 64.7568C223.781 57.9457 228.921 49.9185 226.549 46.8275C224.178 43.7366 215.192 46.7523 206.48 53.5634C197.767 60.3745 192.627 68.4017 194.998 71.4927C197.37 74.5836 206.355 71.5679 215.068 64.7568Z" fill="white"/>
<path d="M187.786 27.0812C186.682 33.3503 172.788 36.0086 156.996 33.1789C141.214 30.3396 129.312 22.9557 130.416 16.6866C130.671 15.2288 131.115 9.92194 132.597 8.86437C137.495 5.37726 148.879 8.28319 161.008 10.465C172.297 12.4944 184.728 12.6564 187.796 17.9251C189.646 21.1264 188.098 25.29 187.786 27.0812Z" fill="#6654A4"/>
<path opacity="0.2" d="M187.786 17.9255C189.646 22.2415 188.173 24.833 187.777 27.0815C187.371 29.3967 185.228 31.2165 181.896 32.4456C181.5 32.6076 181.075 32.7409 180.631 32.8743C178.366 33.5508 175.667 34.0081 172.665 34.1987C172.278 34.2368 171.9 34.2463 171.504 34.2654C168.559 34.3987 165.35 34.2749 161.99 33.9128C161.631 33.8747 161.253 33.8271 160.885 33.7795C159.611 33.6175 158.299 33.4269 156.987 33.1887C155.684 32.9601 154.401 32.6838 153.145 32.3884C152.787 32.3122 152.428 32.2169 152.079 32.1312C148.917 31.3309 145.99 30.359 143.366 29.2634C143.017 29.1204 142.696 28.9775 142.366 28.8441C139.619 27.6246 137.222 26.2622 135.334 24.8426C135.004 24.6044 134.701 24.3662 134.409 24.1184C131.492 21.6984 129.991 19.1165 130.416 16.706C130.69 15.1434 130.916 9.97947 132.587 8.88379C134.258 7.78812 136.627 7.3689 139.459 7.35938C139.827 7.35938 140.204 7.35937 140.591 7.37843C146.245 7.56898 153.551 9.1601 160.989 10.494C169.767 12.0755 180.046 13.4475 185.587 16.4392C185.927 16.6202 186.248 16.8108 186.55 17.0108C187.012 17.2871 187.418 17.6016 187.786 17.9255Z" fill="black"/>
<g opacity="0.2">
<path opacity="0.2" d="M140.893 6.35006L140.591 7.35046L135.334 24.8241C135.003 24.5859 134.701 24.3477 134.409 24.1L139.459 7.3314L139.846 6.03564L140.893 6.35006Z" fill="black"/>
</g>
<g opacity="0.2">
<path opacity="0.2" d="M148.784 11.2566L143.366 29.2542C143.017 29.1113 142.696 28.9684 142.366 28.835L147.746 10.9326L148.784 11.2566Z" fill="black"/>
</g>
<g opacity="0.2">
<path opacity="0.2" d="M167.124 16.8681L161.999 33.913C161.64 33.8749 161.263 33.8273 160.895 33.7796L166.077 16.5537L167.124 16.8681Z" fill="black"/>
</g>
<g opacity="0.2">
<path opacity="0.2" d="M158.601 14.2575L153.155 32.3791C152.796 32.3028 152.438 32.2076 152.088 32.1218L157.554 13.9336L158.601 14.2575Z" fill="black"/>
</g>
<g opacity="0.2">
<path opacity="0.2" d="M177.668 17.6106L172.675 34.1886C172.288 34.2267 171.91 34.2362 171.514 34.2553L176.62 17.2866L177.668 17.6106Z" fill="black"/>
</g>
<path d="M188.52 21.6191C189.625 15.3509 177.723 7.97057 161.936 5.13482C146.15 2.29907 132.456 5.0817 131.351 11.35C130.246 17.6183 142.148 24.9985 157.934 27.8343C173.721 30.67 187.414 27.8874 188.52 21.6191Z" fill="#6654A4"/>
<path opacity="0.2" d="M183.148 20.6563C183.929 16.2271 174.435 10.8174 161.943 8.57352C149.451 6.32962 138.692 8.1012 137.911 12.5304C137.13 16.9597 146.624 22.3693 159.115 24.6132C171.607 26.8571 182.367 25.0855 183.148 20.6563Z" fill="white"/>
<path d="M270.188 187.136L173.051 192.843C169.606 193.043 166.227 193.881 163.084 195.301L57.575 242.968C53.7428 244.702 51.6285 248.846 52.4874 252.933L69.9401 336.148C71.1388 341.855 77.4441 344.865 82.6827 342.226L186.823 289.748L282.987 286.471C288.037 286.299 291.812 281.735 291.01 276.771L278.135 197.083C277.465 192.967 274.369 187.012 270.188 187.136Z" fill="#6654A4"/>
<path opacity="0.1" d="M270.188 187.136L173.051 192.843C169.606 193.043 166.227 193.881 163.084 195.301L57.575 242.968C53.7428 244.702 51.6285 248.846 52.4874 252.933L69.9401 336.148C71.1388 341.855 77.4441 344.865 82.6827 342.226L186.823 289.748L282.987 286.471C288.037 286.299 291.812 281.735 291.01 276.771L278.135 197.083C277.465 192.967 274.369 187.012 270.188 187.136Z" fill="black"/>
<path d="M75.2034 132.965L24.2256 180.391L115.693 280.565L166.671 233.139L75.2034 132.965Z" fill="#6654A4"/>
<path opacity="0.5" d="M166.679 233.126L115.699 280.554L24.2358 180.39L57.6875 149.263L75.2157 132.952L78.1323 136.153L166.679 233.126Z" fill="#FAFAFA"/>
<path d="M75.5325 139.088L30.5513 180.935L116.108 274.635L161.09 232.788L75.5325 139.088Z" stroke="#6654A4" stroke-miterlimit="10"/>
<path d="M105.965 217.94C111.125 213.14 110.472 203.954 104.508 197.423C98.5437 190.891 89.5261 189.489 84.3668 194.289C79.2074 199.09 79.8599 208.276 85.8243 214.807C91.7886 221.338 100.806 222.741 105.965 217.94Z" fill="#6654A4"/>
<path opacity="0.1" d="M115.162 239.909L97.049 246.216L57.6885 149.263L75.2166 132.952L78.1333 136.153L115.162 239.909Z" fill="black"/>
<path d="M118.677 93.7127L53.5005 117.562L99.4975 245.637L164.674 221.788L118.677 93.7127Z" fill="#6654A4"/>
<path opacity="0.5" d="M118.677 93.7127L53.5005 117.562L99.4975 245.637L164.674 221.788L118.677 93.7127Z" fill="#FAFAFA"/>
<path d="M116.631 99.4942L59.1216 120.538L102.146 240.337L159.656 219.293L116.631 99.4942Z" stroke="#6654A4" stroke-miterlimit="10"/>
<path d="M114.483 184.084C121.08 181.671 123.996 172.945 120.997 164.595C117.998 156.244 110.22 151.432 103.624 153.846C97.0271 156.26 94.1108 164.985 97.1096 173.336C100.109 181.686 107.887 186.498 114.483 184.084Z" fill="#6654A4"/>
<path d="M270.82 190.518L175.015 195.968C171.616 196.158 168.285 196.987 165.189 198.397L61.2278 245.768C57.4522 247.483 55.3756 251.628 56.2346 255.715L73.6683 338.939C74.8671 344.646 81.0968 347.666 86.2599 345.046L188.861 292.863L283.714 289.834C288.697 289.672 292.407 285.127 291.605 280.163L278.702 200.484C278.012 196.368 274.954 190.403 270.82 190.518Z" fill="#6654A4"/>
<path opacity="0.2" d="M178.913 210.545L261.117 205.438" stroke="black" stroke-width="2" stroke-miterlimit="10" stroke-linecap="round" stroke-linejoin="round"/>
<path opacity="0.2" d="M169.068 212.688L184.086 282.316" stroke="black" stroke-width="2" stroke-miterlimit="10" stroke-linecap="round" stroke-linejoin="round"/>
<path opacity="0.2" d="M68.9399 275.552L79.5305 329.117C79.5305 329.107 87.648 307.86 68.9399 275.552Z" fill="#FAFAFA"/>
<path opacity="0.2" d="M70.3276 276.181C70.6863 277.162 164.387 236.546 164.387 236.546C164.387 236.546 166.756 265.739 138.562 281.707C110.368 297.666 70.3276 276.181 70.3276 276.181Z" fill="#FAFAFA"/>
<path d="M132.568 277.763C134.81 277.763 136.627 275.928 136.627 273.666C136.627 271.403 134.81 269.569 132.568 269.569C130.326 269.569 128.509 271.403 128.509 273.666C128.509 275.928 130.326 277.763 132.568 277.763Z" fill="#6654A4"/>
<path opacity="0.2" d="M164.443 236.546C164.443 236.546 176.063 254.191 173.25 284.27L164.443 236.546Z" fill="black"/>
<g opacity="0.2">
<g opacity="0.2">
<path opacity="0.2" d="M64.4561 254.515L66.6176 253.552" stroke="#FAFAFA" stroke-linecap="round" stroke-linejoin="round"/>
<path opacity="0.2" d="M71.1011 251.551L158.6 212.507" stroke="#FAFAFA" stroke-linecap="round" stroke-linejoin="round" stroke-dasharray="5.2 5.2"/>
<path opacity="0.2" d="M160.847 211.507L162.999 210.544" stroke="#FAFAFA" stroke-linecap="round" stroke-linejoin="round"/>
</g>
</g>
<path opacity="0.2" d="M181.669 226.199L263.873 221.083" stroke="black" stroke-width="2" stroke-miterlimit="10" stroke-linecap="round" stroke-linejoin="round"/>
<path opacity="0.2" d="M185.369 245.721L267.573 240.604" stroke="black" stroke-width="2" stroke-miterlimit="10" stroke-linecap="round" stroke-linejoin="round"/>
<path d="M249.555 107.037C249.555 107.037 247.488 129.265 239.304 131.18C231.12 133.095 224.211 129.656 224.211 129.656L217.557 124.492L214.31 135.915C214.31 135.915 217.859 140.784 225.268 137.411C225.268 137.411 238.473 143.29 245.789 137.411C253.104 131.533 255.435 115.44 255.435 115.44L249.555 107.037Z" fill="#B97964"/>
<path d="M256.134 96.2707C256.134 96.2707 250.423 86.4477 253.019 68.6406C255.615 50.8335 270.405 48.604 276.116 49.9093C281.827 51.2146 286.499 56.7406 290.388 67.2686C294.277 77.8062 295.711 80.5501 302.196 78.7208C308.68 76.8915 325.935 71.1273 330.739 76.2341C335.544 81.3409 333.986 87.1051 333.986 87.1051C333.986 87.1051 357.99 81.2075 355.913 102.816C353.836 124.425 319.195 144.595 286.244 123.243C253.283 101.902 256.134 96.2707 256.134 96.2707Z" fill="#263238"/>
<path d="M255.869 148.568C255.869 148.568 249.347 205.19 249.564 231.753C249.781 258.307 259.135 320.865 259.135 320.865H270.66C270.66 320.865 269.14 270.826 269.357 253.705C269.575 236.584 272.623 208.277 272.623 208.277C272.623 208.277 276.323 233.735 280.665 242.739C285.017 251.733 309.152 283.565 325.897 293.435L333.722 286.194C333.722 286.194 316.326 264.462 309.803 253.715C303.281 242.958 297.41 239.89 295.022 219.911C292.634 199.941 296.759 167.89 289.802 148.577H255.869V148.568Z" fill="#263238"/>
<path opacity="0.2" d="M272.614 208.267L267.602 172.377C267.602 172.377 263.647 193.957 271.444 220.301L272.614 208.267Z" fill="black"/>
<path d="M261.495 324.047L261.882 335.166L269.613 335.814L270 334.775V323.266L261.495 324.047Z" fill="#FFC3BD"/>
<path d="M257.823 319.818L258.531 323.981L271.802 324.305L272.642 319.303L257.823 319.818Z" fill="#F05665"/>
<path d="M322.244 294.197L334.543 282.631L337.252 286.985L326.69 296.741L322.244 294.197Z" fill="#F05665"/>
<path d="M328.171 294.197L336.289 301.095L341.499 294.912L334.835 287.957L328.171 294.197Z" fill="#FFC3BD"/>
<path d="M343.076 294.435L347.985 297.484C348.938 298.075 349.136 299.39 348.39 300.238C344.832 304.287 335.742 314.596 334.836 315.33C333.713 316.244 332.354 314.682 332.033 313.253C332.033 313.253 334.61 309.804 334.836 307.593C335.006 305.964 334.921 303.601 334.874 302.467C334.855 302.039 334.997 301.619 335.27 301.295L340.754 294.807C341.34 294.121 342.321 293.959 343.076 294.435Z" fill="#263238"/>
<path d="M271.501 336.1L272.52 341.826C272.718 342.941 271.878 343.96 270.755 343.97C265.384 343.989 251.717 344.037 250.574 343.837C249.149 343.598 249.404 341.54 250.244 340.34C250.244 340.34 254.511 339.978 256.285 338.673C257.597 337.71 259.287 336.072 260.098 335.281C260.4 334.976 260.806 334.814 261.231 334.795L269.679 334.595C270.566 334.585 271.34 335.224 271.501 336.1Z" fill="#263238"/>
<path d="M291.03 117.165L302.81 108.818C302.81 108.818 299.676 96.1658 295.041 95.537C290.407 94.9082 267.347 90.4778 252.689 95.537C252.689 95.537 247.422 97.0519 245.798 111.982L252.066 114.001C252.066 114.001 254.322 141.956 255.7 146.262H289.161C289.142 146.262 289.52 122.224 291.03 117.165Z" fill="#F05665"/>
<path d="M293.568 115.364C293.568 115.364 298.023 128.226 298.826 135.143C298.826 135.143 288.216 130.884 285.47 128.922L283.403 121.395L276.342 117.974L274.294 123.615L280.108 130.989C280.108 130.989 296.079 146.081 304.187 142.622C312.295 139.164 300.978 110.104 300.978 110.104L293.568 115.364Z" fill="#FFC3BD"/>
<path d="M263.6 59.0463C263.6 59.0463 259.522 67.2877 259.862 73.9761C260.202 80.6645 263.515 83.4179 269.896 84.3612C269.896 84.3612 272.614 92.9455 265.478 93.803C264.94 93.8697 264.742 96.0515 264.789 96.4041C264.978 97.7951 266.337 98.5573 267.574 98.8813C268.895 99.2338 270.301 99.2909 271.67 99.3386C274.728 99.4434 277.248 98.1953 279.278 95.9182C279.438 95.7467 280.864 93.8888 280.864 93.8888C280.864 93.8888 277.466 92.1833 278.655 81.017C278.655 81.017 280.949 79.7308 282.223 76.5581C282.223 76.5581 284.432 75.4433 284.941 73.2139C285.451 70.9844 283.497 67.8974 279.929 70.9844C279.929 70.9844 273.218 67.5545 270.66 55.5401C270.651 55.5211 268.017 58.5318 263.6 59.0463Z" fill="#FFC3BD"/>
<path d="M265.516 72.1464L266.101 67.7446L263.015 71.1936C263.005 71.1936 263.987 72.3369 265.516 72.1464Z" fill="#ED847E"/>
<path d="M267.309 75.367C267.309 75.367 270.566 75.872 272.132 73.7568" stroke="#222221" stroke-width="0.75" stroke-miterlimit="10" stroke-linecap="round" stroke-linejoin="round"/>
<path d="M270.566 61.5809C270.566 61.5809 272.642 60.7711 274.785 62.7147" stroke="#222221" stroke-miterlimit="10" stroke-linecap="round" stroke-linejoin="round"/>
<path d="M264.931 60.628C264.931 60.628 263.081 60.3326 262.203 61.4188" stroke="#222221" stroke-miterlimit="10" stroke-linecap="round" stroke-linejoin="round"/>
<path d="M271.878 67.3733C271.793 68.0403 271.368 68.5262 270.934 68.469C270.5 68.4118 270.207 67.8307 270.292 67.1637C270.377 66.4968 270.802 66.0109 271.236 66.068C271.68 66.1252 271.963 66.7064 271.878 67.3733Z" fill="#222221"/>
<path d="M264.378 65.9034C264.463 65.2406 264.176 64.6566 263.737 64.599C263.297 64.5413 262.872 65.0319 262.786 65.6946C262.701 66.3573 262.988 66.9413 263.427 66.9989C263.867 67.0566 264.292 66.5661 264.378 65.9034Z" fill="#222221"/>
<path d="M271.245 66.0685L269.754 65.4111C269.754 65.4111 270.056 66.764 271.245 66.0685Z" fill="#222221"/>
<path d="M263.845 64.6579L262.354 64.0005C262.354 64.0005 262.665 65.3534 263.845 64.6579Z" fill="#222221"/>
<path d="M254.52 144.776V148.749L290.765 149.054L289.793 144.328L254.52 144.776Z" fill="#F05665"/>
<path d="M254.963 125.492L235.037 195.491C233.631 200.436 229.402 203.79 224.635 204.266C223.154 204.409 221.615 204.285 220.086 203.847L181.943 192.786C175.534 190.918 171.824 184.163 173.665 177.694L193.6 107.685C194.676 103.941 197.357 101.111 200.689 99.7485C203.105 98.7576 205.852 98.548 208.552 99.3388L246.685 110.391C253.103 112.249 256.803 119.004 254.963 125.492Z" fill="#6654A4"/>
<path opacity="0.2" d="M254.963 125.492L235.037 195.491C233.631 200.436 229.402 203.79 224.635 204.266C223.154 204.409 221.615 204.285 220.086 203.847L181.943 192.786C175.534 190.918 171.824 184.163 173.665 177.694L193.6 107.685C194.676 103.941 197.357 101.111 200.689 99.7485C203.105 98.7576 205.852 98.548 208.552 99.3388L246.685 110.391C253.103 112.249 256.803 119.004 254.963 125.492Z" fill="black"/>
<path d="M251.65 126.321L231.724 196.321C230.658 200.075 227.958 202.914 224.635 204.267C223.154 204.41 221.615 204.286 220.086 203.848L181.943 192.786C175.534 190.919 171.824 184.164 173.665 177.694L193.6 107.685C194.676 103.941 197.357 101.111 200.689 99.7489C202.171 99.606 203.709 99.7299 205.238 100.168L243.372 111.22C249.781 113.088 253.49 119.843 251.65 126.321Z" fill="#6654A4"/>
<path opacity="0.5" d="M251.65 126.321L231.724 196.321C230.658 200.075 227.958 202.914 224.635 204.267C223.154 204.41 221.615 204.286 220.086 203.848L181.943 192.786C175.534 190.919 171.824 184.164 173.665 177.694L193.6 107.685C194.676 103.941 197.357 101.111 200.689 99.7489C202.171 99.606 203.709 99.7299 205.238 100.168L243.372 111.22C249.781 113.088 253.49 119.843 251.65 126.321Z" fill="#FAFAFA"/>
<path d="M198.066 132.253L193.987 131.093L179.309 183.676L183.388 184.836L198.066 132.253Z" fill="#FAFAFA"/>
<path d="M189.23 186.526L185.152 185.335L199.83 132.771L203.898 133.953L189.23 186.526Z" fill="#FAFAFA"/>
<path d="M195.158 188.242L191.08 187.06L205.758 134.487L209.835 135.678L195.158 188.242Z" fill="#FAFAFA"/>
<path opacity="0.5" d="M233.586 142.55L229.506 141.39L214.828 193.972L218.907 195.132L233.586 142.55Z" fill="black"/>
<path d="M233.056 127.703L231.026 134.839L228.61 134.153C226.175 133.458 224.759 130.904 225.438 128.446L226.76 123.711L231.64 125.121C232.735 125.445 233.367 126.598 233.056 127.703Z" fill="#FAFAFA"/>
<path d="M231.894 124.206L227.014 122.796L228.477 117.575C229.156 115.117 231.695 113.688 234.131 114.374L236.641 115.089L234.452 122.777C234.14 123.892 232.998 124.53 231.894 124.206Z" fill="#FAFAFA"/>
<path d="M236.519 126.54L241.428 127.96L240.125 132.619C239.446 135.077 236.916 136.516 234.481 135.82L231.932 135.096L233.962 127.969C234.273 126.864 235.415 126.226 236.519 126.54Z" fill="#FAFAFA"/>
<path d="M243.164 121.749L241.682 127.046L236.774 125.626C235.679 125.302 235.047 124.149 235.358 123.044L237.548 115.355L239.993 116.051C242.428 116.737 243.844 119.29 243.164 121.749Z" fill="#FAFAFA"/>
</svg>
