<svg width="167" height="207" viewBox="0 0 167 207" fill="none" xmlns="http://www.w3.org/2000/svg">
    <path d="M93.7584 177.357C123.394 161.374 140.971 136.462 133.018 121.715C125.064 106.967 94.5918 107.968 64.9559 123.951C35.32 139.934 17.743 164.846 25.6966 179.594C33.6502 194.342 64.1225 193.34 93.7584 177.357Z" fill="#E0E0E0"/>
    <path d="M123.233 142.315C129.159 135.253 138.441 130.644 148.879 127.931C159.184 125.248 161.031 118.908 154.203 116.85C146.46 114.516 136.799 118.805 130.567 124.767C119.708 135.156 118.349 143.109 118.349 143.109L123.233 142.315Z" fill="#F05665"/>
    <path opacity="0.15" d="M123.233 142.315C129.159 135.253 138.441 130.644 148.879 127.931C159.184 125.248 161.031 118.908 154.203 116.85C146.46 114.516 136.799 118.805 130.567 124.767C119.708 135.156 118.349 143.109 118.349 143.109L123.233 142.315Z" fill="black"/>
    <path d="M120.183 141.905C120.141 141.905 120.093 141.893 120.051 141.875C119.901 141.803 119.841 141.623 119.913 141.472C128.708 123.425 148.169 118.985 152.903 119.322C153.072 119.334 153.192 119.479 153.18 119.647C153.168 119.815 153.012 119.936 152.855 119.924C148.235 119.569 129.111 123.972 120.448 141.737C120.4 141.839 120.292 141.905 120.183 141.905Z" fill="white"/>
    <path d="M118.349 144.192C118.349 145.467 119.732 146.244 120.833 145.6C126.344 142.393 134.381 140.619 147.393 144.318C154.311 146.286 157.716 144.968 159.172 142.153C160.79 139.025 157.361 135.999 153.451 134.573C140.138 129.706 128.124 133.027 118.349 142.736V144.192Z" fill="#F05665"/>
    <path d="M119.107 144.451C119.022 144.451 118.944 144.415 118.884 144.349C118.776 144.223 118.782 144.036 118.908 143.922C130.404 133.647 148.211 135.65 154.949 139.657C155.093 139.741 155.141 139.927 155.051 140.072C154.967 140.216 154.78 140.258 154.636 140.174C148.03 136.246 130.579 134.297 119.305 144.373C119.245 144.427 119.173 144.451 119.107 144.451Z" fill="white"/>
    <path d="M35.9077 163.828C30.8544 156.116 22.1797 150.449 12.1393 146.521C2.21928 142.641 1.13644 136.125 8.16288 134.892C16.1278 133.491 25.2176 138.887 30.698 145.54C40.2571 157.139 40.6662 165.194 40.6662 165.194L35.9077 163.828Z" fill="#F05665"/>
    <path opacity="0.15" d="M35.9077 163.828C30.8544 156.116 22.1797 150.449 12.1393 146.521C2.21928 142.641 1.13644 136.125 8.16288 134.892C16.1278 133.491 25.2176 138.887 30.698 145.54C40.2571 157.139 40.6662 165.194 40.6662 165.194L35.9077 163.828Z" fill="black"/>
    <path d="M38.9874 163.78C39.0295 163.786 39.0776 163.78 39.1197 163.768C39.2761 163.714 39.3604 163.54 39.3062 163.383C32.7009 144.427 13.8955 137.72 9.16109 137.497C8.99265 137.491 8.85429 137.618 8.84827 137.786C8.84226 137.954 8.98062 138.093 9.13703 138.099C13.7692 138.291 32.2377 144.921 38.7407 163.582C38.7768 163.696 38.8731 163.768 38.9874 163.78Z" fill="white"/>
    <path d="M40.7082 164.827C40.4856 166.686 38.3801 167.654 36.828 166.608C31.7266 163.191 24.1287 160.977 11.682 162.968C4.58338 164.105 1.35891 162.397 0.239977 159.431C-0.999276 156.134 2.76661 153.535 6.81523 152.579C20.6094 149.324 32.1477 154.041 40.7082 164.827Z" fill="#F05665"/>
    <path d="M39.7577 166.439C39.842 166.451 39.9262 166.427 39.9924 166.367C40.1187 166.259 40.1307 166.066 40.0164 165.94C29.8136 154.383 11.8926 154.269 4.72779 157.452C4.5774 157.518 4.50521 157.698 4.5774 157.849C4.64357 157.999 4.82405 158.071 4.97444 157.999C11.9949 154.883 29.561 154.997 39.5652 166.337C39.6134 166.397 39.6856 166.433 39.7577 166.439Z" fill="white"/>
    <path d="M128.63 30.6974L128.539 30.6433C128.533 30.6433 128.533 30.6373 128.527 30.6373L105.595 17.4386C105.589 17.4326 105.583 17.4326 105.571 17.4266L105.439 17.3604V17.3664C94.7247 11.9642 80.4312 13.5825 65.0608 23.5266C34.1757 43.499 10.636 89.4717 12.4888 126.204C13.4153 144.516 20.4718 157.071 31.1438 162.588V162.594L31.24 162.642C31.2461 162.642 31.2461 162.648 31.2521 162.648L54.1903 175.852C54.1963 175.852 54.1963 175.858 54.2023 175.858L54.3166 175.919V175.913C65.0307 181.333 79.3363 179.715 94.7247 169.77C125.61 149.798 149.15 103.825 147.297 67.0929C146.364 48.7749 139.302 36.2199 128.63 30.6974Z" fill="#37474F"/>
    <path d="M53.4023 175.432L31.2522 162.642C31.2341 162.642 31.2341 162.642 31.2341 162.642L31.1319 162.582C20.4659 157.047 13.4093 144.492 12.4889 126.204C11.6648 109.823 15.8939 91.6136 23.552 74.6972L23.7084 74.3242L46.4962 87.8958C38.82 104.806 34.603 123.016 35.4271 139.403C36.3355 157.324 43.1153 169.729 53.4023 175.432Z" fill="#263238"/>
    <path d="M94.7187 169.764C125.604 149.792 149.143 103.819 147.285 67.0865C145.432 30.3541 118.89 16.7644 88.005 36.7368C57.12 56.7092 33.5802 102.682 35.433 139.414C37.2919 176.147 63.8336 189.736 94.7187 169.764Z" fill="#455A64"/>
    <path d="M120.875 27.8457L82.1635 107.579L73.8316 98.5493C71.2629 95.7579 67.5993 94.1577 63.7793 94.1577C60.3262 94.1577 57.0235 95.4451 54.4788 97.7853C48.9383 102.905 48.5954 111.585 53.7088 117.132L75.6604 140.906C78.0908 143.541 81.3995 145.093 84.9789 145.286C85.2316 145.298 85.4842 145.304 85.7369 145.304C86.3926 145.304 87.0544 145.256 87.7221 145.16C92.2099 144.492 96.072 141.664 98.0392 137.592L142.436 46.1457C137.9 36.0212 130.32 29.7166 120.875 27.8457Z" fill="#37474F"/>
    <path d="M152.314 1.58095C152.073 1.44259 151.826 1.31025 151.568 1.18993C145.66 -1.66757 138.525 0.798904 135.674 6.68836L86.4107 108.151L83.6133 105.119C82.7771 104.216 81.8387 103.47 80.822 102.887C79.3542 102.045 73.1098 98.4292 72.0991 97.8456C67.7196 95.319 62.0107 95.7942 58.0763 99.4097C53.2637 103.855 52.9689 111.393 57.4086 116.206L79.3602 139.986C80.1964 140.889 81.1529 141.647 82.1936 142.242C83.6254 143.06 89.8457 146.664 90.8684 147.253C92.4746 148.186 94.2853 148.733 96.1924 148.835C96.9744 148.878 97.7625 148.847 98.5746 148.733C102.473 148.156 105.824 145.695 107.532 142.164L165.807 22.1309C168.544 16.4821 166.409 9.7143 161.061 6.63422C160.814 6.48984 153.866 2.47731 152.314 1.58095Z" fill="#F05665"/>
    <path opacity="0.15" d="M152.314 1.58095C152.073 1.44259 151.826 1.31025 151.568 1.18993C145.66 -1.66757 138.525 0.798904 135.674 6.68836L86.4107 108.151L83.6133 105.119C82.7771 104.216 81.8387 103.47 80.822 102.887C79.3542 102.045 73.1098 98.4292 72.0991 97.8456C67.7196 95.319 62.0107 95.7942 58.0763 99.4097C53.2637 103.855 52.9689 111.393 57.4086 116.206L79.3602 139.986C80.1964 140.889 81.1529 141.647 82.1936 142.242C83.6254 143.06 89.8457 146.664 90.8684 147.253C92.4746 148.186 94.2853 148.733 96.1924 148.835C96.9744 148.878 97.7625 148.847 98.5746 148.733C102.473 148.156 105.824 145.695 107.532 142.164L165.807 22.1309C168.544 16.4821 166.409 9.7143 161.061 6.63422C160.814 6.48984 153.866 2.47731 152.314 1.58095Z" fill="black"/>
    <path opacity="0.15" d="M90.8624 147.253C89.8458 146.664 83.6254 143.054 82.1876 142.242C81.1469 141.647 80.1904 140.895 79.3542 139.992L57.4026 116.218C56.404 115.129 55.652 113.896 55.1346 112.603L63.8636 117.638C64.3809 118.937 65.1389 120.17 66.1435 121.259L88.0952 145.034C88.9133 145.912 89.8458 146.658 90.8624 147.253Z" fill="black"/>
    <path opacity="0.15" d="M147.164 8.0715C146.045 9.07012 145.101 10.3034 144.409 11.7291L93.7441 116.091L86.4169 108.15L135.674 6.68787C136.366 5.25612 137.316 4.02889 138.435 3.03027L147.164 8.0715Z" fill="black"/>
    <path d="M160.303 6.23095C154.395 3.37345 147.261 5.83992 144.409 11.7294L93.7441 116.091L83.6135 105.118C79.1859 100.312 71.6541 100.005 66.8114 104.457C61.9988 108.902 61.704 116.44 66.1437 121.259L88.0953 145.039C90.2008 147.325 93.0763 148.673 96.1865 148.841C96.9686 148.883 97.7566 148.853 98.5688 148.739C102.467 148.161 105.818 145.701 107.526 142.17L165.801 22.1367C168.665 16.2172 166.198 9.08845 160.303 6.23095Z" fill="#F05665"/>
</svg>
