<svg width="500" height="297" viewBox="0 0 500 297" fill="none" xmlns="http://www.w3.org/2000/svg">
<path d="M491.304 141.249C478.042 121.71 449.938 111.242 449.209 81.9588C448.735 62.9315 456.918 52.6196 443.822 36.376C412.167 -2.88237 363.384 -7.48436 321.733 8.91826C280.094 25.3139 246.82 58.1799 200.525 56.1979C175.315 55.1181 151.892 42.4925 126.936 40.1225C119.248 39.3933 112.065 40.0197 105.347 41.8357C80.1647 48.644 57.9306 74.2062 49.5583 102.606C42.7722 125.627 51.4435 148.355 40.7866 170.897C29.429 194.926 7.05937 211.616 1.42259 239.357C-5.34249 272.653 12.7989 278.741 39.3313 286.964C57.5428 292.606 99.6937 297.85 114.705 286.344C132.984 272.335 149.939 273.674 171.248 274.212C211.801 275.233 252.349 284.862 292.379 291.72C326.679 297.596 370.939 277.061 405.701 278.166C431.229 278.977 442.442 308.576 456.257 279.314C472.768 244.335 519.116 182.233 491.304 141.249Z" fill="url(#paint0_linear)"/>
<path d="M230.35 293.555H230.49C231.627 293.537 232.503 292.606 232.4 291.536L224.82 215.815L218.202 216.405L229.091 292.533C229.17 293.129 229.717 293.567 230.35 293.555Z" fill="#8CB4F4"/>
<path d="M157.348 293.555H157.208C156.071 293.537 155.195 292.606 155.298 291.536L162.878 215.815L169.496 216.405L158.607 292.533C158.528 293.129 157.981 293.567 157.348 293.555Z" fill="#8CB4F4"/>
<path d="M283.837 293.555H283.977C285.114 293.537 285.99 292.606 285.887 291.536L278.308 215.815L271.689 216.405L282.578 292.533C282.663 293.129 283.204 293.567 283.837 293.555Z" fill="#8CB4F4"/>
<path d="M159.605 204.805L146.15 138.343C144.422 129.347 151.88 121.116 161.558 121.335L187.514 121.925C196.468 122.132 204.254 128.124 206.742 136.725L226.432 204.799H159.605V204.805Z" fill="#8CB4F4"/>
<path d="M167.744 204.805L154.289 138.343C152.561 129.346 160.019 121.116 169.697 121.335L195.653 121.925C204.607 122.132 212.393 128.123 214.881 136.725L234.571 204.799H167.744V204.805Z" fill="#8CB4F4"/>
<path d="M163.359 216.922H266.044C268.107 216.922 269.798 215.231 269.798 213.169V208.552C269.798 206.49 268.107 204.799 266.044 204.799H159.605V213.169C159.605 215.237 161.29 216.922 163.359 216.922Z" fill="#8CB4F4"/>
<path d="M211.541 216.922H277C278.66 216.922 280.023 215.559 280.023 213.899V207.822C280.023 206.161 278.66 204.799 277 204.799H211.541C209.881 204.799 208.518 206.161 208.518 207.822V213.899C208.524 215.566 209.881 216.922 211.541 216.922Z" fill="#8CB4F4"/>
<path d="M219.066 74.1634C219.066 74.1634 212.059 79.9909 219.778 87.3938C219.778 87.3938 213.154 89.7053 211 88.1359C211 88.1359 211.451 88.9328 211.846 89.2856C211.846 89.2856 205.063 89.8999 202.138 87.9351C199.218 85.9703 199.12 51.0848 218.203 53.9438C218.203 53.9438 234.128 51.8634 233.653 70.4467C233.173 89.0361 239.213 88.7077 239.213 88.7077C239.213 88.7077 237.577 89.6262 236.768 89.6688C236.768 89.6688 235.557 89.2795 235.29 88.6408C235.29 88.6408 235.581 89.6566 235.904 89.9669C235.904 89.9669 229.42 90.9401 226.031 88.659C222.631 86.3718 218.342 78.0322 219.066 74.1634Z" fill="#263238"/>
<path d="M218.038 83.6649C218.038 83.6649 212.594 78.4762 210.337 73.4395C208.725 69.8445 200.957 55.2881 215.477 53.7856C215.477 53.7856 225.843 53.299 230.32 54.9231C233.878 56.2188 239.383 59.5522 237.516 72.9589L237.272 77.3934L218.038 83.6649Z" fill="#263238"/>
<path d="M307.336 295.964C304.258 295.958 297.914 296.761 295.128 293.373C292.336 289.979 286.313 288.312 285.547 287.229C285.133 286.645 285.681 284.042 286.277 281.767C287.779 279.699 285.358 276.882 285.358 276.882L293.424 277.424C293.424 277.424 297.269 282.521 300.097 286.627C301.174 288.184 304.41 290.52 306.363 291.22C308.881 292.12 311.393 292.68 312.312 293.574C313.948 295.161 310.414 295.964 307.336 295.964Z" fill="#FFC3BD"/>
<path d="M307.336 295.964C304.258 295.958 297.914 296.761 295.128 293.373C292.335 289.978 286.313 288.312 285.547 287.229C285.133 286.645 285.109 284.285 286.277 281.766V281.76C286.277 281.76 291.356 283.841 294.227 287.825C297.092 291.809 304.732 293.543 306.338 291.244C306.344 291.238 306.351 291.225 306.357 291.219C308.875 292.12 311.387 292.679 312.306 293.573C313.948 295.161 310.414 295.964 307.336 295.964Z" fill="#263238"/>
<path d="M285.547 287.224L288.644 293.824L290.7 294.049L290.395 288.173L285.547 287.224Z" fill="#263238"/>
<path d="M225.143 170.292C225.143 170.292 270.01 184.186 279.664 192.215C289.318 200.239 296.045 279.84 296.045 279.84C296.045 279.84 294.896 280.539 292.535 280.485C290.34 280.436 285.741 278.538 285.741 278.538C285.741 278.538 266.02 240.727 265.46 231.785C264.895 222.837 266.336 215.111 262.474 214.388C258.611 213.67 209.297 213.408 203.658 199.515C198.019 185.628 205.763 173.626 205.763 173.626L225.143 170.292Z" fill="#102028"/>
<path d="M296.928 295.964C293.85 295.958 287.505 296.761 284.719 293.373C281.927 289.979 275.905 288.312 275.139 287.229C274.725 286.645 275.279 284.042 275.869 281.767C277.371 279.699 274.95 276.882 274.95 276.882L283.016 277.424C283.016 277.424 286.861 282.521 289.689 286.627C290.766 288.184 294.002 290.52 295.955 291.22C298.473 292.12 300.985 292.68 301.904 293.574C303.54 295.161 300.006 295.964 296.928 295.964Z" fill="#FFC3BD"/>
<path d="M296.928 295.964C293.85 295.958 287.505 296.761 284.719 293.373C281.927 289.978 275.905 288.312 275.139 287.229C274.725 286.645 274.701 284.285 275.869 281.766V281.76C275.869 281.76 280.948 283.841 283.819 287.825C286.684 291.809 294.324 293.543 295.93 291.244C295.936 291.238 295.942 291.225 295.948 291.219C298.467 292.12 300.979 292.679 301.898 293.573C303.54 295.161 300.006 295.964 296.928 295.964Z" fill="#263238"/>
<path d="M275.139 287.224L278.235 293.824L280.291 294.049L279.987 288.173L275.139 287.224Z" fill="#263238"/>
<path d="M213.403 174.495C213.403 174.495 259.609 184.191 269.263 192.214C278.916 200.238 285.644 279.839 285.644 279.839C285.644 279.839 284.495 280.538 282.134 280.484C279.938 280.435 275.34 278.537 275.34 278.537C275.34 278.537 255.619 240.726 255.059 231.784C254.494 222.836 255.935 215.11 252.066 214.387C248.204 213.669 198.89 213.407 193.251 199.514C187.612 185.627 195.355 173.625 195.355 173.625L213.403 174.495Z" fill="#263238"/>
<path d="M230.763 99.9554C230.818 99.9797 225.386 102.802 221.292 101.683C217.448 100.637 214.935 95.6487 214.984 95.6365C216.614 95.3141 217.083 93.0756 217.046 83.4585L217.782 83.6045L230.161 86.0559C230.161 86.0559 229.881 89.949 229.869 93.6231C229.869 96.7011 230.058 99.6269 230.763 99.9554Z" fill="#FFC3BD"/>
<path d="M230.168 86.055C230.168 86.055 229.888 89.9481 229.876 93.6221C222.947 93.4275 219.285 87.1073 217.789 83.6035L230.168 86.055Z" fill="#DFA09A"/>
<path d="M232.479 89.5293C232.479 89.5293 216.091 89.7969 216.079 79.5898C216.067 69.3826 213.944 62.5393 224.407 61.9371C234.869 61.3349 236.907 65.228 237.741 68.6344C238.58 72.0348 236.743 89.1947 232.479 89.5293Z" fill="#FFC3BD"/>
<path d="M194.266 144.05C192.648 137.273 198.147 124.116 203.889 113.228C209.096 103.355 214.504 95.3499 214.991 95.6358C228.726 103.787 229.967 97.0106 229.967 97.0106C229.973 97.0106 242.449 98.6651 245.977 104.748C250.357 112.297 255.095 133.38 259.798 137.371C259.074 139.579 259.384 140.759 260.15 143.496C260.315 144.086 260.497 144.64 260.698 145.169C261.41 147.097 262.292 148.661 263.058 150.017C260.667 151.471 256.05 154.233 252.65 152.244C247.467 149.208 243.422 139.968 241.141 136.288C241.135 136.276 241.123 136.264 241.117 136.245C236.165 164.257 242.899 170.638 239.493 173.595C235.898 176.715 230.758 172.11 219.449 177.007C212.034 180.225 201.742 184.872 194.814 185.687C191.182 186.113 188.469 185.481 187.587 183.029C185.014 175.906 197.35 156.97 194.266 144.05Z" fill="white"/>
<path d="M228.841 83.337C228.841 83.337 229.145 84.6327 232.375 84.432C232.375 84.432 235.082 84.2617 235.003 82.8382C234.997 82.8443 232.369 81.8284 228.841 83.337Z" fill="white"/>
<path d="M185.239 154.002C188.913 148.843 192.739 146.118 195.258 144.743C194.68 143.253 210.708 123.599 210.708 120.552C210.708 117.468 214.985 95.6299 214.985 95.6299C214.985 95.6299 201.626 96.4572 197.003 102.905C191.225 110.977 179.211 142.018 185.239 154.002Z" fill="white"/>
<path d="M195.258 144.744L221.95 151.709L219.444 156.204C219.444 156.204 186.961 155.979 185.239 154.002C183.518 152.025 195.258 144.744 195.258 144.744Z" fill="#FFC3BD"/>
<path d="M241.141 136.3C243.416 139.98 247.461 149.22 252.65 152.256C256.05 154.245 260.667 151.477 263.058 150.029C262.291 148.673 261.403 147.11 260.698 145.181C258.788 145.619 256.464 146.173 254.962 146.629C252.036 147.505 241.141 136.3 241.141 136.3Z" fill="#3E3071"/>
<path d="M238.422 132.632L224.133 164.33L258.003 167.53L271.33 135.345L238.422 132.632Z" fill="#263238"/>
<path d="M271.331 135.345L287.134 125.321L271.331 159.878L258.003 167.53C258.715 165.809 271.331 135.345 271.331 135.345Z" fill="#4D5C63"/>
<path d="M221.956 151.709C221.956 151.709 226.889 149.537 228.142 148.424C228.951 147.706 228.884 148.728 228.811 149.014C228.659 149.58 228.452 150.711 227.017 151.654C224.942 153.017 221.956 151.709 221.956 151.709Z" fill="#FFC3BD"/>
<path d="M230.819 58.2689C230.819 58.2689 225.587 72.9348 218.075 75.3072C210.562 77.6795 208.135 74.6806 208.135 74.6806C208.135 74.6806 213.725 69.7169 214.498 61.5476C214.498 61.5476 226.725 52.1616 230.819 58.2689Z" fill="#263238"/>
<path d="M229.644 59.4062C229.644 59.4062 233.513 62.1617 234.571 64.9902C235.63 67.8188 236.36 73.7131 238.075 73.4212C238.075 73.4212 241.323 64.2116 236.84 59.3453C232.095 54.1869 229.644 59.4062 229.644 59.4062Z" fill="#263238"/>
<path d="M230.357 59.8199C230.357 59.8199 227.577 73.8897 218.209 78.8594C218.209 78.8594 227.358 69.808 227.674 60.6046C227.99 51.4011 230.357 59.8199 230.357 59.8199Z" fill="#263238"/>
<path d="M202.138 87.9294C205.058 89.9002 211.846 89.2858 211.846 89.2858C211.451 88.9391 211.001 88.1362 211.001 88.1362C215.003 90.1192 222.874 86.2626 222.874 86.2626C215.909 86.2869 215.909 76.2257 218.075 75.3133C217.771 67.7948 218.361 58.2203 218.671 53.9075C218.367 53.9258 218.197 53.9501 218.197 53.9501C199.121 51.0789 199.218 85.9646 202.138 87.9294Z" fill="#263238"/>
<path d="M221.956 151.708C221.956 151.708 230.624 150.054 232.534 150.473C234.45 150.893 238.726 152.73 239.043 153.126C239.359 153.521 237.802 153.746 236.676 153.284C235.235 152.694 232.85 152.943 232.85 152.943C232.85 152.943 237.455 154.452 238.58 155.096C238.69 155.163 238.696 155.322 238.586 155.395C238.282 155.589 237.54 155.656 236.512 155.401C235.04 155.036 232.406 154.805 232.406 154.805L237.643 156.526C237.71 156.55 237.753 156.611 237.741 156.678C237.704 156.934 237.248 157.159 235.995 157.086C235.028 157.031 231.81 156.21 231.81 156.21L234.559 158.047C234.559 158.047 233.805 158.479 232.37 157.834C231.384 157.39 228.422 156.313 227.704 156.392C226.986 156.465 223.318 157.475 221.724 156.958C220.131 156.441 219.443 156.21 219.443 156.21L221.956 151.708Z" fill="#FFC3BD"/>
<path d="M102.268 295.186H102.408C103.546 295.167 104.422 294.237 104.318 293.166L96.7388 217.446L90.1206 218.036L101.009 294.164C101.088 294.754 101.629 295.198 102.268 295.186Z" fill="#8CB4F4"/>
<path d="M29.2609 295.186H29.121C27.9835 295.167 27.1075 294.237 27.2109 293.166L34.7903 217.446L41.4085 218.036L30.52 294.164C30.441 294.754 29.8996 295.198 29.2609 295.186Z" fill="#8CB4F4"/>
<path d="M155.755 295.186H155.895C157.032 295.167 157.908 294.237 157.805 293.166L150.226 217.446L143.607 218.036L154.496 294.164C154.575 294.754 155.122 295.198 155.755 295.186Z" fill="#8CB4F4"/>
<path d="M31.5236 206.43L18.0682 139.968C16.3406 130.971 23.7983 122.741 33.4762 122.96L59.4321 123.55C68.3861 123.757 76.1723 129.748 78.6602 138.35L98.3506 206.424H31.5236V206.43Z" fill="#8CB4F4"/>
<path d="M39.6623 206.43L26.2068 139.968C24.4793 130.972 31.937 122.741 41.6149 122.96L67.5707 123.55C76.5248 123.757 84.3109 129.749 86.7989 138.35L106.489 206.424H39.6623V206.43Z" fill="#8CB4F4"/>
<path d="M35.2705 218.554H137.956C140.018 218.554 141.71 216.863 141.71 214.801V210.184C141.71 208.122 140.025 206.431 137.956 206.431H31.5234V214.801C31.5234 216.863 33.2084 218.554 35.2705 218.554Z" fill="#8CB4F4"/>
<path d="M83.4592 218.554H148.918C150.578 218.554 151.941 217.192 151.941 215.531V209.454C151.941 207.794 150.578 206.431 148.918 206.431H83.4592C81.7986 206.431 80.436 207.794 80.436 209.454V215.531C80.436 217.192 81.7986 218.554 83.4592 218.554Z" fill="#8CB4F4"/>
<path d="M477.329 293.487H477.469C478.606 293.469 479.482 292.538 479.379 291.468L471.799 215.748L465.181 216.338L476.07 292.465C476.149 293.062 476.696 293.499 477.329 293.487Z" fill="#8CB4F4"/>
<path d="M438.307 293.487H438.447C439.585 293.469 440.461 292.538 440.357 291.468L432.778 215.748L426.16 216.338L437.048 292.465C437.127 293.062 437.669 293.499 438.307 293.487Z" fill="#8CB4F4"/>
<path d="M365.044 293.487H364.904C363.767 293.469 362.891 292.538 362.994 291.468L370.573 215.748L377.192 216.338L366.303 292.465C366.224 293.062 365.677 293.499 365.044 293.487Z" fill="#73A2E5"/>
<path d="M475.187 205.023L482.384 141.785C483.326 132.673 480.279 123.749 467.128 123.056L443.988 121.645C430.277 121.079 424.085 132.491 422.345 141.28L408.61 210.796L475.187 205.023Z" fill="#8CB4F4"/>
<path d="M471.318 216.854H368.633C366.57 216.854 364.879 215.163 364.879 213.101V208.484C364.879 206.422 366.564 204.73 368.633 204.73H475.072V213.101C475.072 215.169 473.387 216.854 471.318 216.854Z" fill="#73A2E5"/>
<path d="M472.158 216.854H411.524C409.924 216.854 408.61 215.54 408.61 213.94V207.644C408.61 206.044 409.924 204.73 411.524 204.73H475.072V213.94C475.072 215.546 473.764 216.854 472.158 216.854Z" fill="#8CB4F4"/>
<path d="M371.242 150.649H379.326C380.312 150.649 381.115 149.852 381.115 148.861V133.264H369.46V148.861C369.46 149.852 370.257 150.649 371.242 150.649Z" fill="#8FB8EA"/>
<path d="M379.649 137.005H383.627C384.947 137.005 386.024 138.082 386.024 139.402V143.459C386.024 144.779 384.947 145.856 383.627 145.856H379.649V137.005ZM381.024 138.386V144.487H383.621C384.187 144.487 384.643 144.031 384.643 143.465V139.408C384.643 138.842 384.187 138.386 383.621 138.386H381.024V138.386Z" fill="#8FB8EA"/>
<path d="M371.668 149.445H378.901C379.673 149.445 380.3 148.818 380.3 148.046V137.011H370.263V148.046C370.269 148.818 370.896 149.445 371.668 149.445Z" fill="#FFB93E"/>
<path d="M380.306 137.005C380.306 137.005 379.886 136.056 378.761 136.019C377.636 135.983 377.49 136.609 376.51 136.402C375.531 136.202 374.624 136.025 373.609 136.402C372.593 136.779 370.312 136.342 370.293 136.67C370.275 136.999 369.941 137.394 371.029 137.43C372.118 137.467 374.004 137.138 374.734 137.43C375.458 137.722 377.313 137.728 378.073 137.43C378.828 137.151 380.294 137.734 380.306 137.005Z" fill="white"/>
<path d="M405.246 157.122C405.246 157.122 389.509 175.097 386.285 174.805C382.994 174.507 380.987 173.467 378.122 174.805C376.066 175.766 369.557 180.998 371.303 180.651C373.049 180.304 376.212 179.896 377.045 179.817C378.195 179.708 380.038 179.684 381.291 179.465C382.082 179.325 384.941 179.246 385.896 179.215C390.038 179.081 409.631 167.633 409.631 167.633L405.246 157.122Z" fill="#FFD8BE"/>
<path d="M416.165 65.8472C416.165 65.8472 416.877 56.8202 429.864 59.1621C433.294 59.7826 435.655 53.6632 441.275 55.8409C453.374 60.5369 454.086 54.3384 457.584 63.043C459.05 66.6867 468.356 70.9265 465.516 77.2223C462.675 83.5181 467.432 87.7518 464.086 92.6851C462.359 95.2399 463.058 99.8021 454.901 99.9663C450.838 100.045 444.505 107.576 439.949 108.945C435.387 110.313 421.694 108.336 422.211 102.083C422.613 97.1986 416.919 97.6062 413.422 91.9977C410.368 87.0949 415.818 85.854 412.905 77.9279C410.763 72.1126 416.329 70.6953 416.165 65.8472Z" fill="#233862"/>
<path d="M344.776 287.942C345.056 290.959 340.852 291.695 335.98 291.938C331.107 292.182 332.579 293.179 325.906 294.383C319.234 295.594 316.557 293.769 316.077 292.863C315.645 292.066 318.747 290.813 322.056 289.396C322.47 289.219 322.889 289.037 323.303 288.854C327.026 287.218 329.112 283.878 332.014 280.788C334.763 277.856 337.373 268.476 337.373 268.476L346.442 266.542C346.442 266.542 343.894 274.985 343.012 278.592C342.489 280.715 343.261 283.081 343.942 284.888C344.307 285.873 344.678 286.877 344.776 287.942Z" fill="#FFD8BE"/>
<path d="M335.979 291.938C331.113 292.181 332.579 293.178 325.906 294.383C319.233 295.593 316.557 293.768 316.076 292.862C315.644 292.065 318.746 290.812 322.056 289.395L322.104 289.45C322.104 289.45 326.794 291.043 332.214 289.571C336.63 288.373 340.894 285.733 343.936 284.881C344.301 285.861 344.672 286.87 344.769 287.935C345.055 290.958 340.852 291.694 335.979 291.938Z" fill="#6654A4"/>
<path d="M435.076 180.407C435.076 180.407 374.819 175.87 363.474 183.029C352.13 190.189 333.936 273.586 333.936 273.586C333.936 273.586 335.061 274.486 337.567 274.76C339.897 275.015 345.037 273.64 345.037 273.64C345.037 273.64 371.181 236.328 373.024 226.93C374.868 217.531 374.417 209.143 378.609 208.918C382.8 208.693 435.082 215.275 442.99 201.345C450.898 187.415 444.359 173.625 444.359 173.625L435.076 180.407Z" fill="#101B19"/>
<path d="M365.512 288.281C365.792 291.298 361.589 292.034 356.716 292.277C351.85 292.521 353.316 293.518 346.643 294.729C339.97 295.939 337.293 294.114 336.813 293.208C336.381 292.405 339.483 291.158 342.792 289.741C343.206 289.564 343.626 289.382 344.039 289.199C347.762 287.563 349.849 284.224 352.75 281.133C355.5 278.201 358.109 268.822 358.109 268.822L367.179 266.887C367.179 266.887 364.63 275.33 363.748 278.937C363.231 281.06 363.997 283.427 364.679 285.233C365.044 286.213 365.415 287.216 365.512 288.281Z" fill="#FFD8BE"/>
<path d="M356.716 292.278C351.849 292.521 353.315 293.519 346.642 294.729C339.969 295.94 337.293 294.115 336.812 293.208C336.38 292.405 339.483 291.158 342.792 289.741L342.841 289.796C342.841 289.796 347.53 291.39 352.95 289.917C357.367 288.719 361.631 286.079 364.672 285.228C365.037 286.207 365.408 287.217 365.505 288.281C365.791 291.298 361.582 292.034 356.716 292.278Z" fill="#6654A4"/>
<path d="M444.553 174.804C444.553 174.804 391.024 177.341 379.965 184.932C368.906 192.53 353.973 276.565 353.973 276.565C353.973 276.565 355.128 277.423 357.647 277.593C359.989 277.752 365.068 276.182 365.068 276.182C365.068 276.182 389.746 237.878 391.218 228.413C392.69 218.948 391.918 210.584 396.097 210.195C400.276 209.805 452.778 214.349 460.132 200.121C467.498 185.899 444.553 174.804 444.553 174.804Z" fill="#263836"/>
<path d="M460.582 106.409C460.564 106.379 460.54 106.354 460.515 106.324C460.09 105.843 459.585 105.405 459.025 105.016L459.007 105.004C459.007 105.004 459.007 105.004 459.001 105.004C454.627 101.95 446.817 101.293 446.817 101.293V101.299V101.293C446.817 101.293 445.965 101.214 444.609 101.153C443.587 98.4951 442.419 94.5655 442.054 88.8232L441.281 89.03L428.258 92.5216C428.258 92.5216 428.836 96.658 429.103 100.569C429.164 101.427 429.207 102.273 429.225 103.063C428.848 103.203 428.501 103.337 428.191 103.465C428.191 103.465 420.745 104.341 418.981 106.239C417.217 108.137 413.695 120.746 412.807 122.985L462.949 123.806C462.949 123.8 464.208 110.697 460.582 106.409Z" fill="#FFD8BE"/>
<path d="M462.431 196.094C456.494 196.66 436.488 184.58 429.821 180.65C429.705 180.583 429.59 180.516 429.486 180.455C426.713 178.825 422.801 178.053 419.091 177.438C414.358 176.666 409.942 176.143 408.531 174.451C406.846 172.438 411.797 170.206 415.775 167.888C417.777 166.72 419.541 165.528 420.088 164.336C420.508 163.399 420.478 161.349 420.198 158.727V158.721C420.149 158.234 420.088 157.723 420.015 157.194C419.693 157.863 419.291 158.563 418.823 159.256C417.655 161.008 416.116 162.772 414.571 164.226C412.685 166.014 410.806 167.347 409.632 167.632C408.847 167.821 408.056 167.724 407.271 167.42C405.191 166.604 403.178 164.317 401.584 162.109C401.207 161.586 400.854 161.069 400.532 160.57C399.443 158.922 398.67 157.547 398.378 157.225C397.49 156.239 401.955 154.293 403.786 152.833C405.611 151.367 412.807 122.984 412.807 122.984C413.695 120.745 417.217 108.135 418.981 106.238C418.981 106.238 425.855 114.632 434.766 114.151C443.617 113.677 458.77 105.143 459.001 105.009C459.007 105.009 459.007 105.009 459.007 105.009L459.025 105.021L460.588 106.414C464.214 110.702 462.955 123.805 462.955 123.805C462.955 123.805 456.02 154.372 456.02 157.456C456.02 163.113 460.698 176.112 462.93 185.48C464.335 191.405 464.773 195.876 462.431 196.094Z" fill="#FF5364"/>
<path d="M428.245 92.5267C428.245 92.5267 428.823 96.6631 429.091 100.574C436.463 99.8749 439.918 92.8735 441.269 89.0352L428.245 92.5267Z" fill="#F4A269"/>
<path d="M426.031 96.3952C426.031 96.3952 443.526 95.5193 442.814 84.6309C442.102 73.7485 443.879 66.303 432.68 66.4004C421.481 66.4977 419.583 70.7983 418.939 74.4845C418.288 78.1768 421.463 96.3405 426.031 96.3952Z" fill="#FFD8BE"/>
<path d="M425.295 70.2762C425.295 70.2762 429.474 69.3029 430.843 71.3346C432.211 73.3663 431.232 74.5038 434.286 75.3615C437.333 76.2131 438.373 76.1522 438.069 78.2873C437.765 80.4224 441.135 82.0101 441.281 83.7133C441.427 85.4166 442.826 86.2743 444.17 86.3959C445.515 86.5176 444.9 64.3757 439.718 63.3964C434.535 62.4231 429.529 63.5789 428.008 64.8015C426.469 66.0303 425.295 70.2762 425.295 70.2762Z" fill="#233862"/>
<path d="M425.295 70.2762C425.295 70.2762 421.226 69.9903 420.496 72.3079C419.766 74.6255 420.739 75.173 419.705 76.5781C418.665 77.9833 419.267 80.4712 419.267 80.4712C419.267 80.4712 411.225 65.6593 419.705 64.686C428.185 63.7127 427.953 65.4403 425.295 70.2762Z" fill="#233862"/>
<path d="M420.185 156.258V156.252C420.131 155.443 420.058 154.591 419.979 153.715C418.817 157.207 416.742 161.045 414.565 164.239C412.679 166.027 410.799 167.36 409.625 167.645C408.841 167.834 408.05 167.737 407.265 167.433C405.185 166.617 403.171 164.33 401.578 162.122C401.201 161.599 400.848 161.082 400.525 160.583C406.085 156.124 416.615 145.923 417.71 131.957C419.206 112.887 420.191 156.258 420.191 156.258H420.185Z" fill="#DB4352"/>
<path d="M407.271 167.42C409.212 164.464 413.154 161.544 418.817 159.257C416.207 163.162 411.749 167.122 409.632 167.633C408.841 167.822 408.05 167.724 407.271 167.42Z" fill="#599DAD"/>
<path d="M453.514 130.728C453.514 130.728 449.147 174.622 429.815 180.65C429.7 180.583 429.584 180.516 429.481 180.455C426.707 178.825 422.796 178.053 419.085 177.438C414.352 176.666 409.936 176.143 408.525 174.452C406.84 172.438 411.791 170.206 415.77 167.888C417.771 166.72 419.535 165.528 420.083 164.336C420.502 163.399 420.472 161.349 420.192 158.727V158.721C438.946 151.787 453.514 130.728 453.514 130.728Z" fill="#DB4352"/>
<path d="M447.225 113.835C447.225 113.835 456.41 108.598 458.435 117.722C460.461 126.847 427.711 167.499 418.598 165.723C408.476 163.746 384.698 147.553 384.698 147.553L387.247 143.848C387.247 143.848 416.919 152.717 418.787 151.86C420.667 151.002 444.037 113.111 447.225 113.835Z" fill="#FFD8BE"/>
<path d="M389.577 144.755C389.577 144.755 381.675 138.483 380.464 138.392C379.254 138.301 371.145 140.381 371.194 141.671C371.243 142.96 373.141 144.846 376.133 145.321C379.126 145.801 384.875 148.246 386.529 147.492C388.184 146.738 389.577 144.755 389.577 144.755Z" fill="#FFD8BE"/>
<path d="M404.547 148.69C404.547 148.69 399.066 162.772 405.629 168.125C412.193 173.478 426.445 171.677 442.054 149.913C457.663 128.148 464.013 116.292 455.911 112.831C447.808 109.37 441.111 114.802 436.956 123.263C432.637 132.065 424.675 144.25 419.9 144.712C415.125 145.18 404.547 148.69 404.547 148.69Z" fill="#FF5364"/>
<path d="M423.075 90.8123C423.075 90.8123 423.921 91.9437 424.207 92.3087C424.486 92.6736 428.008 92.3087 428.246 92.0289C428.489 91.7491 428.69 90.0884 428.69 90.0884C428.69 90.0884 424.292 90.496 423.075 90.8123Z" fill="white"/>
<path d="M172.148 131.653H164.064C163.078 131.653 162.275 130.856 162.275 129.865V114.268H173.93V129.865C173.936 130.856 173.133 131.653 172.148 131.653Z" fill="#8FB8EA"/>
<path d="M163.747 126.866H159.769C158.449 126.866 157.373 125.789 157.373 124.469V120.412C157.373 119.086 158.449 118.009 159.769 118.009H163.747V126.866ZM159.769 119.384C159.204 119.384 158.747 119.84 158.747 120.406V124.463C158.747 125.029 159.204 125.485 159.769 125.485H162.367V119.384H159.769V119.384Z" fill="#8FB8EA"/>
<path d="M171.722 130.449H164.489C163.717 130.449 163.09 129.822 163.09 129.05V118.015H173.127V129.05C173.127 129.816 172.501 130.449 171.722 130.449Z" fill="#FFB93E"/>
<path d="M163.09 118.009C163.09 118.009 163.51 117.066 164.635 117.03C165.761 116.993 165.907 117.62 166.886 117.413C167.865 117.212 168.772 117.036 169.788 117.413C170.803 117.79 173.085 117.352 173.103 117.681C173.121 118.009 173.456 118.405 172.367 118.441C171.278 118.478 169.392 118.149 168.662 118.441C167.938 118.733 166.083 118.739 165.323 118.441C164.568 118.155 163.102 118.739 163.09 118.009Z" fill="white"/>
<path d="M137.153 217.854L119.196 277.717C119.196 277.717 110.984 275.709 107.955 270.891C107.955 270.891 109.98 212.702 122.408 204.016C134.835 195.323 137.153 217.854 137.153 217.854Z" fill="#3C484E"/>
<path d="M175.408 295.01H146.21C145.93 294.955 145.718 294.894 145.59 294.827C143.643 293.854 143.795 288.276 145.407 284.426C146.04 282.917 144.13 279.693 144.817 278.458C146.137 276.086 154.258 271.84 155.669 278.13C155.712 278.324 156.338 281.871 156.393 282.059V282.065C158.175 287.948 166.144 290.618 170.743 291.366C174.259 291.938 175.171 293.982 175.408 295.01Z" fill="#3C484E"/>
<path d="M63.3359 96.7181C63.3359 96.7181 70.1853 104.845 78.9082 101.445C78.9082 101.445 80.7817 96.9066 80.8122 93.561C80.8182 93.1474 80.8183 92.752 80.8243 92.3688C80.873 88.6035 81.0007 86.4867 81.0007 86.4867C81.0007 86.4867 81.0007 86.4867 80.9947 86.4867C80.5993 86.3224 67.6609 81.012 67.6731 81.45C67.886 91.6389 63.3359 96.7181 63.3359 96.7181Z" fill="#FFB27D"/>
<path d="M124.513 295.009H114.926C112.919 295.009 110.686 292.996 110.127 289.316C109.567 285.63 105.437 283.622 104.543 280.605C103.648 277.588 108.229 273.342 108.229 273.342L108.995 272.357L109.792 271.329L117.384 273.117C117.384 273.117 117.572 274.924 117.688 277.229C117.767 278.89 117.815 280.812 117.718 282.497C117.493 286.518 118.843 290.849 122.414 291.627C125.991 292.418 124.513 295.009 124.513 295.009Z" fill="#3C484E"/>
<path d="M129.458 157.725L134.354 159.063C134.354 159.063 141.97 158.455 144.191 159.063C144.191 159.063 153.753 165.566 150.87 165.566C144.489 165.566 142.293 163.339 138.862 164.513C135.018 165.827 132.499 165.833 130.918 163.309L128.15 161.405L129.458 157.725Z" fill="#FFB27D"/>
<path d="M133.606 161.727C134.853 158.594 134.154 157.268 134.154 157.268C134.154 157.268 105.327 151.562 102.839 149.804C100.351 148.046 76.4084 102.278 76.4084 102.278L69.8936 103.556C59.9663 105.502 56.5963 118.003 64.2061 124.67C77.0349 135.917 90.4478 162.974 94.4199 164.701C99.1768 166.769 130.224 165.571 130.224 165.571C130.224 165.571 132.627 164.184 133.606 161.727Z" fill="#6958A4"/>
<path d="M45.6475 171.515C45.6475 171.515 37.7275 201.455 51.4871 205.798C51.4871 205.798 63.3366 211.456 119.756 207.52C119.756 207.52 117.347 232.515 144.446 281.513C144.446 281.513 152.403 283.642 157.373 277.717C157.373 277.717 146.8 207.058 143.291 191.339C140.62 179.411 65.4292 175.493 45.6475 171.515Z" fill="#263238"/>
<path d="M153.109 126.081C153.851 125.899 154.422 125.315 154.611 124.573C155.493 121.124 157.391 119.335 157.452 119.791C157.586 120.771 157.403 123.636 157.458 122.675C159.745 122.437 157.878 120.643 159.216 120.43C159.982 120.308 163.523 123.788 160.858 127.504C159.575 129.293 158.741 129.901 153.954 130.765L150.621 131.604L149.769 126.422C149.769 126.422 151.545 126.464 153.109 126.081Z" fill="#FFB27D"/>
<path d="M68.963 84.3648C70.21 86.6763 74.4924 91.202 80.8247 92.8566C80.8734 89.0913 81.0011 86.9744 81.0011 86.9744C81.0011 86.9744 81.0011 86.9744 80.995 86.9744C80.63 86.877 68.5919 83.6835 68.963 84.3648Z" fill="#ED975D"/>
<path d="M85.1129 86.718C85.1129 86.718 68.4153 90.6415 66.1342 80.2093C63.847 69.7771 60.1547 63.2562 70.7207 60.306C81.2867 57.3619 84.2309 60.8839 85.8429 64.1808C87.4487 67.4778 89.3953 85.4284 85.1129 86.718Z" fill="#FFB27D"/>
<path d="M66.7006 83.0504C66.4694 83.1963 62.8805 84.2974 56.0737 70.7446C55.0031 68.6156 54.2792 64.0169 56.7671 59.9474C59.255 55.8779 68.0814 52.6843 75.4174 51.2914C82.7534 49.8984 84.5113 54.0287 86.2389 58.1712C88.0516 62.5266 93.289 66.1094 93.289 66.1094C86.9628 69.6436 79.3469 64.5887 76.7069 65.4221C74.067 66.2554 73.1363 70.41 72.9355 71.7421C72.7348 73.0743 72.4307 74.1814 69.1155 72.9953C65.7942 71.803 67.613 77.6973 68.1483 78.8227C68.1544 78.8288 68.6045 81.8338 66.7006 83.0504Z" fill="#263238"/>
<path d="M93.4653 136.465C92.5528 139.354 93.6599 159.185 91.3788 171.332C90.0345 178.492 86.5307 180.505 86.4516 180.572C83.7447 182.665 72.4122 187.537 63.9144 191.138C44.9722 199.155 40.708 188.778 40.8784 186.418C40.9574 185.359 48.8774 127.493 54.3095 110.685C57.4604 100.941 61.0798 93.2639 66.1286 90.3076C66.7916 89.9365 69.0666 91.3843 72.3271 93.4769C75.3381 95.4051 78.1545 95.4842 81.2386 95.2105L85.5818 99.4868C88.8666 103.307 92.3703 108.398 93.3253 115.631C93.3983 116.166 93.4592 116.732 93.5078 117.334C93.7755 120.272 95.205 130.96 93.4653 136.465Z" fill="#6654A4"/>
<path d="M93.7634 128.179C93.6782 132.997 93.3984 138.417 93.0212 143.916C92.9969 144.244 92.9726 144.567 92.9543 144.895C74.2615 133.198 71.3843 111.792 71.3843 111.792C80.5817 112.193 87.8812 114.31 93.514 117.334C93.7755 120.272 93.8364 124 93.7634 128.179Z" fill="#4B3C7C"/>
<path d="M154.203 128.466C153.23 125.436 151.38 125.394 151.38 125.394C151.38 125.394 120.114 130.23 117.292 129.439C114.469 128.654 90.5695 105.679 90.5695 105.679C90.5695 105.679 81.4208 96.1227 73.7928 98.3551C67.1624 100.296 64.5163 105.083 63.5796 109.633C62.4603 115.047 65.082 120.454 70.1065 123.259C81.3843 129.561 105.12 142.9 110.461 144.281C122.347 147.365 153.485 132.851 153.485 132.851C153.485 132.851 154.933 130.741 154.203 128.466Z" fill="#6654A4"/>
<path d="M134.348 165.377L140.997 165.565C140.997 165.565 141.161 164.884 140.632 164.696C140.109 164.513 137.967 162.895 137.967 162.895L134.348 165.377Z" fill="#FFB27D"/>
<path d="M97.5966 173.015H379.126C380.136 173.015 380.957 172.194 380.957 171.184V167.401C380.957 166.391 380.136 165.57 379.126 165.57H97.5966C96.5868 165.57 95.7656 166.391 95.7656 167.401V171.184C95.7656 172.194 96.5868 173.015 97.5966 173.015Z" fill="#182D4F"/>
<path d="M388.233 295.738L388.324 295.726C389.376 295.599 390.124 294.656 389.991 293.622L371.632 169.354L364.911 169.548L386.511 294.491C386.651 295.288 387.411 295.842 388.233 295.738Z" fill="#182D4F"/>
<path d="M90.437 295.738L90.3458 295.726C89.2934 295.599 88.5452 294.656 88.6791 293.622L107.037 169.354L113.759 169.548L92.1585 294.491C92.0186 295.288 91.2582 295.842 90.437 295.738Z" fill="#182D4F"/>
<path d="M81.002 81.0904C81.002 81.0904 81.6346 82.3679 82.2794 82.4104C82.9242 82.453 85.552 82.4105 85.7953 82.2097C86.0386 82.009 86.2394 80.8775 86.2819 80.6342C86.3184 80.3909 82.6261 80.6159 81.002 81.0904Z" fill="white"/>
<defs>
<linearGradient id="paint0_linear" x1="-23.1551" y1="381.613" x2="488.36" y2="10.3491" gradientUnits="userSpaceOnUse">
<stop stop-color="#DADBFE"/>
<stop offset="1" stop-color="#F4F4FC"/>
</linearGradient>
</defs>
</svg>
