<svg width="50" height="51" viewBox="0 0 50 51" fill="none" xmlns="http://www.w3.org/2000/svg">
<path fill-rule="evenodd" clip-rule="evenodd" d="M41.666 37.9277C41.666 39.0757 40.7306 40.0111 39.5827 40.0111H35.416V19.1777H39.5827C40.7306 19.1777 41.666 20.1132 41.666 21.2611V37.9277ZM8.33268 37.9277V21.2611C8.33268 20.1132 9.2681 19.1777 10.416 19.1777H14.5827V40.0111H10.416C9.2681 40.0111 8.33268 39.0757 8.33268 37.9277ZM20.8327 11.8861C20.8327 11.3111 21.2993 10.8444 21.8743 10.8444H28.1243C28.6993 10.8444 29.166 11.3111 29.166 11.8861V15.0111H20.8327V11.8861ZM18.7493 40.0111H31.2493V19.1777H18.7493V40.0111ZM39.5827 15.0111H33.3327V11.8861C33.3327 9.01523 30.9952 6.67773 28.1244 6.67773H21.8743C19.0035 6.67773 16.666 9.01523 16.666 11.8861V15.0111H10.416C6.97018 15.0111 4.16602 17.8152 4.16602 21.2611V37.9277C4.16602 41.3736 6.97018 44.1777 10.416 44.1777H39.5827C43.0285 44.1777 45.8327 41.3736 45.8327 37.9277V21.2611C45.8327 17.8152 43.0285 15.0111 39.5827 15.0111Z" fill="#FF5364"/>
<mask id="mask0" mask-type="alpha" maskUnits="userSpaceOnUse" x="4" y="6" width="42" height="39">
<path fill-rule="evenodd" clip-rule="evenodd" d="M41.666 37.9277C41.666 39.0757 40.7306 40.0111 39.5827 40.0111H35.416V19.1777H39.5827C40.7306 19.1777 41.666 20.1132 41.666 21.2611V37.9277ZM8.33268 37.9277V21.2611C8.33268 20.1132 9.2681 19.1777 10.416 19.1777H14.5827V40.0111H10.416C9.2681 40.0111 8.33268 39.0757 8.33268 37.9277ZM20.8327 11.8861C20.8327 11.3111 21.2993 10.8444 21.8743 10.8444H28.1243C28.6993 10.8444 29.166 11.3111 29.166 11.8861V15.0111H20.8327V11.8861ZM18.7493 40.0111H31.2493V19.1777H18.7493V40.0111ZM39.5827 15.0111H33.3327V11.8861C33.3327 9.01523 30.9952 6.67773 28.1244 6.67773H21.8743C19.0035 6.67773 16.666 9.01523 16.666 11.8861V15.0111H10.416C6.97018 15.0111 4.16602 17.8152 4.16602 21.2611V37.9277C4.16602 41.3736 6.97018 44.1777 10.416 44.1777H39.5827C43.0285 44.1777 45.8327 41.3736 45.8327 37.9277V21.2611C45.8327 17.8152 43.0285 15.0111 39.5827 15.0111Z" fill="white"/>
</mask>
<g mask="url(#mask0)">
<rect y="0.427734" width="50" height="50" fill="#FF5364"/>
</g>
</svg>
