<svg width="50" height="51" viewBox="0 0 50 51" fill="none" xmlns="http://www.w3.org/2000/svg">
<path fill-rule="evenodd" clip-rule="evenodd" d="M43.7324 14.934C43.7282 14.784 43.6845 14.6423 43.6449 14.4986C43.6137 14.3777 43.5991 14.2548 43.547 14.1444C43.4991 14.0361 43.4178 13.9486 43.347 13.8486C43.2595 13.7215 43.1803 13.5944 43.0678 13.4902C43.0491 13.4715 43.0407 13.4465 43.0199 13.4298C42.9449 13.3652 42.8532 13.3423 42.772 13.2902C42.647 13.209 42.5241 13.1257 42.3824 13.0715C42.2428 13.0215 42.1053 13.009 41.9616 12.9882C41.8616 12.9736 41.772 12.9277 41.6657 12.9277H31.2491C30.097 12.9277 29.1657 13.8611 29.1657 15.0111C29.1657 16.1611 30.097 17.0944 31.2491 17.0944H37.1366L28.7282 26.9027L19.8199 21.559C18.9387 21.0257 17.8053 21.2215 17.147 22.0111L6.73033 34.5111C5.99491 35.3944 6.11366 36.709 6.997 37.4444C7.38866 37.7694 7.8595 37.9277 8.33033 37.9277C8.92825 37.9277 9.51991 37.6736 9.93241 37.1777L19.2074 26.0486L28.0928 31.3819C28.9657 31.9048 30.0866 31.7215 30.747 30.9507L39.5824 20.6423V25.4277C39.5824 26.5777 40.5137 27.5111 41.6657 27.5111C42.8178 27.5111 43.7491 26.5777 43.7491 25.4277V15.0111C43.7491 14.984 43.7345 14.9611 43.7324 14.934Z" fill="#F05665"/>
<mask id="mask0" mask-type="alpha" maskUnits="userSpaceOnUse" x="6" y="12" width="38" height="26">
<path fill-rule="evenodd" clip-rule="evenodd" d="M43.7324 14.934C43.7282 14.784 43.6845 14.6423 43.6449 14.4986C43.6137 14.3777 43.5991 14.2548 43.547 14.1444C43.4991 14.0361 43.4178 13.9486 43.347 13.8486C43.2595 13.7215 43.1803 13.5944 43.0678 13.4902C43.0491 13.4715 43.0407 13.4465 43.0199 13.4298C42.9449 13.3652 42.8532 13.3423 42.772 13.2902C42.647 13.209 42.5241 13.1257 42.3824 13.0715C42.2428 13.0215 42.1053 13.009 41.9616 12.9882C41.8616 12.9736 41.772 12.9277 41.6657 12.9277H31.2491C30.097 12.9277 29.1657 13.8611 29.1657 15.0111C29.1657 16.1611 30.097 17.0944 31.2491 17.0944H37.1366L28.7282 26.9027L19.8199 21.559C18.9387 21.0257 17.8053 21.2215 17.147 22.0111L6.73033 34.5111C5.99491 35.3944 6.11366 36.709 6.997 37.4444C7.38866 37.7694 7.8595 37.9277 8.33033 37.9277C8.92825 37.9277 9.51991 37.6736 9.93241 37.1777L19.2074 26.0486L28.0928 31.3819C28.9657 31.9048 30.0866 31.7215 30.747 30.9507L39.5824 20.6423V25.4277C39.5824 26.5777 40.5137 27.5111 41.6657 27.5111C42.8178 27.5111 43.7491 26.5777 43.7491 25.4277V15.0111C43.7491 14.984 43.7345 14.9611 43.7324 14.934Z" fill="white"/>
</mask>
<g mask="url(#mask0)">
<rect y="0.427734" width="50" height="50" fill="#F05665"/>
</g>
</svg>
