<svg width="227" height="210" viewBox="0 0 227 210" fill="none" xmlns="http://www.w3.org/2000/svg">
    <path d="M214.631 164.806C211.848 170.314 208.079 175.265 203.51 179.412C202.319 180.45 201.046 181.388 199.701 182.217C198.485 182.967 197.205 183.607 195.876 184.13C176.812 191.584 157.294 174.624 135.488 176.627C117.21 178.31 104.056 187.918 92.3948 195.98C88.5606 198.743 84.5606 201.269 80.4182 203.544C79.3145 204.124 78.2047 204.656 77.1032 205.127C75.9148 205.626 74.6567 206.098 73.3107 206.528C73.3105 206.531 73.3096 206.533 73.3076 206.535C73.3057 206.537 73.303 206.538 73.3004 206.538L73.288 206.528C56.3965 212.008 27.8644 211.807 15.2183 200.017C1.98066 187.666 -14.0927 147.636 22.3133 96.0763C62.7711 38.7674 173.306 30.8428 202.844 49.7911C233.409 69.3918 232.18 131.882 214.631 164.806Z" fill="#D6DCFD"/>
    <path d="M79.4598 139.73C105.224 139.73 126.111 118.824 126.111 93.0354C126.111 67.2464 105.224 46.3403 79.4598 46.3403C53.695 46.3403 32.8086 67.2464 32.8086 93.0354C32.8086 118.824 53.695 139.73 79.4598 139.73Z" fill="#7A67D3"/>
    <path d="M105.531 24.3447H53.3915C49.3007 24.3447 45.9844 27.6641 45.9844 31.7588V142.24C45.9844 146.335 49.3007 149.655 53.3915 149.655H105.531C109.622 149.655 112.938 146.335 112.938 142.24V31.7588C112.938 27.6641 109.622 24.3447 105.531 24.3447Z" fill="black"/>
    <path d="M93.8755 28.8061V30.5124C93.8758 30.8448 93.8113 31.174 93.6844 31.4811C93.5574 31.7883 93.3704 32.0674 93.1357 32.3025C92.9009 32.5376 92.622 32.7241 92.3152 32.8512C92.0083 32.9784 91.68 33.0439 91.3479 33.0438H67.5724C67.2403 33.0439 66.9109 32.9784 66.6041 32.8512C66.2973 32.7241 66.0184 32.5376 65.7836 32.3025C65.5488 32.0674 65.3629 31.7883 65.2359 31.4811C65.109 31.174 65.0435 30.8448 65.0437 30.5124V28.8061C65.0435 28.5877 64.957 28.3782 64.803 28.2236C64.6489 28.069 64.4404 27.9818 64.2222 27.981H54.3888C53.2054 27.9818 52.0703 28.453 51.2339 29.2909C50.3975 30.1289 49.9275 31.265 49.9277 32.4495V141.543C49.9275 142.727 50.3975 143.863 51.2339 144.701C52.0703 145.539 53.2054 146.01 54.3888 146.011H104.525C105.111 146.011 105.691 145.896 106.232 145.671C106.774 145.446 107.266 145.117 107.68 144.702C108.094 144.287 108.424 143.795 108.647 143.252C108.871 142.71 108.986 142.129 108.985 141.543V32.4495C108.986 31.8629 108.87 31.2821 108.646 30.74C108.422 30.198 108.094 29.7053 107.68 29.2903C107.266 28.8753 106.774 28.5462 106.232 28.3215C105.691 28.0968 105.111 27.9811 104.525 27.981H94.694C94.4764 27.9826 94.2685 28.0702 94.1153 28.2248C93.9621 28.3794 93.8755 28.5884 93.8755 28.8061Z" fill="white"/>
    <path d="M110.575 133.55H48.8174V146.433H110.575V133.55Z" fill="black"/>
    <path d="M80.3781 145.457C82.96 145.457 85.053 143.36 85.053 140.773C85.053 138.185 82.96 136.088 80.3781 136.088C77.7962 136.088 75.7031 138.185 75.7031 140.773C75.7031 143.36 77.7962 145.457 80.3781 145.457Z" fill="#545454"/>
    <path d="M83.8865 140.771C83.8868 141.703 83.5169 142.596 82.8593 143.255C82.2017 143.913 81.3097 144.284 80.3792 144.285C79.449 144.284 78.5568 143.914 77.8992 143.255C77.2416 142.597 76.873 141.703 76.873 140.772C76.873 139.841 77.2425 138.948 77.9002 138.29C78.558 137.631 79.4501 137.262 80.3803 137.262C81.3105 137.262 82.2026 137.631 82.8603 138.29C83.5181 138.948 83.8875 139.841 83.8875 140.772L83.8865 140.771Z" fill="#737373"/>
    <path d="M84.7206 28.9297H70.3053C69.8745 28.9297 69.5254 29.2792 69.5254 29.7103C69.5254 30.1414 69.8745 30.4909 70.3053 30.4909H84.7206C85.1513 30.4909 85.5005 30.1414 85.5005 29.7103C85.5005 29.2792 85.1513 28.9297 84.7206 28.9297Z" fill="#A4A5A4"/>
    <path d="M89.3977 29.7104C89.3964 29.9406 89.3279 30.1652 89.1993 30.356C89.0706 30.5468 88.8882 30.6951 88.6754 30.7823C88.4626 30.8695 88.228 30.8917 88.0026 30.846C87.7773 30.8003 87.5706 30.6888 87.4085 30.5256C87.2463 30.3624 87.1367 30.1549 87.0923 29.9291C87.0479 29.7033 87.0711 29.4693 87.1594 29.2568C87.2477 29.0442 87.397 28.8627 87.5883 28.7349C87.7795 28.6072 88.0042 28.5391 88.2341 28.5391C88.5435 28.5405 88.8395 28.6644 89.0577 28.884C89.2759 29.1036 89.398 29.4008 89.3977 29.7104Z" fill="#A4A5A4"/>
    <path d="M45.98 75.3271C45.98 75.3271 51.028 79.6865 52.1274 84.7641C53.6036 91.5735 46.59 101.891 46.973 110.29C47.4196 119.992 52.698 124.186 55.9106 130.617C58.363 135.179 59.5537 140.313 59.3599 145.49C59.3758 146.969 59.0558 148.432 58.4237 149.769H93.2852C87.8005 157.328 80.8836 163.734 72.929 168.622C65.1251 173.486 59.9587 180.767 57.6032 184.615C56.6255 186.209 56.1327 187.215 56.1327 187.215H7.27441L24.8653 157.976C24.8653 157.976 21.6809 142.572 23.5612 131.434C26.9621 111.277 45.98 75.3271 45.98 75.3271Z" fill="#FFBE9D"/>
    <path d="M58.5821 149.663C58.5821 149.663 56.7244 153.112 54.5531 156.641C52.3817 160.17 51.0293 162.071 51.0293 162.071C54.0092 161.242 56.8438 159.96 59.4357 158.271C62.7185 155.847 65.6576 152.989 68.1728 149.774L58.5821 149.663Z" fill="#EB996E"/>
    <path d="M106.067 2.76652L107.579 0L109.092 2.76652C110.604 5.53289 112.876 7.80743 115.64 9.32056L118.403 10.8341L115.64 12.3477C112.875 13.8607 110.603 16.1357 109.092 18.9027L107.579 21.6693L106.067 18.9027C104.556 16.1359 102.283 13.861 99.5191 12.3477L96.7559 10.8341L99.5191 9.32056C102.283 7.80753 104.556 5.53296 106.067 2.76652Z" fill="#7A67D3"/>
    <path d="M78.5383 12.7872L79.18 11.6138L79.8207 12.7872C80.4609 13.9609 81.4243 14.9259 82.5963 15.5675L83.7692 16.2094L82.5963 16.8512C81.4242 17.4928 80.4608 18.4579 79.8207 19.6315L79.18 20.8051L78.5383 19.6315C77.8972 18.4582 76.9336 17.4934 75.7617 16.8512L74.5898 16.2094L75.7617 15.5675C76.9336 14.9253 77.8972 13.9605 78.5383 12.7872Z" fill="#7A67D3"/>
    <path d="M118.625 44.6903L118.917 44.1479L119.213 44.6903C119.508 45.2302 119.952 45.6742 120.492 45.9698L121.033 46.2652L120.492 46.5608C119.952 46.8567 119.508 47.301 119.213 47.8413L118.917 48.3835L118.625 47.8413C118.329 47.3011 117.885 46.8568 117.345 46.5608L116.803 46.2652L117.345 45.9698C117.885 45.6741 118.329 45.2301 118.625 44.6903Z" fill="#7A67D3"/>
    <path d="M122.154 23.2188L122.694 22.2339L123.232 23.2188C123.771 24.2028 124.581 25.0115 125.565 25.5491L126.549 26.0881L125.565 26.6272C124.581 27.1649 123.771 27.9736 123.232 28.9574L122.694 29.9424L122.154 28.9574C121.616 27.9741 120.809 27.1655 119.827 26.6272L118.842 26.0881L119.827 25.5491C120.809 25.0109 121.616 24.2022 122.154 23.2188Z" fill="#7A67D3"/>
    <path d="M79.8878 88.8462C89.8485 88.8462 97.9231 80.764 97.9231 70.794C97.9231 60.824 89.8485 52.7417 79.8878 52.7417C69.9272 52.7417 61.8525 60.824 61.8525 70.794C61.8525 80.764 69.9272 88.8462 79.8878 88.8462Z" fill="#AB97E8"/>
    <path d="M71.5586 69.9552L77.6647 75.5127L88.2153 66.0649" stroke="white" stroke-width="3" stroke-linecap="round" stroke-linejoin="round"/>
    <path d="M62.8335 109.438C62.9084 109.438 62.9735 109.414 63.0288 109.367C63.0842 109.318 63.1119 109.251 63.1119 109.167V106.378H63.9883C64.0567 106.378 64.1104 106.356 64.1494 106.312C64.1885 106.269 64.208 106.216 64.208 106.156C64.208 106.098 64.1885 106.046 64.1494 106.002C64.1104 105.958 64.0567 105.937 63.9883 105.937H61.6714C61.6031 105.937 61.5494 105.958 61.5103 106.002C61.4712 106.046 61.4517 106.098 61.4517 106.159C61.4517 106.217 61.4712 106.269 61.5103 106.312C61.5494 106.356 61.6031 106.378 61.6714 106.378H62.5552V109.167C62.5552 109.251 62.5829 109.318 62.6382 109.367C62.6936 109.414 62.7587 109.438 62.8335 109.438ZM64.9771 109.433C65.052 109.433 65.1171 109.41 65.1724 109.364C65.2277 109.317 65.2554 109.252 65.2554 109.169V107.865H66.0171C66.0204 107.865 66.0244 107.865 66.0293 107.865C66.153 107.865 66.2523 107.875 66.3272 107.895C66.4037 107.914 66.4655 107.951 66.5127 108.007C66.5616 108.061 66.5966 108.126 66.6177 108.205C66.6405 108.281 66.6592 108.387 66.6739 108.522L66.7471 109.188C66.7552 109.267 66.7886 109.327 66.8472 109.369C66.9058 109.411 66.9717 109.433 67.045 109.433C67.1149 109.433 67.176 109.41 67.2281 109.364C67.2801 109.319 67.3062 109.259 67.3062 109.186C67.3062 109.176 67.3054 109.166 67.3037 109.154L67.2207 108.429C67.1703 107.982 66.9457 107.715 66.5469 107.631V107.621C66.7992 107.577 66.9888 107.484 67.1158 107.343C67.2427 107.2 67.3062 107.026 67.3062 106.823C67.3062 106.232 66.8887 105.937 66.0537 105.937H64.9795C64.903 105.937 64.8371 105.963 64.7818 106.017C64.7281 106.069 64.7012 106.133 64.7012 106.208V109.169C64.7012 109.252 64.7281 109.317 64.7818 109.364C64.8371 109.41 64.9022 109.433 64.9771 109.433ZM65.2554 107.438V106.376H65.9854C66.0489 106.376 66.0993 106.377 66.1368 106.378C66.1742 106.378 66.223 106.382 66.2832 106.391C66.3451 106.397 66.3947 106.407 66.4322 106.42C66.4696 106.431 66.5103 106.449 66.5542 106.474C66.5998 106.498 66.6348 106.528 66.6592 106.564C66.6853 106.6 66.7072 106.645 66.7251 106.698C66.743 106.752 66.752 106.814 66.752 106.884C66.752 106.981 66.7349 107.065 66.7007 107.135C66.6665 107.204 66.6242 107.257 66.5738 107.296C66.5233 107.335 66.4574 107.366 66.376 107.389C66.2946 107.41 66.2181 107.424 66.1465 107.431C66.0765 107.436 65.9927 107.438 65.8951 107.438H65.2554ZM70.0796 108.183H68.7393L69.4107 106.444L70.0796 108.183ZM70.4995 109.274C70.5581 109.385 70.642 109.444 70.751 109.452C70.7982 109.452 70.8422 109.442 70.8828 109.423C70.9252 109.403 70.9593 109.376 70.9854 109.34C71.0131 109.302 71.0269 109.261 71.0269 109.215C71.0269 109.184 71.0204 109.153 71.0074 109.12L69.8623 106.266C69.8054 106.123 69.7411 106.028 69.6695 105.98C69.5995 105.933 69.5132 105.91 69.4107 105.91C69.3065 105.91 69.2186 105.933 69.147 105.98C69.077 106.028 69.0135 106.123 68.9566 106.266L67.8116 109.12C67.7985 109.151 67.792 109.182 67.792 109.213C67.792 109.301 67.8352 109.368 67.9214 109.416C67.9686 109.44 68.0174 109.452 68.0679 109.452C68.1232 109.452 68.1729 109.438 68.2168 109.408C68.2624 109.379 68.2966 109.334 68.3194 109.274L68.5879 108.578H70.231L70.4995 109.274ZM71.8423 109.435C71.9107 109.435 71.9701 109.414 72.0205 109.372C72.0726 109.329 72.0987 109.271 72.0987 109.196V106.776L73.8223 109.252C73.863 109.309 73.9159 109.354 73.981 109.386C74.0461 109.419 74.1071 109.435 74.1641 109.435C74.2536 109.435 74.3293 109.404 74.3911 109.342C74.4546 109.28 74.4864 109.197 74.4864 109.091V106.178C74.4864 106.102 74.4611 106.042 74.4107 106C74.3602 105.958 74.3008 105.937 74.2325 105.937C74.1641 105.937 74.1047 105.958 74.0542 106.002C74.0038 106.045 73.9785 106.103 73.9785 106.178V108.622L72.25 106.129C72.2061 106.068 72.1516 106.02 72.0865 105.988C72.0214 105.955 71.9579 105.939 71.896 105.939C71.8081 105.939 71.7349 105.97 71.6763 106.032C71.6177 106.094 71.5884 106.177 71.5884 106.283V109.196C71.5884 109.272 71.6136 109.332 71.6641 109.374C71.7146 109.415 71.774 109.435 71.8423 109.435ZM76.4785 109.489C76.7487 109.489 76.9839 109.45 77.1841 109.372C77.3859 109.292 77.5422 109.175 77.6529 109.02C77.7635 108.865 77.8189 108.681 77.8189 108.468C77.8189 108.333 77.7985 108.214 77.7578 108.112C77.7188 108.008 77.6577 107.918 77.5747 107.843C77.4934 107.768 77.4014 107.705 77.2989 107.653C77.198 107.601 77.0734 107.55 76.9253 107.501L76.1856 107.262C76.0424 107.217 75.9374 107.158 75.8706 107.086C75.8039 107.015 75.7705 106.92 75.7705 106.801C75.7705 106.635 75.8413 106.511 75.9829 106.43C76.1262 106.348 76.3158 106.308 76.5518 106.308C76.8464 106.308 77.132 106.391 77.4087 106.557C77.4462 106.579 77.4836 106.591 77.521 106.591C77.5796 106.591 77.6293 106.568 77.67 106.522C77.7106 106.475 77.731 106.423 77.731 106.366C77.731 106.311 77.7106 106.266 77.67 106.232C77.556 106.133 77.3924 106.047 77.1792 105.976C76.966 105.902 76.743 105.866 76.5103 105.866C76.2694 105.866 76.0529 105.903 75.8609 105.978C75.6704 106.051 75.5183 106.161 75.4043 106.308C75.292 106.454 75.2359 106.625 75.2359 106.82C75.2359 107.056 75.2985 107.243 75.4239 107.382C75.5492 107.519 75.7437 107.631 76.0074 107.719L76.7495 107.965C76.94 108.029 77.0751 108.1 77.1548 108.178C77.2362 108.256 77.2769 108.371 77.2769 108.522C77.2769 108.693 77.2036 108.823 77.0572 108.913C76.9123 109.002 76.7243 109.047 76.4932 109.047C76.1368 109.047 75.812 108.941 75.5191 108.729C75.5093 108.723 75.4995 108.718 75.4898 108.715C75.48 108.712 75.4694 108.71 75.458 108.71C75.4027 108.71 75.3482 108.743 75.2945 108.808C75.2408 108.873 75.2139 108.935 75.2139 108.996C75.2139 109.012 75.2163 109.027 75.2212 109.042C75.2261 109.055 75.2342 109.066 75.2456 109.076C75.5549 109.351 75.9659 109.489 76.4785 109.489ZM80.5093 108.183H79.169L79.8404 106.444L80.5093 108.183ZM80.9292 109.274C80.9878 109.385 81.0716 109.444 81.1807 109.452C81.2279 109.452 81.2718 109.442 81.3125 109.423C81.3549 109.403 81.389 109.376 81.4151 109.34C81.4427 109.302 81.4566 109.261 81.4566 109.215C81.4566 109.184 81.4501 109.153 81.437 109.12L80.292 106.266C80.2351 106.123 80.1708 106.028 80.0992 105.98C80.0292 105.933 79.9429 105.91 79.8404 105.91C79.7362 105.91 79.6483 105.933 79.5767 105.98C79.5067 106.028 79.4432 106.123 79.3863 106.266L78.2412 109.12C78.2282 109.151 78.2217 109.182 78.2217 109.213C78.2217 109.301 78.2648 109.368 78.3511 109.416C78.3983 109.44 78.4471 109.452 78.4976 109.452C78.5529 109.452 78.6026 109.438 78.6465 109.408C78.6921 109.379 78.7263 109.334 78.7491 109.274L79.0176 108.578H80.6607L80.9292 109.274ZM83.5147 109.489C83.8939 109.489 84.2235 109.4 84.5035 109.223C84.5865 109.169 84.628 109.101 84.628 109.018C84.628 108.961 84.6084 108.911 84.5694 108.869C84.5303 108.825 84.4831 108.803 84.4278 108.803C84.3952 108.803 84.3627 108.812 84.3301 108.83C84.2455 108.875 84.1747 108.911 84.1177 108.937C84.0624 108.963 83.9875 108.988 83.8931 109.013C83.8003 109.035 83.7051 109.047 83.6075 109.047C83.417 109.047 83.2486 109.014 83.1021 108.947C82.9556 108.878 82.8368 108.783 82.7456 108.661C82.6545 108.537 82.5861 108.393 82.5406 108.229C82.495 108.065 82.4722 107.882 82.4722 107.682C82.4722 107.482 82.495 107.3 82.5406 107.135C82.5861 106.969 82.6537 106.824 82.7432 106.701C82.8327 106.577 82.9491 106.481 83.0923 106.413C83.2355 106.343 83.3999 106.308 83.5855 106.308C83.6587 106.308 83.7279 106.312 83.793 106.32C83.8581 106.328 83.9175 106.341 83.9712 106.359C84.0249 106.375 84.0673 106.389 84.0982 106.4C84.1291 106.412 84.1665 106.429 84.2105 106.452C84.2544 106.473 84.2797 106.485 84.2862 106.488C84.2992 106.495 84.3122 106.5 84.3252 106.503C84.3399 106.505 84.3537 106.505 84.3667 106.505C84.4042 106.505 84.4392 106.495 84.4717 106.474C84.5059 106.452 84.5327 106.425 84.5523 106.391C84.5718 106.355 84.5816 106.318 84.5816 106.281C84.5816 106.243 84.571 106.208 84.5498 106.176C84.5287 106.142 84.4961 106.113 84.4522 106.09C84.1739 105.941 83.8785 105.866 83.566 105.866C83.2323 105.866 82.9369 105.945 82.6797 106.103C82.4242 106.259 82.2281 106.474 82.0913 106.75C81.9546 107.025 81.8863 107.338 81.8863 107.689C81.8863 108.033 81.9514 108.34 82.0816 108.612C82.2118 108.884 82.4014 109.098 82.6504 109.254C82.8994 109.411 83.1875 109.489 83.5147 109.489ZM86.3492 109.438C86.424 109.438 86.4891 109.414 86.5445 109.367C86.5998 109.318 86.6275 109.251 86.6275 109.167V106.378H87.5039C87.5723 106.378 87.626 106.356 87.6651 106.312C87.7041 106.269 87.7237 106.216 87.7237 106.156C87.7237 106.098 87.7041 106.046 87.6651 106.002C87.626 105.958 87.5723 105.937 87.5039 105.937H85.187C85.1187 105.937 85.065 105.958 85.0259 106.002C84.9869 106.046 84.9673 106.098 84.9673 106.159C84.9673 106.217 84.9869 106.269 85.0259 106.312C85.065 106.356 85.1187 106.378 85.187 106.378H86.0708V109.167C86.0708 109.251 86.0985 109.318 86.1538 109.367C86.2092 109.414 86.2743 109.438 86.3492 109.438ZM88.5415 109.433C88.618 109.433 88.684 109.41 88.7393 109.364C88.7946 109.317 88.8223 109.251 88.8223 109.167V106.203C88.8223 106.118 88.7946 106.052 88.7393 106.005C88.6856 105.958 88.6213 105.934 88.5464 105.934C88.4699 105.934 88.404 105.958 88.3487 106.005C88.295 106.052 88.2681 106.118 88.2681 106.203V109.167C88.2681 109.25 88.295 109.315 88.3487 109.362C88.4024 109.409 88.4667 109.433 88.5415 109.433ZM91.2539 109.047C90.9056 109.047 90.6371 108.925 90.4483 108.681C90.2611 108.435 90.1675 108.1 90.1675 107.677C90.1675 107.256 90.2611 106.922 90.4483 106.676C90.6355 106.431 90.904 106.308 91.2539 106.308C91.6022 106.308 91.87 106.431 92.0572 106.676C92.2443 106.922 92.3379 107.256 92.3379 107.677C92.3379 108.1 92.2443 108.435 92.0572 108.681C91.87 108.925 91.6022 109.047 91.2539 109.047ZM91.2539 109.489C91.7764 109.489 92.1849 109.325 92.4795 108.998C92.7758 108.671 92.9239 108.231 92.9239 107.677C92.9239 107.124 92.7758 106.684 92.4795 106.356C92.1849 106.029 91.7764 105.866 91.2539 105.866C90.9073 105.866 90.607 105.941 90.3531 106.09C90.1008 106.24 89.9087 106.451 89.7769 106.723C89.6451 106.994 89.5791 107.313 89.5791 107.677C89.5791 108.042 89.6451 108.36 89.7769 108.632C89.9087 108.904 90.1008 109.114 90.3531 109.264C90.607 109.414 90.9073 109.489 91.2539 109.489ZM93.8833 109.435C93.9517 109.435 94.0111 109.414 94.0616 109.372C94.1136 109.329 94.1397 109.271 94.1397 109.196V106.776L95.8633 109.252C95.904 109.309 95.9569 109.354 96.022 109.386C96.0871 109.419 96.1481 109.435 96.2051 109.435C96.2946 109.435 96.3703 109.404 96.4322 109.342C96.4956 109.28 96.5274 109.197 96.5274 109.091V106.178C96.5274 106.102 96.5022 106.042 96.4517 106C96.4012 105.958 96.3418 105.937 96.2735 105.937C96.2051 105.937 96.1457 105.958 96.0952 106.002C96.0448 106.045 96.0196 106.103 96.0196 106.178V108.622L94.291 106.129C94.2471 106.068 94.1926 106.02 94.1275 105.988C94.0624 105.955 93.9989 105.939 93.937 105.939C93.8492 105.939 93.7759 105.97 93.7173 106.032C93.6587 106.094 93.6294 106.177 93.6294 106.283V109.196C93.6294 109.272 93.6547 109.332 93.7051 109.374C93.7556 109.415 93.815 109.435 93.8833 109.435ZM64.7085 115.489C64.9787 115.489 65.2139 115.45 65.4141 115.372C65.6159 115.292 65.7722 115.175 65.8828 115.02C65.9935 114.865 66.0489 114.681 66.0489 114.468C66.0489 114.333 66.0285 114.214 65.9878 114.112C65.9488 114.008 65.8877 113.918 65.8047 113.843C65.7233 113.768 65.6314 113.705 65.5288 113.653C65.4279 113.601 65.3034 113.55 65.1553 113.501L64.4156 113.262C64.2723 113.217 64.1674 113.158 64.1006 113.086C64.0339 113.015 64.0005 112.92 64.0005 112.801C64.0005 112.635 64.0713 112.511 64.2129 112.43C64.3562 112.348 64.5458 112.308 64.7818 112.308C65.0764 112.308 65.362 112.391 65.6387 112.557C65.6761 112.579 65.7136 112.591 65.751 112.591C65.8096 112.591 65.8592 112.568 65.8999 112.522C65.9406 112.475 65.961 112.423 65.961 112.366C65.961 112.311 65.9406 112.266 65.8999 112.232C65.786 112.133 65.6224 112.047 65.4092 111.976C65.196 111.902 64.973 111.866 64.7403 111.866C64.4994 111.866 64.2829 111.903 64.0909 111.978C63.9004 112.051 63.7482 112.161 63.6343 112.308C63.522 112.454 63.4659 112.625 63.4659 112.82C63.4659 113.056 63.5285 113.243 63.6538 113.382C63.7792 113.519 63.9737 113.631 64.2373 113.719L64.9795 113.965C65.17 114.029 65.305 114.1 65.3848 114.178C65.4662 114.256 65.5069 114.371 65.5069 114.522C65.5069 114.693 65.4336 114.823 65.2871 114.913C65.1423 115.002 64.9543 115.047 64.7232 115.047C64.3667 115.047 64.042 114.941 63.7491 114.729C63.7393 114.723 63.7295 114.718 63.7198 114.715C63.71 114.712 63.6994 114.71 63.688 114.71C63.6327 114.71 63.5782 114.743 63.5244 114.808C63.4707 114.873 63.4439 114.935 63.4439 114.996C63.4439 115.012 63.4463 115.027 63.4512 115.042C63.4561 115.055 63.4642 115.066 63.4756 115.076C63.7849 115.351 64.1958 115.489 64.7085 115.489ZM68.1411 115.489C68.3332 115.489 68.5122 115.463 68.6783 115.411C68.8459 115.357 68.9948 115.28 69.125 115.179C69.2552 115.076 69.3578 114.943 69.4327 114.778C69.5091 114.614 69.5474 114.428 69.5474 114.219V112.193C69.5474 112.108 69.5197 112.043 69.4644 111.998C69.4107 111.95 69.3464 111.927 69.2715 111.927C69.195 111.927 69.1291 111.95 69.0738 111.998C69.0184 112.045 68.9908 112.11 68.9908 112.193V114.205C68.9908 114.319 68.9745 114.423 68.9419 114.517C68.911 114.611 68.8679 114.691 68.8125 114.756C68.7588 114.82 68.6953 114.874 68.6221 114.92C68.5505 114.964 68.474 114.996 68.3926 115.018C68.3112 115.037 68.2274 115.047 68.1411 115.047C68.0321 115.047 67.9279 115.031 67.8286 114.998C67.731 114.964 67.6415 114.914 67.5601 114.849C67.4803 114.782 67.416 114.694 67.3672 114.583C67.32 114.472 67.2964 114.346 67.2964 114.205V112.193C67.2964 112.108 67.2688 112.043 67.2134 111.998C67.1581 111.95 67.093 111.927 67.0181 111.927C66.9416 111.927 66.8757 111.95 66.8203 111.998C66.7666 112.045 66.7398 112.11 66.7398 112.193V114.219C66.7398 114.387 66.7642 114.541 66.813 114.681C66.8635 114.819 66.9318 114.938 67.0181 115.037C67.1044 115.136 67.2061 115.22 67.3233 115.289C67.4421 115.357 67.5699 115.407 67.7066 115.44C67.8449 115.472 67.9898 115.489 68.1411 115.489ZM71.896 115.489C72.2753 115.489 72.6049 115.4 72.8848 115.223C72.9678 115.169 73.0093 115.101 73.0093 115.018C73.0093 114.961 72.9898 114.911 72.9507 114.869C72.9117 114.825 72.8645 114.803 72.8091 114.803C72.7766 114.803 72.744 114.812 72.7115 114.83C72.6268 114.875 72.556 114.911 72.4991 114.937C72.4437 114.963 72.3688 114.988 72.2744 115.013C72.1817 115.035 72.0865 115.047 71.9888 115.047C71.7984 115.047 71.6299 115.014 71.4834 114.947C71.3369 114.878 71.2181 114.783 71.127 114.661C71.0358 114.537 70.9675 114.393 70.9219 114.229C70.8763 114.065 70.8535 113.882 70.8535 113.682C70.8535 113.482 70.8763 113.3 70.9219 113.135C70.9675 112.969 71.035 112.824 71.1245 112.701C71.2141 112.577 71.3304 112.481 71.4737 112.413C71.6169 112.343 71.7813 112.308 71.9668 112.308C72.0401 112.308 72.1092 112.312 72.1744 112.32C72.2395 112.328 72.2989 112.341 72.3526 112.359C72.4063 112.375 72.4486 112.389 72.4795 112.4C72.5105 112.412 72.5479 112.429 72.5918 112.452C72.6358 112.473 72.661 112.485 72.6675 112.488C72.6805 112.495 72.6936 112.5 72.7066 112.503C72.7212 112.505 72.7351 112.505 72.7481 112.505C72.7855 112.505 72.8205 112.495 72.8531 112.474C72.8872 112.452 72.9141 112.425 72.9336 112.391C72.9532 112.355 72.9629 112.318 72.9629 112.281C72.9629 112.243 72.9523 112.208 72.9312 112.176C72.91 112.142 72.8775 112.113 72.8335 112.09C72.5552 111.941 72.2598 111.866 71.9473 111.866C71.6136 111.866 71.3182 111.945 71.0611 112.103C70.8055 112.259 70.6094 112.474 70.4727 112.75C70.336 113.025 70.2676 113.338 70.2676 113.689C70.2676 114.033 70.3327 114.34 70.4629 114.612C70.5931 114.884 70.7827 115.098 71.0318 115.254C71.2808 115.411 71.5689 115.489 71.896 115.489ZM75.2017 115.489C75.5809 115.489 75.9105 115.4 76.1905 115.223C76.2735 115.169 76.315 115.101 76.315 115.018C76.315 114.961 76.2954 114.911 76.2564 114.869C76.2173 114.825 76.1701 114.803 76.1148 114.803C76.0822 114.803 76.0497 114.812 76.0171 114.83C75.9325 114.875 75.8617 114.911 75.8047 114.937C75.7494 114.963 75.6745 114.988 75.5801 115.013C75.4873 115.035 75.3921 115.047 75.2945 115.047C75.104 115.047 74.9356 115.014 74.7891 114.947C74.6426 114.878 74.5238 114.783 74.4327 114.661C74.3415 114.537 74.2731 114.393 74.2276 114.229C74.182 114.065 74.1592 113.882 74.1592 113.682C74.1592 113.482 74.182 113.3 74.2276 113.135C74.2731 112.969 74.3407 112.824 74.4302 112.701C74.5197 112.577 74.6361 112.481 74.7793 112.413C74.9226 112.343 75.0869 112.308 75.2725 112.308C75.3457 112.308 75.4149 112.312 75.48 112.32C75.5451 112.328 75.6045 112.341 75.6582 112.359C75.7119 112.375 75.7543 112.389 75.7852 112.4C75.8161 112.412 75.8535 112.429 75.8975 112.452C75.9414 112.473 75.9667 112.485 75.9732 112.488C75.9862 112.495 75.9992 112.5 76.0122 112.503C76.0269 112.505 76.0407 112.505 76.0537 112.505C76.0912 112.505 76.1262 112.495 76.1587 112.474C76.1929 112.452 76.2198 112.425 76.2393 112.391C76.2588 112.355 76.2686 112.318 76.2686 112.281C76.2686 112.243 76.258 112.208 76.2369 112.176C76.2157 112.142 76.1831 112.113 76.1392 112.09C75.8609 111.941 75.5655 111.866 75.253 111.866C74.9193 111.866 74.6239 111.945 74.3667 112.103C74.1112 112.259 73.9151 112.474 73.7784 112.75C73.6416 113.025 73.5733 113.338 73.5733 113.689C73.5733 114.033 73.6384 114.34 73.7686 114.612C73.8988 114.884 74.0884 115.098 74.3374 115.254C74.5865 115.411 74.8745 115.489 75.2017 115.489ZM77.2915 115.435H79.1372C79.2056 115.435 79.2585 115.413 79.2959 115.369C79.3334 115.325 79.3521 115.275 79.3521 115.218C79.3521 115.159 79.3334 115.108 79.2959 115.064C79.2585 115.018 79.2056 114.996 79.1372 114.996H77.5723V113.855H78.9908C79.0591 113.855 79.112 113.834 79.1494 113.792C79.1885 113.748 79.208 113.698 79.208 113.641C79.208 113.582 79.1893 113.532 79.1519 113.489C79.1145 113.447 79.0607 113.426 78.9908 113.426H77.5723V112.378H79.0786C79.1454 112.378 79.1975 112.356 79.2349 112.312C79.2723 112.267 79.291 112.215 79.291 112.156C79.291 112.098 79.2723 112.046 79.2349 112.002C79.1975 111.958 79.1454 111.937 79.0786 111.937H77.2818C77.2085 111.937 77.1459 111.963 77.0938 112.017C77.0433 112.071 77.0181 112.133 77.0181 112.205V115.167C77.0181 115.236 77.0458 115.299 77.1011 115.354C77.1581 115.408 77.2216 115.435 77.2915 115.435ZM81.2076 115.489C81.4777 115.489 81.7129 115.45 81.9131 115.372C82.1149 115.292 82.2712 115.175 82.3819 115.02C82.4925 114.865 82.5479 114.681 82.5479 114.468C82.5479 114.333 82.5275 114.214 82.4869 114.112C82.4478 114.008 82.3868 113.918 82.3037 113.843C82.2224 113.768 82.1304 113.705 82.0279 113.653C81.927 113.601 81.8024 113.55 81.6543 113.501L80.9146 113.262C80.7714 113.217 80.6664 113.158 80.5996 113.086C80.5329 113.015 80.4995 112.92 80.4995 112.801C80.4995 112.635 80.5703 112.511 80.7119 112.43C80.8552 112.348 81.0448 112.308 81.2808 112.308C81.5754 112.308 81.861 112.391 82.1377 112.557C82.1752 112.579 82.2126 112.591 82.25 112.591C82.3086 112.591 82.3583 112.568 82.399 112.522C82.4397 112.475 82.46 112.423 82.46 112.366C82.46 112.311 82.4397 112.266 82.399 112.232C82.285 112.133 82.1215 112.047 81.9082 111.976C81.695 111.902 81.472 111.866 81.2393 111.866C80.9984 111.866 80.7819 111.903 80.5899 111.978C80.3994 112.051 80.2473 112.161 80.1333 112.308C80.021 112.454 79.9649 112.625 79.9649 112.82C79.9649 113.056 80.0275 113.243 80.1529 113.382C80.2782 113.519 80.4727 113.631 80.7364 113.719L81.4785 113.965C81.669 114.029 81.8041 114.1 81.8838 114.178C81.9652 114.256 82.0059 114.371 82.0059 114.522C82.0059 114.693 81.9327 114.823 81.7862 114.913C81.6413 115.002 81.4533 115.047 81.2222 115.047C80.8658 115.047 80.541 114.941 80.2481 114.729C80.2383 114.723 80.2285 114.718 80.2188 114.715C80.209 114.712 80.1984 114.71 80.187 114.71C80.1317 114.71 80.0772 114.743 80.0235 114.808C79.9698 114.873 79.9429 114.935 79.9429 114.996C79.9429 115.012 79.9453 115.027 79.9502 115.042C79.9551 115.055 79.9633 115.066 79.9746 115.076C80.2839 115.351 80.6949 115.489 81.2076 115.489ZM84.3765 115.489C84.6467 115.489 84.8819 115.45 85.0821 115.372C85.2839 115.292 85.4401 115.175 85.5508 115.02C85.6615 114.865 85.7168 114.681 85.7168 114.468C85.7168 114.333 85.6965 114.214 85.6558 114.112C85.6167 114.008 85.5557 113.918 85.4727 113.843C85.3913 113.768 85.2994 113.705 85.1968 113.653C85.0959 113.601 84.9714 113.55 84.8233 113.501L84.0835 113.262C83.9403 113.217 83.8353 113.158 83.7686 113.086C83.7019 113.015 83.6685 112.92 83.6685 112.801C83.6685 112.635 83.7393 112.511 83.8809 112.43C84.0241 112.348 84.2137 112.308 84.4497 112.308C84.7443 112.308 85.03 112.391 85.3067 112.557C85.3441 112.579 85.3815 112.591 85.419 112.591C85.4776 112.591 85.5272 112.568 85.5679 112.522C85.6086 112.475 85.6289 112.423 85.6289 112.366C85.6289 112.311 85.6086 112.266 85.5679 112.232C85.454 112.133 85.2904 112.047 85.0772 111.976C84.864 111.902 84.641 111.866 84.4082 111.866C84.1674 111.866 83.9509 111.903 83.7588 111.978C83.5684 112.051 83.4162 112.161 83.3023 112.308C83.19 112.454 83.1338 112.625 83.1338 112.82C83.1338 113.056 83.1965 113.243 83.3218 113.382C83.4471 113.519 83.6416 113.631 83.9053 113.719L84.6475 113.965C84.8379 114.029 84.973 114.1 85.0528 114.178C85.1341 114.256 85.1748 114.371 85.1748 114.522C85.1748 114.693 85.1016 114.823 84.9551 114.913C84.8103 115.002 84.6223 115.047 84.3911 115.047C84.0347 115.047 83.71 114.941 83.417 114.729C83.4073 114.723 83.3975 114.718 83.3877 114.715C83.378 114.712 83.3674 114.71 83.356 114.71C83.3007 114.71 83.2461 114.743 83.1924 114.808C83.1387 114.873 83.1119 114.935 83.1119 114.996C83.1119 115.012 83.1143 115.027 83.1192 115.042C83.1241 115.055 83.1322 115.066 83.1436 115.076C83.4528 115.351 83.8638 115.489 84.3765 115.489ZM86.6763 115.435C86.7512 115.435 86.8163 115.412 86.8716 115.367C86.927 115.319 86.9546 115.254 86.9546 115.169V113.843H88.3023C88.3706 113.843 88.4235 113.822 88.461 113.78C88.4984 113.737 88.5171 113.687 88.5171 113.628C88.5171 113.57 88.4984 113.519 88.461 113.477C88.4235 113.435 88.3706 113.414 88.3023 113.414H86.9546V112.378H88.3682C88.4366 112.378 88.4895 112.356 88.5269 112.312C88.5643 112.267 88.583 112.215 88.583 112.156C88.583 112.098 88.5643 112.046 88.5269 112.002C88.4895 111.958 88.4366 111.937 88.3682 111.937H86.669C86.5957 111.937 86.5323 111.963 86.4785 112.015C86.4265 112.067 86.4004 112.132 86.4004 112.21V115.169C86.4004 115.254 86.4273 115.319 86.481 115.367C86.5347 115.412 86.5998 115.435 86.6763 115.435ZM90.6411 115.489C90.8332 115.489 91.0122 115.463 91.1783 115.411C91.3459 115.357 91.4948 115.28 91.625 115.179C91.7552 115.076 91.8578 114.943 91.9327 114.778C92.0091 114.614 92.0474 114.428 92.0474 114.219V112.193C92.0474 112.108 92.0197 112.043 91.9644 111.998C91.9107 111.95 91.8464 111.927 91.7715 111.927C91.695 111.927 91.6291 111.95 91.5738 111.998C91.5184 112.045 91.4908 112.11 91.4908 112.193V114.205C91.4908 114.319 91.4745 114.423 91.4419 114.517C91.411 114.611 91.3679 114.691 91.3125 114.756C91.2588 114.82 91.1953 114.874 91.1221 114.92C91.0505 114.964 90.974 114.996 90.8926 115.018C90.8112 115.037 90.7274 115.047 90.6411 115.047C90.5321 115.047 90.4279 115.031 90.3286 114.998C90.231 114.964 90.1415 114.914 90.0601 114.849C89.9803 114.782 89.916 114.694 89.8672 114.583C89.82 114.472 89.7964 114.346 89.7964 114.205V112.193C89.7964 112.108 89.7688 112.043 89.7134 111.998C89.6581 111.95 89.593 111.927 89.5181 111.927C89.4416 111.927 89.3757 111.95 89.3203 111.998C89.2666 112.045 89.2398 112.11 89.2398 112.193V114.219C89.2398 114.387 89.2642 114.541 89.313 114.681C89.3635 114.819 89.4318 114.938 89.5181 115.037C89.6044 115.136 89.7061 115.22 89.8233 115.289C89.9421 115.357 90.0699 115.407 90.2066 115.44C90.3449 115.472 90.4898 115.489 90.6411 115.489ZM93.1875 115.435H94.9527C95.021 115.435 95.0739 115.413 95.1114 115.369C95.1504 115.325 95.17 115.274 95.17 115.215C95.17 115.157 95.1504 115.105 95.1114 115.062C95.0739 115.018 95.021 114.996 94.9527 114.996H93.461V112.208C93.461 112.123 93.4341 112.057 93.3804 112.01C93.3267 111.963 93.2624 111.939 93.1875 111.939C93.111 111.939 93.0451 111.963 92.9898 112.01C92.9344 112.057 92.9068 112.123 92.9068 112.208V115.159C92.9068 115.236 92.9344 115.301 92.9898 115.354C93.0467 115.408 93.1127 115.435 93.1875 115.435Z" fill="#474A51"/>
    <path d="M188.747 46.032C189.416 44.544 190.488 43.2735 191.842 42.3648C193.196 41.4561 194.778 40.9456 196.407 40.8911C198.037 40.8366 199.649 41.2403 201.061 42.0565C202.472 42.8727 203.626 44.0688 204.393 45.5087C205.297 47.2108 205.654 49.239 206.961 50.6583C207.806 51.5202 208.927 52.0547 210.128 52.167C211.329 52.2793 212.531 51.962 213.521 51.2715C213.752 52.3157 213.601 53.4084 213.092 54.3489C212.583 55.2895 211.753 56.0149 210.752 56.3916L213.956 56.7209C212.226 60.4968 207.493 62.2285 203.399 61.4871C199.305 60.7457 195.83 58.0407 193.044 54.9596" fill="#263238"/>
    <path d="M188.772 46.0849L198.655 49.3249C202.171 51.6141 204.844 54.9904 206.266 58.94C206.73 60.2756 207.044 61.6641 207.628 62.951C208.157 64.2768 209.145 65.3674 210.412 66.0226C211.365 66.4462 212.441 66.496 213.415 66.8561C214.234 67.181 214.963 67.6983 215.54 68.3645C216.117 69.0308 216.526 69.8263 216.731 70.6839C216.923 71.5432 216.942 72.4321 216.788 73.299C216.634 74.1658 216.31 74.9934 215.834 75.7339C215.264 76.4072 214.874 77.2145 214.702 78.0799C214.741 78.674 214.863 79.2597 215.063 79.8202C215.299 80.8135 215.211 81.8563 214.813 82.7963C214.415 83.7364 213.728 84.5245 212.851 85.0459C211.974 85.5672 210.953 85.7944 209.938 85.6944C208.923 85.5944 207.966 85.1724 207.208 84.4899C206.701 86.007 205.671 87.2943 204.303 88.1218C202.871 88.8061 200.758 88.1938 200.463 86.639C200.103 87.3927 199.504 88.006 198.759 88.3834C198.014 88.7608 197.166 88.8811 196.346 88.7255C195.526 88.5699 194.78 88.1473 194.225 87.5234C193.67 86.8994 193.337 86.1092 193.277 85.2759L166.188 55.7021C170.233 44.8797 186.041 45.8349 188.772 46.0849Z" fill="#263238"/>
    <path d="M193.356 56.3719C194.196 56.4596 194.972 56.8597 195.531 57.4931C196.09 58.1264 196.391 58.9468 196.375 59.7919L194.462 105.328C194.389 110.706 184.621 117.065 178.848 116.943C173.028 116.821 174.735 110.649 174.652 105.534C174.512 96.9863 174.514 93.7771 174.512 93.8279C174.512 93.8279 167.153 92.6078 165.624 83.0245C164.867 78.2583 165.108 70.4417 165.51 64.0518C165.872 58.3016 169.689 51.2456 175.429 51.8514L193.356 56.3719Z" fill="#FFBE9D"/>
    <path d="M168.012 70.2552C168.01 70.5759 168.132 70.8849 168.354 71.1165C168.575 71.348 168.879 71.484 169.199 71.4955C169.353 71.5083 169.508 71.4904 169.656 71.443C169.803 71.3957 169.94 71.3198 170.058 71.2195C170.176 71.1193 170.272 70.9967 170.343 70.8589C170.414 70.7211 170.457 70.5706 170.469 70.4162C170.469 70.4067 170.469 70.3972 170.469 70.3876C170.471 70.0678 170.348 69.7598 170.127 69.5286C169.906 69.2974 169.605 69.161 169.286 69.1484C168.975 69.1232 168.666 69.2225 168.428 69.4244C168.19 69.6263 168.042 69.9144 168.016 70.2256C168.015 70.2356 168.014 70.2454 168.012 70.2552Z" fill="#263238"/>
    <path d="M167.216 68.1159C167.37 68.2769 168.302 67.5863 169.626 67.5863C170.948 67.5704 171.921 68.2514 172.067 68.0894C172.138 68.0174 171.98 67.7272 171.559 67.42C170.986 67.0231 170.304 66.8133 169.607 66.8195C168.918 66.8168 168.245 67.033 167.687 67.437C167.279 67.7537 167.141 68.0439 167.216 68.1159Z" fill="#263238"/>
    <path d="M180.966 70.2529C180.963 70.5737 181.085 70.8827 181.307 71.1144C181.529 71.346 181.832 71.4819 182.152 71.4932C182.306 71.5058 182.463 71.4879 182.61 71.4404C182.757 71.3929 182.893 71.3168 183.011 71.2165C183.129 71.1162 183.227 70.9935 183.297 70.8556C183.368 70.7178 183.41 70.5672 183.422 70.4128C183.423 70.4036 183.423 70.3945 183.422 70.3853C183.425 70.0645 183.303 69.7554 183.081 69.5236C182.86 69.2917 182.556 69.1555 182.236 69.144C182.082 69.1315 181.926 69.1496 181.779 69.1972C181.632 69.2448 181.495 69.321 181.377 69.4214C181.259 69.5218 181.162 69.6446 181.092 69.7825C181.021 69.9205 180.979 70.0709 180.967 70.2253C180.966 70.2359 180.966 70.2455 180.966 70.2529Z" fill="#263238"/>
    <path d="M180.24 68.3626C180.394 68.5225 181.327 67.833 182.652 67.833C183.975 67.8171 184.948 68.4981 185.092 68.3361C185.163 68.263 185.009 67.9738 184.585 67.6677C184.012 67.2706 183.33 67.0604 182.632 67.066C181.944 67.064 181.272 67.2807 180.714 67.6847C180.304 68.0056 180.165 68.2905 180.24 68.3626Z" fill="#263238"/>
    <path d="M175.429 78.1725C174.731 77.9538 174.01 77.8236 173.28 77.7849C172.94 77.7499 172.62 77.6788 172.563 77.4522C172.533 77.1031 172.611 76.7535 172.787 76.4503L173.788 73.8787C174.718 71.7009 175.469 69.4508 176.034 67.1509C174.933 69.2503 174.002 71.4345 173.25 73.6827C172.917 74.5851 172.599 75.4476 172.297 76.2702C172.083 76.6772 172.02 77.1474 172.121 77.5962C172.17 77.7155 172.246 77.822 172.342 77.9075C172.439 77.9931 172.554 78.0554 172.678 78.0898C172.865 78.1404 173.057 78.167 173.251 78.1692C173.974 78.2623 174.706 78.2634 175.429 78.1725Z" fill="#263238"/>
    <path d="M174.52 93.8266C179.039 93.8952 183.49 92.71 187.378 90.4023C187.378 90.4023 184.258 96.9871 174.649 96.09L174.52 93.8266Z" fill="#EB996E"/>
    <path d="M175.992 81.3608C176.245 81.0438 176.573 80.7963 176.948 80.6414C177.322 80.4865 177.73 80.4294 178.133 80.4754C178.425 80.5017 178.708 80.5866 178.966 80.7253C179.224 80.864 179.452 81.0535 179.636 81.2824C179.813 81.5026 179.918 81.7722 179.937 82.0543C179.956 82.3365 179.887 82.6176 179.741 82.8595C179.528 83.0977 179.249 83.2666 178.939 83.3448C178.629 83.4229 178.303 83.4066 178.003 83.298C177.377 83.077 176.801 82.7339 176.309 82.2886C176.159 82.1833 176.031 82.0507 175.93 81.8977C175.881 81.8248 175.855 81.7392 175.855 81.6516C175.855 81.564 175.881 81.4782 175.93 81.4053" fill="#EB996E"/>
    <path d="M179.327 79.0876C179.108 79.0748 179.109 80.511 177.878 81.5299C176.647 82.5488 175.115 82.391 175.105 82.589C175.084 82.6791 175.446 82.8687 176.093 82.8856C176.936 82.8973 177.756 82.612 178.409 82.0796C179.035 81.569 179.437 80.8342 179.531 80.0313C179.589 79.4349 179.432 79.0791 179.327 79.0876Z" fill="#263238"/>
    <path d="M179.646 66.0471C179.776 66.4093 181.099 66.2367 182.654 66.4231C184.213 66.5788 185.464 67.0332 185.672 66.7133C185.765 66.5587 185.547 66.2208 185.037 65.8723C184.36 65.4455 183.595 65.1783 182.8 65.0907C182.005 65.0032 181.199 65.0978 180.446 65.3672C179.874 65.5949 179.588 65.8766 179.646 66.0471Z" fill="#263238"/>
    <path d="M167.703 64.289C167.937 64.5888 168.848 64.2774 169.949 64.2625C171.045 64.2085 171.978 64.4638 172.189 64.1503C172.285 63.9978 172.138 63.6959 171.732 63.4088C171.186 63.0677 170.551 62.8963 169.908 62.9161C169.264 62.9359 168.642 63.146 168.118 63.52C167.728 63.8314 167.602 64.1397 167.703 64.289Z" fill="#263238"/>
    <path d="M195.316 71.704C195.706 71.4917 196.146 71.3911 196.589 71.4131C197.032 71.4352 197.461 71.5791 197.827 71.8291C198.712 72.3467 199.39 73.1544 199.748 74.1155C200.106 75.0765 200.122 76.1318 199.792 77.1027C199.461 78.0737 198.806 78.9006 197.937 79.4436C197.067 79.9865 196.037 80.212 195.021 80.082" fill="#FFBE9D"/>
    <path d="M180.219 48.6557C176.953 48.8207 173.782 49.804 170.995 51.5153C169.438 52.32 168.054 53.4243 166.924 54.7648C165.793 56.1054 164.939 57.6559 164.408 59.3277C164.274 59.6738 164.211 60.0439 164.224 60.4151C164.238 60.7863 164.326 61.1509 164.486 61.4863C164.791 61.8722 165.221 62.1397 165.701 62.2433C166.181 62.3469 166.682 62.28 167.119 62.054C167.98 61.5772 168.714 60.9009 169.26 60.0818C169.492 60.9698 170.013 61.7547 170.742 62.3117C171.47 62.8687 172.364 63.1658 173.281 63.1557C174.198 63.1456 175.084 62.8289 175.8 62.256C176.516 61.683 177.02 60.8867 177.232 59.9939C177.31 60.9135 177.739 61.7682 178.428 62.3814C179.117 62.9946 180.014 63.3193 180.936 63.2889C181.856 63.2088 182.733 62.8616 183.459 62.2896C184.185 61.7176 184.729 60.9459 185.023 60.0691C185.252 61.73 185.827 63.3242 186.71 64.7485C187.168 65.4524 187.83 65.9992 188.608 66.3152C189.385 66.6313 190.24 66.7015 191.059 66.5163C190.713 67.927 190.735 69.4027 191.121 70.8027C191.34 71.4937 191.809 72.0786 192.434 72.4445C193.06 72.8105 193.798 72.9316 194.507 72.7843C195.837 72.3278 196.353 70.7539 196.665 69.3855C197.347 66.7619 197.694 64.0618 197.694 61.3507C197.782 58.5564 196.874 55.8219 195.132 53.6365C193.391 51.451 190.928 49.9573 188.187 49.4225C185.447 48.7938 182.635 48.5383 179.827 48.663" fill="#263238"/>
    <path d="M195.988 77.2224C196.013 77.1546 196.36 77.3039 196.824 77.091C197.106 76.9283 197.334 76.6866 197.48 76.3956C197.626 76.1046 197.684 75.777 197.646 75.4535C197.643 75.1256 197.545 74.8056 197.363 74.5327C197.181 74.2598 196.924 74.0458 196.622 73.9168C196.142 73.7198 195.788 73.8108 195.768 73.742C195.735 73.6954 196.094 73.4401 196.728 73.582C197.095 73.6715 197.424 73.8764 197.667 74.1667C197.958 74.5251 198.125 74.968 198.143 75.4292C198.191 75.8477 198.099 76.2702 197.882 76.6309C197.664 76.9915 197.334 77.2699 196.942 77.4225C196.29 77.593 195.936 77.2616 195.988 77.2224Z" fill="#EB996E"/>
    <path d="M196.272 81.2491C196.964 81.2491 197.524 80.6896 197.524 79.9993C197.524 79.3091 196.964 78.7495 196.272 78.7495C195.581 78.7495 195.021 79.3091 195.021 79.9993C195.021 80.6896 195.581 81.2491 196.272 81.2491Z" fill="#E8505B"/>
    <path d="M188.898 45.5989C189.4 45.4287 189.931 45.3679 190.458 45.4209C191.738 45.4809 192.987 45.8465 194.097 46.4871C195.208 47.1278 196.149 48.0249 196.843 49.1036C197.153 49.5332 197.367 50.0244 197.47 50.5441C197.408 50.5705 197.175 50.0145 196.624 49.254C195.9 48.26 194.975 47.429 193.91 46.8148C192.845 46.2005 191.664 45.8166 190.441 45.6879C189.499 45.5925 188.907 45.6646 188.898 45.5989Z" fill="#E8505B"/>
    <path d="M193.919 45.6043C193.891 45.5059 193.879 45.4035 193.885 45.3014C193.89 45.0079 193.953 44.7182 194.069 44.4487C194.304 43.9572 194.651 43.5275 195.081 43.1939C195.512 42.8603 196.014 42.6321 196.548 42.5274C197.349 42.3995 198.169 42.4851 198.925 42.7758C199.682 43.0665 200.348 43.5519 200.858 44.1829C201.491 44.8782 202.017 45.6633 202.42 46.513C202.843 47.3836 203.193 48.3264 203.561 49.2669C203.898 50.1869 204.31 51.0774 204.794 51.9295C205.249 52.7077 205.839 53.3982 206.537 53.9684C207.159 54.4853 207.909 54.8267 208.707 54.9577C209.403 55.0583 210.112 54.9591 210.754 54.6717C211.699 54.2473 212.464 53.5023 212.913 52.5682C213.052 52.213 213.17 51.8498 213.266 51.4805C213.281 51.5811 213.279 51.6835 213.26 51.7834C213.225 52.0736 213.154 52.3582 213.048 52.6307C212.628 53.6367 211.851 54.4512 210.866 54.9164C210.182 55.2436 209.418 55.3661 208.666 55.2691C207.807 55.1448 206.999 54.7906 206.325 54.2438C205.586 53.6554 204.96 52.9377 204.477 52.1255C203.978 51.2574 203.553 50.3485 203.207 49.4087C202.662 47.5963 201.777 45.9045 200.599 44.4234C200.132 43.8271 199.518 43.363 198.817 43.0772C198.116 42.7913 197.352 42.6935 196.601 42.7933C196.097 42.881 195.62 43.0813 195.204 43.3793C194.788 43.6773 194.446 44.0653 194.201 44.5144C194.051 44.8607 193.955 45.2285 193.919 45.6043Z" fill="#455A64"/>
    <path d="M175.829 60.4069C175.815 60.4069 175.796 60.3191 175.767 60.1433C175.722 59.889 175.693 59.6321 175.679 59.3743C175.615 58.4227 175.675 57.4669 175.856 56.5305C176.121 55.1352 176.617 53.7942 177.324 52.5629C178.194 51.0483 179.38 49.7396 180.801 48.7266C182.229 47.7322 183.829 47.0107 185.519 46.5987C186.89 46.242 188.307 46.097 189.721 46.1687C190.674 46.2075 191.617 46.3783 192.523 46.676C192.769 46.7547 193.008 46.8503 193.241 46.962C193.402 47.0351 193.483 47.0797 193.479 47.0913C192.257 46.7088 190.99 46.4873 189.711 46.4324C188.326 46.4002 186.944 46.5686 185.607 46.9324C183.964 47.3539 182.411 48.0662 181.02 49.0359C179.642 50.0206 178.486 51.2834 177.626 52.7429C176.924 53.9364 176.416 55.2337 176.12 56.5866C175.883 57.8455 175.785 59.1266 175.829 60.4069Z" fill="#455A64"/>
    <path d="M181.877 59.7618C181.833 59.5172 181.824 59.2673 181.853 59.0203C181.884 58.3423 181.977 57.6686 182.132 57.0079C182.632 54.7975 183.707 52.7585 185.247 51.0969C186.787 49.4353 188.738 48.2099 190.903 47.5444C191.551 47.3394 192.216 47.1937 192.891 47.109C193.135 47.0614 193.385 47.0506 193.632 47.0772C193.644 47.1492 192.58 47.235 190.986 47.7943C188.9 48.5085 187.023 49.729 185.523 51.3466C184.023 52.9642 182.947 54.9286 182.391 57.0641C181.954 58.6994 181.95 59.7671 181.877 59.7618Z" fill="#455A64"/>
    <path d="M180.22 116.383C178.125 109.952 172.996 103.401 167.364 105.765C161.094 108.395 159.352 111.728 155.916 116.894C152.48 122.059 150.373 127.969 148.297 133.815C147.485 136.1 146.704 138.753 147.946 140.835C149.021 142.635 151.226 143.341 153.253 143.881C158.474 145.271 163.743 146.46 169.062 147.45C171.193 147.848 173.531 148.179 175.411 147.109C177.802 145.75 178.532 142.707 179.034 140.002L184.282 111.535" fill="#E8505B"/>
    <path d="M174.19 102.679L165.943 106.239C161.774 109.522 160.595 115.151 160.737 120.454L157.31 179.543C157.31 179.543 190.324 197.607 208.064 174.747C208.796 174.341 204.772 164.194 204.772 164.194L212.429 135.173C213.018 131 213.382 122.348 212.291 118.241C209.5 107.707 202.036 104.557 194.37 102.447C194.37 102.447 186.701 108.887 179.222 107.531C179.221 107.529 174.655 107.104 174.19 102.679Z" fill="#E8505B"/>
    <g opacity="0.2">
        <g opacity="0.2">
            <g opacity="0.2">
                <path opacity="0.2" d="M163.114 151.071L177.387 171.776C179.248 174.475 181.182 177.245 183.948 179.011C185.968 180.303 188.32 180.978 190.717 180.953C193.114 180.928 195.453 180.205 197.446 178.872C199.439 177.538 201 175.653 201.94 173.446C202.879 171.238 203.156 168.804 202.736 166.442C202.676 165.877 202.456 165.341 202.102 164.897C201.776 164.606 201.377 164.41 200.949 164.328C200.52 164.246 200.078 164.281 199.668 164.431C198.856 164.741 198.076 165.131 197.34 165.596C192.858 167.977 187.166 166.697 182.961 163.855C178.756 161.014 175.675 156.844 172.454 152.918C171.377 151.368 169.909 150.131 168.2 149.331C166.439 148.683 164.101 149.212 163.356 150.936" fill="black"/>
            </g>
        </g>
    </g>
    <path d="M187.154 122.59C189.876 122.59 192.082 120.387 192.082 117.67C192.082 114.953 189.876 112.75 187.154 112.75C184.433 112.75 182.227 114.953 182.227 117.67C182.227 120.387 184.433 122.59 187.154 122.59Z" fill="white"/>
    <path d="M164.186 113.472C164.186 114.78 164.704 116.035 165.628 116.959C166.552 117.884 167.805 118.404 169.112 118.404C170.418 118.404 171.672 117.884 172.596 116.959C173.52 116.035 174.039 114.78 174.039 113.472C174.039 112.165 173.52 110.91 172.596 109.985C171.672 109.061 170.418 108.541 169.112 108.541C167.805 108.541 166.552 109.061 165.628 109.985C164.704 110.91 164.186 112.165 164.186 113.472Z" fill="white"/>
    <path d="M160.209 160.582C160.206 161.558 160.494 162.513 161.034 163.326C161.574 164.139 162.343 164.773 163.243 165.148C164.143 165.523 165.134 165.623 166.091 165.434C167.048 165.245 167.927 164.776 168.617 164.086C169.308 163.397 169.778 162.518 169.969 161.561C170.16 160.604 170.064 159.611 169.691 158.709C169.318 157.807 168.686 157.036 167.876 156.494C167.065 155.951 166.111 155.662 165.136 155.662C163.831 155.661 162.58 156.179 161.656 157.101C160.732 158.024 160.211 159.276 160.209 160.582Z" fill="white"/>
    <path d="M174.042 179.666C176.764 179.666 178.97 177.463 178.97 174.746C178.97 172.029 176.764 169.826 174.042 169.826C171.321 169.826 169.114 172.029 169.114 174.746C169.114 177.463 171.321 179.666 174.042 179.666Z" fill="white"/>
    <path d="M197.01 180.86C199.731 180.86 201.938 178.657 201.938 175.94C201.938 173.223 199.731 171.02 197.01 171.02C194.288 171.02 192.082 173.223 192.082 175.94C192.082 178.657 194.288 180.86 197.01 180.86Z" fill="white"/>
    <path d="M177.551 150.569C180.272 150.569 182.479 148.366 182.479 145.649C182.479 142.932 180.272 140.729 177.551 140.729C174.829 140.729 172.623 142.932 172.623 145.649C172.623 148.366 174.829 150.569 177.551 150.569Z" fill="white"/>
    <path d="M172.623 135.057C175.345 135.057 177.551 132.855 177.551 130.138C177.551 127.42 175.345 125.218 172.623 125.218C169.902 125.218 167.695 127.42 167.695 130.138C167.695 132.855 169.902 135.057 172.623 135.057Z" fill="white"/>
    <path d="M172.622 103.874C173.281 105.056 174.141 106.115 175.162 107.002C176.292 107.931 177.589 108.635 178.982 109.077C180.686 109.625 182.487 109.808 184.266 109.615C186.045 109.39 187.774 108.866 189.38 108.066C190.697 107.414 191.942 106.627 193.096 105.718C193.879 105.106 194.63 104.455 195.347 103.768C195.598 103.5 195.868 103.253 196.157 103.026C195.951 103.332 195.715 103.616 195.451 103.874C194.768 104.607 194.038 105.293 193.263 105.928C192.116 106.882 190.866 107.704 189.536 108.379C187.901 109.216 186.134 109.762 184.311 109.992C182.48 110.192 180.625 109.994 178.877 109.412C177.448 108.943 176.127 108.194 174.989 107.21C174.223 106.548 173.577 105.76 173.077 104.88C172.938 104.644 172.818 104.398 172.715 104.144C172.67 104.059 172.638 103.968 172.622 103.874Z" fill="#263238"/>
    <path d="M197.452 103.538C203.086 105.896 208.952 108.42 212.844 113.123C216.799 117.902 218.177 124.397 217.89 130.591C217.604 136.785 215.801 142.796 214.013 148.733C213.312 151.054 212.373 153.657 210.137 154.602C208.207 155.417 206.01 154.686 204.051 153.926C199.017 151.965 194.063 149.814 189.188 147.471C187.23 146.533 185.153 145.421 184.265 143.447C183.14 140.937 184.354 138.052 185.552 135.577C189.763 126.892 193.972 118.207 198.18 109.522" fill="#E8505B"/>
    <path d="M209.475 138.513C212.196 138.513 214.403 136.31 214.403 133.593C214.403 130.876 212.196 128.673 209.475 128.673C206.753 128.673 204.547 130.876 204.547 133.593C204.547 136.31 206.753 138.513 209.475 138.513Z" fill="white"/>
    <path d="M196.424 147.508C199.146 147.508 201.352 145.305 201.352 142.588C201.352 139.871 199.146 137.668 196.424 137.668C193.702 137.668 191.496 139.871 191.496 142.588C191.496 145.305 193.702 147.508 196.424 147.508Z" fill="white"/>
    <path d="M197.729 118.438C197.731 119.719 198.241 120.946 199.147 121.851C200.053 122.756 201.281 123.263 202.56 123.262C203.84 123.263 205.069 122.756 205.975 121.851C206.881 120.946 207.39 119.719 207.392 118.438C207.391 117.157 206.881 115.929 205.975 115.024C205.069 114.119 203.84 113.612 202.56 113.613C201.927 113.612 201.3 113.736 200.714 113.978C200.128 114.22 199.595 114.575 199.146 115.023C198.698 115.471 198.342 116.003 198.098 116.589C197.855 117.174 197.73 117.802 197.729 118.437V118.438Z" fill="white"/>
    <path d="M187.715 146.713L186.458 151.557L161.419 133.29L153.752 122.38C152.725 120.92 151.173 119.914 149.421 119.573C148.502 119.393 147.556 119.403 146.64 119.6C145.723 119.797 144.856 120.179 144.091 120.721L136.959 125.789C136.959 125.789 137.151 129.632 138.884 128.86C140.617 128.088 144.083 126.168 144.083 126.168L145.046 135.398L149.285 138.47L153.518 141.738L181.791 169.829C183.207 171.235 184.934 172.285 186.833 172.893C188.732 173.502 190.747 173.651 192.715 173.33C194.683 173.009 196.546 172.226 198.154 171.046C199.761 169.865 201.065 168.32 201.962 166.537L206.151 154.631L187.715 146.713Z" fill="#FFBE9D"/>
    <path d="M185.825 150.866C186.233 150.971 186.6 151.197 186.877 151.514C187.594 152.228 188.1 153.127 188.34 154.11C188.573 155.076 188.665 156.071 188.613 157.063C188.634 157.474 188.584 157.885 188.466 158.278C188.371 157.881 188.33 157.473 188.346 157.064C188.321 156.101 188.198 155.143 187.976 154.205C187.746 153.281 187.305 152.423 186.687 151.699C186.202 151.153 185.793 150.92 185.825 150.866Z" fill="#EB996E"/>
    <path d="M144.041 126.653C144 126.627 144.121 126.335 144.415 125.905C144.798 125.322 145.353 124.873 146.002 124.619C146.343 124.502 146.71 124.476 147.064 124.544C147.418 124.612 147.748 124.772 148.021 125.008C148.432 125.402 148.416 125.791 148.377 125.786C148.316 125.807 148.233 125.487 147.848 125.214C147.597 125.045 147.312 124.936 147.013 124.895C146.714 124.854 146.409 124.882 146.122 124.976C145.539 125.214 145.023 125.59 144.619 126.073C144.289 126.439 144.087 126.68 144.041 126.653Z" fill="#EB996E"/>
    <path d="M148.524 129.116C148.48 129.154 148.29 128.982 147.947 128.79C147.51 128.534 147.012 128.4 146.505 128.402C145.999 128.404 145.502 128.543 145.067 128.802C144.724 128.996 144.538 129.169 144.494 129.132C144.451 129.095 144.58 128.857 144.918 128.582C145.37 128.224 145.928 128.029 146.503 128.026C147.079 128.024 147.638 128.215 148.093 128.569C148.434 128.842 148.558 129.087 148.524 129.116Z" fill="#EB996E"/>
    <path d="M187.712 146.713C187.546 146.703 187.383 146.664 187.23 146.598C186.783 146.419 186.394 146.122 186.102 145.74C185.638 145.132 185.353 144.408 185.277 143.648C185.208 142.642 185.39 141.636 185.806 140.718C186.218 139.689 186.833 138.653 187.359 137.493C187.919 136.252 188.398 134.976 188.793 133.674C189.652 130.92 190.274 127.804 191.137 124.572C191.873 121.497 193.109 118.562 194.794 115.887C196.209 113.701 198.2 111.949 200.547 110.824C202.123 110.06 203.867 109.706 205.616 109.795C206.252 109.823 206.883 109.942 207.485 110.151C207.474 110.197 206.822 109.986 205.609 109.939C203.894 109.908 202.197 110.294 200.663 111.063C198.383 112.198 196.454 113.932 195.084 116.079C193.438 118.731 192.228 121.631 191.501 124.668C190.641 127.88 190.01 131.006 189.126 133.777C188.72 135.09 188.225 136.374 187.645 137.62C187.099 138.796 186.472 139.818 186.058 140.817C185.643 141.692 185.448 142.656 185.491 143.623C185.547 144.351 185.798 145.05 186.219 145.646C186.488 146.022 186.847 146.324 187.263 146.523C187.548 146.664 187.719 146.691 187.712 146.713Z" fill="#263238"/>
    <path d="M159.927 130.966C160.007 128.859 160.214 126.759 160.547 124.678C160.967 124.708 161.378 124.822 161.754 125.014C162.13 125.205 162.464 125.47 162.735 125.793C163.007 126.116 163.212 126.49 163.337 126.893C163.462 127.296 163.504 127.72 163.463 128.14C163.421 128.561 163.296 128.968 163.095 129.339C162.894 129.71 162.62 130.037 162.29 130.3C161.96 130.564 161.582 130.758 161.176 130.873C160.77 130.987 160.345 131.019 159.927 130.966Z" fill="#263238"/>
    <path d="M148.664 141.738L147.335 152.209L131.38 138.599L122.654 140.708C122.654 140.708 131.648 159.617 138.758 167.107C145.868 174.598 149.7 175.665 152.38 175.779C156.064 175.941 157.751 171.446 157.751 171.446L159.357 145.418L148.664 141.738Z" fill="#FFBE9D"/>
    <path d="M147.396 151.93C148.387 153.565 148.904 155.445 148.892 157.358C148.409 155.544 147.911 153.734 147.396 151.93Z" fill="#EB996E"/>
    <path d="M129.839 112.055H117.828C117.375 112.078 116.933 112.203 116.534 112.419C116.135 112.635 115.79 112.938 115.522 113.305C115.255 113.672 115.074 114.095 114.99 114.541C114.907 114.987 114.924 115.447 115.041 115.886L127.12 139.432C127.35 139.879 127.699 140.255 128.128 140.516C128.558 140.778 129.051 140.916 129.553 140.914L144.194 140.884C144.468 140.853 144.733 140.768 144.973 140.634C145.214 140.5 145.426 140.32 145.597 140.104C145.769 139.888 145.896 139.641 145.972 139.376C146.047 139.111 146.07 138.834 146.039 138.56C146.008 138.286 145.924 138.022 145.79 137.781L134.136 114.73C133.742 113.926 133.13 113.249 132.37 112.776C131.611 112.303 130.733 112.053 129.839 112.055Z" fill="#455A64"/>
    <path d="M129.027 113.472H117.015C116.671 113.472 116.334 113.56 116.034 113.728C115.733 113.896 115.481 114.139 115.301 114.432C115.121 114.726 115.019 115.06 115.005 115.404C114.992 115.748 115.067 116.09 115.224 116.397L127.014 139.432C127.244 139.879 127.593 140.254 128.023 140.516C128.452 140.778 128.945 140.916 129.448 140.914H143.923C144.125 140.915 144.323 140.863 144.5 140.765C144.676 140.667 144.824 140.525 144.931 140.353C145.037 140.181 145.097 139.985 145.106 139.783C145.115 139.581 145.072 139.38 144.981 139.2L133.326 116.148C132.931 115.344 132.32 114.667 131.56 114.194C130.8 113.721 129.922 113.47 129.027 113.472Z" fill="#263238"/>
    <path d="M128.007 123.114L120.701 126.038L119.135 131.933L122.654 140.708L135.57 142.588L131.786 138.719L132.274 135.35C132.274 135.35 135.877 134.218 135.969 133.667C136.061 133.115 135.522 131.265 134.969 131.176C133.492 131.496 132.043 131.937 130.638 132.494C130.638 132.494 135.111 128.95 134.985 128.379C134.86 127.808 134.379 126.354 133.486 126.193C132.593 126.032 125.376 129.436 125.376 129.436L124.204 132.111L123.181 127.832C123.181 127.832 129.592 126.033 128.007 123.114Z" fill="#FFBE9D"/>
    <path d="M128.927 136.936C128.884 136.949 128.745 136.682 128.679 136.211C128.605 135.587 128.68 134.954 128.897 134.365C129.115 133.776 129.469 133.247 129.931 132.822C130.295 132.504 130.566 132.391 130.594 132.429C130.045 133.047 129.591 133.745 129.25 134.498C129.019 135.29 128.91 136.112 128.927 136.936Z" fill="#EB996E"/>
    <path d="M125.454 135.658C125.589 135.025 125.686 134.385 125.743 133.741C125.775 133.022 125.899 132.31 126.111 131.622C126.254 131.201 126.483 130.815 126.785 130.489C127.125 130.156 127.532 129.9 127.979 129.737C129.727 129.101 131.302 128.589 132.453 128.214C133.063 127.98 133.694 127.806 134.338 127.693C133.765 128.009 133.162 128.267 132.539 128.465C131.416 128.9 129.833 129.462 128.12 130.085C127.721 130.227 127.356 130.451 127.049 130.743C126.779 131.03 126.571 131.369 126.438 131.74C126.221 132.399 126.078 133.08 126.014 133.77C125.991 134.437 125.798 135.087 125.454 135.658Z" fill="#EB996E"/>
    <path d="M123.778 134.336C123.672 134.319 123.697 133.673 123.826 132.893C123.955 132.114 124.144 131.496 124.249 131.517C124.355 131.537 124.332 132.179 124.203 132.959C124.074 133.739 123.882 134.353 123.778 134.336Z" fill="#EB996E"/>
    <path d="M123.582 117.919C123.582 118.222 123.671 118.519 123.839 118.771C124.008 119.023 124.247 119.22 124.527 119.336C124.806 119.452 125.114 119.483 125.411 119.423C125.708 119.364 125.981 119.218 126.195 119.004C126.41 118.789 126.556 118.516 126.615 118.219C126.674 117.922 126.643 117.613 126.527 117.333C126.411 117.053 126.215 116.814 125.963 116.646C125.711 116.477 125.414 116.387 125.111 116.388C124.706 116.388 124.317 116.549 124.031 116.837C123.744 117.124 123.582 117.513 123.582 117.919Z" fill="#FAFAFA"/>
    <path d="M153.521 141.748C153.683 141.848 153.833 141.968 153.967 142.103L155.166 143.175L159.382 147.077L159.439 147.129L159.431 147.208C159.241 149.649 159.018 152.522 158.781 155.593C158.45 160.091 158.189 164.166 158.048 167.118C157.983 168.547 157.93 169.729 157.891 170.613C157.894 171.043 157.865 171.471 157.804 171.896C157.752 171.47 157.732 171.04 157.743 170.611C157.731 169.784 157.743 168.585 157.78 167.107C157.856 164.149 158.071 160.066 158.404 155.562C158.631 152.478 158.877 149.599 159.111 147.175L159.162 147.308L155.035 143.308L153.9 142.171C153.758 142.045 153.63 141.903 153.521 141.748Z" fill="#EB996E"/>
    <path d="M56.6262 186.203L45.9847 209.939C45.9847 209.939 15.308 210.57 6.67871 188.061L9.62379 183.302L56.6262 186.203Z" fill="#FFBE9D"/>
</svg>
