<svg width="50" height="50" viewBox="0 0 50 50" fill="none" xmlns="http://www.w3.org/2000/svg">
<path fill-rule="evenodd" clip-rule="evenodd" d="M25.6362 34.806C24.9882 34.4498 24.2049 34.456 23.5737 34.8331L15.7653 39.4165L18.8237 27.5206C20.6466 28.5623 22.7528 29.1665 24.9987 29.1665C27.2445 29.1665 29.3507 28.5623 31.1757 27.5206L34.2778 39.5873L25.6362 34.806ZM24.9988 8.33317C29.5946 8.33317 33.3321 12.0707 33.3321 16.6665C33.3321 21.2623 29.5946 24.9998 24.9988 24.9998C20.403 24.9998 16.6655 21.2623 16.6655 16.6665C16.6655 12.0707 20.403 8.33317 24.9988 8.33317ZM39.5175 43.2311L34.7071 24.5248C36.4488 22.3748 37.4988 19.6436 37.4988 16.6665C37.4988 9.77275 31.8925 4.1665 24.9988 4.1665C18.1071 4.1665 12.4988 9.77275 12.4988 16.6665C12.4988 19.6436 13.5488 22.3748 15.2904 24.5248L10.4821 43.2311C10.2717 44.0478 10.5738 44.9082 11.2467 45.4144C11.9175 45.9207 12.83 45.9665 13.5529 45.5457L24.6571 39.0269L36.4904 45.5728C36.805 45.7478 37.1529 45.8332 37.4988 45.8332C37.9508 45.8332 38.4008 45.6873 38.7758 45.3978C39.4321 44.8894 39.7258 44.0373 39.5175 43.2311Z" fill="#FF5364"/>
<mask id="mask0" mask-type="alpha" maskUnits="userSpaceOnUse" x="10" y="4" width="30" height="42">
<path fill-rule="evenodd" clip-rule="evenodd" d="M25.6362 34.806C24.9882 34.4498 24.2049 34.456 23.5737 34.8331L15.7653 39.4165L18.8237 27.5206C20.6466 28.5623 22.7528 29.1665 24.9987 29.1665C27.2445 29.1665 29.3507 28.5623 31.1757 27.5206L34.2778 39.5873L25.6362 34.806ZM24.9988 8.33317C29.5946 8.33317 33.3321 12.0707 33.3321 16.6665C33.3321 21.2623 29.5946 24.9998 24.9988 24.9998C20.403 24.9998 16.6655 21.2623 16.6655 16.6665C16.6655 12.0707 20.403 8.33317 24.9988 8.33317ZM39.5175 43.2311L34.7071 24.5248C36.4488 22.3748 37.4988 19.6436 37.4988 16.6665C37.4988 9.77275 31.8925 4.1665 24.9988 4.1665C18.1071 4.1665 12.4988 9.77275 12.4988 16.6665C12.4988 19.6436 13.5488 22.3748 15.2904 24.5248L10.4821 43.2311C10.2717 44.0478 10.5738 44.9082 11.2467 45.4144C11.9175 45.9207 12.83 45.9665 13.5529 45.5457L24.6571 39.0269L36.4904 45.5728C36.805 45.7478 37.1529 45.8332 37.4988 45.8332C37.9508 45.8332 38.4008 45.6873 38.7758 45.3978C39.4321 44.8894 39.7258 44.0373 39.5175 43.2311Z" fill="white"/>
</mask>
<g mask="url(#mask0)">
<rect width="50" height="50" fill="#FF5364"/>
</g>
</svg>
