<svg width="500" height="304" viewBox="0 0 500 304" fill="none" xmlns="http://www.w3.org/2000/svg">
    <path d="M473.108 144.618C460.507 126.052 433.802 116.105 433.11 88.28C432.659 70.2003 440.435 60.4021 427.991 44.9675C397.913 7.66451 351.56 3.29173 311.983 18.8774C272.418 34.4564 240.801 65.6854 196.812 63.8022C172.858 62.7762 150.601 50.7794 126.889 48.5275C119.584 47.8346 112.758 48.4297 106.374 50.1553C82.4466 56.6245 61.3199 80.9135 53.3647 107.899C46.9166 129.774 55.1559 151.369 45.0299 172.789C34.2379 195.621 12.9825 211.48 7.62645 237.838C1.19833 269.476 18.4362 275.261 43.647 283.074C60.9515 288.435 101.003 293.419 115.266 282.486C132.635 269.174 148.745 270.447 168.993 270.957C207.526 271.928 246.055 281.078 284.091 287.593C316.682 293.177 358.738 273.664 391.769 274.715C416.025 275.486 426.68 303.61 439.807 275.805C455.495 242.569 499.535 183.559 473.108 144.618Z" fill="url(#paint0_linear)"/>
    <path d="M424.819 99.0627L421.066 257.986L420.482 282.593C420.482 285.804 417.849 288.434 414.638 288.434H98.8116C95.602 288.434 92.9673 285.804 92.9673 282.593L92.6099 257.986L90.3414 101.004C90.3414 97.7924 94.1237 91.523 101.053 91.996L409.717 84.0033C413.745 83.9034 417.645 85.4513 420.5 88.3006C423.352 91.1455 424.915 95.0363 424.819 99.0627Z" fill="url(#paint1_linear)"/>
    <path d="M412.762 277.627C412.762 280.623 410.259 283.074 407.198 283.074H106.337C103.276 283.074 100.772 280.623 100.772 277.627L98.2682 108.163C98.2682 105.167 101.871 99.3178 108.47 99.7575L402.505 92.3001C406.345 92.2023 410.057 93.6503 412.776 96.3064C415.495 98.9625 416.982 102.594 416.891 106.353L412.762 277.627Z" fill="url(#paint2_linear)"/>
    <path d="M407.018 283.492H373.208C373.086 283.492 372.986 283.392 372.986 283.27C372.986 283.148 373.086 283.048 373.208 283.048H407.018C411.473 283.048 415.097 279.341 415.097 274.784V171.237C415.097 171.115 415.197 171.015 415.319 171.015C415.442 171.015 415.541 171.115 415.541 171.237V274.784C415.541 279.586 411.717 283.492 407.018 283.492Z" fill="white"/>
    <path d="M98.537 170.501C98.4149 170.501 98.3151 170.401 98.3151 170.279V109.94C98.3151 103.753 103.158 98.718 109.114 98.718H135.863C135.985 98.718 136.085 98.818 136.085 98.9401C136.085 99.0622 135.985 99.1622 135.863 99.1622H109.114C103.405 99.1622 98.759 103.997 98.759 109.94V170.279C98.759 170.404 98.6591 170.501 98.537 170.501Z" fill="white"/>
    <path d="M174.143 167.029C174.143 163.8 171.526 161.184 168.301 161.184H129.261C126.034 161.184 123.419 163.802 123.419 167.029V196.512C123.419 199.742 126.036 202.358 129.261 202.358H168.298C171.526 202.358 174.141 199.739 174.141 196.512V167.029H174.143Z" fill="url(#paint3_linear)"/>
    <path opacity="0.8" d="M154.183 188.695H142.419C141.318 188.695 140.421 187.798 140.421 186.696V177.32C140.421 176.218 141.318 175.321 142.419 175.321H154.183C155.284 175.321 156.181 176.218 156.181 177.32V186.696C156.181 187.8 155.284 188.695 154.183 188.695ZM142.421 175.77C141.565 175.77 140.868 176.467 140.868 177.324V186.701C140.868 187.558 141.565 188.255 142.421 188.255H154.185C155.042 188.255 155.739 187.558 155.739 186.701V177.324C155.739 176.467 155.042 175.77 154.185 175.77H142.421Z" fill="white"/>
    <path d="M140.646 179.121H123.419C123.297 179.121 123.197 179.021 123.197 178.899C123.197 178.777 123.297 178.677 123.419 178.677H140.646C140.768 178.677 140.868 178.777 140.868 178.899C140.868 179.021 140.768 179.121 140.646 179.121Z" fill="white"/>
    <path d="M140.646 182.95H123.419C123.297 182.95 123.197 182.85 123.197 182.728C123.197 182.606 123.297 182.506 123.419 182.506H140.646C140.768 182.506 140.868 182.606 140.868 182.728C140.868 182.852 140.768 182.95 140.646 182.95Z" fill="white"/>
    <path d="M174.143 179.121H155.959C155.837 179.121 155.737 179.021 155.737 178.899C155.737 178.777 155.837 178.677 155.959 178.677H174.143C174.265 178.677 174.365 178.777 174.365 178.899C174.365 179.021 174.265 179.121 174.143 179.121Z" fill="white"/>
    <path d="M174.143 182.95H155.959C155.837 182.95 155.737 182.85 155.737 182.728C155.737 182.606 155.837 182.506 155.959 182.506H174.143C174.265 182.506 174.365 182.606 174.365 182.728C174.365 182.852 174.265 182.95 174.143 182.95Z" fill="white"/>
    <path d="M143.512 176.01C143.412 176.01 143.321 175.941 143.296 175.839L139.858 161.313C139.829 161.193 139.903 161.073 140.022 161.046C140.14 161.017 140.262 161.091 140.289 161.211L143.727 175.737C143.756 175.857 143.68 175.977 143.563 176.003C143.547 176.008 143.529 176.01 143.512 176.01Z" fill="white"/>
    <path d="M152.81 176.01C152.792 176.01 152.774 176.008 152.756 176.003C152.637 175.974 152.565 175.854 152.594 175.734L156.161 161.208C156.19 161.088 156.31 161.015 156.43 161.046C156.55 161.075 156.621 161.195 156.592 161.315L153.025 175.841C153.001 175.941 152.91 176.01 152.81 176.01Z" fill="white"/>
    <path d="M140.073 203.151C140.055 203.151 140.04 203.149 140.022 203.144C139.902 203.115 139.829 202.996 139.858 202.878L143.296 188.352C143.325 188.232 143.445 188.158 143.562 188.187C143.682 188.216 143.756 188.336 143.727 188.454L140.288 202.98C140.266 203.082 140.175 203.151 140.073 203.151Z" fill="white"/>
    <path d="M156.374 203.151C156.274 203.151 156.183 203.082 156.159 202.982L152.592 188.456C152.563 188.336 152.636 188.216 152.754 188.187C152.874 188.156 152.994 188.231 153.022 188.349L156.589 202.875C156.618 202.995 156.545 203.115 156.427 203.144C156.409 203.148 156.392 203.151 156.374 203.151Z" fill="white"/>
    <path d="M174.622 122.643C174.622 126.476 171.515 129.586 167.684 129.586H124.136C120.305 129.586 117.198 126.476 117.198 122.643C117.198 118.81 120.305 115.701 124.136 115.701H167.682C171.515 115.701 174.622 118.808 174.622 122.643Z" fill="#B1A3E1"/>
    <path d="M178.449 226.845C178.449 230.509 175.481 233.478 171.819 233.478H123.83C120.167 233.478 117.2 230.509 117.2 226.845V226.707C117.2 223.043 120.167 220.073 123.83 220.073H171.819C175.481 220.073 178.449 223.043 178.449 226.707V226.845Z" fill="#B1A3E1"/>
    <path d="M248.314 226.844C248.314 230.509 245.347 233.478 241.684 233.478H193.695C190.033 233.478 187.065 230.509 187.065 226.844V226.707C187.065 223.042 190.033 220.073 193.695 220.073H241.684C245.347 220.073 248.314 223.042 248.314 226.707V226.844Z" fill="#B1A3E1"/>
    <path d="M318.178 226.844C318.178 230.509 315.21 233.478 311.548 233.478H263.559C259.897 233.478 256.929 230.509 256.929 226.844V226.707C256.929 223.042 259.897 220.073 263.559 220.073H311.548C315.21 220.073 318.178 223.042 318.178 226.707V226.844Z" fill="#B1A3E1"/>
    <path d="M388.042 226.844C388.042 230.509 385.074 233.478 381.412 233.478H333.423C329.761 233.478 326.793 230.509 326.793 226.844V226.707C326.793 223.042 329.761 220.073 333.423 220.073H381.412C385.074 220.073 388.042 223.042 388.042 226.707V226.844Z" fill="#B1A3E1"/>
    <g opacity="0.8">
        <g opacity="0.8">
            <path opacity="0.8" d="M224.867 256.458C224.867 259.368 222.51 261.724 219.604 261.724H130.119C127.211 261.724 124.856 259.365 124.856 256.458C124.856 253.549 127.213 251.193 130.119 251.193H219.602C222.51 251.193 224.867 253.551 224.867 256.458Z" fill="#9E93C5"/>
        </g>
        <g opacity="0.8">
            <path opacity="0.8" d="M380.864 254.544C380.864 257.453 378.507 259.809 375.601 259.809H336.362C333.455 259.809 331.1 257.451 331.1 254.544C331.1 251.635 333.457 249.278 336.362 249.278H375.601C378.509 249.278 380.864 251.635 380.864 254.544Z" fill="#9E93C5"/>
        </g>
    </g>
    <defs>
        <linearGradient id="paint0_linear" x1="-15.7271" y1="373.01" x2="470.311" y2="20.2371" gradientUnits="userSpaceOnUse">
            <stop stop-color="#DADBFE"/>
            <stop offset="1" stop-color="#F4F4FC"/>
        </linearGradient>
        <linearGradient id="paint1_linear" x1="344.96" y1="-148.612" x2="304.967" y2="3.28191" gradientUnits="userSpaceOnUse">
            <stop stop-color="#6654A4"/>
            <stop offset="0.2839" stop-color="#6654A4"/>
            <stop offset="1" stop-color="#423376"/>
        </linearGradient>
        <linearGradient id="paint2_linear" x1="218.14" y1="345.585" x2="163.927" y2="566.765" gradientUnits="userSpaceOnUse">
            <stop stop-color="#6654A4"/>
            <stop offset="0.2839" stop-color="#7059C1"/>
            <stop offset="1" stop-color="#1B113F"/>
        </linearGradient>
        <linearGradient id="paint3_linear" x1="262.245" y1="138.572" x2="132.682" y2="187.85" gradientUnits="userSpaceOnUse">
            <stop stop-color="#F79E1B"/>
            <stop offset="1" stop-color="#F2C88A"/>
        </linearGradient>
    </defs>
</svg>
