<svg width="42" height="30" viewBox="0 0 42 30" fill="none" xmlns="http://www.w3.org/2000/svg">
<path d="M41.4062 13.5506C40.0729 11.2381 32.7396 -0.366112 20.2812 0.00888766C8.76042 0.300554 2.09375 10.4256 0.28125 13.5506C-0.09375 14.1964 -0.09375 14.9881 0.28125 15.6339C1.59375 17.9047 8.61458 29.1756 20.8854 29.1756H21.4062C32.9271 28.8839 39.6146 18.7589 41.4062 15.6339C41.7812 14.9881 41.7812 14.1964 41.4062 13.5506ZM21.3021 25.0089C12.3229 25.2172 6.46875 17.5297 4.63542 14.5922C6.71875 11.2381 12.1562 4.38389 20.4896 4.17555C29.4271 3.94639 35.3021 11.6547 37.1562 14.5922C35.0104 17.9464 29.6354 24.8006 21.3021 25.0089Z" fill="#FF5364"/>
<path d="M20.8444 7.30078C16.8236 7.30078 13.5527 10.5716 13.5527 14.5924C13.5527 18.6133 16.8236 21.8841 20.8444 21.8841C24.8652 21.8841 28.1361 18.6133 28.1361 14.5924C28.1361 10.5716 24.8652 7.30078 20.8444 7.30078ZM20.8444 17.7174C19.1152 17.7174 17.7194 16.3216 17.7194 14.5924C17.7194 12.8633 19.1152 11.4674 20.8444 11.4674C22.5736 11.4674 23.9694 12.8633 23.9694 14.5924C23.9694 16.3216 22.5736 17.7174 20.8444 17.7174Z" fill="#FF5364"/>
</svg>
