<svg width="309" height="271" viewBox="0 0 309 271" fill="none" xmlns="http://www.w3.org/2000/svg">
<ellipse cx="146.25" cy="249.785" rx="145.889" ry="20.2724" fill="#F8F1F1"/>
<path d="M4.7059 113.748H277.356V123.88H4.7059V113.748Z" fill="#4B3D70"/>
<path d="M11.4542 123.881H270.617V131.828H11.4542V123.881Z" fill="#EEBC7D"/>
<path d="M259.213 131.826L268.93 245.398H264.071L247.209 131.826H259.213Z" fill="#EEBC7D"/>
<path d="M247.209 131.477H259.213V132.168H247.209V131.477Z" fill="#271E4B"/>
<path d="M22.8586 131.827L13.1415 245.399H18L34.8621 131.827H22.8586Z" fill="#EEBC7D"/>
<path d="M22.8586 131.477H34.8621V132.168H22.8586V131.477Z" fill="#271E4B"/>
<path d="M251.671 4.4707C252.4 4.4707 252.999 5.04229 252.999 5.74295V70.9323H124.86V5.74295C124.86 5.04229 125.46 4.4707 126.188 4.4707H251.671Z" fill="#EEBC7D"/>
<path d="M202.007 111.055H175.548L179.273 84.5869H198.283L202.007 111.055Z" fill="white"/>
<path d="M213.437 113.75H164.124V111.058H213.437V113.75Z" fill="white"/>
<path d="M252.998 8.60157V5.71594C252.998 2.56295 250.445 0 247.292 0H130.576C127.423 0 124.869 2.55373 124.869 5.71594V8.60157H252.998Z" fill="white"/>
<path d="M175.539 110.714H202.007V111.405H175.539V110.714Z" fill="#271E4B"/>
<path d="M252.999 70.3242V84.9367C252.999 88.4493 250.15 91.2888 246.647 91.2888H131.222C127.709 91.2888 124.87 88.44 124.87 84.9367V70.3242H252.999Z" fill="white"/>
<path d="M189.054 83.8578C190.87 83.8578 192.354 82.3827 192.354 80.5573C192.354 78.7411 190.879 77.2568 189.054 77.2568C187.238 77.2568 185.754 78.7319 185.754 80.5573C185.763 82.3735 187.238 83.8578 189.054 83.8578ZM189.054 77.9483C190.492 77.9483 191.663 79.1191 191.663 80.5573C191.663 81.9955 190.492 83.1664 189.054 83.1664C187.616 83.1664 186.445 81.9955 186.445 80.5573C186.454 79.1191 187.616 77.9483 189.054 77.9483Z" fill="#271E4B"/>
<path d="M178.277 90.9482H199.278V91.6397H178.277V90.9482Z" fill="#271E4B"/>
<path d="M185.855 3.95508H192.014V4.64652H185.855V3.95508Z" fill="#271E4B"/>
<path d="M251.671 8.60156C252.4 8.60156 252.999 8.63844 252.999 8.67532V12.5843H124.86V8.67532C124.86 8.62922 125.46 8.60156 126.188 8.60156H251.671Z" fill="#BC4D4D"/>
<path d="M128.179 11.2932C127.762 11.2932 127.423 10.9547 127.423 10.5372C127.423 10.1197 127.762 9.78125 128.179 9.78125C128.597 9.78125 128.935 10.1197 128.935 10.5372C128.935 10.9547 128.597 11.2932 128.179 11.2932Z" fill="white"/>
<path d="M131.48 10.5374C131.48 10.9523 131.139 11.2934 130.724 11.2934C130.309 11.2934 129.968 10.9523 129.968 10.5374C129.968 10.1225 130.309 9.78143 130.724 9.78143C131.139 9.77221 131.48 10.1133 131.48 10.5374Z" fill="white"/>
<path d="M133.259 11.2932C132.842 11.2932 132.503 10.9547 132.503 10.5372C132.503 10.1197 132.842 9.78125 133.259 9.78125C133.677 9.78125 134.015 10.1197 134.015 10.5372C134.015 10.9547 133.677 11.2932 133.259 11.2932Z" fill="white"/>
<path d="M204.146 57.8416H246.739V23.3984H204.146V57.8416ZM246.048 57.1501H204.837V24.0899H246.048V57.1501Z" fill="#271E4B"/>
<path d="M130.715 23.3965H140.782V24.0879H130.715V23.3965Z" fill="#271E4B"/>
<path d="M148.793 23.3975H194.613V24.0889H148.793V23.3975Z" fill="#271E4B"/>
<path d="M130.715 28.2188H170.44V28.9102H130.715V28.2188Z" fill="#271E4B"/>
<path d="M174.801 28.2188H194.613V28.9102H174.801V28.2188Z" fill="#271E4B"/>
<path d="M130.714 33.0391H146.194V33.7305H130.714V33.0391Z" fill="#271E4B"/>
<path d="M153.735 33.0391H194.613V33.7305H153.735V33.0391Z" fill="#271E4B"/>
<path d="M130.724 37.8623H166.209V38.5537H130.724V37.8623Z" fill="#271E4B"/>
<path d="M171.703 37.8623H194.613V38.5537H171.703V37.8623Z" fill="#271E4B"/>
<path d="M147.494 42.6836H194.613V43.375H147.494V42.6836Z" fill="#271E4B"/>
<path d="M130.724 47.5049H147.024V48.1963H130.724V47.5049Z" fill="#271E4B"/>
<path d="M153.025 47.5049H176.212V48.1963H153.025V47.5049Z" fill="#271E4B"/>
<path d="M181.273 47.5049H194.613V48.1963H181.273V47.5049Z" fill="#271E4B"/>
<path d="M130.715 52.3262H155.256V53.0176H130.715V52.3262Z" fill="#271E4B"/>
<path d="M159.506 52.3262H194.613V53.0176H159.506V52.3262Z" fill="#271E4B"/>
<path d="M141.372 57.1484H171.694V57.8399H141.372V57.1484Z" fill="#271E4B"/>
<path d="M177.06 57.1484H194.613V57.8399H177.06V57.1484Z" fill="#271E4B"/>
<path d="M151.006 113.747C150.647 109.884 147.374 106.842 143.419 106.842H133.886C129.931 106.842 126.667 109.893 126.299 113.747H151.006Z" fill="white"/>
<path d="M133.536 113.765L134.227 113.728C133.96 108.824 129.654 107.883 129.608 107.874L129.47 108.547C129.627 108.584 133.296 109.404 133.536 113.765Z" fill="#271E4B"/>
<path d="M143.787 113.765C144.027 109.404 147.706 108.584 147.862 108.547L147.724 107.874C147.678 107.883 143.373 108.824 143.105 113.728L143.787 113.765Z" fill="#271E4B"/>
<path d="M73.7306 89.6104C73.7306 89.6104 69.9046 83.5626 62.3817 82.6591C62.3817 82.6591 74.0994 77.6069 79.9536 89.6288L73.7306 89.6104Z" fill="#6D83B5"/>
<path d="M87.3935 89.6105C87.3935 89.6105 91.3762 76.5652 105.205 71.8818C105.205 71.8818 97 78.9069 95.4788 89.6105H87.3935Z" fill="#6D83B5"/>
<path d="M77.2616 89.6105C77.2616 89.6105 71.6194 76.0397 78.4877 52.8164C78.4877 52.8164 88.4261 69.3281 90.8784 89.6289L77.2616 89.6105Z" fill="#6D83B5"/>
<path d="M75.0855 89.6114C75.4727 84.7805 73.4998 79.8574 70.7617 74.8975C76.5514 78.7972 81.0043 83.5543 83.4658 89.6114H75.0855Z" fill="#6D83B5"/>
<path d="M85.2638 89.6108C85.2085 81.3319 90.3805 68.0469 95.0178 61.3906L93.5427 89.6108H85.2638Z" fill="#6D83B5"/>
<path d="M79.6399 88.984L80.2576 88.6798C78.3215 84.78 74.6707 82.9546 74.514 82.8809L74.2097 83.4985C74.2466 83.517 77.8145 85.3055 79.6399 88.984Z" fill="#271E4B"/>
<path d="M85.2269 88.8545L85.9183 88.8177C85.6141 82.945 88.3522 76.0121 88.3799 75.9476L87.7345 75.6895C87.6239 75.9753 84.9134 82.8251 85.2269 88.8545Z" fill="#271E4B"/>
<path d="M83.1341 88.9287L83.7979 88.7351C82.0093 82.5674 75.648 78.1791 75.3807 78.0039L74.9935 78.5755C75.058 78.6216 81.4193 83.0007 83.1341 88.9287Z" fill="#271E4B"/>
<path d="M93.7675 78.872L94.458 78.9082L93.9377 88.8419L93.2473 88.8057L93.7675 78.872Z" fill="#271E4B"/>
<path d="M93.9113 113.746H75.0487L73.3247 90.043H95.6445L93.9113 113.746Z" fill="#BC4D4D"/>
<path d="M97.1065 95.4756H71.855V88.2845H97.1065V95.4756Z" fill="#BC4D4D"/>
<path d="M73.8596 95.123H95.2483V95.8145H73.8596V95.123Z" fill="#271E4B"/>
<path d="M65.8202 35.9543C69.0562 35.9543 71.6929 33.3176 71.6929 30.0817C71.6929 26.8457 69.0562 24.209 65.8202 24.209C62.5843 24.209 59.9475 26.8457 59.9475 30.0817C59.9475 33.3176 62.5843 35.9543 65.8202 35.9543ZM65.8202 25.1309C68.5491 25.1309 70.7709 27.3528 70.7709 30.0817C70.7709 32.8106 68.5491 35.0324 65.8202 35.0324C63.0913 35.0324 60.8695 32.8106 60.8695 30.0817C60.8695 27.3528 63.0913 25.1309 65.8202 25.1309Z" fill="white"/>
<path d="M14.4873 57.7115L45.5654 19.3317L45.0215 18.8984L13.9526 57.2782L14.4873 57.7115Z" fill="#271E4B"/>
<path d="M33.23 110.003H33.9215L33.8846 99.4932L14.9943 61.4361L49.0872 19.3317L48.5524 18.8984L14.183 61.3439L33.23 99.7237V110.003Z" fill="#271E4B"/>
<path d="M13.5223 64.8777L30.8269 99.3711L30.2089 99.6811L12.9043 65.1878L13.5223 64.8777Z" fill="#271E4B"/>
<path d="M13.5932 66.1471C10.9659 66.1471 8.83606 64.0172 8.83606 61.39C8.83606 58.7627 10.9659 56.6328 13.5932 56.6328C16.2205 56.6328 18.3503 58.7627 18.3503 61.39C18.3503 64.0172 16.2205 66.1471 13.5932 66.1471Z" fill="#FE945A"/>
<path d="M16.1838 61.3904C16.1838 62.8194 15.0222 63.981 13.5932 63.981C12.1642 63.981 11.0026 62.8194 11.0026 61.3904C11.0026 59.9614 12.1642 58.7998 13.5932 58.7998C15.0222 58.7998 16.1838 59.9614 16.1838 61.3904Z" fill="#BC4D4D"/>
<path d="M32.29 112.401H30.188C29.1278 112.401 28.2612 111.535 28.2612 110.474V98.0284C28.2612 96.9682 29.1278 96.1016 30.188 96.1016H32.29C33.3502 96.1016 34.2168 96.9682 34.2168 98.0284V110.474C34.2168 111.535 33.3502 112.401 32.29 112.401Z" fill="#4B3D70"/>
<path d="M52.8211 113.764H25.357C24.8776 113.764 24.4904 113.376 24.4904 112.897V109.209C24.4904 108.73 24.8776 108.343 25.357 108.343H52.8211C53.3005 108.343 53.6877 108.73 53.6877 109.209V112.897C53.6877 113.376 53.3005 113.764 52.8211 113.764Z" fill="#FE945A"/>
<path d="M47.1141 22.282L44.2285 19.3964C43.6661 18.834 43.6661 17.9213 44.2285 17.3589L45.0582 16.5292C45.6206 15.9668 46.5333 15.9668 47.0957 16.5292L49.9813 19.4148C50.5437 19.9772 50.5437 20.8899 49.9813 21.4523L49.1516 22.282C48.5892 22.8444 47.6765 22.8444 47.1141 22.282Z" fill="#4B3D70"/>
<path d="M59.2839 14.557L53.5495 8.70281C51.1525 6.25049 47.1883 6.21361 44.7359 8.61061C42.2928 11.0076 42.2467 14.9719 44.6437 17.4242L50.3781 23.2785C47.1606 29.9348 48.1655 38.1399 53.4481 43.8466L79.7783 18.0327C74.1822 12.6394 66.0048 11.4686 59.2839 14.557Z" fill="#FE945A"/>
<path d="M59.0508 14.3149L59.5349 14.8086L50.6353 23.5349L50.1512 23.0413L59.0508 14.3149Z" fill="#271E4B"/>
<path d="M52.858 18.4926C53.2913 18.4926 53.697 18.3266 54.0104 18.0224C54.6558 17.3862 54.665 16.3445 54.0288 15.6991L49.9447 11.5228C49.6405 11.2093 49.2256 11.0342 48.7923 11.0342C48.3682 11.0526 47.9349 11.2001 47.6307 11.5044C46.9853 12.1405 46.9761 13.1823 47.603 13.8276L51.6872 18.0039C51.9914 18.3174 52.4063 18.4926 52.8396 18.4926C52.8488 18.4926 52.858 18.4926 52.858 18.4926ZM53.5218 17.5338C53.3374 17.7089 53.0885 17.8011 52.8488 17.8011C52.5906 17.8011 52.3602 17.6997 52.1758 17.5153L48.0916 13.3482C47.7229 12.9702 47.7321 12.371 48.1101 12.0022C48.4881 11.6334 49.0873 11.6426 49.4561 12.0114L53.5402 16.1877C53.909 16.5565 53.8998 17.165 53.5218 17.5338Z" fill="#271E4B"/>
<path d="M50.5993 21.3595C50.9127 21.0553 51.0879 20.6404 51.0879 20.2071C51.0879 19.7646 50.9312 19.3497 50.6177 19.0363L46.5336 14.8599C45.8974 14.2146 44.8557 14.2054 44.2103 14.8415L44.699 15.3393C45.0769 14.9706 45.6762 14.9798 46.045 15.3486L50.1291 19.5249C50.3043 19.7093 50.3964 19.949 50.3964 20.1979C50.3964 20.456 50.295 20.6865 50.1107 20.8709L50.5993 21.3595Z" fill="#271E4B"/>
<path d="M56.269 15.1458C56.7023 15.1458 57.1079 14.9799 57.4214 14.6757L56.9328 14.1778C56.7576 14.353 56.5179 14.4452 56.269 14.4452H56.2598C56.0016 14.4452 55.7711 14.3438 55.5868 14.1594L51.5026 9.99229C51.1339 9.6143 51.1431 9.01506 51.5119 8.64629L51.0232 8.14844C50.3779 8.78457 50.3687 9.82635 51.0048 10.4717L55.0889 14.648C55.3932 14.9615 55.808 15.1366 56.2413 15.1366C56.2598 15.1459 56.2598 15.1458 56.269 15.1458Z" fill="#271E4B"/>
<path d="M46.6307 108.351H43.155V106.774H46.6307V108.351Z" fill="#4B3D70"/>
<path d="M147.116 167.707H147.807V144.954C147.807 136.675 154.122 130.886 163.166 130.886H187.616V130.194H163.166C153.717 130.194 147.116 136.261 147.116 144.954V167.707Z" fill="#271E4B"/>
<path d="M162.143 133.255H186.694C188.187 133.255 189.404 132.029 189.404 130.544C189.404 129.051 188.178 127.834 186.694 127.834H162.143C160.649 127.834 159.432 129.06 159.432 130.544C159.432 132.038 160.649 133.255 162.143 133.255Z" fill="#C65A5A"/>
<path d="M187.607 130.194H194.696V130.886H187.607V130.194Z" fill="#271E4B"/>
<path d="M259.305 189.751H174.764C169.777 189.751 165.702 185.676 165.702 180.689C165.702 175.701 169.777 171.626 174.764 171.626H259.305C264.293 171.626 268.367 175.701 268.367 180.689C268.367 185.676 264.293 189.751 259.305 189.751Z" fill="#4B3D70"/>
<path d="M226.494 198.814H208.728C206.165 198.814 204.072 196.721 204.072 194.158V185.335C204.072 182.772 206.165 180.68 208.728 180.68H226.494C229.057 180.68 231.149 182.772 231.149 185.335V194.158C231.14 196.721 229.047 198.814 226.494 198.814Z" fill="#4B3D70"/>
<path d="M221.211 256.057H214.001C212.167 256.057 210.673 254.554 210.673 252.729V241.26C210.673 239.425 212.176 237.932 214.001 237.932H221.211C223.045 237.932 224.539 239.434 224.539 241.26V252.729C224.539 254.554 223.045 256.057 221.211 256.057Z" fill="#4B3D70"/>
<path d="M220.603 264.442H214.601V186.263H220.603V264.442Z" fill="#4B3D70"/>
<path d="M219.514 243.914C235.224 246.938 248.951 253.401 260.042 264.445H252.003C245.125 259.227 233.509 254.184 220.27 252.304L219.514 243.914Z" fill="#4B3D70"/>
<path d="M215.698 243.914C199.988 246.938 186.261 253.401 175.17 264.445H183.209C190.087 259.227 201.703 254.184 214.942 252.304L215.698 243.914Z" fill="#4B3D70"/>
<path d="M144.875 167.708H181.421C186.924 167.652 188.731 165.744 189.718 160.222L208.94 50.494C209.327 45.5432 212.757 42.0215 217.412 42.0215H231.5C226.844 42.0215 223.414 45.5432 223.027 50.494L202.828 167.698H208.35C210.876 167.698 212.95 169.764 212.95 172.299V178.199C212.95 180.421 211.355 182.283 209.263 182.707C209.65 182.763 210.037 182.8 210.443 182.8H208.359H196.365H144.885C142.359 182.8 140.284 180.734 140.284 178.199V172.299C140.275 169.782 142.34 167.708 144.875 167.708Z" fill="#C65A5A"/>
<path d="M201.961 174.327L223.027 50.5028C223.7 45.93 221.976 42.0303 217.413 42.0303H300.128C304.783 42.0303 309.697 44.7684 307.844 53.9139L285.847 174.327C285.847 178.992 282.03 182.799 277.375 182.799C277.375 182.799 190.658 182.799 188.022 182.799C196.347 182.808 200.495 179.665 201.961 174.327Z" fill="#913333"/>
</svg>
