<svg width="368" height="350" viewBox="0 0 368 350" fill="none" xmlns="http://www.w3.org/2000/svg">
<path opacity="0.9" d="M201.438 82.8194C149.669 136.701 31.7115 87.3008 28.4901 192.572C25.4109 293.438 156.936 288.388 222.433 266.852C298.372 241.887 358.582 172.524 334.792 90.0579C325.601 58.2141 304.994 27.2798 269.806 21.9172C213.575 13.3523 228.876 54.2537 201.438 82.8194Z" fill="url(#paint0_linear)"/>
<path d="M183.701 350C285.157 350 367.402 345.198 367.402 339.275C367.402 333.352 285.157 328.55 183.701 328.55C82.2458 328.55 0 333.352 0 339.275C0 345.198 82.2458 350 183.701 350Z" fill="#F5F5F5"/>
<path d="M257.943 73.7415C254.324 71.4771 243.93 73.7225 245.664 85.1393C247.389 96.5656 234.001 93.5906 236.919 106.826C239.837 120.062 263.514 139.703 278.095 126.363C292.677 113.023 280.388 107.139 280.663 91.3072C280.815 81.8896 276.542 65.0439 257.943 73.7415Z" fill="#263238"/>
<path d="M279.431 125.785C279.365 125.785 279.308 125.757 279.261 125.709C279.166 125.615 279.166 125.463 279.261 125.368C288.243 116.443 286.168 111.005 283.543 104.126C282.094 100.327 280.445 96.0162 280.313 90.4167C280.17 84.3815 277.963 76.1197 272.212 72.7278C268.138 70.3213 262.908 70.7287 256.674 73.969C256.55 74.0258 256.408 73.9879 256.342 73.8648C256.276 73.7416 256.323 73.5995 256.446 73.5332C262.842 70.2171 268.223 69.8097 272.458 72.311C278.38 75.8165 280.654 84.2488 280.796 90.4073C280.928 95.9214 282.558 100.194 283.998 103.956C286.689 111.005 288.811 116.566 279.602 125.719C279.555 125.757 279.488 125.785 279.431 125.785Z" fill="#263238"/>
<path d="M281.497 124.487C281.488 124.459 281.649 124.705 281.753 124.847L282.141 125.359C282.416 125.709 282.71 126.06 283.023 126.411C283.648 127.112 284.321 127.784 285.05 128.438C286.471 129.755 288.053 130.968 289.749 132.048C291.455 133.1 293.208 134.132 295.084 134.975C295.993 135.44 296.969 135.8 297.907 136.226C298.087 136.302 297.926 136.255 297.793 136.302C297.642 136.34 297.566 136.444 297.67 136.387C297.869 136.292 298.371 135.686 298.75 134.938C299.148 134.18 299.489 133.28 299.821 132.351C300.465 130.466 300.929 128.4 301.365 126.325C301.792 124.241 302.123 122.1 302.417 119.949C302.739 117.808 302.976 115.619 303.213 113.487L307.069 113.506C307.391 118.054 307.363 122.526 306.974 127.112C306.785 129.404 306.462 131.707 305.903 134.075C305.619 135.26 305.25 136.463 304.719 137.714C304.16 138.955 303.516 140.31 302.019 141.646C301.28 142.299 300.181 142.915 298.94 143.133C297.708 143.37 296.419 143.152 295.567 142.839C294.458 142.441 293.321 142.11 292.222 141.655C290.015 140.793 287.855 139.751 285.77 138.538C283.695 137.297 281.696 135.885 279.83 134.255C278.901 133.431 278.02 132.541 277.177 131.593C276.75 131.119 276.343 130.617 275.945 130.096L275.358 129.262C275.149 128.95 275.007 128.732 274.713 128.22L281.497 124.487Z" fill="#FFC3BD"/>
<path d="M280.199 120.982C289.058 126.638 288.338 130.125 288.338 130.125L282.776 138.187C282.776 138.187 268.583 132.493 267.683 128.04C266.745 123.388 275.898 118.234 280.199 120.982Z" fill="#F37884"/>
<path d="M288.821 129.319C289.162 129.556 289.248 130.03 289.011 130.38L283.307 138.538C283.07 138.879 282.597 138.964 282.246 138.727C281.905 138.491 281.82 138.017 282.056 137.666L287.76 129.509C288.006 129.168 288.48 129.082 288.821 129.319Z" fill="#6654A4"/>
<path d="M303.866 115.344L299.47 109.47L307.903 107.291C307.903 107.291 309.617 112.52 306.813 116.358L303.866 115.344Z" fill="#FFC3BD"/>
<path d="M299.707 102.251L306.728 101.066L307.903 107.301L299.47 109.47L299.707 102.251Z" fill="#FFC3BD"/>
<path d="M228.269 331.088L236.303 331.855L242.054 312.973L234.011 312.196L228.269 331.088Z" fill="#FFC3BD"/>
<path d="M177.154 303.166L183.114 308.756L195.98 294.62L190.021 289.03L177.154 303.166Z" fill="#FFC3BD"/>
<path d="M185.871 306.076L181.389 298.003C181.228 297.71 180.887 297.586 180.584 297.7L173.687 300.325C172.976 300.599 172.663 301.518 173.052 302.182C174.662 304.967 175.582 306.227 177.552 309.78C178.765 311.959 181.124 316.971 182.792 319.984C184.431 322.931 187.538 321.51 187.112 320.098C185.198 313.797 185.558 310.292 186.098 307.506C186.193 307.023 186.108 306.511 185.871 306.076Z" fill="#263238"/>
<path d="M237.261 329.411H227.521C227.171 329.411 226.849 329.657 226.754 330.008L224.632 337.72C224.414 338.516 225.001 339.255 225.816 339.265C229.246 339.293 230.875 339.284 235.158 339.284C237.792 339.284 244.613 339.284 248.252 339.284C251.814 339.284 252.553 335.683 251.085 335.361C244.481 333.902 240.672 331.884 238.635 329.961C238.275 329.591 237.782 329.411 237.261 329.411Z" fill="#263238"/>
<path opacity="0.2" d="M242.045 312.983L239.089 322.713H230.809L234.011 312.206L242.045 312.983Z" fill="black"/>
<path opacity="0.2" d="M190.021 289.03L195.98 294.63L189.348 301.916L183.389 296.316L190.021 289.03Z" fill="black"/>
<path d="M280.199 120.982C280.199 120.982 283.421 123.18 263.003 167.53C250.25 163.996 237.062 160.348 230.856 158.633C235.015 145.701 237.27 137.638 238.445 109.053C238.445 109.053 245.589 109.451 252.59 111.033C258.076 112.275 262.558 113.326 267.191 115.079C273.311 117.372 280.199 120.982 280.199 120.982Z" fill="#F05665"/>
<path opacity="0.1" d="M280.199 120.982C280.199 120.982 283.421 123.18 263.003 167.53C250.25 163.996 237.062 160.348 230.856 158.633C235.015 145.701 237.27 137.638 238.445 109.053C238.445 109.053 245.589 109.451 252.59 111.033C258.076 112.275 262.558 113.326 267.191 115.079C273.311 117.372 280.199 120.982 280.199 120.982Z" fill="white"/>
<path d="M258.597 94.9829C258.218 99.9381 256.75 108.797 252.6 111.023C252.6 111.023 250.184 119.238 260.672 122.26C269.54 124.809 267.2 115.069 267.2 115.069C262.311 112.369 265.333 107.584 266.224 102.231L258.597 94.9829Z" fill="#FFC3BD"/>
<path opacity="0.2" d="M258.587 94.9932C258.284 98.9725 257.28 105.481 254.741 109.034C257.697 109.328 262.358 108.419 263.685 106.22C264.035 105.652 264.727 103.492 265.324 101.379L258.587 94.9932Z" fill="black"/>
<path d="M271.596 87.8111C271.577 95.9592 271.738 99.4174 267.882 103.823C262.083 110.455 252.069 108.646 249.653 100.649C247.483 93.4579 247.881 81.3306 255.641 77.6355C263.296 73.9878 271.615 79.663 271.596 87.8111Z" fill="#FFC3BD"/>
<path d="M254.741 83.2916C259.317 89.6869 274.713 98.574 275.746 90.009C276.779 81.4441 268.915 72.9833 261.136 73.7981C253.348 74.6129 250.847 77.8532 254.741 83.2916Z" fill="#263238"/>
<path d="M274.969 95.4196C274.24 96.945 272.866 97.9872 271.549 98.423C269.569 99.0768 268.479 97.3335 268.943 95.4102C269.36 93.6763 270.904 91.2508 272.932 91.4309C274.941 91.6014 275.812 93.6858 274.969 95.4196Z" fill="#FFC3BD"/>
<path d="M263.002 167.529C263.002 167.529 274.448 213.888 266.944 248.963C261.913 272.45 243.788 319.899 243.788 319.899L229.614 319.539C229.614 319.539 243.343 269.75 246.176 250.166C251.027 216.674 239.468 161.021 239.468 161.021L263.002 167.529Z" fill="#263238"/>
<path opacity="0.2" d="M250.241 174.19L243.154 185.37C244.954 196.957 246.754 211.463 247.209 225.409C257.176 207.569 252.458 183.636 250.241 174.19Z" fill="black"/>
<path d="M246.318 320.628L228.269 320.183L229.482 313.759L247.635 315.124L246.318 320.628Z" fill="#263238"/>
<path d="M255.954 165.682C255.954 165.682 249.341 216.371 235.034 245.173C223.485 268.433 192.664 301.547 192.664 301.547L184.781 293.427C184.781 293.427 205.597 257.443 214.181 241.99C235.233 204.101 216.568 170.126 230.846 158.633L255.954 165.682Z" fill="#263238"/>
<path d="M193.469 302.636L183.303 292.717L186.676 288.131L197.761 299.586L193.469 302.636Z" fill="#263238"/>
<path d="M230.894 156.606L228.649 159.079C228.478 159.268 228.677 159.572 229.047 159.676L262.766 169.008C263.06 169.084 263.335 169.018 263.401 168.838L264.491 166.043C264.566 165.853 264.358 165.607 264.045 165.522L231.491 156.511C231.245 156.445 231.008 156.483 230.894 156.606Z" fill="#407BFF"/>
<path opacity="0.5" d="M230.894 156.606L228.649 159.079C228.478 159.268 228.677 159.572 229.047 159.676L262.766 169.008C263.06 169.084 263.335 169.018 263.401 168.838L264.491 166.043C264.566 165.853 264.358 165.607 264.045 165.522L231.491 156.511C231.245 156.445 231.008 156.483 230.894 156.606Z" fill="white"/>
<path d="M234.257 161.457L233.385 161.22C233.215 161.172 233.101 161.049 233.149 160.935L234.589 157.307C234.627 157.202 234.807 157.155 234.977 157.202L235.849 157.439C236.019 157.487 236.133 157.61 236.086 157.724L234.645 161.352C234.608 161.457 234.437 161.504 234.257 161.457Z" fill="#407BFF"/>
<path d="M260.227 168.648L259.355 168.411C259.185 168.364 259.071 168.241 259.118 168.127L260.558 164.498C260.596 164.394 260.776 164.347 260.947 164.394L261.818 164.631C261.989 164.678 262.103 164.801 262.055 164.915L260.615 168.544C260.577 168.648 260.397 168.695 260.227 168.648Z" fill="#6654A4"/>
<path d="M247.247 165.057L246.375 164.82C246.205 164.773 246.091 164.65 246.138 164.536L247.578 160.907C247.616 160.803 247.796 160.756 247.967 160.803L248.839 161.04C249.009 161.087 249.123 161.21 249.075 161.324L247.635 164.953C247.597 165.057 247.417 165.105 247.247 165.057Z" fill="#407BFF"/>
<path d="M259.412 90.8058C259.45 91.469 259.128 92.028 258.701 92.047C258.266 92.0754 257.887 91.5543 257.849 90.8911C257.811 90.2279 258.133 89.6689 258.559 89.6499C258.986 89.631 259.374 90.1426 259.412 90.8058Z" fill="#263238"/>
<path d="M251.937 91.2413C251.975 91.9046 251.653 92.4635 251.226 92.4825C250.791 92.5109 250.412 91.9898 250.374 91.3266C250.336 90.6634 250.658 90.1044 251.084 90.0855C251.511 90.0665 251.899 90.5876 251.937 91.2413Z" fill="#263238"/>
<path d="M251.273 90.113L249.653 89.7529C249.662 89.7529 250.543 90.9467 251.273 90.113Z" fill="#263238"/>
<path d="M253.974 92.2646C253.974 92.2646 253.017 95.1733 251.861 96.6229C252.78 97.3904 254.248 96.9261 254.248 96.9261L253.974 92.2646Z" fill="#ED847E"/>
<path d="M257.934 99.1812C257.565 99.2759 257.167 99.3422 256.731 99.3706C256.646 99.3801 256.57 99.3043 256.56 99.219C256.551 99.1338 256.627 99.0485 256.712 99.0485C259.63 98.878 260.881 96.7557 260.89 96.7367C260.938 96.6609 261.032 96.6325 261.108 96.6799C261.184 96.7273 261.212 96.822 261.165 96.8978C261.127 96.9641 260.161 98.6032 257.934 99.1812Z" fill="#263238"/>
<path d="M261.885 85.9735C261.781 86.0019 261.657 85.9735 261.582 85.8882C260.331 84.6565 258.919 84.9408 258.862 84.9597C258.692 84.9976 258.512 84.8839 258.474 84.7134C258.436 84.5428 258.54 84.3723 258.72 84.3249C258.796 84.306 260.521 83.9459 262.027 85.424C262.15 85.5471 262.16 85.7556 262.036 85.8787C261.998 85.9261 261.942 85.9545 261.885 85.9735Z" fill="#263238"/>
<path d="M248.677 86.9304C248.573 86.9778 248.45 86.9683 248.355 86.8926C248.213 86.7883 248.184 86.5799 248.289 86.4378C249.549 84.7324 251.311 84.8271 251.387 84.8271C251.567 84.8366 251.7 84.9882 251.69 85.1682C251.681 85.3482 251.529 85.4809 251.349 85.4714C251.292 85.4714 249.861 85.4145 248.81 86.8168C248.762 86.8736 248.725 86.9115 248.677 86.9304Z" fill="#263238"/>
<path d="M239.194 121.256C238.369 122.506 237.611 123.501 236.777 124.572C235.953 125.614 235.11 126.628 234.238 127.623C232.486 129.603 230.629 131.469 228.667 133.25C226.716 135.032 224.66 136.718 222.471 138.244C221.4 139.039 220.254 139.731 219.136 140.451L217.393 141.455L216.521 141.948C216.199 142.119 215.782 142.346 215.384 142.507C213.783 143.227 211.727 143.597 209.775 143.246C207.814 142.905 206.175 141.967 204.905 140.934C203.617 139.892 202.66 138.717 201.817 137.533C200.992 136.349 200.282 135.145 199.685 133.914C197.316 128.996 195.923 124.051 195.052 118.859L198.804 117.987C199.59 120.242 200.471 122.573 201.466 124.771C202.432 126.988 203.512 129.139 204.754 131.081C205.976 133.004 207.397 134.804 208.847 135.799C209.567 136.292 210.23 136.538 210.77 136.567C211.31 136.595 211.831 136.491 212.494 136.14C212.665 136.055 212.798 135.97 213.025 135.837L213.764 135.354L215.232 134.387C216.18 133.686 217.156 133.033 218.075 132.284C219.941 130.844 221.713 129.252 223.437 127.623C225.162 125.984 226.791 124.231 228.355 122.431C229.141 121.54 229.908 120.621 230.647 119.692C231.358 118.783 232.135 117.779 232.722 116.945L239.194 121.256Z" fill="#FFC3BD"/>
<path d="M199.59 121.493L200.424 112.653L192.484 115.903C192.484 115.903 193.431 120.347 196.454 121.938L199.59 121.493Z" fill="#FFC3BD"/>
<path d="M197.885 107.878L191.736 106.542L192.475 115.903L200.424 112.653L197.885 107.878Z" fill="#FFC3BD"/>
<path d="M238.445 109.044C234.305 109.006 224.328 124.847 224.328 124.847L231.377 132.143C231.377 132.143 244.613 123.199 245.153 117.903C245.617 113.402 243.713 109.091 238.445 109.044Z" fill="#F37884"/>
<path d="M232.031 132.464C231.737 132.767 231.254 132.767 230.96 132.474L223.854 125.5C223.551 125.207 223.551 124.723 223.845 124.43C224.138 124.127 224.622 124.127 224.915 124.42L232.021 131.394C232.324 131.678 232.324 132.161 232.031 132.464Z" fill="#6654A4"/>
<path d="M187.444 310.415C187.681 310.415 187.918 310.33 188.155 310.15C188.41 309.96 188.448 309.733 188.429 309.572C188.344 308.548 185.739 307.156 185.445 306.995C185.388 306.966 185.322 306.976 185.265 307.013C185.218 307.051 185.189 307.118 185.208 307.184C185.502 308.226 186.146 310.036 187.112 310.358C187.226 310.396 187.33 310.415 187.444 310.415ZM185.634 307.468C186.525 307.98 188.05 308.965 188.107 309.6C188.117 309.676 188.107 309.78 187.956 309.894C187.7 310.083 187.463 310.14 187.226 310.064C186.677 309.865 186.089 308.908 185.634 307.468Z" fill="#407BFF"/>
<path d="M187.841 307.875C188.334 307.875 188.76 307.79 189.007 307.582C189.139 307.468 189.329 307.222 189.158 306.786C189.045 306.502 188.836 306.312 188.552 306.208C187.443 305.81 185.378 306.947 185.293 306.994C185.245 307.023 185.208 307.08 185.208 307.136C185.208 307.193 185.236 307.25 185.283 307.278C185.785 307.582 186.922 307.875 187.841 307.875ZM188.002 306.445C188.164 306.445 188.315 306.464 188.448 306.511C188.647 306.577 188.789 306.71 188.865 306.9C188.969 307.155 188.884 307.26 188.808 307.326C188.325 307.733 186.619 307.506 185.738 307.127C186.212 306.9 187.235 306.445 188.002 306.445Z" fill="#407BFF"/>
<path d="M241.581 330.984C242.329 330.984 243.021 330.87 243.466 330.539C243.76 330.311 243.93 330.008 243.949 329.629C243.968 329.354 243.836 329.203 243.722 329.127C242.831 328.521 239.297 330.16 238.899 330.349C238.833 330.378 238.795 330.444 238.805 330.51C238.814 330.577 238.862 330.633 238.928 330.652C239.629 330.804 240.643 330.984 241.581 330.984ZM243.135 329.307C243.305 329.307 243.438 329.335 243.532 329.392C243.58 329.421 243.627 329.478 243.618 329.61C243.599 329.894 243.485 330.112 243.267 330.283C242.471 330.889 240.529 330.633 239.477 330.435C240.69 329.894 242.32 329.307 243.135 329.307Z" fill="#6654A4"/>
<path d="M238.956 330.652C238.975 330.652 238.994 330.652 239.013 330.643C240.074 330.207 242.31 328.416 242.187 327.526C242.159 327.336 242.026 327.099 241.552 327.043C239.648 326.825 238.833 330.302 238.795 330.453C238.786 330.51 238.805 330.577 238.852 330.614C238.881 330.633 238.919 330.652 238.956 330.652ZM241.382 327.355C241.429 327.355 241.467 327.355 241.515 327.365C241.846 327.403 241.865 327.535 241.875 327.573C241.95 328.142 240.359 329.591 239.203 330.198C239.44 329.383 240.16 327.355 241.382 327.355Z" fill="#6654A4"/>
<path d="M258.749 89.6779L257.138 89.3179C257.138 89.3179 258.019 90.5117 258.749 89.6779Z" fill="#263238"/>
<path d="M91.3345 334.983L198.491 325.622C205.739 324.988 211.149 318.545 210.514 311.297L188.183 55.6841C187.548 48.4361 181.105 43.0262 173.857 43.661L66.7007 53.0218C59.4527 53.6566 54.0428 60.0992 54.6776 67.3472L77.009 322.96C77.6343 330.199 84.0865 335.618 91.3345 334.983Z" fill="#6654A4"/>
<path d="M62.7122 142.821C64.7776 142.641 66.3125 140.803 66.1325 138.747L63.1859 104.989C63.0059 102.924 61.1679 101.389 59.1119 101.569C57.0464 101.749 55.5116 103.587 55.6916 105.643L58.6382 139.401C58.8182 141.457 60.6468 143.001 62.7122 142.821Z" fill="#6654A4"/>
<path d="M193.574 116.179L194.891 116.065C196.426 115.932 197.563 114.568 197.43 113.043L195.63 92.4452C195.497 90.9103 194.133 89.7734 192.607 89.906L191.29 90.0197C189.756 90.1524 188.619 91.5167 188.751 93.0421L190.551 113.64C190.684 115.175 192.048 116.311 193.574 116.179Z" fill="#263238"/>
<path d="M196.596 150.78L197.913 150.666C199.448 150.534 200.585 149.169 200.452 147.644L198.652 127.046C198.52 125.511 197.155 124.374 195.63 124.507L194.313 124.621C192.778 124.753 191.641 126.118 191.774 127.643L193.574 148.241C193.707 149.766 195.071 150.913 196.596 150.78Z" fill="#263238"/>
<path d="M93.5895 334.784L200.746 325.423C207.994 324.788 213.404 318.346 212.769 311.098L190.429 55.4849C189.794 48.2369 183.351 42.827 176.103 43.4618L68.9463 52.8226C61.6983 53.4574 56.2884 59.9 56.9232 67.148L79.2546 322.761C79.8894 330.009 86.3415 335.419 93.5895 334.784Z" fill="#263238"/>
<path opacity="0.4" d="M83.0345 318.848L208.363 307.896C209.728 307.772 210.732 306.579 210.618 305.214L189.376 62.0889C189.253 60.7246 188.059 59.7203 186.695 59.834L61.3662 70.7865C60.0019 70.9097 58.9976 72.1035 59.1113 73.4678L80.3532 316.593C80.4763 317.967 81.6701 318.971 83.0345 318.848Z" fill="#6654A4"/>
<path opacity="0.3" d="M170.144 61.2935L154.397 312.614L128.2 314.907L143.956 63.5768L170.144 61.2935Z" fill="#6654A4"/>
<path opacity="0.2" d="M136.452 53.221L109.687 55.5612C109.071 55.6181 108.607 56.1676 108.663 56.7834L108.758 57.873C108.815 58.4889 109.365 58.9531 109.98 58.8962L136.746 56.556C137.362 56.4992 137.826 55.9497 137.769 55.3338L137.674 54.2443C137.617 53.6284 137.068 53.1642 136.452 53.221Z" fill="white"/>
<path d="M111.506 150.618H241.885C248.915 150.618 254.676 156.369 254.676 163.409V227.352C254.676 234.382 248.925 240.143 241.885 240.143H196.777L176.691 260.219L156.615 240.143H111.506C104.476 240.143 98.7158 234.392 98.7158 227.352V163.409C98.7158 156.369 104.467 150.618 111.506 150.618Z" fill="#6654A4"/>
<path opacity="0.3" d="M111.506 150.618H241.885C248.915 150.618 254.676 156.369 254.676 163.409V227.352C254.676 234.382 248.925 240.143 241.885 240.143H196.777L176.691 260.219L156.615 240.143H111.506C104.476 240.143 98.7158 234.392 98.7158 227.352V163.409C98.7158 156.369 104.467 150.618 111.506 150.618Z" fill="white"/>
<path d="M119.862 172.778V217.972C119.862 221.648 122.809 224.661 126.4 224.661H226.981C230.581 224.661 233.519 221.648 233.519 217.972V172.778C233.519 171.897 233.348 171.054 233.035 170.286C232.069 167.832 229.71 166.099 226.972 166.099H126.4C123.671 166.099 121.312 167.842 120.336 170.286C120.033 171.054 119.862 171.888 119.862 172.778Z" fill="white"/>
<path opacity="0.1" d="M120.345 170.278L168.968 191.454C173.904 193.604 179.485 193.604 184.421 191.454L233.044 170.278C232.078 167.824 229.718 166.09 226.98 166.09H126.399C123.67 166.09 121.311 167.834 120.345 170.278Z" fill="black"/>
<path d="M122.522 170.042C130.115 162.449 130.115 150.14 122.522 142.547C114.93 134.955 102.62 134.955 95.028 142.547C87.4356 150.14 87.4356 162.449 95.028 170.042C102.62 177.634 114.93 177.634 122.522 170.042Z" fill="#F05665"/>
<path d="M112.529 168.145H108.001V151.091C106.343 152.636 104.4 153.782 102.155 154.521V150.409C103.339 150.021 104.618 149.291 106.001 148.211C107.385 147.131 108.332 145.871 108.853 144.431H112.529V168.145Z" fill="white"/>
<path d="M218.16 35.7875C216.786 35.7875 215.583 34.7832 215.375 33.3905C212.703 15.6163 196.075 3.33733 178.301 6.00914C176.757 6.24601 175.326 5.18487 175.089 3.64052C174.862 2.09618 175.913 0.665522 177.458 0.428659C198.302 -2.7074 217.81 11.7033 220.955 32.5472C221.182 34.0916 220.131 35.5222 218.586 35.7591C218.435 35.7781 218.293 35.7875 218.16 35.7875Z" fill="#6654A4"/>
<path d="M204.147 37.8906C202.773 37.8906 201.57 36.8863 201.361 35.4935C199.846 25.4505 190.447 18.5057 180.394 20.0122C178.859 20.249 177.419 19.1879 177.182 17.6435C176.946 16.0992 178.007 14.6685 179.551 14.4317C192.673 12.461 204.952 21.5281 206.932 34.6503C207.169 36.1946 206.108 37.6253 204.564 37.8621C204.431 37.8811 204.289 37.8906 204.147 37.8906Z" fill="#6654A4"/>
<path d="M190.144 40.0038C188.77 40.0038 187.567 38.9995 187.358 37.6067C187.188 36.4793 186.591 35.4845 185.672 34.8118C184.753 34.1391 183.635 33.8548 182.507 34.0254C180.973 34.2528 179.532 33.2011 179.296 31.6568C179.068 30.1124 180.12 28.6818 181.664 28.4449C184.279 28.047 186.894 28.7007 189.016 30.2735C191.148 31.8462 192.531 34.1485 192.929 36.7635C193.157 38.3079 192.105 39.7385 190.561 39.9754C190.428 39.9943 190.286 40.0038 190.144 40.0038Z" fill="#6654A4"/>
<defs>
<linearGradient id="paint0_linear" x1="184.247" y1="20.7612" x2="28" y2="233" gradientUnits="userSpaceOnUse">
<stop stop-color="#D9DEFF"/>
<stop offset="1" stop-color="#E7E7FD" stop-opacity="0"/>
</linearGradient>
</defs>
</svg>
