<svg width="375" height="346" viewBox="0 0 375 346" fill="none" xmlns="http://www.w3.org/2000/svg">
<path d="M242.648 310.191C327.703 277.928 356.539 218.82 370.606 155.388C377.538 124.125 375.598 90.229 361.051 61.6922C346.505 33.1639 318.404 10.8831 286.577 7.31069C254.75 3.73825 220.572 21.1475 208.18 50.6757C199.864 70.478 200.351 95.3142 184.275 109.553C173.549 119.048 158.02 121.005 143.756 119.638C129.5 118.279 115.612 114.065 101.331 112.971C69.991 110.57 30.6429 125.825 15.2506 153.234C4.37085 172.609 -5.96189 201.881 4.08027 239.306C12.2251 269.663 40.0611 308.165 98.2886 318.532C98.2886 318.549 180.771 333.668 242.648 310.191Z" fill="url(#paint0_linear)"/>
<path d="M284.295 158.635C284.295 158.635 244.392 130.354 239.341 127.577C234.529 124.927 219.256 123.004 217.889 122.671L190.549 116.723L148.773 117.97L136.791 125.175L106.476 139.14C98.212 142.943 91.6995 149.746 88.2553 158.165L69.1025 204.923L116.613 218.973L118.091 268.295L106.887 346H245.956L238.956 197.068L253.434 200.256L284.295 158.635Z" fill="#6654A4"/>
<path d="M117.493 199.111C117.493 199.111 116.997 199.478 116.023 200.042C115.057 200.581 113.587 201.393 111.579 201.666C109.562 201.948 107.16 201.461 104.647 200.658C102.118 199.863 99.4597 198.632 96.7504 197.222C94.0412 195.812 91.5029 194.385 89.1269 193.231C86.751 192.077 84.5374 191.188 82.6145 190.633C80.7 190.06 79.0933 189.804 77.9823 189.693C77.4267 189.633 76.9909 189.607 76.7003 189.599C76.4097 189.582 76.2559 189.564 76.2559 189.564C76.2559 189.564 76.8798 189.53 77.9908 189.624C79.1104 189.718 80.7171 189.949 82.6487 190.513C84.5802 191.06 86.8108 191.932 89.1953 193.086C91.5883 194.231 94.1266 195.658 96.8359 197.068C99.5366 198.478 102.186 199.701 104.699 200.504C107.203 201.307 109.579 201.803 111.57 201.538C113.553 201.282 115.014 200.495 115.989 199.974C116.476 199.701 116.852 199.487 117.1 199.325C117.356 199.179 117.493 199.111 117.493 199.111Z" fill="white"/>
<path d="M115.468 176.07C115.468 176.07 115.356 176.079 115.151 176.07C114.895 176.062 114.596 176.044 114.245 176.027C113.459 175.993 112.322 175.908 110.921 175.762C108.118 175.489 104.263 174.933 100.067 173.976C95.8789 173.01 92.1612 171.823 89.5203 170.84C88.1956 170.353 87.1358 169.934 86.4179 169.626C86.1017 169.489 85.8282 169.37 85.5804 169.267C85.3923 169.182 85.2983 169.13 85.2983 169.13C85.2983 169.13 85.4009 169.156 85.5975 169.233C85.8368 169.327 86.1188 169.429 86.4436 169.558C87.1786 169.848 88.2383 170.25 89.563 170.72C92.2125 171.669 95.9217 172.831 100.101 173.797C104.28 174.754 108.135 175.327 110.929 175.634C112.331 175.788 113.459 175.891 114.245 175.95C114.596 175.976 114.886 176.002 115.151 176.027C115.356 176.053 115.468 176.07 115.468 176.07Z" fill="white"/>
<path d="M145.355 127.577C145.355 127.577 145.004 128.158 144.244 129.132C143.491 130.107 142.261 131.423 140.534 132.79C138.817 134.166 136.552 135.534 133.902 136.756C131.253 137.978 128.227 139.038 125.014 140.004C121.792 140.952 118.707 141.798 115.946 142.713C113.186 143.619 110.75 144.584 108.784 145.567C106.818 146.55 105.314 147.499 104.323 148.225C103.81 148.567 103.46 148.883 103.195 149.08C102.938 149.277 102.793 149.371 102.793 149.371C102.793 149.371 103.297 148.909 104.28 148.165C105.263 147.422 106.767 146.448 108.724 145.448C110.681 144.439 113.126 143.465 115.886 142.542C118.647 141.619 121.732 140.773 124.954 139.816C128.168 138.858 131.185 137.799 133.825 136.593C136.458 135.38 138.723 134.038 140.449 132.679C142.175 131.329 143.415 130.038 144.175 129.073C144.585 128.611 144.833 128.201 145.038 127.953C145.244 127.705 145.355 127.577 145.355 127.577Z" fill="white"/>
<path d="M230.863 133.944C230.863 133.944 230.735 133.884 230.504 133.747C230.265 133.619 229.931 133.397 229.478 133.175C228.581 132.688 227.239 132.047 225.513 131.457C223.786 130.859 221.675 130.303 219.299 129.859C216.923 129.406 214.283 129.055 211.514 128.662C206.01 127.884 201.027 127.175 197.335 126.654C195.574 126.397 194.121 126.184 193.044 126.021C192.583 125.953 192.198 125.893 191.882 125.842C191.617 125.799 191.48 125.765 191.48 125.765C191.48 125.765 191.626 125.773 191.891 125.808C192.207 125.85 192.6 125.893 193.062 125.953C194.147 126.098 195.6 126.295 197.36 126.526C201.053 127.038 206.035 127.722 211.539 128.483C214.308 128.867 216.949 129.226 219.325 129.688C221.71 130.141 223.82 130.713 225.555 131.329C227.29 131.935 228.624 132.602 229.512 133.106C230.401 133.619 230.863 133.944 230.863 133.944Z" fill="white"/>
<path d="M211.487 143.379C211.487 143.379 211.171 143.524 210.564 143.798C209.958 144.071 209.052 144.456 207.881 144.926C205.531 145.858 202.103 147.14 197.762 148.413C193.42 149.678 188.19 150.994 182.267 151.832C176.344 152.738 169.738 152.738 162.849 152.515C155.961 152.293 149.388 151.994 143.423 152.37C137.466 152.721 132.142 153.755 127.868 155.208C123.578 156.635 120.382 158.481 118.305 159.9C117.279 160.635 116.493 161.224 115.997 161.66C115.484 162.087 115.211 162.301 115.211 162.301C115.211 162.301 115.467 162.07 115.972 161.635C116.467 161.182 117.245 160.592 118.271 159.84C120.339 158.395 123.544 156.532 127.834 155.088C132.116 153.618 137.449 152.567 143.414 152.208C149.388 151.823 155.969 152.122 162.858 152.344C169.746 152.575 176.336 152.575 182.241 151.678C188.155 150.849 193.386 149.55 197.728 148.302C202.069 147.046 205.505 145.781 207.855 144.875C209.035 144.413 209.941 144.046 210.556 143.781C211.163 143.507 211.487 143.379 211.487 143.379Z" fill="white"/>
<path d="M224.606 151.738C224.606 151.746 224.555 151.763 224.452 151.806C224.307 151.857 224.162 151.917 223.999 151.977C223.606 152.122 223.034 152.31 222.316 152.515C220.889 152.917 218.854 153.37 216.564 153.396C214.274 153.421 212.231 152.994 210.804 152.567C210.086 152.353 209.522 152.156 209.129 152.002C208.975 151.943 208.829 151.883 208.684 151.823C208.582 151.78 208.53 151.755 208.53 151.746C208.53 151.738 208.59 151.755 208.693 151.789C208.838 151.84 208.992 151.883 209.146 151.934C209.539 152.071 210.111 152.25 210.829 152.447C212.257 152.84 214.282 153.242 216.547 153.216C218.812 153.19 220.829 152.763 222.265 152.396C222.982 152.208 223.564 152.037 223.957 151.917C224.119 151.866 224.273 151.823 224.418 151.78C224.546 151.746 224.598 151.738 224.606 151.738Z" fill="white"/>
<path d="M197.642 175.924C197.642 175.924 193.539 176.787 186.847 177.787C183.497 178.291 179.497 178.787 175.045 179.232C170.592 179.65 165.678 180.009 160.516 180.206C155.353 180.385 150.431 180.385 145.952 180.291C141.474 180.172 137.448 179.967 134.073 179.702C127.321 179.189 123.176 178.625 123.176 178.625C123.176 178.625 123.441 178.642 123.936 178.685C124.475 178.736 125.193 178.813 126.107 178.898C127.987 179.095 130.714 179.334 134.09 179.573C137.466 179.821 141.491 180.009 145.961 180.12C150.431 180.206 155.353 180.206 160.516 180.026C165.669 179.83 170.583 179.479 175.036 179.069C179.489 178.633 183.489 178.146 186.839 177.659C190.189 177.18 192.89 176.745 194.753 176.411C195.659 176.257 196.368 176.129 196.898 176.044C197.377 175.958 197.642 175.924 197.642 175.924Z" fill="white"/>
<path d="M231.111 173.497C231.111 173.497 231 173.514 230.803 173.514C230.547 173.522 230.256 173.531 229.914 173.539C229.136 173.565 228.017 173.574 226.632 173.574C223.863 173.565 220.034 173.462 215.821 173.103C211.608 172.736 207.821 172.172 205.095 171.676C203.736 171.428 202.634 171.215 201.873 171.052C201.54 170.975 201.258 170.916 201.001 170.864C200.805 170.822 200.702 170.787 200.702 170.787C200.702 170.787 200.813 170.796 201.01 170.83C201.266 170.873 201.548 170.924 201.89 170.984C202.736 171.138 203.822 171.326 205.121 171.557C207.847 172.018 211.633 172.565 215.838 172.924C220.043 173.283 223.863 173.403 226.632 173.445C227.948 173.454 229.051 173.462 229.906 173.471C230.247 173.471 230.538 173.48 230.794 173.48C231.008 173.488 231.111 173.497 231.111 173.497Z" fill="white"/>
<path d="M188.42 208.726C188.42 208.726 188.181 208.769 187.72 208.837C187.215 208.905 186.549 208.999 185.703 209.119C184.831 209.247 183.754 209.392 182.506 209.478C181.25 209.563 179.831 209.743 178.25 209.769C176.669 209.82 174.943 209.914 173.079 209.88C172.148 209.871 171.191 209.888 170.199 209.863C169.208 209.828 168.191 209.794 167.148 209.76C162.978 209.589 158.388 209.273 153.585 208.854C148.782 208.452 144.209 208.034 140.039 207.752C135.868 207.495 132.116 207.316 128.954 207.367C128.168 207.375 127.415 207.375 126.706 207.384C125.997 207.418 125.33 207.452 124.698 207.487C123.441 207.538 122.364 207.598 121.493 207.709C120.647 207.794 119.971 207.863 119.467 207.905C119.006 207.948 118.758 207.965 118.758 207.965C118.758 207.965 118.997 207.931 119.459 207.871C119.963 207.811 120.638 207.734 121.484 207.64C122.364 207.521 123.441 207.452 124.698 207.393C125.33 207.358 125.997 207.316 126.706 207.281C127.415 207.273 128.168 207.264 128.962 207.256C132.125 207.196 135.885 207.358 140.056 207.606C144.226 207.871 148.799 208.29 153.602 208.692C158.405 209.11 162.986 209.435 167.157 209.606C168.199 209.64 169.216 209.675 170.208 209.717C171.199 209.743 172.156 209.734 173.088 209.743C174.943 209.777 176.669 209.7 178.25 209.657C179.831 209.64 181.25 209.469 182.498 209.392C183.754 209.324 184.822 209.187 185.694 209.068C186.54 208.965 187.215 208.88 187.711 208.82C188.173 208.751 188.42 208.726 188.42 208.726Z" fill="white"/>
<path d="M238.734 198.692C238.734 198.692 238.606 198.717 238.358 198.743C238.059 198.777 237.7 198.811 237.273 198.863C236.324 198.965 234.957 199.076 233.256 199.196C229.863 199.427 225.162 199.598 219.975 199.461C214.787 199.324 210.095 198.905 206.719 198.495C205.027 198.29 203.668 198.102 202.728 197.957C202.3 197.888 201.95 197.829 201.651 197.786C201.403 197.743 201.275 197.718 201.275 197.718C201.275 197.718 201.403 197.726 201.66 197.752C201.959 197.794 202.318 197.837 202.745 197.888C203.685 198.017 205.052 198.188 206.736 198.376C210.112 198.752 214.796 199.145 219.975 199.282C225.154 199.418 229.854 199.264 233.247 199.068C234.94 198.965 236.316 198.871 237.264 198.794C237.692 198.76 238.051 198.735 238.358 198.709C238.606 198.692 238.734 198.692 238.734 198.692Z" fill="white"/>
<path d="M239.341 229.75C239.341 229.75 238.914 229.733 238.093 229.674C237.273 229.631 236.068 229.503 234.512 229.46C231.401 229.297 226.897 229.263 221.334 229.537C215.77 229.802 209.172 230.468 201.882 231.426C194.583 232.374 186.583 233.631 178.157 234.716C169.73 235.784 161.645 236.468 154.278 236.536C146.911 236.605 140.27 236.083 134.783 235.126C129.296 234.178 124.937 232.955 122.006 231.904C121.262 231.673 120.613 231.426 120.057 231.195C119.51 230.981 119.04 230.793 118.647 230.639C117.887 230.34 117.485 230.169 117.485 230.169C117.485 230.169 117.887 230.315 118.656 230.605C119.049 230.75 119.519 230.938 120.074 231.144C120.63 231.366 121.28 231.605 122.023 231.836C124.955 232.87 129.313 234.075 134.8 234.998C140.287 235.938 146.911 236.442 154.269 236.374C161.628 236.306 169.704 235.613 178.131 234.545C186.558 233.46 194.549 232.212 201.856 231.272C209.155 230.323 215.761 229.665 221.325 229.417C226.889 229.161 231.401 229.212 234.512 229.391C237.623 229.571 239.341 229.75 239.341 229.75Z" fill="white"/>
<path d="M192.343 261.663C192.343 261.663 188.233 262.364 181.532 263.082C178.182 263.449 174.182 263.774 169.738 264.03C165.294 264.261 160.397 264.406 155.252 264.372C150.107 264.329 145.218 264.116 140.774 263.817C136.33 263.5 132.338 263.116 128.997 262.706C122.313 261.894 118.211 261.133 118.211 261.133C118.211 261.133 118.467 261.159 118.963 261.227C119.493 261.304 120.211 261.407 121.108 261.543C122.04 261.689 123.176 261.851 124.501 262.022C125.826 262.193 127.339 262.406 129.005 262.586C132.347 262.979 136.338 263.355 140.782 263.663C145.226 263.945 150.115 264.159 155.252 264.201C160.388 264.227 165.277 264.09 169.721 263.868C174.165 263.62 178.165 263.312 181.506 262.962C183.182 262.808 184.694 262.62 186.019 262.466C187.352 262.321 188.489 262.167 189.421 262.039C190.326 261.919 191.044 261.825 191.574 261.757C192.087 261.689 192.343 261.663 192.343 261.663Z" fill="white"/>
<path d="M238.828 255.544C238.828 255.544 238.674 255.604 238.375 255.698C238.025 255.8 237.589 255.937 237.059 256.091C235.922 256.433 234.256 256.903 232.205 257.458C228.085 258.561 222.359 259.928 215.958 261.108C209.556 262.279 203.711 263.031 199.472 263.458C197.352 263.672 195.634 263.826 194.446 263.902C193.891 263.937 193.438 263.971 193.079 263.996C192.762 264.014 192.6 264.014 192.6 264.014C192.6 264.014 192.762 263.988 193.079 263.954C193.438 263.92 193.891 263.877 194.446 263.826C195.634 263.723 197.352 263.552 199.463 263.321C203.693 262.86 209.531 262.091 215.924 260.92C222.316 259.749 228.043 258.398 232.171 257.33C234.23 256.792 235.897 256.347 237.042 256.023C237.58 255.877 238.016 255.758 238.367 255.655C238.666 255.578 238.828 255.544 238.828 255.544Z" fill="white"/>
<path d="M159.738 297.293C159.738 297.293 157.217 297.729 153.089 297.943C151.029 298.063 148.559 298.071 145.833 297.951C143.107 297.806 140.115 297.516 136.996 297.003C133.885 296.473 130.962 295.772 128.33 295.02C125.706 294.242 123.381 293.43 121.476 292.653C117.647 291.106 115.399 289.866 115.399 289.866C115.399 289.866 115.544 289.926 115.826 290.054C116.151 290.2 116.544 290.388 117.031 290.619C117.553 290.866 118.194 291.166 118.946 291.482C119.698 291.798 120.552 292.191 121.518 292.542C123.433 293.311 125.757 294.106 128.373 294.875C130.996 295.618 133.919 296.311 137.022 296.84C140.124 297.353 143.115 297.644 145.833 297.798C148.559 297.926 151.012 297.926 153.072 297.823C154.106 297.806 155.029 297.712 155.85 297.661C156.67 297.61 157.371 297.541 157.944 297.473C158.473 297.422 158.909 297.37 159.268 297.336C159.584 297.302 159.738 297.293 159.738 297.293Z" fill="white"/>
<path d="M241.955 295.115C241.955 295.115 241.665 295.174 241.109 295.26C240.52 295.354 239.699 295.482 238.665 295.653C236.546 295.995 233.469 296.456 229.666 297.003C222.059 298.089 211.521 299.439 199.855 300.601C188.181 301.755 177.592 302.507 169.917 302.926C166.079 303.14 162.977 303.294 160.823 303.37C159.781 303.413 158.952 303.439 158.353 303.464C157.789 303.482 157.49 303.482 157.49 303.482C157.49 303.482 157.789 303.456 158.353 303.422C158.952 303.388 159.781 303.345 160.823 303.294C163.003 303.174 166.097 303.003 169.908 302.789C177.575 302.328 188.164 301.567 199.838 300.413C211.504 299.251 222.034 297.926 229.649 296.867C233.426 296.328 236.494 295.884 238.657 295.576C239.691 295.422 240.511 295.303 241.101 295.217C241.665 295.149 241.955 295.115 241.955 295.115Z" fill="white"/>
<path d="M246.434 326.591C246.434 326.591 244.563 326.984 241.161 327.54C237.751 328.095 232.803 328.788 226.658 329.3C220.504 329.813 213.154 330.095 204.992 329.83C196.83 329.565 187.899 328.659 178.558 327.514C169.208 326.369 160.311 325.215 152.183 324.574C144.056 323.916 136.697 323.788 130.535 324.096C124.373 324.412 119.424 325.113 116.032 325.754C114.339 326.078 113.023 326.352 112.143 326.566C111.254 326.771 110.792 326.865 110.792 326.865C110.792 326.865 111.254 326.745 112.134 326.531C113.015 326.301 114.322 326.019 116.014 325.685C119.399 325.019 124.356 324.301 130.518 323.967C136.68 323.651 144.047 323.762 152.183 324.412C160.32 325.036 169.225 326.189 178.566 327.335C187.908 328.48 196.83 329.394 204.984 329.668C213.137 329.941 220.487 329.668 226.632 329.181C232.777 328.685 237.734 328.01 241.135 327.48C242.836 327.206 244.161 326.993 245.058 326.83C245.964 326.668 246.434 326.591 246.434 326.591Z" fill="white"/>
<path d="M271.51 150.985C271.51 150.985 271.262 151.66 270.706 152.848C270.159 154.028 269.236 155.686 267.912 157.609C266.596 159.54 264.835 161.694 262.767 163.976C260.698 166.266 258.323 168.676 255.912 171.292C253.511 173.907 251.366 176.539 249.673 179.112C247.99 181.684 246.742 184.18 245.998 186.385C245.246 188.581 244.913 190.453 244.81 191.752C244.725 192.402 244.751 192.906 244.725 193.248C244.708 193.59 244.691 193.769 244.691 193.769C244.691 193.769 244.657 193.043 244.742 191.743C244.819 190.444 245.135 188.564 245.879 186.342C246.605 184.12 247.853 181.607 249.537 179.018C251.229 176.428 253.366 173.787 255.776 171.172C258.194 168.557 260.57 166.147 262.639 163.873C264.707 161.6 266.476 159.455 267.801 157.54C269.134 155.634 270.065 153.993 270.63 152.823C270.937 152.25 271.117 151.771 271.271 151.464C271.424 151.139 271.51 150.985 271.51 150.985Z" fill="white"/>
<path d="M232.145 165.711C232.145 165.711 232.239 165.634 232.436 165.497C232.675 165.335 232.957 165.147 233.29 164.916C234.034 164.429 235.085 163.668 236.35 162.702C237.623 161.737 239.076 160.514 240.623 159.079C242.162 157.634 243.777 155.976 245.366 154.122C246.939 152.259 248.324 150.395 249.512 148.652C250.674 146.891 251.657 145.267 252.409 143.857C253.169 142.456 253.742 141.293 254.11 140.481C254.28 140.114 254.426 139.815 254.545 139.55C254.648 139.336 254.708 139.234 254.708 139.234C254.708 139.234 254.007 141.088 252.52 143.917C251.776 145.336 250.811 146.977 249.648 148.746C248.469 150.498 247.084 152.378 245.503 154.241C243.914 156.096 242.281 157.754 240.734 159.198C239.17 160.626 237.709 161.848 236.427 162.796C233.863 164.728 232.145 165.711 232.145 165.711Z" fill="white"/>
<path d="M171.063 205.675C171.063 205.666 171.132 205.632 171.269 205.581C171.431 205.521 171.636 205.444 171.884 205.341C172.431 205.153 173.217 204.812 174.217 204.35C176.183 203.376 178.935 201.701 181.781 198.974C184.644 196.274 187.592 192.59 190.438 188.231C193.302 183.873 196.165 178.898 198.874 173.531C204.309 162.78 208.164 152.55 210.856 145.14C212.206 141.431 213.249 138.414 213.984 136.328C214.343 135.311 214.625 134.508 214.83 133.927C214.924 133.67 215.001 133.465 215.061 133.303C215.112 133.166 215.146 133.098 215.155 133.098C215.164 133.098 215.146 133.175 215.104 133.32C215.052 133.482 214.993 133.696 214.916 133.952C214.728 134.533 214.471 135.345 214.146 136.38C213.463 138.482 212.463 141.516 211.147 145.242C208.523 152.686 204.711 162.951 199.258 173.728C196.532 179.112 193.652 184.095 190.763 188.453C187.883 192.821 184.9 196.513 181.977 199.196C179.089 201.914 176.277 203.572 174.277 204.504C173.26 204.948 172.465 205.273 171.901 205.427C171.645 205.504 171.431 205.572 171.269 205.623C171.14 205.666 171.063 205.683 171.063 205.675Z" fill="#455A64"/>
<path d="M169.636 223.759C169.628 223.751 169.79 223.622 170.106 223.4C170.457 223.161 170.918 222.845 171.482 222.443C172.679 221.605 174.396 220.392 176.456 218.802C180.601 215.649 186.045 210.939 191.891 205.564C194.823 202.88 197.634 200.342 200.07 197.915C202.506 195.487 204.549 193.154 206.096 191.069C207.66 188.992 208.719 187.172 209.394 185.881C209.753 185.249 209.976 184.727 210.155 184.385C210.326 184.044 210.42 183.864 210.437 183.873C210.454 183.881 210.377 184.069 210.232 184.42C210.078 184.77 209.882 185.308 209.548 185.958C208.916 187.274 207.882 189.129 206.343 191.248C204.814 193.368 202.779 195.735 200.352 198.188C197.925 200.649 195.113 203.196 192.182 205.88C186.327 211.264 180.841 215.948 176.636 219.042C174.542 220.597 172.798 221.785 171.568 222.58C170.952 222.973 170.465 223.264 170.14 223.469C169.816 223.674 169.636 223.768 169.636 223.759Z" fill="#455A64"/>
<path d="M146.569 315.13C146.561 315.13 146.595 315.062 146.672 314.934C146.757 314.788 146.868 314.609 147.005 314.395C147.304 313.925 147.766 313.233 148.381 312.37C149.62 310.635 151.526 308.207 154.039 305.344C159.107 299.652 166.201 291.901 174.021 283.32C181.858 274.765 188.951 267.022 194.113 261.39C196.686 258.62 198.771 256.364 200.241 254.775C200.951 254.022 201.515 253.424 201.925 252.988C202.104 252.8 202.25 252.655 202.369 252.535C202.472 252.433 202.523 252.382 202.532 252.39C202.54 252.399 202.489 252.458 202.404 252.561C202.292 252.689 202.156 252.852 201.993 253.048C201.6 253.493 201.062 254.108 200.369 254.886C198.925 256.492 196.874 258.774 194.344 261.586C189.208 267.244 182.148 275.013 174.345 283.593C166.517 292.149 159.432 299.9 154.278 305.532C151.74 308.361 149.8 310.754 148.526 312.455C147.894 313.31 147.407 313.976 147.082 314.438C146.928 314.651 146.808 314.822 146.714 314.959C146.629 315.079 146.578 315.13 146.569 315.13Z" fill="#455A64"/>
<path d="M226.351 161.523C226.325 161.532 226.205 161.07 226.026 160.224C225.932 159.806 225.829 159.284 225.752 158.677C225.675 158.071 225.556 157.378 225.513 156.609C225.445 155.84 225.385 154.994 225.393 154.088C225.359 153.182 225.419 152.208 225.462 151.191C225.616 149.157 225.932 146.917 226.487 144.627C227.069 142.336 227.838 140.217 228.658 138.345C229.094 137.422 229.496 136.533 229.957 135.747C230.376 134.944 230.829 134.226 231.248 133.576C231.641 132.91 232.077 132.363 232.427 131.858C232.778 131.354 233.111 130.944 233.393 130.619C233.949 129.961 234.265 129.602 234.29 129.619C234.316 129.636 234.043 130.029 233.53 130.722C233.273 131.064 232.957 131.482 232.624 131.995C232.29 132.508 231.88 133.063 231.504 133.73C231.103 134.388 230.675 135.106 230.274 135.909C229.838 136.696 229.453 137.576 229.026 138.499C228.231 140.362 227.487 142.456 226.906 144.721C226.351 146.986 226.034 149.191 225.855 151.208C225.804 152.216 225.727 153.173 225.744 154.079C225.727 154.977 225.769 155.814 225.812 156.584C225.829 157.353 225.932 158.036 225.992 158.643C226.043 159.25 226.12 159.771 226.188 160.19C226.325 161.045 226.385 161.515 226.351 161.523Z" fill="#455A64"/>
<path d="M238.786 192.188C238.675 192.231 237.136 188.838 235.35 184.599C233.564 180.359 232.196 176.89 232.308 176.847C232.419 176.804 233.957 180.197 235.743 184.436C237.538 188.667 238.897 192.137 238.786 192.188Z" fill="#455A64"/>
<path d="M116.613 165.087C116.545 165.121 115.878 163.899 114.622 162.045C113.366 160.19 111.46 157.746 109.015 155.361C106.563 152.985 104.059 151.156 102.17 149.96C100.281 148.755 99.0417 148.131 99.0759 148.063C99.093 148.037 99.4092 148.174 99.9818 148.439C100.554 148.704 101.366 149.131 102.332 149.704C104.281 150.84 106.845 152.661 109.323 155.062C111.793 157.472 113.69 159.976 114.887 161.891C115.485 162.848 115.938 163.634 116.22 164.207C116.494 164.763 116.639 165.079 116.613 165.087Z" fill="#455A64"/>
<path d="M150.192 144.883C150.175 144.883 150.141 144.55 150.184 144.003C150.226 143.465 150.38 142.712 150.705 141.943C151.132 140.892 151.782 140.123 152.141 139.772L152.192 139.73L152.218 139.79C152.32 140.029 152.363 140.157 152.346 140.166C152.329 140.174 152.261 140.055 152.132 139.824L152.201 139.832C151.884 140.217 151.286 140.986 150.859 142.012C150.218 143.524 150.252 144.892 150.192 144.883Z" fill="#455A64"/>
<path d="M161.508 150.746C161.491 150.746 161.397 150.43 161.328 149.891C161.268 149.353 161.251 148.601 161.379 147.789C161.508 146.977 161.747 146.259 161.969 145.772C162.191 145.276 162.379 145.003 162.396 145.011C162.448 145.037 161.798 146.208 161.55 147.815C161.294 149.421 161.567 150.738 161.508 150.746Z" fill="#455A64"/>
<path d="M173.84 149.772C173.78 149.772 173.866 148.678 173.515 147.396C173.173 146.114 172.541 145.217 172.592 145.183C172.609 145.174 172.789 145.379 173.02 145.755C173.25 146.132 173.515 146.696 173.695 147.345C173.874 147.995 173.934 148.61 173.926 149.054C173.908 149.507 173.866 149.772 173.84 149.772Z" fill="#455A64"/>
<path d="M184.626 145.046C184.575 145.071 184.207 143.969 183.344 142.875C182.489 141.772 181.515 141.148 181.549 141.106C181.558 141.089 181.814 141.217 182.19 141.49C182.566 141.764 183.045 142.2 183.481 142.764C183.917 143.328 184.224 143.9 184.404 144.328C184.583 144.755 184.643 145.037 184.626 145.046Z" fill="#455A64"/>
<path d="M192.053 137.721C192.002 137.756 191.788 136.414 190.575 135.388C189.387 134.345 188.028 134.328 188.054 134.269C188.054 134.26 188.13 134.251 188.276 134.251C188.421 134.251 188.635 134.277 188.883 134.328C189.395 134.439 190.079 134.73 190.686 135.251C191.293 135.773 191.677 136.414 191.857 136.901C191.951 137.14 192.002 137.345 192.028 137.491C192.053 137.644 192.062 137.721 192.053 137.721Z" fill="#455A64"/>
<path d="M196.027 124.192C196.002 124.243 195.173 123.363 193.78 123.115C192.387 122.842 191.301 123.372 191.293 123.32C191.25 123.295 192.352 122.662 193.805 122.944C195.267 123.201 196.079 124.184 196.027 124.192Z" fill="#455A64"/>
<path d="M142.774 135.764C142.757 135.764 142.791 135.474 142.953 135.029C143.116 134.593 143.432 134.012 143.919 133.482C144.406 132.952 144.953 132.593 145.381 132.397C145.808 132.2 146.09 132.14 146.099 132.158C146.124 132.209 144.996 132.568 144.056 133.61C143.09 134.636 142.825 135.79 142.774 135.764Z" fill="#455A64"/>
<path d="M140.073 126.756C140.056 126.748 140.193 126.466 140.501 126.064C140.808 125.662 141.295 125.158 141.928 124.731C142.569 124.303 143.218 124.03 143.705 123.902C144.193 123.765 144.5 123.748 144.5 123.765C144.517 123.825 143.278 124.021 142.03 124.876C140.765 125.722 140.116 126.799 140.073 126.756Z" fill="#455A64"/>
<path d="M118.827 179.283C118.818 179.292 118.784 179.24 118.767 179.292C118.741 179.343 118.716 179.445 118.698 179.574C118.656 179.83 118.604 180.223 118.562 180.719C118.459 181.719 118.348 183.18 118.228 184.975C117.981 188.573 117.699 193.547 117.434 199.051C117.169 204.555 116.972 209.538 116.844 213.136C116.784 214.888 116.741 216.324 116.707 217.409C116.69 217.871 116.673 218.255 116.656 218.571C116.639 218.836 116.622 218.973 116.613 218.973C116.596 218.973 116.579 218.836 116.57 218.571C116.562 218.255 116.545 217.871 116.536 217.409C116.519 216.401 116.511 214.939 116.536 213.136C116.579 209.521 116.724 204.538 116.998 199.034C117.263 193.53 117.596 188.556 117.921 184.958C118.083 183.163 118.246 181.702 118.399 180.702C118.476 180.198 118.553 179.813 118.622 179.557C118.656 179.428 118.69 179.326 118.741 179.266C118.818 179.18 118.844 179.3 118.827 179.283Z" fill="#6654A4"/>
<path d="M212.992 6.65182C205.865 4.47246 198.438 10.8567 191.122 9.42089C186.678 8.54915 183.327 5.00234 179.37 2.79734C173.465 -0.501618 165.106 -1.04005 159.064 2.02815C153.03 5.09635 149.141 8.36967 148.312 15.0872C142.817 11.9336 133.655 18.8477 130.527 25.5225C127.408 32.1974 128.185 39.0944 129.963 46.2479C133.014 58.5634 138.509 70.2636 146.039 80.4681C146.706 81.3741 147.774 82.374 148.791 81.8954C149.492 81.5621 149.723 80.6903 149.851 79.9211C150.902 73.3831 150.073 66.7082 149.509 60.1103C148.945 53.5124 148.663 46.7094 150.748 40.4191C152.833 34.1289 157.748 28.3942 164.252 27.1122C169.055 26.1635 174.037 27.7275 178.302 30.1206C182.567 32.5136 186.319 35.7185 190.378 38.4449C194.438 41.1712 199.002 43.4702 203.89 43.6839C208.779 43.8976 214.018 41.59 216.103 37.1629C218.189 32.7358 215.847 26.4456 211.061 25.4285C215.454 25.0268 219.291 21.2236 219.744 16.8393C220.197 12.4464 217.206 7.94235 212.992 6.65182Z" fill="#263238"/>
<path d="M191.002 121.303L190.31 107.15C190.31 107.15 208.959 103.578 208.531 84.8183C208.326 75.759 206.386 57.1447 204.429 40.3166C202.326 22.215 186.686 8.76282 168.474 9.40381L166.662 9.46364C147.193 11.284 137.869 28.8386 140.227 48.2478L144.714 123.808C145.466 136.525 156.346 146.242 169.072 145.567C181.823 144.9 191.626 134.046 191.002 121.303Z" fill="#FFBE9D"/>
<path d="M190.336 107.142C190.336 107.142 178.516 108.518 165.645 101.049C165.645 101.049 171.893 114.338 190.55 111.997L190.336 107.142Z" fill="#EB996E"/>
<path d="M198.121 53.0345C198.224 54.4446 197.104 55.6924 195.634 55.8292C194.164 55.9574 192.891 54.9232 192.788 53.5131C192.686 52.1029 193.805 50.8466 195.275 50.7184C196.745 50.5816 198.019 51.6243 198.121 53.0345Z" fill="#263238"/>
<path d="M200.728 49.6244C200.412 49.9833 198.327 48.5561 195.447 48.6672C192.566 48.7355 190.507 50.291 190.182 49.9491C190.02 49.7953 190.336 49.1543 191.233 48.4535C192.113 47.7527 193.643 47.0519 195.438 46.992C197.233 46.9408 198.763 47.5476 199.66 48.1886C200.566 48.8381 200.882 49.462 200.728 49.6244Z" fill="#263238"/>
<path d="M169.815 55.0013C169.918 56.4114 168.798 57.6592 167.328 57.796C165.858 57.9242 164.585 56.89 164.482 55.4799C164.38 54.0697 165.499 52.8133 166.969 52.6851C168.439 52.5484 169.713 53.5911 169.815 55.0013Z" fill="#263238"/>
<path d="M172.422 51.1544C172.106 51.5134 170.021 50.0861 167.14 50.1972C164.26 50.2656 162.201 51.821 161.876 51.4792C161.713 51.3253 162.03 50.6843 162.927 49.9835C163.807 49.2827 165.329 48.5819 167.132 48.5221C168.927 48.4708 170.456 49.0776 171.354 49.7186C172.26 50.3767 172.585 50.992 172.422 51.1544Z" fill="#263238"/>
<path d="M183.627 72.1612C183.61 71.9988 185.388 71.6228 188.276 71.1527C189.011 71.0502 189.704 70.8792 189.806 70.375C189.96 69.8365 189.627 69.0588 189.242 68.2127C188.49 66.4607 187.695 64.6146 186.866 62.6831C183.567 54.8118 181.149 48.3335 181.465 48.1968C181.781 48.0686 184.721 54.3417 188.02 62.213C188.815 64.1531 189.575 66.0077 190.302 67.7768C190.61 68.6058 191.122 69.5374 190.789 70.6485C190.61 71.204 190.088 71.6228 189.618 71.7681C189.148 71.9304 188.738 71.9475 188.37 71.9817C185.456 72.2467 183.644 72.3236 183.627 72.1612Z" fill="#263238"/>
<path d="M175.217 74.4516C175.687 74.4089 175.799 77.5369 178.559 79.665C181.311 81.8016 184.627 81.3316 184.67 81.7674C184.721 81.964 183.952 82.3999 182.542 82.4853C181.166 82.5793 179.132 82.2118 177.448 80.9042C175.764 79.5966 175.004 77.8104 174.85 76.5284C174.688 75.2208 175.004 74.4345 175.217 74.4516Z" fill="#263238"/>
<path d="M172.191 36.3852C171.935 37.18 169.046 36.9065 165.678 37.4364C162.303 37.8979 159.61 38.9833 159.14 38.2911C158.927 37.9577 159.38 37.2056 160.457 36.4108C161.525 35.616 163.243 34.8383 165.26 34.5391C167.285 34.2486 169.148 34.5049 170.396 34.9579C171.653 35.4109 172.302 36.0091 172.191 36.3852Z" fill="#263238"/>
<path d="M199.378 41.3258C198.891 42.001 196.882 41.3856 194.498 41.4369C192.105 41.4027 190.105 42.0352 189.618 41.36C189.404 41.0352 189.694 40.3686 190.558 39.7191C191.404 39.0695 192.848 38.514 194.489 38.5055C196.13 38.4969 197.574 39.0439 198.429 39.6849C199.284 40.3344 199.591 40.9925 199.378 41.3258Z" fill="#263238"/>
<path d="M142.262 62.0848C141.937 61.9566 129.245 58.726 130.1 71.5287C130.963 84.3314 143.638 80.8274 143.638 80.4599C143.629 80.0924 142.262 62.0848 142.262 62.0848Z" fill="#FFBE9D"/>
<path d="M139.398 75.8709C139.338 75.8367 139.184 76.0418 138.817 76.2384C138.458 76.4349 137.834 76.5888 137.15 76.3837C135.766 75.982 134.484 73.9052 134.261 71.6062C134.15 70.4438 134.321 69.3157 134.672 68.367C134.996 67.4013 135.56 66.709 136.236 66.5381C136.902 66.333 137.415 66.709 137.594 67.0594C137.791 67.4098 137.723 67.6662 137.8 67.6833C137.834 67.7089 138.056 67.4526 137.919 66.9312C137.851 66.6834 137.68 66.3928 137.364 66.162C137.039 65.9313 136.577 65.8373 136.107 65.9227C135.125 66.0595 134.296 67.0252 133.911 68.0679C133.467 69.1191 133.253 70.384 133.381 71.6916C133.637 74.2641 135.116 76.5888 137.005 76.999C137.919 77.1699 138.654 76.8537 139.022 76.5204C139.398 76.1871 139.441 75.8965 139.398 75.8709Z" fill="#EB996E"/>
<path d="M208.266 36.2482C200.087 38.7352 190.728 36.9747 184.019 31.6758C179.319 27.9666 175.609 22.531 169.832 20.9756C165.943 19.9243 161.696 20.9072 158.243 22.9755C154.79 25.0437 152.038 28.1205 149.696 31.4023C153.653 40.8035 151.594 51.5294 149.474 61.5032C149.243 62.6057 148.953 63.7936 148.09 64.5115C146.611 65.7337 144.312 64.8961 142.945 63.5629C140.748 61.4263 139.817 58.3239 139.176 55.324C137.706 48.4954 137.278 41.3847 138.569 34.5304C139.859 27.6675 142.928 21.061 147.799 16.0613C153.893 9.81382 162.619 6.37812 171.336 6.20719C180.062 6.03625 188.72 9.01044 195.865 14.0187C199.181 16.3434 202.258 19.1808 204.052 22.8131" fill="#263238"/>
<path d="M218.53 10.9847C218.53 10.9847 218.624 11.3778 218.454 12.1043C218.291 12.8136 217.83 13.8734 216.753 14.8135C215.693 15.7536 214.001 16.4203 212.018 16.5827C211.027 16.6596 209.958 16.6681 208.83 16.4972C207.711 16.3177 206.514 15.9331 205.514 15.0956C204.54 14.2836 203.728 13.0102 203.788 11.5317C203.83 10.036 204.993 8.7284 206.394 8.16433C207.104 7.8652 207.89 7.71991 208.693 7.78828C209.488 7.85665 210.292 8.18997 210.933 8.70276C212.249 9.72834 212.941 11.4206 213.001 13.1213C213.069 14.8477 212.351 16.5912 211.146 17.8988C209.941 19.215 208.334 20.1551 206.591 20.6935C203.07 21.796 199.138 21.2576 195.6 19.8902C192.019 18.5313 188.874 16.4972 185.917 14.5144C182.96 12.5402 180.088 10.6428 177.123 9.32666C174.174 7.98485 171.106 7.31823 168.243 7.48916C165.38 7.66009 162.781 8.55747 160.645 9.72834C156.329 12.1214 153.859 15.4545 152.415 17.7535C151.688 18.9244 151.201 19.8816 150.885 20.5311C150.569 21.1807 150.406 21.5311 150.38 21.5225C150.372 21.5225 150.398 21.4285 150.466 21.2491C150.534 21.0781 150.628 20.8132 150.774 20.4799C151.056 19.8047 151.509 18.8218 152.209 17.6253C153.603 15.2665 156.047 11.8308 160.44 9.3352C162.619 8.11305 165.269 7.16439 168.226 6.96782C171.183 6.7627 174.362 7.43788 177.379 8.78823C180.413 10.1215 183.31 12.0274 186.276 13.9931C189.233 15.9673 192.335 17.9672 195.839 19.2919C199.301 20.6337 203.078 21.1379 206.429 20.0953C208.078 19.5825 209.599 18.7022 210.719 17.48C211.839 16.2664 212.497 14.7024 212.437 13.1299C212.394 11.5744 211.762 10.0446 210.608 9.13863C209.488 8.18142 207.89 8.11305 206.625 8.65148C205.352 9.15573 204.352 10.2924 204.309 11.5573C204.241 12.8222 204.95 13.9931 205.839 14.7537C206.745 15.5229 207.864 15.9075 208.933 16.0955C210.01 16.275 211.061 16.2835 212.027 16.2237C213.967 16.104 215.59 15.4972 216.625 14.6255C217.676 13.7538 218.163 12.7624 218.36 12.0786C218.53 11.3778 218.496 10.9847 218.53 10.9847Z" fill="#455A64"/>
<path d="M128.638 36.6418C128.681 36.5051 130.099 37.3255 132.586 37.5221C133.826 37.6076 135.313 37.4623 136.868 36.9239C138.424 36.4111 140.047 35.5308 141.594 34.4454C144.688 32.2062 146.363 28.9841 147.038 26.6082C147.739 24.1981 147.628 22.5999 147.748 22.6084C147.782 22.6084 147.842 23.0016 147.85 23.7195C147.85 24.4374 147.773 25.4801 147.466 26.7279C146.885 29.2063 145.201 32.6079 141.962 34.9582C140.355 36.0948 138.689 36.9751 137.039 37.4794C135.407 38.0093 133.826 38.1118 132.544 37.9665C131.253 37.8127 130.253 37.4708 129.604 37.1802C128.954 36.8897 128.621 36.676 128.638 36.6418Z" fill="#455A64"/>
<path d="M129.519 45.8973C129.536 45.7776 131.04 46.0596 133.45 45.8374C135.843 45.6323 139.176 44.7691 142.185 42.6325C145.184 40.4873 147.09 37.6157 148.065 35.4192C149.064 33.2142 149.287 31.6929 149.406 31.7186C149.44 31.7271 149.423 32.1032 149.304 32.7869C149.184 33.4706 148.936 34.4449 148.475 35.5902C147.586 37.8892 145.671 40.9146 142.552 43.1367C139.433 45.3588 135.946 46.1793 133.484 46.2733C132.245 46.3246 131.245 46.2477 130.561 46.1366C129.886 46.0426 129.519 45.9314 129.519 45.8973Z" fill="#455A64"/>
<path d="M163.277 63.7424C163.106 63.7852 162.935 63.6655 162.884 63.4775C162.841 63.2895 162.944 63.11 163.115 63.0673C163.286 63.0245 163.457 63.1442 163.508 63.3322C163.551 63.5202 163.448 63.6997 163.277 63.7424Z" fill="#EB996E"/>
<path d="M168.738 62.2984C168.567 62.3411 168.388 62.1958 168.336 61.9822C168.285 61.7685 168.379 61.5634 168.55 61.5207C168.721 61.4779 168.9 61.6232 168.952 61.8369C169.011 62.0505 168.909 62.2557 168.738 62.2984Z" fill="#EB996E"/>
<path d="M172.448 62.0758C172.277 62.1015 172.097 61.8964 172.055 61.6143C172.012 61.3323 172.114 61.0759 172.285 61.0503C172.456 61.0246 172.636 61.2297 172.679 61.5118C172.721 61.7938 172.619 62.0502 172.448 62.0758Z" fill="#EB996E"/>
<path d="M166.106 67.101C165.927 67.1096 165.781 67.0241 165.781 66.913C165.781 66.8019 165.918 66.7079 166.089 66.6993C166.268 66.6908 166.414 66.7762 166.414 66.8873C166.422 66.9984 166.285 67.0925 166.106 67.101Z" fill="#EB996E"/>
<path d="M171.114 65.7511C170.943 65.7767 170.781 65.6314 170.755 65.4349C170.73 65.2383 170.849 65.0588 171.029 65.0417C171.2 65.0246 171.362 65.1614 171.388 65.3579C171.413 65.5545 171.285 65.734 171.114 65.7511Z" fill="#EB996E"/>
<path d="M197.284 61.6915C197.113 61.7342 196.933 61.606 196.891 61.418C196.848 61.2214 196.95 61.0334 197.121 60.9992C197.292 60.9565 197.472 61.0847 197.514 61.2727C197.549 61.4693 197.455 61.6573 197.284 61.6915Z" fill="#EB996E"/>
<path d="M201.019 61.2218C200.848 61.2474 200.677 61.0851 200.651 60.8628C200.625 60.6406 200.737 60.4441 200.916 60.427C201.087 60.4013 201.258 60.5637 201.284 60.7859C201.309 60.9996 201.19 61.1962 201.019 61.2218Z" fill="#EB996E"/>
<path d="M193.968 61.905C193.797 61.9477 193.626 61.8537 193.592 61.7084C193.558 61.5546 193.669 61.4008 193.84 61.3666C194.011 61.3238 194.182 61.4178 194.216 61.5631C194.25 61.7084 194.139 61.8623 193.968 61.905Z" fill="#EB996E"/>
<path d="M196.882 65.5627C196.728 65.6396 196.523 65.5542 196.437 65.3747C196.352 65.1952 196.403 64.9816 196.566 64.9046C196.719 64.8277 196.925 64.9132 197.01 65.1012C197.095 65.2721 197.044 65.4858 196.882 65.5627Z" fill="#EB996E"/>
<path d="M200.062 64.8024C199.891 64.7596 199.78 64.6144 199.814 64.4691C199.848 64.3238 200.011 64.2383 200.182 64.281C200.353 64.3238 200.464 64.4691 200.43 64.6144C200.404 64.7596 200.233 64.8451 200.062 64.8024Z" fill="#EB996E"/>
<path d="M193.719 277.799L193.514 258.8C193.514 258.8 180.84 241.237 185.84 222.187C185.84 222.187 194.104 216.375 216.265 219.785C216.265 219.785 244.084 192.684 281.373 199.572C318.661 206.461 322.131 238.955 322.481 247.801C322.832 256.646 322.755 273.825 309.926 290.619L309.063 307.284C309.063 307.284 306.004 313.566 297.158 313.139C288.304 312.711 288.808 311.404 288.808 311.404C288.808 311.404 277.715 320.369 277.219 322.719C276.723 325.07 274.997 333.932 274.997 333.932C274.997 333.932 271.151 339.18 262.827 339.787C258.895 340.077 255.656 339.026 253.323 337.838C251.084 336.693 249.374 334.719 248.614 332.317C247.562 328.984 244.853 323.36 238.153 320.275L232.41 318.771C232.41 318.771 230.093 320.873 222.034 321.745C213.975 322.608 213.949 319.745 213.949 319.745C213.949 319.745 201.411 322.642 191.984 310.353C184.54 300.635 180.498 283.14 193.719 277.799Z" fill="#F05665"/>
<path d="M271.014 278.893C271.006 278.884 271.142 278.679 271.424 278.312C271.707 277.936 272.125 277.389 272.647 276.671C273.698 275.243 275.176 273.132 276.792 270.406C278.398 267.68 280.15 264.321 281.697 260.424C282.475 258.475 283.202 256.398 283.843 254.219C284.466 252.057 285.022 249.681 284.458 247.373C283.885 245.057 282.185 243.271 280.356 241.98C278.501 240.681 276.493 239.758 274.561 238.972C270.681 237.416 266.946 236.673 263.792 236.382C260.639 236.075 258.066 236.22 256.306 236.382C255.425 236.468 254.742 236.553 254.28 236.622C253.819 236.681 253.571 236.707 253.571 236.69C253.571 236.673 253.81 236.622 254.272 236.528C254.733 236.425 255.408 236.314 256.297 236.203C258.066 235.989 260.647 235.793 263.835 236.058C267.014 236.314 270.792 237.023 274.723 238.579C276.681 239.365 278.715 240.288 280.621 241.613C282.492 242.92 284.296 244.792 284.902 247.254C285.501 249.715 284.911 252.151 284.278 254.33C283.62 256.527 282.885 258.612 282.091 260.569C280.509 264.475 278.732 267.842 277.074 270.56C275.407 273.278 273.886 275.363 272.792 276.765C272.245 277.465 271.801 277.995 271.501 278.354C271.194 278.722 271.031 278.901 271.014 278.893Z" fill="#263238"/>
<path d="M218.881 220.606C218.889 220.606 218.949 220.751 219.009 221.05C219.069 221.349 219.12 221.794 219.069 222.375C218.975 223.52 218.376 225.187 216.941 226.691C215.539 228.229 213.42 229.486 211.36 231.178C209.274 232.861 207.121 234.878 205.112 237.237C201.07 241.929 198.403 246.938 196.891 250.689C196.13 252.57 195.617 254.134 195.284 255.219C195.13 255.723 195.01 256.142 194.908 256.475C194.814 256.757 194.762 256.911 194.745 256.903C194.728 256.903 194.754 256.74 194.822 256.45C194.899 256.108 195.002 255.689 195.121 255.168C195.403 254.065 195.873 252.476 196.608 250.57C198.061 246.767 200.702 241.681 204.788 236.938C206.813 234.562 209.001 232.528 211.12 230.853C213.231 229.161 215.351 227.939 216.736 226.469C218.154 225.041 218.778 223.452 218.923 222.349C219.043 221.23 218.821 220.606 218.881 220.606Z" fill="#263238"/>
<g opacity="0.5">
<path opacity="0.5" d="M233.785 222.93L245.126 225.828C245.126 225.828 261.732 207.162 279.971 202.444L273.142 200.829C273.142 200.829 251.109 204.701 233.785 222.93Z" fill="black"/>
</g>
<path d="M276.27 201.547C261.45 204.855 247.682 212.718 237.298 223.794L233.777 222.922C233.777 222.922 249.861 205.265 273.134 200.821L276.27 201.547Z" fill="#F05665"/>
<g opacity="0.7">
<g opacity="0.7">
<path opacity="0.7" d="M276.27 201.547C261.45 204.855 247.682 212.718 237.298 223.794L233.777 222.922C233.777 222.922 249.861 205.265 273.134 200.821L276.27 201.547Z" fill="black"/>
</g>
</g>
<path d="M188.241 281.67C194.531 272.679 210.282 275.423 217.47 283.516C224.555 291.49 227.854 302.729 223.17 312.318C221.17 316.412 217.342 320.027 212.786 319.925C217.461 314.891 219.119 307.626 217.658 300.909C216.196 294.2 211.966 288.277 206.616 283.969C203.906 281.781 200.855 279.38 197.385 279.038C193.924 278.688 191.138 278.594 188.241 281.67Z" fill="#F05665"/>
<g opacity="0.3">
<g opacity="0.3">
<path opacity="0.3" d="M188.241 281.67C194.531 272.679 210.282 275.423 217.47 283.516C224.555 291.49 227.854 302.729 223.17 312.318C221.17 316.412 217.342 320.027 212.786 319.925C217.461 314.891 219.119 307.626 217.658 300.909C216.196 294.2 211.966 288.277 206.616 283.969C203.906 281.781 200.855 279.38 197.385 279.038C193.924 278.688 191.138 278.594 188.241 281.67Z" fill="black"/>
</g>
</g>
<g opacity="0.3">
<g opacity="0.3">
<path opacity="0.3" d="M271.647 278.363C271.536 280.269 273.271 281.953 275.16 282.175C277.049 282.397 278.937 281.397 280.194 279.97C281.45 278.543 282.185 276.722 282.758 274.91C284.723 268.757 285.74 259.561 284.706 253.177C281.989 261.441 277.134 271.748 271.502 278.38" fill="black"/>
</g>
</g>
<g opacity="0.3">
<g opacity="0.3">
<path opacity="0.3" d="M277.604 249.946C276.382 246.331 272.638 244.228 269.032 242.972C265.365 241.69 261.511 240.938 257.639 240.733C256.417 240.664 255.161 240.664 254.007 241.092C252.862 241.519 251.827 242.451 251.622 243.656C251.451 244.63 251.981 245.707 252.836 246.134C259.015 253.27 263.664 261.723 266.399 270.765C266.929 272.517 269.151 272.996 270.365 271.611C273.271 268.295 274.946 263.825 276.45 259.586C277.552 256.467 278.664 253.065 277.604 249.946Z" fill="black"/>
</g>
</g>
<g opacity="0.3">
<g opacity="0.3">
<path opacity="0.3" d="M195.89 251.612C192.019 245.62 189.985 238.459 190.138 231.322C190.173 229.809 190.352 228.177 191.412 227.092C192.685 225.784 194.754 225.758 196.574 225.878C201.599 226.194 206.608 226.895 211.522 227.98C211.907 228.066 212.342 228.194 212.496 228.562C212.727 229.109 212.667 229.972 212.163 230.28C204.514 234.972 199.087 243.604 196.198 252.047" fill="black"/>
</g>
</g>
<path d="M186.361 222.862C186.395 222.862 186.37 223.324 186.301 224.153C186.225 224.982 186.156 226.178 186.105 227.657C186.002 230.614 186.096 234.716 186.857 239.169C187.25 241.391 187.771 243.476 188.336 245.348C188.917 247.211 189.523 248.869 190.105 250.228C190.686 251.587 191.181 252.681 191.558 253.416C191.925 254.159 192.113 254.578 192.087 254.595C192.062 254.612 191.822 254.219 191.404 253.501C190.976 252.783 190.429 251.707 189.814 250.356C189.19 249.006 188.549 247.348 187.942 245.468C187.353 243.587 186.814 241.485 186.421 239.237C185.652 234.75 185.609 230.605 185.797 227.631C185.891 226.144 186.011 224.947 186.139 224.127C186.25 223.315 186.327 222.862 186.361 222.862Z" fill="#FAFAFA"/>
<path d="M272.475 200.213C272.475 200.23 272.33 200.281 272.031 200.375C271.689 200.478 271.262 200.598 270.749 200.751C270.185 200.905 269.51 201.093 268.723 201.35C267.937 201.598 267.031 201.854 266.057 202.204C264.091 202.854 261.784 203.734 259.262 204.811C256.75 205.914 254.041 207.221 251.271 208.76C248.52 210.315 245.981 211.947 243.733 213.511C241.503 215.101 239.546 216.614 237.965 217.947C237.153 218.597 236.469 219.229 235.845 219.776C235.221 220.314 234.7 220.793 234.272 221.195C233.871 221.554 233.546 221.853 233.281 222.092C233.05 222.297 232.922 222.4 232.914 222.383C232.905 222.374 233.008 222.246 233.221 222.024C233.469 221.767 233.777 221.451 234.153 221.058C234.554 220.639 235.059 220.135 235.674 219.579C236.281 219.024 236.956 218.366 237.759 217.699C239.323 216.323 241.264 214.785 243.494 213.17C245.742 211.58 248.28 209.922 251.049 208.358C253.827 206.811 256.562 205.503 259.092 204.418C261.63 203.358 263.963 202.504 265.954 201.888C266.937 201.555 267.852 201.316 268.647 201.093C269.441 200.863 270.134 200.692 270.698 200.563C271.228 200.444 271.655 200.35 272.005 200.273C272.313 200.222 272.467 200.196 272.475 200.213Z" fill="#FAFAFA"/>
<path d="M282.441 245.373C282.373 245.45 281.082 244.134 278.604 242.553C277.381 241.741 275.817 240.946 274.04 240.168C272.253 239.408 270.211 238.767 268.031 238.271C263.656 237.288 259.545 237.305 256.63 237.587C253.708 237.887 251.938 238.374 251.913 238.28C251.904 238.254 252.34 238.117 253.143 237.912C253.938 237.69 255.126 237.468 256.588 237.271C259.519 236.904 263.681 236.835 268.117 237.835C270.33 238.339 272.39 238.998 274.194 239.792C275.98 240.596 277.552 241.433 278.766 242.288C279.074 242.493 279.364 242.698 279.638 242.886C279.894 243.091 280.142 243.288 280.381 243.476C280.851 243.835 281.236 244.16 281.526 244.459C282.142 245.031 282.458 245.356 282.441 245.373Z" fill="#FAFAFA"/>
<path d="M206.001 318.54C205.992 318.557 205.855 318.514 205.591 318.429C205.334 318.335 204.932 318.224 204.454 318.019C203.471 317.642 202.086 317.001 200.463 316.036C197.232 314.13 193.113 310.668 190.198 305.66C187.275 300.652 186.275 295.362 186.207 291.618C186.164 289.738 186.284 288.208 186.438 287.174C186.498 286.653 186.592 286.251 186.643 285.978C186.694 285.704 186.737 285.567 186.745 285.567C186.78 285.576 186.703 286.149 186.609 287.191C186.515 288.234 186.438 289.747 186.523 291.61C186.677 295.319 187.703 300.515 190.583 305.438C193.463 310.361 197.48 313.814 200.634 315.771C202.215 316.762 203.574 317.437 204.522 317.865C205.471 318.292 206.009 318.506 206.001 318.54Z" fill="#FAFAFA"/>
<g opacity="0.2">
<g opacity="0.2">
<path opacity="0.2" d="M208.24 298.798C206.933 298.302 205.36 298.764 204.411 299.789C203.463 300.815 203.104 302.319 203.326 303.695C203.548 305.08 203.967 306.268 204.958 307.25C205.642 307.926 206.83 308.567 207.779 308.626C209.095 308.712 210.308 307.763 210.949 306.601C211.701 305.242 211.838 303.55 211.308 302.097C210.77 300.635 209.693 299.345 208.24 298.798Z" fill="black"/>
</g>
</g>
<path d="M206.915 298.635C205.685 300.114 205.283 302.233 205.89 304.062C206.497 305.883 208.086 307.353 209.95 307.797C209.317 308.412 208.035 308.84 207.069 308.558C204.505 307.823 202.856 305.131 203.052 302.473C203.129 301.404 203.531 300.336 204.292 299.584C205.061 298.84 206.497 298.541 206.915 298.635Z" fill="#F05665"/>
<g opacity="0.4">
<g opacity="0.4">
<path opacity="0.4" d="M206.915 298.635C205.685 300.114 205.283 302.233 205.89 304.062C206.497 305.883 208.086 307.353 209.95 307.797C209.317 308.412 208.035 308.84 207.069 308.558C204.505 307.823 202.856 305.131 203.052 302.473C203.129 301.404 203.531 300.336 204.292 299.584C205.061 298.84 206.497 298.541 206.915 298.635Z" fill="black"/>
</g>
</g>
<g opacity="0.2">
<g opacity="0.2">
<path opacity="0.2" d="M195.643 293.935C194.378 293.456 192.865 293.901 191.951 294.892C191.028 295.884 190.686 297.328 190.908 298.661C191.122 299.994 191.524 301.148 192.481 302.097C193.139 302.746 194.284 303.37 195.207 303.422C196.481 303.499 197.643 302.584 198.267 301.473C198.993 300.165 199.121 298.533 198.609 297.123C198.087 295.713 197.045 294.465 195.643 293.935Z" fill="black"/>
</g>
</g>
<path d="M194.369 293.781C193.181 295.208 192.797 297.251 193.378 299.012C193.959 300.772 195.497 302.182 197.292 302.618C196.685 303.208 195.446 303.618 194.515 303.353C192.045 302.644 190.455 300.046 190.643 297.482C190.72 296.456 191.105 295.422 191.84 294.696C192.575 293.978 193.968 293.696 194.369 293.781Z" fill="#F05665"/>
<g opacity="0.4">
<g opacity="0.4">
<path opacity="0.4" d="M194.369 293.781C193.181 295.208 192.797 297.251 193.378 299.012C193.959 300.772 195.497 302.182 197.292 302.618C196.685 303.208 195.446 303.618 194.515 303.353C192.045 302.644 190.455 300.046 190.643 297.482C190.72 296.456 191.105 295.422 191.84 294.696C192.575 293.978 193.968 293.696 194.369 293.781Z" fill="black"/>
</g>
</g>
<path d="M229.623 269.885C229.691 269.868 229.554 269.894 229.623 269.885V269.885Z" fill="#263238"/>
<path d="M228.067 270.372C228.101 270.346 228.152 270.338 228.187 270.312C228.204 270.303 228.221 270.286 228.246 270.278L228.067 270.372Z" fill="#263238"/>
<path d="M234.529 273.081C234.084 272.004 233.358 270.987 232.315 270.475C231.64 270.15 230.666 269.825 229.7 269.868L229.623 269.876C229.153 269.911 228.632 270.056 228.187 270.312C226.299 271.218 224.923 273.201 224.76 275.312C224.564 277.996 226.256 280.671 228.692 281.799C229.512 282.175 230.435 282.397 231.315 282.2C232.204 281.995 232.948 281.371 233.512 280.654C235.178 278.568 235.537 275.551 234.529 273.081Z" fill="#263238"/>
<path d="M203.002 261.672C203.061 261.663 202.942 261.68 203.002 261.672V261.672Z" fill="#263238"/>
<path d="M201.651 262.099C201.685 262.073 201.728 262.073 201.753 262.047C201.771 262.039 201.788 262.03 201.805 262.022L201.651 262.099Z" fill="#263238"/>
<path d="M207.249 264.45C206.865 263.518 206.241 262.638 205.335 262.193C204.754 261.911 203.908 261.629 203.07 261.663L203.002 261.672C202.591 261.698 202.138 261.826 201.762 262.048C200.13 262.834 198.934 264.544 198.797 266.381C198.626 268.706 200.087 271.022 202.207 272.005C202.916 272.33 203.72 272.526 204.48 272.347C205.249 272.167 205.89 271.629 206.386 271.005C207.813 269.193 208.121 266.586 207.249 264.45Z" fill="#263238"/>
<path d="M208.975 278.713C208.975 278.696 209.163 278.739 209.505 278.824C209.855 278.901 210.351 279.063 210.992 279.277C212.265 279.739 214.06 280.568 216.017 282.003C217.966 283.439 220.06 285.507 221.76 288.242C223.47 290.969 224.743 294.327 225.333 297.985C225.906 301.652 225.812 305.216 225.213 308.378C224.624 311.532 223.333 314.258 221.666 316.053C220.008 317.865 218.162 318.762 216.863 319.129C215.547 319.505 214.787 319.411 214.787 319.411C214.778 319.352 215.547 319.377 216.812 318.959C218.068 318.557 219.846 317.634 221.427 315.839C223.017 314.061 224.248 311.403 224.803 308.292C225.367 305.19 225.453 301.652 224.889 298.054C224.307 294.447 223.068 291.14 221.402 288.456C219.752 285.755 217.718 283.696 215.812 282.251C213.906 280.798 212.154 279.935 210.915 279.431C209.684 278.935 208.958 278.756 208.975 278.713Z" fill="#263238"/>
<path d="M200.788 268.603C200.745 268.637 200.523 268.449 200.292 268.047C200.062 267.646 199.856 267.022 199.856 266.313C199.856 265.603 200.053 264.971 200.284 264.578C200.506 264.176 200.728 263.988 200.771 264.022C200.882 264.09 200.284 265.022 200.301 266.321C200.292 267.603 200.899 268.526 200.788 268.603Z" fill="#FAFAFA"/>
<path d="M226.555 278.047C226.512 278.073 226.299 277.851 226.111 277.398C225.922 276.945 225.803 276.252 225.922 275.509C226.051 274.765 226.384 274.15 226.709 273.782C227.034 273.415 227.307 273.27 227.341 273.312C227.435 273.406 226.563 274.218 226.358 275.577C226.111 276.936 226.666 277.987 226.555 278.047Z" fill="#FAFAFA"/>
<path d="M242.768 323.206C242.726 323.274 241.691 322.557 239.88 321.651C238.076 320.736 235.478 319.702 232.53 318.745C229.59 317.788 226.897 316.967 224.983 316.283C224.026 315.942 223.257 315.651 222.727 315.429C222.205 315.207 221.915 315.07 221.932 315.044C221.958 314.984 223.145 315.395 225.086 315.993C227.026 316.6 229.718 317.36 232.675 318.326C235.632 319.292 238.247 320.377 240.025 321.377C240.478 321.616 240.871 321.856 241.213 322.078C241.563 322.292 241.854 322.48 242.076 322.659C242.538 322.984 242.785 323.18 242.768 323.206Z" fill="#263238"/>
<path d="M303.406 295.679C303.431 295.696 303.149 296.123 302.628 296.884C302.107 297.644 301.303 298.713 300.261 299.995C298.184 302.567 295.047 305.892 291.321 309.276C287.595 312.661 284.116 315.592 281.655 317.78C280.467 318.84 279.493 319.712 278.749 320.378C278.065 320.994 277.672 321.327 277.655 321.301C277.629 321.276 277.98 320.908 278.629 320.25C279.279 319.592 280.236 318.669 281.45 317.549C283.86 315.302 287.313 312.327 291.03 308.952C294.748 305.576 297.902 302.302 300.03 299.798C301.09 298.542 301.936 297.516 302.5 296.781C303.055 296.055 303.38 295.662 303.406 295.679Z" fill="#263238"/>
<g opacity="0.2">
<g opacity="0.2">
<path opacity="0.2" d="M288.876 311.507C293.483 311.883 298.696 310.473 301.961 307.208C305.225 303.943 306.362 298.482 304.396 294.303C301.713 298.132 298.687 302.2 294.995 305.328C292.671 307.302 291.124 309.695 288.876 311.507Z" fill="black"/>
</g>
</g>
<g opacity="0.5">
<g opacity="0.5">
<path opacity="0.5" d="M272.501 204.016C278.45 212.828 290.748 215.605 296.679 224.425C298.978 227.835 300.107 231.878 301.209 235.844C305.773 252.287 310.337 268.739 314.901 285.183C315.465 274.491 312.892 263.91 310.328 253.509C307.798 243.245 305.277 232.972 302.747 222.708C302.192 220.451 301.611 218.135 300.286 216.221C298.936 214.281 296.927 212.922 294.97 211.606C287.945 206.888 280.714 202.085 272.476 200.205" fill="black"/>
</g>
</g>
<g opacity="0.3">
<g opacity="0.3">
<path opacity="0.3" d="M230.555 230.664C230.932 231.861 229.299 233.493 226.735 235.519C225.445 236.527 223.94 237.681 222.282 238.92C220.642 240.185 218.855 241.553 217.018 243.04C215.189 244.544 213.488 246.005 211.916 247.356C210.36 248.723 208.924 249.971 207.676 251.022C205.172 253.116 203.241 254.39 202.147 253.774C201.096 253.193 201.121 250.732 202.583 247.322C203.301 245.621 204.42 243.724 205.89 241.784C207.377 239.861 209.232 237.903 211.403 236.126C213.591 234.357 215.881 232.946 218.06 231.887C220.257 230.844 222.342 230.135 224.154 229.776C227.786 229.041 230.197 229.519 230.555 230.664Z" fill="white"/>
</g>
</g>
<path d="M207.693 298.113C207.693 298.241 206.805 298.318 205.753 298.575C204.702 298.823 203.873 299.147 203.813 299.028C203.753 298.925 204.54 298.404 205.651 298.139C206.762 297.882 207.693 298.002 207.693 298.113Z" fill="#FAFAFA"/>
<path d="M194.719 293.404C194.702 293.532 193.882 293.481 192.916 293.712C191.95 293.926 191.232 294.327 191.155 294.225C191.079 294.139 191.745 293.524 192.813 293.276C193.873 293.037 194.745 293.293 194.719 293.404Z" fill="#FAFAFA"/>
<path d="M252.255 333.146C252.143 333.206 251.007 331.291 249.426 329.043C247.853 326.796 246.434 325.078 246.528 324.992C246.614 324.915 248.195 326.522 249.793 328.787C251.383 331.06 252.357 333.095 252.255 333.146Z" fill="#FAFAFA"/>
<path d="M201.343 243.451C201.454 243.528 199.779 245.989 198.309 249.348C196.822 252.69 196.147 255.595 196.01 255.561C195.959 255.553 196.053 254.809 196.352 253.63C196.643 252.459 197.156 250.861 197.899 249.16C198.643 247.468 199.48 246.006 200.147 244.998C200.822 243.998 201.301 243.425 201.343 243.451Z" fill="#FAFAFA"/>
<path d="M242.776 226.905C242.751 227.016 240.563 226.631 237.982 225.725C235.401 224.828 233.443 223.76 233.495 223.657C233.554 223.537 235.571 224.418 238.127 225.306C240.682 226.204 242.81 226.776 242.776 226.905Z" fill="#FAFAFA"/>
<path d="M309.44 213.051C309.525 213.102 308.166 214.965 305.808 216.469C303.457 217.991 301.201 218.461 301.193 218.358C301.15 218.23 303.295 217.597 305.577 216.11C307.867 214.649 309.337 212.957 309.44 213.051Z" fill="#EB996E"/>
<path d="M334.472 207.333C329.883 196.735 283.945 159.113 283.945 159.113L258.058 192.735C258.425 192.231 300.303 217.734 300.303 217.734L312.661 274.03L314.781 284.055C314.781 284.055 309.226 288.901 309.456 294.02C309.61 297.43 301.73 304.797 301.73 304.797C299.867 303.25 298.671 302.814 297.731 302.994L289.398 310.797L291.381 312.609C293.594 314.626 296.5 315.703 299.491 315.609L313.738 315.173C315.772 315.113 317.695 314.267 319.114 312.805C323.498 308.293 332.737 298.225 332.925 293.362C333.028 290.644 333.053 288.055 333.045 285.969C333.028 285.978 339.062 217.93 334.472 207.333Z" fill="#FFBE9D"/>
<path d="M320.832 297.371C320.849 297.396 320.575 297.593 320.045 297.875C319.515 298.165 318.712 298.507 317.781 299.02C316.84 299.516 315.909 300.353 314.986 301.43C314.071 302.499 312.986 303.704 311.584 304.609C308.798 306.481 305.67 306.977 303.516 306.832C302.978 306.797 302.474 306.772 302.055 306.584C301.628 306.421 301.346 306.011 301.371 305.678C301.363 305.344 301.525 305.105 301.67 305.02C301.824 304.926 301.918 304.951 301.918 304.96C301.927 304.977 301.833 304.994 301.73 305.088C301.628 305.182 301.517 305.396 301.551 305.669C301.559 305.951 301.781 306.225 302.166 306.362C302.534 306.507 303.021 306.515 303.551 306.532C305.653 306.601 308.67 306.071 311.371 304.259C312.738 303.379 313.772 302.242 314.712 301.174C315.652 300.105 316.67 299.234 317.661 298.764C318.635 298.277 319.447 297.977 319.994 297.738C320.515 297.49 320.815 297.345 320.832 297.371Z" fill="#EB996E"/>
<path d="M314.32 304.789C314.379 304.9 313.2 305.592 311.935 306.669C310.662 307.738 309.781 308.78 309.679 308.703C309.585 308.643 310.337 307.447 311.653 306.336C312.969 305.225 314.268 304.686 314.32 304.789Z" fill="#EB996E"/>
<path d="M320.08 281.465C320.088 281.594 318.824 281.671 317.448 282.329C316.063 282.97 315.2 283.893 315.106 283.807C315.012 283.747 315.789 282.628 317.268 281.944C318.738 281.243 320.097 281.363 320.08 281.465Z" fill="#EB996E"/>
<path d="M311.167 309.182C311.133 309.25 310.244 308.814 308.714 308.447C307.193 308.079 304.996 307.857 302.646 308.327C302.065 308.455 301.501 308.592 300.971 308.78C300.706 308.857 300.441 308.976 300.133 309.028C299.834 309.096 299.449 309.011 299.219 308.831C298.398 308.233 297.638 307.677 296.954 307.182C295.68 306.233 294.911 305.626 294.945 305.575C294.98 305.524 295.817 306.045 297.142 306.925C297.834 307.395 298.612 307.917 299.441 308.481C299.808 308.763 300.27 308.558 300.834 308.353C301.381 308.156 301.962 308.011 302.569 307.874C304.996 307.387 307.27 307.669 308.799 308.13C309.577 308.344 310.167 308.618 310.577 308.806C310.97 309.028 311.184 309.156 311.167 309.182Z" fill="#EB996E"/>
<path d="M214.531 178.59C209.052 177.026 206.625 176.343 206.625 176.343L206.642 173.856C206.642 173.856 206.642 173.856 208.822 173.83C211.001 173.804 214.155 171.112 214.155 171.112L218.83 163.95L219.428 159.369C218.924 153.703 212.103 155.925 212.103 155.925C211.779 153.951 203.053 151.968 196.489 150.746C192.036 149.917 187.447 151.122 183.977 154.045L177.678 159.361L158.799 175.89L110.075 217.041L78.0512 207.589C78.0512 207.589 67.8723 238.749 66.2058 249.937C63.0179 271.38 92.4863 285.67 105.486 274.636C115.588 266.056 174.507 202.615 184.267 192.085C184.293 192.085 184.327 192.085 184.353 192.085C190.361 191.316 200.489 185.257 200.489 185.257L205.694 185.872C205.694 185.872 219.522 188.513 221.163 185.804C222.436 183.667 220.009 180.154 214.531 178.59Z" fill="#FFBE9D"/>
<path d="M186.164 172.368C186.189 172.359 186.301 172.573 186.471 172.966C186.651 173.359 186.848 173.958 187.036 174.718C187.412 176.222 187.625 178.402 187.258 180.761C186.882 183.119 186.001 185.128 185.172 186.435C184.762 187.094 184.386 187.606 184.096 187.923C183.813 188.247 183.643 188.418 183.617 188.401C183.557 188.35 184.155 187.615 184.899 186.273C185.642 184.948 186.446 182.974 186.813 180.684C187.172 178.393 187.018 176.265 186.719 174.778C186.429 173.282 186.087 172.394 186.164 172.368Z" fill="#EB996E"/>
<path d="M189.694 154.916C189.694 154.899 189.873 154.864 190.232 154.813C190.583 154.762 191.104 154.693 191.779 154.634C193.121 154.522 195.095 154.352 197.514 154.702C198.719 154.89 200.027 155.223 201.334 155.839C202.633 156.454 203.941 157.351 204.975 158.625C206.001 159.89 206.753 161.556 206.727 163.368C206.719 164.266 206.479 165.189 206.052 166.009C205.625 166.838 205.035 167.573 204.377 168.231C203.069 169.522 201.633 170.581 200.189 171.522C199.454 171.966 198.762 172.445 197.941 172.752C197.54 172.898 197.112 173 196.659 172.966C196.215 172.949 195.762 172.727 195.48 172.368C195.189 172.009 195.104 171.556 195.112 171.145C195.121 170.735 195.206 170.342 195.326 169.975C195.582 169.248 195.924 168.59 196.326 168C197.138 166.812 198.189 165.932 199.266 165.359L199.317 165.659C196.899 165.197 194.916 164.821 193.489 164.548C192.839 164.411 192.318 164.308 191.907 164.223C191.548 164.146 191.36 164.095 191.36 164.078C191.36 164.06 191.557 164.078 191.924 164.129C192.335 164.189 192.865 164.274 193.523 164.368C194.959 164.607 196.95 164.932 199.377 165.334L199.83 165.411L199.428 165.633C198.403 166.206 197.411 167.06 196.642 168.197C196.258 168.761 195.941 169.402 195.702 170.086C195.488 170.744 195.386 171.564 195.805 172.103C196.232 172.658 197.078 172.624 197.804 172.342C198.539 172.069 199.24 171.59 199.958 171.145C201.377 170.222 202.796 169.163 204.061 167.906C205.343 166.641 206.291 165.043 206.291 163.343C206.325 161.659 205.625 160.078 204.659 158.864C203.685 157.642 202.437 156.762 201.18 156.155C199.924 155.54 198.651 155.198 197.471 154.993C195.104 154.608 193.138 154.728 191.796 154.787C191.164 154.83 190.642 154.856 190.241 154.881C189.882 154.933 189.694 154.933 189.694 154.916Z" fill="#EB996E"/>
<path d="M212.163 156.215C212.188 156.215 212.257 156.539 212.316 157.138C212.376 157.736 212.436 158.599 212.419 159.676C212.376 161.804 212.017 164.889 210.291 167.761C208.59 170.624 205.907 172.47 203.693 172.752C202.565 172.889 201.676 172.393 201.283 171.923C201.078 171.692 200.967 171.47 200.924 171.316C200.873 171.162 200.873 171.077 200.881 171.077C200.924 171.06 200.992 171.402 201.411 171.812C201.813 172.214 202.633 172.607 203.659 172.453C205.693 172.111 208.282 170.299 209.915 167.539C211.581 164.77 211.992 161.77 212.111 159.667C212.205 157.539 212.086 156.215 212.163 156.215Z" fill="#EB996E"/>
<path d="M200.069 180.624C200.018 180.572 200.462 180.179 200.992 179.419C201.522 178.666 202.095 177.487 202.231 176.094C202.368 174.701 202.026 173.427 201.659 172.59C201.291 171.735 200.932 171.274 200.983 171.231C201.018 171.197 201.479 171.599 201.941 172.453C202.402 173.299 202.821 174.641 202.676 176.137C202.53 177.632 201.864 178.872 201.248 179.607C200.625 180.35 200.095 180.658 200.069 180.624Z" fill="#EB996E"/>
<path d="M191.762 164.419C191.813 164.385 192.155 165.094 192.035 166.291C191.984 166.872 191.83 167.59 191.437 168.282C191.078 168.966 190.6 169.692 189.984 170.35C188.736 171.692 187.198 172.359 186.147 172.803C185.07 173.239 184.386 173.453 184.361 173.393C184.335 173.333 184.976 173.017 186.01 172.513C187.027 171.991 188.48 171.308 189.651 170.034C190.241 169.41 190.702 168.727 191.07 168.069C191.454 167.436 191.617 166.787 191.711 166.231C191.916 165.129 191.694 164.436 191.762 164.419Z" fill="#EB996E"/>
<path d="M228.101 166.949L204.06 180.06C204.06 180.06 216.923 183.273 228.563 195.589C239.118 206.759 243.195 218.861 243.195 218.861L267.15 202.922C267.15 202.93 254.288 173.752 228.101 166.949Z" fill="#455A64"/>
<path d="M208.299 179.564C209.359 178.958 215.914 175.214 227.708 168.471L227.759 168.437L227.819 168.454C230.981 169.283 234.306 170.625 237.639 172.505C240.955 174.394 244.271 176.812 247.434 179.701C250.604 182.581 253.638 185.914 256.476 189.607C259.305 193.299 261.988 197.315 264.279 201.708L264.373 201.879L264.21 201.99C263.809 202.255 263.381 202.546 262.954 202.837C256.476 207.17 250.22 211.34 244.476 215.186L244.263 215.332L244.16 215.092C241.297 208.093 237.554 202.059 233.511 197.239C229.469 192.41 225.17 188.795 221.375 186.188C217.563 183.573 214.247 181.949 211.94 180.957C210.777 180.462 209.872 180.128 209.248 179.906C208.949 179.804 208.718 179.727 208.538 179.667C208.367 179.59 208.29 179.564 208.299 179.564C208.367 179.581 208.436 179.59 208.547 179.616C208.726 179.667 208.966 179.735 209.265 179.821C209.889 180.017 210.812 180.334 211.983 180.804C214.316 181.752 217.666 183.35 221.512 185.949C225.349 188.538 229.691 192.145 233.776 196.982C237.861 201.811 241.648 207.879 244.545 214.913L244.229 214.819C249.972 210.973 256.219 206.794 262.698 202.452C263.125 202.161 263.561 201.879 263.954 201.606L263.877 201.888C261.612 197.546 258.937 193.529 256.134 189.854C253.314 186.179 250.305 182.855 247.16 179.992C244.023 177.112 240.742 174.71 237.46 172.813C234.161 170.941 230.87 169.591 227.742 168.753L227.862 168.736C215.974 175.317 209.367 178.975 208.299 179.564Z" fill="white"/>
<path d="M247.656 187.461C247.032 191.162 242.34 193.401 237.186 192.461C232.033 191.521 228.358 187.76 228.982 184.06C229.606 180.359 234.298 178.12 239.451 179.06C244.605 180 248.28 183.761 247.656 187.461Z" fill="#FAFAFA"/>
<path d="M213.786 176.48C213.786 176.48 217.862 178.548 213.948 181.573L207.957 179.249L213.786 176.48Z" fill="#FAFAFA"/>
<path d="M224.734 170.326C224.734 170.326 228.666 174.48 232.418 170.155L227.785 168.608L224.734 170.326Z" fill="#FAFAFA"/>
<path d="M241.887 209.537C241.887 209.537 247.177 205.246 250.271 211.032L244.357 214.99L241.887 209.537Z" fill="#FAFAFA"/>
<path d="M261.407 197.084C261.407 197.084 257.587 199.469 260.177 204.409L264.091 201.794L261.407 197.084Z" fill="#FAFAFA"/>
<path d="M247.246 210.947C247.246 211.862 246.528 212.605 245.648 212.605C244.767 212.605 244.049 211.862 244.049 210.947C244.049 210.033 244.767 209.289 245.648 209.289C246.528 209.289 247.246 210.033 247.246 210.947Z" fill="#455A64"/>
<path d="M263.279 200.752C263.279 201.666 262.561 202.41 261.681 202.41C260.8 202.41 260.083 201.666 260.083 200.752C260.083 199.837 260.8 199.094 261.681 199.094C262.57 199.094 263.287 199.837 263.279 200.752Z" fill="#455A64"/>
<path d="M230.255 170.163C230.255 170.753 229.435 171.231 228.426 171.231C227.418 171.231 226.597 170.753 226.597 170.163C226.597 169.573 227.418 169.094 228.426 169.094C229.435 169.094 230.255 169.573 230.255 170.163Z" fill="#455A64"/>
<path d="M214.632 179.026C214.632 179.812 213.837 180.444 212.854 180.444C211.872 180.444 211.077 179.803 211.077 179.026C211.077 178.239 211.872 177.607 212.854 177.607C213.837 177.607 214.632 178.239 214.632 179.026Z" fill="#455A64"/>
<path d="M229.366 178.137C229.366 179.043 228.238 179.778 226.845 179.778C225.452 179.778 224.324 179.043 224.324 178.129C224.324 177.223 225.452 176.488 226.845 176.488C228.238 176.488 229.366 177.223 229.366 178.137Z" fill="#FAFAFA"/>
<path d="M249.613 200.094C248.476 200.607 247.074 199.889 246.476 198.487C245.886 197.085 246.322 195.53 247.459 195.009C248.596 194.496 249.997 195.214 250.595 196.615C251.194 198.026 250.749 199.581 249.613 200.094Z" fill="#FAFAFA"/>
<path d="M214.146 171.111L224.008 181.495C224.008 181.495 227.957 186.008 230.615 183.88C233.273 181.743 229.538 177.752 228.752 176.598C227.965 175.436 218.291 163.701 218.291 163.701L214.146 171.111Z" fill="#FFBE9D"/>
<path d="M219.239 161.745C219.29 161.762 219.179 162.454 218.863 163.548C218.538 164.642 217.991 166.129 217.111 167.642C216.23 169.154 215.179 170.368 214.307 171.112C213.436 171.864 212.803 172.188 212.778 172.154C212.735 172.094 213.299 171.676 214.094 170.889C214.889 170.103 215.872 168.907 216.726 167.428C218.427 164.454 219.085 161.693 219.239 161.745Z" fill="#EB996E"/>
<path d="M127.398 202.409C127.407 202.417 127.253 202.58 126.937 202.862C126.586 203.169 126.133 203.58 125.561 204.093C124.313 205.178 122.57 206.691 120.424 208.545C116.074 212.289 110.032 217.417 103.297 223.015C96.5625 228.612 90.409 233.612 85.8879 237.15C83.6316 238.928 81.777 240.321 80.478 241.27C79.8541 241.714 79.3498 242.073 78.9738 242.347C78.6234 242.586 78.4439 242.706 78.4354 242.697C78.4268 242.689 78.5977 242.543 78.9225 242.278C79.29 241.988 79.7686 241.612 80.3754 241.142C81.6403 240.15 83.4607 238.714 85.6914 236.911C90.1612 233.313 96.2805 228.279 103.015 222.681C109.716 217.083 115.784 212.015 120.219 208.306C122.399 206.494 124.176 205.016 125.441 203.964C126.039 203.477 126.51 203.093 126.877 202.793C127.21 202.529 127.39 202.4 127.398 202.409Z" fill="#EB996E"/>
<defs>
<linearGradient id="paint0_linear" x1="148.709" y1="124.779" x2="331.605" y2="76.9187" gradientUnits="userSpaceOnUse">
<stop stop-color="#E8E8FD"/>
<stop offset="1" stop-color="#E8E8FD" stop-opacity="0"/>
</linearGradient>
</defs>
</svg>
