<svg width="50" height="50" viewBox="0 0 50 50" fill="none" xmlns="http://www.w3.org/2000/svg">
<path fill-rule="evenodd" clip-rule="evenodd" d="M9.17176 24.2128C11.4968 25.0107 13.3488 26.9566 14.1238 29.4232L14.2072 29.6732C15.0947 32.2899 14.7343 35.1066 13.2468 37.2191C12.9759 37.6024 13.0363 38.0607 13.3218 38.2774L17.6384 41.5566C17.7905 41.6712 17.9384 41.6712 18.0301 41.6607C18.1343 41.6441 18.2863 41.5878 18.4093 41.4128L18.8905 40.7295C20.3259 38.6941 22.6384 37.4378 25.0801 37.367C27.8218 37.3107 30.2843 38.567 31.8176 40.7816L32.0634 41.1378C32.1863 41.3128 32.3363 41.3712 32.4426 41.3878C32.5343 41.4066 32.6843 41.4003 32.8343 41.2837L37.128 38.0441C37.428 37.8191 37.4947 37.3378 37.2718 37.0149L36.7301 36.2337C35.3343 34.217 34.9197 31.6003 35.6218 29.2357C36.3843 26.6607 38.3238 24.6232 40.8134 23.7899L41.2322 23.6482C41.5676 23.5378 41.7488 23.1212 41.6301 22.7378L39.9905 17.4857C39.9134 17.2399 39.7551 17.1295 39.6676 17.0837C39.5426 17.0191 39.4072 17.0087 39.278 17.0524L38.5697 17.2878C36.1468 18.0941 33.4738 17.6566 31.4218 16.1128L31.1968 15.9441C29.2468 14.4774 28.0863 12.1128 28.0947 9.62116L28.0988 9.03783C28.0988 8.76074 27.9676 8.58783 27.8884 8.50866C27.8134 8.43158 27.6863 8.33991 27.5072 8.33991L22.2009 8.33366C21.8759 8.33366 21.6113 8.64408 21.6093 9.02741L21.6072 9.53158C21.5968 12.0628 20.4113 14.4712 18.4363 15.9774L18.1676 16.1816C15.9947 17.8337 13.1613 18.3003 10.5947 17.4253C10.4968 17.392 10.4051 17.3982 10.3176 17.4441C10.2509 17.4774 10.1301 17.5628 10.0718 17.7524L8.36968 23.1607C8.24676 23.5545 8.44884 23.9649 8.83009 24.0962L9.17176 24.2128ZM17.9446 45.8337C16.9321 45.8337 15.9487 45.5045 15.1196 44.8732L10.8029 41.5962C8.7404 40.0337 8.28414 37.0274 9.78414 34.8962C10.5633 33.792 10.7237 32.3732 10.2654 31.0274L10.1508 30.6774C9.76956 29.4649 8.89873 28.5232 7.82164 28.1545H7.81956L7.47998 28.0357C4.94248 27.167 3.58831 24.4774 4.39456 21.9107L6.09456 16.5045C6.47998 15.2816 7.31123 14.2941 8.43623 13.7253C9.53623 13.1712 10.78 13.0857 11.9425 13.4837C13.1904 13.9087 14.5758 13.6774 15.6446 12.8649L15.9133 12.6607C16.8633 11.9357 17.4362 10.7587 17.4404 9.51491L17.4425 9.01283C17.4529 6.33783 19.5883 4.16699 22.1987 4.16699H22.2071L27.5133 4.17324C28.7675 4.17533 29.9508 4.67116 30.8425 5.56908C31.7654 6.49616 32.2696 7.73574 32.2654 9.05866L32.2612 9.63991C32.2571 10.8191 32.7966 11.9337 33.7071 12.617L33.93 12.7857C34.8862 13.5045 36.1321 13.7107 37.2508 13.3357L37.9571 13.1003C39.1591 12.7003 40.4383 12.7982 41.5654 13.3753C42.7216 13.967 43.5758 14.9857 43.9675 16.2462L45.6071 21.4982C46.3987 24.0357 45.0279 26.7732 42.555 27.6003L42.1362 27.7399C40.9362 28.1441 39.9925 29.1441 39.6154 30.4191C39.2696 31.5878 39.4696 32.8732 40.155 33.8607L40.6966 34.642C42.1841 36.792 41.7091 39.8087 39.6383 41.3691L35.3446 44.6107C34.3133 45.3899 33.0487 45.7045 31.78 45.5024C30.5008 45.2962 29.3841 44.5878 28.6362 43.5087L28.3904 43.1503C27.6612 42.1003 26.4946 41.4628 25.2716 41.5316C24.0466 41.5649 22.9883 42.1462 22.2966 43.1295L21.8154 43.8128C21.0612 44.8816 19.9425 45.5795 18.6696 45.7795C18.4258 45.817 18.1841 45.8337 17.9446 45.8337ZM24.9991 21.8752C23.2762 21.8752 21.8741 23.2773 21.8741 25.0002C21.8741 26.7231 23.2762 28.1252 24.9991 28.1252C26.722 28.1252 28.1241 26.7231 28.1241 25.0002C28.1241 23.2773 26.722 21.8752 24.9991 21.8752ZM24.9991 32.2919C20.9782 32.2919 17.7074 29.0211 17.7074 25.0002C17.7074 20.9794 20.9782 17.7086 24.9991 17.7086C29.0199 17.7086 32.2907 20.9794 32.2907 25.0002C32.2907 29.0211 29.0199 32.2919 24.9991 32.2919Z" fill="#FF5364"/>
<mask id="mask0" mask-type="alpha" maskUnits="userSpaceOnUse" x="4" y="4" width="42" height="42">
<path fill-rule="evenodd" clip-rule="evenodd" d="M9.17176 24.2128C11.4968 25.0107 13.3488 26.9566 14.1238 29.4232L14.2072 29.6732C15.0947 32.2899 14.7343 35.1066 13.2468 37.2191C12.9759 37.6024 13.0363 38.0607 13.3218 38.2774L17.6384 41.5566C17.7905 41.6712 17.9384 41.6712 18.0301 41.6607C18.1343 41.6441 18.2863 41.5878 18.4093 41.4128L18.8905 40.7295C20.3259 38.6941 22.6384 37.4378 25.0801 37.367C27.8218 37.3107 30.2843 38.567 31.8176 40.7816L32.0634 41.1378C32.1863 41.3128 32.3363 41.3712 32.4426 41.3878C32.5343 41.4066 32.6843 41.4003 32.8343 41.2837L37.128 38.0441C37.428 37.8191 37.4947 37.3378 37.2718 37.0149L36.7301 36.2337C35.3343 34.217 34.9197 31.6003 35.6218 29.2357C36.3843 26.6607 38.3238 24.6232 40.8134 23.7899L41.2322 23.6482C41.5676 23.5378 41.7488 23.1212 41.6301 22.7378L39.9905 17.4857C39.9134 17.2399 39.7551 17.1295 39.6676 17.0837C39.5426 17.0191 39.4072 17.0087 39.278 17.0524L38.5697 17.2878C36.1468 18.0941 33.4738 17.6566 31.4218 16.1128L31.1968 15.9441C29.2468 14.4774 28.0863 12.1128 28.0947 9.62116L28.0988 9.03783C28.0988 8.76074 27.9676 8.58783 27.8884 8.50866C27.8134 8.43158 27.6863 8.33991 27.5072 8.33991L22.2009 8.33366C21.8759 8.33366 21.6113 8.64408 21.6093 9.02741L21.6072 9.53158C21.5968 12.0628 20.4113 14.4712 18.4363 15.9774L18.1676 16.1816C15.9947 17.8337 13.1613 18.3003 10.5947 17.4253C10.4968 17.392 10.4051 17.3982 10.3176 17.4441C10.2509 17.4774 10.1301 17.5628 10.0718 17.7524L8.36968 23.1607C8.24676 23.5545 8.44884 23.9649 8.83009 24.0962L9.17176 24.2128ZM17.9446 45.8337C16.9321 45.8337 15.9487 45.5045 15.1196 44.8732L10.8029 41.5962C8.7404 40.0337 8.28414 37.0274 9.78414 34.8962C10.5633 33.792 10.7237 32.3732 10.2654 31.0274L10.1508 30.6774C9.76956 29.4649 8.89873 28.5232 7.82164 28.1545H7.81956L7.47998 28.0357C4.94248 27.167 3.58831 24.4774 4.39456 21.9107L6.09456 16.5045C6.47998 15.2816 7.31123 14.2941 8.43623 13.7253C9.53623 13.1712 10.78 13.0857 11.9425 13.4837C13.1904 13.9087 14.5758 13.6774 15.6446 12.8649L15.9133 12.6607C16.8633 11.9357 17.4362 10.7587 17.4404 9.51491L17.4425 9.01283C17.4529 6.33783 19.5883 4.16699 22.1987 4.16699H22.2071L27.5133 4.17324C28.7675 4.17533 29.9508 4.67116 30.8425 5.56908C31.7654 6.49616 32.2696 7.73574 32.2654 9.05866L32.2612 9.63991C32.2571 10.8191 32.7966 11.9337 33.7071 12.617L33.93 12.7857C34.8862 13.5045 36.1321 13.7107 37.2508 13.3357L37.9571 13.1003C39.1591 12.7003 40.4383 12.7982 41.5654 13.3753C42.7216 13.967 43.5758 14.9857 43.9675 16.2462L45.6071 21.4982C46.3987 24.0357 45.0279 26.7732 42.555 27.6003L42.1362 27.7399C40.9362 28.1441 39.9925 29.1441 39.6154 30.4191C39.2696 31.5878 39.4696 32.8732 40.155 33.8607L40.6966 34.642C42.1841 36.792 41.7091 39.8087 39.6383 41.3691L35.3446 44.6107C34.3133 45.3899 33.0487 45.7045 31.78 45.5024C30.5008 45.2962 29.3841 44.5878 28.6362 43.5087L28.3904 43.1503C27.6612 42.1003 26.4946 41.4628 25.2716 41.5316C24.0466 41.5649 22.9883 42.1462 22.2966 43.1295L21.8154 43.8128C21.0612 44.8816 19.9425 45.5795 18.6696 45.7795C18.4258 45.817 18.1841 45.8337 17.9446 45.8337ZM24.9991 21.8752C23.2762 21.8752 21.8741 23.2773 21.8741 25.0002C21.8741 26.7231 23.2762 28.1252 24.9991 28.1252C26.722 28.1252 28.1241 26.7231 28.1241 25.0002C28.1241 23.2773 26.722 21.8752 24.9991 21.8752ZM24.9991 32.2919C20.9782 32.2919 17.7074 29.0211 17.7074 25.0002C17.7074 20.9794 20.9782 17.7086 24.9991 17.7086C29.0199 17.7086 32.2907 20.9794 32.2907 25.0002C32.2907 29.0211 29.0199 32.2919 24.9991 32.2919Z" fill="white"/>
</mask>
<g mask="url(#mask0)">
<rect width="50" height="50" fill="#FF5364"/>
</g>
</svg>
