<svg width="508" height="349" viewBox="0 0 508 349" fill="none" xmlns="http://www.w3.org/2000/svg">
<g clip-path="url(#clip0)">
<path d="M99.2689 22.4803C110.462 13.3615 121.789 6.61443 132.702 3.00521C135.81 1.94454 139.006 1.16376 142.246 0.633429C145.148 0.162019 148.093 -0.0442223 151.039 0.0147038C193.059 1.01645 214.68 50.1314 257.068 64.0233C292.608 75.6612 325.481 67.6178 354.246 61.3716C363.775 59.1029 373.422 57.4383 383.158 56.3629C385.72 56.1271 388.254 55.9946 390.713 55.9798C393.364 55.9798 396.119 56.083 399.005 56.3334C399.005 56.3187 399.02 56.3187 399.035 56.3187L399.049 56.3481C435.311 59.427 488.318 83.1301 501.618 116.526C515.551 151.499 510.676 242.938 397.93 314.032C272.636 393.067 59.7086 318.26 21.1498 257.051C-18.764 193.764 37.8959 72.5528 99.2689 22.4803Z" fill="#7883C9" fill-opacity="0.3"/>
<path d="M383.82 182.921C383.82 182.921 383.128 185.867 379.564 186.088C376 186.309 370.094 186.354 370.094 186.354L365.189 184.085L363.348 177.353L368.827 179.842L383.82 182.921Z" fill="#E5525C"/>
<path d="M383.82 182.921C383.82 182.921 386.457 178.56 381.464 175.805C376.456 173.036 368.429 175.172 368.429 175.172L369.151 183.304L383.82 182.921Z" fill="#E5525C"/>
<path d="M367.487 222.652H369.593C374.939 222.652 379.27 226.983 379.27 232.331V263.503C379.27 268.85 374.939 273.181 369.593 273.181H367.487C362.14 273.181 357.81 268.85 357.81 263.503V232.331C357.81 226.998 362.14 222.652 367.487 222.652Z" fill="#263238"/>
<path d="M235.639 222.652H237.745C243.091 222.652 247.422 226.983 247.422 232.331V263.503C247.422 268.85 243.091 273.181 237.745 273.181H235.639C230.293 273.181 225.962 268.85 225.962 263.503V232.331C225.962 226.998 230.293 222.652 235.639 222.652Z" fill="#263238"/>
<path d="M232.251 254.325C232.251 254.325 224.873 240.227 224.666 223.521C224.46 206.815 226.625 200.098 230.528 196.842C234.431 193.587 238.776 186.427 238.776 186.427C238.776 186.427 243.224 168.734 249.41 157.362C255.051 146.976 265.464 148.037 265.464 148.037C265.464 148.037 311.225 143.941 339.857 147.934C339.857 147.934 347.663 147.374 353.304 156.051C358.945 164.727 365.234 179.916 366.751 187.723C366.751 187.723 373.481 194.235 375.426 197.269C377.37 200.304 380.846 205.725 380.418 210.94C379.991 216.155 380.198 245.427 373.04 255.194L232.251 254.325Z" fill="#E5525C"/>
<path d="M245.153 178.428C245.153 178.428 249.38 158.084 255.11 154.74C260.839 151.381 302.005 151.528 302.005 151.528L341.904 152.663C341.904 152.663 348.914 152.869 351.183 156.611C353.451 160.367 360.079 178.148 359.283 179.43L297.866 180.122C297.866 180.122 254.609 180.918 252.842 180.52C251.074 180.122 245.536 180.623 245.153 178.428Z" fill="#263238"/>
<path d="M252.238 178.428C252.238 178.428 248.497 177.883 248.983 173.773C249.366 170.577 253.166 161.679 254.845 157.863C255.331 156.758 256.362 155.978 257.569 155.83C262.739 155.167 275.833 152.972 299.133 153.179C328.825 153.444 346.97 153.974 348.605 156.095C349.916 157.804 355.012 171.387 355.601 173.39C356.293 175.703 353.171 178.266 348.694 178.384C344.231 178.487 252.238 178.428 252.238 178.428Z" fill="#465B65"/>
<g opacity="0.4">
<path opacity="0.4" d="M342.316 223.565C338.914 217.245 329.635 218.174 329.635 218.174C329.635 218.174 281.798 218.012 276.761 218.174C271.723 218.336 270.413 218.365 267.32 221.621C264.227 224.876 254.786 244.189 254.786 244.189H352.066C352.081 244.189 346.16 230.71 342.316 223.565Z" fill="black"/>
</g>
<path d="M266.023 199.097L268.498 204.827C268.498 204.827 269.558 207.052 273.918 207.405C277.305 207.67 332.537 207.67 332.537 207.67C332.537 207.67 336.219 207.994 337.647 205.431C338.737 203.384 339.695 201.262 340.519 199.111L266.023 199.097Z" fill="#263238"/>
<path d="M232.119 206.448C232.119 203.914 232.251 201.38 232.531 198.861C232.679 197.785 234.726 193.955 240.735 193.307C242.296 193.145 243.636 193.057 244.756 193.027C248.688 192.895 252.473 194.5 255.139 197.402C256.023 198.375 256.745 199.48 257.275 200.688C258.718 204.341 259.793 208.112 260.486 211.987L232.119 206.448Z" fill="#F7FAFB"/>
<g opacity="0.3">
<path opacity="0.3" d="M232.561 206.447H232.104C232.104 206.447 230.572 211.088 234.166 213.076C236.537 214.388 244.535 215.684 249.69 216.406C252.562 216.804 255.478 216.008 257.731 214.181L260.471 211.972L232.561 206.447Z" fill="black"/>
</g>
<path d="M257.01 153.59C257.01 153.59 258.365 147.683 260.279 145.709C262.194 143.735 264.433 143.779 265.699 144.471C266.833 145.075 268.453 147.786 268.453 147.786L265.316 148.022C264.933 147.374 264.167 147.064 263.446 147.241C262.312 147.565 261.531 149.657 261.531 149.657L260.176 153.089L257.01 153.59Z" fill="#DFDFDE"/>
<path d="M344.835 153.149C344.835 153.149 343.48 147.241 341.565 145.267C339.65 143.293 337.411 143.338 336.145 144.03C335.011 144.634 333.391 147.359 333.391 147.359L336.528 147.595C336.911 146.947 337.677 146.637 338.398 146.814C339.532 147.138 340.313 149.23 340.313 149.23L341.668 152.663L344.835 153.149Z" fill="#DFDFDE"/>
<path d="M337.382 196.489C337.382 196.563 321.313 196.622 301.489 196.622C281.665 196.622 265.596 196.563 265.596 196.489C265.596 196.415 281.665 196.356 301.489 196.356C321.313 196.356 337.382 196.415 337.382 196.489Z" fill="#263238"/>
<g opacity="0.3">
<path opacity="0.3" d="M231.78 225.525C231.78 225.525 231.456 236.942 237.819 237.502L242.134 237.915C244.137 238.106 246.067 237.163 247.142 235.469L251.059 229.311L231.78 225.525Z" fill="black"/>
</g>
<g opacity="0.3">
<path opacity="0.3" d="M228.201 244.19L377.311 244.102C376.589 248.05 375.131 251.806 372.995 255.209L232.251 254.34C230.646 251.055 229.306 247.667 228.201 244.19Z" fill="black"/>
</g>
<path d="M220.675 182.921C220.675 182.921 221.367 185.867 224.931 186.088C228.496 186.309 234.402 186.354 234.402 186.354L239.336 184.247L241.368 177.353L235.654 179.842L220.675 182.921Z" fill="#E5525C"/>
<path d="M220.675 182.921C220.675 182.921 218.024 178.561 223.031 175.806C228.039 173.051 236.066 175.172 236.066 175.172L235.359 183.304L220.675 182.921Z" fill="#E5525C"/>
<path d="M283.432 224.862H322.536C325.172 224.862 327.308 226.998 327.308 229.635V230.681C327.308 233.318 325.172 235.454 322.536 235.454H283.432C280.796 235.454 278.66 233.318 278.66 230.681V229.635C278.66 226.998 280.796 224.862 283.432 224.862Z" fill="#F7FAFB"/>
<path d="M245.742 178.546C245.772 178.59 244.873 179.061 243.622 180.107C243.283 180.387 242.959 180.682 242.649 181.006C242.296 181.33 241.972 181.728 241.619 182.126C240.131 183.923 239.041 186 238.422 188.254C238.29 188.77 238.157 189.256 238.098 189.742C238.01 190.169 237.951 190.611 237.922 191.053C237.774 192.673 237.907 193.675 237.848 193.675C237.789 193.439 237.76 193.204 237.76 192.968C237.73 192.688 237.715 192.408 237.715 192.128C237.701 191.76 237.715 191.392 237.745 191.023C237.774 190.582 237.819 190.14 237.892 189.698C237.966 189.197 238.069 188.681 238.202 188.195C238.805 185.912 239.91 183.79 241.442 181.978C241.781 181.581 242.134 181.212 242.502 180.859C242.826 180.549 243.15 180.255 243.504 179.975C243.784 179.739 244.078 179.518 244.387 179.327C244.608 179.165 244.844 179.017 245.094 178.885C245.301 178.737 245.522 178.634 245.742 178.546Z" fill="#263238"/>
<path d="M343.465 211.987C343.465 212.061 324.966 212.149 302.152 212.193C279.338 212.237 260.824 212.223 260.824 212.149C260.824 212.075 279.323 211.987 302.152 211.943C324.966 211.899 343.465 211.913 343.465 211.987Z" fill="#263238"/>
<path d="M309.575 156.876C309.619 156.935 302.948 160.942 294.7 165.803C286.452 170.679 279.721 174.583 279.692 174.524C279.662 174.465 286.319 170.458 294.567 165.582C302.815 160.721 309.531 156.817 309.575 156.876Z" fill="#DFDFDE"/>
<path d="M295.716 158.29C295.76 158.349 290.811 161.575 284.699 165.494C278.587 169.412 273.579 172.535 273.535 172.491C273.491 172.447 278.425 169.206 284.552 165.287C290.679 161.369 295.672 158.231 295.716 158.29Z" fill="#DFDFDE"/>
<path d="M316.88 157.554C316.925 157.613 312.521 160.618 307.042 164.256C301.578 167.895 297.1 170.812 297.071 170.753C297.041 170.694 301.43 167.689 306.909 164.05C312.388 160.397 316.851 157.495 316.88 157.554Z" fill="#DFDFDE"/>
<path d="M377.311 244.086C377.311 244.16 343.936 244.234 302.771 244.263C261.605 244.293 228.216 244.248 228.216 244.175C228.216 244.101 261.59 244.027 302.771 243.998C343.951 243.983 377.311 244.027 377.311 244.086Z" fill="#263238"/>
<path d="M366.147 196.489C366.191 196.224 366.264 195.959 366.353 195.694C366.544 194.972 366.706 194.25 366.824 193.514C367.001 192.423 367.045 191.333 366.971 190.228C366.912 188.888 366.603 187.562 366.058 186.339C365.469 185.131 364.733 183.997 363.878 182.966C363.186 182.111 362.406 181.331 361.537 180.653C360.977 180.181 360.314 179.813 359.622 179.577C359.431 179.504 359.239 179.46 359.033 179.445C358.959 179.445 358.886 179.43 358.827 179.401C358.9 179.386 358.974 179.386 359.033 179.401C359.239 179.401 359.445 179.43 359.637 179.489C360.373 179.695 361.051 180.034 361.64 180.506C362.523 181.183 363.333 181.949 364.04 182.818C364.924 183.864 365.675 185.013 366.279 186.236C366.588 186.884 366.809 187.562 366.942 188.254C367.074 188.903 367.148 189.551 367.192 190.214C367.251 191.333 367.178 192.438 366.986 193.543C366.854 194.28 366.662 195.001 366.426 195.723C366.353 195.974 366.279 196.165 366.22 196.298C366.206 196.371 366.176 196.445 366.147 196.489Z" fill="#263238"/>
<path d="M371.832 206.448C371.832 203.914 371.699 201.38 371.419 198.861C371.257 197.785 369.225 193.955 363.216 193.307C361.654 193.145 360.314 193.057 359.195 193.027C355.262 192.895 351.477 194.5 348.811 197.402C347.928 198.375 347.206 199.48 346.676 200.688C345.232 204.341 344.157 208.112 343.45 211.987L371.832 206.448Z" fill="#F7FAFB"/>
<g opacity="0.3">
<path opacity="0.3" d="M371.375 206.447H371.832C371.832 206.447 373.364 211.088 369.77 213.076C367.399 214.388 359.401 215.684 354.246 216.406C351.374 216.804 348.458 216.008 346.205 214.181L343.465 211.972L371.375 206.447Z" fill="black"/>
</g>
<g opacity="0.3">
<path opacity="0.3" d="M372.156 225.525C372.156 225.525 372.465 236.942 366.117 237.502L361.802 237.915C359.799 238.106 357.869 237.163 356.794 235.469L352.876 229.311L372.156 225.525Z" fill="black"/>
</g>
<path d="M54.7007 120.43C61.7703 120.151 64.5539 120.592 67.0872 123.671C69.8414 127.015 79.2823 157.686 79.2823 157.686L104.482 166.422L95.1152 172.374C95.1152 172.374 79.7094 169.192 75.1583 168.323C71.5794 167.63 70.4011 167.586 68.6042 163.019C66.1151 156.67 55.4518 130.58 55.4518 130.58L54.7007 120.43Z" fill="#F6A6A7"/>
<path d="M55.5552 120.268C59.5613 119.915 62.669 120.077 64.9519 121.314C67.2347 122.552 68.1774 124.069 69.7238 127.944C71.2703 131.818 79.6507 157.112 79.6507 157.112L91.9489 161.487L89.4156 171.225C89.4156 171.225 76.0423 168.897 73.2734 168.279C70.5044 167.66 69.768 167.056 68.1921 163.461C66.6162 159.867 57.514 137.048 57.514 137.048L55.5552 120.268Z" fill="#465B65"/>
<path d="M28.5435 314.063C28.2783 315.109 27.7187 318.084 22.1955 318.084C16.6724 318.084 13.5058 315.816 12.4159 313.002C11.326 310.188 11.9593 308.111 12.0477 305.666C12.1361 303.22 10.3245 301.659 9.92683 300.333C9.3377 298.388 10.9578 295.692 10.9578 295.692L28.5435 314.063Z" fill="#263238"/>
<path d="M80.3578 298.815C80.564 298.962 80.6818 300.686 80.1074 301.481C79.695 302.026 75.9982 304.708 71.4177 304.163C68.0596 303.838 64.8341 302.704 62.0063 300.863C59.3257 299.286 57.4847 299.065 54.7599 299.065C52.0352 299.065 50.1794 298.565 49.9585 297.872C49.5608 296.679 49.5314 295.898 50.1058 295.928L80.3578 298.815Z" fill="#263238"/>
<path d="M12.7988 291.685C12.7988 296.723 22.4459 297.652 22.2102 293.586L25.5683 281.815L14.6546 280.651L12.7988 291.685Z" fill="#F6A6A7"/>
<path d="M28.4843 311.543C28.1308 310.585 26.9084 309.112 26.3929 308.228C23.7123 303.632 22.4457 298.358 22.7402 293.055C22.7402 292.76 22.7992 292.185 22.534 291.979C22.2689 291.773 21.9449 291.979 21.6062 292.068C21.0465 292.23 20.4573 292.303 19.8682 292.274C17.9241 292.215 15.8621 291.464 15.3613 291.464C14.9784 291.464 14.728 292.613 14.566 293.865C13.9327 293.335 13.8296 292.451 13.2994 291.861C13.0048 291.537 12.8575 291.523 12.9312 291.066C12.9754 290.771 13.0343 290.521 13.0785 290.226C12.6071 290.005 11.9296 291.847 11.3258 293.231C10.6335 294.837 9.77931 296.634 10.2064 298.432C10.501 299.419 10.8987 300.361 11.3847 301.26C12.2242 302.822 12.6661 304.575 12.6808 306.342C12.6808 307.109 12.4893 307.875 12.4893 308.641C12.4893 311.292 14.0505 313.708 16.466 314.813C19.6326 316.301 24.6255 316.817 27.851 314.902C28.9556 314.253 28.8525 312.5 28.4843 311.543Z" fill="#263238"/>
<path d="M52.035 287.575C54.7597 289.534 57.293 289.77 60.489 288.164L62.1092 271.002H50.3118L52.035 287.575Z" fill="#F6A6A7"/>
<path d="M26.2013 177.427C24.0215 197.418 21.12 237.12 21.12 237.12C21.12 237.12 17.8356 243.145 16.5543 252.794C14.9783 264.712 13.1226 287.354 13.1226 287.354C13.1226 287.354 18.7046 290.978 24.1099 289.225C24.1099 289.225 36.4964 253.457 38.9708 241.73C41.1359 231.492 44.9505 210.485 44.9505 210.485L49.7225 239.094C48.4853 243.631 47.9551 248.33 48.176 253.044C48.3969 258.554 50.5767 279.605 50.5767 279.605C52.3736 281.299 59.2664 281.506 61.5641 280.062C61.5641 280.062 64.8779 245.001 65.3787 239.211C66.012 231.595 67.1903 176.985 67.1903 176.985L26.2013 177.427Z" fill="#263238"/>
<path d="M44.9802 210.484L47.6461 198.183C47.6461 198.183 53.611 196.828 57.8675 193.41C57.8675 193.41 56.3063 197.329 49.7669 200.334L47.0275 211.854L49.3693 237.133L44.9802 210.484Z" fill="black"/>
<path d="M78.0159 295.367C73.4943 293.673 69.1347 291.699 66.3363 289.755C65.6735 289.313 65.0402 288.827 64.4364 288.311C63.2875 287.147 62.5806 284.643 62.0946 284.348C61.9325 284.26 61.6969 284.348 61.3729 284.569C61.2403 284.392 61.0488 284.289 60.8426 284.26L60.7837 284.952C59.8411 285.556 58.7954 285.939 57.6908 286.072C54.9219 286.425 54.8188 285.866 54.7304 286.764C54.7009 287.103 54.7009 287.442 54.7304 287.781C53.2575 287.589 52.0793 287.147 52.0056 286.602L51.7553 284.834C50.2824 284.761 50.2824 287.368 49.9142 290.329C49.6196 292.73 49.1042 294.469 49.8258 296.192C52.1087 298.034 55.9823 297.43 58.221 297.71C61.3876 298.107 62.9341 300.376 67.3673 301.731C74.4958 303.912 78.8407 300.936 80.122 299.654C80.9468 298.078 80.4755 296.295 78.0159 295.367Z" fill="#263238"/>
<path d="M43.1833 120.857C37.6013 121.712 33.168 121.933 29.265 122.566C26.2752 123.052 25.3768 128.164 25.1853 131.449C24.552 142.203 27.0116 162.798 27.0116 162.798L25.5093 181.168C30.5169 186.531 54.5241 188.873 67.3083 181.021C67.3083 181.021 67.6471 144.487 67.3083 138.329C66.7045 127.487 60.4449 120.548 56.4388 120.253C56.4388 120.268 52.7862 119.399 43.1833 120.857Z" fill="#37474F"/>
<path d="M53.1689 185.588C53.7286 185.515 54.2883 185.426 54.848 185.338C55.0247 178.105 55.2014 163.874 55.01 157.009C54.6712 145.342 53.1689 132.938 51.4163 129.107C53.0364 137.976 53.7728 146.977 53.6255 155.992C53.5371 165.347 53.3015 178.841 53.1689 185.588Z" fill="#263238"/>
<path d="M1.87035 158.143C15.1995 132.746 18.4692 127.221 22.3722 124.408C24.5225 122.876 29.8247 122.434 29.8247 122.434C32.034 124.82 33.5805 133.526 28.8379 141.275C28.8379 141.275 17.6297 156.508 14.5809 161.59C17.7917 167.659 22.5637 175.172 25.5093 178.796C26.1574 179.577 27.0853 180.078 28.0868 180.225C30.679 180.476 31.8572 181.286 34.0518 182.126C35.7603 182.759 36.9238 182.582 36.9091 183.039C36.9091 183.628 36.3347 184.851 34.6556 185.131C33.6394 185.234 32.6084 185.205 31.6069 185.028C33.0502 186.339 34.6998 187.429 36.4819 188.239C40.7384 190.258 42.0493 193.219 35.7603 195.104C33.2564 195.87 28.6612 195.738 22.4606 189.713C20.3544 187.68 16.4219 183.466 14.3453 181.08C8.91049 174.834 4.41835 169.28 1.5316 165.509C-0.279988 163.137 0.647897 160.47 1.87035 158.143Z" fill="#F6A6A7"/>
<path d="M20.6931 171.682L24.3016 177.251C24.3016 177.251 18.3366 178.709 16.3483 183.305L11.1492 177.766C11.1492 177.766 11.4879 175.542 14.8313 173.317C18.1746 171.093 20.6931 171.682 20.6931 171.682Z" fill="#37474F"/>
<path d="M31.7394 122.213C27.3356 122.169 24.007 122.302 21.4148 124.261C18.8226 126.22 15.0669 132.702 12.1065 138.124C9.14613 143.545 1.59049 156.906 0.500596 160C-0.589301 163.093 0.147115 164.611 1.9587 166.865C3.77029 169.119 11.1639 177.751 11.1639 177.751C13.4763 174.864 16.6134 172.286 20.6784 171.667L15.17 161.547L28.0868 144.075C28.0868 144.075 31.6805 139.626 32.4611 132.172C33.2417 124.718 31.7394 122.213 31.7394 122.213Z" fill="#465B65"/>
<path d="M37.778 88.5371C37.778 88.5371 34.7145 88.9643 33.5952 91.2772C32.6231 93.2807 32.9619 98.1273 34.2727 103.416C35.5835 108.705 36.806 111.887 37.5718 113.345C38.0726 114.258 38.9121 114.936 39.9136 115.245L39.7664 108.984L39.5454 104.609C39.5454 104.609 42.3438 100.794 42.6531 97.6265C43.0508 93.59 42.1965 91.9106 42.1965 91.9106L37.778 88.5371Z" fill="#263238"/>
<path d="M37.0561 89.3026L32.7407 87.3286C33.2857 86.0764 34.7438 85.4724 36.0104 85.988C37.2034 86.592 37.6895 88.0504 37.0856 89.2437C37.0856 89.2731 37.0709 89.2879 37.0561 89.3026Z" fill="#263238"/>
<path d="M42.7267 94.6063C42.7414 101.073 47.9994 106.288 54.4652 106.274C60.9309 106.259 66.1448 101 66.13 94.5326C66.1153 88.0655 60.8573 82.8505 54.3915 82.8653C47.9258 82.88 42.6972 88.1392 42.7267 94.6063Z" fill="#263238"/>
<path d="M39.6928 103.873C38.6323 104.786 37.7928 102.429 36.8944 101.501C35.996 100.573 33.1092 99.3209 31.6953 102.356C30.2814 105.39 33.0209 109.648 35.1712 110.649C38.3378 112.123 39.7517 108.926 39.7517 108.926L40.0905 122.111C43.1245 126.722 50.253 124.954 51.284 127.694C51.9173 125.263 55.0986 125.248 52.8157 122.611V118.325C52.8157 118.325 56.3505 118.855 58.0885 118.575C60.9605 118.118 62.4628 115.953 63.3318 112.859C64.7162 107.85 65.2759 99.4388 63.3318 89.7159C60.1063 87.2263 48.9422 87.6388 42.1819 91.9257C42.6826 100.544 40.7385 102.974 39.6928 103.873Z" fill="#F6A6A7"/>
<path d="M64.9371 82.821C64.8635 82.6442 64.7015 82.5264 64.5247 82.4969C64.3774 82.5116 64.2449 82.5706 64.127 82.6737C63.3317 83.3219 62.4775 83.8964 61.5938 84.3973C61.8294 83.2482 61.8442 82.055 61.638 80.9059C61.5054 80.1988 61.3139 78.5489 60.4302 78.3721C59.9 78.269 59.4582 78.6962 59.0605 79.0645C55.5404 82.3643 50.9599 80.8322 46.7181 80.9648C43.1833 81.0827 38.9121 82.5264 37.3067 85.9735C36.5703 87.5498 36.4377 89.1998 37.8958 90.2899C39.1919 91.159 40.6648 91.7041 42.2113 91.9104C49.2661 93.1331 59.3551 96.0499 64.5984 89.4649C65.3642 88.4779 65.7619 87.2552 65.703 86.0177C65.7177 84.9129 65.4673 83.8375 64.996 82.8505L64.9371 82.821Z" fill="#263238"/>
<path d="M52.801 118.339C52.801 118.339 46.3647 117.072 44.126 115.879C42.8004 115.201 41.7253 114.126 41.0183 112.814C41.3571 114.126 41.9609 115.363 42.7857 116.438C44.4353 118.53 52.8157 120.048 52.8157 120.048L52.801 118.339Z" fill="#F48F8D"/>
<path d="M51.9318 104.314C51.8877 105.021 51.2985 105.552 50.5916 105.507C49.8846 105.463 49.3544 104.874 49.3986 104.167C49.428 103.489 49.9877 102.974 50.6652 102.974C51.3869 102.988 51.9466 103.592 51.9318 104.314Z" fill="#263238"/>
<path d="M50.5621 99.4532L47.8373 100.985C47.4249 100.205 47.7048 99.2322 48.4706 98.7903C49.2365 98.3925 50.1644 98.6872 50.5621 99.4532Z" fill="#263238"/>
<path d="M52.5651 112.505L56.6743 114.022C56.3061 115.157 55.0984 115.79 53.9643 115.422L53.8906 115.392C52.7418 114.936 52.1527 113.669 52.5651 112.505Z" fill="#F48F8D"/>
<path d="M63.2728 100.809L60.7395 98.9081C61.2108 98.2158 62.1681 98.039 62.8604 98.5251L62.9193 98.5693C63.6115 99.0997 63.7588 100.087 63.2728 100.809Z" fill="#263238"/>
<path d="M62.5071 103.917C62.4776 104.624 61.8885 105.154 61.1815 105.125C60.4746 105.095 59.9444 104.506 59.9738 103.799C60.0033 103.121 60.563 102.591 61.2405 102.591C61.9621 102.606 62.5218 103.195 62.5071 103.917Z" fill="#263238"/>
<path d="M56.0706 102.709L56.5271 110.443L60.5627 109.058L56.0706 102.709Z" fill="#F48F8D"/>
<path d="M102.833 141.718V141.6C102.818 141.57 102.789 141.541 102.774 141.511C102.759 141.482 102.73 141.453 102.686 141.438H102.656L101.39 140.716C101.228 140.642 101.051 140.657 100.904 140.76L89.3713 147.404C88.9589 147.669 88.7086 148.111 88.6791 148.612V173.847C88.6644 174.024 88.738 174.186 88.8853 174.289L90.1519 175.026H90.2256C90.2698 175.04 90.3287 175.04 90.3729 175.026C90.4612 175.011 90.5349 174.982 90.6085 174.937L102.141 168.279C102.553 168.014 102.804 167.572 102.833 167.085V141.894C102.833 141.836 102.848 141.777 102.833 141.718ZM96.8091 146.343L94.217 147.831C94.3348 147.434 94.5999 147.109 94.9534 146.888L97.5456 145.401C97.4277 145.784 97.1626 146.122 96.8091 146.343Z" fill="#4D4C4D"/>
<path d="M90.1961 175.026L88.9295 174.289C88.7822 174.186 88.7086 174.024 88.7233 173.847V148.598C88.7233 148.362 88.7969 148.126 88.9295 147.92L90.1961 148.657C90.0636 148.863 90.0047 149.098 89.9899 149.334V174.569C89.9605 174.746 90.0489 174.938 90.1961 175.026Z" fill="#4D4C4D"/>
<path d="M102.833 141.717V141.6C102.818 141.57 102.789 141.541 102.774 141.511C102.759 141.482 102.73 141.452 102.686 141.438H102.656C102.509 141.393 102.332 141.408 102.2 141.511L96.8386 144.605L93.9077 146.299L90.6675 148.17C90.2698 148.435 90.0047 148.877 89.9752 149.363V174.584C89.9605 174.775 90.0489 174.952 90.1962 175.04H90.2698C90.314 175.055 90.3729 175.055 90.4171 175.04C90.5054 175.025 90.5791 174.996 90.6527 174.952L102.185 168.293C102.597 168.028 102.848 167.586 102.877 167.1V141.894C102.877 141.835 102.863 141.776 102.833 141.717Z" fill="#221F1F"/>
<path d="M107.075 165.715C107.075 164.772 107.531 164.124 107.075 162.975C106.618 161.826 104.689 159.793 103.776 158.084C102.862 156.375 102.2 155.918 101.552 156.714C100.992 157.392 102.347 160.75 102.745 161.708C102.023 161.325 101.331 161.163 100.756 161.531C99.4897 162.341 101.449 164.212 101.449 164.212C101.449 164.212 99.9315 164.536 99.8432 165.582C99.7548 166.628 101.743 168.573 101.743 168.573L93.9666 173.066C95.2921 173.434 96.6618 173.685 98.0316 173.817C98.7238 173.861 99.4308 173.861 100.123 173.817C102.597 173.582 103.569 173.125 104.969 171.755C105.955 170.679 106.736 169.442 107.296 168.087C107.59 167.306 107.517 166.422 107.075 165.715Z" fill="#F6A6A7"/>
<path d="M102.597 169.413L101.728 168.573L93.9519 173.066C95.2775 173.435 96.6472 173.685 98.0169 173.818L102.597 169.413Z" fill="#F48F8D"/>
<path d="M39.9577 117.293C39.1476 117.352 38.8089 117.455 38.1461 118.781C37.395 120.298 36.7322 121.683 36.7322 121.683C36.9089 123.907 37.881 125.999 39.4864 127.546C42.2111 130.316 48.2792 132.201 48.2792 132.201C48.2792 132.201 48.78 129.402 49.1629 128.253C50.0024 125.719 51.2838 127.738 51.2838 127.738C51.1954 127.193 50.9598 126.677 50.5916 126.25C50.0466 125.764 46.5854 125.469 43.8165 123.716C42.0933 122.537 40.753 120.873 40.0019 118.928L39.9577 117.293Z" fill="#465B65"/>
<path d="M51.2841 127.708C51.2104 126.898 51.4755 126.103 52.0205 125.499C52.8011 124.35 52.8011 123.289 52.8011 122.125C52.8011 120.961 52.8011 118.31 52.8011 118.31C53.7437 118.427 54.4359 118.589 55.0103 120.048C55.5847 121.506 56.6746 124.497 56.1886 127.399C55.7026 130.301 54.4507 131.273 54.4507 131.273C54.4507 131.273 53.729 128.813 53.2724 127.679C52.8158 126.545 51.9616 126.279 51.2841 127.708Z" fill="#465B65"/>
<path d="M96.9273 151.381C97.8058 151.381 98.518 150.669 98.518 149.79C98.518 148.912 97.8058 148.199 96.9273 148.199C96.0488 148.199 95.3367 148.912 95.3367 149.79C95.3367 150.669 96.0488 151.381 96.9273 151.381Z" fill="white"/>
<path d="M398.46 52.9014H391.479V68.0454H398.46V52.9014Z" fill="#263238"/>
<path d="M434.515 61.2832H348.148V274.566H434.515V61.2832Z" fill="#8378B7"/>
<path d="M434.589 106.009H348.222V181.935H434.589V106.009Z" fill="#6654A3"/>
<path d="M413.469 274.566H369.21V214.138C369.21 201.91 379.122 191.996 391.347 191.996C403.571 191.996 413.483 201.91 413.483 214.138L413.469 274.566Z" fill="#6654A3"/>
<path d="M426.488 85.1925C426.488 85.2956 411.613 85.384 393.276 85.384C374.939 85.384 360.063 85.2956 360.063 85.1925C360.063 85.0894 374.924 85.001 393.276 85.001C411.627 85.001 426.488 85.0894 426.488 85.1925Z" fill="#263238"/>
<path d="M426.488 79.0646C426.488 79.1677 411.613 79.2561 393.276 79.2561C374.939 79.2561 360.063 79.1677 360.063 79.0646C360.063 78.9614 374.924 78.873 393.276 78.873C411.627 78.873 426.488 78.9614 426.488 79.0646Z" fill="#263238"/>
<path d="M426.488 91.085C426.488 91.1882 411.613 91.2765 393.276 91.2765C374.939 91.2765 360.063 91.1882 360.063 91.085C360.063 90.9819 374.924 90.8936 393.276 90.8936C411.627 90.8936 426.488 90.9819 426.488 91.085Z" fill="#263238"/>
<path d="M472.632 274.567C472.632 274.67 438.389 274.758 396.178 274.758C353.966 274.758 319.708 274.67 319.708 274.567C319.708 274.463 353.937 274.375 396.178 274.375C438.389 274.375 472.632 274.463 472.632 274.567Z" fill="#221F1F"/>
<path d="M442.587 22.8193H340.151V53.6524H442.587V22.8193Z" fill="#F3F4F4"/>
<path d="M442.587 53.6525C442.587 53.6525 442.587 53.461 442.572 53.1074L442.557 51.5459C442.557 50.1611 442.543 48.1281 442.528 45.4912C442.513 40.2173 442.484 32.5127 442.469 22.8194L442.587 22.9372L340.166 23.0109L340.357 22.8194C340.357 33.485 340.357 43.856 340.357 53.6525L340.181 53.4757L413.38 53.5641L434.825 53.6083L440.584 53.6377L442.086 53.6525C442.41 53.6525 442.587 53.6525 442.587 53.6525C442.587 53.6525 442.425 53.6672 442.101 53.6672L440.628 53.6819L434.899 53.7114L413.484 53.7556L340.151 53.844H339.974V53.6672C339.974 43.8707 339.974 33.4997 339.974 22.8341V22.6426H340.166L442.587 22.7162H442.705V22.8341C442.675 32.5716 442.646 40.2762 442.631 45.5796C442.616 48.2018 442.616 50.2348 442.601 51.6048L442.587 53.1516C442.587 53.4904 442.587 53.6525 442.587 53.6525Z" fill="#263238"/>
<path d="M362.406 44.0771C362.244 43.9151 362.155 43.6941 362.155 43.3995V32.6749C362.155 32.4097 362.229 32.1888 362.391 32.0267C362.553 31.8647 362.774 31.791 363.054 31.791H367.31C368.621 31.791 369.652 32.1151 370.374 32.7633C371.11 33.4115 371.464 34.3248 371.464 35.5181C371.464 36.6966 371.095 37.61 370.374 38.2729C369.637 38.9358 368.621 39.2599 367.31 39.2599H363.982V43.4142C363.982 43.6941 363.908 43.9151 363.746 44.0919C363.584 44.2539 363.363 44.3423 363.068 44.3423C362.789 44.3128 362.568 44.2392 362.406 44.0771ZM367.119 37.7868C368.857 37.7868 369.726 37.0207 369.726 35.5034C369.726 34.0007 368.857 33.2494 367.119 33.2494H363.982V37.7868H367.119Z" fill="#6654A3"/>
<path d="M379.402 36.2686C379.962 36.8431 380.242 37.727 380.242 38.9055V43.4723C380.242 43.7375 380.168 43.9584 380.006 44.1058C379.859 44.2531 379.638 44.3267 379.373 44.3267C379.108 44.3267 378.901 44.2531 378.754 44.091C378.607 43.9437 378.518 43.7375 378.518 43.4723V42.8241C378.297 43.325 377.959 43.6933 377.517 43.9584C377.075 44.2236 376.56 44.3562 375.97 44.3562C375.411 44.3562 374.895 44.2383 374.424 44.0174C373.953 43.7817 373.584 43.4723 373.319 43.0598C373.054 42.6473 372.922 42.1907 372.922 41.6898C372.922 41.0711 373.084 40.5702 373.408 40.2166C373.732 39.8631 374.262 39.5979 375.013 39.4506C375.764 39.3033 376.78 39.2149 378.091 39.2149H378.504V38.6993C378.504 38.0364 378.371 37.565 378.091 37.2703C377.826 36.9757 377.384 36.8284 376.78 36.8284C376.368 36.8284 375.985 36.8873 375.617 36.9904C375.249 37.0935 374.851 37.2556 374.424 37.4471C374.1 37.6239 373.879 37.7123 373.746 37.7123C373.57 37.7123 373.422 37.6533 373.319 37.5208C373.201 37.3882 373.157 37.2261 373.157 37.0199C373.157 36.8431 373.201 36.6811 373.305 36.5485C373.408 36.4159 373.57 36.2833 373.791 36.1507C374.203 35.9297 374.689 35.753 375.234 35.6057C375.794 35.4731 376.324 35.3994 376.839 35.3994C378.003 35.3994 378.842 35.694 379.402 36.2686ZM377.9 42.3674C378.312 41.9255 378.518 41.3657 378.518 40.6586V40.2019H378.194C377.281 40.2019 376.574 40.2461 376.073 40.3198C375.573 40.4081 375.219 40.5407 375.013 40.7322C374.807 40.9237 374.689 41.2036 374.689 41.5719C374.689 41.9991 374.836 42.338 375.146 42.6179C375.455 42.883 375.838 43.0304 376.294 43.0304C376.957 43.0304 377.487 42.8094 377.9 42.3674Z" fill="#6654A3"/>
<path d="M388.048 36.1662C388.048 36.4313 387.989 36.6229 387.856 36.7554C387.724 36.888 387.503 36.9617 387.179 36.9911L386.649 37.0501C385.912 37.1237 385.352 37.3742 384.999 37.8308C384.645 38.2728 384.454 38.8179 384.454 39.4513V43.4878C384.454 43.7677 384.366 43.9886 384.204 44.1212C384.042 44.2685 383.821 44.3275 383.57 44.3275C383.305 44.3275 383.099 44.2538 382.922 44.1212C382.746 43.9739 382.672 43.7677 382.672 43.4878V36.2988C382.672 36.0336 382.76 35.8126 382.922 35.6653C383.099 35.518 383.305 35.4443 383.57 35.4443C383.806 35.4443 383.997 35.518 384.159 35.6653C384.321 35.8126 384.395 36.0189 384.395 36.2693V37.1237C384.631 36.6081 384.97 36.2104 385.411 35.9452C385.853 35.68 386.369 35.518 386.928 35.4738L387.179 35.4591C387.768 35.4001 388.048 35.6506 388.048 36.1662Z" fill="#6654A3"/>
<path d="M396.693 43.4875C396.693 43.7084 396.62 43.8999 396.458 44.0767C396.31 44.2388 396.119 44.3272 395.913 44.3272C395.692 44.3272 395.486 44.2388 395.309 44.0767L390.92 40.1876V43.458C390.92 43.7379 390.831 43.9589 390.669 44.1062C390.507 44.2535 390.286 44.3272 390.036 44.3272C389.771 44.3272 389.565 44.2535 389.388 44.1062C389.211 43.9589 389.138 43.7379 389.138 43.458V32.5567C389.138 32.2768 389.226 32.0558 389.388 31.9085C389.565 31.7612 389.771 31.6875 390.036 31.6875C390.301 31.6875 390.507 31.7612 390.669 31.9085C390.831 32.0558 390.92 32.2768 390.92 32.5567V39.4805L394.941 35.7239C395.147 35.5472 395.338 35.4588 395.53 35.4588C395.751 35.4588 395.942 35.5472 396.119 35.7092C396.281 35.8713 396.369 36.0628 396.369 36.2985C396.369 36.5194 396.266 36.7257 396.075 36.9172L392.938 39.7898L396.399 42.8393C396.59 43.016 396.693 43.2223 396.693 43.4875Z" fill="#6654A3"/>
<path d="M398.358 33.4259C398.151 33.2344 398.063 32.984 398.063 32.6893C398.063 32.38 398.166 32.1443 398.358 31.9527C398.564 31.776 398.829 31.6729 399.168 31.6729C399.492 31.6729 399.771 31.7612 399.978 31.9527C400.184 32.1295 400.287 32.38 400.287 32.6893C400.287 32.9987 400.184 33.2491 399.992 33.4259C399.786 33.6174 399.521 33.7058 399.182 33.7058C398.814 33.7058 398.549 33.6174 398.358 33.4259ZM398.52 44.1063C398.343 43.959 398.269 43.7527 398.269 43.4728V36.3133C398.269 36.0334 398.358 35.8124 398.52 35.6651C398.696 35.5178 398.903 35.4441 399.168 35.4441C399.433 35.4441 399.639 35.5178 399.801 35.6651C399.963 35.8124 400.051 36.0334 400.051 36.3133V43.4728C400.051 43.7527 399.963 43.9737 399.801 44.1063C399.639 44.2536 399.418 44.3125 399.168 44.3125C398.903 44.3125 398.682 44.2536 398.52 44.1063Z" fill="#6654A3"/>
<path d="M410.258 38.8771V43.4733C410.258 43.7385 410.184 43.9595 410.022 44.1068C409.86 44.2541 409.639 44.3278 409.359 44.3278C409.094 44.3278 408.873 44.2541 408.711 44.0921C408.549 43.9447 408.476 43.7385 408.476 43.4733V38.9655C408.476 38.2289 408.328 37.6986 408.049 37.3597C407.754 37.0209 407.312 36.8441 406.694 36.8441C405.972 36.8441 405.398 37.0651 404.97 37.5218C404.529 37.9637 404.322 38.5677 404.322 39.319V43.4733C404.322 43.7385 404.249 43.9447 404.087 44.0921C403.925 44.2394 403.719 44.3278 403.439 44.3278C403.174 44.3278 402.953 44.2541 402.791 44.0921C402.629 43.9447 402.54 43.7385 402.54 43.4733V36.2843C402.54 36.0339 402.629 35.8277 402.791 35.6803C402.967 35.5183 403.174 35.4446 403.439 35.4446C403.704 35.4446 403.91 35.5183 404.057 35.6803C404.205 35.8277 404.293 36.0339 404.293 36.2843V37.0062C404.573 36.4906 404.97 36.0928 405.471 35.8277C405.972 35.5625 406.546 35.4152 407.18 35.4152C409.227 35.4004 410.258 36.5642 410.258 38.8771Z" fill="#6654A3"/>
<path d="M420.465 35.6794C420.627 35.8414 420.7 36.0477 420.7 36.3129V43.546C420.7 44.8571 420.347 45.8589 419.655 46.5218C418.948 47.1995 417.917 47.5235 416.562 47.5235C415.295 47.5235 414.235 47.2878 413.38 46.8017C412.938 46.5513 412.732 46.2566 412.732 45.9178C412.732 45.7116 412.791 45.5495 412.894 45.4169C413.012 45.2844 413.145 45.2254 413.307 45.2254C413.454 45.2254 413.704 45.3138 414.028 45.4906C414.456 45.6968 414.853 45.8442 415.207 45.962C415.575 46.0799 416.002 46.1241 416.518 46.1241C418.138 46.1241 418.948 45.2991 418.948 43.6639V42.3086C418.697 42.8242 418.329 43.2367 417.814 43.5166C417.313 43.8112 416.724 43.9438 416.046 43.9438C415.295 43.9438 414.618 43.767 414.028 43.4135C413.439 43.0599 412.983 42.559 412.659 41.9108C412.335 41.2626 412.173 40.5113 412.173 39.6716C412.173 38.8319 412.335 38.0806 412.673 37.4324C412.997 36.7843 413.454 36.2834 414.043 35.9298C414.632 35.5763 415.295 35.3848 416.046 35.3848C416.709 35.3848 417.283 35.5321 417.784 35.812C418.285 36.0919 418.668 36.4896 418.918 37.0052V36.2687C418.918 36.0035 418.992 35.7972 419.154 35.6499C419.316 35.5026 419.522 35.4142 419.802 35.4142C420.097 35.4437 420.317 35.5173 420.465 35.6794ZM418.285 41.793C418.727 41.2921 418.933 40.585 418.933 39.6864C418.933 38.8025 418.712 38.1101 418.285 37.5945C417.858 37.0789 417.254 36.8285 416.473 36.8285C415.693 36.8285 415.089 37.0789 414.647 37.5945C414.205 38.0954 413.984 38.8025 413.984 39.7011C413.984 40.5997 414.205 41.2921 414.662 41.8077C415.104 42.3086 415.707 42.5738 416.473 42.5738C417.254 42.5443 417.858 42.2939 418.285 41.793Z" fill="#6654A3"/>
<path d="M412.732 119.768H370.079V166.658H412.732V119.768Z" fill="white"/>
<path d="M384.204 124.01H372.2V136.016H384.204V124.01ZM381.803 133.615H374.601V126.411H381.803V133.615Z" fill="black"/>
<path d="M379.402 128.812H377.001V131.214H379.402V128.812Z" fill="black"/>
<path d="M398.608 124.01V136.016H410.612V124.01H398.608ZM408.211 133.615H401.009V126.411H408.211V133.615Z" fill="black"/>
<path d="M405.81 128.812H403.409V131.214H405.81V128.812Z" fill="black"/>
<path d="M372.2 162.43H384.204V150.424H372.2V162.43ZM374.601 152.825H381.803V160.029H374.601V152.825Z" fill="black"/>
<path d="M379.402 155.227H377.001V157.628H379.402V155.227Z" fill="black"/>
<path d="M396.207 124.01H391.406V126.411H396.207V124.01Z" fill="black"/>
<path d="M391.405 133.615H393.806V131.214H396.207V128.812H389.005V126.411H386.604V128.812V130.006V131.214H391.405V133.615Z" fill="black"/>
<path d="M389.005 133.615H386.604V136.016H389.005V133.615Z" fill="black"/>
<path d="M396.207 136.017H393.806V138.418H386.604V140.819H396.207V136.017Z" fill="black"/>
<path d="M374.601 145.622H377.001V143.22H374.601V138.418H372.2V148.023H374.601V145.622Z" fill="black"/>
<path d="M379.402 138.418H377.001V140.819H379.402V138.418Z" fill="black"/>
<path d="M386.604 148.023H391.405V145.622H389.005V143.22H384.203V138.418H381.803V143.22H379.402V148.023H381.803V145.622H382.996H384.203H386.604V148.023Z" fill="black"/>
<path d="M396.207 143.22H393.806V148.022H396.207V143.22Z" fill="black"/>
<path d="M393.806 150.424H386.604V152.825H391.405V160.029H386.604V162.43H393.806V160.029H398.608V157.628H393.806V150.424Z" fill="black"/>
<path d="M389.005 155.227H386.604V157.628H389.005V155.227Z" fill="black"/>
<path d="M398.608 150.424H396.207V155.226H398.608V150.424Z" fill="black"/>
<path d="M408.211 155.227H401.009V162.43H403.409V157.628H408.211V155.227Z" fill="black"/>
<path d="M410.611 160.029H405.81V162.431H410.611V160.029Z" fill="black"/>
<path d="M410.611 150.424H408.211V152.825H410.611V150.424Z" fill="black"/>
<path d="M401.009 152.825H403.409V145.621H398.608V148.022H401.009V152.825Z" fill="black"/>
<path d="M405.81 140.819H403.409V138.418H401.009V140.819H398.608V143.22H408.211V140.819H410.612V138.418H405.81V140.819Z" fill="black"/>
<path d="M410.611 145.621H405.81V148.022H410.611V145.621Z" fill="black"/>
<path d="M204.591 79.182L137.194 117.263V260.233L129.874 256.064C129.02 255.577 128.49 254.664 128.49 253.677V148.671L118.887 159.778L112.038 155.58C111.567 155.3 111.42 154.681 111.7 154.21C111.729 154.151 111.773 154.092 111.832 154.048L128.475 136.488V117.145C128.475 114.464 129.904 111.989 132.216 110.634L195.18 73.8197C196.019 73.3335 197.065 73.3335 197.905 73.8197L204.591 77.7088C204.989 77.9298 205.136 78.4454 204.901 78.8431C204.842 78.9905 204.724 79.1083 204.591 79.182Z" fill="#443A79"/>
<path d="M205.991 80.2717V219.986C205.991 221.061 205.401 222.063 204.459 222.593L140.125 259.466C138.712 260.88 135.324 261.028 135.648 256.873L134.838 158.761L119.609 159.999C119.02 160.043 118.504 159.601 118.46 159.027C118.431 158.717 118.548 158.423 118.755 158.202L134.705 141.525L134.514 118.191C134.499 117.115 135.074 116.114 136.016 115.568L201.484 77.679C202.912 76.854 204.753 77.3401 205.578 78.7691C205.843 79.2258 205.991 79.7414 205.991 80.2717Z" fill="#6653A2"/>
<path d="M194.944 114.655V182.391L148.668 208.097V140.671L194.944 114.655Z" fill="white"/>
<path d="M151.039 145.444V162.636L164.074 155.27V138.02L151.039 145.444ZM161.319 153.473L153.705 157.833V147.404L161.319 143.146V153.473Z" fill="#221F1F"/>
<path d="M158.668 148.008L156.209 149.304V152.722L158.668 151.367V148.008Z" fill="#221F1F"/>
<path d="M151.039 183.408V200.6L164.074 193.234V175.983L151.039 183.408ZM161.319 191.437L153.705 195.797V185.367L161.319 181.11V191.437Z" fill="#221F1F"/>
<path d="M158.668 185.971L156.209 187.282V190.685L158.668 189.329V185.971Z" fill="#221F1F"/>
<path d="M179.568 129.24V146.432L192.602 139.066V121.83L179.568 129.24ZM189.848 137.269L182.234 141.629V131.199L189.848 126.942V137.269Z" fill="#221F1F"/>
<path d="M187.182 131.803L184.738 133.099V136.517L187.182 135.161V131.803Z" fill="#221F1F"/>
<path d="M153.705 178.414L151.039 179.99V166.113L153.484 164.758V171.682L156.209 170.135V173.567L153.705 174.923V178.414Z" fill="#221F1F"/>
<path d="M156.209 163.225V166.687L158.83 165.258V161.752L156.209 163.225Z" fill="#221F1F"/>
<path d="M161.319 160.25L164.074 158.895V165.642L169.17 162.887V166.187L171.791 164.949V168.264L166.754 171.122L166.563 167.689L161.319 170.665V174.171L158.83 175.526V168.676L161.334 167.203L161.319 160.25Z" fill="#221F1F"/>
<path d="M174.501 159.72L177.064 158.482V165.215L174.501 166.688V159.72Z" fill="#221F1F"/>
<path d="M177.064 168.705L179.627 167.453V174.185L177.064 175.659V168.705Z" fill="#221F1F"/>
<path d="M169.125 148.936L166.533 150.482V153.856L169.125 152.383V148.936Z" fill="#221F1F"/>
<path d="M192.941 159.72L190.349 161.281V164.655L192.941 163.182V159.72Z" fill="#221F1F"/>
<path d="M169.273 179.916L166.68 181.478V184.851L169.273 183.378V179.916Z" fill="#221F1F"/>
<path d="M192.956 173.67L187.742 176.528V179.916L192.956 177.088V173.67Z" fill="#221F1F"/>
<path d="M192.956 153.017L187.742 155.875V159.263L192.956 156.42V153.017Z" fill="#221F1F"/>
<path d="M177.005 130.713L171.791 133.571V136.959L177.005 134.116V130.713Z" fill="#221F1F"/>
<path d="M190.349 168.367V171.564L185.032 174.584V181.508L182.469 182.951V172.669L190.349 168.367Z" fill="#221F1F"/>
<path d="M174.501 149.348L177.064 148.008V154.873L166.533 160.633V157.377L174.501 153.017V149.348Z" fill="#221F1F"/>
<path d="M179.627 160.382L184.988 157.377V167.66L182.308 169.118V162.341L179.627 163.756V160.382Z" fill="#221F1F"/>
<path d="M166.68 174.525V178.046L172.042 174.981V185.411L166.887 188.328V191.731L174.501 187.371V183.703L179.965 181.11V177.456L174.501 180.506V170.135L166.68 174.525Z" fill="#221F1F"/>
<path d="M179.627 153.371V156.936L190.099 151.058V147.655L192.765 146.078V142.572L187.521 145.489V148.936L184.988 150.483V147.051L182.308 148.509V152.015L179.627 153.371Z" fill="#221F1F"/>
<path d="M174.413 142.572V146.019L171.791 147.389V143.942L166.622 146.844V140.185L169.126 138.712V142.233L176.991 137.784V141.084L174.413 142.572Z" fill="#221F1F"/>
</g>
<defs>
<clipPath id="clip0">
<rect width="507.17" height="348.18" fill="white"/>
</clipPath>
</defs>
</svg>
