<svg xmlns="http://www.w3.org/2000/svg" width="208" height="153" fill="none" viewBox="0 0 208 153"><path fill="#D6DCFD" d="M196.831 111.002C194.343 115.925 190.972 120.349 186.886 124.054C185.82 124.982 184.679 125.821 183.476 126.562C182.389 127.232 181.244 127.804 180.056 128.271C163.006 134.935 145.549 119.776 126.045 121.566C109.696 123.071 97.9306 131.656 87.5022 138.861C84.0725 141.331 80.4948 143.588 76.789 145.62C75.8019 146.139 74.8098 146.613 73.8276 147.035C72.7664 147.481 71.6394 147.903 70.4359 148.287C70.4359 148.289 70.4351 148.291 70.4335 148.293C70.432 148.295 70.4299 148.296 70.4277 148.296L70.4178 148.287C55.3094 153.184 29.7906 153.005 18.4802 142.468C6.64011 131.431 -7.73949 95.6565 24.8268 49.5855C61.0118 -1.62723 159.875 -8.70899 186.293 8.22783C213.626 25.7356 212.527 81.5769 196.831 111.002Z"/><path fill="#2E353A" d="M43.0298 20.1334C51.1739 9.40544 59.7654 10.9192 65.7262 13.5132C68.6931 14.8679 71.1883 17.0771 72.8925 19.8582C74.5968 22.6393 75.4324 25.8658 75.2926 29.1246C75.1873 30.8383 74.8212 32.6424 75.5147 34.2113C76.6351 36.7353 79.8968 37.4461 81.7855 39.4601C84.3678 42.2145 83.7961 46.5756 82.9241 50.2481C82.0521 53.9206 81.1332 58.1156 83.2934 61.2114C85.2677 64.0472 89.0436 64.8082 92.154 66.3162C94.2214 67.3031 96.0571 68.7157 97.5405 70.4616C99.024 72.2075 100.122 74.2471 100.762 76.4468C101.367 78.6578 101.414 80.9842 100.9 83.2179C100.385 85.4516 99.3258 87.5232 97.8154 89.2472C94.7914 92.5429 90.2471 94.0032 85.8255 94.6548C79.362 95.607 72.7678 95.1133 66.5181 93.2094C60.2683 91.3056 54.5188 88.0388 49.6838 83.6447C44.8487 79.2506 41.0485 73.8384 38.5572 67.7984C36.0658 61.7583 34.9454 55.2408 35.2765 48.7154"/><path fill="#4D5A64" d="M93.1656 90.3481C93.1409 90.3226 93.446 90.0824 93.9059 89.5213C94.5776 88.7081 95.0714 87.7631 95.3554 86.7472C95.7684 85.1295 95.783 83.4357 95.3982 81.811C94.9368 79.6499 93.8894 77.6575 92.3709 76.0522C91.5002 75.1155 90.509 74.2986 89.4234 73.6228C88.2278 72.9092 86.9721 72.3016 85.6705 71.807C84.2514 71.2717 82.8783 70.6216 81.5648 69.8631C80.1831 68.9993 78.978 67.8808 78.0135 66.5673C75.9796 63.7156 74.8792 60.3038 74.8637 56.8011C74.8263 54.9709 74.9815 53.1419 75.3268 51.3442C75.6559 49.5228 76.1207 47.7112 76.4728 45.8692C76.747 44.5886 76.8979 43.2847 76.9236 41.9753C76.8614 40.7029 76.5711 39.4519 76.0664 38.2822C75.5934 37.0984 75.0373 35.9491 74.5922 34.7537C74.1993 33.5553 73.9418 32.3165 73.8247 31.0607C73.6767 29.8307 73.6767 28.6189 73.5376 27.4663C73.4118 26.3235 73.1916 25.1931 72.8795 24.0866C72.3281 21.9964 71.4034 20.0232 70.15 18.262L70.1361 18.2422V18.2381C69.2024 16.7842 67.9679 15.5473 66.516 14.6107C65.064 13.6741 63.4283 13.0595 61.7189 12.8083C59.0604 12.4354 56.3551 13.0007 54.0684 14.4068C52.5904 15.2912 51.3145 16.476 50.3229 17.8844C49.6451 18.8626 49.3951 19.4549 49.3613 19.4385C49.5823 18.8653 49.8676 18.3191 50.2119 17.8104C51.1727 16.3445 52.4431 15.1069 53.9335 14.1847C56.2617 12.7006 59.038 12.0838 61.7756 12.4423C63.5477 12.685 65.2467 13.3068 66.757 14.2652C68.2672 15.2236 69.5533 16.4962 70.5276 17.9963L70.5095 17.9724C71.8166 19.7755 72.7829 21.8025 73.3607 23.9534C73.6835 25.0843 73.9121 26.2401 74.0444 27.4087C74.1924 28.6066 74.1924 29.8077 74.3405 31.0039C74.4544 32.2167 74.7028 33.4131 75.0809 34.5711C75.5144 35.7294 76.068 36.8747 76.5558 38.0832C77.0858 39.3109 77.3901 40.6241 77.4542 41.9598C77.4315 43.308 77.2783 44.6508 76.9968 45.9695C76.6397 47.8354 76.1782 49.6436 75.8451 51.4412C75.5042 53.2026 75.3493 54.995 75.3827 56.7887C75.3881 60.1858 76.4428 63.4982 78.4026 66.2728C79.3255 67.5412 80.4802 68.6232 81.8058 69.4616C83.0952 70.2137 84.4433 70.8605 85.8367 71.3957C87.1574 71.908 88.4303 72.536 89.6406 73.2723C90.7507 73.9763 91.7619 74.8254 92.6473 75.7971C94.1931 77.4626 95.2467 79.5241 95.691 81.7526C96.0612 83.4226 96.014 85.1582 95.5536 86.8057C95.2426 87.8386 94.7069 88.7898 93.9849 89.5913C93.7437 89.8761 93.4686 90.1302 93.1656 90.3481Z"/><path fill="#E8505B" d="M60.7228 70.9491L36.1607 73.9404C36.1607 73.9404 16.397 77.5339 12.4246 92.3366C9.68026 102.559 4.00163 121.602 0.749775 132.402C0.0700556 134.661 0.200355 137.087 1.11816 139.26C2.03597 141.433 3.6837 143.218 5.77689 144.306C8.15999 145.544 10.9373 145.785 13.4981 144.976C16.0589 144.166 18.1935 142.373 19.4325 139.99C19.5422 139.783 19.6432 139.571 19.7353 139.356L30.4772 114.634C30.4772 114.634 34.2613 123.272 34.0458 127.354C33.8302 131.435 25.1029 146.852 25.1029 146.852C43.2452 157.256 61.8202 152.446 76.1594 145.947L75.5293 109.973C75.5293 109.973 82.2798 144.833 95.9528 142.178C107.414 139.957 99.8668 117.614 95.9528 109.067C90.9594 98.1696 84.4458 82.6222 80.3425 78.874C69.3514 68.8207 60.7228 70.9491 60.7228 70.9491Z"/><g opacity=".2"><g opacity=".2"><g opacity=".2"><path fill="#000" d="M38.0234 76.3473C36.4482 78.6087 34.5655 80.6394 32.4296 82.381C31.1002 83.6817 29.5519 84.7377 27.8558 85.5006C27.0032 85.8739 26.0723 86.0335 25.1441 85.9654C24.2158 85.8973 23.3182 85.6036 22.5292 85.1099C21.023 84.0255 20.4307 81.6652 21.6037 80.2263C22.4868 79.3625 23.6238 78.8048 24.8474 78.6353L36.7796 75.6934" opacity=".2"/></g></g></g><path fill="#2E353A" d="M6.70117 121.882C7.67693 121.041 8.8337 120.437 10.0813 120.117C11.3288 119.797 12.6334 119.769 13.8934 120.036C11.3762 120.015 8.89702 120.651 6.70117 121.882Z"/><path fill="#2E353A" d="M9.94238 118.492C10.7466 118.073 11.6552 117.896 12.558 117.982C13.4608 118.069 14.319 118.416 15.0287 118.98C13.4173 118.325 11.6492 118.155 9.94238 118.492Z"/><g opacity=".2"><g opacity=".2"><g opacity=".2"><path fill="#000" d="M14.8221 120.316C13.7454 119.796 12.5516 119.566 11.3588 119.649C10.1659 119.732 9.0153 120.124 8.0206 120.788C7.60929 121.07 7.08936 121.411 6.65913 121.158C6.24781 120.916 6.27169 120.293 6.49956 119.873C7.04414 118.872 8.28711 118.493 9.42069 118.375C11.4758 118.164 13.5502 118.498 15.4358 119.342" opacity=".2"/></g></g></g><g opacity=".2"><g opacity=".2"><g opacity=".2"><path fill="#000" d="M54.7448 103.803C53.4517 106.409 49.7309 108.04 47.9894 110.878C46.5185 113.277 45.9707 116.107 45.0847 118.776C42.5886 126.205 37.4559 132.46 30.6582 136.359C32.0049 133.806 33.0987 131.128 33.9241 128.363C34.1036 126.677 33.8548 124.974 33.201 123.41C34.045 120.821 37.7361 117.24 39.4275 115.106C41.368 112.476 43.5675 110.046 45.9928 107.855C48.4381 105.655 51.4873 104.241 54.7456 103.794" opacity=".2"/></g></g></g><path fill="#2E353A" d="M85.115 120.727C85.1633 121.428 85.1473 122.133 85.0673 122.832C85.0015 124.127 84.855 125.914 84.9365 127.877C85.0763 131.834 86.608 134.758 86.4591 134.804C86.4361 134.814 86.3325 134.639 86.1639 134.316C85.9318 133.855 85.7258 133.381 85.5469 132.897C84.9573 131.291 84.6209 129.603 84.5498 127.894C84.5052 126.195 84.5877 124.495 84.7966 122.809C84.838 122.106 84.9447 121.409 85.115 120.727Z"/><path fill="#B78876" d="M56.1397 94.0278C56.1397 94.0278 58.7293 95.1747 60.7464 96.1002C63.9382 97.5638 65.001 94.9039 65.001 94.9039L56.1281 88.4871C54.956 87.6584 53.5591 87.2065 52.1237 87.1918C50.6883 87.1771 49.2824 87.6002 48.0935 88.4047C47.368 88.9035 46.741 89.5321 46.2443 90.259L39.8952 99.2858L5.35132 126.837C-0.0492449 131.148 -0.230216 138.424 5.23534 142.657C7.23511 144.213 9.7526 144.949 12.2758 144.716C14.7991 144.482 17.1386 143.296 18.8186 141.399L47.1829 109.357L50.8461 106.535L55.155 103.408C55.155 103.408 58.3756 101.079 55.7218 98.7189C54.863 97.9538 56.5173 97.9694 56.6834 96.8613C56.7657 96.2854 56.6012 96.1784 55.5901 95.4734C55.5951 95.4684 57.1787 95.5046 56.1397 94.0278Z"/><path fill="#996552" d="M56.0524 94.7802C56.0055 94.8123 55.8007 94.563 55.4609 94.1887C55.0495 93.6985 54.5245 93.3164 53.9317 93.0755C53.6402 92.9794 53.3307 92.9512 53.0266 92.9928C52.7225 93.0344 52.432 93.1448 52.1771 93.3158C51.7888 93.5938 51.7024 93.9188 51.6407 93.8974C51.6012 93.9032 51.5864 93.5083 52.0034 93.1077C52.2816 92.8675 52.6181 92.7046 52.979 92.6353C53.3399 92.566 53.7127 92.5928 54.06 92.7128C54.721 92.9705 55.2859 93.4269 55.6765 94.0192C55.9702 94.4535 56.0935 94.753 56.0524 94.7802Z"/><path fill="#996552" d="M51.6261 97.0167C51.5899 96.9879 51.715 96.7386 52.0613 96.4613C52.5234 96.1013 53.093 95.9068 53.6788 95.9092C54.2646 95.9116 54.8327 96.1106 55.2918 96.4744C55.6357 96.7541 55.759 97.0052 55.7228 97.0332C55.6866 97.0611 55.4876 96.8958 55.1396 96.6983C54.6973 96.4349 54.1925 96.2948 53.6777 96.2928C53.1629 96.2908 52.657 96.4268 52.2127 96.6867C51.8631 96.8808 51.6697 97.0562 51.6261 97.0167Z"/><path fill="#996552" d="M51.6261 99.6277C51.5899 99.5989 51.715 99.3487 52.0613 99.0715C52.5235 98.7115 53.093 98.5172 53.6788 98.5196C54.2646 98.5219 54.8326 98.7211 55.2918 99.0847C55.6357 99.3645 55.759 99.6145 55.7228 99.6433C55.6866 99.6721 55.4876 99.5059 55.1396 99.3085C54.6972 99.0452 54.1924 98.9053 53.6776 98.9034C53.1628 98.9015 52.6569 99.0378 52.2127 99.2979C51.8631 99.4912 51.6697 99.6663 51.6261 99.6277Z"/><path fill="#B78876" d="M81.3076 86.6289L83.7434 89.2689C83.7434 89.2689 84.5579 126.633 85.9769 131.709C87.3959 136.784 95.7234 145.313 100.189 138.409C104.656 131.505 93.4899 87.4417 93.4899 87.4417C93.4899 87.4417 90.4462 77.2888 90.2406 74.8545L81.3076 86.6289Z"/><path fill="#455A64" d="M86.899 64.9891L85.9373 90.7996C85.903 91.7056 85.6399 92.5881 85.1724 93.365C84.7049 94.1418 84.0482 94.7876 83.2638 95.2421L75.4908 99.7389C75.0015 100.022 74.4465 100.171 73.8813 100.172C73.3161 100.172 72.7607 100.023 72.2711 99.7409C71.7816 99.4585 71.375 99.052 71.0923 98.5625C70.8097 98.073 70.661 97.5177 70.6611 96.9525V73.0541C70.6612 72.3879 70.8396 71.7338 71.1778 71.1599C71.516 70.586 72.0017 70.1131 72.5845 69.7904L84.2189 63.3388C84.4988 63.185 84.8145 63.1081 85.1339 63.1158C85.4532 63.1235 85.7648 63.2156 86.037 63.3827C86.3093 63.5498 86.5323 63.786 86.6837 64.0673C86.8351 64.3486 86.9094 64.6649 86.899 64.9842V64.9891Z"/><path fill="#FAFAFA" d="M77.96 71.7907C77.8602 71.9935 77.8013 72.214 77.7868 72.4395C77.7722 72.665 77.8022 72.8912 77.8751 73.1051C77.9479 73.319 78.0623 73.5165 78.2116 73.6862C78.3608 73.8559 78.542 73.9946 78.7448 74.0942C78.9475 74.194 79.168 74.2529 79.3935 74.2675C79.619 74.282 79.8451 74.2521 80.0591 74.1792C80.273 74.1063 80.4704 73.9919 80.6401 73.8427C80.8098 73.6934 80.9484 73.5122 81.0481 73.3094C81.1479 73.1066 81.2067 72.8862 81.2213 72.6606C81.2359 72.4351 81.2058 72.2089 81.1329 71.995C81.06 71.7811 80.9457 71.5837 80.7965 71.4139C80.6473 71.2442 80.4661 71.1056 80.2633 71.0059C80.0605 70.9061 79.8401 70.8472 79.6146 70.8327C79.3891 70.8181 79.1629 70.8482 78.949 70.921C78.7351 70.9939 78.5377 71.1082 78.368 71.2575C78.1983 71.4067 78.0597 71.5879 77.96 71.7907Z"/><path fill="#AA8776" d="M90.2404 74.8514C90.2404 74.8514 84.482 66.8762 83.2077 66.9428C81.9335 67.0094 75.7473 70.7075 76.0163 71.5137C76.2853 72.32 77.5628 72.7906 78.7046 72.2542C79.8464 71.7178 81.8635 69.7672 82.3341 70.1703C82.8046 70.5734 84.1488 71.9851 84.1488 71.9851C84.1488 71.9851 78.4652 74.886 78.0325 76.0163C77.5883 77.1739 76.5518 79.1755 77.8977 79.9143C78.7738 80.3956 80.1829 79.8468 80.7209 77.5613C80.7209 77.5613 79.6449 80.8521 81.3066 81.6616C83.095 82.5304 83.6446 80.6999 85.0908 78.9056C86.3058 77.3951 86.852 79.317 86.852 79.317L90.2404 74.8514Z"/><path fill="#996552" d="M85.8832 74.9195C85.5352 74.9793 85.1832 75.0134 84.8302 75.0215C84.0031 75.1145 83.2091 75.3999 82.512 75.8547C81.8149 76.3096 81.234 76.9213 80.8158 77.641C80.6654 77.9607 80.4922 78.2692 80.2975 78.564C80.2881 78.1947 80.3846 77.8305 80.5756 77.5143C80.9563 76.7068 81.5538 76.0209 82.3014 75.533C83.0489 75.0451 83.9172 74.7743 84.8096 74.7508C85.1762 74.7044 85.5485 74.7628 85.8832 74.9195Z"/><path fill="#B78876" d="M37.4089 22.4821L37.4155 25.8074L37.1983 75.5887C37.1728 81.3681 42.1217 85.9925 48.3096 85.9711C54.5616 85.9505 59.7195 81.2052 59.8404 75.3682C59.9688 69.2407 60.2147 62.79 60.2147 62.79C60.2147 62.79 68.1309 61.6201 69.9489 51.3496C70.8538 46.2448 70.7451 37.8401 70.435 30.9681C70.3072 28.0865 69.0399 25.3736 66.912 23.4264C64.7841 21.4792 61.9699 20.4571 59.0885 20.5849C58.9322 20.5915 58.7762 20.6016 58.6205 20.6153L37.4089 22.4821Z"/><path fill="#2E353A" d="M68.0154 37.2389C68.0127 37.5833 67.8755 37.9129 67.6331 38.1576C67.3908 38.4023 67.0624 38.5426 66.7181 38.5485C66.5525 38.5589 66.3866 38.5366 66.2297 38.4828C66.0727 38.429 65.9279 38.3448 65.8036 38.235C65.6792 38.1252 65.5777 37.992 65.5048 37.843C65.432 37.6939 65.3892 37.5319 65.3789 37.3663C65.3789 37.3556 65.3789 37.3442 65.3789 37.3335C65.3816 36.9893 65.5185 36.6598 65.7605 36.415C66.0025 36.1702 66.3304 36.0296 66.6745 36.0229C67.0092 36.0022 67.3384 36.1152 67.5897 36.3373C67.841 36.5593 67.9939 36.8721 68.0146 37.2068C68.0146 37.2174 68.0154 37.2282 68.0154 37.2389Z"/><path fill="#2E353A" d="M68.5372 35.3075C68.3726 35.4762 67.3855 34.7151 65.9615 34.697C64.5425 34.6551 63.4863 35.3676 63.3349 35.1907C63.2609 35.1084 63.4336 34.8048 63.8926 34.4823C64.5152 34.0669 65.2511 33.8545 65.9993 33.8743C66.7384 33.8847 67.455 34.1302 68.0452 34.5753C68.4771 34.9175 68.6194 35.231 68.5372 35.3075Z"/><path fill="#2E353A" d="M54.5537 36.9965C54.5507 37.3408 54.4135 37.6703 54.1712 37.915C53.9289 38.1596 53.6006 38.3 53.2563 38.3062C53.0908 38.3165 52.9248 38.294 52.7679 38.24C52.611 38.1861 52.4663 38.1019 52.342 37.992C52.2177 37.8821 52.1164 37.7489 52.0436 37.5998C51.9708 37.4507 51.9281 37.2888 51.918 37.1232C51.918 37.1125 51.918 37.1018 51.918 37.0911C51.9207 36.7468 52.0575 36.4172 52.2995 36.1723C52.5414 35.9274 52.8694 35.7865 53.2136 35.7797C53.5485 35.7592 53.8778 35.8726 54.1291 36.0949C54.3804 36.3173 54.5331 36.6303 54.5537 36.9652C54.5528 36.9759 54.5537 36.9866 54.5537 36.9965Z"/><path fill="#2E353A" d="M54.5625 35.3249C54.398 35.4935 53.4059 34.7333 51.9869 34.7144C50.5678 34.6724 49.5116 35.3849 49.3594 35.2081C49.2854 35.1258 49.4564 34.8222 49.9179 34.4989C50.5404 34.0838 51.276 33.8715 52.0239 33.8909C52.7633 33.901 53.4802 34.1466 54.0705 34.5918C54.5008 34.9349 54.6439 35.2483 54.5625 35.3249Z"/><path fill="#2E353A" d="M59.5331 45.9577C60.2862 45.7358 61.0643 45.6095 61.8489 45.5817C62.2125 45.5504 62.5579 45.4846 62.6229 45.2386C62.6604 44.8644 62.583 44.4876 62.4009 44.1585C62.0757 43.2738 61.7339 42.3463 61.3758 41.376C59.9551 37.4148 58.9343 34.1602 59.0947 34.1042C59.2551 34.0483 60.536 37.2116 61.9566 41.1754C62.2972 42.1522 62.6235 43.0845 62.9355 43.9725C63.1568 44.4143 63.2152 44.9202 63.1001 45.4007C63.045 45.5275 62.9618 45.64 62.8568 45.7298C62.7517 45.8196 62.6276 45.8844 62.4938 45.919C62.2917 45.9693 62.0842 45.9942 61.876 45.9931C61.0967 46.0805 60.3094 46.0686 59.5331 45.9577Z"/><path fill="#996552" d="M60.2176 62.794C55.3675 62.7826 50.6157 61.4252 46.4912 58.873C46.4912 58.873 49.7119 66.0075 60.0359 65.2275L60.2176 62.794Z"/><path fill="#996552" d="M58.8712 49.3722C58.6068 49.0268 58.2587 48.7545 57.8599 48.5809C57.4611 48.4073 57.0246 48.3382 56.5917 48.38C56.2779 48.4029 55.972 48.4889 55.6922 48.6328C55.4125 48.7767 55.1648 48.9755 54.9637 49.2175C54.7691 49.4508 54.651 49.7384 54.6254 50.0411C54.5998 50.3438 54.6679 50.6471 54.8205 50.9098C55.0444 51.169 55.3406 51.3554 55.671 51.4453C56.0015 51.5351 56.3513 51.5243 56.6755 51.4141C57.351 51.188 57.9751 50.8303 58.5117 50.3619C58.6733 50.2516 58.8128 50.1121 58.923 49.9505C58.9768 49.8731 59.0062 49.7814 59.0076 49.6872C59.0089 49.5929 58.982 49.5004 58.9303 49.4216"/><path fill="#2E353A" d="M55.3351 46.8663C55.5671 46.8573 55.5425 48.3999 56.843 49.5179C58.1436 50.636 59.7889 50.4961 59.7972 50.7125C59.8169 50.8096 59.4269 51.0086 58.7318 51.0086C57.8279 51.0054 56.954 50.6835 56.2639 50.0996C55.602 49.5384 55.184 48.7419 55.0983 47.8782C55.0489 47.2349 55.2282 46.8581 55.3351 46.8663Z"/><path fill="#2E353A" d="M25.0025 80.5304C29.0881 80.839 33.1386 79.5859 36.3364 77.0242C39.5342 74.4624 41.641 70.7828 42.2316 66.728C42.316 66.0255 42.4738 65.3336 42.7022 64.6639C43.8402 61.6239 43.9765 58.2996 43.0913 55.1766C42.7088 53.7352 42.1609 52.1572 42.8157 50.8162C43.2912 49.8438 44.2874 49.2623 45.1026 48.5506C46.9044 46.8728 47.9923 44.5665 48.1414 42.1089C48.276 39.6692 47.873 37.2298 46.961 34.963C46.4937 33.7051 45.9253 32.3303 46.3999 31.0782C46.8315 30.2307 47.4579 29.4976 48.2278 28.9392C49.7198 27.5943 50.96 25.994 51.8902 24.2136C52.8329 22.4037 53.4441 20.0573 50.9852 18.6242C50.4651 18.3311 49.8948 18.1375 49.3038 18.0533C44.9504 17.3787 39.7613 18.027 36.8467 21.4568C34.4701 24.2491 34.132 28.1897 33.9033 31.8474C33.1794 43.3758 14.0961 64.7931 21.4742 80.5814L25.0025 80.5304Z"/><path fill="#2E353A" d="M55.031 29.7607C54.883 30.1449 53.468 29.9359 51.7981 30.1079C50.1232 30.2452 48.77 30.7101 48.5544 30.3596C48.459 30.1951 48.7026 29.8331 49.2496 29.4678C49.9827 29.0221 50.8077 28.7494 51.662 28.6704C52.5163 28.5915 53.3772 28.7084 54.1796 29.0121C54.7892 29.2696 55.0919 29.5789 55.031 29.7607Z"/><path fill="#2E353A" d="M68.0878 31.1852C67.832 31.5036 66.8588 31.1507 65.6816 31.1112C64.5061 31.033 63.5033 31.2897 63.2804 30.9466C63.1825 30.7821 63.3454 30.4604 63.7863 30.1626C64.378 29.8067 65.0621 29.6346 65.7518 29.6682C66.4415 29.7017 67.1056 29.9394 67.66 30.351C68.0697 30.694 68.2013 31.0289 68.0878 31.1852Z"/><path fill="#263238" d="M173.681 4.86176C174.279 3.53185 175.238 2.3964 176.45 1.58424C177.661 0.772068 179.075 0.315702 180.533 0.26704C181.99 0.218378 183.432 0.579297 184.695 1.30887C185.957 2.03844 186.99 3.10745 187.676 4.39448C188.485 5.91564 188.804 7.72723 189.972 8.99583C190.727 9.7655 191.731 10.2429 192.804 10.3434C193.878 10.4438 194.953 10.1608 195.837 9.54456C196.044 10.4778 195.908 11.4544 195.453 12.295C194.997 13.1356 194.254 13.7838 193.36 14.1204L196.226 14.4149C194.68 17.788 190.446 19.3346 186.785 18.6757C183.124 18.0167 180.014 15.5955 177.523 12.8428"/><path fill="#263238" d="M173.702 4.90969L182.542 7.80479C185.687 9.8503 188.077 12.8675 189.349 16.397C189.76 17.5899 190.044 18.8313 190.568 19.9806C191.039 21.1665 191.924 22.1421 193.058 22.7277C193.907 23.1078 194.872 23.1505 195.742 23.473C196.475 23.7631 197.127 24.2255 197.643 24.8209C198.16 25.4163 198.525 26.1273 198.709 26.8938C198.881 27.6617 198.898 28.456 198.761 29.2307C198.623 30.0055 198.333 30.7452 197.908 31.4071C197.397 32.008 197.048 32.7296 196.894 33.5033C196.929 34.0345 197.038 34.5582 197.219 35.059C197.432 35.9473 197.355 36.8807 197 37.7224C196.644 38.564 196.029 39.2697 195.243 39.7363C194.458 40.2028 193.544 40.4056 192.635 40.3149C191.726 40.2243 190.87 39.845 190.192 39.2325C189.738 40.5883 188.817 41.7387 187.594 42.4781C186.313 43.0894 184.423 42.5431 184.159 41.1495C183.836 41.823 183.301 42.3711 182.635 42.7084C181.969 43.0457 181.21 43.1532 180.476 43.0143C179.743 42.8753 179.076 42.4976 178.579 41.9401C178.083 41.3826 177.785 40.6766 177.731 39.9319L153.504 13.5036C157.12 3.83282 171.26 4.68674 173.702 4.90969Z"/><path fill="#FFBE9D" d="M177.804 14.1028C178.556 14.1812 179.25 14.5386 179.75 15.1044C180.251 15.6701 180.521 16.4031 180.507 17.1583L178.795 57.8513C178.73 62.6566 169.989 68.339 164.831 68.2304C159.622 68.1218 161.154 62.6065 161.078 58.0347C160.952 50.3968 160.954 47.5298 160.952 47.5742C160.952 47.5742 154.371 46.4841 153.006 37.9174C152.328 33.6575 152.543 26.6728 152.903 20.9633C153.228 15.8247 156.642 9.5196 161.775 10.0609L177.804 14.1028Z"/><path fill="#263238" d="M155.133 26.5103C155.131 26.7969 155.241 27.0729 155.439 27.2798C155.637 27.4867 155.908 27.6082 156.195 27.6184C156.332 27.6296 156.471 27.6135 156.603 27.5711C156.734 27.5287 156.856 27.4607 156.961 27.3712C157.067 27.2816 157.153 27.1722 157.216 27.0492C157.279 26.9262 157.317 26.792 157.328 26.6542C157.328 26.646 157.328 26.6369 157.328 26.6287C157.33 26.343 157.22 26.0681 157.023 25.8616C156.825 25.6552 156.555 25.5335 156.27 25.5222C155.991 25.499 155.715 25.5873 155.501 25.7678C155.288 25.9484 155.155 26.2063 155.132 26.4848C155.133 26.4914 155.133 26.5004 155.133 26.5103Z"/><path fill="#263238" d="M154.421 24.5969C154.557 24.7408 155.393 24.1246 156.577 24.1279C157.761 24.1139 158.633 24.7219 158.76 24.5779C158.825 24.5129 158.684 24.2538 158.307 23.9798C157.794 23.6256 157.184 23.4383 156.56 23.4435C155.944 23.4409 155.343 23.6341 154.844 23.9954C154.477 24.2743 154.354 24.5335 154.421 24.5969Z"/><path fill="#263238" d="M166.717 26.5092C166.715 26.7958 166.825 27.0718 167.023 27.2787C167.221 27.4856 167.492 27.6071 167.779 27.6173C167.916 27.6284 168.055 27.6122 168.187 27.5696C168.318 27.5271 168.44 27.459 168.545 27.3693C168.651 27.2796 168.737 27.1701 168.8 27.0469C168.863 26.9238 168.901 26.7894 168.912 26.6515C168.912 26.6433 168.912 26.6351 168.912 26.6268C168.914 26.34 168.805 26.0637 168.606 25.8565C168.408 25.6492 168.137 25.5275 167.85 25.517C167.712 25.506 167.574 25.5223 167.442 25.5649C167.31 25.6075 167.188 25.6756 167.083 25.7654C166.977 25.8551 166.891 25.9648 166.828 26.088C166.765 26.2113 166.727 26.3458 166.716 26.4837C166.717 26.4928 166.717 26.501 166.717 26.5092Z"/><path fill="#263238" d="M166.071 24.8174C166.207 24.9605 167.043 24.3452 168.228 24.3485C169.411 24.3345 170.284 24.9425 170.409 24.7977C170.474 24.7327 170.336 24.4735 169.956 24.2004C169.443 23.8456 168.833 23.658 168.21 23.6632C167.594 23.6611 166.993 23.8547 166.494 24.216C166.129 24.4941 166.004 24.7532 166.071 24.8174Z"/><path fill="#263238" d="M161.77 33.5844C161.145 33.3887 160.498 33.272 159.845 33.2372C159.542 33.206 159.256 33.1467 159.205 32.9402C159.179 32.6282 159.249 32.3159 159.406 32.0451L160.302 29.7473C161.545 26.4746 162.44 23.7844 162.31 23.7351C162.18 23.6857 161.062 26.2986 159.819 29.5721C159.52 30.3789 159.235 31.1497 158.962 31.8847C158.772 32.2487 158.716 32.6683 158.805 33.0693C158.849 33.1754 158.916 33.2703 159.001 33.3467C159.087 33.4231 159.188 33.479 159.299 33.5103C159.466 33.5554 159.639 33.5792 159.813 33.5811C160.462 33.6652 161.12 33.6663 161.77 33.5844Z"/><path fill="#EB996E" d="M160.951 47.5741C164.994 47.6355 168.975 46.5762 172.452 44.5137C172.452 44.5137 169.662 50.3976 161.067 49.5963L160.951 47.5741Z"/><path fill="#EB996E" d="M162.271 36.4331C162.497 36.1499 162.791 35.9286 163.126 35.7902C163.461 35.6518 163.825 35.6007 164.185 35.6417C164.446 35.6649 164.7 35.7408 164.931 35.8646C165.163 35.9885 165.367 36.1577 165.531 36.3623C165.689 36.5593 165.782 36.8 165.799 37.0519C165.816 37.3037 165.755 37.5546 165.625 37.7708C165.434 37.9837 165.184 38.1348 164.907 38.2047C164.63 38.2746 164.338 38.2601 164.069 38.1632C163.509 37.9645 162.995 37.6569 162.555 37.2582C162.421 37.1637 162.306 37.0452 162.216 36.9087C162.172 36.8436 162.148 36.7669 162.148 36.6885C162.148 36.6101 162.172 36.5335 162.216 36.4685"/><path fill="#263238" d="M165.258 34.4035C165.063 34.3928 165.063 35.6753 163.962 36.5861C162.862 37.4968 161.495 37.3553 161.482 37.5347C161.464 37.617 161.787 37.7815 162.366 37.7996C163.12 37.8102 163.853 37.5554 164.437 37.0798C164.997 36.6235 165.358 35.9668 165.441 35.2492C165.49 34.7136 165.346 34.3952 165.258 34.4035Z"/><path fill="#263238" d="M165.54 22.7485C165.657 23.0726 166.84 22.9171 168.23 23.0849C169.623 23.2239 170.745 23.6312 170.93 23.3441C171.012 23.2059 170.817 22.9031 170.363 22.5921C169.757 22.2107 169.073 21.9718 168.362 21.8935C167.65 21.8153 166.931 21.8998 166.257 22.1405C165.745 22.3445 165.487 22.5963 165.54 22.7485Z"/><path fill="#263238" d="M154.858 21.1791C155.066 21.4473 155.883 21.1693 156.866 21.1561C157.848 21.1084 158.681 21.3362 158.871 21.0557C158.953 20.9191 158.824 20.6502 158.46 20.3976C157.972 20.0929 157.404 19.9397 156.829 19.9574C156.253 19.9752 155.696 20.163 155.228 20.4971C154.88 20.7678 154.766 21.0483 154.858 21.1791Z"/><path fill="#FFBE9D" d="M179.556 27.8036C179.904 27.6139 180.298 27.5239 180.694 27.5437C181.09 27.5634 181.473 27.6921 181.801 27.9155C182.597 28.3748 183.21 29.0963 183.533 29.9567C183.857 30.8172 183.872 31.7633 183.576 32.6336C183.28 33.504 182.691 34.2446 181.91 34.729C181.128 35.2135 180.203 35.4118 179.292 35.2901"/><path fill="#263238" d="M166.055 7.20804C163.134 7.35396 160.297 8.23087 157.804 9.75837C156.411 10.4775 155.174 11.4643 154.163 12.6623C153.153 13.8603 152.388 15.2459 151.914 16.7397C151.793 17.0488 151.737 17.3795 151.749 17.7112C151.761 18.0428 151.84 18.3685 151.983 18.6681C152.255 19.0131 152.64 19.2524 153.069 19.3449C153.499 19.4374 153.948 19.3773 154.338 19.175C155.108 18.749 155.765 18.1446 156.254 17.4127C156.461 18.2065 156.927 18.9083 157.579 19.4062C158.231 19.904 159.031 20.1693 159.851 20.1599C160.671 20.1504 161.465 19.8667 162.105 19.3539C162.746 18.8412 163.196 18.1288 163.384 17.3304C163.453 18.1524 163.835 18.9165 164.451 19.4647C165.067 20.0129 165.871 20.3033 166.695 20.2758C167.518 20.2043 168.303 19.8936 168.952 19.3821C169.602 18.8705 170.087 18.1803 170.35 17.3963C170.555 18.8806 171.07 20.3052 171.861 21.5781C172.27 22.2073 172.862 22.6961 173.557 22.9785C174.252 23.261 175.017 23.3234 175.749 23.1576C175.44 24.4182 175.46 25.7372 175.806 26.9881C176.26 28.1983 177.608 29.1789 178.834 28.7585C180.024 28.3471 180.485 26.9436 180.764 25.7211C181.375 23.3767 181.684 20.9641 181.685 18.5415C181.763 16.0443 180.951 13.6006 179.393 11.6476C177.835 9.69459 175.633 8.35972 173.181 7.8818C170.732 7.32021 168.218 7.09194 165.707 7.20312"/><path fill="#EB996E" d="M180.155 32.7342C180.18 32.6733 180.489 32.8066 180.903 32.6174C181.156 32.4726 181.361 32.2568 181.493 31.9967C181.624 31.7365 181.677 31.4435 181.644 31.1539C181.641 30.8609 181.552 30.5751 181.39 30.3313C181.227 30.0875 180.997 29.8962 180.728 29.7807C180.299 29.6047 179.982 29.6903 179.964 29.6245C179.933 29.5825 180.256 29.3546 180.823 29.4813C181.151 29.5612 181.445 29.7443 181.662 30.0037C181.922 30.3237 182.072 30.7194 182.088 31.1316C182.131 31.5056 182.049 31.8833 181.854 32.2057C181.66 32.5282 181.364 32.7771 181.013 32.9136C180.426 33.0633 180.109 32.7704 180.155 32.7342Z"/><path fill="#E8505B" d="M180.412 36.3341C181.03 36.3341 181.531 35.8339 181.531 35.2168C181.531 34.5998 181.03 34.0996 180.412 34.0996C179.793 34.0996 179.292 34.5998 179.292 35.2168C179.292 35.8339 179.793 36.3341 180.412 36.3341Z"/><path fill="#E8505B" d="M173.815 4.47528C174.265 4.32236 174.742 4.26785 175.214 4.3156C176.359 4.36976 177.475 4.69667 178.468 5.26905C179.462 5.84143 180.304 6.64273 180.925 7.60638C181.202 7.9907 181.392 8.42977 181.485 8.89395C181.43 8.91781 181.221 8.425 180.726 7.74216C180.078 6.85398 179.252 6.11145 178.299 5.5625C177.347 5.01355 176.29 4.67034 175.197 4.55502C174.354 4.46946 173.823 4.53451 173.815 4.47528Z"/><path fill="#455A64" d="M178.308 4.48322C178.283 4.39539 178.272 4.30387 178.278 4.21257C178.282 3.95006 178.338 3.69097 178.442 3.44993C178.653 3.01037 178.964 2.62618 179.349 2.32806C179.735 2.02994 180.185 1.82613 180.663 1.73294C181.379 1.6189 182.112 1.69577 182.789 1.95578C183.465 2.21579 184.061 2.64978 184.517 3.21383C185.083 3.83493 185.555 4.53697 185.915 5.29688C186.297 6.07432 186.608 6.9168 186.936 7.75924C187.237 8.58149 187.606 9.37749 188.038 10.1392C188.447 10.8349 188.976 11.452 189.601 11.9615C190.158 12.4236 190.828 12.7289 191.542 12.8459C192.164 12.9359 192.798 12.8474 193.372 12.5909C194.217 12.2117 194.901 11.5458 195.303 10.711C195.428 10.3934 195.533 10.0687 195.62 9.73854C195.633 9.8284 195.631 9.91999 195.615 10.0093C195.583 10.2672 195.519 10.52 195.425 10.762C195.049 11.6613 194.353 12.3892 193.472 12.8048C192.86 13.0971 192.176 13.2065 191.504 13.1199C190.736 13.0085 190.013 12.6919 189.41 12.2034C188.749 11.6766 188.19 11.034 187.758 10.3071C187.313 9.5317 186.935 8.71981 186.627 7.88015C186.14 6.26029 185.348 4.74812 184.294 3.42442C183.876 2.8916 183.327 2.47702 182.7 2.22151C182.073 1.966 181.39 1.87841 180.719 1.96743C180.268 2.0461 179.841 2.22522 179.469 2.49156C179.098 2.7579 178.791 3.10461 178.571 3.50587C178.433 3.8157 178.344 4.14557 178.308 4.48322Z"/><path fill="#455A64" d="M162.125 17.7077C162.092 17.6333 162.073 17.5537 162.069 17.4725C162.028 17.2453 162.001 17.0159 161.987 16.7855C161.93 15.9351 161.983 15.081 162.145 14.2442C162.383 12.9972 162.828 11.7988 163.461 10.6984C164.239 9.34512 165.3 8.17576 166.571 7.27026C167.848 6.38139 169.279 5.73673 170.791 5.36898C172.016 5.05008 173.284 4.92048 174.549 4.98475C175.401 5.01969 176.244 5.17252 177.054 5.43888C177.274 5.50902 177.488 5.59428 177.696 5.69396C177.84 5.75896 177.914 5.79928 177.91 5.80915C176.816 5.46712 175.682 5.2693 174.537 5.22085C173.298 5.19196 172.061 5.3425 170.865 5.66765C169.397 6.04428 168.007 6.68088 166.763 7.54744C165.531 8.42663 164.497 9.55445 163.728 10.858C163.1 11.9244 162.646 13.0837 162.381 14.2927C162.17 15.4182 162.084 16.5634 162.125 17.7077Z"/><path fill="#455A64" d="M167.536 17.1308C167.496 16.9108 167.488 16.6859 167.514 16.4636C167.541 15.8565 167.623 15.2531 167.76 14.661C168.208 12.686 169.17 10.8642 170.547 9.37941C171.925 7.89466 173.669 6.79957 175.605 6.20462C176.185 6.02132 176.78 5.89106 177.383 5.81547C177.603 5.77276 177.827 5.76329 178.05 5.78745C178.06 5.85245 177.11 5.92902 175.68 6.42757C173.814 7.06649 172.135 8.15725 170.794 9.60266C169.452 11.0481 168.489 12.8031 167.991 14.7113C167.605 16.1822 167.601 17.1366 167.536 17.1308Z"/><path fill="#E8505B" d="M166.057 67.7294C164.183 61.9821 159.597 56.1295 154.558 58.2405C148.95 60.5909 147.392 63.5691 144.319 68.1852C141.245 72.8014 139.361 78.083 137.506 83.3063C136.78 85.349 136.08 87.7185 137.192 89.5802C138.153 91.1853 140.129 91.8204 141.939 92.3025C146.61 93.5448 151.323 94.6079 156.078 95.492C157.984 95.8466 160.075 96.1436 161.761 95.1876C163.9 93.9734 164.558 91.2535 165.001 88.8365L169.697 63.3971"/><path fill="#E8505B" d="M160.661 55.4828L153.284 58.6633C149.556 61.5995 148.501 66.6277 148.629 71.3664L145.561 124.171C145.561 124.171 175.093 140.313 190.956 119.886C191.614 119.524 188.011 110.455 188.011 110.455L194.859 84.5197C195.386 80.7904 195.71 73.0596 194.736 69.3895C192.24 59.9763 185.565 57.1602 178.708 55.2754C178.708 55.2754 171.849 61.0301 165.159 59.8175C165.159 59.8167 161.077 59.4375 160.661 55.4828Z"/><g opacity=".2"><g opacity=".2"><g opacity=".2"><path fill="#000" d="M150.753 98.7226L163.52 117.225C165.184 119.636 166.913 122.113 169.383 123.69C171.19 124.845 173.294 125.448 175.438 125.426C177.582 125.404 179.673 124.758 181.456 123.567C183.238 122.375 184.635 120.69 185.476 118.717C186.316 116.744 186.563 114.569 186.188 112.458C186.134 111.953 185.938 111.474 185.621 111.077C185.329 110.817 184.972 110.64 184.588 110.567C184.204 110.494 183.808 110.526 183.441 110.661C182.712 110.938 182.012 111.287 181.353 111.704C177.345 113.831 172.254 112.691 168.493 110.148C164.732 107.605 161.976 103.883 159.095 100.375C158.026 99.078 156.867 97.7484 155.291 97.166C153.715 96.5835 151.625 97.06 150.957 98.6001" opacity=".2"/></g></g></g><path fill="#fff" d="M172.255 73.2764C174.69 73.2764 176.663 71.308 176.663 68.8799C176.663 66.4518 174.69 64.4834 172.255 64.4834C169.821 64.4834 167.848 66.4518 167.848 68.8799C167.848 71.308 169.821 73.2764 172.255 73.2764Z"/><path fill="#fff" d="M151.712 65.1279C151.712 66.2968 152.176 67.4178 153.003 68.2443C153.829 69.0708 154.95 69.535 156.119 69.535C157.287 69.535 158.408 69.0708 159.235 68.2443C160.061 67.4178 160.525 66.2968 160.525 65.1279C160.525 63.9591 160.061 62.8381 159.235 62.0116C158.408 61.1851 157.287 60.7207 156.119 60.7207C154.95 60.7207 153.829 61.1851 153.003 62.0116C152.176 62.8381 151.712 63.9591 151.712 65.1279Z"/><path fill="#fff" d="M148.156 107.227C148.154 108.099 148.411 108.952 148.894 109.678C149.377 110.404 150.064 110.971 150.869 111.306C151.674 111.641 152.561 111.73 153.416 111.561C154.272 111.392 155.058 110.973 155.675 110.357C156.293 109.742 156.714 108.956 156.884 108.101C157.055 107.246 156.969 106.359 156.636 105.553C156.302 104.747 155.737 104.058 155.012 103.574C154.288 103.089 153.435 102.83 152.563 102.83C151.985 102.829 151.413 102.942 150.878 103.163C150.344 103.383 149.858 103.707 149.449 104.115C149.04 104.524 148.715 105.009 148.493 105.542C148.271 106.076 148.157 106.648 148.156 107.227Z"/><path fill="#fff" d="M160.528 124.28C162.962 124.28 164.935 122.312 164.935 119.884C164.935 117.456 162.962 115.487 160.528 115.487C158.093 115.487 156.12 117.456 156.12 119.884C156.12 122.312 158.093 124.28 160.528 124.28Z"/><path fill="#fff" d="M181.071 125.347C183.505 125.347 185.478 123.378 185.478 120.95C185.478 118.522 183.505 116.554 181.071 116.554C178.636 116.554 176.663 118.522 176.663 120.95C176.663 123.378 178.636 125.347 181.071 125.347Z"/><path fill="#fff" d="M163.665 98.2793C166.1 98.2793 168.073 96.3109 168.073 93.8828C168.073 91.4547 166.1 89.4863 163.665 89.4863C161.231 89.4863 159.258 91.4547 159.258 93.8828C159.258 96.3109 161.231 98.2793 163.665 98.2793Z"/><path fill="#fff" d="M159.259 84.417C161.694 84.417 163.667 82.4486 163.667 80.0205C163.667 77.5924 161.694 75.624 159.259 75.624C156.825 75.624 154.852 77.5924 154.852 80.0205C154.852 82.4486 156.825 84.417 159.259 84.417Z"/><path fill="#263238" d="M159.257 56.5503C159.845 57.6072 160.612 58.5537 161.525 59.3475C162.536 60.1772 163.696 60.8066 164.943 61.2019C166.467 61.6913 168.077 61.8552 169.668 61.6831C171.26 61.4813 172.806 61.013 174.242 60.2977C175.42 59.7157 176.533 59.0126 177.565 58.1998C178.266 57.6536 178.938 57.0723 179.579 56.4582C179.803 56.2193 180.046 55.9978 180.304 55.7959C180.12 56.0685 179.908 56.3216 179.673 56.5512C179.062 57.2066 178.408 57.82 177.715 58.3874C176.689 59.2393 175.57 59.9739 174.381 60.5774C172.919 61.3257 171.337 61.8135 169.708 62.0188C168.069 62.1974 166.411 62.0206 164.847 61.5005C163.57 61.0806 162.388 60.4114 161.371 59.5318C160.686 58.9418 160.107 58.2389 159.66 57.4536C159.536 57.2425 159.427 57.0226 159.336 56.7955C159.296 56.7188 159.269 56.6358 159.257 56.5503Z"/><path fill="#E8505B" d="M181.465 56.25C186.505 58.3577 191.747 60.6103 195.231 64.8151C198.768 69.0857 200.002 74.8898 199.744 80.4249C199.486 85.96 197.875 91.3313 196.276 96.6377C195.65 98.7117 194.81 101.037 192.809 101.882C191.082 102.61 189.116 101.957 187.366 101.279C182.864 99.5234 178.432 97.6008 174.072 95.5106C172.322 94.6715 170.462 93.6785 169.669 91.9138C168.662 89.6712 169.751 87.0928 170.821 84.8822L182.114 61.5999"/><path fill="#fff" d="M192.219 87.5059C194.653 87.5059 196.627 85.5375 196.627 83.1094C196.627 80.6813 194.653 78.7129 192.219 78.7129C189.785 78.7129 187.812 80.6813 187.812 83.1094C187.812 85.5375 189.785 87.5059 192.219 87.5059Z"/><path fill="#fff" d="M180.546 95.543C182.981 95.543 184.954 93.5746 184.954 91.1465C184.954 88.7184 182.981 86.75 180.546 86.75C178.112 86.75 176.139 88.7184 176.139 91.1465C176.139 93.5746 178.112 95.543 180.546 95.543Z"/><path fill="#fff" d="M181.713 69.5687C181.713 70.1356 181.826 70.6967 182.043 71.2201C182.261 71.7436 182.579 72.219 182.98 72.6193C183.382 73.0196 183.858 73.337 184.382 73.5532C184.906 73.7695 185.467 73.8804 186.034 73.8796C187.179 73.8809 188.277 73.4275 189.087 72.6191C189.898 71.8107 190.354 70.7134 190.355 69.5687C190.354 68.424 189.898 67.3268 189.087 66.5184C188.277 65.7099 187.179 65.2565 186.034 65.2578C185.467 65.257 184.906 65.3677 184.382 65.5839C183.858 65.8001 183.381 66.1174 182.98 66.5178C182.579 66.9181 182.26 67.3936 182.042 67.9171C181.825 68.4406 181.713 69.0018 181.712 69.5687H181.713Z"/><path fill="#FFBE9D" d="M172.756 94.8337L171.632 99.162L149.237 82.838L142.38 73.0899C141.461 71.785 140.073 70.886 138.507 70.5815C137.684 70.4208 136.837 70.4291 136.018 70.6056C135.198 70.782 134.423 71.1232 133.74 71.6082L127.359 76.133C127.359 76.133 127.532 79.5678 129.082 78.8825C130.632 78.1972 133.733 76.4769 133.733 76.4769L134.594 84.7252L138.384 87.4747L142.174 90.3961L167.461 115.499C168.727 116.755 170.272 117.693 171.97 118.236C173.668 118.78 175.471 118.914 177.231 118.627C178.99 118.34 180.657 117.64 182.094 116.585C183.532 115.53 184.699 114.15 185.5 112.557L189.248 101.917L172.756 94.8337Z"/><path fill="#EB996E" d="M171.068 98.5449C171.432 98.6377 171.76 98.8384 172.008 99.1208C172.65 99.7589 173.103 100.562 173.318 101.441C173.528 102.304 173.611 103.193 173.565 104.08C173.583 104.447 173.54 104.814 173.436 105.166C173.349 104.812 173.312 104.447 173.327 104.082C173.304 103.222 173.194 102.366 172.998 101.527C172.792 100.702 172.398 99.9352 171.846 99.2879C171.404 98.8017 171.039 98.5935 171.068 98.5449Z"/><path fill="#EB996E" d="M133.693 76.907C133.657 76.884 133.765 76.6199 134.029 76.2389C134.372 75.7167 134.869 75.3143 135.45 75.0872C135.755 74.9819 136.083 74.9585 136.4 75.0195C136.717 75.0804 137.012 75.2235 137.256 75.4344C137.624 75.7865 137.61 76.1337 137.575 76.1288C137.52 76.1477 137.445 75.8621 137.103 75.6178C136.879 75.4672 136.623 75.3699 136.356 75.3331C136.088 75.2963 135.815 75.3211 135.559 75.4056C135.038 75.6181 134.576 75.9544 134.214 76.3855C133.914 76.7162 133.734 76.935 133.693 76.907Z"/><path fill="#EB996E" d="M137.7 79.1083C137.662 79.1429 137.493 78.9882 137.185 78.8171C136.794 78.5886 136.349 78.469 135.897 78.4709C135.444 78.4728 135 78.5961 134.611 78.8278C134.305 79.0014 134.137 79.1569 134.099 79.1224C134.061 79.0878 134.174 78.8755 134.477 78.6287C134.881 78.3087 135.381 78.1338 135.896 78.1319C136.411 78.1299 136.912 78.3012 137.318 78.618C137.625 78.8632 137.736 79.082 137.7 79.1083Z"/><path fill="#263238" d="M172.757 94.8337C172.608 94.8247 172.463 94.7899 172.326 94.7308C171.927 94.5709 171.577 94.306 171.315 93.9641C170.9 93.4218 170.644 92.7746 170.575 92.0949C170.514 91.1961 170.677 90.2962 171.051 89.4763C171.418 88.5565 171.97 87.631 172.44 86.5969C172.941 85.4883 173.369 84.3484 173.722 83.1843C174.489 80.7261 175.043 77.9388 175.818 75.0511C176.476 72.303 177.581 69.6816 179.089 67.2915C180.354 65.3379 182.135 63.772 184.235 62.7667C185.644 62.0838 187.203 61.7675 188.767 61.8469C189.337 61.8716 189.9 61.9786 190.439 62.1645C190.43 62.2065 189.846 62.0172 188.761 61.9785C187.227 61.9506 185.709 62.2951 184.337 62.9823C182.298 63.9964 180.573 65.5456 179.347 67.4643C177.875 69.8347 176.793 72.4263 176.143 75.14C175.372 78.0104 174.808 80.8034 174.018 83.2773C173.653 84.4506 173.211 85.5981 172.692 86.7121C172.204 87.7627 171.642 88.6758 171.27 89.5684C170.899 90.3507 170.724 91.2118 170.762 92.0769C170.812 92.7282 171.038 93.3536 171.415 93.8868C171.655 94.2222 171.976 94.4916 172.348 94.67C172.609 94.7901 172.762 94.8139 172.757 94.8337Z"/><path fill="#263238" d="M147.901 80.7609C148.159 77.0059 148.641 73.2697 149.345 69.5723C149.087 73.3272 148.605 77.0634 147.901 80.7609Z"/><path fill="#FFBE9D" d="M137.829 90.3836L136.64 99.7418L122.372 87.5791L114.567 89.4639C114.567 89.4639 122.614 106.362 128.971 113.055C135.327 119.747 138.76 120.706 141.154 120.804C144.451 120.948 145.959 116.933 145.959 116.933L147.396 93.6728L137.829 90.3836Z"/><path fill="#EB996E" d="M136.695 99.4951C137.582 100.958 138.045 102.639 138.035 104.349C137.602 102.727 137.156 101.109 136.695 99.4951Z"/><path fill="#455A64" d="M120.993 63.8613H110.251C109.845 63.8823 109.45 63.9936 109.093 64.1869C108.737 64.3803 108.428 64.6508 108.189 64.9789C107.95 65.3069 107.787 65.6843 107.713 66.0832C107.639 66.4821 107.654 66.8925 107.759 67.2846L118.562 88.3259C118.767 88.726 119.079 89.0618 119.463 89.2961C119.847 89.5304 120.288 89.6541 120.738 89.6537L133.833 89.6266C134.139 89.5913 134.432 89.481 134.685 89.3056C134.939 89.1302 135.145 88.8951 135.286 88.621C135.427 88.3469 135.498 88.0422 135.493 87.7341C135.489 87.4259 135.408 87.1236 135.259 86.854L124.837 66.2546C124.484 65.5359 123.937 64.9306 123.257 64.5076C122.578 64.0845 121.793 63.8606 120.993 63.8613Z"/><path fill="#263238" d="M120.267 65.1279H109.525C109.217 65.1272 108.914 65.2056 108.645 65.3557C108.376 65.5058 108.15 65.7225 107.989 65.985C107.828 66.2475 107.737 66.547 107.725 66.8548C107.713 67.1625 107.78 67.4682 107.921 67.7424L118.466 88.3263C118.671 88.7266 118.983 89.0624 119.367 89.2968C119.751 89.5312 120.192 89.6552 120.642 89.6549H133.587C133.768 89.6553 133.946 89.6094 134.104 89.5215C134.262 89.4336 134.394 89.3066 134.489 89.1528C134.584 88.999 134.638 88.8234 134.646 88.6428C134.654 88.4623 134.615 88.2828 134.533 88.1214L124.111 67.5219C123.758 66.8031 123.211 66.1977 122.531 65.7745C121.852 65.3513 121.067 65.1273 120.267 65.1279Z"/><path fill="#FFBE9D" d="M119.356 73.7451L112.819 76.3572L111.421 81.6225L114.57 89.4644L126.121 91.1452L122.737 87.6899L123.173 84.6788C123.173 84.6788 126.395 83.6685 126.477 83.1749C126.56 82.6813 126.078 81.0276 125.583 80.9486C125.089 80.8696 121.709 82.1276 121.709 82.1276C121.709 82.1276 125.71 78.9602 125.598 78.4509C125.486 77.9417 125.057 76.641 124.258 76.497C123.459 76.353 117.004 79.3954 117.004 79.3954L115.955 81.7854L115.04 77.9614C115.04 77.9614 120.774 76.3539 119.356 73.7451Z"/><path fill="#EB996E" d="M120.177 86.0963C120.138 86.1078 120.013 85.87 119.956 85.4479C119.889 84.8902 119.956 84.3244 120.15 83.7975C120.345 83.2706 120.662 82.7974 121.075 82.417C121.4 82.1349 121.646 82.033 121.667 82.0668C121.134 82.5856 120.724 83.2166 120.467 83.914C120.209 84.6114 120.11 85.3574 120.177 86.0979V86.0963Z"/><path fill="#EB996E" d="M117.071 84.9544C117.192 84.3893 117.279 83.8172 117.33 83.2416C117.358 82.5976 117.468 81.96 117.659 81.3445C117.786 80.9682 117.991 80.6232 118.262 80.3326C118.566 80.0348 118.931 79.8056 119.331 79.6604C120.894 79.0936 122.302 78.6345 123.333 78.2997C123.879 78.0907 124.443 77.9347 125.018 77.834C124.505 78.1159 123.966 78.3472 123.409 78.5243C122.405 78.9135 120.989 79.4144 119.455 79.9706C119.099 80.0985 118.773 80.2991 118.498 80.5597C118.256 80.8157 118.07 81.1186 117.95 81.4498C117.754 82.0384 117.626 82.6473 117.567 83.2647C117.549 83.861 117.378 84.4427 117.071 84.9544Z"/><path fill="#EB996E" d="M115.572 83.7736C115.48 83.7588 115.499 83.1812 115.614 82.4843C115.729 81.7875 115.897 81.2355 115.989 81.2503C116.081 81.2651 116.062 81.8427 115.947 82.5396C115.832 83.2364 115.664 83.7892 115.572 83.7736Z"/><path fill="#FAFAFA" d="M115.396 69.0974C115.396 69.3682 115.476 69.6329 115.626 69.8581C115.777 70.0832 115.99 70.2586 116.241 70.3622C116.491 70.4658 116.766 70.4929 117.031 70.4401C117.297 70.3873 117.541 70.2569 117.732 70.0654C117.924 69.874 118.054 69.6301 118.107 69.3646C118.16 69.099 118.133 68.8237 118.029 68.5736C117.925 68.3235 117.75 68.1096 117.525 67.9592C117.3 67.8088 117.035 67.7285 116.764 67.7285C116.401 67.7287 116.053 67.873 115.797 68.1297C115.54 68.3864 115.396 68.7344 115.396 69.0974Z"/><path fill="#EB996E" d="M142.176 90.4023C142.321 90.4919 142.455 90.5982 142.575 90.7191L143.645 91.6776L147.416 95.1642L147.466 95.211L147.461 95.2825C147.291 97.4643 147.091 100.031 146.878 102.776C146.582 106.794 146.351 110.437 146.22 113.075C146.162 114.352 146.114 115.408 146.079 116.201C146.083 116.584 146.057 116.967 146.002 117.346C145.955 116.966 145.937 116.582 145.948 116.199C145.938 115.458 145.948 114.389 145.981 113.067C146.05 110.424 146.24 106.776 146.538 102.753C146.741 99.9966 146.962 97.4233 147.171 95.258L147.215 95.3763L143.527 91.8017L142.511 90.785C142.385 90.6707 142.272 90.5422 142.176 90.4023Z"/></svg>