<svg xmlns="http://www.w3.org/2000/svg" width="173" height="112" fill="none" viewBox="0 0 173 112"><path fill="#6654A4" d="M14.1046 56.2599C12.3496 51.6699 11.387 46.6925 11.387 41.492C11.387 18.5772 29.9642 0 52.879 0C71.468 0 87.2044 12.2322 92.4694 29.0955C97.3881 22.1694 105.453 17.6498 114.58 17.6498C129.548 17.6498 141.674 29.7823 141.674 44.7438C141.674 48.6588 140.841 52.3684 139.344 55.7317H154.487C164.712 55.7317 173 64.0195 173 74.256C173 84.4632 164.712 92.757 154.487 92.757H18.5068C8.28785 92.757 0 84.4632 0 74.256C0 65.5397 6.00458 58.238 14.1046 56.2599Z"/><path fill="#fff" d="M19.6161 44.4739C17.9844 44.0454 16.9455 42.4196 17.2859 40.7409C19.7277 28.4793 25.6735 18.9823 34.4662 13.2829C43.2999 7.56598 54.364 5.99295 66.4671 8.75752C68.2104 9.17427 69.2787 10.8706 68.8795 12.6021C68.4863 14.3336 66.7665 15.4195 65.0408 15.0204C54.6517 12.6549 45.2956 13.9169 37.9586 18.6771C30.651 23.4138 25.6794 31.4845 23.5781 42.0028C23.2377 43.7343 21.5414 44.8672 19.8098 44.5209C19.7453 44.5091 19.6925 44.4915 19.6161 44.4739Z"/><path fill="#fff" d="M83.5418 38.7861C53.8124 38.7861 28.4264 53.3662 18.366 73.9097C28.4206 94.4532 53.8124 109.033 83.5418 109.033C113.277 109.033 138.663 94.4532 148.723 73.9097C138.663 53.3721 113.277 38.7861 83.5418 38.7861Z"/><path fill="#fff" stroke="#6654A4" stroke-width="4" d="M50.5371 73.9099C50.5371 55.6849 65.3167 40.9053 83.5417 40.9053C101.773 40.9053 116.546 55.6849 116.546 73.9099C116.546 92.1409 101.773 106.915 83.5417 106.915C65.3167 106.92 50.5371 92.1409 50.5371 73.9099Z"/><path stroke="#6654A4" stroke-miterlimit="10" stroke-width="4" d="M83.5418 38.7861C53.8124 38.7861 28.4264 53.3662 18.366 73.9097C28.4206 94.4532 53.8124 109.033 83.5418 109.033C113.277 109.033 138.663 94.4532 148.723 73.9097C138.663 53.3721 113.277 38.7861 83.5418 38.7861Z"/><path stroke="#6654A4" stroke-miterlimit="10" stroke-width="4" d="M115.725 44.996C106.709 42.1962 97.793 40.0362 87.3921 40.5058C57.692 41.8617 32.0537 58.6135 22.9441 79.5913"/><path fill="#6654A4" d="M92.8452 58.1558L83.5419 73.9098V55.6143C73.4404 55.6143 65.2464 63.8082 65.2464 73.9098C65.2464 84.0113 73.4404 92.2052 83.5419 92.2052C93.6493 92.2052 101.837 84.0113 101.837 73.9098C101.843 67.2008 98.2276 61.3371 92.8452 58.1558Z"/><path stroke="#6654A4" stroke-miterlimit="10" stroke-width="4" d="M95.2047 94.1005C84.0466 100.545 69.7894 96.7183 63.3505 85.572C56.9116 74.4198 60.7326 60.1567 71.879 53.7178"/><path stroke="#6654A4" stroke-miterlimit="10" stroke-width="4" d="M101.72 88.5254C100.81 89.6582 99.7888 90.703 98.6794 91.6363"/></svg>