<svg width="247" height="175" viewBox="0 0 247 175" fill="none" xmlns="http://www.w3.org/2000/svg">
    <path d="M15.1954 38.814C18.8446 32.8532 23.0469 27.9232 27.6839 24.4501C29.0252 23.4339 30.4313 22.5361 31.8943 21.7647C33.2485 21.0483 34.6515 20.4536 36.0868 19.9868C56.9312 13.2416 77.4837 31.3363 101.119 30.2504C120.932 29.3364 135.458 20.144 148.319 12.454C152.864 9.73126 157.207 7.19331 161.508 5.28741C162.717 4.74449 163.936 4.25343 165.141 3.82233C166.439 3.36531 167.816 2.94069 169.284 2.56146C169.284 2.55174 169.295 2.55174 169.295 2.55174L169.306 2.56308C187.741 -2.27135 218.574 -0.82248 231.862 11.7182C245.775 24.8536 261.869 66.2534 220.859 117.087C175.293 173.588 55.5624 176.823 24.2439 156.263C-8.16129 135.005 -4.82832 71.5254 15.1954 38.814Z" fill="#D6DCFD"/>
    <path d="M131.961 82.0411C132.381 81.6764 132.699 81.3538 132.673 81.3246C132.647 81.2938 132.285 81.5662 131.865 81.9325C131.445 82.2972 131.125 82.6198 131.153 82.6506C131.179 82.6781 131.542 82.4058 131.961 82.0411Z" fill="#FAFAFA"/>
    <path d="M137.624 83.0717C139.187 84.4995 141.67 90.4198 143.573 94.5687C145.065 97.8213 147.94 106.33 143.573 107.177C138.362 108.189 135.789 94.9139 135.789 94.9139L136.05 109.792C130.585 112.27 123.559 112.769 116.645 108.808C116.645 108.808 119.896 103.092 119.979 101.538C120.062 99.9817 118.618 96.6934 118.618 96.6934L114.525 106.108C114.489 106.19 114.45 106.27 114.41 106.349C113.427 108.239 111.096 108.975 109.205 107.991C107.559 107.137 106.754 105.233 107.29 103.458C108.529 99.3431 110.694 92.0923 111.738 88.1995C113.253 82.5628 120.785 81.1934 120.785 81.1934L130.147 80.054C130.143 80.0573 133.433 79.2469 137.624 83.0717Z" fill="#263238"/>
    <g opacity="0.2">
        <g opacity="0.2">
            <g opacity="0.2">
                <path opacity="0.2" d="M121.018 81.8652L116.47 82.9851C116.016 83.0969 115.529 83.2282 115.234 83.5912C114.786 84.139 115.012 85.0369 115.586 85.4501C116.16 85.8634 116.956 85.8537 117.615 85.5992C118.275 85.3448 118.826 84.878 119.358 84.4113C120.147 83.7193 120.925 82.9965 121.491 82.1132" fill="black"/>
            </g>
        </g>
    </g>
    <path d="M110.881 98.9212C111.645 98.7202 112.296 98.7948 112.299 98.7494C112.31 98.7154 111.642 98.5727 110.846 98.7802C110.048 98.9812 109.53 99.4286 109.558 99.4529C109.58 99.4902 110.114 99.1125 110.881 98.9212Z" fill="#2E353A"/>
    <path d="M111.774 98.1136C112.315 98.1606 112.709 98.3876 112.73 98.3487C112.756 98.3227 112.37 98.0212 111.787 97.9677C111.207 97.9094 110.77 98.1314 110.79 98.1622C110.806 98.2028 111.236 98.0569 111.774 98.1136Z" fill="#2E353A"/>
    <g opacity="0.2">
        <g opacity="0.2">
            <g opacity="0.2">
                <path opacity="0.2" d="M112.887 98.4864C112.168 98.1654 111.378 98.0374 110.595 98.1184C110.163 98.1638 109.688 98.3081 109.482 98.689C109.394 98.8495 109.386 99.0861 109.544 99.1785C109.708 99.2742 109.905 99.1445 110.063 99.0375C110.835 98.5236 111.82 98.4556 112.655 98.8576" fill="black"/>
            </g>
        </g>
    </g>
    <g opacity="0.2">
        <g opacity="0.2">
            <g opacity="0.2">
                <path opacity="0.2" d="M127.866 92.5674C126.627 92.6922 125.481 93.3113 124.53 94.1135C123.58 94.9157 122.8 95.8978 122.028 96.8735C121.384 97.6871 119.976 99.0484 119.655 100.035C119.905 100.63 119.999 101.28 119.931 101.922C119.616 102.975 119.199 103.995 118.687 104.967C121.277 103.483 123.234 101.1 124.185 98.2721C124.522 97.2543 124.731 96.1766 125.291 95.2642C125.956 94.1816 127.373 93.5608 127.866 92.5674Z" fill="black"/>
            </g>
        </g>
    </g>
    <path d="M139.319 99.8063C139.24 100.448 139.209 101.097 139.227 101.743C139.254 102.395 139.382 103.037 139.606 103.65C139.674 103.834 139.752 104.014 139.841 104.189C139.905 104.313 139.944 104.379 139.953 104.376C140.01 104.36 139.426 103.244 139.373 101.739C139.342 100.99 139.397 100.31 139.423 99.8161C139.452 99.3217 139.462 99.0153 139.441 99.0137C139.42 99.0105 139.374 99.3136 139.319 99.8063Z" fill="#2E353A"/>
    <path d="M122.009 90.0189L121.94 91.0605L125.681 91.3067L125.75 90.265L122.009 90.0189Z" fill="#FAFAFA"/>
    <path d="M114.048 84.5028C115.112 83.4947 120.701 81.4575 120.701 81.4575C120.701 81.4575 121.281 79.8693 121.62 79.6294C121.959 79.3896 123.101 79.0703 123.101 79.0703L131.913 79.3361L133.051 80.9146C133.051 80.9146 133.806 81.1237 134.044 81.4041C134.282 81.6844 135.792 82.1593 135.792 82.1593C136.076 82.2257 136.367 82.2549 136.658 82.25C137.119 82.2371 139.753 83.8302 139.753 83.8302" fill="#263238"/>
    <path d="M123.95 84.4749C124.008 84.5284 124.096 84.6046 124.205 84.7099C124.423 84.9158 124.732 85.2237 125.093 85.6224C126.047 86.6596 126.835 87.8362 127.43 89.1133L127.38 89.0857L127.422 89.0793L129.722 88.7243L129.686 88.7794C129.461 87.9318 129.093 87.128 128.598 86.4052C128.417 86.1394 128.258 85.9384 128.147 85.8039C128.087 85.7374 128.031 85.6661 127.979 85.5932C127.998 85.6062 128.016 85.6224 128.031 85.6402C128.063 85.6726 128.11 85.7196 128.168 85.7861C128.337 85.9741 128.496 86.1702 128.642 86.376C129.158 87.0972 129.539 87.9043 129.771 88.7584L129.784 88.8054L129.735 88.8135L127.437 89.1765L127.395 89.183L127.359 89.1895L127.344 89.157C126.752 87.8897 125.977 86.7147 125.045 85.671C124.691 85.2674 124.389 84.953 124.18 84.7391L123.939 84.4911C123.909 84.4636 123.882 84.4328 123.857 84.4004C123.89 84.4215 123.921 84.4474 123.95 84.4749Z" fill="#455A64"/>
    <path d="M129.084 85.3499C129.186 85.3208 129.296 85.3272 129.394 85.3694C129.546 85.4358 129.647 85.5834 129.656 85.7487C129.663 85.846 129.64 85.9416 129.593 86.0259C129.538 86.1167 129.454 86.1847 129.353 86.2188C129.158 86.2917 128.938 86.2253 128.818 86.0551C128.724 85.9205 128.706 85.7455 128.772 85.5947C128.819 85.4991 128.894 85.4213 128.988 85.3726C129.053 85.3386 129.092 85.3305 129.095 85.337C129.098 85.3435 129.064 85.3629 129.009 85.4051C128.933 85.4618 128.873 85.5363 128.836 85.6239C128.788 85.7519 128.81 85.8946 128.891 86.0048C128.925 86.0486 128.967 86.0826 129.016 86.1086C129.202 86.2058 129.432 86.1329 129.53 85.9465C129.627 85.76 129.554 85.5299 129.366 85.4326C129.282 85.3905 129.186 85.3743 129.093 85.3872C129.027 85.3986 128.991 85.4148 128.986 85.4083C128.983 85.4002 129.014 85.3726 129.084 85.3499Z" fill="#455A64"/>
    <path d="M132.588 79.9376C132.625 79.9862 132.682 80.0559 132.748 80.1499C132.937 80.4238 133.099 80.714 133.237 81.0155C133.444 81.4742 133.594 81.9572 133.681 82.4532C133.8 83.0805 133.774 83.7273 133.603 84.3416L133.564 84.4664L133.516 84.3449C133.347 83.9251 133.169 83.4825 132.987 83.0271C132.946 82.9298 132.911 82.8277 132.865 82.7401C132.83 82.6542 132.758 82.5894 132.671 82.5586C132.58 82.5424 132.487 82.5618 132.413 82.6137C132.328 82.6656 132.249 82.7256 132.176 82.7904C131.864 83.0433 131.559 83.2815 131.266 83.5052C130.677 83.9494 130.132 84.3303 129.668 84.6383C129.202 84.9462 128.82 85.1829 128.55 85.3418C128.416 85.4228 128.312 85.4828 128.239 85.5217C128.203 85.5444 128.166 85.5638 128.127 85.5784C128.159 85.5508 128.193 85.5265 128.229 85.5055L128.531 85.311C128.792 85.1424 129.17 84.896 129.629 84.5815C130.088 84.2671 130.627 83.8813 131.212 83.4339C131.504 83.2102 131.808 82.9703 132.117 82.7175C132.195 82.6494 132.28 82.5878 132.367 82.5327C132.465 82.4678 132.583 82.4451 132.697 82.4678C132.81 82.5051 132.903 82.5878 132.95 82.6964C133.002 82.7953 133.036 82.8941 133.076 82.993C133.258 83.4485 133.436 83.8926 133.603 84.3125L133.516 84.3157C133.683 83.7143 133.714 83.0822 133.603 82.4678C133.521 81.9767 133.381 81.4985 133.183 81.0414C133.052 80.7399 132.898 80.4481 132.723 80.171L132.575 79.9505C132.555 79.9262 132.541 79.8986 132.528 79.8711C132.551 79.8889 132.57 79.9116 132.588 79.9376Z" fill="#455A64"/>
    <path d="M127.13 85.6432L126.846 85.5459C126.588 85.4535 126.238 85.3271 125.808 85.1748L122.396 83.9188C121.99 83.7713 121.573 83.6562 121.15 83.572C120.955 83.5347 120.758 83.5136 120.558 83.5136C120.466 83.5136 120.373 83.525 120.284 83.546C120.206 83.5606 120.133 83.5995 120.08 83.6595L119.948 83.8669L119.999 83.6352L120.412 81.7455L120.535 81.2155C120.495 81.2009 120.469 81.1604 120.472 81.1167C120.475 81.0632 120.522 81.0243 120.576 81.0275C120.629 81.0308 120.668 81.0778 120.665 81.1313C120.662 81.1847 120.615 81.2236 120.561 81.2204C120.535 81.3565 120.503 81.5348 120.461 81.7552C120.367 82.2268 120.237 82.8783 120.081 83.653L120.002 83.6287C120.063 83.5412 120.156 83.4828 120.261 83.4634C120.359 83.4391 120.458 83.4261 120.556 83.4261C120.761 83.4261 120.965 83.4456 121.166 83.4828C121.594 83.5655 122.016 83.6822 122.428 83.8313C123.765 84.3191 124.963 84.7826 125.834 85.1148L126.862 85.5151L127.14 85.6286C127.174 85.6399 127.205 85.6545 127.234 85.674C127.196 85.6659 127.162 85.6578 127.13 85.6432Z" fill="#455A64"/>
    <path d="M114.514 84.1021C114.68 83.9822 114.866 83.8963 115.064 83.8477C116.471 83.4813 117.968 83.7925 119.112 84.6906C119.282 84.8235 119.441 84.9694 119.589 85.1266C119.645 85.1817 119.696 85.2433 119.738 85.3098C119.725 85.3227 119.504 85.065 119.069 84.744C117.927 83.893 116.467 83.5883 115.079 83.9125C114.845 83.9482 114.626 84.0454 114.443 84.1945C114.441 84.1881 114.375 84.1637 114.514 84.1021Z" fill="#455A64"/>
    <path d="M135.97 90.3888C135.916 89.3806 135.808 88.3772 135.647 87.382C135.586 86.9994 135.53 86.6914 135.49 86.4775C135.472 86.3802 135.459 86.2992 135.446 86.2311C135.44 86.2019 135.436 86.1727 135.438 86.1436C135.451 86.1695 135.461 86.197 135.465 86.2262L135.527 86.4694C135.579 86.6801 135.644 86.9881 135.715 87.3706C135.897 88.3659 136.015 89.3741 136.067 90.3839" fill="#455A64"/>
    <path d="M135.812 85.2207C136.065 84.5237 136.518 83.9158 137.113 83.4717C137.232 83.3744 137.363 83.295 137.506 83.2383C137.525 83.2642 136.917 83.6224 136.411 84.3081C135.898 84.9873 135.731 85.6745 135.7 85.6632C135.715 85.5092 135.752 85.3601 135.812 85.2207Z" fill="#455A64"/>
    <path d="M120.565 91.3359C120.547 91.1981 120.521 91.0004 120.486 90.7572C120.301 89.4848 119.976 88.2383 119.517 87.0372C119.43 86.807 119.357 86.6206 119.305 86.4925C119.261 86.5039 119.214 86.4844 119.19 86.4472C119.157 86.3969 119.17 86.3304 119.22 86.298C119.271 86.2656 119.337 86.2786 119.37 86.3288C119.402 86.3791 119.389 86.4455 119.339 86.478C119.401 86.6011 119.485 86.7843 119.581 87.0129C120.077 88.2075 120.405 89.4637 120.552 90.7491C120.58 90.9955 120.596 91.1949 120.603 91.3327C120.611 91.404 120.611 91.4769 120.603 91.5482C120.583 91.4802 120.57 91.4088 120.565 91.3359Z" fill="#455A64"/>
    <path d="M128.19 89.3957C128.576 89.6648 128.639 89.7037 128.607 89.9241C128.544 90.3454 127.913 90.3406 128.24 90.6307C129.253 91.5302 128.025 92.4167 128.025 92.4167L126.382 93.6062L124.987 94.6807L114.177 106.883C112.849 108.382 110.581 108.592 109 107.362C106.916 105.75 106.984 102.98 109.044 101.338L122.209 90.8462L124.629 87.4104C124.818 87.1333 125.057 86.8951 125.332 86.7038C126.26 86.0766 127.48 86.0896 128.395 86.7362L131.776 89.1786C131.776 89.1786 131.371 90.1915 130.154 89.634C129.384 89.2807 128.398 88.8447 128.398 88.8447C128.795 89.4087 128.192 89.3941 128.19 89.3957Z" fill="#AA8776"/>
    <path d="M128.219 88.8439C128.07 88.6186 127.854 88.4435 127.603 88.3463C127.333 88.2539 127.035 88.3106 126.821 88.497C126.662 88.6494 126.668 88.8001 126.683 88.7985C126.707 88.8066 126.74 88.6834 126.887 88.5764C127.083 88.4451 127.332 88.4111 127.555 88.484C127.781 88.5764 127.982 88.7207 128.138 88.9087C128.268 89.0514 128.345 89.1454 128.363 89.134C128.38 89.1227 128.333 89.0076 128.219 88.8439Z" fill="#996552"/>
    <path d="M126.901 89.8581C127.246 89.6571 127.673 89.6587 128.017 89.863C128.15 89.9375 128.223 90.0056 128.239 89.991C128.253 89.9797 128.206 89.884 128.075 89.7787C127.715 89.4934 127.205 89.4918 126.844 89.7738C126.712 89.8792 126.664 89.9748 126.678 89.9861C126.695 89.9991 126.767 89.9327 126.901 89.8581Z" fill="#996552"/>
    <path d="M126.901 90.8522C127.246 90.6512 127.673 90.6529 128.017 90.8571C128.15 90.9317 128.223 90.9997 128.239 90.9851C128.253 90.9738 128.206 90.8782 128.075 90.7728C127.715 90.4875 127.205 90.4859 126.844 90.7679C126.712 90.8733 126.664 90.9689 126.678 90.9803C126.695 90.9933 126.767 90.9268 126.901 90.8522Z" fill="#996552"/>
    <path d="M123.68 74.5786C124.08 73.282 124.336 71.9466 124.44 70.5933C124.536 69.2012 124.327 67.754 123.61 66.5579C123.535 66.4331 123.895 65.229 123.749 65.216C123.545 65.1982 122.953 66.4915 122.885 66.6843C122.431 67.9549 122.406 69.3471 122.612 70.6809C122.818 72.013 123.247 73.2999 123.68 74.5786Z" fill="#263238"/>
    <path d="M127.461 83.8132C127.474 83.8132 127.487 83.8132 127.501 83.8132C129.628 83.8084 131.348 82.0824 131.343 79.9577C131.342 79.0047 131.343 80.2559 131.35 80.2559C131.35 80.2559 134.618 79.8848 134.792 76.6434C134.876 75.0779 134.787 71.8382 134.672 68.908C134.547 65.7591 132.023 63.2325 128.872 63.1028L128.559 63.0898C125.172 63.1482 123.331 66.0524 123.482 69.4331L123.644 80.0176C123.672 82.1083 125.367 83.7954 127.461 83.8132Z" fill="#B78876"/>
    <path d="M131.361 81.0764C128.11 81.2353 127.176 78.833 127.176 78.833C129.301 80.2919 131.351 80.2562 131.351 80.2562L131.361 81.0764Z" fill="#995037"/>
    <path d="M133.43 70.9081C133.42 70.6633 133.214 70.4721 132.969 70.4818C132.718 70.4802 132.512 70.6796 132.504 70.9308C132.504 70.934 132.504 70.9389 132.504 70.9422C132.514 71.1869 132.72 71.3782 132.965 71.3685C133.216 71.3701 133.424 71.1707 133.432 70.9195C133.43 70.9146 133.43 70.9114 133.43 70.9081Z" fill="#263238"/>
    <path d="M133.757 69.9643C133.553 69.8039 133.305 69.7115 133.045 69.7018C132.782 69.6888 132.523 69.7569 132.301 69.8979C132.137 70.0065 132.073 70.1135 132.099 70.1426C132.151 70.2059 132.528 69.9643 133.026 69.9919C133.525 70.0113 133.866 70.2853 133.926 70.2269C133.953 70.1994 133.906 70.0875 133.757 69.9643Z" fill="#263238"/>
    <path d="M128.581 70.9081C128.571 70.6633 128.365 70.4721 128.12 70.4818C127.868 70.4802 127.662 70.6796 127.654 70.9308C127.654 70.934 127.654 70.9389 127.654 70.9422C127.664 71.1869 127.87 71.3782 128.115 71.3685C128.366 71.3701 128.574 71.1707 128.582 70.9195C128.581 70.9146 128.581 70.9114 128.581 70.9081Z" fill="#263238"/>
    <path d="M128.862 69.9644C128.658 69.8039 128.408 69.7115 128.149 69.7018C127.886 69.6888 127.626 69.7569 127.404 69.8979C127.239 70.0065 127.177 70.1135 127.203 70.1427C127.255 70.2059 127.631 69.9644 128.129 69.9919C128.627 70.0097 128.97 70.2853 129.03 70.227C129.059 70.1994 129.01 70.0876 128.862 69.9644Z" fill="#263238"/>
    <path d="M131.481 74.162C131.554 74.1636 131.627 74.1571 131.699 74.1409C131.794 74.1182 131.874 74.0534 131.916 73.9642C131.96 73.7973 131.944 73.619 131.871 73.4617C131.768 73.1473 131.661 72.8166 131.549 72.4714C131.084 71.0692 130.659 69.9492 130.602 69.967C130.545 69.9848 130.878 71.1357 131.343 72.5378C131.46 72.8815 131.574 73.2089 131.681 73.5233C131.742 73.6401 131.767 73.773 131.75 73.9043C131.726 73.9902 131.604 74.0112 131.476 74.0177C130.972 74.0615 130.659 74.102 130.66 74.1312C130.66 74.1588 130.975 74.1685 131.481 74.162Z" fill="#263238"/>
    <path d="M129.086 74.7682C129.109 75.0713 129.25 75.355 129.477 75.5576C129.714 75.7683 130.019 75.8883 130.337 75.8964C130.58 75.8996 130.719 75.8348 130.713 75.8008C130.711 75.7246 130.132 75.7602 129.684 75.3566C129.237 74.953 129.258 74.4116 129.177 74.4132C129.143 74.4084 129.076 74.5397 129.086 74.7682Z" fill="#263238"/>
    <path d="M128.794 67.9318C128.228 67.7033 127.587 67.747 127.057 68.0518C126.861 68.175 126.773 68.2998 126.805 68.3581C126.878 68.4829 127.357 68.3306 127.946 68.2965C128.535 68.2495 129.029 68.3354 129.085 68.2009C129.111 68.1393 129.007 68.0275 128.794 67.9318Z" fill="#263238"/>
    <path d="M133.644 68.2666C133.253 67.9618 132.716 67.9229 132.284 68.1677C132.127 68.2682 132.067 68.38 132.099 68.4384C132.176 68.5599 132.529 68.4789 132.941 68.5162C133.355 68.5389 133.694 68.6702 133.786 68.5599C133.827 68.5065 133.783 68.3881 133.644 68.2666Z" fill="#263238"/>
    <path d="M123.646 75.0352C123.641 75.0984 121.406 75.5361 121.427 73.3154C121.448 71.0947 123.597 71.8192 123.651 71.8452C123.651 71.8452 123.649 74.972 123.646 75.0352Z" fill="#B78876"/>
    <path d="M122.899 74.2954C122.795 74.3668 122.666 74.3878 122.544 74.3505C122.223 74.2549 121.999 73.8335 121.988 73.3861C121.983 73.1721 122.031 72.9598 122.127 72.7685C122.195 72.5918 122.349 72.4638 122.534 72.4281C122.611 72.4184 122.687 72.4394 122.748 72.4865C122.792 72.5221 122.823 72.5707 122.834 72.6259C122.851 72.7183 122.81 72.7604 122.804 72.7539C122.792 72.7507 122.807 72.7053 122.778 72.6437C122.737 72.5578 122.641 72.5124 122.551 72.5351C122.409 72.5789 122.301 72.6891 122.257 72.8301C122.179 73.0035 122.14 73.1932 122.143 73.3828C122.15 73.7832 122.345 74.1577 122.578 74.2452C122.672 74.2808 122.774 74.2808 122.867 74.2419C122.933 74.2128 122.963 74.1787 122.972 74.1852C122.98 74.1917 122.969 74.2403 122.899 74.2954Z" fill="#995037"/>
    <path d="M132.797 64.7617C132.797 64.7617 132.604 65.1604 131.801 65.7697C131.243 66.1943 129.106 65.5315 127.855 65.0891C127.067 64.8087 126.186 64.9756 125.555 65.525C125.489 65.5801 125.429 65.6417 125.375 65.7065C125.14 66.0128 125.129 66.4391 125.216 66.8151C125.304 67.191 125.479 67.5411 125.588 67.9106C125.787 68.5913 125.758 69.3141 125.727 70.0223C125.684 71.0191 125.628 72.0579 125.14 72.9266C124.912 73.3334 124.414 73.7401 124.007 73.3074C123.843 73.121 123.76 72.8763 123.776 72.63C123.802 71.9526 123.207 71.643 122.897 71.1519C122.646 70.7549 122.597 70.2638 122.584 69.7955C122.542 68.2558 122.823 66.6838 123.567 65.337C124.311 63.9902 125.546 63.2512 127.028 62.8331C128.261 62.4846 130.299 62.859 131.636 63.4651C132.52 63.8671 133.598 65.0307 133.238 65.2284L132.797 64.7617Z" fill="#263238"/>
    <path d="M123.64 79.625C123.64 79.625 123.593 81.9231 123.825 82.2586C124.056 82.594 128.243 84.5032 128.243 84.5032C128.243 84.5032 131 82.2974 131.327 81.9863C131.394 81.9231 131.36 81.0771 131.36 81.0771L123.64 79.625Z" fill="#B78876"/>
    <path d="M137.593 80.0797C137.919 80.2402 138.052 80.6324 137.893 80.9566C137.732 81.2808 137.34 81.4154 137.015 81.2565C136.691 81.096 136.556 80.7038 136.715 80.3796C136.874 80.0538 137.267 79.9209 137.593 80.0797Z" fill="#FAFAFA"/>
    <path d="M141.396 81.5449C141.474 82.4719 142.634 86.3388 142.634 86.3388C142.634 86.3388 146.891 103.119 145.188 105.748C143.485 108.377 140.313 105.129 139.771 103.195C139.229 101.263 138.92 87.0341 138.92 87.0341L137.99 86.0293L141.396 81.5449Z" fill="#AA8776"/>
    <path d="M140.035 77.4284C139.85 77.0962 139.43 76.9763 139.097 77.161L134.665 79.6179C134.212 79.8675 133.932 80.344 133.932 80.861V89.961C133.932 90.1765 133.988 90.3889 134.097 90.5752C134.436 91.1619 135.187 91.3612 135.772 91.0225L138.736 89.3111C139.344 88.9594 139.73 88.3193 139.756 87.6175L140.122 77.7882C140.127 77.6634 140.096 77.5386 140.035 77.4284Z" fill="#4D5A64"/>
    <path d="M140.103 83.2474C140.103 83.2474 139.895 82.5147 139.431 83.0901C138.88 83.7742 138.671 84.4712 137.989 84.1405C137.357 83.8325 137.765 82.5795 137.765 82.5795C137.561 83.45 137.022 83.6591 136.69 83.4759C136.177 83.1939 136.573 82.432 136.742 81.9911C136.907 81.56 139.073 80.4545 139.073 80.4545C139.073 80.4545 138.56 79.9163 138.382 79.764C138.202 79.61 137.435 80.3524 136.998 80.5582C136.562 80.7625 136.075 80.5842 135.973 80.2762C135.871 79.9682 138.228 78.5596 138.714 78.5353C139.201 78.511 141.396 81.547 141.396 81.547L140.103 83.2474Z" fill="#AA8776"/>
    <path d="M139.327 81.5072C138.632 81.525 138.009 81.9318 137.712 82.5592C137.604 82.7942 137.589 82.9547 137.607 82.9595C137.682 82.8477 137.747 82.7294 137.803 82.6078C138.126 82.0518 138.694 81.6822 139.333 81.6109C139.468 81.6077 139.602 81.5947 139.734 81.572C139.739 81.5542 139.586 81.5023 139.327 81.5072Z" fill="#996552"/>
    <path d="M195.706 163.093L196.039 170.44C196.039 170.44 188.845 173.253 188.777 174.616L202.735 174.469L202.677 163.001L195.706 163.093Z" fill="#E8505B"/>
    <g opacity="0.6">
        <path opacity="0.6" d="M200.348 169.776C200.627 169.86 200.799 170.144 200.749 170.437C200.677 170.725 200.397 170.907 200.111 170.849C199.816 170.76 199.634 170.456 199.69 170.147C199.795 169.853 200.108 169.696 200.398 169.793" fill="white"/>
    </g>
    <path opacity="0.6" d="M202.736 174.468L202.729 173.324L189.321 173.887C189.321 173.887 188.703 174.17 188.778 174.616L202.736 174.468Z" fill="white"/>
    <path d="M195.812 170.371C195.815 170.44 196.156 170.468 196.493 170.688C196.837 170.899 197.012 171.201 197.076 171.171C197.139 171.157 197.032 170.742 196.618 170.482C196.206 170.223 195.797 170.306 195.812 170.371Z" fill="#263238"/>
    <path d="M194.354 171.004C194.339 171.071 194.635 171.187 194.87 171.479C195.113 171.765 195.175 172.084 195.243 172.079C195.309 172.089 195.35 171.68 195.052 171.322C194.753 170.965 194.356 170.938 194.354 171.004Z" fill="#263238"/>
    <path d="M193.541 172.805C193.603 172.819 193.695 172.469 193.515 172.09C193.337 171.71 193.015 171.561 192.988 171.62C192.951 171.676 193.158 171.879 193.301 172.193C193.45 172.505 193.473 172.798 193.541 172.805Z" fill="#263238"/>
    <path d="M195.918 168.688C195.947 168.751 196.258 168.652 196.644 168.675C197.03 168.689 197.332 168.819 197.366 168.759C197.405 168.709 197.11 168.454 196.656 168.433C196.201 168.411 195.883 168.633 195.918 168.688Z" fill="#263238"/>
    <path opacity="0.3" d="M195.775 164.548L195.832 165.858L202.691 165.722L202.688 164.542L195.775 164.548Z" fill="black"/>
    <path d="M195.878 167.203C196.108 167.265 196.35 167.26 196.577 167.192C196.829 167.143 197.073 167.064 197.307 166.955C197.445 166.89 197.578 166.816 197.706 166.733C197.784 166.688 197.855 166.631 197.915 166.563C198.006 166.461 198.018 166.307 197.943 166.192C197.873 166.094 197.761 166.036 197.643 166.036C197.554 166.036 197.466 166.049 197.38 166.075C197.231 166.114 197.086 166.166 196.947 166.232C196.712 166.344 196.496 166.492 196.306 166.672C195.985 166.981 195.88 167.242 195.901 167.257C195.931 167.279 196.087 167.059 196.413 166.803C196.603 166.654 196.812 166.532 197.033 166.437C197.163 166.381 197.296 166.338 197.434 166.305C197.581 166.265 197.706 166.261 197.745 166.328C197.76 166.354 197.761 166.364 197.73 166.409C197.685 166.458 197.633 166.5 197.576 166.534C197.458 166.615 197.336 166.688 197.21 166.754C196.994 166.866 196.768 166.957 196.537 167.027C196.314 167.069 196.094 167.129 195.878 167.203Z" fill="#263238"/>
    <path d="M195.967 167.303C196.097 167.097 196.16 166.856 196.144 166.611C196.154 166.347 196.118 166.082 196.04 165.829C195.993 165.68 195.933 165.534 195.859 165.397C195.781 165.205 195.609 165.071 195.409 165.04C195.283 165.045 195.169 165.123 195.119 165.241C195.083 165.325 195.06 165.413 195.049 165.504C195.026 165.664 195.028 165.826 195.054 165.985C195.095 166.253 195.2 166.505 195.361 166.721C195.636 167.087 195.922 167.168 195.928 167.144C195.951 167.11 195.713 166.975 195.5 166.624C195.377 166.419 195.301 166.193 195.273 165.954C195.257 165.816 195.26 165.677 195.281 165.541C195.302 165.389 195.356 165.265 195.412 165.282C195.482 165.28 195.601 165.393 195.659 165.513C195.729 165.637 195.789 165.765 195.836 165.899C195.915 166.128 195.964 166.368 195.979 166.611C196 167.032 195.93 167.293 195.967 167.303Z" fill="#263238"/>
    <path d="M208.9 158.634L214.545 163.194C214.545 163.194 211.904 170.59 212.868 171.536L221.913 160.668L213.404 153.193L208.9 158.634Z" fill="#E8505B"/>
    <g opacity="0.6">
        <path opacity="0.6" d="M216.881 159.433C217.126 159.273 217.448 159.326 217.632 159.556C217.797 159.801 217.749 160.135 217.518 160.318C217.259 160.488 216.916 160.43 216.723 160.184C216.576 159.91 216.665 159.566 216.928 159.404" fill="white"/>
    </g>
    <path opacity="0.6" d="M221.912 160.669L221.063 159.924L212.685 170.64C212.685 170.64 212.488 171.302 212.866 171.537L221.912 160.669Z" fill="white"/>
    <path d="M214.343 163.324C214.397 163.368 214.642 163.123 215.024 163.007C215.406 162.88 215.743 162.94 215.763 162.875C215.793 162.817 215.417 162.627 214.955 162.775C214.492 162.922 214.286 163.293 214.343 163.324Z" fill="#263238"/>
    <path d="M213.855 164.865C213.896 164.922 214.175 164.768 214.544 164.779C214.914 164.779 215.19 164.94 215.231 164.885C215.281 164.843 215.007 164.541 214.548 164.536C214.089 164.531 213.806 164.821 213.855 164.865Z" fill="#263238"/>
    <path d="M214.652 166.672C214.704 166.633 214.505 166.333 214.107 166.223C213.71 166.113 213.39 166.262 213.414 166.324C213.432 166.39 213.719 166.362 214.044 166.458C214.372 166.546 214.603 166.721 214.652 166.672Z" fill="#263238"/>
    <path d="M213.17 162.138C213.235 162.157 213.366 161.851 213.635 161.567C213.898 161.279 214.193 161.131 214.171 161.063C214.159 161 213.776 161.06 213.463 161.399C213.15 161.737 213.108 162.13 213.17 162.138Z" fill="#263238"/>
    <path opacity="0.3" d="M210.02 159.536L211.023 160.35L215.42 154.968L214.546 154.196L210.02 159.536Z" fill="black"/>
    <path d="M212.048 161.197C212.069 161.216 212.275 161.035 212.499 160.651C212.628 160.425 212.729 160.184 212.802 159.933C212.844 159.784 212.878 159.633 212.901 159.479C212.919 159.39 212.922 159.297 212.912 159.205C212.896 159.067 212.79 158.959 212.656 158.941C212.537 158.931 212.422 158.98 212.343 159.07C212.284 159.138 212.237 159.216 212.2 159.299C212.132 159.438 212.075 159.584 212.033 159.735C211.962 159.989 211.929 160.254 211.937 160.518C211.921 160.763 211.979 161.004 212.103 161.215C212.14 161.205 212.08 160.941 212.103 160.521C212.117 160.276 212.164 160.035 212.239 159.803C212.283 159.667 212.338 159.536 212.403 159.409C212.468 159.268 212.55 159.169 212.625 159.184C212.653 159.19 212.662 159.195 212.675 159.249C212.682 159.317 212.679 159.383 212.666 159.45C212.648 159.594 212.622 159.737 212.588 159.878C212.529 160.117 212.448 160.351 212.348 160.576C212.232 160.772 212.132 160.981 212.048 161.197Z" fill="#263238"/>
    <path d="M212.18 161.193C212.204 161.182 212.105 160.915 211.786 160.603C211.483 160.313 211.108 160.115 210.702 160.028C210.509 159.963 210.298 160.005 210.144 160.141C210.065 160.242 210.049 160.381 210.104 160.498C210.143 160.581 210.193 160.655 210.253 160.723C210.357 160.845 210.477 160.95 210.611 161.036C210.835 161.179 211.092 161.263 211.354 161.282C211.594 161.326 211.841 161.268 212.039 161.122C211.817 161.132 211.594 161.128 211.374 161.112C211.144 161.073 210.923 160.984 210.73 160.85C210.618 160.772 210.517 160.678 210.43 160.573C210.331 160.457 210.276 160.334 210.323 160.302C210.423 160.24 210.545 160.226 210.655 160.263C210.792 160.289 210.926 160.328 211.056 160.38C211.278 160.467 211.486 160.589 211.676 160.736C212.002 160.989 212.148 161.214 212.18 161.193Z" fill="#263238"/>
    <path d="M193.581 132.015C193.581 132.015 193.954 114.469 193.581 114.469C193.208 114.469 190.559 112.925 190.559 112.925L187.252 139.001C187.252 139.001 186.954 141.928 190.498 143.991C194.041 146.054 209.887 160.456 209.887 160.456L215.249 153.78C215.249 153.78 204.822 142.67 200.563 139C198.112 136.805 195.78 134.473 193.581 132.015Z" fill="#263238"/>
    <path d="M203.295 127.925L203.657 125.147C203.657 125.147 206.268 119.532 206.643 117.125C207.016 114.718 206.769 109.547 206.769 109.547H190.276C190.276 109.547 190.348 128.577 192.338 133.918C192.338 133.918 193.348 144.137 193.496 144.994C193.81 146.811 194.91 165.416 194.91 165.416L203.225 165.106C203.225 165.106 203.947 148.002 203.37 143.146C203.084 140.743 202.948 138.179 202.886 136.059C202.809 133.343 202.945 130.622 203.295 127.925Z" fill="#263238"/>
    <path d="M190.727 115.101C190.735 115.128 190.739 115.156 190.739 115.185C190.742 115.25 190.748 115.331 190.755 115.431C190.765 115.66 190.781 115.976 190.799 116.378C190.829 117.199 190.889 118.389 190.972 119.857C191.136 122.794 191.446 126.847 191.9 131.312C192.354 135.777 192.841 139.814 193.192 142.734C193.366 144.185 193.507 145.365 193.606 146.195L193.711 147.135L193.736 147.379C193.741 147.407 193.741 147.436 193.739 147.464C193.729 147.438 193.723 147.41 193.72 147.381L193.681 147.138C193.648 146.911 193.603 146.598 193.544 146.201L193.081 142.749C192.699 139.832 192.193 135.798 191.741 131.33C191.288 126.862 190.996 122.805 190.859 119.865C190.79 118.395 190.748 117.204 190.735 116.381C190.729 115.979 190.724 115.663 190.721 115.433C190.721 115.332 190.721 115.251 190.721 115.186C190.721 115.156 190.722 115.128 190.727 115.101Z" fill="#455A64"/>
    <path d="M202.871 137.625C202.894 137.716 202.91 137.808 202.92 137.901C202.946 138.097 202.982 138.361 203.027 138.695C203.11 139.387 203.214 140.39 203.308 141.631C203.504 144.114 203.651 147.555 203.707 151.355C203.75 155.157 203.692 158.6 203.559 161.089C203.497 162.334 203.42 163.338 203.353 164.032C203.316 164.368 203.287 164.633 203.265 164.829C203.259 164.923 203.244 165.016 203.223 165.107C203.22 165.013 203.222 164.919 203.233 164.826C203.248 164.63 203.267 164.363 203.291 164.027C203.338 163.332 203.398 162.327 203.447 161.084C203.551 158.598 203.591 155.157 203.548 151.358C203.493 147.561 203.363 144.124 203.196 141.641C203.116 140.4 203.03 139.396 202.965 138.703C202.933 138.367 202.907 138.101 202.888 137.905C202.876 137.813 202.87 137.719 202.871 137.625Z" fill="#455A64"/>
    <path d="M93.8268 58.7607H89.292V112.385H93.8268V58.7607Z" fill="#3A3464"/>
    <path d="M168.196 58.7607H163.661V112.385H168.196V58.7607Z" fill="#3A3464"/>
    <path d="M83.0215 28.9053V60.6573C83.0215 62.7998 84.8769 64.4156 87.167 64.4156C89.4571 64.4156 91.3142 62.8808 91.3142 60.7367V28.9053H83.0215Z" fill="#F7D71C"/>
    <path d="M91.3135 28.9053V60.6573C91.3135 62.7998 93.1689 64.4156 95.4574 64.4156C97.7458 64.4156 99.6029 62.8808 99.6029 60.7367V28.9053H91.3135Z" fill="#FF4F5B"/>
    <path d="M99.6045 28.9053V60.6573C99.6045 62.7998 101.46 64.4156 103.75 64.4156C106.04 64.4156 107.896 62.8808 107.896 60.7367V28.9053H99.6045Z" fill="#F7D71C"/>
    <path d="M107.895 28.9053V60.6573C107.895 62.7998 109.75 64.4156 112.04 64.4156C114.33 64.4156 116.184 62.8808 116.184 60.7367V28.9053H107.895Z" fill="#FF4F5B"/>
    <path d="M116.186 28.9053V60.6573C116.186 62.7998 118.043 64.4156 120.333 64.4156C122.623 64.4156 124.478 62.8808 124.478 60.7367V28.9053H116.186Z" fill="#F7D71C"/>
    <path d="M124.478 28.9053V60.6573C124.478 62.7998 126.333 64.4156 128.623 64.4156C130.913 64.4156 132.769 62.8808 132.769 60.7367V28.9053H124.478Z" fill="#FF4F5B"/>
    <path d="M132.767 28.9053V60.6573C132.767 62.7998 134.622 64.4156 136.912 64.4156C139.202 64.4156 141.058 62.8808 141.058 60.7367V28.9053H132.767Z" fill="#F7D71C"/>
    <path d="M141.058 28.9053V60.6573C141.058 62.7998 142.913 64.4156 145.203 64.4156C147.493 64.4156 149.347 62.8808 149.347 60.7367V28.9053H141.058Z" fill="#FF4F5B"/>
    <path d="M149.349 28.9053V60.6573C149.349 62.7998 151.206 64.4156 153.494 64.4156C155.783 64.4156 157.641 62.8808 157.641 60.7367V28.9053H149.349Z" fill="#F7D71C"/>
    <path d="M157.64 28.9053V60.6573C157.64 62.7998 159.495 64.4156 161.784 64.4156C164.072 64.4156 165.929 62.8808 165.929 60.7367V28.9053H157.64Z" fill="#FF4F5B"/>
    <path d="M165.93 28.9053V60.6573C165.93 62.7998 167.785 64.4156 170.075 64.4156C172.365 64.4156 174.221 62.8808 174.221 60.7367V28.9053H165.93Z" fill="#F7D71C"/>
    <path d="M171.229 111.804H86.0137V160.501H171.229V111.804Z" fill="#FC6B79"/>
    <path d="M174.403 108.906H82.8369V115.862H174.403V108.906Z" fill="#3A3464"/>
    <path d="M156.626 122.529H100.616V125.173H156.626V122.529Z" fill="#F7D71C"/>
    <path d="M156.626 131.553H100.616V134.196H156.626V131.553Z" fill="#F7D71C"/>
    <path d="M171.229 138.374H86.0137V160.501H171.229V138.374Z" fill="#FF4F5B"/>
    <path opacity="0.22" d="M165.929 44.9195H83.0215V60.6578C83.0215 62.8003 84.8769 64.4161 87.167 64.4161C89.4571 64.4161 91.3142 62.8813 91.3142 60.7372V60.6561C91.3142 62.7987 93.1696 64.4145 95.4581 64.4145C97.7465 64.4145 99.6036 62.8797 99.6036 60.7356V60.6561C99.6036 62.7987 101.459 64.4145 103.749 64.4145C106.039 64.4145 107.895 62.8797 107.895 60.7356V60.6545C107.895 62.797 109.75 64.4128 112.04 64.4128C114.33 64.4128 116.184 62.8781 116.184 60.7339V60.6529C116.184 62.7954 118.041 64.4112 120.331 64.4112C122.621 64.4112 124.477 62.8765 124.477 60.7323V60.6513C124.477 62.7938 126.332 64.4096 128.622 64.4096C130.912 64.4096 132.768 62.8748 132.768 60.7307V60.6497C132.768 62.7922 134.623 64.408 136.913 64.408C139.203 64.408 141.059 62.8732 141.059 60.7291V60.648C141.059 62.7906 142.914 64.4064 145.204 64.4064C147.494 64.4064 149.348 62.8716 149.348 60.7275V60.6464C149.348 62.7889 151.205 64.4047 153.494 64.4047C155.782 64.4047 157.639 62.87 157.639 60.7258V60.6448C157.639 62.7873 159.495 64.4031 161.783 64.4031C164.072 64.4031 165.929 62.8684 165.929 60.7242V60.6432C165.929 62.7857 167.784 64.4015 170.074 64.4015C172.364 64.4015 174.22 62.8667 174.22 60.7226V44.9033L165.929 44.9195Z" fill="#E7D1E0"/>
    <path d="M50.7288 125.07L49.4135 124.55C49.4135 124.55 45.8096 125.271 44.5916 125.26C43.5131 125.25 40.339 124.55 40.339 124.55L38.8858 125.124L39.1097 123.44C39.1097 123.44 38.542 119.177 38.542 117.748C38.542 114.871 39.1097 111.254 39.1097 111.254L38.9685 109.436L40.4801 110.097C40.4801 110.097 43.6947 109.439 44.783 109.436C45.9183 109.432 49.2756 110.097 49.2756 110.097L50.8342 109.436L50.5504 110.993C50.5504 110.993 51.2121 115.698 51.2121 117.278C51.2186 119.202 50.9964 121.121 50.5504 122.992L50.7288 125.07Z" fill="#C90000"/>
    <path d="M39.7444 114.933H50.0093C50.0725 114.933 50.1228 114.983 50.1228 115.046V120.414C50.1228 120.477 50.0725 120.527 50.0093 120.527H39.7444C39.6811 120.527 39.6309 120.477 39.6309 120.414V115.046C39.6309 114.983 39.6811 114.933 39.7444 114.933Z" fill="#633030"/>
    <path opacity="0.33" d="M42.751 117.017C42.751 120.159 44.3274 122.709 46.2721 122.709C48.2167 122.709 49.7932 120.161 49.7932 117.017C49.7932 113.873 48.2183 111.325 46.2737 111.325C44.3291 111.325 42.751 113.873 42.751 117.017Z" fill="white"/>
    <path d="M72.9193 124.932L71.6672 124.436C71.6672 124.436 68.2321 125.124 67.0708 125.112C66.0442 125.102 63.0177 124.436 63.0177 124.436L61.6326 124.983L61.8467 123.379C61.8467 123.379 61.3066 119.318 61.3066 117.955C61.3066 115.213 61.8467 111.765 61.8467 111.765L61.7121 110.031L63.1523 110.662C63.1523 110.662 66.2161 110.035 67.2524 110.031C68.3342 110.028 71.5342 110.662 71.5342 110.662L73.0182 110.031L72.7474 111.516C72.7474 111.516 73.3783 116 73.3783 117.506C73.3848 119.339 73.1723 121.167 72.7474 122.951L72.9193 124.932Z" fill="#FF7400"/>
    <path d="M71.449 115.171C71.3955 116.018 70.6639 116.662 69.8155 116.607C68.9671 116.553 68.3231 115.822 68.3783 114.975C68.4302 114.166 69.1018 113.535 69.9145 113.535C70.7888 113.564 71.4766 114.297 71.449 115.171Z" fill="#FFA460"/>
    <path d="M62.4495 115.269H72.2327C72.2927 115.269 72.3413 115.317 72.3413 115.377V120.494C72.3413 120.553 72.2927 120.602 72.2327 120.602H62.4495C62.3895 120.602 62.3408 120.553 62.3408 120.494V115.377C62.3408 115.317 62.3895 115.269 62.4495 115.269Z" fill="#C90000"/>
    <path d="M65.3145 117.256C65.3145 120.253 66.8163 122.681 68.6701 122.681C70.5239 122.681 72.0258 120.253 72.0258 117.256C72.0258 114.26 70.5239 111.832 68.6701 111.832C66.8163 111.832 65.3145 114.261 65.3145 117.256Z" fill="#FFC09F"/>
    <path d="M69.7756 121.384C69.7756 122.757 68.5979 123.872 67.1461 123.872C65.6943 123.872 64.5166 122.759 64.5166 121.384C64.5166 120.009 65.6943 118.897 67.1461 118.897C68.5979 118.897 69.7756 120.011 69.7756 121.384Z" fill="#FFA460"/>
    <path d="M71.3631 122.237C71.3096 123.085 70.578 123.728 69.7296 123.673C68.8812 123.62 68.2372 122.889 68.2924 122.041C68.3443 121.232 69.0158 120.602 69.8285 120.602C70.7029 120.631 71.3891 121.362 71.3631 122.237Z" fill="#FFA460"/>
    <path d="M63.4196 124.967L62.0961 124.444C62.0961 124.444 58.4647 125.172 57.2386 125.159C56.1519 125.147 52.9536 124.444 52.9536 124.444L51.489 125.022L51.7145 123.326C51.7145 123.326 51.1436 119.033 51.1436 117.592C51.1436 114.692 51.7145 111.051 51.7145 111.051L51.5717 109.218L53.0947 109.884C53.0947 109.884 56.3319 109.221 57.4283 109.218C58.5718 109.215 61.955 109.884 61.955 109.884L63.525 109.218L63.2395 110.787C63.2395 110.787 63.9061 115.525 63.9061 117.117C63.9126 119.055 63.6888 120.987 63.2395 122.873L63.4196 124.967Z" fill="#005B00"/>
    <path d="M60.2439 116.379C61.1407 116.379 61.8677 115.605 61.8677 114.651C61.8677 113.696 61.1407 112.923 60.2439 112.923C59.3471 112.923 58.6201 113.696 58.6201 114.651C58.6201 115.605 59.3471 116.379 60.2439 116.379Z" fill="#FFA460"/>
    <path d="M55.3818 116.855C55.3818 120.022 56.9697 122.589 58.9289 122.589C60.8881 122.589 62.4759 120.022 62.4759 116.855C62.4759 113.688 60.8881 111.121 58.9289 111.121C56.9697 111.121 55.3818 113.69 55.3818 116.855Z" fill="#FFC09F"/>
    <path d="M60.0975 121.219C60.0975 122.671 58.8534 123.848 57.3188 123.848C55.7842 123.848 54.54 122.67 54.54 121.219C54.54 119.768 55.7842 118.59 57.3188 118.59C58.8534 118.59 60.0975 119.767 60.0975 121.219Z" fill="#FFA460"/>
    <path d="M61.7752 122.118C61.7752 123.073 61.0485 123.846 60.1531 123.846C59.256 123.846 58.5293 123.071 58.5293 122.118C58.5293 121.165 59.256 120.389 60.1531 120.389C61.0485 120.39 61.7752 121.165 61.7752 122.118Z" fill="#FFA460"/>
    <path d="M44.552 124.996L43.6649 124.646C43.6649 124.646 41.2353 125.132 40.413 125.124C39.6864 125.117 37.5455 124.646 37.5455 124.646L36.5659 125.033L36.7167 123.897C36.7167 123.897 36.334 121.024 36.334 120.059C36.3664 118.593 36.4946 117.131 36.7167 115.682L36.6211 114.455L37.6396 114.901C37.6396 114.901 39.8064 114.457 40.5411 114.455C41.3067 114.452 43.5692 114.901 43.5692 114.901L44.6202 114.455L44.4288 115.505C44.4288 115.505 44.8748 118.677 44.8748 119.743C44.8797 121.04 44.7288 122.333 44.4288 123.596L44.552 124.996Z" fill="#FF7400"/>
    <path d="M37.1446 118.157H44.0668C44.1089 118.157 44.143 118.191 44.143 118.233V121.852C44.143 121.894 44.1089 121.928 44.0668 121.928H37.1446C37.1024 121.928 37.0684 121.894 37.0684 121.852V118.233C37.0684 118.193 37.1024 118.157 37.1446 118.157Z" fill="#C90000"/>
    <path d="M39.1709 119.564C39.1709 121.684 40.2332 123.402 41.5453 123.402C42.8574 123.402 43.9198 121.684 43.9198 119.564C43.9198 117.444 42.8574 115.727 41.5453 115.727C40.2332 115.727 39.1709 117.444 39.1709 119.564Z" fill="#FFC09F"/>
    <path d="M75.5573 125.028L74.6717 124.678C74.6717 124.678 72.2422 125.164 71.4199 125.156C70.6933 125.15 68.5524 124.678 68.5524 124.678L67.5727 125.065L67.7236 123.931C67.7236 123.931 67.3408 121.057 67.3408 120.093C67.3733 118.626 67.5014 117.165 67.7236 115.714L67.6279 114.487L68.6464 114.933C68.6464 114.933 70.8133 114.489 71.548 114.487C72.3135 114.486 74.5761 114.933 74.5761 114.933L75.627 114.487L75.4356 115.538C75.4356 115.538 75.8817 118.709 75.8817 119.776C75.8865 121.072 75.7357 122.365 75.4356 123.628L75.5573 125.028Z" fill="#C90000"/>
    <path d="M68.1495 118.191H75.0717C75.1138 118.191 75.1479 118.225 75.1479 118.268V121.887C75.1479 121.929 75.1138 121.963 75.0717 121.963H68.1495C68.1073 121.963 68.0732 121.929 68.0732 121.887V118.269C68.0732 118.227 68.1073 118.191 68.1495 118.191Z" fill="#633030"/>
    <path opacity="0.33" d="M70.1777 119.597C70.1777 121.717 71.2401 123.435 72.5522 123.435C73.8643 123.435 74.9266 121.717 74.9266 119.597C74.9266 117.478 73.8643 115.76 72.5522 115.76C71.2401 115.76 70.1777 117.479 70.1777 119.597Z" fill="white"/>
    <path d="M55.4899 125.25L54.6043 124.9C54.6043 124.9 52.1748 125.386 51.3525 125.378C50.6259 125.371 48.485 124.9 48.485 124.9L47.5054 125.287L47.6562 124.153C47.6562 124.153 47.2734 121.279 47.2734 120.315C47.3059 118.848 47.434 117.386 47.6562 115.936L47.5605 114.709L48.579 115.155C48.579 115.155 50.7459 114.711 51.4806 114.709C52.2461 114.707 54.5086 115.155 54.5086 115.155L55.5596 114.709L55.3682 115.759C55.3682 115.759 55.8142 118.931 55.8142 119.997C55.8191 121.294 55.6683 122.587 55.3682 123.85L55.4899 125.25Z" fill="#FF7400"/>
    <path d="M54.4486 118.346C54.4097 118.946 53.8922 119.4 53.2936 119.362C52.6935 119.324 52.2392 118.807 52.2766 118.208C52.3139 117.636 52.7875 117.19 53.3618 117.19C53.9814 117.21 54.4665 117.727 54.4486 118.346Z" fill="#FFA460"/>
    <path d="M48.0821 118.414H55.0043C55.0464 118.414 55.0805 118.448 55.0805 118.49V122.109C55.0805 122.151 55.0464 122.185 55.0043 122.185H48.0821C48.0399 122.185 48.0059 122.151 48.0059 122.109V118.49C48.0059 118.448 48.0399 118.414 48.0821 118.414Z" fill="#C90000"/>
    <path d="M50.1084 119.821C50.1084 121.941 51.1707 123.659 52.4828 123.659C53.7949 123.659 54.8573 121.941 54.8573 119.821C54.8573 117.701 53.7933 115.983 52.4828 115.983C51.1724 115.983 50.1084 117.701 50.1084 119.821Z" fill="#FFC09F"/>
    <path d="M53.2661 122.741C53.3229 123.767 52.5345 124.646 51.5077 124.703C50.4809 124.759 49.6017 123.972 49.5449 122.946C49.4881 121.92 50.2765 121.041 51.3033 120.984C51.3374 120.983 51.3714 120.981 51.4055 120.981C52.4064 120.955 53.2385 121.743 53.2661 122.741Z" fill="#FFA460"/>
    <path d="M54.3873 123.344C54.3484 123.943 53.8309 124.397 53.2307 124.358C52.6305 124.319 52.1763 123.802 52.2152 123.203C52.2525 122.63 52.7278 122.185 53.3004 122.185C53.9217 122.207 54.4068 122.724 54.3873 123.344Z" fill="#FFA460"/>
    <path d="M65.7409 125.028L64.8553 124.678C64.8553 124.678 62.4257 125.164 61.6034 125.156C60.8768 125.15 58.736 124.678 58.736 124.678L57.7563 125.065L57.9072 123.931C57.9072 123.931 57.5244 121.057 57.5244 120.093C57.5569 118.626 57.685 117.165 57.9072 115.714L57.8115 114.487L58.83 114.933C58.83 114.933 60.9969 114.489 61.7316 114.487C62.4971 114.486 64.7596 114.933 64.7596 114.933L65.8106 114.487L65.6192 115.538C65.6192 115.538 66.0652 118.709 66.0652 119.776C66.0701 121.072 65.9193 122.365 65.6192 123.628L65.7409 125.028Z" fill="#1F8800"/>
    <path d="M63.6142 119.28C64.2144 119.28 64.701 118.762 64.701 118.123C64.701 117.484 64.2144 116.966 63.6142 116.966C63.0139 116.966 62.5273 117.484 62.5273 118.123C62.5273 118.762 63.0139 119.28 63.6142 119.28Z" fill="#FFA460"/>
    <path d="M58.334 118.191H65.2562C65.2984 118.191 65.3325 118.225 65.3325 118.268V121.887C65.3325 121.929 65.2984 121.963 65.2562 121.963H58.334C58.2919 121.963 58.2578 121.929 58.2578 121.887V118.269C58.2578 118.227 58.2919 118.191 58.334 118.191Z" fill="#C90000"/>
    <path d="M62.7358 123.435C64.0471 123.435 65.1102 121.717 65.1102 119.597C65.1102 117.478 64.0471 115.76 62.7358 115.76C61.4244 115.76 60.3613 117.478 60.3613 119.597C60.3613 121.717 61.4244 123.435 62.7358 123.435Z" fill="#FFC09F"/>
    <path d="M63.5174 122.518C63.5742 123.544 62.7858 124.422 61.759 124.478C60.7322 124.534 59.853 123.746 59.7978 122.72C59.741 121.694 60.5294 120.816 61.5562 120.761C61.5903 120.759 61.6243 120.757 61.6568 120.757C62.656 120.732 63.4882 121.519 63.5174 122.518Z" fill="#FFA460"/>
    <path d="M63.5527 124.279C64.1529 124.279 64.6395 123.76 64.6395 123.121C64.6395 122.482 64.1529 121.964 63.5527 121.964C62.9524 121.964 62.4658 122.482 62.4658 123.121C62.4658 123.76 62.9524 124.279 63.5527 124.279Z" fill="#FFA460"/>
    <path d="M50.7288 97.8855L49.4135 97.3652C49.4135 97.3652 45.8096 98.0864 44.5916 98.0751C43.5131 98.0654 40.339 97.3652 40.339 97.3652L38.8858 97.9406L39.1097 96.2567C39.1097 96.2567 38.542 91.9944 38.542 90.565C38.542 87.6883 39.1097 84.071 39.1097 84.071L38.9685 82.251L40.4801 82.9122C40.4801 82.9122 43.6947 82.2542 44.783 82.251C45.9183 82.2477 49.2756 82.9122 49.2756 82.9122L50.8342 82.251L50.5504 83.8084C50.5504 83.8084 51.2121 88.5132 51.2121 90.0934C51.2186 92.0171 50.9964 93.9359 50.5504 95.8062L50.7288 97.8855Z" fill="#C90000"/>
    <path d="M39.7444 87.748H50.0093C50.0725 87.748 50.1228 87.7983 50.1228 87.8615V93.2291C50.1228 93.2923 50.0725 93.3426 50.0093 93.3426H39.7444C39.6811 93.3426 39.6309 93.2923 39.6309 93.2291V87.8615C39.6309 87.7999 39.6811 87.748 39.7444 87.748Z" fill="#633030"/>
    <path opacity="0.33" d="M42.751 89.8327C42.751 92.9752 44.3274 95.5245 46.2721 95.5245C48.2167 95.5245 49.7932 92.9768 49.7932 89.8327C49.7932 86.6886 48.2183 84.1426 46.2737 84.1426C44.3291 84.1426 42.751 86.6903 42.751 89.8327Z" fill="white"/>
    <path d="M72.9193 97.747L71.6672 97.2511C71.6672 97.2511 68.2321 97.9399 67.0708 97.9269C66.0442 97.9172 63.0177 97.2511 63.0177 97.2511L61.6326 97.7989L61.8467 96.1944C61.8467 96.1944 61.3066 92.1331 61.3066 90.7701C61.3066 88.0279 61.8467 84.5808 61.8467 84.5808L61.7121 82.8467L63.1523 83.4771C63.1523 83.4771 66.2161 82.8499 67.2524 82.8467C68.3342 82.8435 71.5342 83.4771 71.5342 83.4771L73.0182 82.8467L72.7474 84.3312C72.7474 84.3312 73.3783 88.8156 73.3783 90.3212C73.3848 92.1541 73.1723 93.9822 72.7474 95.7666L72.9193 97.747Z" fill="#FF7400"/>
    <path d="M71.449 87.9881C71.3955 88.8358 70.6639 89.4793 69.8155 89.4242C68.9671 89.3707 68.3231 88.6397 68.3783 87.7919C68.4302 86.9831 69.1018 86.3525 69.9145 86.3525C70.7888 86.3817 71.475 87.1128 71.449 87.9881Z" fill="#FFA460"/>
    <path d="M62.4495 88.0859H72.2327C72.2927 88.0859 72.3413 88.1346 72.3413 88.1945V93.3109C72.3413 93.3709 72.2927 93.4195 72.2327 93.4195H62.4495C62.3895 93.4195 62.3408 93.3709 62.3408 93.3109V88.1945C62.3408 88.1346 62.3895 88.0859 62.4495 88.0859Z" fill="#C90000"/>
    <path d="M65.3145 90.0738C65.3145 93.0704 66.8163 95.4981 68.6701 95.4981C70.5239 95.4981 72.0258 93.0704 72.0258 90.0738C72.0258 87.0772 70.5239 84.6494 68.6701 84.6494C66.8163 84.6494 65.3145 87.0772 65.3145 90.0738Z" fill="#9EB0DE"/>
    <path d="M69.7756 94.2014C69.7756 95.5743 68.5979 96.6895 67.1461 96.6895C65.6943 96.6895 64.5166 95.5759 64.5166 94.2014C64.5166 92.8268 65.6943 91.7148 67.1461 91.7148C68.5979 91.7148 69.7756 92.8284 69.7756 94.2014Z" fill="#FFA460"/>
    <path d="M71.3631 95.0525C71.3096 95.9003 70.578 96.5438 69.7296 96.4887C68.8812 96.4352 68.2372 95.7042 68.2924 94.8564C68.3443 94.0475 69.0158 93.417 69.8285 93.417C70.7029 93.4462 71.3891 94.1788 71.3631 95.0525Z" fill="#FFA460"/>
    <path d="M63.4196 97.7847L62.0961 97.2612C62.0961 97.2612 58.4647 97.9889 57.2386 97.976C56.1519 97.9662 52.9536 97.2612 52.9536 97.2612L51.489 97.8398L51.7145 96.143C51.7145 96.143 51.1436 91.8499 51.1436 90.4091C51.1436 87.5098 51.7145 83.8681 51.7145 83.8681L51.5717 82.0352L53.0947 82.7013C53.0947 82.7013 56.3319 82.0384 57.4283 82.0352C58.5718 82.0319 61.955 82.7013 61.955 82.7013L63.525 82.0352L63.2395 83.604C63.2395 83.604 63.9061 88.3428 63.9061 89.9343C63.9126 91.8726 63.6888 93.8044 63.2395 95.6908L63.4196 97.7847Z" fill="#005B00"/>
    <path d="M60.2439 89.1961C61.1407 89.1961 61.8677 88.4225 61.8677 87.4682C61.8677 86.5139 61.1407 85.7402 60.2439 85.7402C59.3471 85.7402 58.6201 86.5139 58.6201 87.4682C58.6201 88.4225 59.3471 89.1961 60.2439 89.1961Z" fill="#FFA460"/>
    <path d="M55.3818 89.6724C55.3818 92.8391 56.9697 95.4063 58.9289 95.4063C60.8881 95.4063 62.4759 92.8391 62.4759 89.6724C62.4759 86.5056 60.8881 83.9385 58.9289 83.9385C56.9697 83.9385 55.3818 86.5056 55.3818 89.6724Z" fill="#8198D4"/>
    <path d="M60.0975 94.0354C60.0975 95.4878 58.8534 96.6646 57.3188 96.6646C55.7842 96.6646 54.54 95.4862 54.54 94.0354C54.54 92.5847 55.7842 91.4062 57.3188 91.4062C58.8534 91.4062 60.0975 92.5831 60.0975 94.0354Z" fill="#FFA460"/>
    <path d="M61.7752 94.9356C61.7752 95.8903 61.0485 96.6635 60.1531 96.6635C59.256 96.6635 58.5293 95.8887 58.5293 94.9356C58.5293 93.9825 59.256 93.2061 60.1531 93.2061C61.0485 93.2061 61.7752 93.9809 61.7752 94.9356Z" fill="#FFA460"/>
    <path d="M44.552 97.8113L43.6649 97.4612C43.6649 97.4612 41.2353 97.9474 40.413 97.9393C39.6864 97.9329 37.5455 97.4612 37.5455 97.4612L36.5659 97.8486L36.7167 96.7125C36.7167 96.7125 36.334 93.8391 36.334 92.8748C36.3664 91.4081 36.4946 89.9462 36.7167 88.4974L36.6211 87.2705L37.6396 87.7162C37.6396 87.7162 39.8064 87.2738 40.5411 87.2705C41.3067 87.2673 43.5692 87.7162 43.5692 87.7162L44.6202 87.2705L44.4288 88.3207C44.4288 88.3207 44.8748 91.4923 44.8748 92.5587C44.8797 93.8553 44.7288 95.1486 44.4288 96.411L44.552 97.8113Z" fill="#FF7400"/>
    <path d="M37.1446 90.9746H44.0668C44.1089 90.9746 44.143 91.0086 44.143 91.0508V94.6697C44.143 94.7119 44.1089 94.7459 44.0668 94.7459H37.1446C37.1024 94.7459 37.0684 94.7119 37.0684 94.6697V91.0508C37.0684 91.0086 37.1024 90.9746 37.1446 90.9746Z" fill="#C90000"/>
    <path d="M39.1709 92.3807C39.1709 94.5005 40.2332 96.2184 41.5453 96.2184C42.8574 96.2184 43.9198 94.5005 43.9198 92.3807C43.9198 90.2609 42.8574 88.543 41.5453 88.543C40.2332 88.543 39.1709 90.2609 39.1709 92.3807Z" fill="#FFC09F"/>
    <path d="M75.5573 97.8435L74.6717 97.4934C74.6717 97.4934 72.2422 97.9796 71.4199 97.9715C70.6933 97.9651 68.5524 97.4934 68.5524 97.4934L67.5727 97.8808L67.7236 96.7463C67.7236 96.7463 67.3408 93.8729 67.3408 92.9086C67.3733 91.4419 67.5014 89.9801 67.7236 88.5296L67.6279 87.3027L68.6464 87.7484C68.6464 87.7484 70.8133 87.3044 71.548 87.3027C72.3135 87.3011 74.5761 87.7484 74.5761 87.7484L75.627 87.3027L75.4356 88.3529C75.4356 88.3529 75.8817 91.5246 75.8817 92.591C75.8865 93.8875 75.7357 95.1808 75.4356 96.4433L75.5573 97.8435Z" fill="#C90000"/>
    <path d="M68.1495 91.0078H75.0717C75.1138 91.0078 75.1479 91.0418 75.1479 91.084V94.7029C75.1479 94.7451 75.1138 94.7791 75.0717 94.7791H68.1495C68.1073 94.7791 68.0732 94.7451 68.0732 94.7029V91.084C68.0732 91.0418 68.1073 91.0078 68.1495 91.0078Z" fill="#633030"/>
    <path opacity="0.33" d="M70.1777 92.4149C70.1777 94.5347 71.2401 96.2526 72.5522 96.2526C73.8643 96.2526 74.9266 94.5347 74.9266 92.4149C74.9266 90.295 73.8643 88.5771 72.5522 88.5771C71.2401 88.5771 70.1777 90.295 70.1777 92.4149Z" fill="white"/>
    <path d="M55.4899 98.0671L54.6043 97.7171C54.6043 97.7171 52.1748 98.2033 51.3525 98.1952C50.6259 98.1887 48.485 97.7171 48.485 97.7171L47.5054 98.1044L47.6562 96.97C47.6562 96.97 47.2734 94.0965 47.2734 93.1322C47.3059 91.6655 47.434 90.2037 47.6562 88.7532L47.5605 87.5264L48.579 87.9721C48.579 87.9721 50.7459 87.528 51.4806 87.5264C52.2461 87.5248 54.5086 87.9721 54.5086 87.9721L55.5596 87.5264L55.3682 88.5766C55.3682 88.5766 55.8142 91.7482 55.8142 92.8146C55.8191 94.1111 55.6683 95.4044 55.3682 96.6669L55.4899 98.0671Z" fill="#FF7400"/>
    <path d="M54.4486 91.1616C54.4097 91.7613 53.8922 92.2152 53.2936 92.1779C52.6935 92.139 52.2392 91.6219 52.2766 91.0238C52.3139 90.4516 52.7875 90.0059 53.3618 90.0059C53.9814 90.0253 54.4665 90.5424 54.4486 91.1616Z" fill="#FFA460"/>
    <path d="M48.0821 91.2324H55.0043C55.0464 91.2324 55.0805 91.2665 55.0805 91.3086V94.9275C55.0805 94.9697 55.0464 95.0037 55.0043 95.0037H48.0821C48.0399 95.0037 48.0059 94.9697 48.0059 94.9275V91.3086C48.0059 91.2665 48.0399 91.2324 48.0821 91.2324Z" fill="#C90000"/>
    <path d="M50.1084 92.6366C50.1084 94.7564 51.1707 96.4743 52.4828 96.4743C53.7949 96.4743 54.8573 94.7564 54.8573 92.6366C54.8573 90.5167 53.7933 88.7988 52.4828 88.7988C51.1724 88.7988 50.1084 90.5183 50.1084 92.6366Z" fill="#FFC09F"/>
    <path d="M53.2664 95.5588C53.3232 96.5849 52.5348 97.4634 51.508 97.5185C50.4812 97.5753 49.602 96.7875 49.5468 95.7614C49.4901 94.7354 50.2784 93.8568 51.3053 93.8017C51.3393 93.8001 51.3734 93.7985 51.4074 93.7985C52.4067 93.7725 53.2389 94.5587 53.2664 95.5588Z" fill="#FFA460"/>
    <path d="M54.3873 96.1599C54.3484 96.7597 53.8309 97.2136 53.2307 97.1746C52.6305 97.1357 52.1763 96.6187 52.2152 96.0189C52.2525 95.4467 52.7278 95.001 53.3004 95.001C53.9217 95.0237 54.4068 95.5424 54.3873 96.1599Z" fill="#FFA460"/>
    <path d="M65.7409 97.8435L64.8553 97.4934C64.8553 97.4934 62.4257 97.9796 61.6034 97.9715C60.8768 97.9651 58.736 97.4934 58.736 97.4934L57.7563 97.8808L57.9072 96.7463C57.9072 96.7463 57.5244 93.8729 57.5244 92.9086C57.5569 91.4419 57.685 89.9801 57.9072 88.5296L57.8115 87.3027L58.83 87.7484C58.83 87.7484 60.9969 87.3044 61.7316 87.3027C62.4971 87.3011 64.7596 87.7484 64.7596 87.7484L65.8106 87.3027L65.6192 88.3529C65.6192 88.3529 66.0652 91.5246 66.0652 92.591C66.0701 93.8875 65.9193 95.1808 65.6192 96.4433L65.7409 97.8435Z" fill="#1F8800"/>
    <path d="M63.6142 92.096C64.2144 92.096 64.701 91.5778 64.701 90.9386C64.701 90.2994 64.2144 89.7812 63.6142 89.7812C63.0139 89.7812 62.5273 90.2994 62.5273 90.9386C62.5273 91.5778 63.0139 92.096 63.6142 92.096Z" fill="#FFA460"/>
    <path d="M58.334 91.0078H65.2562C65.2984 91.0078 65.3325 91.0418 65.3325 91.084V94.7029C65.3325 94.7451 65.2984 94.7791 65.2562 94.7791H58.334C58.2919 94.7791 58.2578 94.7451 58.2578 94.7029V91.084C58.2578 91.0418 58.2919 91.0078 58.334 91.0078Z" fill="#C90000"/>
    <path d="M62.7358 96.2526C64.0471 96.2526 65.1102 94.5344 65.1102 92.4149C65.1102 90.2954 64.0471 88.5771 62.7358 88.5771C61.4244 88.5771 60.3613 90.2954 60.3613 92.4149C60.3613 94.5344 61.4244 96.2526 62.7358 96.2526Z" fill="#FFC09F"/>
    <path d="M63.5174 95.3352C63.5742 96.3612 62.7858 97.2398 61.759 97.2949C60.7322 97.3516 59.853 96.5639 59.7978 95.5378C59.741 94.5117 60.5294 93.6332 61.5562 93.5781C61.5903 93.5765 61.6243 93.5748 61.6584 93.5748C62.656 93.5489 63.4882 94.3367 63.5174 95.3352Z" fill="#FFA460"/>
    <path d="M63.5527 97.095C64.1529 97.095 64.6395 96.5768 64.6395 95.9376C64.6395 95.2984 64.1529 94.7803 63.5527 94.7803C62.9524 94.7803 62.4658 95.2984 62.4658 95.9376C62.4658 96.5768 62.9524 97.095 63.5527 97.095Z" fill="#FFA460"/>
    <path d="M50.7288 70.4001L49.4135 69.8799C49.4135 69.8799 45.8096 70.6011 44.5916 70.5898C43.5131 70.58 40.339 69.8799 40.339 69.8799L38.8858 70.4536L39.1097 68.7698C39.1097 68.7698 38.542 64.5074 38.542 63.078C38.542 60.2013 39.1097 56.584 39.1097 56.584L38.9685 54.7656L40.4801 55.4269C40.4801 55.4269 43.6947 54.7689 44.783 54.7656C45.9183 54.7624 49.2756 55.4269 49.2756 55.4269L50.8342 54.7656L50.5504 56.3231C50.5504 56.3231 51.2121 61.0279 51.2121 62.608C51.2186 64.5317 50.9964 66.4506 50.5504 68.3225L50.7288 70.4001Z" fill="#C90000"/>
    <path d="M39.7444 60.2617H50.0093C50.0725 60.2617 50.1228 60.312 50.1228 60.3752V65.7428C50.1228 65.806 50.0725 65.8562 50.0093 65.8562H39.7444C39.6811 65.8562 39.6309 65.806 39.6309 65.7428V60.3752C39.6309 60.312 39.6811 60.2617 39.7444 60.2617Z" fill="#633030"/>
    <path opacity="0.33" d="M42.751 62.347C42.751 65.4895 44.3274 68.0388 46.2721 68.0388C48.2167 68.0388 49.7932 65.4911 49.7932 62.347C49.7932 59.203 48.2183 56.6553 46.2737 56.6553C44.3291 56.6553 42.751 59.2046 42.751 62.347Z" fill="white"/>
    <path d="M72.9193 70.2617L71.6672 69.7658C71.6672 69.7658 68.2321 70.4546 67.0708 70.4416C66.0442 70.4319 63.0177 69.7658 63.0177 69.7658L61.6326 70.3136L61.8467 68.7091C61.8467 68.7091 61.3066 64.6477 61.3066 63.2848C61.3066 60.5426 61.8467 57.0954 61.8467 57.0954L61.7121 55.3613L63.1523 55.9918C63.1523 55.9918 66.2161 55.3646 67.2524 55.3613C68.3342 55.3581 71.5342 55.9918 71.5342 55.9918L73.0182 55.3613L72.7474 56.8459C72.7474 56.8459 73.3783 61.3302 73.3783 62.8358C73.3848 64.6688 73.1723 66.4969 72.7474 68.2813L72.9193 70.2617Z" fill="#FF7400"/>
    <path d="M71.449 60.5008C71.3955 61.3485 70.6639 61.992 69.8155 61.9369C68.9671 61.8834 68.3231 61.1524 68.3783 60.3046C68.4302 59.4958 69.1018 58.8652 69.9145 58.8652C70.7888 58.8944 71.4766 59.6271 71.449 60.5008Z" fill="#FFA460"/>
    <path d="M62.4495 60.5996H72.2327C72.2927 60.5996 72.3413 60.6482 72.3413 60.7082V65.8246C72.3413 65.8846 72.2927 65.9332 72.2327 65.9332H62.4495C62.3895 65.9332 62.3408 65.8846 62.3408 65.8246V60.7082C62.3408 60.6482 62.3895 60.5996 62.4495 60.5996Z" fill="#C90000"/>
    <path d="M65.3145 62.5865C65.3145 65.5831 66.8163 68.0108 68.6701 68.0108C70.5239 68.0108 72.0258 65.5831 72.0258 62.5865C72.0258 59.5899 70.5239 57.1621 68.6701 57.1621C66.8163 57.1621 65.3145 59.5915 65.3145 62.5865Z" fill="#9EB0DE"/>
    <path d="M69.7756 66.716C69.7756 68.089 68.5979 69.2025 67.1461 69.2025C65.6943 69.2025 64.5166 68.089 64.5166 66.716C64.5166 65.3431 65.6943 64.2295 67.1461 64.2295C68.5979 64.2295 69.7756 65.3431 69.7756 66.716Z" fill="#FFA460"/>
    <path d="M71.3631 67.5672C71.3096 68.4149 70.578 69.0584 69.7296 69.0033C68.8812 68.9498 68.2372 68.2188 68.2924 67.371C68.3443 66.5622 69.0158 65.9316 69.8285 65.9316C70.7029 65.9608 71.3907 66.6935 71.3631 67.5672Z" fill="#FFA460"/>
    <path d="M63.4196 70.2974L62.0961 69.774C62.0961 69.774 58.4647 70.5016 57.2386 70.4887C56.1519 70.4773 52.9536 69.774 52.9536 69.774L51.489 70.3525L51.7145 68.6557C51.7145 68.6557 51.1436 64.3626 51.1436 62.9218C51.1436 60.0225 51.7145 56.3808 51.7145 56.3808L51.5734 54.5479L53.0963 55.214C53.0963 55.214 56.3336 54.5511 57.43 54.5479C58.5734 54.5446 61.9566 55.214 61.9566 55.214L63.5266 54.5479L63.2411 56.1167C63.2411 56.1167 63.9077 60.8555 63.9077 62.447C63.9142 64.3853 63.6904 66.3171 63.2411 68.2035L63.4196 70.2974Z" fill="#005B00"/>
    <path d="M60.2439 61.7088C61.1407 61.7088 61.8677 60.9352 61.8677 59.9809C61.8677 59.0265 61.1407 58.2529 60.2439 58.2529C59.3471 58.2529 58.6201 59.0265 58.6201 59.9809C58.6201 60.9352 59.3471 61.7088 60.2439 61.7088Z" fill="#FFA460"/>
    <path d="M55.3818 62.186C55.3818 65.3528 56.9697 67.9199 58.9289 67.9199C60.8881 67.9199 62.4759 65.3528 62.4759 62.186C62.4759 59.0193 60.8881 56.4521 58.9289 56.4521C56.9697 56.4521 55.3818 59.0193 55.3818 62.186Z" fill="#8198D4"/>
    <path d="M60.0982 66.5491C60.0982 68.0014 58.854 69.1783 57.3194 69.1783C55.7849 69.1783 54.5391 67.9998 54.5391 66.5491C54.5391 65.0983 55.7833 63.9199 57.3178 63.9199C58.8524 63.9199 60.0982 65.0967 60.0982 66.5491Z" fill="#FFA460"/>
    <path d="M61.7752 67.4502C61.7752 68.405 61.0485 69.1782 60.1531 69.1782C59.256 69.1782 58.5293 68.4034 58.5293 67.4502C58.5293 66.4971 59.256 65.7207 60.1531 65.7207C61.0485 65.7207 61.7752 66.4955 61.7752 67.4502Z" fill="#FFA460"/>
    <path d="M44.552 70.3259L43.6649 69.9759C43.6649 69.9759 41.2353 70.4621 40.413 70.454C39.6864 70.4475 37.5455 69.9759 37.5455 69.9759L36.5659 70.3632L36.7167 69.2271C36.7167 69.2271 36.334 66.3537 36.334 65.3894C36.3664 63.9227 36.4946 62.4609 36.7167 61.012L36.6211 59.7852L37.6396 60.2308C37.6396 60.2308 39.8064 59.7868 40.5411 59.7852C41.3067 59.7835 43.5692 60.2308 43.5692 60.2308L44.6202 59.7852L44.4288 60.8353C44.4288 60.8353 44.8748 64.007 44.8748 65.0734C44.8797 66.3699 44.7288 67.6632 44.4288 68.9257L44.552 70.3259Z" fill="#FF7400"/>
    <path d="M37.1446 63.4893H44.0668C44.1089 63.4893 44.143 63.5233 44.143 63.5654V67.1844C44.143 67.2265 44.1089 67.2605 44.0668 67.2605H37.1446C37.1024 67.2605 37.0684 67.2265 37.0684 67.1844V63.5654C37.0684 63.5233 37.1024 63.4893 37.1446 63.4893Z" fill="#C90000"/>
    <path d="M39.1709 64.8944C39.1709 67.0142 40.2332 68.7321 41.5453 68.7321C42.8574 68.7321 43.9198 67.0142 43.9198 64.8944C43.9198 62.7745 42.8574 61.0566 41.5453 61.0566C40.2332 61.0566 39.1709 62.7762 39.1709 64.8944Z" fill="#FFC09F"/>
    <path d="M75.5573 70.3578L74.6717 70.0078C74.6717 70.0078 72.2422 70.494 71.4199 70.4859C70.6933 70.4794 68.5524 70.0078 68.5524 70.0078L67.5727 70.3951L67.7236 69.259C67.7236 69.259 67.3408 66.3856 67.3408 65.4213C67.3733 63.9546 67.5014 62.4928 67.7236 61.0423L67.6279 59.8154L68.6464 60.2611C68.6464 60.2611 70.8133 59.8171 71.548 59.8154C72.3135 59.8138 74.5761 60.2611 74.5761 60.2611L75.627 59.8154L75.4356 60.8656C75.4356 60.8656 75.8817 64.0373 75.8817 65.1036C75.8865 66.4002 75.7357 67.6935 75.4356 68.956L75.5573 70.3578Z" fill="#C90000"/>
    <path d="M68.1495 63.5225H75.0717C75.1138 63.5225 75.1479 63.5565 75.1479 63.5986V67.2175C75.1479 67.2597 75.1138 67.2937 75.0717 67.2937H68.1495C68.1073 67.2937 68.0732 67.2597 68.0732 67.2175V63.5986C68.0732 63.5565 68.1073 63.5225 68.1495 63.5225Z" fill="#633030"/>
    <path opacity="0.33" d="M70.1777 64.9276C70.1777 67.0474 71.2401 68.7653 72.5522 68.7653C73.8643 68.7653 74.9266 67.0474 74.9266 64.9276C74.9266 62.8077 73.8643 61.0898 72.5522 61.0898C71.2401 61.0898 70.1777 62.8094 70.1777 64.9276Z" fill="white"/>
    <path d="M55.4899 70.5818L54.6043 70.2317C54.6043 70.2317 52.1748 70.7179 51.3525 70.7098C50.6259 70.7034 48.485 70.2317 48.485 70.2317L47.5054 70.6191L47.6562 69.4846C47.6562 69.4846 47.2734 66.6112 47.2734 65.6469C47.3059 64.1802 47.434 62.7184 47.6562 61.2679L47.5605 60.041L48.579 60.4867C48.579 60.4867 50.7459 60.0426 51.4806 60.041C52.2461 60.0394 54.5086 60.4867 54.5086 60.4867L55.5596 60.041L55.3682 61.0912C55.3682 61.0912 55.8142 64.2628 55.8142 65.3292C55.8191 66.6258 55.6683 67.9191 55.3682 69.1816L55.4899 70.5818Z" fill="#FF7400"/>
    <path d="M54.4486 63.6762C54.4097 64.276 53.8922 64.7298 53.2936 64.6926C52.6935 64.6537 52.2392 64.1366 52.2766 63.5385C52.3139 62.9663 52.7875 62.5205 53.3618 62.5205C53.9814 62.54 54.4665 63.057 54.4486 63.6762Z" fill="#FFA460"/>
    <path d="M48.0821 63.7451H55.0043C55.0464 63.7451 55.0805 63.7792 55.0805 63.8213V67.4402C55.0805 67.4824 55.0464 67.5164 55.0043 67.5164H48.0821C48.0399 67.5164 48.0059 67.4824 48.0059 67.4402V63.8213C48.0059 63.7808 48.0399 63.7451 48.0821 63.7451Z" fill="#C90000"/>
    <path d="M50.1084 65.1512C50.1084 67.271 51.1707 68.9889 52.4828 68.9889C53.7949 68.9889 54.8573 67.271 54.8573 65.1512C54.8573 63.0314 53.7933 61.3135 52.4828 61.3135C51.1724 61.3135 50.1084 63.0314 50.1084 65.1512Z" fill="#FFC09F"/>
    <path d="M53.2661 68.0715C53.3229 69.0976 52.5345 69.9761 51.5077 70.0329C50.4809 70.0896 49.6017 69.3018 49.5449 68.2758C49.4881 67.2497 50.2765 66.3711 51.3033 66.3144C51.3374 66.3128 51.3714 66.3112 51.4055 66.3112C52.4064 66.2852 53.2385 67.073 53.2661 68.0715Z" fill="#FFA460"/>
    <path d="M54.3881 68.6743C54.3491 69.274 53.8317 69.7279 53.2331 69.6906C52.6329 69.6517 52.1787 69.1346 52.216 68.5365C52.2533 67.9643 52.7286 67.5186 53.3012 67.5186C53.9209 67.538 54.4075 68.0567 54.3881 68.6743Z" fill="#FFA460"/>
    <path d="M65.7409 70.3578L64.8553 70.0078C64.8553 70.0078 62.4257 70.494 61.6034 70.4859C60.8768 70.4794 58.736 70.0078 58.736 70.0078L57.7563 70.3951L57.9072 69.259C57.9072 69.259 57.5244 66.3856 57.5244 65.4213C57.5569 63.9546 57.685 62.4928 57.9072 61.0423L57.8115 59.8154L58.83 60.2611C58.83 60.2611 60.9969 59.8171 61.7316 59.8154C62.4971 59.8138 64.7596 60.2611 64.7596 60.2611L65.8106 59.8154L65.6192 60.8656C65.6192 60.8656 66.0652 64.0373 66.0652 65.1036C66.0701 66.4002 65.9193 67.6935 65.6192 68.956L65.7409 70.3578Z" fill="#1F8800"/>
    <path d="M63.6142 64.6096C64.2144 64.6096 64.701 64.0915 64.701 63.4523C64.701 62.8131 64.2144 62.2949 63.6142 62.2949C63.0139 62.2949 62.5273 62.8131 62.5273 63.4523C62.5273 64.0915 63.0139 64.6096 63.6142 64.6096Z" fill="#FFA460"/>
    <path d="M58.334 63.5225H65.2562C65.2984 63.5225 65.3325 63.5565 65.3325 63.5986V67.2175C65.3325 67.2597 65.2984 67.2937 65.2562 67.2937H58.334C58.2919 67.2937 58.2578 67.2597 58.2578 67.2175V63.5986C58.2578 63.5565 58.2919 63.5225 58.334 63.5225Z" fill="#C90000"/>
    <path d="M62.7358 68.7663C64.0471 68.7663 65.1102 67.0481 65.1102 64.9285C65.1102 62.809 64.0471 61.0908 62.7358 61.0908C61.4244 61.0908 60.3613 62.809 60.3613 64.9285C60.3613 67.0481 61.4244 68.7663 62.7358 68.7663Z" fill="#FFC09F"/>
    <path d="M63.5174 67.8489C63.5742 68.8749 62.7858 69.7535 61.759 69.8086C60.7322 69.8653 59.853 69.0775 59.7978 68.0515C59.741 67.0254 60.5294 66.1469 61.5562 66.0918C61.5903 66.0901 61.6243 66.0885 61.6568 66.0885C62.656 66.0626 63.4882 66.8487 63.5174 67.8489Z" fill="#FFA460"/>
    <path d="M63.5527 69.6096C64.1529 69.6096 64.6395 69.0915 64.6395 68.4523C64.6395 67.8131 64.1529 67.2949 63.5527 67.2949C62.9524 67.2949 62.4658 67.8131 62.4658 68.4523C62.4658 69.0915 62.9524 69.6096 63.5527 69.6096Z" fill="#FFA460"/>
    <path d="M50.7288 152.556L49.4135 152.036C49.4135 152.036 45.8096 152.757 44.5916 152.745C43.5131 152.736 40.339 152.036 40.339 152.036L38.8858 152.611L39.1097 150.927C39.1097 150.927 38.542 146.665 38.542 145.235C38.542 142.359 39.1097 138.741 39.1097 138.741L38.9685 136.923L40.4801 137.584C40.4801 137.584 43.6947 136.926 44.783 136.923C45.9183 136.92 49.2756 137.584 49.2756 137.584L50.8342 136.923L50.5504 138.48C50.5504 138.48 51.2121 143.185 51.2121 144.765C51.2186 146.689 50.9964 148.608 50.5504 150.48L50.7288 152.556Z" fill="#C90000"/>
    <path d="M39.7444 142.418H50.0093C50.0725 142.418 50.1228 142.468 50.1228 142.531V147.899C50.1228 147.962 50.0725 148.013 50.0093 148.013H39.7444C39.6811 148.013 39.6309 147.962 39.6309 147.899V142.531C39.6309 142.468 39.6811 142.418 39.7444 142.418Z" fill="#633030"/>
    <path opacity="0.33" d="M42.751 144.503C42.751 147.646 44.3274 150.195 46.2721 150.195C48.2167 150.195 49.7932 147.647 49.7932 144.503C49.7932 141.359 48.2183 138.812 46.2737 138.812C44.3291 138.812 42.751 141.361 42.751 144.503Z" fill="white"/>
    <path d="M72.9193 152.417L71.6672 151.921C71.6672 151.921 68.2321 152.61 67.0708 152.597C66.0442 152.587 63.0177 151.921 63.0177 151.921L61.6326 152.469L61.8467 150.864C61.8467 150.864 61.3066 146.803 61.3066 145.44C61.3066 142.698 61.8467 139.251 61.8467 139.251L61.7121 137.517L63.1523 138.147C63.1523 138.147 66.2161 137.52 67.2524 137.517C68.3342 137.513 71.5342 138.147 71.5342 138.147L73.0182 137.517L72.7474 139.001C72.7474 139.001 73.3783 143.486 73.3783 144.991C73.3848 146.824 73.1723 148.652 72.7474 150.437L72.9193 152.417Z" fill="#FF7400"/>
    <path d="M71.449 142.658C71.3955 143.506 70.6639 144.149 69.8155 144.094C68.9671 144.041 68.3231 143.31 68.3783 142.462C68.4302 141.653 69.1018 141.022 69.9145 141.022C70.7888 141.05 71.475 141.783 71.449 142.658Z" fill="#FFA460"/>
    <path d="M62.4495 142.756H72.2327C72.2927 142.756 72.3413 142.804 72.3413 142.864V147.981C72.3413 148.041 72.2927 148.089 72.2327 148.089H62.4495C62.3895 148.089 62.3408 148.041 62.3408 147.981V142.864C62.3408 142.804 62.3895 142.756 62.4495 142.756Z" fill="#C90000"/>
    <path d="M65.3145 144.742C65.3145 147.738 66.8163 150.166 68.6701 150.166C70.5239 150.166 72.0258 147.738 72.0258 144.742C72.0258 141.745 70.5239 139.317 68.6701 139.317C66.8163 139.317 65.3145 141.747 65.3145 144.742Z" fill="#9EB0DE"/>
    <path d="M69.7756 148.871C69.7756 150.244 68.5979 151.359 67.1461 151.359C65.6943 151.359 64.5166 150.246 64.5166 148.871C64.5166 147.497 65.6943 146.385 67.1461 146.385C68.5979 146.385 69.7756 147.497 69.7756 148.871Z" fill="#FFA460"/>
    <path d="M71.3631 149.722C71.3096 150.57 70.578 151.214 69.7296 151.159C68.8812 151.105 68.2372 150.374 68.2924 149.526C68.3443 148.717 69.0158 148.087 69.8285 148.087C70.7029 148.116 71.3891 148.847 71.3631 149.722Z" fill="#FFA460"/>
    <path d="M63.4196 152.453L62.0961 151.929C62.0961 151.929 58.4647 152.657 57.2386 152.644C56.1519 152.634 52.9536 151.929 52.9536 151.929L51.489 152.508L51.7145 150.811C51.7145 150.811 51.1436 146.518 51.1436 145.077C51.1436 142.178 51.7145 138.536 51.7145 138.536L51.5717 136.703L53.0947 137.369C53.0947 137.369 56.3319 136.706 57.4283 136.703C58.5718 136.7 61.955 137.369 61.955 137.369L63.525 136.703L63.2395 138.272C63.2395 138.272 63.9061 143.011 63.9061 144.602C63.9126 146.541 63.6888 148.472 63.2395 150.359L63.4196 152.453Z" fill="#005B00"/>
    <path d="M60.2439 143.864C61.1407 143.864 61.8677 143.09 61.8677 142.136C61.8677 141.182 61.1407 140.408 60.2439 140.408C59.3471 140.408 58.6201 141.182 58.6201 142.136C58.6201 143.09 59.3471 143.864 60.2439 143.864Z" fill="#FFA460"/>
    <path d="M55.3818 144.341C55.3818 147.508 56.9697 150.075 58.9289 150.075C60.8881 150.075 62.4759 147.508 62.4759 144.341C62.4759 141.175 60.8881 138.607 58.9289 138.607C56.9697 138.607 55.3818 141.175 55.3818 144.341Z" fill="#8198D4"/>
    <path d="M60.0975 148.704C60.0975 150.157 58.8534 151.334 57.3188 151.334C55.7842 151.334 54.54 150.155 54.54 148.704C54.54 147.254 55.7842 146.075 57.3188 146.075C58.8534 146.075 60.0975 147.252 60.0975 148.704Z" fill="#FFA460"/>
    <path d="M61.7752 149.606C61.7752 150.56 61.0485 151.333 60.1531 151.333C59.256 151.333 58.5293 150.559 58.5293 149.606C58.5293 148.652 59.256 147.876 60.1531 147.876C61.0485 147.876 61.7752 148.651 61.7752 149.606Z" fill="#FFA460"/>
    <path d="M44.552 152.481L43.6649 152.131C43.6649 152.131 41.2353 152.617 40.413 152.609C39.6864 152.603 37.5455 152.131 37.5455 152.131L36.5659 152.518L36.7167 151.382C36.7167 151.382 36.334 148.509 36.334 147.545C36.3664 146.078 36.4946 144.616 36.7167 143.167L36.6211 141.94L37.6396 142.386C37.6396 142.386 39.8064 141.944 40.5411 141.94C41.3067 141.939 43.5692 142.386 43.5692 142.386L44.6202 141.94L44.4288 142.991C44.4288 142.991 44.8748 146.162 44.8748 147.229C44.8797 148.525 44.7288 149.818 44.4288 151.081L44.552 152.481Z" fill="#FF7400"/>
    <path d="M37.1446 145.645H44.0668C44.1089 145.645 44.143 145.679 44.143 145.721V149.34C44.143 149.382 44.1089 149.416 44.0668 149.416H37.1446C37.1024 149.416 37.0684 149.382 37.0684 149.34V145.721C37.0684 145.679 37.1024 145.645 37.1446 145.645Z" fill="#C90000"/>
    <path d="M39.1709 147.051C39.1709 149.17 40.2332 150.888 41.5453 150.888C42.8574 150.888 43.9198 149.17 43.9198 147.051C43.9198 144.931 42.8574 143.213 41.5453 143.213C40.2332 143.213 39.1709 144.931 39.1709 147.051Z" fill="#9EB0DE"/>
    <path d="M75.5573 152.513L74.6717 152.163C74.6717 152.163 72.2422 152.65 71.4199 152.641C70.6933 152.635 68.5524 152.163 68.5524 152.163L67.5727 152.551L67.7236 151.416C67.7236 151.416 67.3408 148.543 67.3408 147.579C67.3733 146.112 67.5014 144.65 67.7236 143.2L67.6279 141.973L68.6464 142.418C68.6464 142.418 70.8133 141.974 71.548 141.973C72.3135 141.971 74.5761 142.418 74.5761 142.418L75.627 141.973L75.4356 143.023C75.4356 143.023 75.8817 146.194 75.8817 147.261C75.8865 148.557 75.7357 149.851 75.4356 151.113L75.5573 152.513Z" fill="#C90000"/>
    <path d="M68.1495 145.678H75.0717C75.1138 145.678 75.1479 145.712 75.1479 145.754V149.373C75.1479 149.415 75.1138 149.449 75.0717 149.449H68.1495C68.1073 149.449 68.0732 149.415 68.0732 149.373V145.754C68.0732 145.712 68.1073 145.678 68.1495 145.678Z" fill="#633030"/>
    <path opacity="0.33" d="M70.1777 147.083C70.1777 149.203 71.2401 150.921 72.5522 150.921C73.8643 150.921 74.9266 149.203 74.9266 147.083C74.9266 144.963 73.8643 143.245 72.5522 143.245C71.2401 143.245 70.1777 144.965 70.1777 147.083Z" fill="white"/>
    <path d="M55.4899 152.737L54.6043 152.387C54.6043 152.387 52.1748 152.873 51.3525 152.865C50.6259 152.859 48.485 152.387 48.485 152.387L47.5054 152.774L47.6562 151.64C47.6562 151.64 47.2734 148.766 47.2734 147.802C47.3059 146.335 47.434 144.874 47.6562 143.423L47.5605 142.196L48.579 142.642C48.579 142.642 50.7459 142.198 51.4806 142.196C52.2461 142.195 54.5086 142.642 54.5086 142.642L55.5596 142.196L55.3682 143.246C55.3682 143.246 55.8142 146.418 55.8142 147.485C55.8191 148.781 55.6683 150.074 55.3682 151.337L55.4899 152.737Z" fill="#FF7400"/>
    <path d="M54.4486 145.832C54.4097 146.431 53.8922 146.885 53.2936 146.848C52.6935 146.809 52.2392 146.292 52.2766 145.694C52.3139 145.122 52.7875 144.676 53.3618 144.676C53.9814 144.695 54.4665 145.212 54.4486 145.832Z" fill="#FFA460"/>
    <path d="M48.0821 145.9H55.0043C55.0464 145.9 55.0805 145.934 55.0805 145.977V149.596C55.0805 149.638 55.0464 149.672 55.0043 149.672H48.0821C48.0399 149.672 48.0059 149.638 48.0059 149.596V145.977C48.0059 145.936 48.0399 145.9 48.0821 145.9Z" fill="#C90000"/>
    <path d="M50.1084 147.306C50.1084 149.426 51.1707 151.144 52.4828 151.144C53.7949 151.144 54.8573 149.426 54.8573 147.306C54.8573 145.187 53.7933 143.469 52.4828 143.469C51.1724 143.469 50.1084 145.188 50.1084 147.306Z" fill="#9EB0DE"/>
    <path d="M53.2661 150.227C53.3229 151.253 52.5345 152.131 51.5077 152.188C50.4809 152.245 49.6017 151.457 49.5449 150.431C49.4881 149.405 50.2765 148.526 51.3033 148.47C51.3374 148.468 51.3714 148.466 51.4055 148.466C52.4064 148.441 53.2385 149.228 53.2661 150.227Z" fill="#FFA460"/>
    <path d="M54.3881 150.83C54.3491 151.429 53.8317 151.883 53.2331 151.846C52.6329 151.807 52.1787 151.29 52.216 150.692C52.2533 150.12 52.7286 149.674 53.3012 149.674C53.9209 149.693 54.4075 150.21 54.3881 150.83Z" fill="#FFA460"/>
    <path d="M65.7409 152.513L64.8553 152.163C64.8553 152.163 62.4257 152.65 61.6034 152.641C60.8768 152.635 58.736 152.163 58.736 152.163L57.7563 152.551L57.9072 151.416C57.9072 151.416 57.5244 148.543 57.5244 147.579C57.5569 146.112 57.685 144.65 57.9072 143.2L57.8115 141.973L58.83 142.418C58.83 142.418 60.9969 141.974 61.7316 141.973C62.4971 141.971 64.7596 142.418 64.7596 142.418L65.8106 141.973L65.6192 143.023C65.6192 143.023 66.0652 146.194 66.0652 147.261C66.0701 148.557 65.9193 149.851 65.6192 151.113L65.7409 152.513Z" fill="#1F8800"/>
    <path d="M63.6142 146.766C64.2144 146.766 64.701 146.248 64.701 145.609C64.701 144.969 64.2144 144.451 63.6142 144.451C63.0139 144.451 62.5273 144.969 62.5273 145.609C62.5273 146.248 63.0139 146.766 63.6142 146.766Z" fill="#FFA460"/>
    <path d="M58.334 145.678H65.2562C65.2984 145.678 65.3325 145.712 65.3325 145.754V149.373C65.3325 149.415 65.2984 149.449 65.2562 149.449H58.334C58.2919 149.449 58.2578 149.415 58.2578 149.373V145.754C58.2578 145.712 58.2919 145.678 58.334 145.678Z" fill="#C90000"/>
    <path d="M62.7358 150.923C64.0471 150.923 65.1102 149.204 65.1102 147.085C65.1102 144.965 64.0471 143.247 62.7358 143.247C61.4244 143.247 60.3613 144.965 60.3613 147.085C60.3613 149.204 61.4244 150.923 62.7358 150.923Z" fill="#9EB0DE"/>
    <path d="M63.5174 150.005C63.5742 151.031 62.7858 151.91 61.759 151.965C60.7322 152.022 59.853 151.234 59.7978 150.208C59.741 149.182 60.5294 148.303 61.5562 148.248C61.5903 148.246 61.6243 148.245 61.6584 148.245C62.656 148.219 63.4882 149.005 63.5174 150.005Z" fill="#FFA460"/>
    <path d="M63.5527 151.765C64.1529 151.765 64.6395 151.247 64.6395 150.608C64.6395 149.968 64.1529 149.45 63.5527 149.45C62.9524 149.45 62.4658 149.968 62.4658 150.608C62.4658 151.247 62.9524 151.765 63.5527 151.765Z" fill="#FFA460"/>
    <path d="M76.3034 70.1338H35.8311V71.4968H76.3034V70.1338Z" fill="#792900"/>
    <path d="M76.3034 97.4131H35.8311V98.7761H76.3034V97.4131Z" fill="#792900"/>
    <path d="M76.3034 124.691H35.8311V126.054H76.3034V124.691Z" fill="#792900"/>
    <path d="M76.3034 151.971H35.8311V157.876H76.3034V151.971Z" fill="#792900"/>
    <path d="M65.6115 125.215H61.0078V127.624H65.6115V125.215Z" fill="#FF9200"/>
    <path d="M69.5929 97.8047H64.9893V100.213H69.5929V97.8047Z" fill="white"/>
    <path d="M50.4191 97.8047H45.8154V100.213H50.4191V97.8047Z" fill="#FF9200"/>
    <path d="M45.2238 152.504H40.6201V154.914H45.2238V152.504Z" fill="#FF9200"/>
    <path d="M35.8311 64.0254H31.6807V159.884H35.8311V64.0254Z" fill="#A44A26"/>
    <path d="M32.7333 64.0459H31.6807V159.884H32.7333V64.0459Z" fill="#D3C2A9"/>
    <path d="M80.4531 64.4307H76.3027V160.289H80.4531V64.4307Z" fill="#A44A26"/>
    <path d="M77.3553 64.4307H76.3027V160.268H77.3553V64.4307Z" fill="#D3C2A9"/>
    <path d="M200.847 64.475C201.32 63.4604 202.316 62.7927 203.435 62.7409C204.554 62.7182 205.594 63.3178 206.134 64.2983C206.439 64.872 206.561 65.5559 207.002 66.0357C207.59 66.6353 208.528 66.7228 209.217 66.2431C209.379 66.9708 208.98 67.7066 208.281 67.9707L209.363 68.0826C208.779 69.3564 207.18 69.9398 205.797 69.6902C204.413 69.4407 203.239 68.5282 202.298 67.4894" fill="#263238"/>
    <path d="M200.855 64.4929L204.194 65.5852C205.382 66.3566 206.285 67.496 206.767 68.8281C206.922 69.2787 207.029 69.7471 207.227 70.1814C207.406 70.6287 207.74 70.9966 208.168 71.2186C208.489 71.3612 208.854 71.3791 209.182 71.5006C209.743 71.7226 210.161 72.204 210.302 72.7923C210.434 73.3773 210.323 73.9916 209.999 74.4956C209.84 74.7468 209.629 74.9899 209.616 75.2865C209.629 75.4874 209.67 75.6852 209.738 75.8732C209.889 76.5587 209.59 77.2637 208.993 77.6348C208.382 77.9816 207.618 77.9071 207.085 77.4484C206.87 77.9379 206.587 78.4435 206.103 78.6736C205.62 78.9038 204.906 78.698 204.806 78.1729C204.546 78.6866 203.982 78.9702 203.414 78.8762C202.851 78.7579 202.431 78.2863 202.378 77.7126L193.226 67.7374C194.591 64.0861 199.932 64.4086 200.855 64.4929Z" fill="#263238"/>
    <path d="M202.404 67.9622C202.993 68.0237 203.436 68.5245 203.424 69.1161L202.777 84.4751C202.753 86.2886 199.451 88.4343 197.503 88.3922C195.536 88.3517 196.113 86.2691 196.085 84.5448C196.038 81.6616 196.038 80.579 196.038 80.5968C196.038 80.5968 193.552 80.1852 193.036 76.952C192.78 75.3443 192.861 72.7074 192.997 70.552C193.119 68.612 194.41 66.2329 196.348 66.4371L202.404 67.9622Z" fill="#FFBE9D"/>
    <path d="M193.84 72.6453C193.838 72.8706 194.017 73.0554 194.241 73.0635C194.46 73.0813 194.651 72.9176 194.669 72.6988C194.669 72.6956 194.669 72.6923 194.669 72.6891C194.67 72.4654 194.494 72.2806 194.27 72.2709C194.051 72.253 193.858 72.4151 193.84 72.634C193.841 72.6388 193.84 72.6421 193.84 72.6453Z" fill="#263238"/>
    <path d="M193.571 71.9227C193.623 71.9778 193.937 71.7444 194.385 71.746C194.833 71.7412 195.16 71.9697 195.209 71.9162C195.233 71.8919 195.18 71.7947 195.037 71.6909C194.844 71.5564 194.612 71.4867 194.377 71.4883C194.143 71.4867 193.916 71.5596 193.728 71.6974C193.593 71.8011 193.546 71.9 193.571 71.9227Z" fill="#263238"/>
    <path d="M198.22 72.6453C198.218 72.8706 198.397 73.0554 198.62 73.0635C198.839 73.0813 199.031 72.9176 199.049 72.6988C199.049 72.6955 199.049 72.6923 199.049 72.6891C199.05 72.4638 198.873 72.279 198.648 72.2709C198.429 72.253 198.238 72.4167 198.22 72.6356C198.22 72.6388 198.22 72.6421 198.22 72.6453Z" fill="#263238"/>
    <path d="M197.974 72.0067C198.026 72.0602 198.34 71.8284 198.788 71.83C199.236 71.8252 199.563 72.0537 199.612 72.0002C199.636 71.9759 199.584 71.8786 199.44 71.7749C199.247 71.6404 199.015 71.5707 198.78 71.5723C198.548 71.5723 198.321 71.6452 198.131 71.7814C197.995 71.8851 197.948 71.9824 197.974 72.0067Z" fill="#263238"/>
    <path d="M196.35 75.3167C196.114 75.2421 195.869 75.1984 195.623 75.1854C195.509 75.1741 195.401 75.1514 195.381 75.0736C195.371 74.9552 195.399 74.8385 195.457 74.7364L195.795 73.8692C196.265 72.6341 196.604 71.6177 196.554 71.5999C196.504 71.5804 196.082 72.5676 195.613 73.8027C195.5 74.1075 195.393 74.3976 195.289 74.6764C195.217 74.8142 195.196 74.9731 195.229 75.1238C195.263 75.2049 195.331 75.2665 195.417 75.2908C195.48 75.3086 195.545 75.3167 195.612 75.3183C195.856 75.3459 196.105 75.3475 196.35 75.3167Z" fill="#263238"/>
    <path d="M196.039 80.5962C197.567 80.6189 199.071 80.2201 200.385 79.4404C200.385 79.4404 199.33 81.6611 196.083 81.3596L196.039 80.5962Z" fill="#EB996E"/>
    <path d="M196.538 76.3906C196.712 76.1734 196.984 76.06 197.262 76.0924C197.461 76.1102 197.644 76.2091 197.771 76.3647C197.894 76.5171 197.907 76.7294 197.807 76.8964C197.659 77.0601 197.427 77.1184 197.219 77.0439C197.009 76.9693 196.814 76.8542 196.647 76.7035C196.597 76.6678 196.553 76.6224 196.519 76.5722C196.485 76.5219 196.485 76.4571 196.519 76.4068" fill="#EB996E"/>
    <path d="M197.665 75.6241C197.592 75.6192 197.592 76.1039 197.175 76.4475C196.758 76.7912 196.242 76.7377 196.238 76.8058C196.231 76.8366 196.353 76.8998 196.572 76.9063C196.856 76.9095 197.133 76.8139 197.354 76.634C197.564 76.4621 197.701 76.2141 197.733 75.9434C197.753 75.7408 197.699 75.6208 197.665 75.6241Z" fill="#263238"/>
    <path d="M197.773 71.2261C197.817 71.3476 198.264 71.2893 198.79 71.3525C199.317 71.4044 199.741 71.5584 199.81 71.4497C199.841 71.3979 199.768 71.2828 199.596 71.1661C199.369 71.0202 199.11 70.9294 198.84 70.9019C198.571 70.8694 198.299 70.9019 198.045 70.9959C197.851 71.0737 197.753 71.1677 197.773 71.2261Z" fill="#263238"/>
    <path d="M193.738 70.6326C193.816 70.7331 194.126 70.6294 194.497 70.6245C194.868 70.6067 195.183 70.6926 195.255 70.5872C195.287 70.5354 195.237 70.4349 195.099 70.3376C194.916 70.2193 194.7 70.1609 194.482 70.1723C194.265 70.1755 194.053 70.2469 193.877 70.3765C193.746 70.4786 193.704 70.584 193.738 70.6326Z" fill="#263238"/>
    <path d="M203.066 73.1323C203.333 72.9864 203.661 73.0026 203.914 73.1744C204.519 73.544 204.797 74.2767 204.586 74.9542C204.339 75.6204 203.672 76.0338 202.967 75.9592" fill="#FFBE9D"/>
    <path d="M197.966 65.3603C196.784 65.3992 195.887 65.7574 194.849 66.323C193.786 66.8708 192.985 67.8189 192.624 68.9582C192.531 69.1948 192.541 69.4574 192.65 69.6859C192.862 69.9533 193.235 70.0343 193.54 69.8771C193.83 69.7167 194.078 69.4882 194.263 69.2126C194.437 69.8204 194.99 70.2434 195.622 70.2499C196.255 70.2288 196.798 69.7945 196.957 69.1835C197.011 69.8285 197.561 70.3163 198.208 70.2953C198.843 70.2402 199.385 69.8139 199.588 69.2094C199.666 69.7702 199.86 70.3066 200.159 70.7879C200.49 71.245 201.09 71.5594 201.628 71.3843C201.552 71.8657 201.477 72.3729 201.649 72.83C201.821 73.287 202.331 73.6565 202.793 73.4977C203.242 73.3437 203.417 72.8121 203.521 72.3519C203.751 71.467 203.868 70.5562 203.868 69.6421C203.866 68.7216 203.574 67.8254 203.034 67.0799C202.421 66.3473 201.588 65.8352 200.657 65.618C199.731 65.4057 198.782 65.3198 197.833 65.362" fill="#263238"/>
    <path d="M203.292 74.9947C203.302 74.972 203.419 75.0223 203.575 74.9509C203.769 74.8391 203.88 74.6219 203.854 74.3982C203.851 74.1729 203.716 73.9687 203.508 73.8795C203.346 73.8131 203.226 73.8455 203.219 73.8212C203.208 73.8049 203.33 73.719 203.544 73.7677C203.669 73.7985 203.779 73.8665 203.86 73.9654C203.959 74.0854 204.016 74.2361 204.021 74.3917C204.055 74.6819 203.888 74.959 203.615 75.0644C203.395 75.1195 203.275 75.0077 203.292 74.9947Z" fill="#EB996E"/>
    <path d="M203.39 76.3526C203.624 76.3526 203.814 76.164 203.814 75.9312C203.814 75.6984 203.624 75.5098 203.39 75.5098C203.156 75.5098 202.967 75.6984 202.967 75.9312C202.967 76.164 203.156 76.3526 203.39 76.3526Z" fill="#E8505B"/>
    <path d="M200.896 64.3279C201.065 64.2711 201.245 64.2501 201.424 64.2679C201.857 64.2873 202.279 64.4105 202.653 64.6277C203.03 64.8433 203.348 65.1464 203.581 65.5095C203.685 65.6538 203.758 65.8207 203.792 65.9958C203.771 66.0055 203.693 65.8191 203.505 65.5598C203.26 65.2259 202.947 64.9454 202.588 64.7363C202.228 64.5305 201.829 64.4008 201.416 64.3554C201.101 64.3262 200.9 64.3506 200.896 64.3279Z" fill="#E8505B"/>
    <path d="M202.595 64.3294C202.585 64.297 202.582 64.2614 202.583 64.2273C202.585 64.1285 202.606 64.0312 202.645 63.9388C202.806 63.6034 203.117 63.3619 203.484 63.2906C203.946 63.1642 204.533 63.4024 204.938 63.8481C205.152 64.0831 205.331 64.3472 205.465 64.6341C205.61 64.9274 205.727 65.2451 205.852 65.5644C205.965 65.8739 206.105 66.1754 206.268 66.4622C206.422 66.7248 206.622 66.9581 206.857 67.1494C207.068 67.3244 207.321 67.4395 207.59 67.4832C207.825 67.5173 208.065 67.4832 208.281 67.3876C208.601 67.245 208.858 66.9938 209.011 66.6778C209.058 66.5578 209.099 66.4347 209.131 66.3115C209.136 66.3455 209.136 66.3796 209.129 66.4136C209.118 66.5108 209.094 66.6065 209.058 66.6972C208.917 67.0359 208.654 67.3114 208.32 67.4686C208.088 67.5789 207.83 67.621 207.577 67.587C207.287 67.5448 207.014 67.4249 206.786 67.2417C206.536 67.0424 206.325 66.8009 206.161 66.5254C205.993 66.2321 205.85 65.9258 205.735 65.6097C205.491 64.9696 205.256 64.3553 204.854 63.9275C204.468 63.4964 203.933 63.2727 203.503 63.3781C203.158 63.438 202.859 63.652 202.692 63.9583C202.639 64.0782 202.606 64.203 202.595 64.3294Z" fill="#455A64"/>
    <path d="M196.482 69.3227C196.477 69.3227 196.471 69.2935 196.461 69.2336C196.447 69.1477 196.437 69.0618 196.432 68.9743C196.411 68.6534 196.43 68.3309 196.492 68.0149C196.581 67.5449 196.75 67.0927 196.988 66.6762C197.282 66.1657 197.683 65.7232 198.164 65.3829C198.646 65.0474 199.188 64.8043 199.759 64.6649C200.222 64.545 200.701 64.4964 201.178 64.5191C201.499 64.5321 201.818 64.5904 202.123 64.6909C202.206 64.7168 202.287 64.7492 202.366 64.7865C202.422 64.8108 202.449 64.8254 202.448 64.8303C202.034 64.7006 201.607 64.626 201.174 64.6082C200.706 64.5969 200.239 64.6536 199.788 64.7768C199.233 64.9194 198.708 65.1592 198.239 65.4866C197.773 65.8189 197.382 66.2435 197.092 66.7361C196.855 67.1381 196.683 67.5757 196.583 68.0327C196.5 68.4589 196.468 68.8916 196.482 69.3227Z" fill="#455A64"/>
    <path d="M198.525 69.1063C198.511 69.0237 198.508 68.9378 198.517 68.8551C198.529 68.6265 198.559 68.398 198.611 68.1743C198.783 67.4303 199.145 66.743 199.664 66.1806C200.186 65.6213 200.845 65.2096 201.575 64.9811C201.794 64.9114 202.02 64.8627 202.247 64.8336C202.329 64.8173 202.414 64.8141 202.498 64.8238C202.501 64.8481 202.143 64.8773 201.603 65.0653C200.9 65.3117 200.266 65.7218 199.757 66.2648C199.254 66.8127 198.89 67.4741 198.697 68.1938C198.551 68.7481 198.55 69.108 198.525 69.1063Z" fill="#455A64"/>
    <path d="M197.967 88.2023C197.258 86.0322 195.526 83.8233 193.624 84.6206C191.505 85.5071 190.917 86.6319 189.755 88.3741C188.594 90.1163 187.882 92.1097 187.182 94.0821C186.907 94.8535 186.643 95.7481 187.063 96.4498C187.426 97.056 188.173 97.2958 188.855 97.4774C190.62 97.9457 192.401 98.3476 194.196 98.6815C194.916 98.816 195.706 98.9278 196.344 98.5664C197.151 98.1078 197.399 97.0819 197.568 96.1695L199.342 86.5671" fill="#E8505B"/>
    <path d="M195.93 83.5804L193.144 84.7813C191.736 85.8898 191.337 87.7876 191.386 89.5752L190.228 109.179C190.228 109.179 198.355 114.198 207.854 108.949C208.102 108.812 206.265 104.328 206.265 104.328L208.852 94.5393C209.051 93.1326 209.173 90.2137 208.805 88.8281C207.862 85.2756 205.34 84.2124 202.75 83.501C202.75 83.501 200.158 85.6727 197.631 85.2156C197.628 85.2156 196.087 85.073 195.93 83.5804Z" fill="#E8505B"/>
    <g opacity="0.2">
        <g opacity="0.2">
            <g opacity="0.2">
                <path opacity="0.2" d="M192.187 99.9002L197.008 106.884C197.638 107.794 198.29 108.728 199.224 109.324C200.625 110.19 202.401 110.17 203.785 109.277C205.14 108.341 205.835 106.71 205.572 105.085C205.552 104.893 205.478 104.714 205.358 104.563C205.134 104.362 204.816 104.302 204.534 104.406C204.258 104.511 203.994 104.642 203.746 104.799C202.231 105.603 200.309 105.171 198.888 104.213C197.467 103.253 196.426 101.848 195.338 100.524C194.936 100.035 194.496 99.5323 193.901 99.3152C193.306 99.098 192.516 99.2747 192.264 99.8565" fill="black"/>
            </g>
        </g>
    </g>
    <path d="M200.308 90.2972C201.228 90.2972 201.974 89.5541 201.974 88.6374C201.974 87.7207 201.228 86.9775 200.308 86.9775C199.387 86.9775 198.642 87.7207 198.642 88.6374C198.642 89.5541 199.387 90.2972 200.308 90.2972Z" fill="white"/>
    <path d="M192.547 87.2204C192.548 88.1379 193.293 88.8819 194.211 88.8803C195.129 88.8819 195.876 88.1379 195.876 87.2204C195.874 86.3029 195.129 85.5605 194.211 85.5605C193.295 85.5605 192.548 86.3029 192.547 87.2204Z" fill="white"/>
    <path d="M191.205 103.111C191.207 104.028 191.951 104.771 192.869 104.771C193.788 104.772 194.534 104.028 194.534 103.111C194.532 102.194 193.788 101.45 192.869 101.451C191.951 101.45 191.207 102.192 191.205 103.111Z" fill="white"/>
    <path d="M195.879 109.547C196.799 109.547 197.545 108.804 197.545 107.887C197.545 106.971 196.799 106.228 195.879 106.228C194.959 106.228 194.213 106.971 194.213 107.887C194.213 108.804 194.959 109.547 195.879 109.547Z" fill="white"/>
    <path d="M203.639 109.951C204.559 109.951 205.305 109.207 205.305 108.291C205.305 107.374 204.559 106.631 203.639 106.631C202.719 106.631 201.973 107.374 201.973 108.291C201.973 109.207 202.719 109.951 203.639 109.951Z" fill="white"/>
    <path d="M197.064 99.7337C197.985 99.7337 198.73 98.9906 198.73 98.0739C198.73 97.1572 197.985 96.4141 197.064 96.4141C196.144 96.4141 195.398 97.1572 195.398 98.0739C195.398 98.9906 196.144 99.7337 197.064 99.7337Z" fill="white"/>
    <path d="M195.399 94.5013C196.319 94.5013 197.065 93.7582 197.065 92.8415C197.065 91.9248 196.319 91.1816 195.399 91.1816C194.479 91.1816 193.733 91.9248 193.733 92.8415C193.733 93.7582 194.479 94.5013 195.399 94.5013Z" fill="white"/>
    <path d="M195.398 83.9822C195.62 84.3809 195.911 84.7374 196.254 85.0372C196.636 85.35 197.075 85.5882 197.545 85.7373C198.121 85.9221 198.729 85.9837 199.331 85.9189C199.933 85.8427 200.517 85.666 201.058 85.3954C201.503 85.175 201.924 84.9108 202.314 84.6029C202.578 84.3971 202.833 84.1767 203.074 83.9449C203.159 83.8541 203.251 83.7715 203.349 83.6953C203.279 83.7974 203.199 83.893 203.11 83.9805C202.88 84.2285 202.632 84.4586 202.371 84.6742C201.983 84.9951 201.56 85.2722 201.11 85.5007C200.557 85.7827 199.96 85.9675 199.346 86.0453C198.726 86.1133 198.1 86.0453 197.51 85.8492C197.026 85.6903 196.58 85.4375 196.196 85.1069C195.938 84.8849 195.719 84.6191 195.551 84.3225C195.503 84.2431 195.463 84.1604 195.429 84.0745C195.405 84.0162 195.395 83.9854 195.398 83.9822Z" fill="#263238"/>
    <path d="M203.786 83.8691C205.691 84.6649 207.673 85.5157 208.986 87.1024C210.323 88.7149 210.788 90.9044 210.691 92.9935C210.594 95.0825 209.985 97.1099 209.38 99.1131C209.144 99.8958 208.827 100.774 208.071 101.092C207.419 101.367 206.677 101.121 206.015 100.863C204.314 100.202 202.64 99.4761 200.994 98.6868C200.332 98.3708 199.63 97.9948 199.331 97.3287C198.95 96.4827 199.36 95.5087 199.766 94.6741C201.188 91.7439 202.611 88.8154 204.031 85.8852" fill="#E8505B"/>
    <path d="M207.851 95.6683C208.771 95.6683 209.516 94.9252 209.516 94.0085C209.516 93.0918 208.771 92.3486 207.851 92.3486C206.93 92.3486 206.185 93.0918 206.185 94.0085C206.185 94.9252 206.93 95.6683 207.851 95.6683Z" fill="white"/>
    <path d="M203.441 98.7025C204.361 98.7025 205.107 97.9594 205.107 97.0427C205.107 96.1259 204.361 95.3828 203.441 95.3828C202.521 95.3828 201.775 96.1259 201.775 97.0427C201.775 97.9594 202.521 98.7025 203.441 98.7025Z" fill="white"/>
    <path d="M203.882 88.895C203.883 89.7946 204.613 90.524 205.514 90.5224C206.414 90.524 207.146 89.7946 207.146 88.895C207.144 87.9954 206.414 87.266 205.514 87.2676C204.613 87.2676 203.883 87.9954 203.882 88.895Z" fill="white"/>
    <path d="M200.499 98.4334L200.074 100.067L191.614 93.9052L189.024 90.2263C188.677 89.7337 188.153 89.3949 187.561 89.2799C186.933 89.1567 186.281 89.2977 185.761 89.6672L183.351 91.3754C183.351 91.3754 183.415 92.6719 184.001 92.4126C184.586 92.1533 185.757 91.505 185.757 91.505L186.083 94.6183L187.516 95.6555L188.948 96.7576L198.499 106.232C200.171 107.89 202.873 107.879 204.532 106.208C204.849 105.888 205.113 105.522 205.314 105.122L206.73 101.106L200.499 98.4334Z" fill="#FFBE9D"/>
    <path d="M199.861 99.834C199.999 99.8696 200.122 99.9458 200.216 100.053C200.458 100.294 200.63 100.597 200.711 100.928C200.79 101.254 200.821 101.589 200.803 101.925C200.81 102.063 200.794 102.202 200.755 102.335C200.722 102.201 200.708 102.063 200.714 101.925C200.706 101.601 200.664 101.277 200.589 100.961C200.511 100.649 200.362 100.359 200.153 100.114C199.988 99.9296 199.85 99.8518 199.861 99.834Z" fill="#EB996E"/>
    <path d="M185.744 91.6668C185.731 91.6587 185.771 91.5582 185.87 91.4139C186 91.2178 186.188 91.0654 186.407 90.9795C186.642 90.8985 186.902 90.9487 187.09 91.1108C187.229 91.2437 187.223 91.375 187.21 91.3734C187.189 91.3799 187.161 91.2729 187.032 91.1805C186.86 91.0654 186.645 91.0363 186.448 91.1011C186.251 91.1805 186.076 91.3086 185.94 91.4707C185.826 91.5955 185.758 91.6782 185.744 91.6668Z" fill="#EB996E"/>
    <path d="M187.258 92.4975C187.243 92.5105 187.18 92.4521 187.063 92.3873C186.914 92.303 186.747 92.2576 186.576 92.256C186.406 92.2592 186.239 92.3046 186.091 92.3905C185.976 92.4554 185.913 92.5153 185.898 92.5024C185.884 92.4894 185.927 92.41 186.041 92.316C186.193 92.196 186.382 92.1296 186.576 92.1279C186.771 92.1279 186.961 92.1928 187.113 92.3111C187.227 92.4051 187.269 92.4878 187.258 92.4975Z" fill="#EB996E"/>
    <path d="M200.498 98.4328C200.441 98.4296 200.388 98.4166 200.336 98.3939C200.185 98.334 200.052 98.2335 199.954 98.1038C199.799 97.8996 199.701 97.6549 199.675 97.3989C199.653 97.0601 199.714 96.7198 199.856 96.4103C199.995 96.0634 200.203 95.7134 200.381 95.3228C200.571 94.9047 200.731 94.4736 200.866 94.0344C201.156 93.1057 201.365 92.0539 201.657 90.9648C201.906 89.9276 202.324 88.939 202.893 88.0363C203.372 87.2989 204.045 86.7074 204.838 86.3281C205.37 86.0704 205.959 85.9505 206.551 85.9813C206.766 85.991 206.979 86.0315 207.182 86.1012C207.178 86.1174 206.958 86.0461 206.547 86.0315C205.968 86.0202 205.394 86.1515 204.877 86.4108C204.106 86.7932 203.454 87.3783 202.992 88.1027C202.436 88.9973 202.027 89.9762 201.782 91.0005C201.492 92.0847 201.278 93.1381 200.979 94.0716C200.842 94.5141 200.675 94.9484 200.478 95.3682C200.293 95.7652 200.081 96.1088 199.941 96.4459C199.802 96.7409 199.735 97.0666 199.75 97.3924C199.77 97.6387 199.854 97.8737 199.997 98.0747C200.087 98.2011 200.209 98.3032 200.349 98.3696C200.441 98.4166 200.499 98.4264 200.498 98.4328Z" fill="#263238"/>
    <path d="M191.108 93.1223C191.136 92.4123 191.206 91.704 191.318 91.0005C191.387 90.2937 191.499 89.5902 191.653 88.8965C191.626 89.6065 191.556 90.3148 191.444 91.0183C191.374 91.725 191.263 92.4285 191.108 93.1223Z" fill="#263238"/>
    <path d="M187.304 96.7552L186.855 100.287L181.465 95.6953L178.517 96.4068C178.517 96.4068 181.556 102.784 183.958 105.311C186.36 107.837 187.654 108.197 188.561 108.236C189.807 108.291 190.376 106.774 190.376 106.774L190.919 97.995L187.304 96.7552Z" fill="#FFBE9D"/>
    <path d="M186.876 100.192C187.061 100.457 187.191 100.756 187.256 101.073C187.361 101.377 187.405 101.701 187.382 102.022C187.28 101.723 187.197 101.416 187.132 101.107C187.028 100.808 186.942 100.502 186.876 100.192Z" fill="#EB996E"/>
    <path d="M180.943 86.7432H176.885C176.272 86.7432 175.724 87.4546 175.944 88.0348L180.025 95.9761C180.182 96.284 180.5 96.4769 180.847 96.4769L185.794 96.4671C186.183 96.4234 186.462 96.0717 186.417 95.6827C186.405 95.5904 186.378 95.5012 186.332 95.4202L182.396 87.6459C182.124 87.0932 181.561 86.7432 180.943 86.7432Z" fill="#455A64"/>
    <path d="M180.67 87.2217H176.612C176.238 87.2217 175.933 87.5248 175.933 87.8991C175.933 88.0061 175.959 88.113 176.007 88.2087L179.991 95.9781C180.148 96.286 180.466 96.4789 180.813 96.4789H185.703C185.923 96.4789 186.102 96.3006 186.103 96.0802C186.103 96.017 186.089 95.9554 186.061 95.9003L182.123 88.1244C181.851 87.5717 181.288 87.2217 180.67 87.2217Z" fill="#263238"/>
    <path d="M180.326 90.4736L177.858 91.459L177.329 93.4475L178.518 96.4069L182.881 97.0405L181.603 95.7359L181.767 94.5998C181.767 94.5998 182.985 94.219 183.015 94.0326C183.046 93.8462 182.865 93.2223 182.678 93.1931C182.492 93.1639 181.215 93.6388 181.215 93.6388C181.215 93.6388 182.727 92.4427 182.685 92.2515C182.642 92.0586 182.48 91.5692 182.179 91.5141C181.877 91.459 179.439 92.608 179.439 92.608L179.043 93.5108L178.698 92.0667C178.696 92.0651 180.862 91.4574 180.326 90.4736Z" fill="#FFBE9D"/>
    <path d="M180.635 95.1348C180.621 95.1397 180.575 95.0489 180.551 94.8901C180.525 94.6793 180.551 94.4654 180.624 94.2676C180.697 94.0682 180.817 93.8899 180.974 93.7457C181.096 93.6387 181.19 93.5998 181.198 93.6128C181.013 93.8219 180.859 94.0569 180.744 94.3098C180.668 94.5788 180.63 94.8576 180.635 95.1348Z" fill="#EB996E"/>
    <path d="M179.462 94.7057C179.507 94.4918 179.54 94.2762 179.559 94.059C179.569 93.8158 179.611 93.5759 179.684 93.3425C179.731 93.1999 179.809 93.0702 179.911 92.96C180.026 92.8481 180.164 92.7606 180.315 92.7055C180.906 92.4915 181.438 92.3181 181.827 92.1917C182.033 92.1122 182.246 92.0539 182.463 92.0166C182.27 92.1236 182.065 92.2111 181.855 92.2776C181.475 92.4251 180.94 92.6131 180.361 92.8238C180.226 92.8725 180.103 92.9486 179.999 93.0459C179.908 93.1432 179.837 93.2566 179.791 93.3814C179.718 93.6035 179.67 93.8337 179.647 94.0671C179.642 94.2924 179.579 94.5112 179.462 94.7057Z" fill="#EB996E"/>
    <path d="M178.897 94.2583C178.863 94.2534 178.869 94.0346 178.913 93.772C178.957 93.5094 179.02 93.3003 179.054 93.3068C179.088 93.3133 179.082 93.5305 179.038 93.7931C178.994 94.0573 178.931 94.2648 178.897 94.2583Z" fill="#EB996E"/>
    <path d="M178.829 88.7202C178.829 89.0055 179.061 89.2373 179.347 89.2373C179.632 89.2373 179.864 89.0055 179.864 88.7202C179.864 88.4349 179.632 88.2031 179.347 88.2031C179.061 88.2031 178.829 88.4349 178.829 88.7202Z" fill="#FAFAFA"/>
    <path d="M188.945 96.7578C189 96.7918 189.051 96.8324 189.096 96.8777L189.5 97.2391L190.924 98.5551L190.943 98.573L190.942 98.6005C190.877 99.4238 190.802 100.393 190.721 101.429C190.609 102.945 190.522 104.32 190.473 105.317C190.452 105.798 190.434 106.197 190.42 106.496C190.421 106.641 190.411 106.786 190.39 106.929C190.373 106.785 190.366 106.641 190.369 106.496C190.366 106.218 190.368 105.812 190.382 105.315C190.408 104.317 190.48 102.941 190.593 101.422C190.669 100.382 190.754 99.4108 190.832 98.594L190.848 98.6378L189.455 97.2894L189.07 96.9053C189.025 96.8599 188.983 96.8113 188.945 96.7578Z" fill="#EB996E"/>
    <path d="M170.295 108.675L169.177 108.234C169.177 108.234 166.112 108.846 165.076 108.837C164.159 108.828 161.459 108.234 161.459 108.234L160.223 108.722L160.414 107.29C160.414 107.29 159.933 103.667 159.933 102.451C159.975 100.602 160.135 98.7577 160.414 96.9296L160.294 95.3818L161.579 95.9442C161.579 95.9442 164.312 95.3851 165.238 95.3818C166.203 95.3786 169.057 95.9442 169.057 95.9442L170.382 95.3818L170.139 96.7059C170.139 96.7059 170.702 100.706 170.702 102.049C170.707 103.685 170.519 105.317 170.139 106.908L170.295 108.675Z" fill="#C90000"/>
    <path d="M161.004 100.055H169.634C169.715 100.055 169.78 100.12 169.78 100.201V104.665C169.78 104.746 169.715 104.811 169.634 104.811H161.004C160.923 104.811 160.858 104.746 160.858 104.665V100.201C160.858 100.12 160.923 100.055 161.004 100.055Z" fill="#633030"/>
    <path d="M163.51 101.828C163.51 104.5 164.851 106.667 166.504 106.667C168.158 106.667 169.498 104.5 169.498 101.828C169.498 99.1551 168.156 96.9883 166.504 96.9883C164.851 96.9883 163.51 99.1551 163.51 101.828Z" fill="#FFBE9D"/>
    <path d="M157.917 108.675L156.799 108.234C156.799 108.234 153.736 108.846 152.698 108.837C151.781 108.828 149.081 108.234 149.081 108.234L147.845 108.722L148.036 107.29C148.036 107.29 147.555 103.667 147.555 102.451C147.597 100.602 147.757 98.7577 148.036 96.9296L147.916 95.3818L149.201 95.9442C149.201 95.9442 151.934 95.3851 152.858 95.3818C153.823 95.3786 156.678 95.9442 156.678 95.9442L158.003 95.3818L157.76 96.7059C157.76 96.7059 158.322 100.706 158.322 102.049C158.327 103.685 158.139 105.317 157.76 106.908L157.917 108.675Z" fill="#1F8800"/>
    <path d="M155.237 101.426C155.994 101.426 156.608 100.773 156.608 99.9676C156.608 99.1619 155.994 98.5088 155.237 98.5088C154.48 98.5088 153.866 99.1619 153.866 99.9676C153.866 100.773 154.48 101.426 155.237 101.426Z" fill="#FFA460"/>
    <path d="M148.624 100.055H157.254C157.335 100.055 157.4 100.12 157.4 100.201V104.665C157.4 104.747 157.335 104.811 157.254 104.811H148.624C148.542 104.811 148.478 104.747 148.478 104.665V100.201C148.478 100.12 148.544 100.055 148.624 100.055Z" fill="#C90000"/>
    <path d="M154.127 106.667C155.78 106.667 157.121 104.5 157.121 101.828C157.121 99.1549 155.78 96.9883 154.127 96.9883C152.473 96.9883 151.133 99.1549 151.133 101.828C151.133 104.5 152.473 106.667 154.127 106.667Z" fill="#FFC09F"/>
    <path d="M155.114 105.511C155.185 106.806 154.192 107.911 152.896 107.983C151.6 108.054 150.494 107.062 150.423 105.767C150.351 104.472 151.344 103.366 152.64 103.295C152.682 103.293 152.726 103.292 152.768 103.292C154.027 103.259 155.077 104.251 155.114 105.511Z" fill="#FFA460"/>
    <path d="M155.158 107.73C155.915 107.73 156.529 107.077 156.529 106.271C156.529 105.466 155.915 104.812 155.158 104.812C154.401 104.812 153.787 105.466 153.787 106.271C153.787 107.077 154.401 107.73 155.158 107.73Z" fill="#FFA460"/>
</svg>
