<svg width="151" height="141" viewBox="0 0 151 141" fill="none" xmlns="http://www.w3.org/2000/svg">
    <path d="M5.18701 50.417C-2.6758 89.5333 22.163 127.94 61.2968 136.652C100.431 145.364 139.215 121.124 148.689 82.3684" stroke="#6654A4" stroke-width="4" stroke-miterlimit="10"/>
    <path d="M7.14105 54.6623L5.28006 50.5273L2 53.4701" stroke="#6654A4" stroke-width="4" stroke-miterlimit="10"/>
    <path d="M140.634 65.4666C140.634 100.547 112.219 128.968 77.1502 128.968C42.099 128.968 13.672 100.547 13.672 65.4666C13.672 30.4271 42.099 2 77.1502 2C112.219 2 140.634 30.4271 140.634 65.4666Z" fill="#6654A4" stroke="#6654A4" stroke-width="4" stroke-miterlimit="10"/>
    <path d="M130.556 65.4672C130.556 94.9643 106.642 118.873 77.156 118.873C47.653 118.873 23.7505 94.9643 23.7505 65.4672C23.7505 35.9991 47.653 12.085 77.156 12.085C106.642 12.085 130.556 35.9991 130.556 65.4672Z" fill="white"/>
    <path d="M118.901 65.467C118.901 88.532 100.215 107.212 77.1561 107.212C54.1201 107.212 35.4343 88.532 35.4343 65.467C35.4343 42.4368 54.1201 23.7568 77.1561 23.7568C100.215 23.7568 118.901 42.4368 118.901 65.467Z" fill="#6654A4" stroke="#6654A4" stroke-width="4" stroke-miterlimit="10"/>
    <path d="M105.984 65.4661C105.984 81.4127 93.0852 94.3177 77.1503 94.3177C61.2211 94.3177 48.3103 81.4127 48.3103 65.4661C48.3103 49.566 61.2153 36.6377 77.1503 36.6377C93.0852 36.6377 105.984 49.566 105.984 65.4661Z" fill="white"/>
    <path d="M91.544 65.4663C91.544 73.4164 85.0944 79.8601 77.1502 79.8601C69.2118 79.8601 62.7738 73.4164 62.7738 65.4663C62.7738 57.5395 69.2118 51.1016 77.1502 51.1016C85.0944 51.1016 91.544 57.5395 91.544 65.4663Z" fill="#FF5364"/>
    <path d="M108.968 31.3876L107.043 21.8266L121.535 7.31641L123.466 16.8774L108.968 31.3876Z" fill="#FF5364"/>
    <path d="M110.939 33.3365L120.506 35.2789L134.987 20.7746L125.438 18.8496L110.939 33.3365Z" fill="#FF5364"/>
    <path d="M78.7087 66.3214C77.9643 67.0832 76.7547 67.0832 75.9986 66.3214C75.2426 65.5653 75.2426 64.3557 75.9986 63.6055L125.618 13.9802C126.374 13.2358 127.601 13.2358 128.346 13.9802C129.108 14.7304 129.108 15.9517 128.346 16.702L78.7087 66.3214Z" fill="#6654A4"/>
    <path d="M85.6528 72.6846C85.2109 73.2371 84.7224 73.743 84.1873 74.1967" stroke="#6654A4" stroke-width="4" stroke-miterlimit="10"/>
    <path d="M82.5007 75.3882C77.0979 78.5054 70.1946 76.656 67.0774 71.2533C63.9602 65.8505 65.8096 58.9414 71.2124 55.8242" stroke="#6654A4" stroke-width="4" stroke-miterlimit="10"/>
    <path d="M79.7847 57.6336C79.7905 57.2207 79.4764 56.8776 79.0693 56.8485C76.0684 56.6217 73.4805 57.3894 71.5845 59.0643C69.6886 60.745 68.6069 63.2109 68.4673 66.2001C68.4557 66.6363 68.7756 66.9911 69.206 67.0085C69.6305 67.026 69.9969 66.7003 70.0143 66.2699C70.1365 63.7052 71.0379 61.6174 72.6139 60.2216C74.19 58.8316 76.3825 58.1978 78.9588 58.3955C79.3834 58.4304 79.7556 58.1105 79.7847 57.6801C79.7847 57.6627 79.7847 57.651 79.7847 57.6336Z" fill="white"/>
</svg>
