<svg width="220" height="196" viewBox="0 0 220 196" fill="none" xmlns="http://www.w3.org/2000/svg">
    <path d="M11.9869 52.0213C15.0881 45.113 18.7097 39.3531 22.765 35.2082C23.9134 34.0179 25.1515 32.9383 26.4614 31.9813C27.6337 31.12 28.8748 30.3843 30.1667 29.7772C48.6397 21.1972 67.5583 40.7198 88.6929 38.4141C106.409 36.4762 119.155 25.4199 130.46 16.1371C134.165 12.964 138.041 10.0572 142.069 7.43142C143.137 6.76153 144.213 6.15144 145.281 5.61014C146.429 5.03296 147.653 4.49166 148.957 3.99522C148.957 3.98924 148.963 3.98325 148.966 3.98325L148.977 3.99522C165.345 -2.31197 192.999 -2.08169 205.252 11.4897C218.081 25.707 233.662 71.7833 198.373 131.132C159.166 197.102 52.04 206.217 23.414 184.403C-6.21098 161.848 -5.0207 89.9213 11.9869 52.0213Z" fill="#D6DCFD"/>
    <path d="M106.012 153.669C127.434 153.669 144.8 136.303 144.8 114.881C144.8 93.4588 127.434 76.0928 106.012 76.0928C84.5897 76.0928 67.2236 93.4588 67.2236 114.881C67.2236 136.303 84.5897 153.669 106.012 153.669Z" fill="#6654A4"/>
    <g opacity="0.17">
        <path opacity="0.6" d="M94.9193 58.2266L121.383 147.744C122.224 150.588 120.6 153.576 117.756 154.416L74.67 167.153C71.8259 167.994 68.8383 166.37 67.9979 163.526L41.534 74.008C40.6937 71.1639 42.3176 68.1763 45.1616 67.336L88.2473 54.599C91.0914 53.7586 94.079 55.3825 94.9193 58.2266Z" fill="black"/>
        <path opacity="0.6" d="M55.4157 67.4554L47.5744 69.7731C45.6095 70.3563 44.4881 72.4198 45.0712 74.3847L70.7605 161.286C71.3407 163.25 73.4042 164.375 75.369 163.795L115.344 151.979C117.309 151.396 118.431 149.332 117.848 147.367L92.1583 60.4664C91.5781 58.5015 89.5146 57.3801 87.5498 57.9572L79.7084 60.275C79.3465 60.3826 79.1402 60.7625 79.2478 61.1243L79.6486 62.485C79.9776 63.5975 79.3436 64.7668 78.2311 65.0958L59.2766 70.7002C58.1641 71.0292 56.9948 70.3922 56.6658 69.2797L56.265 67.919C56.1574 67.5571 55.7776 67.3507 55.4157 67.4554Z" fill="white"/>
        <path opacity="0.17" d="M116.849 140.753L67.6084 155.31L70.642 165.571L119.882 151.015L116.849 140.753Z" fill="black"/>
        <g opacity="0.17">
            <path opacity="0.17" d="M94.4852 157.674C96.5444 157.066 97.7198 154.902 97.1106 152.841C96.5014 150.78 94.3383 149.603 92.2792 150.212C90.22 150.82 89.0446 152.985 89.6538 155.045C90.263 157.106 92.4261 158.283 94.4852 157.674Z" fill="#545454"/>
            <path opacity="0.17" d="M90.5935 154.751C90.1359 153.205 91.0181 151.584 92.5613 151.126C94.1074 150.672 95.7283 151.554 96.1859 153.097C96.6435 154.64 95.7612 156.264 94.2181 156.722C92.6719 157.179 91.051 156.297 90.5935 154.751Z" fill="#737373"/>
        </g>
        <g opacity="0.6">
            <path opacity="0.17" d="M75.8887 62.8977C75.9903 63.2416 75.793 63.6005 75.452 63.7022L63.9591 67.0995C63.6152 67.2012 63.2564 67.0038 63.1547 66.6628C63.053 66.3189 63.2504 65.9601 63.5913 65.8584L75.0842 62.4611C75.4281 62.3594 75.79 62.5538 75.8887 62.8977Z" fill="#A4A5A4"/>
            <path opacity="0.17" d="M60.7031 66.3726C61.2175 66.2201 61.7588 66.5162 61.9113 67.0306C62.0638 67.545 61.7708 68.0862 61.2564 68.2388C60.742 68.3913 60.2007 68.0952 60.0482 67.5808C59.8956 67.0665 60.1887 66.5251 60.7031 66.3726Z" fill="#A4A5A4"/>
        </g>
    </g>
    <g opacity="0.16">
        <path opacity="0.6" d="M119.04 52.1947L160.573 66.3402C163.316 67.2733 164.781 70.2519 163.848 72.9943L134.459 159.288C133.526 162.031 130.548 163.496 127.805 162.563L86.2717 148.42C83.5293 147.487 82.0639 144.509 82.9969 141.766L112.386 55.4724C113.319 52.727 116.297 51.2616 119.04 52.1947Z" fill="black"/>
        <path opacity="0.6" d="M149.719 66.4688L149.273 67.7787C148.908 68.8523 147.742 69.4265 146.669 69.0616L128.396 62.8382C127.322 62.4733 126.751 61.307 127.116 60.2333L127.562 58.9235C127.681 58.5736 127.493 58.1937 127.146 58.0741L119.589 55.4992C117.696 54.8562 115.635 55.8671 114.992 57.7631L86.4616 141.536C85.8157 143.429 86.8265 145.489 88.7226 146.135L127.256 159.258C129.15 159.901 131.207 158.887 131.853 156.994L160.38 73.2215C161.026 71.3285 160.016 69.268 158.123 68.622L150.565 66.0471C150.215 65.9305 149.836 66.1189 149.719 66.4688Z" fill="white"/>
        <path opacity="0.16" d="M87.6784 135.117L84.3096 145.008L131.775 161.174L135.144 151.283L87.6784 135.117Z" fill="black"/>
        <g opacity="0.16">
            <path opacity="0.16" d="M113.638 150.146C114.315 148.159 113.255 146 111.271 145.324C109.287 144.649 107.13 145.712 106.453 147.699C105.776 149.686 106.836 151.845 108.82 152.52C110.804 153.196 112.961 152.133 113.638 150.146Z" fill="#545454"/>
            <path opacity="0.16" d="M112.758 149.826C112.253 151.315 110.635 152.111 109.146 151.605C107.656 151.097 106.861 149.479 107.369 147.99C107.875 146.5 109.493 145.702 110.982 146.21C112.471 146.719 113.267 148.337 112.758 149.826Z" fill="#737373"/>
        </g>
        <g opacity="0.16">
            <path opacity="0.16" d="M131.57 60.3919L142.651 64.166C142.983 64.2797 143.159 64.6386 143.045 64.9705C142.932 65.3025 142.573 65.4789 142.241 65.3653L131.161 61.5911C130.829 61.4775 130.652 61.1186 130.766 60.7867C130.88 60.4547 131.238 60.2783 131.57 60.3919Z" fill="#A4A5A4"/>
            <path opacity="0.16" d="M146.037 65.9873C145.87 66.4837 145.329 66.7499 144.832 66.5794C144.336 66.4089 144.07 65.8706 144.24 65.3742C144.408 64.8777 144.949 64.6116 145.445 64.782C145.942 64.9525 146.208 65.4908 146.037 65.9873Z" fill="#A4A5A4"/>
        </g>
    </g>
    <path d="M79.5617 100.173C79.5617 100.173 83.7575 103.794 84.6726 108.011C85.8988 113.669 80.0641 122.238 80.3871 129.212C80.758 137.271 85.1482 140.755 87.8188 146.097C90.9081 152.272 90.6868 156.336 90.6868 158.451C90.6987 159.68 90.4355 160.894 89.9092 162.007H118.894C118.894 162.007 113.182 170.682 101.967 177.662C92.7922 183.374 88.1406 194 88.1406 194L67.1406 195H57.1406L47.3828 193.106L62.0069 168.819C62.0069 168.819 59.3602 156.025 60.9213 146.772C63.7504 130.034 79.5617 100.173 79.5617 100.173Z" fill="#AA8776"/>
    <path d="M90.042 161.92C90.042 161.92 88.4988 164.785 86.6925 167.716C84.8892 170.647 83.7617 172.226 83.7617 172.226C83.7617 172.226 88.0263 171.071 90.7538 169.068C93.4842 167.055 95.9275 164.677 98.0209 162.007L90.042 161.92Z" fill="#996552"/>
    <path d="M130.333 39.8973L131.589 37.6006L132.845 39.8973C134.101 42.1941 135.991 44.0842 138.291 45.3433L140.587 46.5993L138.291 47.8554C135.991 49.1114 134.104 51.0015 132.845 53.2983L131.589 55.5951L130.333 53.2983C129.076 51.0015 127.186 49.1114 124.887 47.8554L122.59 46.5993L124.887 45.3433C127.186 44.0872 129.073 42.1971 130.333 39.8973Z" fill="#6654A4"/>
    <path d="M107.444 48.2264L107.976 47.2515L108.509 48.2264C109.041 49.2013 109.842 50.0028 110.817 50.5351L111.792 51.0675L110.817 51.5998C109.842 52.1321 109.041 52.9336 108.509 53.9086L107.976 54.8835L107.444 53.9086C106.912 52.9336 106.11 52.1321 105.135 51.5998L104.16 51.0675L105.135 50.5351C106.11 49.9998 106.912 49.2013 107.444 48.2264Z" fill="#6654A4"/>
    <path d="M140.771 74.723L141.016 74.2744L141.262 74.723C141.507 75.1716 141.875 75.5424 142.323 75.7876L142.772 76.0329L142.323 76.2781C141.875 76.5233 141.507 76.8912 141.262 77.3428L141.016 77.7914L140.771 77.3428C140.526 76.8942 140.158 76.5263 139.706 76.2781L139.258 76.0329L139.706 75.7876C140.158 75.5424 140.526 75.1716 140.771 74.723Z" fill="#6654A4"/>
    <path d="M143.707 56.8897L144.155 56.0703L144.604 56.8897C145.052 57.7092 145.725 58.382 146.542 58.8276L147.361 59.2762L146.542 59.7218C145.722 60.1704 145.049 60.8433 144.604 61.6597L144.155 62.4792L143.707 61.6597C143.258 60.8403 142.585 60.1674 141.769 59.7218L140.949 59.2762L141.769 58.8276C142.588 58.3791 143.258 57.7062 143.707 56.8897Z" fill="#6654A4"/>
    <path d="M83.5508 57.8228H128.479C131.445 57.8228 133.85 60.2272 133.85 63.1939V156.543C133.85 159.509 131.445 161.914 128.479 161.914H83.5508C80.5841 161.914 78.1797 159.509 78.1797 156.543V63.1939C78.1797 60.2272 80.5841 57.8228 83.5508 57.8228Z" fill="black"/>
    <path d="M117.997 61.5311V62.9486C117.997 64.1089 117.058 65.051 115.898 65.051H96.1299C94.9696 65.051 94.0275 64.1089 94.0275 62.9486V61.5311C94.0275 61.1542 93.7225 60.8462 93.3427 60.8462H85.1664C83.1178 60.8462 81.458 62.509 81.458 64.5575V155.176C81.458 157.224 83.1178 158.887 85.1664 158.887H126.852C128.901 158.887 130.561 157.224 130.561 155.176V64.5575C130.561 62.509 128.901 60.8462 126.852 60.8462H118.676C118.302 60.8492 117.997 61.1542 117.997 61.5311Z" fill="white"/>
    <path d="M131.882 148.534H80.5361V159.234H131.882V148.534Z" fill="black"/>
    <path d="M106.775 158.424C108.922 158.424 110.662 156.682 110.662 154.533C110.662 152.384 108.922 150.642 106.775 150.642C104.627 150.642 102.887 152.384 102.887 154.533C102.887 156.682 104.627 158.424 106.775 158.424Z" fill="#545454"/>
    <path d="M109.691 154.533C109.691 156.145 108.387 157.449 106.775 157.452C105.163 157.452 103.859 156.145 103.859 154.533C103.859 152.921 105.163 151.614 106.775 151.614C108.387 151.617 109.691 152.924 109.691 154.533Z" fill="#737373"/>
    <path d="M98.4029 61.6328H110.389C110.748 61.6328 111.038 61.9229 111.038 62.2818C111.038 62.6407 110.748 62.9307 110.389 62.9307H98.4029C98.044 62.9307 97.7539 62.6407 97.7539 62.2818C97.7539 61.9229 98.044 61.6328 98.4029 61.6328Z" fill="#A4A5A4"/>
    <path d="M114.272 62.282C114.272 62.8203 113.838 63.254 113.3 63.254C112.762 63.254 112.328 62.8173 112.328 62.282C112.328 61.7437 112.762 61.3101 113.3 61.3101C113.838 61.3071 114.275 61.7437 114.272 62.282Z" fill="#A4A5A4"/>
    <path d="M105.101 130.151C116.882 130.151 126.432 120.6 126.432 108.819C126.432 97.0375 116.882 87.4868 105.101 87.4868C93.3192 87.4868 83.7686 97.0375 83.7686 108.819C83.7686 120.6 93.3192 130.151 105.101 130.151Z" stroke="#BBBBBB" stroke-opacity="0.5" stroke-width="0.5"/>
    <path d="M105.1 123.799C113.373 123.799 120.08 117.092 120.08 108.819C120.08 100.546 113.373 93.8389 105.1 93.8389C96.8269 93.8389 90.1201 100.546 90.1201 108.819C90.1201 117.092 96.8269 123.799 105.1 123.799Z" stroke="#BBBBBB" stroke-opacity="0.5" stroke-width="0.5"/>
    <path fill-rule="evenodd" clip-rule="evenodd" d="M103.209 106.145C103.209 105.191 103.987 104.414 104.941 104.414C105.895 104.414 106.672 105.191 106.672 106.145C106.672 107.099 105.895 107.877 104.941 107.877C103.984 107.877 103.209 107.102 103.209 106.145ZM107.743 108.541L106.762 107.56C107.067 107.168 107.249 106.678 107.249 106.145C107.249 104.871 106.215 103.836 104.941 103.836C103.667 103.836 102.632 104.871 102.632 106.145C102.632 107.419 103.667 108.454 104.941 108.454C105.473 108.454 105.963 108.271 106.355 107.966L107.336 108.947C107.393 109.004 107.468 109.031 107.539 109.031C107.611 109.031 107.686 109.004 107.743 108.947C107.856 108.837 107.856 108.651 107.743 108.541Z" fill="#D6D6D6"/>
    <path d="M94.7438 113.493C94.6571 113.493 94.5734 113.481 94.4956 113.454C94.4179 113.427 94.3551 113.391 94.3072 113.35C94.2893 113.335 94.2803 113.314 94.2803 113.29C94.2803 113.275 94.2863 113.26 94.2952 113.248C94.3042 113.236 94.3162 113.23 94.3281 113.23C94.3431 113.23 94.358 113.236 94.376 113.248C94.4837 113.332 94.6063 113.374 94.7438 113.374C94.8425 113.374 94.9203 113.356 94.9711 113.317C95.025 113.278 95.0519 113.224 95.0519 113.155C95.0519 113.113 95.0399 113.083 95.013 113.06C94.9891 113.036 94.9532 113.015 94.9113 113C94.8695 112.985 94.8126 112.97 94.7438 112.952C94.6481 112.931 94.5704 112.907 94.5106 112.883C94.4507 112.859 94.4029 112.823 94.364 112.778C94.3281 112.734 94.3072 112.674 94.3072 112.602C94.3072 112.533 94.3251 112.47 94.364 112.42C94.4029 112.366 94.4537 112.324 94.5225 112.294C94.5913 112.264 94.6691 112.249 94.7558 112.249C94.8366 112.249 94.9113 112.261 94.9801 112.288C95.0519 112.312 95.1087 112.348 95.1565 112.393C95.1745 112.411 95.1834 112.432 95.1834 112.452C95.1834 112.467 95.1775 112.482 95.1685 112.494C95.1595 112.506 95.1476 112.512 95.1356 112.512C95.1237 112.512 95.1057 112.506 95.0848 112.494C95.0279 112.449 94.9741 112.417 94.9263 112.399C94.8784 112.381 94.8186 112.372 94.7528 112.372C94.6571 112.372 94.5823 112.393 94.5285 112.432C94.4747 112.47 94.4478 112.527 94.4478 112.599C94.4478 112.659 94.4717 112.707 94.5165 112.737C94.5644 112.766 94.6362 112.793 94.7319 112.817C94.8365 112.841 94.9203 112.865 94.9801 112.889C95.0399 112.91 95.0908 112.943 95.1296 112.985C95.1715 113.027 95.1894 113.083 95.1894 113.155C95.1894 113.224 95.1715 113.284 95.1326 113.335C95.0967 113.386 95.0429 113.427 94.9741 113.457C94.9083 113.478 94.8306 113.493 94.7438 113.493ZM96.0537 113.284C96.0657 113.284 96.0776 113.29 96.0866 113.299C96.0956 113.308 96.1016 113.323 96.1016 113.338C96.1016 113.368 96.0806 113.394 96.0417 113.418C95.9999 113.442 95.955 113.46 95.9102 113.475C95.8653 113.487 95.8204 113.493 95.7756 113.493C95.644 113.493 95.5423 113.454 95.4646 113.377C95.3898 113.299 95.3509 113.191 95.3509 113.057C95.3509 112.97 95.3689 112.895 95.4018 112.829C95.4346 112.763 95.4825 112.71 95.5423 112.674C95.6021 112.638 95.6739 112.617 95.7487 112.617C95.8593 112.617 95.946 112.653 96.0089 112.725C96.0717 112.796 96.1046 112.892 96.1046 113.015C96.1046 113.039 96.0986 113.054 96.0896 113.066C96.0806 113.075 96.0657 113.08 96.0447 113.08H95.4885C95.4975 113.278 95.5932 113.38 95.7696 113.38C95.8145 113.38 95.8533 113.374 95.8862 113.362C95.9191 113.35 95.952 113.332 95.9909 113.311C96.0238 113.29 96.0447 113.284 96.0537 113.284ZM95.7517 112.722C95.6769 112.722 95.6171 112.746 95.5722 112.79C95.5274 112.835 95.5034 112.901 95.4945 112.985H95.9849C95.9819 112.898 95.961 112.835 95.9221 112.79C95.8803 112.746 95.8234 112.722 95.7517 112.722ZM96.6608 112.614C96.8732 112.614 96.9778 112.725 96.9778 112.946V113.418C96.9778 113.439 96.9718 113.457 96.9599 113.469C96.9479 113.481 96.933 113.487 96.912 113.487C96.8911 113.487 96.8731 113.481 96.8612 113.469C96.8492 113.457 96.8432 113.439 96.8432 113.418V113.335C96.8223 113.386 96.7864 113.424 96.7416 113.451C96.6967 113.478 96.6459 113.49 96.5861 113.49C96.5322 113.49 96.4814 113.478 96.4365 113.457C96.3917 113.436 96.3558 113.403 96.3289 113.365C96.302 113.326 96.29 113.281 96.29 113.236C96.29 113.173 96.3049 113.122 96.3378 113.089C96.3707 113.054 96.4245 113.03 96.4963 113.015C96.5711 113 96.6728 112.991 96.8044 112.991H96.8432V112.934C96.8432 112.865 96.8283 112.814 96.8014 112.781C96.7745 112.749 96.7266 112.734 96.6638 112.734C96.5861 112.734 96.5053 112.755 96.4246 112.796C96.3946 112.817 96.3707 112.826 96.3588 112.826C96.3438 112.826 96.3348 112.82 96.3229 112.811C96.3139 112.802 96.3079 112.787 96.3079 112.772C96.3079 112.757 96.3139 112.743 96.3229 112.731C96.3319 112.719 96.3498 112.707 96.3707 112.692C96.4126 112.668 96.4575 112.65 96.5083 112.638C96.5561 112.62 96.61 112.614 96.6608 112.614ZM96.604 113.38C96.6728 113.38 96.7296 113.356 96.7745 113.311C96.8193 113.263 96.8432 113.203 96.8432 113.128V113.077H96.8133C96.7117 113.077 96.6339 113.083 96.5801 113.092C96.5262 113.101 96.4903 113.116 96.4664 113.134C96.4455 113.155 96.4335 113.182 96.4335 113.224C96.4335 113.269 96.4485 113.308 96.4814 113.338C96.5113 113.365 96.5531 113.38 96.604 113.38ZM97.6507 112.617C97.6985 112.614 97.7225 112.632 97.7225 112.677C97.7225 112.695 97.7165 112.71 97.7075 112.722C97.6986 112.731 97.6806 112.74 97.6537 112.74L97.6029 112.746C97.5251 112.752 97.4683 112.781 97.4294 112.829C97.3935 112.877 97.3726 112.934 97.3726 112.997V113.418C97.3726 113.442 97.3666 113.46 97.3546 113.469C97.3427 113.481 97.3247 113.487 97.3038 113.487C97.2829 113.487 97.2649 113.481 97.253 113.469C97.241 113.457 97.235 113.439 97.235 113.418V112.689C97.235 112.668 97.241 112.65 97.2559 112.638C97.2709 112.626 97.2858 112.62 97.3068 112.62C97.3247 112.62 97.3397 112.626 97.3546 112.638C97.3666 112.65 97.3726 112.665 97.3726 112.686V112.781C97.3965 112.731 97.4324 112.692 97.4743 112.665C97.5191 112.638 97.57 112.623 97.6298 112.617H97.6507ZM98.174 113.49C98.0963 113.49 98.0245 113.472 97.9647 113.436C97.9049 113.4 97.8571 113.35 97.8242 113.284C97.7913 113.218 97.7763 113.143 97.7763 113.057C97.7763 112.97 97.7943 112.892 97.8272 112.826C97.863 112.76 97.9109 112.707 97.9707 112.671C98.0305 112.635 98.1023 112.614 98.183 112.614C98.2279 112.614 98.2698 112.62 98.3116 112.632C98.3565 112.644 98.3924 112.662 98.4253 112.683C98.4462 112.698 98.4611 112.71 98.4671 112.725C98.4761 112.737 98.4821 112.752 98.4821 112.766C98.4821 112.781 98.4761 112.796 98.4671 112.805C98.4581 112.814 98.4492 112.82 98.4342 112.82C98.4253 112.82 98.4163 112.817 98.4073 112.814C98.3984 112.811 98.3894 112.805 98.3834 112.799C98.3774 112.793 98.3744 112.79 98.3714 112.79C98.3415 112.769 98.3116 112.755 98.2847 112.743C98.2578 112.731 98.2249 112.725 98.186 112.725C98.1023 112.725 98.0365 112.755 97.9886 112.811C97.9438 112.868 97.9199 112.946 97.9199 113.048C97.9199 113.149 97.9438 113.227 97.9886 113.284C98.0365 113.341 98.1023 113.368 98.186 113.368C98.2249 113.368 98.2578 113.362 98.2877 113.35C98.3176 113.338 98.3445 113.323 98.3744 113.302C98.3864 113.293 98.3984 113.287 98.4103 113.281C98.4223 113.275 98.4312 113.272 98.4402 113.272C98.4522 113.272 98.4641 113.278 98.4701 113.287C98.4791 113.296 98.4851 113.311 98.4851 113.326C98.4851 113.341 98.4821 113.356 98.4731 113.368C98.4641 113.38 98.4492 113.391 98.4282 113.406C98.3953 113.427 98.3565 113.445 98.3116 113.46C98.2668 113.484 98.2219 113.49 98.174 113.49ZM99.0832 112.614C99.1819 112.614 99.2567 112.641 99.3075 112.698C99.3583 112.754 99.3823 112.835 99.3823 112.946V113.415C99.3823 113.436 99.3763 113.454 99.3643 113.466C99.3523 113.478 99.3344 113.484 99.3135 113.484C99.2926 113.484 99.2746 113.478 99.2626 113.466C99.2507 113.454 99.2447 113.436 99.2447 113.415V112.949C99.2447 112.874 99.2297 112.817 99.1968 112.781C99.1669 112.746 99.1191 112.728 99.0503 112.728C98.9726 112.728 98.9098 112.752 98.8649 112.799C98.82 112.847 98.7961 112.91 98.7961 112.991V113.412C98.7961 113.433 98.7901 113.451 98.7782 113.463C98.7662 113.475 98.7512 113.481 98.7273 113.481C98.7034 113.481 98.6884 113.475 98.6765 113.463C98.6645 113.451 98.6585 113.433 98.6585 113.412V112.312C98.6585 112.291 98.6645 112.276 98.6765 112.264C98.6914 112.252 98.7064 112.246 98.7273 112.246C98.7482 112.246 98.7662 112.252 98.7782 112.264C98.7901 112.276 98.7961 112.291 98.7961 112.312V112.766C98.823 112.716 98.8619 112.677 98.9128 112.65C98.9636 112.623 99.0174 112.614 99.0832 112.614ZM99.7112 113.487C99.6903 113.487 99.6724 113.481 99.6604 113.469C99.6484 113.457 99.6424 113.439 99.6424 113.418V112.689C99.6424 112.668 99.6484 112.65 99.6604 112.638C99.6754 112.626 99.6903 112.62 99.7112 112.62C99.7322 112.62 99.7501 112.626 99.7621 112.638C99.774 112.65 99.78 112.665 99.78 112.689V113.418C99.78 113.442 99.774 113.46 99.7621 113.469C99.7501 113.481 99.7322 113.487 99.7112 113.487ZM99.7112 112.435C99.6843 112.435 99.6604 112.426 99.6424 112.411C99.6245 112.396 99.6155 112.372 99.6155 112.348C99.6155 112.324 99.6245 112.303 99.6424 112.285C99.6604 112.27 99.6813 112.261 99.7112 112.261C99.7411 112.261 99.7621 112.27 99.78 112.285C99.7979 112.3 99.8069 112.321 99.8069 112.348C99.8069 112.375 99.7979 112.396 99.78 112.411C99.7621 112.429 99.7381 112.435 99.7112 112.435ZM100.468 112.614C100.671 112.614 100.77 112.725 100.77 112.949V113.418C100.77 113.439 100.764 113.457 100.752 113.469C100.74 113.481 100.725 113.487 100.701 113.487C100.677 113.487 100.662 113.481 100.65 113.469C100.638 113.457 100.632 113.439 100.632 113.418V112.958C100.632 112.88 100.617 112.823 100.584 112.787C100.555 112.752 100.507 112.734 100.438 112.734C100.36 112.734 100.297 112.758 100.253 112.805C100.208 112.853 100.184 112.916 100.184 112.997V113.418C100.184 113.439 100.178 113.457 100.166 113.469C100.154 113.481 100.139 113.487 100.115 113.487C100.091 113.487 100.076 113.481 100.064 113.469C100.052 113.457 100.046 113.439 100.046 113.418V112.689C100.046 112.668 100.052 112.65 100.064 112.638C100.076 112.626 100.094 112.62 100.115 112.62C100.136 112.62 100.151 112.626 100.163 112.638C100.175 112.65 100.181 112.668 100.181 112.686V112.775C100.208 112.725 100.247 112.686 100.297 112.659C100.348 112.629 100.402 112.614 100.468 112.614ZM101.712 112.617C101.733 112.617 101.751 112.623 101.763 112.635C101.775 112.647 101.781 112.665 101.781 112.686V113.421C101.781 113.547 101.748 113.643 101.685 113.706C101.619 113.771 101.524 113.801 101.398 113.801C101.275 113.801 101.171 113.777 101.09 113.729C101.048 113.706 101.027 113.679 101.027 113.649C101.027 113.634 101.03 113.619 101.039 113.61C101.048 113.601 101.06 113.595 101.075 113.595C101.087 113.595 101.108 113.604 101.138 113.619C101.18 113.64 101.218 113.658 101.257 113.67C101.296 113.682 101.344 113.688 101.398 113.688C101.479 113.688 101.541 113.667 101.583 113.622C101.625 113.58 101.646 113.517 101.646 113.433V113.284C101.622 113.338 101.583 113.38 101.532 113.409C101.482 113.439 101.425 113.451 101.356 113.451C101.281 113.451 101.215 113.433 101.159 113.4C101.102 113.365 101.057 113.317 101.024 113.254C100.994 113.191 100.976 113.116 100.976 113.033C100.976 112.949 100.991 112.877 101.024 112.811C101.057 112.749 101.102 112.698 101.159 112.665C101.215 112.629 101.281 112.614 101.356 112.614C101.422 112.614 101.482 112.629 101.53 112.656C101.58 112.686 101.616 112.725 101.643 112.778V112.686C101.643 112.665 101.649 112.647 101.661 112.635C101.673 112.623 101.688 112.617 101.712 112.617ZM101.383 113.335C101.464 113.335 101.527 113.308 101.574 113.254C101.619 113.2 101.643 113.125 101.643 113.03C101.643 112.937 101.619 112.862 101.574 112.808C101.53 112.754 101.467 112.728 101.383 112.728C101.302 112.728 101.236 112.754 101.189 112.808C101.144 112.862 101.12 112.934 101.12 113.03C101.12 113.125 101.144 113.2 101.189 113.254C101.236 113.311 101.299 113.335 101.383 113.335ZM102.86 112.369C102.801 112.375 102.753 112.393 102.723 112.429C102.693 112.461 102.675 112.512 102.675 112.581V112.638H102.866C102.887 112.638 102.902 112.644 102.911 112.653C102.92 112.662 102.926 112.677 102.926 112.695C102.926 112.713 102.92 112.725 102.911 112.734C102.902 112.743 102.887 112.749 102.866 112.749H102.675V113.421C102.675 113.442 102.669 113.46 102.654 113.472C102.642 113.484 102.624 113.49 102.606 113.49C102.585 113.49 102.567 113.484 102.555 113.472C102.543 113.46 102.537 113.442 102.537 113.421V112.749H102.421C102.4 112.749 102.385 112.743 102.373 112.734C102.364 112.725 102.358 112.71 102.358 112.695C102.358 112.677 102.364 112.665 102.373 112.653C102.385 112.644 102.4 112.638 102.421 112.638H102.537V112.608C102.537 112.503 102.564 112.423 102.615 112.363C102.666 112.303 102.741 112.27 102.839 112.261L102.884 112.258C102.914 112.255 102.935 112.258 102.947 112.267C102.962 112.276 102.968 112.291 102.968 112.309C102.968 112.342 102.947 112.363 102.908 112.366L102.86 112.369ZM103.399 113.49C103.318 113.49 103.249 113.472 103.186 113.436C103.126 113.4 103.079 113.35 103.046 113.284C103.013 113.218 102.998 113.14 102.998 113.051C102.998 112.964 103.013 112.886 103.046 112.82C103.079 112.755 103.126 112.701 103.186 112.665C103.246 112.629 103.318 112.611 103.399 112.611C103.479 112.611 103.548 112.629 103.611 112.665C103.674 112.701 103.719 112.752 103.752 112.82C103.784 112.886 103.802 112.964 103.802 113.051C103.802 113.137 103.784 113.215 103.752 113.284C103.719 113.35 103.674 113.4 103.611 113.436C103.548 113.472 103.476 113.49 103.399 113.49ZM103.399 113.374C103.482 113.374 103.545 113.347 103.59 113.293C103.635 113.236 103.659 113.158 103.659 113.054C103.659 112.952 103.635 112.871 103.59 112.817C103.545 112.76 103.482 112.734 103.399 112.734C103.318 112.734 103.252 112.76 103.207 112.817C103.162 112.874 103.138 112.952 103.138 113.054C103.138 113.158 103.159 113.236 103.204 113.293C103.252 113.347 103.315 113.374 103.399 113.374ZM104.427 112.617C104.475 112.614 104.499 112.632 104.499 112.677C104.499 112.695 104.493 112.71 104.484 112.722C104.475 112.731 104.457 112.74 104.43 112.74L104.38 112.746C104.302 112.752 104.245 112.781 104.206 112.829C104.17 112.877 104.149 112.934 104.149 112.997V113.418C104.149 113.442 104.143 113.46 104.131 113.469C104.119 113.481 104.101 113.487 104.08 113.487C104.06 113.487 104.042 113.481 104.03 113.469C104.018 113.457 104.012 113.439 104.012 113.418V112.689C104.012 112.668 104.018 112.65 104.033 112.638C104.048 112.626 104.063 112.62 104.083 112.62C104.101 112.62 104.116 112.626 104.131 112.638C104.143 112.65 104.149 112.665 104.149 112.686V112.781C104.173 112.731 104.209 112.692 104.251 112.665C104.296 112.638 104.347 112.623 104.406 112.617H104.427ZM105.489 112.614C105.692 112.614 105.791 112.725 105.791 112.949V113.418C105.791 113.439 105.785 113.457 105.773 113.469C105.761 113.481 105.746 113.487 105.722 113.487C105.698 113.487 105.683 113.481 105.672 113.469C105.66 113.457 105.654 113.439 105.654 113.418V112.958C105.654 112.88 105.639 112.823 105.606 112.787C105.576 112.752 105.528 112.734 105.459 112.734C105.381 112.734 105.319 112.758 105.274 112.805C105.229 112.853 105.205 112.916 105.205 112.997V113.418C105.205 113.439 105.199 113.457 105.187 113.469C105.175 113.481 105.16 113.487 105.136 113.487C105.112 113.487 105.097 113.481 105.085 113.469C105.073 113.457 105.067 113.439 105.067 113.418V112.689C105.067 112.668 105.073 112.65 105.085 112.638C105.097 112.626 105.115 112.62 105.136 112.62C105.157 112.62 105.172 112.626 105.184 112.638C105.196 112.65 105.202 112.668 105.202 112.686V112.775C105.229 112.725 105.268 112.686 105.319 112.659C105.369 112.629 105.426 112.614 105.489 112.614ZM106.703 113.284C106.715 113.284 106.727 113.29 106.736 113.299C106.745 113.308 106.751 113.323 106.751 113.338C106.751 113.368 106.73 113.394 106.691 113.418C106.649 113.442 106.605 113.46 106.56 113.475C106.515 113.487 106.47 113.493 106.425 113.493C106.294 113.493 106.192 113.454 106.114 113.377C106.039 113.299 106 113.191 106 113.057C106 112.97 106.018 112.895 106.051 112.829C106.084 112.763 106.132 112.71 106.192 112.674C106.252 112.638 106.323 112.617 106.398 112.617C106.509 112.617 106.596 112.653 106.658 112.725C106.724 112.796 106.754 112.892 106.754 113.015C106.754 113.039 106.748 113.054 106.739 113.066C106.73 113.075 106.715 113.08 106.694 113.08H106.138C106.147 113.278 106.243 113.38 106.419 113.38C106.464 113.38 106.503 113.374 106.536 113.362C106.569 113.35 106.602 113.332 106.64 113.311C106.673 113.29 106.694 113.284 106.703 113.284ZM106.401 112.722C106.326 112.722 106.267 112.746 106.222 112.79C106.177 112.835 106.153 112.901 106.144 112.985H106.634C106.631 112.898 106.611 112.835 106.572 112.79C106.53 112.746 106.473 112.722 106.401 112.722ZM107.307 112.614C107.52 112.614 107.624 112.725 107.624 112.946V113.418C107.624 113.439 107.618 113.457 107.606 113.469C107.594 113.481 107.579 113.487 107.559 113.487C107.538 113.487 107.52 113.481 107.508 113.469C107.496 113.457 107.49 113.439 107.49 113.418V113.335C107.469 113.386 107.433 113.424 107.388 113.451C107.343 113.478 107.292 113.49 107.233 113.49C107.179 113.49 107.128 113.478 107.083 113.457C107.038 113.436 107.002 113.403 106.975 113.365C106.948 113.326 106.937 113.281 106.937 113.236C106.937 113.173 106.951 113.122 106.984 113.089C107.017 113.054 107.071 113.03 107.143 113.015C107.218 113 107.319 112.991 107.451 112.991H107.49V112.934C107.49 112.865 107.475 112.814 107.448 112.781C107.421 112.749 107.373 112.734 107.31 112.734C107.233 112.734 107.152 112.755 107.071 112.796C107.041 112.817 107.017 112.826 107.005 112.826C106.99 112.826 106.981 112.82 106.969 112.811C106.96 112.802 106.954 112.787 106.954 112.772C106.954 112.757 106.96 112.743 106.969 112.731C106.978 112.719 106.996 112.707 107.017 112.692C107.059 112.668 107.104 112.65 107.155 112.638C107.206 112.62 107.257 112.614 107.307 112.614ZM107.251 113.38C107.319 113.38 107.376 113.356 107.421 113.311C107.466 113.263 107.49 113.203 107.49 113.128V113.077H107.46C107.358 113.077 107.28 113.083 107.227 113.092C107.173 113.101 107.137 113.116 107.113 113.134C107.092 113.155 107.08 113.182 107.08 113.224C107.08 113.269 107.095 113.308 107.128 113.338C107.161 113.365 107.203 113.38 107.251 113.38ZM108.3 112.617C108.348 112.614 108.372 112.632 108.372 112.677C108.372 112.695 108.366 112.71 108.357 112.722C108.348 112.731 108.33 112.74 108.303 112.74L108.252 112.746C108.175 112.752 108.118 112.781 108.079 112.829C108.043 112.877 108.022 112.934 108.022 112.997V113.418C108.022 113.442 108.016 113.46 108.004 113.469C107.992 113.481 107.974 113.487 107.953 113.487C107.932 113.487 107.914 113.481 107.902 113.469C107.891 113.457 107.885 113.439 107.885 113.418V112.689C107.885 112.668 107.891 112.65 107.905 112.638C107.92 112.626 107.935 112.62 107.956 112.62C107.974 112.62 107.989 112.626 108.004 112.638C108.016 112.65 108.022 112.665 108.022 112.686V112.781C108.046 112.731 108.082 112.692 108.124 112.665C108.169 112.638 108.219 112.623 108.279 112.617H108.3ZM108.916 112.614C108.991 112.614 109.057 112.632 109.111 112.668C109.168 112.704 109.212 112.755 109.242 112.82C109.272 112.886 109.29 112.961 109.29 113.048C109.29 113.134 109.275 113.212 109.242 113.281C109.212 113.347 109.168 113.397 109.111 113.436C109.054 113.472 108.988 113.493 108.916 113.493C108.851 113.493 108.794 113.478 108.743 113.451C108.695 113.421 108.656 113.383 108.632 113.329V113.421C108.632 113.442 108.626 113.46 108.614 113.472C108.602 113.484 108.587 113.49 108.563 113.49C108.542 113.49 108.525 113.484 108.513 113.472C108.501 113.46 108.495 113.442 108.495 113.421V112.321C108.495 112.3 108.501 112.285 108.513 112.273C108.525 112.261 108.542 112.255 108.563 112.255C108.584 112.255 108.602 112.261 108.614 112.273C108.626 112.285 108.632 112.3 108.632 112.321V112.784C108.656 112.731 108.695 112.692 108.743 112.662C108.794 112.629 108.851 112.614 108.916 112.614ZM108.889 113.374C108.97 113.374 109.036 113.347 109.081 113.29C109.126 113.233 109.15 113.152 109.15 113.051C109.15 112.949 109.126 112.871 109.081 112.817C109.036 112.76 108.973 112.734 108.889 112.734C108.809 112.734 108.743 112.76 108.698 112.817C108.653 112.874 108.632 112.952 108.632 113.054C108.632 113.155 108.653 113.236 108.698 113.293C108.743 113.347 108.809 113.374 108.889 113.374ZM110.098 112.662C110.11 112.635 110.131 112.62 110.157 112.62C110.175 112.62 110.19 112.626 110.205 112.638C110.22 112.65 110.226 112.665 110.226 112.68C110.226 112.689 110.223 112.701 110.22 112.707L109.733 113.756C109.727 113.768 109.718 113.78 109.706 113.786C109.697 113.792 109.685 113.795 109.673 113.795C109.655 113.795 109.64 113.789 109.625 113.777C109.613 113.768 109.607 113.753 109.607 113.735C109.607 113.726 109.61 113.717 109.613 113.709L109.736 113.448L109.392 112.707C109.386 112.698 109.386 112.689 109.386 112.68C109.386 112.662 109.395 112.647 109.41 112.635C109.425 112.623 109.443 112.617 109.461 112.617C109.473 112.617 109.485 112.62 109.493 112.626C109.505 112.632 109.514 112.644 109.52 112.656L109.81 113.305L110.098 112.662ZM111.467 112.617C111.488 112.617 111.506 112.623 111.518 112.635C111.53 112.647 111.536 112.665 111.536 112.686V113.418C111.536 113.439 111.53 113.454 111.518 113.466C111.506 113.478 111.491 113.484 111.467 113.484C111.446 113.484 111.428 113.478 111.416 113.466C111.404 113.454 111.399 113.436 111.399 113.418V113.332C111.372 113.383 111.336 113.421 111.285 113.448C111.237 113.475 111.183 113.487 111.123 113.487C111.022 113.487 110.947 113.46 110.896 113.403C110.845 113.347 110.821 113.263 110.821 113.155V112.683C110.821 112.662 110.827 112.644 110.839 112.632C110.851 112.62 110.869 112.614 110.89 112.614C110.911 112.614 110.929 112.62 110.941 112.632C110.953 112.644 110.959 112.662 110.959 112.683V113.149C110.959 113.224 110.974 113.281 111.004 113.317C111.034 113.353 111.081 113.368 111.144 113.368C111.219 113.368 111.279 113.344 111.324 113.296C111.369 113.248 111.393 113.185 111.393 113.104V112.68C111.393 112.659 111.399 112.641 111.41 112.629C111.428 112.623 111.446 112.617 111.467 112.617ZM112.08 113.49C112.027 113.49 111.976 113.484 111.928 113.472C111.88 113.46 111.838 113.442 111.802 113.418C111.781 113.403 111.766 113.392 111.757 113.38C111.748 113.368 111.745 113.353 111.745 113.335C111.745 113.32 111.748 113.308 111.757 113.299C111.766 113.29 111.778 113.284 111.793 113.284C111.808 113.284 111.826 113.293 111.853 113.311C111.889 113.332 111.922 113.35 111.955 113.362C111.991 113.374 112.033 113.38 112.083 113.38C112.146 113.38 112.194 113.368 112.23 113.347C112.266 113.326 112.281 113.293 112.281 113.251C112.281 113.227 112.275 113.206 112.263 113.191C112.251 113.176 112.227 113.161 112.197 113.149C112.167 113.137 112.119 113.125 112.059 113.11C111.958 113.089 111.886 113.06 111.841 113.021C111.796 112.982 111.775 112.934 111.775 112.871C111.775 112.82 111.79 112.778 111.817 112.74C111.844 112.701 111.883 112.671 111.931 112.65C111.982 112.629 112.036 112.617 112.098 112.617C112.143 112.617 112.188 112.623 112.227 112.635C112.269 112.647 112.308 112.662 112.341 112.686C112.379 112.713 112.4 112.743 112.4 112.772C112.4 112.787 112.394 112.799 112.385 112.811C112.376 112.82 112.364 112.826 112.353 112.826C112.338 112.826 112.317 112.817 112.29 112.796C112.257 112.775 112.227 112.76 112.197 112.749C112.167 112.737 112.131 112.731 112.089 112.731C112.036 112.731 111.991 112.743 111.958 112.766C111.925 112.79 111.91 112.823 111.91 112.862C111.91 112.886 111.916 112.907 111.928 112.925C111.94 112.94 111.961 112.955 111.988 112.967C112.018 112.979 112.056 112.991 112.11 113.003C112.188 113.021 112.251 113.039 112.293 113.06C112.338 113.08 112.367 113.104 112.385 113.134C112.403 113.164 112.412 113.203 112.412 113.248C112.412 113.32 112.382 113.38 112.32 113.424C112.263 113.469 112.182 113.49 112.08 113.49ZM113.283 113.284C113.295 113.284 113.307 113.29 113.315 113.299C113.324 113.308 113.33 113.323 113.33 113.338C113.33 113.368 113.309 113.394 113.271 113.418C113.229 113.442 113.184 113.46 113.139 113.475C113.094 113.487 113.046 113.493 113.004 113.493C112.873 113.493 112.771 113.454 112.693 113.377C112.619 113.299 112.58 113.191 112.58 113.057C112.58 112.97 112.598 112.895 112.631 112.829C112.664 112.763 112.711 112.71 112.771 112.674C112.831 112.638 112.903 112.617 112.978 112.617C113.088 112.617 113.175 112.653 113.238 112.725C113.301 112.796 113.333 112.892 113.333 113.015C113.333 113.039 113.327 113.054 113.318 113.066C113.31 113.075 113.295 113.08 113.274 113.08H112.717C112.726 113.278 112.822 113.38 112.998 113.38C113.043 113.38 113.082 113.374 113.115 113.362C113.148 113.35 113.181 113.332 113.22 113.311C113.253 113.29 113.274 113.284 113.283 113.284ZM112.981 112.722C112.906 112.722 112.846 112.746 112.801 112.79C112.756 112.835 112.732 112.901 112.723 112.985H113.214C113.211 112.898 113.19 112.835 113.151 112.79C113.109 112.746 113.052 112.722 112.981 112.722ZM113.961 112.617C114.009 112.614 114.033 112.632 114.033 112.677C114.033 112.695 114.027 112.71 114.018 112.722C114.009 112.731 113.991 112.74 113.964 112.74L113.914 112.746C113.836 112.752 113.779 112.781 113.74 112.829C113.704 112.877 113.683 112.934 113.683 112.997V113.418C113.683 113.442 113.677 113.46 113.665 113.469C113.653 113.481 113.635 113.487 113.615 113.487C113.594 113.487 113.576 113.481 113.564 113.469C113.552 113.457 113.546 113.439 113.546 113.418V112.689C113.546 112.668 113.552 112.65 113.567 112.638C113.582 112.626 113.597 112.62 113.618 112.62C113.635 112.62 113.65 112.626 113.665 112.638C113.677 112.65 113.683 112.665 113.683 112.686V112.781C113.707 112.731 113.74 112.692 113.785 112.665C113.83 112.638 113.881 112.623 113.941 112.617H113.961ZM114.428 113.49C114.374 113.49 114.323 113.484 114.275 113.472C114.228 113.46 114.186 113.442 114.15 113.418C114.129 113.403 114.114 113.392 114.105 113.38C114.096 113.368 114.093 113.353 114.093 113.335C114.093 113.32 114.096 113.308 114.105 113.299C114.114 113.29 114.126 113.284 114.141 113.284C114.156 113.284 114.174 113.293 114.201 113.311C114.237 113.332 114.269 113.35 114.302 113.362C114.338 113.374 114.38 113.38 114.431 113.38C114.494 113.38 114.542 113.368 114.578 113.347C114.613 113.326 114.628 113.293 114.628 113.251C114.628 113.227 114.622 113.206 114.61 113.191C114.598 113.176 114.575 113.161 114.545 113.149C114.515 113.137 114.467 113.125 114.407 113.11C114.305 113.089 114.234 113.06 114.189 113.021C114.144 112.982 114.123 112.934 114.123 112.871C114.123 112.82 114.138 112.778 114.165 112.74C114.192 112.701 114.231 112.671 114.278 112.65C114.329 112.629 114.383 112.617 114.446 112.617C114.491 112.617 114.536 112.623 114.575 112.635C114.616 112.647 114.655 112.662 114.688 112.686C114.727 112.713 114.748 112.743 114.748 112.772C114.748 112.787 114.742 112.799 114.733 112.811C114.724 112.82 114.712 112.826 114.7 112.826C114.685 112.826 114.664 112.817 114.637 112.796C114.604 112.775 114.575 112.76 114.545 112.749C114.515 112.737 114.479 112.731 114.437 112.731C114.383 112.731 114.338 112.743 114.305 112.766C114.272 112.79 114.258 112.823 114.258 112.862C114.258 112.886 114.264 112.907 114.275 112.925C114.287 112.94 114.308 112.955 114.335 112.967C114.365 112.979 114.404 112.991 114.458 113.003C114.536 113.021 114.598 113.039 114.64 113.06C114.685 113.08 114.715 113.104 114.733 113.134C114.751 113.164 114.76 113.203 114.76 113.248C114.76 113.32 114.73 113.38 114.667 113.424C114.61 113.469 114.53 113.49 114.428 113.49ZM115.038 113.487C115.011 113.487 114.987 113.478 114.969 113.46C114.951 113.442 114.942 113.418 114.942 113.389C114.942 113.359 114.951 113.335 114.969 113.317C114.987 113.299 115.011 113.29 115.038 113.29C115.065 113.29 115.086 113.299 115.104 113.317C115.122 113.335 115.131 113.359 115.131 113.389C115.131 113.418 115.122 113.442 115.104 113.46C115.086 113.478 115.065 113.487 115.038 113.487ZM115.433 113.487C115.406 113.487 115.382 113.478 115.364 113.46C115.346 113.442 115.337 113.418 115.337 113.389C115.337 113.359 115.346 113.335 115.364 113.317C115.382 113.299 115.406 113.29 115.433 113.29C115.46 113.29 115.481 113.299 115.499 113.317C115.517 113.335 115.526 113.359 115.526 113.389C115.526 113.418 115.517 113.442 115.499 113.46C115.484 113.478 115.46 113.487 115.433 113.487ZM115.831 113.487C115.804 113.487 115.78 113.478 115.762 113.46C115.744 113.442 115.735 113.418 115.735 113.389C115.735 113.359 115.744 113.335 115.762 113.317C115.78 113.299 115.804 113.29 115.831 113.29C115.858 113.29 115.878 113.299 115.896 113.317C115.914 113.335 115.923 113.359 115.923 113.389C115.923 113.418 115.914 113.442 115.896 113.46C115.878 113.478 115.858 113.487 115.831 113.487Z" fill="#898D9B"/>
</svg>
