<svg width="305" height="320" viewBox="0 0 305 320" fill="none" xmlns="http://www.w3.org/2000/svg">
<path opacity="0.35" d="M249.538 188.783C261.815 135.124 228.268 81.6722 174.609 69.3954C120.949 57.1186 67.4979 90.6657 55.2211 144.325C42.9443 197.984 76.4914 251.436 130.151 263.712C183.81 275.989 237.261 242.442 249.538 188.783Z" fill="#CECBEF"/>
<path d="M227.789 242.396C269.535 200.65 269.535 132.967 227.789 91.221C186.043 49.4751 118.359 49.4751 76.6136 91.221C34.8677 132.967 34.8677 200.65 76.6136 242.396C118.359 284.142 186.043 284.142 227.789 242.396Z" stroke="#4D3DB9" stroke-width="1.452" stroke-miterlimit="10" stroke-dasharray="7.26 7.26"/>
<path opacity="0.35" d="M256.161 278.027C261.36 272.828 261.36 264.399 256.161 259.2C250.962 254.001 242.533 254.001 237.334 259.2C232.135 264.399 232.135 272.828 237.334 278.027C242.533 283.226 250.962 283.226 256.161 278.027Z" fill="#CECBEF"/>
<path opacity="0.35" d="M236.426 64.1072C243.095 62.0683 246.848 55.0091 244.809 48.3401C242.77 41.6712 235.711 37.9177 229.042 39.9567C222.373 41.9956 218.62 49.0547 220.659 55.7237C222.698 62.3927 229.757 66.1461 236.426 64.1072Z" fill="#CECBEF"/>
<path opacity="0.35" d="M281.336 240.959C283.018 233.802 278.58 226.635 271.423 224.953C264.265 223.271 257.099 227.709 255.416 234.866C253.734 242.024 258.172 249.19 265.33 250.873C272.487 252.555 279.653 248.117 281.336 240.959Z" fill="#CECBEF"/>
<path opacity="0.35" d="M273.992 44.1937C278.567 38.9306 278.009 30.9551 272.746 26.3799C267.483 21.8047 259.507 22.3624 254.932 27.6256C250.357 32.8887 250.915 40.8642 256.178 45.4393C261.441 50.0145 269.416 49.4568 273.992 44.1937Z" fill="#CECBEF"/>
<path opacity="0.35" d="M293.996 281.444C299.195 276.246 299.195 267.817 293.996 262.618C288.797 257.42 280.369 257.42 275.17 262.618C269.971 267.817 269.971 276.246 275.17 281.444C280.369 286.643 288.797 286.643 293.996 281.444Z" fill="#CECBEF"/>
<path opacity="0.35" d="M266.592 83.8171C273.261 81.7782 277.014 74.7191 274.975 68.0501C272.936 61.3811 265.877 57.6277 259.208 59.6666C252.539 61.7055 248.786 68.7647 250.825 75.4337C252.864 82.1026 259.923 85.8561 266.592 83.8171Z" fill="#CECBEF"/>
<path opacity="0.35" d="M169.903 52.738C169.903 63.1684 166.81 73.3644 161.015 82.0368C155.22 90.7093 146.983 97.4685 137.347 101.46C127.71 105.451 117.107 106.496 106.877 104.461C96.647 102.426 87.2502 97.4028 79.8749 90.0273C72.4996 82.6519 67.477 73.2551 65.4422 63.0251C63.4074 52.7952 64.4519 42.1916 68.4434 32.5552C72.435 22.9188 79.1944 14.6825 87.867 8.88773C96.5395 3.09295 106.736 1.1358e-08 117.166 9.48279e-09C124.092 -0.000131322 130.949 1.36389 137.348 4.01419C143.746 6.66449 149.56 10.5492 154.457 15.4464C159.354 20.3436 163.239 26.1574 165.889 32.556C168.539 38.9545 169.903 45.8124 169.903 52.738Z" fill="#CECBEF"/>
<path d="M117.723 83.3721C134.015 83.3721 147.223 70.1645 147.223 53.8721C147.223 37.5797 134.015 24.3721 117.723 24.3721C101.431 24.3721 88.223 37.5797 88.223 53.8721C88.223 70.1645 101.431 83.3721 117.723 83.3721Z" fill="#54469B"/>
<path d="M82.584 32.7722C81.3767 33.9795 79.8384 34.8017 78.1638 35.1348C76.4892 35.4679 74.7533 35.2969 73.1759 34.6435C71.5984 33.9901 70.2501 32.8836 69.3015 31.4639C68.3529 30.0442 67.8466 28.3751 67.8466 26.6677C67.8466 24.9602 68.3529 23.2911 69.3015 21.8714C70.2501 20.4518 71.5984 19.3452 73.1759 18.6918C74.7533 18.0384 76.4892 17.8674 78.1638 18.2005C79.8384 18.5336 81.3767 19.3558 82.584 20.5632C83.3857 21.3648 84.0216 22.3165 84.4554 23.3639C84.8893 24.4113 85.1126 25.5339 85.1126 26.6677C85.1126 27.8014 84.8893 28.924 84.4554 29.9714C84.0216 31.0188 83.3857 31.9705 82.584 32.7722Z" fill="#54469B"/>
<path d="M242.424 61.6349C241.878 59.5963 241.949 57.4415 242.627 55.4431C243.305 53.4446 244.561 51.6923 246.236 50.4076C247.91 49.1228 249.928 48.3635 252.034 48.2255C254.14 48.0875 256.239 48.577 258.067 49.6323C259.895 50.6875 261.369 52.261 262.302 54.1538C263.235 56.0466 263.587 58.1737 263.311 60.2661C263.036 62.3586 262.146 64.3223 260.755 65.9091C259.363 67.4959 257.533 68.6345 255.494 69.1809C254.14 69.5437 252.728 69.6363 251.339 69.4534C249.95 69.2705 248.61 68.8157 247.396 68.115C246.182 67.4143 245.119 66.4813 244.265 65.3695C243.412 64.2576 242.787 62.9886 242.424 61.6349Z" fill="#54469B"/>
<path d="M76.48 54.4055C78.8642 54.4055 80.797 52.4727 80.797 50.0885C80.797 47.7043 78.8642 45.7715 76.48 45.7715C74.0958 45.7715 72.163 47.7043 72.163 50.0885C72.163 52.4727 74.0958 54.4055 76.48 54.4055Z" fill="#54469B"/>
<path d="M223.039 41.7314C221.565 44.2836 222.44 47.547 224.992 49.0205C227.544 50.494 230.807 49.6196 232.281 47.0674C233.754 44.5152 232.88 41.2518 230.328 39.7783C227.776 38.3048 224.512 39.1792 223.039 41.7314Z" fill="#54469B"/>
<path d="M55.032 40.6918C54.4283 41.2955 53.6591 41.7067 52.8216 41.8733C51.9842 42.0399 51.1162 41.9544 50.3274 41.6277C49.5385 41.3009 48.8643 40.7476 48.3899 40.0377C47.9156 39.3277 47.6624 38.4931 47.6624 37.6393C47.6624 36.7854 47.9156 35.9508 48.3899 35.2409C48.8643 34.5309 49.5385 33.9776 50.3274 33.6509C51.1162 33.3241 51.9842 33.2386 52.8216 33.4052C53.6591 33.5718 54.4283 33.983 55.032 34.5868C55.8416 35.3964 56.2964 36.4944 56.2964 37.6393C56.2964 38.7842 55.8416 39.8822 55.032 40.6918Z" fill="#54469B"/>
<path d="M250.974 27.2462C250.701 26.2269 250.736 25.1494 251.075 24.1501C251.415 23.1508 252.043 22.2746 252.88 21.6322C253.717 20.9898 254.726 20.6101 255.779 20.5411C256.832 20.4721 257.882 20.7169 258.796 21.2446C259.71 21.7723 260.447 22.5591 260.914 23.5055C261.381 24.452 261.556 25.5156 261.419 26.5619C261.281 27.6082 260.836 28.5902 260.14 29.3837C259.445 30.1772 258.529 30.7465 257.51 31.0197C256.833 31.2012 256.127 31.2475 255.432 31.1561C254.737 31.0647 254.067 30.8372 253.46 30.4868C252.853 30.1364 252.321 29.6699 251.895 29.1138C251.468 28.5578 251.155 27.9232 250.974 27.2462Z" fill="#54469B"/>
<path d="M204.109 210.588V211.441C204.109 217.016 198.387 221.578 191.396 221.578H147.634C157.714 217.075 166.264 209.734 172.24 200.452H191.399C198.389 200.451 204.109 205.013 204.109 210.588Z" fill="#EF5564"/>
<path d="M216.335 169.044V169.916C216.335 175.492 210.614 180.054 203.622 180.054H180.599C182.028 173.1 182.231 165.95 181.199 158.926H203.619C210.615 158.927 216.335 163.469 216.335 169.044Z" fill="#EF5564"/>
<path d="M229.129 126.79V127.662C229.129 133.237 223.407 137.779 216.415 137.779H173.861C168.835 129.024 161.595 121.745 152.867 116.673H216.414C217.271 116.677 218.126 116.744 218.973 116.873C219.779 117.014 220.575 117.21 221.355 117.46L222.469 117.886C223.852 118.487 225.121 119.324 226.218 120.36C227.115 121.177 227.836 122.169 228.337 123.275C228.837 124.38 229.107 125.576 229.129 126.79Z" fill="#EF5564"/>
<path d="M114.395 172.227V190.577C108.203 190.732 102.039 191.459 95.98 192.746C94.4479 186.008 93.5973 179.134 93.441 172.227H114.395Z" fill="#BAB7B7"/>
<path d="M168.237 172.207C167.713 182.202 164.406 191.851 158.687 200.065C154.217 197.577 149.472 195.617 144.549 194.226C146.204 186.998 147.12 179.62 147.283 172.206L168.237 172.207Z" fill="#54469B"/>
<path d="M168.237 166.024H147.283C147.12 158.617 146.204 151.246 144.549 144.024C149.476 142.635 154.222 140.669 158.687 138.166C164.403 146.381 167.71 156.03 168.237 166.024Z" fill="#54469B"/>
<path d="M114.395 196.76V221.577C112.321 220.921 110.415 219.821 108.81 218.354C105.491 215.234 102.829 211.484 100.978 207.323C99.6455 204.535 98.5166 201.655 97.6 198.705C103.13 197.564 108.75 196.913 114.395 196.76Z" fill="#BAB7B7"/>
<path d="M154.84 133.298C151.056 135.309 147.069 136.913 142.947 138.084C141.918 134.68 140.632 131.359 139.1 128.149C138.019 125.895 136.779 123.72 135.389 121.641C135.017 121.072 134.627 120.525 134.237 120.018C133.943 119.612 133.631 119.228 133.337 118.862C137.299 120.217 141.072 122.07 144.566 124.377C146.19 125.438 147.749 126.596 149.234 127.844C150.692 129.056 152.08 130.349 153.393 131.717C153.883 132.244 154.37 132.772 154.84 133.298Z" fill="#54469B"/>
<path d="M137.147 198.706C136.231 201.656 135.101 204.537 133.768 207.324C131.918 211.485 129.256 215.236 125.938 218.355C124.332 219.822 122.426 220.922 120.352 221.578V196.76C125.997 196.914 131.617 197.565 137.147 198.706Z" fill="#BAB7B7"/>
<path d="M101.409 219.368C98.6967 218.442 96.0701 217.282 93.559 215.901C89.036 213.412 84.92 210.246 81.354 206.513C80.865 206.007 80.377 205.479 79.909 204.953C80.417 204.669 80.925 204.405 81.471 204.142C84.793 202.521 88.2497 201.191 91.802 200.169C92.8396 203.57 94.1254 206.89 95.649 210.103C97.203 213.404 99.136 216.514 101.409 219.368Z" fill="#54469B"/>
<path d="M114.395 116.673V141.49C108.751 141.325 103.133 140.674 97.601 139.544C98.5176 136.593 99.6465 133.713 100.979 130.926C102.83 126.765 105.493 123.015 108.811 119.896C110.411 118.422 112.318 117.321 114.395 116.673Z" fill="#BAB7B7"/>
<path d="M114.395 147.673V166.023H93.441C93.5986 159.109 94.4491 152.229 95.98 145.484C102.038 146.778 108.202 147.511 114.395 147.673Z" fill="#BAB7B7"/>
<path d="M141.306 172.207C141.152 179.121 140.302 186.002 138.768 192.746C132.709 191.459 126.544 190.733 120.351 190.577V172.207H141.306Z" fill="#BAB7B7"/>
<path d="M154.84 204.949C154.37 205.475 153.883 206.003 153.394 206.509C150.709 209.305 147.715 211.788 144.47 213.909C141.013 216.205 137.27 218.039 133.337 219.363C134.037 218.512 134.724 217.58 135.388 216.605C136.778 214.527 138.018 212.352 139.099 210.097C140.631 206.888 141.917 203.567 142.946 200.163C147.069 201.334 151.056 202.938 154.84 204.949Z" fill="#54469B"/>
<path d="M101.409 118.859C99.136 121.722 97.2028 124.838 95.648 128.146C94.1242 131.359 92.8384 134.68 91.801 138.081C87.726 136.926 83.785 135.343 80.044 133.356C80.006 133.336 79.944 133.316 79.908 133.295C80.182 132.995 80.436 132.708 80.728 132.403C80.928 132.18 81.138 131.938 81.354 131.714C86.9181 125.891 93.7944 121.484 101.409 118.859Z" fill="#54469B"/>
<path d="M141.306 166.023H120.352V147.673C126.545 147.511 132.71 146.778 138.769 145.484C140.3 152.229 141.15 159.109 141.306 166.023Z" fill="#BAB7B7"/>
<path d="M137.147 139.544C131.613 140.675 125.993 141.326 120.347 141.49V116.673C122.425 117.32 124.333 118.421 125.933 119.896C129.251 123.015 131.913 126.765 133.763 130.926C135.098 133.713 136.229 136.593 137.147 139.544Z" fill="#BAB7B7"/>
</svg>
