<svg width="214" height="196" viewBox="0 0 214 196" fill="none" xmlns="http://www.w3.org/2000/svg">
    <g clip-path="url(#clip0)">
        <path d="M200.809 164.519C197.915 169.954 194.532 174.492 190.747 177.749C189.669 178.69 188.515 179.54 187.298 180.291C186.199 180.969 185.042 181.549 183.841 182.023C166.592 188.774 148.93 173.412 129.199 175.227C112.659 176.752 100.757 185.454 90.2065 192.758C86.7369 195.261 83.1175 197.549 79.3686 199.609C78.3718 200.135 77.3664 200.619 76.3696 201.043C75.2957 201.495 74.1564 201.923 72.9385 202.313C72.9386 202.314 72.9385 202.315 72.9382 202.316C72.9378 202.317 72.9373 202.318 72.9366 202.319C72.9359 202.32 72.935 202.32 72.934 202.321C72.933 202.321 72.9318 202.322 72.9306 202.322L72.9206 202.313C57.6355 207.276 31.8194 207.094 20.3773 196.414C8.39874 185.228 -6.14811 148.967 26.7981 102.262C63.4051 50.3501 163.423 43.1722 190.148 60.3403C217.799 78.0894 216.687 134.695 200.809 164.519Z" fill="#D6DCFD"/>
        <path d="M45.2112 72.4056C53.4541 61.5313 62.1419 63.0663 68.1723 65.6939C71.1738 67.0671 73.6983 69.3065 75.4224 72.1256C77.1465 74.9446 77.9921 78.215 77.8507 81.5183C77.7441 83.2553 77.3737 85.0848 78.0752 86.6747C79.2088 89.2331 82.5082 89.9533 84.4196 91.9949C87.0319 94.7871 86.4529 99.2074 85.5721 102.931C84.6912 106.654 83.7607 110.905 85.9466 114.044C87.9481 116.919 91.7638 117.69 94.9111 119.22C97.0026 120.22 98.8595 121.652 100.36 123.422C101.861 125.191 102.971 127.259 103.619 129.488C104.231 131.73 104.279 134.088 103.758 136.352C103.238 138.616 102.166 140.715 100.638 142.463C97.5787 145.804 92.9844 147.284 88.509 147.948C81.9704 148.912 75.2996 148.411 68.9774 146.481C62.6552 144.551 56.8392 141.24 51.9481 136.786C47.0571 132.332 43.2129 126.846 40.6927 120.724C38.1725 114.601 37.0389 107.995 37.3738 101.381" fill="#2E353A"/>
        <path d="M95.9326 143.584C95.9081 143.558 96.2164 143.315 96.6809 142.745C97.3607 141.92 97.8601 140.961 98.1472 139.931C98.5644 138.292 98.5792 136.576 98.1905 134.931C97.7237 132.74 96.6643 130.721 95.1281 129.094C94.2474 128.144 93.2448 127.316 92.1465 126.631C90.9368 125.908 89.6664 125.292 88.3496 124.79C86.9137 124.248 85.5243 123.589 84.1953 122.82C82.7977 121.944 81.5786 120.81 80.6029 119.479C78.5451 116.588 77.4319 113.13 77.4166 109.579C77.3786 107.724 77.5357 105.87 77.8849 104.048C78.2212 102.202 78.6878 100.367 79.0443 98.4981C79.3217 97.2001 79.4744 95.8784 79.5002 94.5512C79.4384 93.2614 79.1457 91.9932 78.636 90.8071C78.1578 89.607 77.5946 88.4422 77.1444 87.2305C76.7464 86.0156 76.4857 84.7597 76.3672 83.4865C76.2174 82.2401 76.2175 81.0117 76.0792 79.8433C75.953 78.6851 75.7314 77.5392 75.4167 76.4176C74.859 74.2988 73.9235 72.2986 72.6554 70.5135L72.641 70.4933V70.489C71.6963 69.0156 70.4474 67.7621 68.9785 66.813C67.5097 65.8639 65.8551 65.2412 64.1259 64.9868C61.4367 64.6094 58.7002 65.1825 56.3871 66.6077C54.892 67.5042 53.6012 68.705 52.5981 70.1324C51.9124 71.124 51.6617 71.7245 51.625 71.7072C51.8497 71.1262 52.1398 70.5727 52.4894 70.0574C53.4615 68.5717 54.7463 67.3174 56.2538 66.3825C58.6093 64.8782 61.4182 64.253 64.1878 64.6166C65.9805 64.8625 67.6994 65.4927 69.2273 66.464C70.7553 67.4354 72.0563 68.7252 73.042 70.2457L73.0241 70.2219C74.3451 72.0498 75.3215 74.1042 75.905 76.284C76.2316 77.4301 76.4628 78.6013 76.5963 79.7856C76.7462 81.0002 76.7462 82.217 76.896 83.4302C77.0125 84.6596 77.2649 85.8722 77.6485 87.0458C78.0871 88.2207 78.6511 89.3819 79.1408 90.6059C79.6768 91.8504 79.9845 93.1815 80.049 94.5354C80.0262 95.9018 79.871 97.2627 79.5859 98.5991C79.2258 100.491 78.7585 102.324 78.4243 104.145C78.0798 105.93 77.923 107.747 77.9568 109.564C77.9623 113.008 79.0293 116.365 81.0119 119.178C81.9454 120.464 83.1135 121.56 84.4545 122.41C85.7578 123.173 87.1203 123.828 88.5288 124.371C89.8648 124.89 91.1525 125.527 92.3769 126.273C93.4998 126.986 94.5227 127.847 95.4184 128.832C96.9813 130.52 98.0463 132.61 98.4952 134.869C98.87 136.562 98.8224 138.322 98.3568 139.993C98.0429 141.04 97.5019 142.004 96.7724 142.817C96.525 143.106 96.2429 143.364 95.9326 143.584Z" fill="#4D5A64"/>
        <path d="M65.7891 130.815C66.9563 129.451 68.3149 128.263 69.8223 127.29C68.6551 128.654 67.2965 129.841 65.7891 130.815Z" fill="#FAFAFA"/>
        <path d="M63.1081 123.919L38.2607 126.95C38.2607 126.95 18.2661 130.593 14.248 145.597C11.4723 155.96 5.72719 175.258 2.43654 186.214C1.74882 188.504 1.8805 190.962 2.80895 193.165C3.73741 195.368 5.40422 197.177 7.52182 198.28C9.93298 199.536 12.7434 199.781 15.3346 198.96C17.9259 198.14 20.0857 196.322 21.3392 193.906C21.4486 193.695 21.5507 193.481 21.6453 193.263L32.5127 168.204C32.5127 168.204 36.3428 176.956 36.1224 181.097C35.902 185.237 27.0764 200.856 27.0764 200.856C45.4304 211.402 64.2222 206.528 78.7288 199.937L78.0914 163.472C78.0914 163.472 84.9204 198.808 98.7529 196.117C110.348 193.862 102.714 171.219 98.7529 162.554C93.702 151.507 87.1113 135.748 82.9607 131.949C71.8413 121.761 63.1081 123.919 63.1081 123.919Z" fill="#E8505B"/>
        <g opacity="0.2">
            <g opacity="0.2">
                <g opacity="0.2">
                    <path opacity="0.2" d="M40.1471 129.391C38.5523 131.684 36.6464 133.742 34.4842 135.507C33.1395 136.826 31.5732 137.896 29.8575 138.669C28.995 139.047 28.0533 139.209 27.1142 139.14C26.1751 139.071 25.2671 138.773 24.4689 138.273C22.945 137.174 22.3464 134.781 23.5326 133.323C24.3169 132.359 25.6089 132.008 26.8139 131.711L38.8854 128.729" fill="black"/>
                </g>
            </g>
        </g>
        <path d="M8.45996 175.547C9.44696 174.695 10.6168 174.083 11.8785 173.759C13.1402 173.434 14.4596 173.406 15.734 173.676C13.1881 173.655 10.6808 174.299 8.45996 175.547Z" fill="#2E353A"/>
        <path d="M11.7402 172.111C12.5538 171.686 13.4731 171.506 14.3865 171.594C15.2999 171.682 16.1682 172.033 16.8862 172.606C15.2558 171.942 13.467 171.769 11.7402 172.111Z" fill="#2E353A"/>
        <g opacity="0.2">
            <g opacity="0.2">
                <g opacity="0.2">
                    <path opacity="0.2" d="M16.6752 173.96C15.5859 173.433 14.3781 173.2 13.1714 173.284C11.9646 173.368 10.8007 173.765 9.7943 174.438C9.37801 174.727 8.85218 175.069 8.41717 174.813C8.00016 174.568 8.0253 173.936 8.25505 173.511C8.80601 172.496 10.0636 172.112 11.208 171.995C13.2867 171.781 15.385 172.119 17.2924 172.974" fill="black"/>
                </g>
            </g>
        </g>
        <g opacity="0.2">
            <g opacity="0.2">
                <g opacity="0.2">
                    <path opacity="0.2" d="M57.0623 157.221C55.7537 159.862 51.9898 161.515 50.2282 164.396C48.7402 166.828 48.1858 169.696 47.2898 172.407C44.7655 179.938 39.5729 186.28 32.6953 190.233C34.0575 187.646 35.1641 184.931 35.999 182.129C36.1806 180.42 35.9288 178.693 35.2672 177.108C36.1214 174.483 39.8551 170.857 41.5663 168.69C43.5295 166.024 45.7545 163.562 48.208 161.341C50.6822 159.112 53.7669 157.679 57.063 157.227" fill="black"/>
                </g>
            </g>
        </g>
        <path d="M87.7878 174.376C87.8366 175.087 87.8205 175.802 87.7397 176.51C87.6727 177.822 87.5235 179.634 87.6071 181.623C87.7511 185.634 89.2988 188.598 89.1476 188.644C89.1238 188.656 89.0201 188.479 88.8479 188.15C88.613 187.683 88.4045 187.203 88.2236 186.713C87.6271 185.085 87.287 183.374 87.2153 181.641C87.1696 179.919 87.2524 178.196 87.4631 176.486C87.5058 175.774 87.6145 175.068 87.7878 174.376Z" fill="#2E353A"/>
        <path d="M58.4759 147.313C58.4759 147.313 61.0953 148.476 63.14 149.413C66.3688 150.896 67.4448 148.201 67.4448 148.201L58.4687 141.699C57.2832 140.858 55.8703 140.399 54.4182 140.384C52.966 140.368 51.5436 140.796 50.3404 141.611C49.6062 142.116 48.9713 142.752 48.4678 143.488L42.0449 152.637L7.09802 180.566C1.63448 184.935 1.45076 192.311 6.98057 196.601C9.00366 198.179 11.5505 198.925 14.1032 198.688C16.6559 198.452 19.0228 197.249 20.7223 195.326L49.4178 162.85L53.1233 159.989L57.4821 156.82C57.4821 156.82 60.7403 154.459 58.0583 152.064C57.1897 151.289 58.8626 151.304 59.0312 150.181C59.1183 149.595 58.9477 149.489 57.925 148.775C57.925 148.773 59.5267 148.809 58.4759 147.313Z" fill="#B78876"/>
        <path d="M58.3876 148.075C58.3408 148.108 58.1328 147.859 57.7885 147.475C57.3725 146.978 56.8412 146.59 56.2414 146.346C55.9464 146.249 55.6333 146.22 55.3256 146.262C55.0179 146.304 54.724 146.416 54.4661 146.59C54.0729 146.872 53.9864 147.201 53.923 147.18C53.8834 147.185 53.8683 146.785 54.2896 146.378C54.5707 146.136 54.9103 145.971 55.2748 145.901C55.6392 145.83 56.0158 145.857 56.3667 145.978C57.0355 146.239 57.607 146.702 58.0023 147.302C58.3048 147.748 58.4293 148.048 58.3876 148.075Z" fill="#996552"/>
        <path d="M53.9104 150.341C53.8737 150.311 54.0005 150.058 54.3505 149.777C54.818 149.412 55.3942 149.215 55.9866 149.218C56.5791 149.22 57.1538 149.422 57.6182 149.791C57.9661 150.074 58.0913 150.328 58.0502 150.357C58.0092 150.386 57.8119 150.218 57.4605 150.017C57.0129 149.751 56.5022 149.609 55.9815 149.607C55.4609 149.605 54.9493 149.743 54.4996 150.006C54.1496 150.206 53.9543 150.383 53.9104 150.341Z" fill="#996552"/>
        <path d="M53.9104 152.989C53.8737 152.96 54.0005 152.707 54.3505 152.426C54.818 152.061 55.3941 151.864 55.9866 151.866C56.5792 151.869 57.1538 152.071 57.6182 152.439C57.9661 152.723 58.0913 152.976 58.0502 153.006C58.0092 153.035 57.8119 152.867 57.4605 152.666C57.013 152.399 56.5022 152.258 55.9815 152.256C55.4609 152.254 54.9492 152.391 54.4996 152.654C54.1496 152.851 53.9543 153.029 53.9104 152.989Z" fill="#996552"/>
        <path d="M83.9355 139.813L86.4002 142.489C86.4002 142.489 87.2234 180.363 88.6595 185.508C90.0956 190.653 98.5198 199.299 103.038 192.3C107.556 185.301 96.2606 140.634 96.2606 140.634C96.2606 140.634 93.1795 130.343 92.9736 127.873L83.9355 139.813Z" fill="#B78876"/>
        <path d="M89.5932 117.878L88.6201 144.041C88.5861 144.96 88.3202 145.856 87.8471 146.644C87.3741 147.432 86.7092 148.087 85.9149 148.548L78.0509 153.106C77.556 153.393 76.9944 153.544 76.4225 153.545C75.8507 153.545 75.2889 153.395 74.7936 153.108C74.2983 152.822 73.887 152.41 73.6011 151.914C73.3152 151.417 73.1648 150.854 73.165 150.281V126.058C73.165 125.382 73.3453 124.719 73.6873 124.138C74.0292 123.556 74.5203 123.077 75.1096 122.749L86.8801 116.209C87.1632 116.053 87.4829 115.974 87.8063 115.981C88.1298 115.989 88.4453 116.082 88.721 116.252C88.9967 116.422 89.2225 116.661 89.3755 116.947C89.5284 117.233 89.6032 117.554 89.5918 117.878H89.5932Z" fill="#455A64"/>
        <path d="M80.5499 124.774C80.3462 125.189 80.3152 125.667 80.4638 126.105C80.6123 126.543 80.9282 126.903 81.3421 127.108C81.756 127.312 82.2339 127.343 82.6707 127.194C83.1074 127.045 83.4674 126.729 83.6713 126.314C83.875 125.899 83.906 125.42 83.7575 124.983C83.6089 124.545 83.2929 124.184 82.879 123.98C82.4651 123.776 81.9872 123.745 81.5504 123.894C81.1136 124.043 80.7538 124.359 80.5499 124.774Z" fill="#FAFAFA"/>
        <path d="M92.974 127.876C92.974 127.876 87.1511 119.793 85.8591 119.86C84.567 119.926 78.3119 123.675 78.5848 124.493C78.8578 125.311 80.1492 125.788 81.3052 125.243C82.4611 124.698 84.5006 122.721 84.9781 123.13C85.4556 123.54 86.814 124.97 86.814 124.97C86.814 124.97 81.0645 127.911 80.6266 129.058C80.1772 130.232 79.1293 132.261 80.4905 133.01C81.3771 133.499 82.8025 132.942 83.3469 130.629C83.3469 130.629 82.2587 133.967 83.9397 134.785C85.7481 135.665 86.3048 133.81 87.7662 131.991C88.9956 130.46 89.5481 132.409 89.5481 132.409L92.974 127.876Z" fill="#AA8776"/>
        <path d="M88.5657 127.945C88.2136 128.005 87.8576 128.04 87.5005 128.048C86.6637 128.142 85.8606 128.432 85.1554 128.893C84.4502 129.354 83.8623 129.974 83.4391 130.703C83.2869 131.028 83.1117 131.342 82.9147 131.641C82.905 131.267 83.0026 130.897 83.1957 130.577C83.581 129.758 84.1853 129.063 84.9416 128.569C85.6978 128.074 86.5762 127.8 87.4788 127.776C87.8498 127.728 88.2266 127.787 88.5657 127.945Z" fill="#996552"/>
        <path d="M39.5261 74.7908L39.5326 78.161L39.3165 128.622C39.2913 134.48 44.2974 139.167 50.5575 139.146C56.8796 139.125 62.1004 134.315 62.225 128.398C62.3546 122.187 62.6039 115.648 62.6039 115.648C62.6039 115.648 70.6127 114.462 72.4522 104.051C73.3668 98.8762 73.2573 90.3575 72.944 83.3918C72.8799 81.9454 72.5322 80.5259 71.9206 79.2141C71.309 77.9024 70.4456 76.7242 69.3796 75.7469C68.3137 74.7695 67.066 74.0122 65.7079 73.518C64.3498 73.0239 62.9079 72.8026 61.4645 72.8668C61.3065 72.8736 61.1488 72.8839 60.9913 72.8978L39.5261 74.7908Z" fill="#B78876"/>
        <path d="M70.4912 89.7493C70.4883 90.0982 70.3494 90.4323 70.1042 90.6802C69.8591 90.9281 69.5272 91.0702 69.179 91.0764C68.8408 91.0976 68.508 90.9833 68.254 90.7586C67.9999 90.5339 67.8453 90.2174 67.8242 89.8785C67.8242 89.8677 67.8242 89.8561 67.8242 89.8453C67.827 89.4964 67.9655 89.1623 68.2103 88.9142C68.4552 88.6661 68.7869 88.5234 69.1351 88.5166C69.3027 88.5062 69.4709 88.5289 69.6298 88.5836C69.7888 88.6382 69.9352 88.7237 70.0612 88.8352C70.1871 88.9466 70.29 89.0819 70.3638 89.2331C70.4375 89.3844 70.4809 89.5488 70.4912 89.7169C70.4898 89.7277 70.4905 89.7385 70.4912 89.7493Z" fill="#2E353A"/>
        <path d="M71.0186 87.7921C70.8493 87.9632 69.8505 87.1924 68.4129 87.1736C66.9775 87.131 65.9087 87.8527 65.7561 87.6737C65.684 87.5944 65.8554 87.2826 66.32 86.9521C66.9498 86.5311 67.6942 86.3158 68.4511 86.3357C69.1988 86.346 69.9239 86.5948 70.521 87.0459C70.9567 87.3966 71.1 87.7149 71.0186 87.7921Z" fill="#2E353A"/>
        <path d="M56.8711 89.5043C56.868 89.8534 56.729 90.1874 56.4838 90.4352C56.2386 90.6831 55.9065 90.8253 55.5582 90.8315C55.22 90.8524 54.8874 90.7379 54.6335 90.5131C54.3796 90.2883 54.225 89.9716 54.2041 89.6328C54.2041 89.622 54.2041 89.6112 54.2041 89.6004C54.2067 89.2513 54.3452 88.917 54.5901 88.6687C54.8349 88.4205 55.1667 88.2778 55.5149 88.271C55.8537 88.2501 56.1869 88.3648 56.4412 88.59C56.6956 88.8152 56.8502 89.1325 56.8711 89.4719C56.8697 89.4827 56.8704 89.4935 56.8711 89.5043Z" fill="#2E353A"/>
        <path d="M56.8796 87.8086C56.7104 87.9797 55.7092 87.209 54.2731 87.1902C52.8377 87.1476 51.7689 87.87 51.6155 87.6903C51.5435 87.6109 51.7134 87.2992 52.1801 86.9686C52.8098 86.5479 53.5539 86.3326 54.3105 86.3523C55.0585 86.3623 55.7839 86.6111 56.3811 87.0625C56.8169 87.4132 56.9624 87.7314 56.8796 87.8086Z" fill="#2E353A"/>
        <path d="M61.9082 98.5861C62.6699 98.3613 63.4569 98.2333 64.2505 98.205C64.6178 98.1733 64.9706 98.1069 65.0333 97.8572C65.0711 97.4778 64.9927 97.096 64.8086 96.7624C64.4792 95.8661 64.1337 94.9259 63.7722 93.942C62.3318 89.9266 61.3026 86.6278 61.4675 86.5715C61.6325 86.5152 62.9253 89.7216 64.3628 93.7392C64.7076 94.7293 65.0377 95.6748 65.3531 96.5754C65.5767 97.0234 65.6351 97.5362 65.5181 98.0231C65.4624 98.1516 65.3783 98.2656 65.2721 98.3567C65.1659 98.4477 65.0404 98.5133 64.9051 98.5485C64.7005 98.5986 64.4906 98.6228 64.28 98.6207C63.4912 98.7099 62.6941 98.6982 61.9082 98.5861Z" fill="#2E353A"/>
        <path d="M62.6013 115.652C57.6946 115.64 52.8873 114.264 48.7148 111.677C48.7148 111.677 51.9732 118.909 62.4177 118.118L62.6013 115.652Z" fill="#996552"/>
        <path d="M61.2387 102.049C60.9712 101.699 60.6194 101.423 60.2162 101.247C59.813 101.071 59.3718 101.001 58.934 101.043C58.6167 101.066 58.3073 101.153 58.0244 101.299C57.7415 101.445 57.491 101.647 57.2877 101.892C57.091 102.128 56.9715 102.42 56.9457 102.727C56.9199 103.033 56.989 103.341 57.1435 103.607C57.3699 103.869 57.6695 104.058 58.0037 104.15C58.3379 104.241 58.6916 104.23 59.0197 104.118C59.703 103.889 60.3344 103.527 60.8772 103.052C61.0414 102.939 61.1832 102.797 61.295 102.632C61.3494 102.554 61.3791 102.461 61.3804 102.365C61.3817 102.27 61.3545 102.176 61.3022 102.096" fill="#996552"/>
        <path d="M57.6605 99.507C57.8945 99.4969 57.87 101.061 59.1858 102.195C60.5016 103.328 62.166 103.186 62.1739 103.405C62.1941 103.503 61.7994 103.705 61.0936 103.705C60.179 103.702 59.2951 103.375 58.5968 102.783C57.9279 102.215 57.5054 101.408 57.4185 100.533C57.3724 99.8801 57.5531 99.4983 57.6605 99.507Z" fill="#2E353A"/>
        <path d="M26.9746 133.632C31.1077 133.944 35.2052 132.674 38.4401 130.078C41.675 127.481 43.8063 123.751 44.4037 119.641C44.489 118.929 44.6487 118.227 44.8799 117.548C46.0308 114.467 46.1685 111.097 45.273 107.931C44.8863 106.47 44.3325 104.87 44.9943 103.513C45.4747 102.528 46.4831 101.938 47.3078 101.217C49.1304 99.5157 50.2308 97.1779 50.3815 94.6868C50.5178 92.2138 50.1102 89.741 49.1874 87.4433C48.715 86.1681 48.1395 84.773 48.6198 83.505C49.0569 82.647 49.6908 81.905 50.4694 81.34C51.9787 79.9768 53.2333 78.3548 54.1743 76.5502C55.1285 74.7178 55.7458 72.3378 53.2575 70.885C52.7311 70.5884 52.1542 70.3926 51.5563 70.3076C47.1522 69.6235 41.9011 70.2809 38.9525 73.758C36.5484 76.5884 36.2071 80.583 35.9744 84.291C35.2427 95.9765 15.9359 117.686 23.4002 133.69L26.9746 133.632Z" fill="#2E353A"/>
        <path d="M57.3504 82.1683C57.2006 82.5573 55.766 82.3459 54.0792 82.5198C52.3846 82.6591 51.016 83.1304 50.7978 82.7746C50.7013 82.6042 50.9477 82.2405 51.5015 81.871C52.2432 81.4193 53.0779 81.1429 53.9421 81.0629C54.8063 80.9828 55.6773 81.1012 56.489 81.4091C57.1084 81.6703 57.4145 81.9835 57.3504 82.1683Z" fill="#2E353A"/>
        <path d="M70.5624 83.6125C70.3031 83.9351 69.3194 83.5771 68.1288 83.5403C66.9398 83.4617 65.925 83.7208 65.6995 83.3744C65.6009 83.2062 65.765 82.8815 66.2116 82.5805C66.8104 82.2201 67.5025 82.0458 68.2002 82.0799C68.898 82.1139 69.5698 82.3547 70.1309 82.7717C70.5443 83.1152 70.6762 83.4559 70.5624 83.6125Z" fill="#2E353A"/>
        <path d="M177.388 56.9303C177.993 55.5823 178.964 54.4315 180.189 53.6084C181.414 52.7852 182.845 52.3227 184.32 52.2734C185.794 52.2241 187.253 52.59 188.53 53.3294C189.808 54.0689 190.852 55.1524 191.546 56.4569C192.364 57.9984 192.687 59.8358 193.869 61.1211C194.633 61.9011 195.648 62.3848 196.734 62.4865C197.821 62.5882 198.908 62.3014 199.803 61.6768C200.012 62.6227 199.874 63.6126 199.414 64.4647C198.953 65.3167 198.202 65.9737 197.297 66.3151L200.195 66.6131C198.631 70.0331 194.348 71.5999 190.645 70.9316C186.941 70.2634 183.795 67.8096 181.275 65.0189" fill="#263238"/>
        <path d="M177.409 56.9778L186.352 59.9122C189.534 61.9855 191.952 65.0438 193.239 68.6214C193.658 69.831 193.943 71.0888 194.472 72.2543C194.95 73.4565 195.845 74.4453 196.992 75.0386C197.851 75.4233 198.828 75.4673 199.708 75.7942C200.449 76.0882 201.108 76.5565 201.631 77.1593C202.153 77.7622 202.523 78.4821 202.709 79.2583C202.883 80.0366 202.901 80.8416 202.761 81.6268C202.622 82.4119 202.329 83.1616 201.899 83.8323C201.382 84.4417 201.029 85.1733 200.873 85.9577C200.908 86.496 201.018 87.0269 201.201 87.5346C201.414 88.4344 201.335 89.379 200.974 90.2305C200.614 91.082 199.992 91.7959 199.198 92.2681C198.405 92.7404 197.481 92.9462 196.563 92.8556C195.644 92.7649 194.779 92.3826 194.092 91.7643C193.52 93.0785 192.759 94.4345 191.464 95.0544C190.169 95.6744 188.257 95.1201 187.989 93.7078C187.663 94.3903 187.121 94.9457 186.447 95.2875C185.773 95.6292 185.006 95.738 184.264 95.5971C183.522 95.4562 182.847 95.0735 182.345 94.5084C181.843 93.9434 181.541 93.2278 181.487 92.4731L156.977 65.6842C160.634 55.8859 174.937 56.7519 177.409 56.9778Z" fill="#263238"/>
        <path d="M181.556 66.297C182.317 66.3757 183.02 66.7377 183.527 67.3114C184.034 67.885 184.307 68.6284 184.293 69.3945L182.565 110.642C182.499 115.514 173.656 121.273 168.438 121.164C163.168 121.053 164.717 115.462 164.641 110.829C164.514 103.087 164.517 100.181 164.514 100.225C164.514 100.225 157.855 99.1205 156.475 90.4373C155.79 86.1187 156.007 79.039 156.371 73.2511C156.699 68.042 160.154 61.6515 165.346 62.2L181.556 66.297Z" fill="#FFBE9D"/>
        <path d="M158.626 78.8725C158.625 79.163 158.736 79.4429 158.936 79.6527C159.137 79.8624 159.411 79.9856 159.701 79.9961C159.983 80.0189 160.262 79.9286 160.477 79.7452C160.692 79.5619 160.826 79.3004 160.848 79.0183C160.848 79.0096 160.848 79.0009 160.848 78.9923C160.85 78.7026 160.739 78.4236 160.539 78.2142C160.339 78.0049 160.066 77.8814 159.777 77.87C159.638 77.8582 159.497 77.874 159.364 77.9166C159.23 77.9593 159.106 78.0278 158.999 78.1185C158.892 78.2091 158.804 78.32 158.74 78.4448C158.676 78.5696 158.637 78.7059 158.625 78.8458C158.626 78.8544 158.626 78.8638 158.626 78.8725Z" fill="#263238"/>
        <path d="M157.905 76.9342C158.044 77.0785 158.888 76.4549 160.087 76.4586C161.285 76.4448 162.165 77.0611 162.295 76.9146C162.361 76.849 162.218 76.5863 161.836 76.3084C161.317 75.949 160.7 75.759 160.069 75.7643C159.446 75.7616 158.838 75.9578 158.332 76.3243C157.962 76.6072 157.838 76.87 157.905 76.9342Z" fill="#263238"/>
        <path d="M170.347 78.8722C170.345 79.1627 170.456 79.4425 170.657 79.6521C170.857 79.8618 171.132 79.9848 171.421 79.9952C171.561 80.0064 171.701 79.9901 171.834 79.947C171.967 79.9039 172.091 79.8349 172.197 79.744C172.304 79.6531 172.391 79.5422 172.455 79.4173C172.519 79.2925 172.557 79.1563 172.569 79.0166C172.569 79.0087 172.569 79 172.569 78.992C172.571 78.7015 172.46 78.4216 172.259 78.2117C172.059 78.0017 171.784 77.8783 171.495 77.8676C171.213 77.8451 170.934 77.9356 170.719 78.1192C170.504 78.3029 170.37 78.5647 170.347 78.847C170.347 78.8549 170.347 78.8635 170.347 78.8722Z" fill="#263238"/>
        <path d="M169.69 77.1575C169.829 77.3019 170.673 76.6783 171.872 76.6819C173.069 76.6675 173.95 77.2845 174.079 77.1373C174.145 77.0716 174.007 76.8089 173.621 76.5318C173.102 76.1722 172.485 75.9819 171.854 75.9869C171.231 75.9848 170.623 76.1809 170.117 76.5469C169.749 76.8298 169.623 77.0926 169.69 77.1575Z" fill="#263238"/>
        <path d="M165.339 86.0445C164.708 85.8466 164.055 85.7284 163.394 85.693C163.088 85.6613 162.799 85.6014 162.746 85.3921C162.72 85.0759 162.792 84.7594 162.951 84.4849L163.856 82.1553C165.113 78.8356 166.023 76.1113 165.888 76.0608C165.754 76.0103 164.627 78.6588 163.368 81.9785C163.066 82.7964 162.777 83.5778 162.503 84.3226C162.311 84.6916 162.254 85.1169 162.345 85.5234C162.389 85.6316 162.458 85.7282 162.545 85.8058C162.633 85.8833 162.736 85.9398 162.849 85.9709C163.019 86.0167 163.193 86.041 163.369 86.043C164.023 86.1268 164.685 86.1273 165.339 86.0445Z" fill="#263238"/>
        <path d="M164.511 100.224C168.601 100.286 172.628 99.2117 176.146 97.1206C176.146 97.1206 173.323 103.085 164.628 102.273L164.511 100.224Z" fill="#EB996E"/>
        <path d="M165.846 88.9326C166.074 88.6453 166.372 88.421 166.711 88.2807C167.049 88.1405 167.418 88.0889 167.782 88.1309C168.047 88.1546 168.303 88.2314 168.537 88.3569C168.771 88.4824 168.977 88.6539 169.144 88.8612C169.304 89.0608 169.399 89.3048 169.416 89.5603C169.433 89.8158 169.371 90.0703 169.239 90.2894C169.046 90.5052 168.793 90.6582 168.512 90.7291C168.232 90.7999 167.937 90.7853 167.665 90.6871C167.099 90.4866 166.579 90.1759 166.133 89.7727C165.998 89.677 165.882 89.5567 165.79 89.4183C165.746 89.3523 165.723 89.2747 165.723 89.1953C165.723 89.1159 165.746 89.0383 165.79 88.9724" fill="#EB996E"/>
        <path d="M168.867 86.8737C168.671 86.8621 168.671 88.1625 167.556 89.0863C166.441 90.01 165.057 89.8657 165.047 90.0483C165.029 90.1299 165.356 90.3017 165.941 90.3168C166.703 90.3276 167.444 90.0693 168.035 89.5872C168.602 89.1248 168.967 88.4591 169.052 87.7317C169.103 87.1883 168.959 86.8657 168.867 86.8737Z" fill="#263238"/>
        <path d="M169.153 75.0577C169.271 75.3861 170.468 75.2295 171.875 75.3991C173.285 75.5434 174.42 75.9519 174.606 75.6618C174.69 75.5218 174.492 75.2151 174.03 74.8997C173.417 74.5131 172.725 74.271 172.005 74.1917C171.286 74.1125 170.557 74.1982 169.876 74.4422C169.361 74.6508 169.1 74.9055 169.153 75.0577Z" fill="#263238"/>
        <path d="M158.345 73.4678C158.556 73.7399 159.382 73.4569 160.378 73.4439C161.37 73.3956 162.214 73.6265 162.406 73.3422C162.491 73.2036 162.359 72.9308 161.991 72.6732C161.497 72.3642 160.922 72.209 160.34 72.227C159.758 72.245 159.195 72.4354 158.721 72.7742C158.369 73.0528 158.254 73.3365 158.345 73.4678Z" fill="#263238"/>
        <path d="M183.331 80.1851C183.683 79.9929 184.082 79.9017 184.482 79.9216C184.883 79.9416 185.271 80.072 185.602 80.2984C186.407 80.7643 187.026 81.4956 187.354 82.3677C187.681 83.2398 187.696 84.1987 187.396 85.0807C187.097 85.9628 186.501 86.7133 185.711 87.2044C184.921 87.6954 183.985 87.8966 183.063 87.7736" fill="#FFBE9D"/>
        <path d="M169.672 59.3081C166.503 59.4134 164.104 60.3755 161.325 61.8954C159.916 62.6243 158.664 63.6246 157.642 64.8389C156.619 66.0533 155.846 67.4578 155.366 68.9721C155.244 69.2856 155.188 69.6209 155.2 69.9571C155.212 70.2934 155.293 70.6236 155.438 70.9272C155.714 71.2765 156.102 71.5187 156.537 71.6124C156.972 71.7062 157.425 71.6456 157.82 71.441C158.599 71.0093 159.264 70.3968 159.759 69.6549C159.968 70.4593 160.439 71.1705 161.099 71.6753C161.758 72.18 162.567 72.4491 163.397 72.4399C164.226 72.4307 165.029 72.1436 165.677 71.6244C166.325 71.1052 166.781 70.3837 166.972 69.5748C167.042 70.4078 167.428 71.1821 168.051 71.7377C168.675 72.2933 169.487 72.5876 170.321 72.5596C171.154 72.4871 171.948 72.1724 172.605 71.6542C173.262 71.136 173.753 70.4369 174.019 69.6426C174.226 71.147 174.747 72.591 175.547 73.881C176.434 75.1079 178.038 75.9515 179.481 75.4824C179.168 76.7604 179.187 78.0976 179.538 79.3659C179.997 80.5927 181.361 81.5864 182.601 81.1606C183.804 80.7471 184.272 79.3211 184.553 78.0819C185.171 75.7056 185.484 73.2601 185.485 70.8045C185.564 68.2733 184.743 65.7961 183.167 63.8163C181.591 61.8365 179.363 60.4833 176.882 59.9988C174.404 59.4295 171.86 59.1981 169.32 59.311" fill="#263238"/>
        <path d="M183.938 85.1846C183.963 85.1233 184.276 85.2567 184.695 85.0655C184.95 84.9182 185.157 84.6993 185.289 84.4358C185.422 84.1722 185.474 83.8755 185.44 83.5824C185.437 83.2854 185.348 82.9956 185.184 82.7485C185.019 82.5013 184.787 82.3074 184.514 82.1903C184.082 82.012 183.759 82.0994 183.741 82.0323C183.71 81.9897 184.037 81.7588 184.61 81.888C184.942 81.9689 185.24 82.1546 185.459 82.4177C185.723 82.7418 185.875 83.1429 185.891 83.5608C185.934 83.9396 185.851 84.322 185.655 84.6484C185.458 84.9749 185.159 85.2268 184.804 85.365C184.212 85.5202 183.891 85.2192 183.938 85.1846Z" fill="#EB996E"/>
        <path d="M184.197 88.8315C184.823 88.8315 185.33 88.3246 185.33 87.6992C185.33 87.0739 184.823 86.5669 184.197 86.5669C183.572 86.5669 183.064 87.0739 183.064 87.6992C183.064 88.3246 183.572 88.8315 184.197 88.8315Z" fill="#E8505B"/>
        <path d="M177.525 56.5382C177.979 56.3839 178.46 56.3287 178.936 56.3766C180.095 56.4315 181.224 56.7629 182.229 57.3433C183.234 57.9236 184.086 58.736 184.715 59.713C184.994 60.1024 185.187 60.5473 185.281 61.0177C185.225 61.0423 185.014 60.5429 184.514 59.8486C183.858 58.9484 183.022 58.1958 182.058 57.6394C181.095 57.0831 180.025 56.7352 178.92 56.6183C178.07 56.5332 177.533 56.5981 177.525 56.5382Z" fill="#E8505B"/>
        <path d="M182.068 56.5435C182.043 56.4545 182.032 56.3618 182.037 56.2693C182.042 56.0033 182.098 55.7407 182.203 55.4964C182.416 55.0513 182.73 54.6622 183.119 54.3601C183.509 54.058 183.963 53.8513 184.447 53.7564C185.686 53.4179 187.255 54.0545 188.345 55.2554C188.918 55.8852 189.394 56.5968 189.758 57.3669C190.144 58.155 190.458 59.0096 190.792 59.8633C191.097 60.6968 191.469 61.5037 191.906 62.2758C192.319 62.9808 192.854 63.6065 193.485 64.1234C194.049 64.5915 194.726 64.9007 195.448 65.019C196.078 65.1101 196.72 65.0203 197.3 64.7599C198.155 64.3756 198.847 63.7007 199.253 62.8546C199.379 62.5329 199.486 62.204 199.573 61.8695C199.587 61.9603 199.585 62.0528 199.568 62.1431C199.536 62.4046 199.471 62.6611 199.375 62.9066C198.995 63.818 198.292 64.5558 197.4 64.9771C196.781 65.2736 196.09 65.3846 195.409 65.2968C194.632 65.1839 193.901 64.863 193.291 64.368C192.623 63.8337 192.057 63.1824 191.621 62.4455C191.17 61.6594 190.788 60.8363 190.477 59.9852C189.829 58.2662 189.196 56.6178 188.117 55.4689C187.083 54.3142 185.649 53.7095 184.499 53.9924C184.043 54.0719 183.611 54.2533 183.235 54.5232C182.859 54.7931 182.549 55.1445 182.327 55.5512C182.189 55.8661 182.101 56.2011 182.068 56.5435Z" fill="#455A64"/>
        <path d="M165.699 69.9514C165.665 69.8761 165.646 69.7955 165.642 69.7133C165.602 69.4829 165.576 69.2504 165.563 69.0169C165.506 68.155 165.56 67.2893 165.723 66.4412C165.963 65.1775 166.412 63.9627 167.051 62.8472C167.838 61.4752 168.911 60.2897 170.198 59.3716C171.49 58.4705 172.937 57.8169 174.466 57.444C175.707 57.1207 176.989 56.9892 178.269 57.0542C179.131 57.0894 179.984 57.2441 180.804 57.5139C181.025 57.5853 181.242 57.6719 181.452 57.773C181.596 57.8387 181.668 57.8799 181.668 57.89C180.562 57.5434 179.416 57.3427 178.258 57.2932C177.005 57.2637 175.754 57.4161 174.544 57.7456C173.059 58.1274 171.653 58.7727 170.394 59.6509C169.148 60.5421 168.102 61.6854 167.324 63.0067C166.689 64.0876 166.229 65.2627 165.962 66.4881C165.747 67.6293 165.659 68.7908 165.699 69.9514Z" fill="#455A64"/>
        <path d="M171.172 69.3678C171.131 69.1448 171.123 68.917 171.148 68.6917C171.177 68.0764 171.261 67.4649 171.401 66.8651C171.855 64.863 172.827 63.0162 174.221 61.5111C175.614 60.0061 177.379 58.896 179.338 58.2929C179.925 58.1072 180.527 57.9753 181.138 57.8989C181.36 57.8556 181.588 57.8462 181.812 57.8708C181.823 57.9364 180.861 58.015 179.415 58.5202C177.527 59.1678 175.829 60.2735 174.472 61.7387C173.115 63.2038 172.141 64.9828 171.636 66.917C171.241 68.4058 171.237 69.3729 171.172 69.3678Z" fill="#455A64"/>
        <path d="M169.675 120.656C167.778 114.83 163.139 108.897 158.042 111.037C152.369 113.419 150.793 116.438 147.683 121.118C144.574 125.797 142.668 131.149 140.791 136.445C140.056 138.515 139.351 140.919 140.473 142.804C141.445 144.432 143.444 145.075 145.275 145.563C150 146.822 154.768 147.9 159.579 148.796C161.507 149.157 163.623 149.457 165.328 148.487C167.489 147.256 168.153 144.499 168.606 142.049L173.356 116.263" fill="#E8505B"/>
        <path d="M164.215 108.242L156.752 111.466C152.98 114.443 151.914 119.54 152.042 124.343L148.938 177.867C148.938 177.867 178.811 194.23 194.863 173.523C195.525 173.156 191.884 163.964 191.884 163.964L198.812 137.675C199.345 133.895 199.672 126.056 198.687 122.339C196.162 112.797 189.409 109.942 182.472 108.031C182.472 108.031 175.533 113.865 168.764 112.636C168.767 112.635 164.638 112.251 164.215 108.242Z" fill="#E8505B"/>
        <g opacity="0.2">
            <g opacity="0.2">
                <g opacity="0.2">
                    <path opacity="0.2" d="M154.194 152.072L167.11 170.827C168.794 173.272 170.543 175.782 173.041 177.381C174.869 178.55 176.997 179.16 179.165 179.137C181.333 179.114 183.448 178.459 185.25 177.251C187.053 176.044 188.466 174.336 189.316 172.338C190.166 170.339 190.417 168.135 190.038 165.996C189.983 165.483 189.784 164.998 189.462 164.596C189.167 164.332 188.806 164.153 188.417 164.079C188.029 164.005 187.628 164.037 187.256 164.174C186.519 164.455 185.812 164.809 185.145 165.232C181.09 167.388 175.94 166.23 172.135 163.655C168.33 161.08 165.542 157.304 162.628 153.747C161.548 152.433 160.374 151.086 158.78 150.5C157.186 149.914 155.07 150.392 154.395 151.954" fill="black"/>
                </g>
            </g>
        </g>
        <path d="M175.946 126.278C178.409 126.278 180.405 124.283 180.405 121.822C180.405 119.361 178.409 117.366 175.946 117.366C173.484 117.366 171.487 119.361 171.487 121.822C171.487 124.283 173.484 126.278 175.946 126.278Z" fill="white"/>
        <path d="M155.164 118.019C155.164 119.204 155.634 120.341 156.47 121.178C157.306 122.016 158.44 122.487 159.622 122.487C160.805 122.487 161.938 122.016 162.774 121.178C163.611 120.341 164.08 119.204 164.08 118.019C164.08 116.835 163.611 115.698 162.774 114.861C161.938 114.023 160.805 113.552 159.622 113.552C158.44 113.552 157.306 114.023 156.47 114.861C155.634 115.698 155.164 116.835 155.164 118.019Z" fill="white"/>
        <path d="M151.566 160.692C151.564 161.576 151.824 162.441 152.313 163.177C152.801 163.913 153.497 164.487 154.312 164.827C155.126 165.166 156.023 165.256 156.888 165.085C157.754 164.914 158.549 164.489 159.173 163.865C159.798 163.241 160.223 162.445 160.396 161.578C160.569 160.711 160.481 159.812 160.144 158.995C159.807 158.179 159.236 157.48 158.503 156.989C157.769 156.498 156.907 156.235 156.025 156.235C155.44 156.235 154.861 156.349 154.32 156.573C153.78 156.797 153.288 157.125 152.874 157.539C152.46 157.953 152.132 158.444 151.907 158.985C151.683 159.526 151.567 160.106 151.566 160.692Z" fill="white"/>
        <path d="M164.082 177.98C166.544 177.98 168.541 175.984 168.541 173.523C168.541 171.062 166.544 169.067 164.082 169.067C161.619 169.067 159.623 171.062 159.623 173.523C159.623 175.984 161.619 177.98 164.082 177.98Z" fill="white"/>
        <path d="M184.865 179.06C187.328 179.06 189.324 177.065 189.324 174.603C189.324 172.142 187.328 170.147 184.865 170.147C182.403 170.147 180.406 172.142 180.406 174.603C180.406 177.065 182.403 179.06 184.865 179.06Z" fill="white"/>
        <path d="M167.257 151.622C169.719 151.622 171.716 149.627 171.716 147.166C171.716 144.705 169.719 142.709 167.257 142.709C164.794 142.709 162.798 144.705 162.798 147.166C162.798 149.627 164.794 151.622 167.257 151.622Z" fill="white"/>
        <path d="M162.799 137.571C165.261 137.571 167.258 135.576 167.258 133.115C167.258 130.653 165.261 128.658 162.799 128.658C160.336 128.658 158.34 130.653 158.34 133.115C158.34 135.576 160.336 137.571 162.799 137.571Z" fill="white"/>
        <path d="M162.798 109.324C163.393 110.395 164.169 111.354 165.092 112.158C166.115 112.998 167.289 113.635 168.55 114.035C170.092 114.531 171.72 114.697 173.33 114.522C174.94 114.317 176.505 113.843 177.958 113.118C179.149 112.528 180.276 111.815 181.32 110.991C182.028 110.437 182.707 109.848 183.356 109.225C183.583 108.983 183.828 108.759 184.09 108.554C183.903 108.83 183.689 109.087 183.451 109.319C182.833 109.984 182.171 110.605 181.47 111.18C180.432 112.044 179.301 112.789 178.097 113.4C176.618 114.159 175.018 114.653 173.37 114.862C171.712 115.043 170.035 114.864 168.453 114.336C167.161 113.911 165.965 113.232 164.936 112.341C164.244 111.743 163.66 111.03 163.208 110.234C163.082 110.02 162.973 109.797 162.88 109.567C162.84 109.491 162.812 109.409 162.798 109.324Z" fill="#263238"/>
        <path d="M185.265 109.02C190.364 111.156 195.67 113.442 199.192 117.703C202.771 122.033 204.017 127.915 203.757 133.525C203.497 139.136 201.867 144.581 200.249 149.96C199.616 152.062 198.766 154.42 196.742 155.276C194.996 156.014 193.006 155.352 191.235 154.664C186.68 152.887 182.197 150.939 177.786 148.818C176.016 147.968 174.135 146.961 173.332 145.172C172.313 142.899 173.412 140.285 174.498 138.044L185.922 114.441" fill="#E8505B"/>
        <path d="M196.143 140.702C198.606 140.702 200.602 138.707 200.602 136.245C200.602 133.784 198.606 131.789 196.143 131.789C193.681 131.789 191.685 133.784 191.685 136.245C191.685 138.707 193.681 140.702 196.143 140.702Z" fill="white"/>
        <path d="M184.335 148.849C186.797 148.849 188.794 146.854 188.794 144.392C188.794 141.931 186.797 139.936 184.335 139.936C181.872 139.936 179.876 141.931 179.876 144.392C179.876 146.854 181.872 148.849 184.335 148.849Z" fill="white"/>
        <path d="M185.515 122.517C185.517 123.677 185.978 124.789 186.798 125.609C187.618 126.428 188.729 126.888 189.887 126.887C191.045 126.888 192.156 126.428 192.976 125.609C193.796 124.789 194.257 123.677 194.259 122.517C194.257 121.356 193.796 120.244 192.976 119.425C192.156 118.605 191.045 118.146 189.887 118.147C188.729 118.145 187.618 118.605 186.798 119.424C185.978 120.244 185.516 121.356 185.515 122.516L185.515 122.517Z" fill="white"/>
        <path d="M176.454 148.132L175.316 152.519L152.66 135.972L145.722 126.091C144.793 124.769 143.389 123.858 141.804 123.549C140.972 123.386 140.115 123.394 139.285 123.573C138.456 123.751 137.671 124.097 136.979 124.589L130.524 129.179C130.524 129.179 130.699 132.661 132.267 131.965C133.835 131.269 136.972 129.527 136.972 129.527L137.843 137.887L141.677 140.674L145.511 143.633L171.092 169.079C172.373 170.352 173.936 171.303 175.654 171.854C177.372 172.405 179.196 172.541 180.976 172.25C182.756 171.959 184.442 171.25 185.896 170.18C187.351 169.111 188.531 167.712 189.342 166.097L193.133 155.312L176.454 148.132Z" fill="#FFBE9D"/>
        <path d="M174.747 151.892C175.116 151.987 175.448 152.191 175.698 152.479C176.347 153.126 176.806 153.939 177.023 154.83C177.234 155.705 177.317 156.607 177.269 157.506C177.288 157.877 177.243 158.25 177.138 158.607C177.05 158.247 177.013 157.877 177.028 157.508C177.005 156.635 176.893 155.767 176.694 154.918C176.485 154.08 176.086 153.303 175.526 152.647C175.087 152.151 174.717 151.941 174.747 151.892Z" fill="#EB996E"/>
        <path d="M136.937 129.958C136.9 129.934 137.009 129.67 137.277 129.281C137.625 128.752 138.128 128.345 138.717 128.116C139.026 128.009 139.357 127.986 139.677 128.047C139.998 128.109 140.296 128.254 140.543 128.468C140.915 128.829 140.904 129.177 140.867 129.172C140.811 129.191 140.736 128.902 140.389 128.654C140.163 128.501 139.904 128.402 139.634 128.365C139.363 128.327 139.088 128.352 138.828 128.438C138.3 128.653 137.833 128.994 137.467 129.431C137.16 129.765 136.978 129.986 136.937 129.958Z" fill="#EB996E"/>
        <path d="M140.991 132.19C140.953 132.225 140.782 132.068 140.47 131.895C140.075 131.663 139.624 131.542 139.166 131.544C138.708 131.546 138.259 131.67 137.866 131.905C137.557 132.081 137.386 132.238 137.347 132.204C137.308 132.17 137.423 131.955 137.73 131.705C138.138 131.381 138.644 131.203 139.165 131.201C139.686 131.199 140.193 131.373 140.604 131.694C140.913 131.942 141.024 132.164 140.991 132.19Z" fill="#EB996E"/>
        <path d="M176.454 148.13C176.305 148.12 176.159 148.085 176.022 148.025C175.617 147.863 175.264 147.595 174.999 147.248C174.58 146.698 174.322 146.042 174.254 145.354C174.192 144.443 174.357 143.53 174.735 142.699C175.107 141.767 175.665 140.829 176.141 139.777C176.647 138.653 177.08 137.498 177.437 136.317C178.214 133.825 178.773 131.001 179.558 128.073C180.224 125.287 181.341 122.63 182.866 120.207C184.147 118.227 185.949 116.639 188.073 115.62C189.499 114.928 191.076 114.607 192.659 114.688C193.235 114.713 193.805 114.821 194.35 115.01C194.341 115.052 193.75 114.86 192.652 114.821C191.1 114.793 189.564 115.142 188.176 115.839C186.113 116.868 184.368 118.439 183.128 120.386C181.639 122.788 180.545 125.415 179.887 128.166C179.107 131.076 178.537 133.907 177.738 136.414C177.37 137.604 176.922 138.767 176.398 139.896C175.903 140.962 175.335 141.887 174.958 142.792C174.582 143.585 174.405 144.457 174.443 145.334C174.494 145.994 174.722 146.627 175.104 147.167C175.347 147.507 175.671 147.78 176.048 147.961C176.305 148.086 176.46 148.11 176.454 148.13Z" fill="#263238"/>
        <path d="M151.31 133.865C151.57 130.057 152.058 126.269 152.77 122.52C152.51 126.327 152.022 130.116 151.31 133.865Z" fill="#263238"/>
        <path d="M141.119 143.622L139.916 153.108L125.481 140.78L117.585 142.69C117.585 142.69 125.723 159.818 132.156 166.603C138.588 173.388 142.056 174.355 144.481 174.458C147.817 174.602 149.342 170.533 149.342 170.533L150.796 146.956L141.119 143.622Z" fill="#FFBE9D"/>
        <path d="M139.972 152.855C140.868 154.337 141.337 156.039 141.327 157.772C140.889 156.129 140.438 154.49 139.972 152.855Z" fill="#EB996E"/>
        <path d="M124.086 116.735H113.219C111.575 116.735 110.107 118.645 110.698 120.205L121.627 141.534C121.834 141.939 122.15 142.28 122.538 142.517C122.926 142.755 123.373 142.88 123.827 142.88L137.075 142.852C137.385 142.816 137.681 142.705 137.937 142.527C138.194 142.349 138.402 142.111 138.545 141.833C138.687 141.555 138.759 141.246 138.754 140.934C138.749 140.621 138.667 140.315 138.516 140.042L127.972 119.162C127.615 118.434 127.062 117.82 126.375 117.391C125.688 116.963 124.895 116.735 124.086 116.735Z" fill="#455A64"/>
        <path d="M123.351 118.019H112.484C112.173 118.019 111.866 118.098 111.594 118.25C111.323 118.403 111.094 118.622 110.932 118.888C110.769 119.154 110.677 119.458 110.664 119.77C110.652 120.081 110.72 120.391 110.861 120.669L121.53 141.534C121.738 141.939 122.053 142.279 122.441 142.517C122.83 142.754 123.276 142.88 123.731 142.88H136.827C137.01 142.88 137.19 142.833 137.35 142.744C137.509 142.655 137.643 142.527 137.739 142.371C137.835 142.215 137.89 142.037 137.898 141.854C137.906 141.671 137.867 141.489 137.785 141.326L127.241 120.445C126.883 119.716 126.33 119.103 125.642 118.674C124.955 118.245 124.161 118.018 123.351 118.019Z" fill="#263238"/>
        <path d="M122.43 126.754L115.818 129.401L114.4 134.741L117.586 142.691L129.272 144.394L125.849 140.889L126.289 137.837C126.289 137.837 129.549 136.813 129.633 136.313C129.716 135.812 129.228 134.136 128.728 134.056C128.229 133.976 124.809 135.251 124.809 135.251C124.809 135.251 128.856 132.041 128.743 131.524C128.63 131.007 128.195 129.69 127.387 129.543C126.578 129.397 120.048 132.481 120.048 132.481L118.987 134.904L118.062 131.028C118.062 131.028 123.866 129.398 122.43 126.754Z" fill="#FFBE9D"/>
        <path d="M123.261 139.274C123.222 139.285 123.098 139.043 123.037 138.617C122.97 138.052 123.037 137.478 123.234 136.944C123.431 136.41 123.752 135.93 124.17 135.545C124.498 135.256 124.746 135.155 124.769 135.19C124.272 135.751 123.862 136.383 123.554 137.066C123.346 137.783 123.247 138.527 123.261 139.274Z" fill="#EB996E"/>
        <path d="M120.119 138.117C120.242 137.544 120.329 136.964 120.381 136.38C120.409 135.728 120.52 135.081 120.714 134.458C120.842 134.076 121.049 133.726 121.323 133.432C121.631 133.13 121.999 132.897 122.404 132.75C123.988 132.173 125.409 131.71 126.452 131.37C127.004 131.159 127.575 131.001 128.157 130.898C127.638 131.184 127.093 131.418 126.529 131.598C125.513 131.992 124.08 132.501 122.53 133.064C122.169 133.194 121.84 133.397 121.562 133.661C121.317 133.921 121.129 134.228 121.008 134.564C120.81 135.16 120.68 135.778 120.62 136.403C120.602 137.008 120.43 137.598 120.119 138.117Z" fill="#EB996E"/>
        <path d="M118.602 136.919C118.509 136.904 118.53 136.318 118.644 135.612C118.758 134.905 118.932 134.346 119.024 134.363C119.115 134.381 119.096 134.964 118.981 135.67C118.867 136.377 118.695 136.934 118.602 136.919Z" fill="#EB996E"/>
        <path d="M118.42 122.044C118.42 122.318 118.501 122.586 118.653 122.815C118.805 123.043 119.022 123.221 119.275 123.326C119.528 123.431 119.806 123.458 120.075 123.405C120.344 123.351 120.59 123.219 120.784 123.025C120.978 122.831 121.11 122.584 121.163 122.314C121.217 122.045 121.189 121.766 121.084 121.512C120.98 121.259 120.802 121.042 120.574 120.89C120.346 120.737 120.079 120.656 119.805 120.656C119.437 120.656 119.085 120.802 118.826 121.062C118.566 121.322 118.42 121.675 118.42 122.044Z" fill="#FAFAFA"/>
        <path d="M145.515 143.634C145.662 143.725 145.797 143.833 145.919 143.955L147 144.927L150.817 148.463L150.867 148.51L150.862 148.582C150.689 150.794 150.488 153.396 150.272 156.178C149.973 160.251 149.739 163.944 149.609 166.618C149.551 167.912 149.503 168.983 149.465 169.784C149.469 170.173 149.443 170.561 149.387 170.946C149.339 170.56 149.321 170.171 149.332 169.782C149.322 169.032 149.328 167.948 149.366 166.607C149.438 163.928 149.628 160.23 149.929 156.152C150.135 153.358 150.357 150.75 150.569 148.555L150.615 148.675L146.883 145.052L145.855 144.021C145.727 143.906 145.613 143.776 145.515 143.634Z" fill="#EB996E"/>
    </g>
    <defs>
        <clipPath id="clip0">
            <rect width="210" height="155" fill="white" transform="translate(2 36)"/>
        </clipPath>
    </defs>
</svg>
