<svg width="488" height="394" viewBox="0 0 488 394" fill="none" xmlns="http://www.w3.org/2000/svg">
<path d="M76.0596 25.4018C85.3608 15.0944 94.7818 7.47737 103.87 3.39048C106.456 2.2008 109.114 1.30349 111.811 0.710984C114.227 0.177573 116.675 -0.0556967 119.123 0.011174C154.068 1.13709 172.052 56.6351 207.308 72.3373C236.862 85.4922 264.207 76.4055 288.121 69.3484C296.039 66.787 304.07 64.8976 312.163 63.6908C314.29 63.4249 316.399 63.2771 318.447 63.2522C320.646 63.2476 322.943 63.3626 325.34 63.6519C325.343 63.6395 325.354 63.6348 325.363 63.6395L325.374 63.6721C355.526 67.1572 399.611 93.9366 410.681 131.666C422.263 171.182 418.214 274.484 324.449 354.818C220.252 444.123 43.1623 359.597 11.0908 290.445C-22.1098 218.932 25.0201 81.9698 76.0596 25.4018Z" fill="#EBEDFE" fill-opacity="0.79"/>
<path fill-rule="evenodd" clip-rule="evenodd" d="M77.4072 297.183L25.0039 308.879L327.505 300.957L279.225 289.216L77.4072 297.183Z" fill="url(#paint0_radial)"/>
<path fill-rule="evenodd" clip-rule="evenodd" d="M25.0039 308.879L29.1219 314.71L322.274 309.838L327.505 300.957L25.0039 308.879Z" fill="url(#paint1_linear)"/>
<path opacity="0.3" fill-rule="evenodd" clip-rule="evenodd" d="M280.934 310.526L284.764 302.207L305.187 301.61L301.315 309.93L280.934 310.526Z" fill="#540041"/>
<path fill-rule="evenodd" clip-rule="evenodd" d="M66.6621 84.4827L71.5421 153.557L277.642 156.335L281.437 83.8218L66.6621 84.4827Z" fill="#E6515B"/>
<path fill-rule="evenodd" clip-rule="evenodd" d="M66.6621 84.4827L71.8314 124.223L279.112 120.078L278.098 147.621L71.0802 147.016L66.6621 84.4827Z" fill="#E6515B"/>
<path fill-rule="evenodd" clip-rule="evenodd" d="M81.3113 289.882L75.209 146.448L273.566 145.819L267.072 290.617L81.3113 289.882Z" fill="#E6515B"/>
<path opacity="0.5" fill-rule="evenodd" clip-rule="evenodd" d="M76.7832 288.403L77.5063 295.248H269.234L269.735 287.837L195.137 289.882L76.7832 288.403Z" fill="#811734"/>
<path fill-rule="evenodd" clip-rule="evenodd" d="M196.602 188.488L220.949 187.541L220.93 196.084H196.628L196.602 188.488Z" fill="#FF9F57"/>
<path opacity="0.2" fill-rule="evenodd" clip-rule="evenodd" d="M96.6973 187.123L118.376 186.28L118.359 193.886H96.7206L96.6973 187.123Z" fill="#811734"/>
<path opacity="0.2" fill-rule="evenodd" clip-rule="evenodd" d="M184.264 198.43L205.942 197.588L205.925 205.194H184.287L184.264 198.43Z" fill="#811734"/>
<path opacity="0.2" fill-rule="evenodd" clip-rule="evenodd" d="M207.277 198.054L229.552 197.188L228.939 204.817H207.301L207.277 198.054Z" fill="#811734"/>
<path fill-rule="evenodd" clip-rule="evenodd" d="M89.1006 200.259L68.9336 159.352H75.2101L91.8811 200.259C91.8796 200.259 90.3882 201.933 89.1006 200.259Z" fill="url(#paint2_radial)"/>
<path fill-rule="evenodd" clip-rule="evenodd" d="M257.197 200.259L277.364 159.352H271.087L254.416 200.259C254.418 200.259 255.909 201.933 257.197 200.259Z" fill="url(#paint3_radial)"/>
<path opacity="0.5" fill-rule="evenodd" clip-rule="evenodd" d="M99.9818 275.209L98.2852 195.794H178.096L176.253 274.279L99.9818 275.209Z" fill="#811734"/>
<path fill-rule="evenodd" clip-rule="evenodd" d="M103.238 271.066L172.522 270.339L174.122 199.733L102.252 199.763L103.238 271.066Z" fill="#D8DBEE"/>
<path opacity="0.5" fill-rule="evenodd" clip-rule="evenodd" d="M178.095 195.794H179.403L178.095 274.279H176.252L178.095 195.794Z" fill="#811734"/>
<path opacity="0.5" fill-rule="evenodd" clip-rule="evenodd" d="M103.238 271.066L102.252 199.763L103.983 199.733V271.066H103.238Z" fill="#811734"/>
<path opacity="0.5" fill-rule="evenodd" clip-rule="evenodd" d="M195.104 294.828L195.693 212.091L249.25 212.809L245.261 295.248L195.104 294.828Z" fill="#811734"/>
<path fill-rule="evenodd" clip-rule="evenodd" d="M198.828 295.248L200.256 216.619H245.121L241.624 295.248H198.828Z" fill="url(#paint4_linear)"/>
<path opacity="0.5" fill-rule="evenodd" clip-rule="evenodd" d="M245.122 216.619H243.205L240.098 295.233L241.625 295.248L245.122 216.619Z" fill="#811734"/>
<path fill-rule="evenodd" clip-rule="evenodd" d="M203.955 279.37V220.535H240.134L237.016 279.37H203.955Z" fill="#D8DBEE"/>
<path fill-rule="evenodd" clip-rule="evenodd" d="M270.681 210.164L272.614 167.079L76.3203 172.564L77.6811 204.544L270.681 210.164Z" fill="#E6515B"/>
<path fill-rule="evenodd" clip-rule="evenodd" d="M79.0252 140.936L77.5059 132.238H270.59L268.15 139.832L79.0252 140.936Z" fill="#442672"/>
<path fill-rule="evenodd" clip-rule="evenodd" d="M70.5906 184.372C64.8817 184.372 59.8088 179.637 59.2614 173.796L57.7109 157.245H78.8639L80.1235 173.796C80.5667 179.637 76.2994 184.372 70.5906 184.372Z" fill="#442672"/>
<path fill-rule="evenodd" clip-rule="evenodd" d="M91.2635 184.373C85.5546 184.373 80.5658 179.637 80.121 173.796L78.8613 157.245H100.014L100.983 173.796C101.324 179.637 96.9724 184.373 91.2635 184.373Z" fill="#D8DBEE"/>
<path fill-rule="evenodd" clip-rule="evenodd" d="M111.94 184.373C106.231 184.373 101.327 179.637 100.984 173.796L100.016 157.245H121.169L121.845 173.796C122.083 179.637 117.649 184.373 111.94 184.373Z" fill="#442672"/>
<path fill-rule="evenodd" clip-rule="evenodd" d="M132.614 184.373C126.905 184.373 122.082 179.637 121.844 173.796L121.168 157.245H142.321L142.707 173.796C142.842 179.637 138.323 184.373 132.614 184.373Z" fill="#D8DBEE"/>
<path fill-rule="evenodd" clip-rule="evenodd" d="M153.288 184.373C147.579 184.373 142.841 179.637 142.704 173.796L142.318 157.245H163.471L163.565 173.796C163.599 179.637 158.997 184.373 153.288 184.373Z" fill="#442672"/>
<path fill-rule="evenodd" clip-rule="evenodd" d="M173.964 184.373C168.255 184.373 163.599 179.637 163.566 173.796L163.473 157.245H184.626L184.428 173.796C184.358 179.637 179.672 184.373 173.964 184.373Z" fill="#D8DBEE"/>
<path fill-rule="evenodd" clip-rule="evenodd" d="M194.638 184.373C188.929 184.373 184.357 179.637 184.427 173.796L184.624 157.245H205.777L205.289 173.796C205.115 179.637 200.346 184.373 194.638 184.373Z" fill="#442672"/>
<path fill-rule="evenodd" clip-rule="evenodd" d="M215.312 184.373C209.604 184.373 205.115 179.637 205.288 173.796L205.776 157.245H226.929L226.149 173.796C225.873 179.637 221.023 184.373 215.312 184.373Z" fill="#D8DBEE"/>
<path fill-rule="evenodd" clip-rule="evenodd" d="M235.988 184.373C230.279 184.373 225.874 179.637 226.149 173.796L226.93 157.245H248.083L247.011 173.796C246.632 179.637 241.697 184.373 235.988 184.373Z" fill="#442672"/>
<path fill-rule="evenodd" clip-rule="evenodd" d="M256.662 184.69C250.953 184.69 246.631 179.954 247.009 174.113L248.081 157.562H269.234L267.87 174.113C267.389 179.954 262.373 184.69 256.662 184.69Z" fill="#D8DBEE"/>
<path fill-rule="evenodd" clip-rule="evenodd" d="M277.337 184.373C271.629 184.373 267.389 179.637 267.871 173.796L269.235 157.245H290.388L288.733 173.796C288.149 179.637 283.046 184.373 277.337 184.373Z" fill="#442672"/>
<path fill-rule="evenodd" clip-rule="evenodd" d="M79.0256 140.936L57.7109 157.245C143.811 162.136 202.118 162.339 290.387 157.245L268.15 139.832L79.0256 140.936Z" fill="#5B3CA0"/>
<path opacity="0.5" fill-rule="evenodd" clip-rule="evenodd" d="M94.7578 274.279L94.918 277.322H178.457V273.254L94.7578 274.279Z" fill="#811734"/>
<path opacity="0.5" fill-rule="evenodd" clip-rule="evenodd" d="M178.457 273.254L181.006 273.73L180.984 277.322H178.457V273.254Z" fill="#811734"/>
<path fill-rule="evenodd" clip-rule="evenodd" d="M113.541 210.164L116.693 249.952H131.36L132.308 265.39H135.215L133.937 253.459H151.163L151.97 265.39H155.36L155.845 245.862L173.151 242.649L174.05 209.73L113.541 210.164Z" fill="#D8DBEE"/>
<path fill-rule="evenodd" clip-rule="evenodd" d="M207.277 222.339L208.776 251.627H216.107V263.628H219.101L218.414 255.467H226.457L226.371 263.628H233.236L237.077 269.018L238.829 221.628L207.277 222.339Z" fill="#D8DBEE"/>
<path opacity="0.5" fill-rule="evenodd" clip-rule="evenodd" d="M110.209 237.391L114.254 256.238L154.796 252.373L156.558 232.637L110.209 237.391Z" fill="#816090"/>
<path fill-rule="evenodd" clip-rule="evenodd" d="M110.209 237.391L156.558 232.637L158.312 250.383L112.828 254.709L110.209 237.391Z" fill="url(#paint5_radial)"/>
<path fill-rule="evenodd" clip-rule="evenodd" d="M156.558 232.637L140.085 222.95L110.209 237.391L111.881 237.187L140.033 223.56L155.606 232.735L156.558 232.637Z" fill="url(#paint6_radial)"/>
<path d="M121.697 242.707C121.956 242.145 122.336 241.682 122.837 241.316C123.337 240.951 123.897 240.738 124.516 240.68C125.135 240.623 125.725 240.729 126.283 240.995C126.843 241.259 127.305 241.645 127.67 242.147C128.035 242.651 128.247 243.209 128.304 243.822C128.364 244.449 128.259 245.038 127.992 245.595C127.726 246.151 127.342 246.609 126.841 246.968C126.339 247.327 125.78 247.537 125.162 247.595C124.536 247.654 123.945 247.551 123.39 247.291C122.835 247.032 122.376 246.652 122.017 246.155C121.659 245.657 121.451 245.095 121.392 244.47C121.336 243.856 121.437 243.268 121.697 242.707ZM123.154 245.399C123.372 245.711 123.652 245.949 123.991 246.113C124.33 246.276 124.697 246.338 125.088 246.302C125.468 246.266 125.805 246.139 126.101 245.915C126.395 245.693 126.616 245.41 126.763 245.064C126.91 244.719 126.966 244.351 126.928 243.951C126.891 243.547 126.763 243.187 126.549 242.873C126.334 242.561 126.059 242.321 125.726 242.158C125.392 241.995 125.032 241.931 124.647 241.967C124.261 242.002 123.919 242.133 123.622 242.354C123.325 242.576 123.099 242.862 122.947 243.209C122.793 243.557 122.737 243.934 122.774 244.338C122.809 244.733 122.936 245.085 123.154 245.399Z" fill="white"/>
<path d="M133.348 240.545C133.839 240.909 134.119 241.446 134.184 242.15C134.222 242.553 134.178 242.94 134.055 243.307C133.931 243.674 133.704 243.987 133.374 244.248C133.043 244.508 132.598 244.663 132.04 244.716L131.083 244.806L131.284 246.948L129.951 247.072L129.318 240.307L131.368 240.116C132.197 240.037 132.858 240.18 133.348 240.545ZM132.502 243.194C132.643 243.065 132.741 242.923 132.794 242.761C132.847 242.603 132.867 242.45 132.853 242.312C132.831 242.072 132.74 241.847 132.578 241.637C132.416 241.429 132.133 241.34 131.729 241.379L130.772 241.469L130.962 243.509L131.909 243.421C132.163 243.396 132.36 243.321 132.502 243.194Z" fill="white"/>
<path d="M139.78 239.328L139.902 240.614L136.62 240.92L136.756 242.363L139.661 242.091L139.782 243.379L136.877 243.651L137.014 245.111L140.424 244.792L140.544 246.078L135.801 246.523L135.168 239.758L139.78 239.328Z" fill="white"/>
<path d="M147.381 238.615L148.041 245.657L148.003 245.66L142.87 241.83L143.271 245.825L141.92 245.951L141.262 238.92L141.318 238.915L146.448 242.811L146.039 238.741L147.381 238.615Z" fill="white"/>
<path fill-rule="evenodd" clip-rule="evenodd" d="M110.209 132.238L147.887 73.6512L297.757 62.6813L294.153 112.623L205.285 132.238H110.209Z" fill="#E6515B"/>
<path fill-rule="evenodd" clip-rule="evenodd" d="M294.153 112.623L279.112 123.562V120.078L216.107 132.238H205.285L294.153 112.623Z" fill="url(#paint7_linear)"/>
<path opacity="0.5" fill-rule="evenodd" clip-rule="evenodd" d="M205.285 132.238L120.619 116.052L110.209 132.238H205.285Z" fill="#811734"/>
<path opacity="0.5" fill-rule="evenodd" clip-rule="evenodd" d="M147.886 73.6511L205.284 132.238L134.26 94.8398L147.886 73.6511Z" fill="#811734"/>
<path opacity="0.5" fill-rule="evenodd" clip-rule="evenodd" d="M177.83 71.4599L205.284 132.238L200.622 69.7913L177.83 71.4599Z" fill="#811734"/>
<path opacity="0.5" fill-rule="evenodd" clip-rule="evenodd" d="M232.638 67.4477L205.285 132.238L258.111 65.5831L232.638 67.4477Z" fill="#811734"/>
<path opacity="0.5" fill-rule="evenodd" clip-rule="evenodd" d="M297.757 62.6813L205.285 132.238L294.153 97.4603L297.757 62.6813Z" fill="#811734"/>
<path d="M191.996 100.369C191.996 101.261 191.902 102.045 191.716 102.717C191.529 103.39 191.287 103.966 190.986 104.446C190.686 104.927 190.35 105.323 189.977 105.633C189.604 105.944 189.223 106.19 188.833 106.37C188.442 106.55 188.069 106.678 187.713 106.751C187.357 106.824 187.049 106.861 186.789 106.861C186.654 106.861 186.466 106.854 186.229 106.836C185.991 106.819 185.721 106.784 185.414 106.726C185.11 106.67 184.772 106.588 184.405 106.48C184.038 106.373 183.651 106.224 183.243 106.031L183.43 101.757C184.097 102.322 184.693 102.701 185.218 102.894C185.744 103.087 186.187 103.182 186.55 103.182C187.251 103.182 187.78 102.927 188.136 102.418C188.492 101.91 188.671 101.249 188.671 100.434C188.671 99.8912 188.537 99.2832 188.273 98.6114C188.007 97.938 187.536 97.2118 186.856 96.4311C186.393 95.8883 185.912 95.3238 185.414 94.736C184.917 94.1481 184.464 93.5199 184.058 92.8527C183.651 92.1856 183.318 91.4686 183.058 90.6989C182.797 89.9306 182.668 89.0986 182.668 88.206C182.668 87.0754 182.823 86.0972 183.135 85.2714C183.446 84.4457 183.861 83.7614 184.382 83.2187C184.903 82.6759 185.498 82.2716 186.172 82.0057C186.845 81.7397 187.548 81.6075 188.284 81.6075C188.929 81.6075 189.587 81.6962 190.26 81.8704C190.934 82.0461 191.608 82.3136 192.286 82.6759L191.963 86.9494C191.669 86.5762 191.361 86.2792 191.039 86.0583C190.716 85.8375 190.406 85.6711 190.106 85.5576C189.806 85.4456 189.529 85.371 189.276 85.3368C189.021 85.3025 188.809 85.287 188.64 85.287C188.312 85.287 188.01 85.3694 187.731 85.5327C187.455 85.6975 187.217 85.9168 187.019 86.1952C186.822 86.472 186.666 86.8001 186.553 87.178C186.439 87.5575 186.383 87.9556 186.383 88.3739C186.383 89.0193 186.522 89.6009 186.798 90.1203C187.075 90.6413 187.422 91.1561 187.842 91.6646C188.26 92.1731 188.71 92.6972 189.19 93.2337C189.671 93.7702 190.12 94.3752 190.538 95.0486C190.957 95.7219 191.304 96.4902 191.582 97.3548C191.857 98.2241 191.996 99.2272 191.996 100.369Z" fill="white"/>
<path d="M202.307 85.5617C201.944 85.5399 201.529 85.5228 201.059 85.5103C200.59 85.4995 200.091 85.4932 199.559 85.4932C199.479 86.5445 199.414 87.6331 199.364 88.7575C199.313 89.8834 199.271 91.0248 199.237 92.1834C199.203 93.342 199.181 94.5068 199.17 95.6763C199.159 96.8473 199.153 98.0027 199.153 99.1442C199.153 100.444 199.161 101.702 199.178 102.917C199.195 104.133 199.231 105.306 199.288 106.436H195.676C195.778 104.514 195.856 102.468 195.914 100.297C195.97 98.1256 195.999 95.9375 195.999 93.7323C195.999 92.2969 195.982 90.8942 195.948 89.5257C195.914 88.1572 195.879 86.8229 195.845 85.5228C195.302 85.5228 194.788 85.529 194.302 85.5399C193.816 85.5508 193.382 85.5679 192.996 85.5912L193.03 82.0471C193.438 82.0813 193.895 82.1062 194.405 82.1233C194.914 82.1404 195.449 82.1544 196.008 82.1652C196.568 82.1761 197.142 82.1855 197.73 82.1901C198.318 82.1963 198.895 82.1979 199.459 82.1979C200.025 82.1979 200.559 82.1979 201.063 82.1979C201.566 82.1979 202.014 82.187 202.411 82.1637L202.307 85.5617Z" fill="white"/>
<path d="M215.23 94.5006C215.23 96.7727 215.074 98.701 214.763 100.284C214.452 101.867 214.031 103.153 213.499 104.142C212.967 105.131 212.34 105.85 211.616 106.296C210.893 106.743 210.118 106.967 209.292 106.967C208.467 106.967 207.692 106.755 206.969 106.331C206.246 105.908 205.611 105.209 205.069 104.236C204.526 103.264 204.1 101.981 203.789 100.385C203.478 98.7912 203.322 96.8286 203.322 94.5006C203.322 92.1601 203.478 90.1727 203.789 88.5382C204.1 86.9038 204.526 85.5757 205.069 84.5524C205.611 83.5291 206.244 82.7889 206.969 82.3301C207.692 81.8729 208.467 81.6428 209.292 81.6428C210.118 81.6428 210.893 81.8667 211.616 82.313C212.339 82.7609 212.967 83.4918 213.499 84.5089C214.031 85.5259 214.451 86.8525 214.763 88.4869C215.074 90.1213 215.23 92.1259 215.23 94.5006ZM211.448 94.5006C211.448 92.7262 211.392 91.227 211.278 90.0063C211.165 88.7855 211.009 87.7933 210.812 87.0297C210.614 86.2662 210.384 85.7156 210.124 85.3766C209.865 85.0376 209.588 84.8681 209.292 84.8681C208.988 84.8681 208.701 85.0407 208.436 85.386C208.17 85.7312 207.938 86.2848 207.74 87.0484C207.543 87.812 207.387 88.8073 207.274 90.0327C207.16 91.2597 207.104 92.7495 207.104 94.5022C207.104 96.2439 207.16 97.7057 207.274 98.8861C207.387 100.068 207.541 101.018 207.74 101.735C207.938 102.454 208.17 102.965 208.436 103.27C208.701 103.576 208.986 103.729 209.292 103.729C209.586 103.729 209.863 103.567 210.124 103.245C210.384 102.923 210.613 102.396 210.812 101.668C211.009 100.939 211.165 99.9871 211.278 98.8099C211.39 97.6326 211.448 96.1957 211.448 94.5006Z" fill="white"/>
<path d="M227.002 89.2769C227.002 90.0342 226.93 90.7947 226.79 91.5582C226.649 92.3218 226.42 93.0574 226.103 93.7634C225.786 94.4695 225.38 95.1319 224.882 95.7478C224.385 96.3636 223.774 96.9095 223.05 97.3853C223.683 99.0027 224.382 100.553 225.145 102.04C225.909 103.527 226.759 104.96 227.697 106.34L223.458 106.578L220.575 98.3853C220.62 99.7647 220.676 101.133 220.744 102.489C220.811 103.845 220.897 105.186 220.998 106.509H216.859C217.04 103.943 217.174 101.376 217.257 98.8098C217.341 96.2439 217.385 93.6592 217.385 91.059C217.385 89.5552 217.374 88.0545 217.351 86.5569C217.327 85.0593 217.282 83.5462 217.216 82.0206C217.814 81.8402 218.422 81.722 219.038 81.6645C219.654 81.6085 220.176 81.5805 220.607 81.5805C220.912 81.5805 221.282 81.6116 221.718 81.6738C222.153 81.736 222.609 81.8635 223.083 82.0548C223.557 82.2477 224.03 82.5183 224.5 82.8682C224.968 83.2181 225.388 83.6799 225.755 84.2507C226.122 84.8214 226.422 85.5166 226.654 86.3361C226.885 87.1541 227.002 88.1354 227.002 89.2769ZM220.539 95.6358C220.934 95.5238 221.282 95.3559 221.582 95.135C221.882 94.9142 222.145 94.6638 222.371 94.3808C222.596 94.0978 222.786 93.7992 222.938 93.4819C223.091 93.1647 223.218 92.849 223.319 92.5318C223.545 91.7962 223.676 90.9937 223.71 90.1229C223.71 90.1011 223.707 89.9611 223.702 89.7076C223.696 89.4526 223.666 89.1338 223.609 88.7497C223.551 88.3655 223.47 87.9472 223.363 87.4947C223.256 87.0437 223.1 86.6036 222.896 86.1806C222.693 85.756 222.433 85.3813 222.116 85.0531C221.798 84.725 221.414 84.4933 220.963 84.358C220.828 86.1339 220.722 87.9006 220.649 89.6579C220.576 91.4167 220.539 93.188 220.539 94.9749V95.6358Z" fill="white"/>
<path d="M235.718 97.2983C235.367 97.2765 235.012 97.2594 234.65 97.247C234.287 97.2361 233.927 97.2299 233.564 97.2299C233.361 97.2299 233.149 97.2361 232.928 97.247C232.707 97.2579 232.49 97.2641 232.275 97.2641L232.208 103.318C233.135 103.296 234.037 103.251 234.913 103.183C235.79 103.114 236.72 103.007 237.702 102.861V106.405C237.07 106.382 236.455 106.366 235.863 106.354C235.269 106.343 234.678 106.337 234.09 106.337C233.208 106.337 232.337 106.351 231.479 106.379C230.619 106.407 229.732 106.449 228.816 106.506C228.917 104.404 229 102.32 229.062 100.256C229.124 98.1925 229.155 96.1102 229.155 94.0061C229.155 91.9937 229.131 89.9954 229.079 88.011C229.029 86.0267 228.941 84.0283 228.816 82.016C230.151 82.1186 231.423 82.1684 232.633 82.1684C233.401 82.1684 234.168 82.1482 234.931 82.1093C235.695 82.0704 236.511 82.016 237.382 81.9476V85.8478C236.681 85.7234 235.989 85.627 235.304 85.5586C234.62 85.4917 233.939 85.4575 233.261 85.4575H232.599C232.485 86.8711 232.409 88.2785 232.37 89.6813C232.329 91.084 232.298 92.4914 232.277 93.9034C232.57 93.9268 232.868 93.9377 233.168 93.9377C233.468 93.9377 233.776 93.9377 234.091 93.9377C234.351 93.9377 234.617 93.9377 234.889 93.9377C235.16 93.9377 235.438 93.9268 235.72 93.9034V97.2983H235.718Z" fill="white"/>
<path opacity="0.5" fill-rule="evenodd" clip-rule="evenodd" d="M85.3542 296.869L73.5508 303.063L269.233 295.248H129.265L85.3542 296.869Z" fill="#AC2A41"/>
<path d="M421.647 280.159C421.647 280.159 421.166 285.494 421.557 287.228C421.767 288.157 422.93 290.068 422.396 290.942C421.863 291.816 421.252 292.034 421.252 292.034L407.408 292.229C406.654 292.24 407.153 291.816 407.759 291.424C408.755 290.783 409.557 290.36 412.737 289.013C412.944 288.925 413.7 288.505 413.972 288.36C414.663 287.992 415.356 287.41 415.952 286.828C416.946 285.86 417.033 281.16 417.033 281.16L421.647 280.159Z" fill="#F7A491"/>
<path d="M410.827 209.229C410.827 209.229 404.877 206.616 406.021 212.297C407.166 217.977 415.884 281.852 415.884 281.852L424.05 282.255C424.05 282.255 425.093 260.959 424.865 257.9C424.636 254.841 423.283 250.11 423.283 250.11L422.591 231.217L414.887 207.89L410.827 209.229Z" fill="black"/>
<path d="M413.973 288.359C417.634 289.182 420.34 288.622 421.854 288.088C422.245 289.057 422.762 290.273 422.487 290.973C422.151 291.831 421.713 292.212 421.29 292.222C417.946 292.3 408.999 292.216 406.449 292.245C406.093 292.25 405.897 291.884 406.126 291.645C406.76 290.985 413.701 288.505 413.973 288.359Z" fill="black"/>
<path d="M406.021 170.843C406.021 170.843 400.99 162.224 400.209 159.061C399.429 155.898 396.726 139.964 396.955 138.937C397.183 137.911 401.457 135.443 400.929 134.571C400.402 133.7 396.331 133.697 395.399 133.771C394.468 133.846 392.594 134.33 391.791 134.919C390.989 135.508 392.693 154.602 393.202 158.713C393.711 162.823 399.961 175.483 399.961 175.483L406.021 170.843Z" fill="#F7A491"/>
<path d="M445.217 238.009C445.217 238.009 449.366 234.135 450.29 232.569C450.784 231.731 451.232 229.592 452.266 229.215C453.299 228.835 453.929 229.008 453.929 229.008L464.818 236.622C465.412 237.037 464.723 237.087 463.975 237.049C462.748 236.989 461.826 236.867 458.404 236.13C458.182 236.082 457.297 235.986 456.983 235.945C456.185 235.844 455.237 235.906 454.361 236.024C452.904 236.219 449.511 239.821 449.511 239.821L445.217 238.009Z" fill="#F7A491"/>
<path d="M456.98 235.945C454.719 233.253 452.222 232.169 450.668 231.735C451.051 230.763 451.469 229.494 452.178 229.104C453.046 228.627 453.645 228.725 453.98 228.955C456.632 230.771 463.572 235.74 465.572 237.147C465.852 237.343 465.747 237.737 465.4 237.794C464.44 237.951 457.296 235.984 456.98 235.945Z" fill="black"/>
<path d="M445.316 168.217C442.733 163.393 437.01 160.739 431.467 162.023C429.48 159.627 426.402 157.95 423.202 157.548C416.888 156.751 408.742 159.478 409.573 165.345C407.577 169.449 408.067 175.105 412.052 177.876C411.319 183.271 417.395 188.056 424.584 187.411C427.477 190.966 432.506 193.051 437.211 192.24C438.34 192.045 440.053 191.678 440.349 191.723C439.98 191.686 448.551 196.683 454.46 187.786C460.492 178.707 454.553 168.558 445.316 168.217Z" fill="black"/>
<path d="M408.432 211.288C408.432 211.288 421.776 206.006 421.986 206.609C423.66 211.407 428.865 209.859 431.955 218.308C433.248 221.846 434.577 245.385 434.577 245.385C434.577 245.385 439.839 241.497 447.358 234.704C447.935 234.183 453.588 238.97 453.588 238.97C438.662 256.925 432.224 257.862 429.732 256.855C424.533 254.758 413.564 225.404 413.581 225.408C412.265 223.121 408.432 211.288 408.432 211.288Z" fill="black"/>
<path d="M430.553 178.128C430.553 178.128 449.841 178.107 453.97 177.895C457.707 177.704 472.532 178.04 473.112 177.979C473.692 177.92 477.524 172.141 478.16 172.762C478.798 173.382 476.028 175.626 476.885 176.209C477.742 176.791 486.942 175.488 486.819 176.093C486.59 177.226 481.224 177.082 481.228 177.629C481.233 178.177 486.845 177.323 487.226 178.231C487.607 179.139 481.829 178.601 481.597 179.007C481.367 179.413 486.957 180.155 486.385 180.999C486.074 181.458 481.432 180.232 481.454 180.858C481.476 181.483 484.864 182.906 484.449 183.403C484.034 183.901 481.791 181.875 479.826 181.85C477.86 181.825 476.452 180.912 473.316 181.677C471.767 182.055 459.94 183.343 449.947 184.103C439.702 184.882 431.304 185.13 431.304 185.13L430.553 178.128Z" fill="#F7A491"/>
<path d="M401.953 190.269C401.698 187.512 402.306 185.389 402.446 184.473C401.509 181.609 399.516 175.499 398.799 174.298C398.799 174.298 402.156 168.552 405.595 168.592C405.595 168.592 409.106 175.639 411.82 176.898C411.86 176.889 412.781 177.264 413.185 177.261C415.806 177.243 424.964 176.996 426.675 176.97L425.712 188.538C419.075 200.121 420.872 206.198 423.398 208.446C424.586 209.503 406.837 213.795 406.021 212.298C405.057 210.531 402.471 195.843 401.953 190.269Z" fill="#E6515B"/>
<path d="M422.021 177.407C423.71 176.688 435.935 177.047 435.935 177.047C435.935 177.047 437.644 184.627 436.263 186.448C436.263 186.448 425.332 187.896 425.643 188.695L422.021 177.407Z" fill="#E6515B"/>
<path d="M418.817 172.538C418.817 172.538 418.602 176.671 418.82 178.393C419.037 180.114 416.835 184.151 412.738 184.221C408.64 184.291 412.136 180.349 412.495 178.654C412.854 176.96 413.285 170.328 413.285 170.328L418.817 172.538Z" fill="#F7A491"/>
<path d="M413.285 170.326C413.285 170.326 413.186 171.866 413.041 173.651C414.333 175.024 416.319 175.726 418.736 174.889C418.762 173.609 418.817 172.536 418.817 172.536L413.285 170.326Z" fill="#F47458"/>
<path d="M419.156 160.219C419.156 160.219 421.476 160.837 422.779 162.904C424.081 164.97 424.63 170.853 419.625 173.278C414.621 175.701 411.19 171.628 411.419 167.875C411.648 164.123 412.937 159.173 419.156 160.219Z" fill="#F7A491"/>
<path d="M410.414 166.634C410.753 167.564 411.521 168.176 412.129 168C412.737 167.824 412.956 166.928 412.617 165.998C412.278 165.068 411.51 164.457 410.902 164.633C410.292 164.809 410.075 165.704 410.414 166.634Z" fill="#F7A491"/>
<path d="M418.459 160.053C418.459 160.053 421 166.239 423.599 166.938C426.197 167.636 425.925 170.653 425.925 170.653C425.925 170.653 426.406 163.675 424.056 161.924C421.705 160.173 418.459 160.053 418.459 160.053Z" fill="black"/>
<path d="M422.452 168.121C422.029 169.074 422.273 170.054 422.996 170.307C423.719 170.563 424.649 169.995 425.072 169.042C425.495 168.088 425.251 167.109 424.528 166.855C423.805 166.602 422.875 167.168 422.452 168.121Z" fill="#F7A491"/>
<path d="M391.791 136.261C391.791 136.261 396.715 136.607 397.379 136.607C398.043 136.607 399.973 134.83 399.973 134.83L391.791 136.261Z" fill="#F47458"/>
<path d="M382.534 136.962L386.279 123.987L360.082 116.426L356.337 129.402L382.534 136.962Z" fill="#92E3A9"/>
<path opacity="0.5" d="M360.089 116.422L356.332 129.417L382.53 136.97L386.287 123.976L360.089 116.422ZM381.847 135.67L357.684 128.68L360.825 117.721L384.989 124.71L381.847 135.67Z" fill="black"/>
<path opacity="0.5" d="M383.053 126.095L379.819 125.181C379.455 125.097 379.228 124.697 379.363 124.33C379.447 123.966 379.847 123.739 380.214 123.874L383.448 124.789C383.812 124.873 384.039 125.272 383.904 125.639C383.765 125.957 383.417 126.18 383.053 126.095Z" fill="black"/>
<path opacity="0.5" d="M362.459 129.619L359.225 128.704C358.861 128.62 358.634 128.221 358.769 127.854C358.853 127.49 359.253 127.263 359.62 127.398L362.854 128.313C363.218 128.397 363.445 128.796 363.31 129.163C363.173 129.479 362.823 129.703 362.459 129.619Z" fill="black"/>
<path d="M370.321 130.501C372.513 131.16 374.818 129.963 375.477 127.768C376.137 125.575 374.939 123.271 372.745 122.611C370.552 121.952 368.248 123.149 367.588 125.344C366.927 127.487 368.125 129.791 370.321 130.501Z" fill="#5E936D"/>
<path d="M372.802 128.729C372.711 128.939 372.51 129.053 372.3 128.961L370.941 128.516C371.297 128.446 371.652 128.325 371.897 128.107L372.473 128.283C372.681 128.375 372.843 128.521 372.802 128.729Z" fill="#92E3A9"/>
<path d="M373.857 127.235C373.766 127.445 373.565 127.558 373.355 127.467L372.624 127.247C372.671 127.142 372.764 126.983 372.759 126.88C372.806 126.775 372.8 126.672 372.85 126.619L373.529 126.841C373.735 126.831 373.847 127.03 373.857 127.235Z" fill="#92E3A9"/>
<path d="M374.748 125.596C374.657 125.806 374.456 125.919 374.246 125.827L372.94 125.431C372.873 125.126 372.703 124.826 372.484 124.58L374.47 125.199C374.521 125.196 374.576 125.246 374.629 125.294L374.683 125.342C374.737 125.39 374.737 125.39 374.79 125.44C374.792 125.439 374.795 125.49 374.748 125.596Z" fill="#92E3A9"/>
<path d="M369.844 126.207L369.668 126.781C369.46 126.74 369.253 126.7 369.044 126.658C369.085 126.45 369.124 126.191 369.164 125.983L369.844 126.207Z" fill="#92E3A9"/>
<path d="M371.936 126.871C371.848 127.184 371.606 127.454 371.36 127.672C371.253 127.574 371.091 127.429 370.982 127.331C371.125 127.118 371.217 126.908 371.256 126.649L371.936 126.871Z" fill="#92E3A9"/>
<path d="M372.069 126.453L371.389 126.23C371.481 126.02 371.52 125.761 371.506 125.504C371.66 125.496 371.865 125.485 372.019 125.478C372.137 125.781 372.156 126.14 372.069 126.453Z" fill="#92E3A9"/>
<path d="M369.586 127.196L369.368 127.978C369.314 127.93 369.261 127.88 369.206 127.832C369.147 127.681 369.091 127.58 369.084 127.428C369.079 127.325 369.073 127.222 369.068 127.12C369.222 127.112 369.379 127.155 369.586 127.196Z" fill="#92E3A9"/>
<path d="M371.896 125.073C371.743 125.081 371.64 125.086 371.486 125.095C371.481 124.992 371.473 124.838 371.467 124.736C371.463 124.633 371.459 124.582 371.404 124.482L371.4 124.431L371.397 124.38C371.505 124.478 371.613 124.574 371.669 124.673C371.724 124.722 371.725 124.773 371.78 124.823C371.834 124.871 371.836 124.922 371.89 124.972C371.893 125.022 371.896 125.073 371.896 125.073Z" fill="#92E3A9"/>
<path d="M370.375 127.516C370.328 127.622 370.28 127.675 370.181 127.732C370.083 127.84 369.986 127.949 369.835 128.008C369.787 128.062 369.685 128.067 369.633 128.07L369.851 127.288C370.056 127.327 370.216 127.421 370.375 127.516Z" fill="#92E3A9"/>
<path d="M368.844 127.75C368.789 127.701 368.685 127.655 368.628 127.555C368.52 127.457 368.41 127.309 368.351 127.159C368.351 127.159 368.348 127.107 368.296 127.11L368.348 127.107C368.45 127.103 368.604 127.095 368.707 127.089C368.712 127.191 368.719 127.345 368.726 127.448C368.778 127.494 368.785 127.597 368.844 127.75Z" fill="#92E3A9"/>
<path d="M370.559 124.062L370.341 124.845C370.184 124.801 369.974 124.709 369.815 124.614C369.862 124.509 369.91 124.456 370.01 124.398C370.108 124.291 370.204 124.182 370.355 124.123C370.406 124.121 370.456 124.067 370.559 124.062Z" fill="#92E3A9"/>
<path d="M370.156 125.264L369.981 125.838L369.301 125.616C369.393 125.406 369.484 125.194 369.578 124.985C369.735 125.081 369.945 125.173 370.156 125.264Z" fill="#92E3A9"/>
<path d="M370.889 126.513C370.797 126.723 370.705 126.935 370.612 127.145C370.453 127.05 370.242 126.958 370.035 126.918L370.211 126.344L370.889 126.513Z" fill="#92E3A9"/>
<path d="M371.014 127.945C371.014 127.945 370.962 127.949 370.965 128C370.866 128.056 370.714 128.115 370.612 128.121C370.462 128.18 370.359 128.185 370.205 128.193C370.256 128.19 370.253 128.138 370.305 128.137C370.353 128.082 370.454 128.026 370.502 127.972C370.6 127.865 370.648 127.81 370.693 127.704C370.849 127.749 370.956 127.846 371.014 127.945Z" fill="#92E3A9"/>
<path d="M369.986 123.936C369.887 123.992 369.789 124.101 369.741 124.154C369.643 124.261 369.594 124.316 369.549 124.422C369.442 124.324 369.336 124.278 369.229 124.18C369.229 124.18 369.229 124.18 369.28 124.177C369.28 124.177 369.28 124.177 369.332 124.174C369.476 124.014 369.73 123.95 369.986 123.936Z" fill="#92E3A9"/>
<path d="M371.025 126.146L370.345 125.924L370.521 125.35C370.729 125.39 370.936 125.431 371.145 125.473C371.103 125.68 371.065 125.938 371.025 126.146Z" fill="#92E3A9"/>
<path d="M371.174 125.059C370.965 125.019 370.811 125.027 370.656 124.983L370.874 124.201C370.928 124.249 370.981 124.299 371.035 124.347C371.095 124.498 371.151 124.599 371.158 124.751C371.163 124.854 371.169 124.957 371.174 125.059Z" fill="#92E3A9"/>
<path d="M382.534 136.962L386.279 123.987L360.082 116.426L356.337 129.402L382.534 136.962Z" stroke="#263238" stroke-width="0.5" stroke-miterlimit="3.9999" stroke-linecap="round" stroke-linejoin="round"/>
<path d="M355.227 133.997C352.018 132.783 348.698 131.735 345.28 130.871" stroke="#263238" stroke-width="0.5" stroke-linecap="round" stroke-linejoin="round"/>
<path d="M361.461 136.632C360.116 136.002 358.746 135.402 357.355 134.834" stroke="#263238" stroke-width="0.5" stroke-linecap="round" stroke-linejoin="round"/>
<path d="M365.199 138.491C364.495 138.12 363.784 137.757 363.066 137.403" stroke="#263238" stroke-width="0.5" stroke-linecap="round" stroke-linejoin="round"/>
<path d="M344.958 132.973C344.279 132.091 343.579 131.215 342.862 130.349C343.937 129.884 345.027 129.438 346.131 129.01" stroke="#263238" stroke-width="0.5" stroke-linecap="round" stroke-linejoin="round"/>
<path d="M338.645 118.793C334.988 117.579 331.195 116.551 327.28 115.731" stroke="#263238" stroke-width="0.5" stroke-linecap="round" stroke-linejoin="round"/>
<path d="M345.766 121.464C344.232 120.82 342.669 120.21 341.078 119.636" stroke="#263238" stroke-width="0.5" stroke-linecap="round" stroke-linejoin="round"/>
<path d="M350.02 123.368C349.219 122.987 348.41 122.614 347.592 122.251" stroke="#263238" stroke-width="0.5" stroke-linecap="round" stroke-linejoin="round"/>
<path d="M326.68 117.845C325.944 116.966 325.195 116.095 324.431 115.231C325.734 114.741 327.05 114.273 328.375 113.829" stroke="#263238" stroke-width="0.5" stroke-linecap="round" stroke-linejoin="round"/>
<path d="M329.453 110.161C328.875 110.374 328.226 110.395 327.638 110.282C327.032 110.121 326.469 109.782 326.034 109.34C325.478 108.725 325.177 107.905 325.2 107.076C325.223 106.247 325.588 105.456 326.253 104.882C326.538 104.613 326.888 104.376 327.273 104.234C327.852 104.021 328.501 104.001 329.089 104.114C329.695 104.274 330.257 104.614 330.693 105.055C331.248 105.671 331.55 106.491 331.527 107.319C331.504 108.148 331.138 108.939 330.473 109.513C330.189 109.782 329.838 110.02 329.453 110.161Z" fill="#BFBFBF"/>
<path d="M329.4 110.016C329.737 109.892 330.106 109.702 330.389 109.433C331.622 108.323 331.724 106.37 330.613 105.138C329.771 104.189 328.414 103.923 327.306 104.331C326.969 104.455 326.6 104.645 326.317 104.914C325.084 106.024 324.982 107.977 326.093 109.209C326.935 110.158 328.292 110.424 329.4 110.016ZM329.489 110.258L329.4 110.016L329.489 110.258C328.862 110.488 328.213 110.509 327.559 110.366C326.905 110.223 326.342 109.883 325.87 109.345C325.297 108.68 324.996 107.861 325.001 106.983C325.054 106.088 325.42 105.297 326.085 104.724C326.417 104.437 326.767 104.198 327.153 104.056C327.779 103.826 328.428 103.805 329.083 103.948C329.737 104.091 330.3 104.431 330.771 104.969C331.345 105.634 331.645 106.453 331.64 107.331C331.635 108.209 331.222 109.017 330.557 109.59C330.242 109.926 329.875 110.116 329.489 110.258Z" fill="#263238"/>
<path d="M330.002 108.975C331.03 108.049 331.11 106.487 330.186 105.46C329.261 104.431 327.698 104.352 326.671 105.276C325.644 106.2 325.563 107.764 326.487 108.791C327.412 109.819 328.974 109.9 330.002 108.975Z" fill="#7C7C7C"/>
<path d="M329.912 107.093C330.013 107.22 329.969 107.399 329.842 107.501L329.068 108.223C329.19 107.96 329.216 107.731 329.175 107.472L329.508 107.186C329.618 107.036 329.78 107.032 329.912 107.093Z" fill="#BFBFBF"/>
<path d="M329.46 106.165C329.562 106.292 329.518 106.472 329.391 106.573L328.98 106.943C328.945 106.846 328.862 106.768 328.778 106.69C328.712 106.66 328.676 106.563 328.61 106.533L329.02 106.163C329.166 106.108 329.329 106.104 329.46 106.165Z" fill="#BFBFBF"/>
<path d="M329.009 105.236C329.11 105.363 329.067 105.543 328.939 105.644L328.197 106.301C327.951 106.227 327.722 106.202 327.482 106.291L328.589 105.282C328.637 105.265 328.637 105.265 328.667 105.199L328.714 105.181C328.762 105.164 328.762 105.164 328.812 105.146C328.925 105.158 328.942 105.206 329.009 105.236Z" fill="#BFBFBF"/>
<path d="M327.677 107.86L327.964 108.193C327.836 108.294 327.776 108.426 327.648 108.527C327.5 108.419 327.415 108.339 327.265 108.231L327.677 107.86Z" fill="#BFBFBF"/>
<path d="M328.673 107.001C328.841 107.158 328.928 107.399 328.969 107.657C328.872 107.693 328.727 107.746 328.632 107.782C328.531 107.655 328.46 107.462 328.311 107.353L328.673 107.001Z" fill="#BFBFBF"/>
<path d="M328.523 106.892L328.161 107.245C328.059 107.118 327.91 107.009 327.759 106.9C327.837 106.817 327.9 106.684 327.911 106.571C328.139 106.595 328.404 106.717 328.523 106.892Z" fill="#BFBFBF"/>
<path d="M328.111 108.301L328.499 108.761C328.451 108.778 328.403 108.798 328.355 108.815C328.241 108.802 328.126 108.789 328.061 108.758C327.995 108.728 327.93 108.697 327.863 108.667C327.906 108.487 327.984 108.403 328.111 108.301Z" fill="#BFBFBF"/>
<path d="M327.781 106.51C327.768 106.624 327.69 106.708 327.659 106.773C327.593 106.743 327.528 106.712 327.443 106.633C327.377 106.603 327.312 106.572 327.264 106.589L327.216 106.606L327.168 106.623C327.265 106.588 327.36 106.553 327.457 106.516C327.505 106.499 327.554 106.481 327.619 106.512C327.618 106.514 327.685 106.544 327.781 106.51Z" fill="#BFBFBF"/>
<path d="M328.541 107.98C328.558 108.028 328.595 108.124 328.612 108.172C328.648 108.269 328.635 108.383 328.67 108.479C328.687 108.527 328.657 108.593 328.609 108.611L328.22 108.151C328.317 108.118 328.397 108.033 328.541 107.98Z" fill="#BFBFBF"/>
<path d="M328.228 108.916C328.18 108.934 328.083 108.97 328.035 108.987C327.938 109.022 327.776 109.028 327.662 109.015L327.614 109.032C327.614 109.032 327.614 109.032 327.644 108.966C327.674 108.899 327.705 108.834 327.766 108.703C327.832 108.733 327.897 108.763 327.982 108.843C328.048 108.873 328.162 108.886 328.228 108.916Z" fill="#BFBFBF"/>
<path d="M326.818 106.864L327.206 107.324C327.128 107.407 327.001 107.509 326.857 107.563C326.84 107.515 326.803 107.418 326.786 107.37C326.751 107.273 326.762 107.159 326.728 107.063C326.757 106.996 326.787 106.929 326.818 106.864Z" fill="#BFBFBF"/>
<path d="M327.306 107.45L327.593 107.782L327.23 108.135C327.129 108.008 327.028 107.882 326.974 107.738C327.083 107.586 327.179 107.551 327.306 107.45Z" fill="#BFBFBF"/>
<path d="M328.185 107.455C328.286 107.582 328.387 107.708 328.488 107.835C328.361 107.937 328.217 107.991 328.139 108.074L327.852 107.742L328.185 107.455Z" fill="#BFBFBF"/>
<path d="M328.909 107.79C328.926 107.838 328.926 107.838 328.909 107.79C328.913 107.953 328.883 108.019 328.872 108.133C328.859 108.247 328.828 108.312 328.75 108.396C328.75 108.396 328.733 108.348 328.714 108.299C328.696 108.251 328.678 108.202 328.66 108.155C328.625 108.058 328.606 108.011 328.571 107.913C328.764 107.843 328.812 107.826 328.909 107.79Z" fill="#BFBFBF"/>
<path d="M326.582 107.114C326.617 107.212 326.586 107.277 326.622 107.373C326.659 107.47 326.676 107.518 326.711 107.615C326.614 107.651 326.519 107.686 326.422 107.722C326.422 107.722 326.422 107.722 326.405 107.674C326.388 107.626 326.405 107.674 326.405 107.674C326.447 107.492 326.539 107.295 326.582 107.114Z" fill="#BFBFBF"/>
<path d="M328.083 107.328L327.721 107.681L327.434 107.348C327.561 107.247 327.622 107.115 327.749 107.014C327.832 107.092 327.98 107.201 328.083 107.328Z" fill="#BFBFBF"/>
<path d="M327.55 106.921C327.472 107.005 327.409 107.137 327.283 107.238L326.895 106.778C326.943 106.761 326.993 106.743 327.04 106.725C327.154 106.738 327.268 106.751 327.334 106.781C327.466 106.843 327.531 106.874 327.55 106.921Z" fill="#BFBFBF"/>
<path d="M334.493 142.857L338.004 129.817L311.676 122.728L308.164 135.768L334.493 142.857Z" fill="#92E3A9"/>
<path opacity="0.5" d="M311.717 122.696L308.229 135.74L334.584 142.871L338.072 129.826L311.717 122.696ZM333.786 141.58L309.494 134.986L312.472 123.959L336.791 130.507L333.786 141.58Z" fill="black"/>
<path opacity="0.5" d="M334.84 131.935L331.601 131.075C331.238 130.985 331.029 130.627 331.12 130.265C331.21 129.902 331.568 129.692 331.931 129.784L335.17 130.644C335.532 130.734 335.742 131.092 335.65 131.454C335.56 131.815 335.204 132.025 334.84 131.935Z" fill="black"/>
<path opacity="0.5" d="M314.299 135.799L311.06 134.939C310.697 134.849 310.488 134.492 310.579 134.129C310.669 133.767 311.027 133.557 311.389 133.649L314.629 134.509C314.991 134.599 315.201 134.957 315.109 135.319C315.063 135.708 314.661 135.891 314.299 135.799Z" fill="black"/>
<path d="M334.493 142.857L338.004 129.817L311.676 122.728L308.164 135.768L334.493 142.857Z" stroke="#263238" stroke-width="0.4" stroke-miterlimit="3.9999" stroke-linecap="round" stroke-linejoin="round"/>
<path d="M322.645 136.74C324.905 137.035 326.981 135.387 327.276 133.127C327.572 130.867 325.923 128.791 323.664 128.496C321.404 128.2 319.328 129.849 319.032 132.108C318.735 134.368 320.384 136.444 322.645 136.74Z" fill="#5E936D"/>
<path d="M324.729 134.563C324.671 134.767 324.478 134.893 324.25 134.88L322.811 134.703C323.161 134.608 323.475 134.375 323.699 134.089L324.316 134.148C324.564 134.232 324.716 134.378 324.729 134.563Z" fill="#92E3A9"/>
<path d="M325.491 132.93C325.434 133.134 325.241 133.26 325.013 133.247L324.236 133.156C324.269 132.997 324.32 132.907 324.327 132.793C324.333 132.678 324.314 132.608 324.322 132.493L325.054 132.56C325.308 132.527 325.505 132.7 325.491 132.93Z" fill="#92E3A9"/>
<path d="M326.104 131.148C326.047 131.352 325.854 131.478 325.625 131.465L324.23 131.313C324.111 131.006 323.895 130.764 323.608 130.54L325.664 130.776C325.709 130.801 325.779 130.783 325.823 130.809L325.868 130.834C325.913 130.859 325.957 130.885 325.975 130.955C326.092 130.963 326.111 131.034 326.104 131.148Z" fill="#92E3A9"/>
<path d="M321.348 132.614L321.289 133.232C321.06 133.218 320.875 133.23 320.69 133.243C320.659 132.988 320.646 132.803 320.66 132.574L321.348 132.614Z" fill="#92E3A9"/>
<path d="M323.562 132.883C323.497 133.202 323.388 133.495 323.119 133.754C322.986 133.678 322.808 133.575 322.675 133.498C322.758 133.249 322.816 133.047 322.855 132.773L323.562 132.883Z" fill="#92E3A9"/>
<path d="M323.634 132.451L322.971 132.366C322.985 132.137 322.998 131.907 322.968 131.652C323.153 131.639 323.293 131.602 323.46 131.52C323.606 131.782 323.656 132.107 323.634 132.451Z" fill="#92E3A9"/>
<path d="M321.312 133.602L321.194 134.423C321.149 134.398 321.061 134.347 321.042 134.275C320.935 134.154 320.896 134.014 320.858 133.874C320.84 133.804 320.802 133.664 320.784 133.594C320.899 133.6 321.082 133.588 321.312 133.602Z" fill="#92E3A9"/>
<path d="M323.207 131.137C323.067 131.174 322.927 131.212 322.785 131.251C322.792 131.135 322.729 131.041 322.69 130.901C322.672 130.831 322.653 130.761 322.589 130.664C322.589 130.664 322.544 130.639 322.571 130.594L322.552 130.524C322.686 130.601 322.774 130.652 322.908 130.73C322.953 130.754 322.972 130.826 323.061 130.877C323.106 130.902 323.124 130.974 323.168 130.999C323.188 131.067 323.233 131.093 323.207 131.137Z" fill="#92E3A9"/>
<path d="M322.152 133.79C322.101 133.879 322.05 133.967 321.998 134.058C321.922 134.191 321.799 134.299 321.704 134.362C321.634 134.381 321.608 134.426 321.538 134.445L321.656 133.624C321.79 133.698 321.994 133.757 322.152 133.79Z" fill="#92E3A9"/>
<path d="M320.674 134.3C320.585 134.249 320.497 134.198 320.451 134.173C320.318 134.097 320.21 133.974 320.102 133.852C320.102 133.852 320.056 133.827 320.083 133.782C320.083 133.782 320.109 133.737 320.153 133.764C320.293 133.726 320.363 133.708 320.503 133.669C320.497 133.784 320.559 133.879 320.598 134.019C320.573 134.064 320.61 134.204 320.674 134.3Z" fill="#92E3A9"/>
<path d="M321.688 130.38L321.569 131.201C321.411 131.168 321.207 131.111 321.047 131.078C321.098 130.989 321.149 130.901 321.201 130.81C321.277 130.677 321.4 130.569 321.495 130.506C321.591 130.443 321.618 130.398 321.688 130.38Z" fill="#92E3A9"/>
<path d="M321.523 131.59L321.464 132.207L320.802 132.121C320.816 131.893 320.873 131.689 320.957 131.44C321.09 131.518 321.293 131.576 321.523 131.59Z" fill="#92E3A9"/>
<path d="M322.467 132.726C322.453 132.955 322.395 133.159 322.311 133.408C322.108 133.35 321.904 133.291 321.745 133.258L321.804 132.641L322.467 132.726Z" fill="#92E3A9"/>
<path d="M322.871 134.086L322.845 134.131C322.748 134.194 322.627 134.302 322.532 134.365C322.436 134.429 322.296 134.467 322.156 134.504C322.182 134.459 322.182 134.459 322.252 134.44C322.303 134.351 322.328 134.306 322.425 134.243C322.476 134.154 322.552 134.02 322.604 133.932C322.649 133.956 322.782 134.034 322.871 134.086Z" fill="#92E3A9"/>
<path d="M321.158 130.372C321.062 130.436 320.986 130.569 320.934 130.658C320.883 130.747 320.807 130.88 320.755 130.969C320.622 130.893 320.533 130.842 320.399 130.764C320.399 130.764 320.399 130.764 320.426 130.719C320.426 130.719 320.426 130.719 320.452 130.674C320.642 130.548 320.878 130.447 321.158 130.372Z" fill="#92E3A9"/>
<path d="M322.515 132.339L321.852 132.254L321.911 131.636C322.14 131.65 322.325 131.638 322.51 131.625C322.541 131.88 322.529 132.109 322.515 132.339Z" fill="#92E3A9"/>
<path d="M322.486 131.255C322.301 131.268 322.116 131.279 321.957 131.247L322.075 130.426C322.12 130.451 322.209 130.503 322.228 130.574C322.335 130.695 322.374 130.835 322.411 130.975C322.43 131.045 322.492 131.142 322.486 131.255Z" fill="#92E3A9"/>
<path d="M359.382 139.955C359.719 140.98 359.39 142.115 358.542 142.827C357.988 143.28 357.305 143.503 356.591 143.469C355.877 143.433 355.213 143.057 354.776 142.552C354.534 142.307 354.372 141.983 354.276 141.689C353.939 140.665 354.268 139.53 355.116 138.818C355.67 138.365 356.352 138.142 357.067 138.176C357.782 138.211 358.445 138.588 358.882 139.093C359.124 139.338 359.285 139.663 359.382 139.955Z" fill="#BFBFBF"/>
<path d="M359.282 139.987C359.185 139.695 359.041 139.417 358.782 139.125C357.894 138.065 356.271 137.898 355.227 138.834C354.429 139.528 354.133 140.599 354.454 141.575C354.551 141.868 354.695 142.145 354.954 142.438C355.843 143.498 357.466 143.666 358.509 142.729C359.323 142.083 359.603 140.964 359.282 139.987ZM359.527 139.907L359.282 139.987L359.527 139.907C359.88 140.98 359.566 142.165 358.687 142.94C358.133 143.393 357.401 143.634 356.638 143.615C355.907 143.531 355.21 143.22 354.742 142.618C354.482 142.324 354.338 142.048 354.227 141.707C353.873 140.634 354.187 139.449 355.067 138.673C355.621 138.221 356.352 137.98 357.116 137.999C357.847 138.083 358.543 138.394 359.011 138.996C359.269 139.289 359.414 139.566 359.527 139.907Z" fill="#263238"/>
<path d="M358.457 139.447C357.73 138.551 356.414 138.497 355.568 139.208C354.672 139.936 354.618 141.251 355.329 142.097C356.056 142.993 357.372 143.047 358.218 142.336C359.065 141.626 359.183 140.344 358.457 139.447Z" fill="#7C7C7C"/>
<path d="M356.865 139.538C356.996 139.441 357.125 139.507 357.206 139.588L357.756 140.272C357.561 140.175 357.333 140.141 357.123 140.156L356.864 139.862C356.768 139.733 356.784 139.619 356.865 139.538Z" fill="#BFBFBF"/>
<path d="M356.052 139.86C356.183 139.763 356.312 139.829 356.393 139.91L356.668 140.252C356.569 140.284 356.537 140.349 356.441 140.381C356.392 140.397 356.36 140.462 356.327 140.526L356.052 140.184C355.97 140.104 355.97 139.942 356.052 139.86Z" fill="#BFBFBF"/>
<path d="M355.254 140.231C355.385 140.134 355.514 140.199 355.595 140.28L356.129 140.915C356.079 141.092 356.045 141.32 356.061 141.532L355.253 140.555C355.237 140.506 355.237 140.506 355.221 140.456C355.206 140.408 355.206 140.408 355.188 140.359C355.221 140.295 355.204 140.247 355.254 140.231Z" fill="#BFBFBF"/>
<path d="M357.41 141.36L357.704 141.101C357.785 141.182 357.867 141.264 357.946 141.346C357.881 141.475 357.75 141.572 357.669 141.653L357.41 141.36Z" fill="#BFBFBF"/>
<path d="M356.764 140.545C356.943 140.433 357.138 140.369 357.284 140.32C357.316 140.419 357.348 140.515 357.381 140.613C357.235 140.661 357.104 140.758 357.023 140.839L356.764 140.545Z" fill="#BFBFBF"/>
<path d="M356.634 140.642L356.908 140.984C356.778 141.081 356.712 141.211 356.582 141.308C356.501 141.227 356.387 141.21 356.323 141.177C356.405 140.934 356.52 140.788 356.634 140.642Z" fill="#BFBFBF"/>
<path d="M357.801 141.069L358.175 140.729C358.191 140.777 358.207 140.827 358.207 140.827C358.19 140.941 358.157 141.005 358.125 141.07C358.092 141.136 358.059 141.2 358.011 141.215C357.963 141.232 357.882 141.151 357.801 141.069Z" fill="#BFBFBF"/>
<path d="M356.305 141.291C356.371 141.323 356.435 141.356 356.516 141.438C356.484 141.504 356.451 141.568 356.419 141.633C356.386 141.698 356.386 141.698 356.353 141.762C356.353 141.762 356.353 141.762 356.369 141.811C356.336 141.713 356.32 141.665 356.288 141.566C356.273 141.518 356.273 141.518 356.305 141.452C356.338 141.388 356.322 141.339 356.305 141.291Z" fill="#BFBFBF"/>
<path d="M357.559 140.662C357.608 140.647 357.658 140.631 357.754 140.598C357.853 140.567 357.949 140.534 358.014 140.567C358.063 140.551 358.08 140.599 358.144 140.632L357.769 140.972C357.689 140.889 357.608 140.809 357.559 140.662Z" fill="#BFBFBF"/>
<path d="M358.305 140.958C358.32 141.006 358.336 141.056 358.353 141.104C358.385 141.202 358.369 141.315 358.352 141.428L358.367 141.476C358.367 141.476 358.367 141.476 358.319 141.492C358.253 141.46 358.189 141.426 358.124 141.394C358.156 141.329 358.189 141.265 358.222 141.199C358.305 141.119 358.289 141.071 358.305 140.958Z" fill="#BFBFBF"/>
<path d="M356.579 142.119L356.953 141.779C357.034 141.86 357.066 141.958 357.146 142.039C357.098 142.054 357.049 142.072 356.952 142.103C356.855 142.134 356.806 142.151 356.692 142.134C356.692 142.136 356.627 142.103 356.579 142.119Z" fill="#BFBFBF"/>
<path d="M357.084 141.684L357.378 141.424L357.653 141.767C357.522 141.864 357.441 141.945 357.295 141.993C357.213 141.911 357.116 141.78 357.084 141.684Z" fill="#BFBFBF"/>
<path d="M357.07 140.986C357.2 140.889 357.281 140.808 357.427 140.759C357.459 140.858 357.557 140.986 357.637 141.069L357.343 141.329L357.07 140.986Z" fill="#BFBFBF"/>
<path d="M357.397 140.337C357.511 140.354 357.625 140.371 357.673 140.354C357.738 140.386 357.851 140.404 357.916 140.436L357.867 140.451C357.819 140.467 357.769 140.483 357.721 140.5C357.674 140.517 357.575 140.548 357.527 140.564C357.446 140.483 357.43 140.434 357.397 140.337Z" fill="#BFBFBF"/>
<path d="M356.791 142.267C356.84 142.251 356.953 142.268 357.002 142.251C357.051 142.235 357.148 142.202 357.197 142.187C357.23 142.284 357.245 142.333 357.277 142.431C357.098 142.382 356.92 142.332 356.791 142.267Z" fill="#BFBFBF"/>
<path d="M356.989 141.065L357.264 141.408L356.97 141.667C356.889 141.586 356.808 141.504 356.728 141.422C356.777 141.243 356.908 141.146 356.989 141.065Z" fill="#BFBFBF"/>
<path d="M356.628 141.454C356.709 141.535 356.791 141.617 356.87 141.699L356.496 142.039C356.48 141.99 356.464 141.94 356.464 141.94C356.481 141.826 356.514 141.762 356.546 141.697C356.563 141.583 356.596 141.519 356.628 141.454Z" fill="#BFBFBF"/>
<path d="M307.088 121.66C305.96 122.009 304.765 121.625 304.053 120.716C303.546 120.12 303.367 119.369 303.414 118.655C303.495 117.877 303.883 117.219 304.43 116.727C304.728 116.473 305.057 116.317 305.4 116.211C306.528 115.861 307.722 116.245 308.434 117.154C308.941 117.751 309.121 118.501 309.074 119.216C308.992 119.994 308.605 120.651 308.057 121.143C307.744 121.349 307.479 121.538 307.088 121.66Z" fill="#BFBFBF"/>
<path d="M307.042 121.512C307.385 121.406 307.664 121.265 307.962 121.013C309.12 120.063 309.286 118.343 308.336 117.185C307.624 116.276 306.461 115.991 305.43 116.311C305.087 116.417 304.808 116.558 304.51 116.81C303.352 117.76 303.186 119.479 304.136 120.638C304.896 121.531 306.011 121.832 307.042 121.512ZM307.117 121.758L307.042 121.512L307.117 121.758C306.577 121.926 305.992 121.946 305.395 121.754C304.813 121.612 304.318 121.227 303.905 120.764C303.399 120.168 303.156 119.383 303.237 118.605C303.318 117.827 303.691 117.12 304.337 116.597C304.635 116.343 304.963 116.187 305.355 116.066C305.896 115.898 306.48 115.878 307.078 116.07C307.66 116.212 308.154 116.598 308.568 117.061C309.074 117.657 309.317 118.442 309.236 119.22C309.155 119.997 308.782 120.704 308.136 121.227C307.839 121.481 307.511 121.636 307.117 121.758Z" fill="#263238"/>
<path d="M307.629 120.631C308.573 119.856 308.732 118.462 307.957 117.518C307.181 116.575 305.787 116.415 304.844 117.191C303.9 117.966 303.741 119.36 304.517 120.304C305.292 121.247 306.687 121.408 307.629 120.631Z" fill="#7C7C7C"/>
<path d="M307.635 118.909C307.729 119.041 307.662 119.169 307.579 119.249L306.852 119.851C306.953 119.658 306.99 119.431 306.964 119.172L307.262 118.918C307.393 118.822 307.555 118.826 307.635 118.909Z" fill="#BFBFBF"/>
<path d="M307.262 118.056C307.357 118.189 307.289 118.317 307.207 118.396L306.826 118.73C306.795 118.632 306.731 118.598 306.701 118.501C306.686 118.452 306.621 118.418 306.558 118.384L306.954 118.101C307.02 117.97 307.183 117.974 307.262 118.056Z" fill="#BFBFBF"/>
<path d="M306.891 117.203C306.985 117.336 306.918 117.464 306.835 117.544L306.157 118.13C305.964 118.028 305.753 118.039 305.541 118.051L306.566 117.196C306.615 117.182 306.615 117.182 306.665 117.166C306.714 117.152 306.714 117.152 306.764 117.136C306.826 117.17 306.875 117.153 306.891 117.203Z" fill="#BFBFBF"/>
<path d="M305.622 119.533L305.877 119.831C305.794 119.91 305.662 120.005 305.594 120.133C305.466 120.066 305.371 119.933 305.276 119.801L305.622 119.533Z" fill="#BFBFBF"/>
<path d="M306.515 118.771C306.624 118.952 306.735 119.133 306.746 119.345C306.648 119.377 306.55 119.406 306.452 119.437C306.406 119.29 306.311 119.158 306.217 119.027L306.515 118.771Z" fill="#BFBFBF"/>
<path d="M306.438 118.688L306.09 118.957C305.996 118.824 305.853 118.708 305.773 118.624C305.855 118.545 305.874 118.431 305.957 118.351C306.134 118.406 306.278 118.522 306.438 118.688Z" fill="#BFBFBF"/>
<path d="M305.953 119.913L306.302 120.342C306.253 120.357 306.203 120.372 306.155 120.388C306.041 120.369 305.978 120.335 305.864 120.316C305.799 120.283 305.736 120.248 305.671 120.215C305.789 120.071 305.871 119.992 305.953 119.913Z" fill="#BFBFBF"/>
<path d="M305.779 118.3C305.746 118.365 305.726 118.477 305.644 118.557C305.579 118.523 305.516 118.489 305.451 118.456C305.386 118.422 305.337 118.437 305.323 118.388C305.323 118.388 305.323 118.388 305.274 118.403L305.225 118.417C305.324 118.387 305.372 118.371 305.471 118.341C305.52 118.327 305.57 118.311 305.585 118.36C305.666 118.281 305.68 118.33 305.779 118.3Z" fill="#BFBFBF"/>
<path d="M306.353 119.628C306.367 119.677 306.399 119.775 306.413 119.824C306.443 119.923 306.426 120.036 306.44 120.085C306.455 120.134 306.421 120.199 306.373 120.213L306.024 119.784C306.171 119.74 306.269 119.708 306.353 119.628Z" fill="#BFBFBF"/>
<path d="M306.073 120.468C306.025 120.482 305.974 120.498 305.877 120.528C305.779 120.559 305.666 120.541 305.553 120.521L305.505 120.536C305.505 120.536 305.505 120.536 305.49 120.487C305.523 120.422 305.558 120.359 305.591 120.294C305.656 120.327 305.719 120.361 305.784 120.395C305.895 120.415 305.96 120.449 306.073 120.468Z" fill="#BFBFBF"/>
<path d="M304.895 118.573L305.243 119.003C305.161 119.082 305.062 119.112 304.93 119.207C304.915 119.158 304.884 119.06 304.869 119.011C304.838 118.913 304.857 118.799 304.842 118.75C304.862 118.638 304.862 118.638 304.895 118.573Z" fill="#BFBFBF"/>
<path d="M305.323 119.087L305.577 119.385L305.23 119.654C305.135 119.522 305.056 119.44 305.01 119.292C305.108 119.261 305.192 119.181 305.323 119.087Z" fill="#BFBFBF"/>
<path d="M306.085 119.119C306.18 119.252 306.26 119.334 306.306 119.481C306.159 119.527 306.076 119.607 305.992 119.685L305.738 119.387L306.085 119.119Z" fill="#BFBFBF"/>
<path d="M306.742 119.507C306.724 119.621 306.705 119.734 306.671 119.798C306.636 119.861 306.617 119.975 306.584 120.04L306.569 119.991C306.555 119.942 306.539 119.892 306.523 119.844C306.507 119.796 306.477 119.697 306.463 119.648C306.595 119.553 306.644 119.538 306.742 119.507Z" fill="#BFBFBF"/>
<path d="M304.696 118.799C304.71 118.848 304.692 118.961 304.708 119.01C304.723 119.059 304.754 119.157 304.769 119.206C304.67 119.235 304.622 119.251 304.523 119.281C304.575 119.103 304.628 118.927 304.696 118.799Z" fill="#BFBFBF"/>
<path d="M306.007 119.037L305.66 119.306L305.405 119.008C305.488 118.928 305.62 118.833 305.688 118.705C305.784 118.837 305.912 118.905 306.007 119.037Z" fill="#BFBFBF"/>
<path d="M305.56 118.637C305.478 118.716 305.394 118.796 305.311 118.874L304.963 118.445C305.011 118.43 305.062 118.415 305.11 118.399C305.223 118.418 305.287 118.452 305.4 118.471C305.432 118.569 305.495 118.603 305.56 118.637Z" fill="#BFBFBF"/>
<path d="M362.25 264.091C368.511 265.022 379.448 260.62 385.311 255.21C385.614 254.93 385.633 254.455 385.353 254.154C385.073 253.849 384.599 253.832 384.297 254.112C377.39 260.486 364.086 264.711 360.16 261.763C358.236 260.318 359.203 257.262 360.356 254.951C367.249 241.119 395.626 241.087 395.912 241.089C396.324 241.091 396.662 240.758 396.663 240.344C396.665 239.932 396.337 239.593 395.918 239.593C394.713 239.587 366.321 239.627 359.018 254.284C356.472 259.391 357.746 261.82 359.262 262.957C360.045 263.547 361.065 263.914 362.25 264.091Z" fill="url(#paint8_radial)"/>
<path fill-rule="evenodd" clip-rule="evenodd" d="M432.014 239.943L415.36 237.92L370.045 238.805L379.377 241.08L432.014 239.943Z" fill="url(#paint9_linear)"/>
<path fill-rule="evenodd" clip-rule="evenodd" d="M439.374 315.093L432.014 239.943L379.377 241.08L380.8 319.679L439.374 315.093Z" fill="#E6515B"/>
<path fill-rule="evenodd" clip-rule="evenodd" d="M380.8 319.679L368.416 313.516L370.044 238.805L382.227 239.218L379.377 241.08L380.8 319.679Z" fill="#E6515B"/>
<path opacity="0.5" fill-rule="evenodd" clip-rule="evenodd" d="M368.416 313.516L378.019 307.671L380.8 319.679L368.416 313.516Z" fill="#811734"/>
<path opacity="0.5" fill-rule="evenodd" clip-rule="evenodd" d="M378.019 307.671L377.74 239.066L382.227 239.218L379.376 241.08L380.799 319.679L378.019 307.671Z" fill="#811734"/>
<path opacity="0.5" d="M416.596 250.477C417.73 250.417 418.576 248.977 418.485 247.261C418.394 245.545 417.402 244.202 416.268 244.262C415.134 244.322 414.288 245.762 414.379 247.478C414.47 249.194 415.463 250.537 416.596 250.477Z" fill="#811734"/>
<path opacity="0.5" fill-rule="evenodd" clip-rule="evenodd" d="M394.561 248.967C394.651 250.684 395.645 252.026 396.779 251.967C397.913 251.908 398.759 250.468 398.667 248.751C398.577 247.034 397.583 245.692 396.449 245.751C395.316 245.812 394.471 247.25 394.561 248.967Z" fill="#811734"/>
<path d="M415.487 247.817C417.343 246.992 418.797 245.876 420.248 244.667C421.681 243.462 422.987 242.125 424.202 240.716C425.418 239.305 426.502 237.797 427.537 236.26C428.523 234.708 429.534 233.116 430.268 231.355C431.071 229.631 431.481 227.724 431.666 225.797C431.839 223.863 431.536 221.843 430.73 220.005C429.926 218.173 428.568 216.51 426.769 215.474C424.984 214.426 422.825 214.038 420.799 214.328C418.71 214.526 416.757 215.771 415.437 217.244C414.095 218.74 413.143 220.426 412.325 222.112C410.72 225.504 409.499 228.94 408.089 232.265C406.678 235.581 405.052 238.789 402.895 241.594C400.783 244.433 398.033 246.745 394.88 248.347L394.87 248.352C394.502 248.538 394.355 248.988 394.542 249.356C394.724 249.715 395.159 249.863 395.523 249.695C398.943 248.107 402.007 245.697 404.358 242.747C406.72 239.798 408.479 236.461 409.988 233.094C411.513 229.732 412.725 226.264 414.281 223.067C415.06 221.476 415.952 219.963 417.062 218.743C417.628 218.156 418.228 217.611 418.917 217.257C419.242 217.037 419.619 216.941 419.968 216.781C420.351 216.708 420.701 216.557 421.11 216.544C422.692 216.297 424.321 216.574 425.701 217.355C427.082 218.126 428.222 219.355 428.931 220.835C429.64 222.311 430.001 224.004 429.912 225.713C429.943 226.141 429.845 226.566 429.806 226.993C429.756 227.421 429.715 227.85 429.585 228.267L429.265 229.53C429.124 229.942 428.959 230.348 428.806 230.758C428.539 231.595 428.066 232.351 427.69 233.147C427.268 233.928 426.766 234.688 426.298 235.452C425.301 236.948 424.259 238.414 423.096 239.778C421.934 241.14 420.687 242.431 419.331 243.585C417.99 244.717 416.459 245.779 414.961 246.419L414.889 246.45C414.51 246.611 414.334 247.05 414.496 247.429C414.658 247.809 415.096 247.985 415.476 247.823C415.479 247.82 415.485 247.817 415.487 247.817Z" fill="url(#paint10_linear)"/>
<path opacity="0.5" d="M430.265 293.373L430.137 266.623L385.492 266.03L388.498 295.306L430.265 293.373Z" fill="#811734"/>
<path d="M367.554 312.059C367.554 316.267 364.142 319.678 359.936 319.678H303.554C299.346 319.678 295.936 316.266 295.936 312.059V173.043C295.936 168.834 299.346 165.424 303.554 165.424H359.936C364.142 165.424 367.554 168.836 367.554 173.043V312.059Z" fill="#45215B"/>
<path d="M362.566 312.059C362.566 316.268 359.155 319.678 354.947 319.678H298.566C294.358 319.678 290.947 316.266 290.947 312.059V173.043C290.947 168.835 294.359 165.424 298.566 165.424H354.947C359.155 165.424 362.566 168.836 362.566 173.043V312.059Z" fill="#F1F1F2"/>
<path d="M334.242 173.039C334.242 174.206 333.298 175.15 332.131 175.15H321.384C320.217 175.15 319.273 174.206 319.273 173.039C319.273 171.873 320.217 170.928 321.384 170.928H332.131C333.298 170.928 334.242 171.875 334.242 173.039Z" fill="#A598C4"/>
<path d="M360.261 178.221H293.475V301.433H360.261V178.221Z" fill="#A598C4"/>
<path d="M295.936 299.705V178.221H293.475V301.433H360.263V299.705H295.936Z" fill="#82799A"/>
<path d="M335.021 313.616C335.021 315.154 333.774 316.401 332.234 316.401H321.275C319.737 316.401 318.488 315.154 318.488 313.616V307.207C318.488 305.669 319.735 304.422 321.275 304.422H332.234C333.774 304.422 335.021 305.669 335.021 307.207V313.616Z" fill="#A598C4"/>
<path d="M293.475 284.411V266.497L360.263 186.588V204.502L293.475 284.411Z" fill="white"/>
<path d="M293.475 296.682V290.286L360.263 210.377V216.774L293.475 296.682Z" fill="white"/>
<path d="M299.173 196.698C299.173 202.203 295.124 206.665 290.129 206.665C285.132 206.665 281.084 202.203 281.084 196.698H299.173Z" fill="#291346"/>
<path d="M317.266 196.698C317.266 202.203 313.217 206.665 308.22 206.665C303.225 206.665 299.174 202.203 299.174 196.698H317.266Z" fill="#CCCECF"/>
<path d="M335.356 196.698C335.356 202.203 331.307 206.665 326.31 206.665C321.313 206.665 317.264 202.203 317.264 196.698H335.356Z" fill="#38245A"/>
<path d="M353.45 196.698C353.45 202.203 349.399 206.665 344.404 206.665C339.407 206.665 335.357 202.203 335.357 196.698H353.45Z" fill="#CCCECF"/>
<path d="M371.538 196.698C371.538 202.203 367.49 206.665 362.494 206.665C357.498 206.665 353.447 202.203 353.447 196.698H371.538Z" fill="#291346"/>
<path d="M356.032 178.221H298.528L281.084 196.698H371.538L356.032 178.221Z" fill="#38245A"/>
<path d="M344.532 178.221H310.03L299.174 196.698H353.45L344.532 178.221Z" fill="white"/>
<path d="M333.03 178.221H321.53L317.266 196.698H335.357L333.03 178.221Z" fill="#38245A"/>
<path d="M353.607 220.314H300.305V278.909H353.607V220.314Z" fill="white"/>
<path d="M317.956 225.613H302.955V240.614H317.956V225.613ZM314.956 237.612H305.956V228.613H314.956V237.612Z" fill="black"/>
<path d="M311.957 231.613H308.957V234.613H311.957V231.613Z" fill="black"/>
<path d="M335.957 225.613V240.614H350.958V225.613H335.957ZM347.956 237.613H338.957V228.613H347.956V237.613Z" fill="black"/>
<path d="M344.957 231.613H341.957V234.613H344.957V231.613Z" fill="black"/>
<path d="M302.955 273.612H317.956V258.611H302.955V273.612ZM305.955 261.613H314.955V270.612H305.955V261.613Z" fill="black"/>
<path d="M311.957 264.613H308.957V267.613H311.957V264.613Z" fill="black"/>
<path d="M332.955 225.613H326.955V228.613H332.955V225.613Z" fill="black"/>
<path d="M326.955 237.613H329.955V234.613H332.955V231.613H323.955V228.613H320.955V231.613V233.112V234.613H326.955V237.613Z" fill="black"/>
<path d="M323.955 237.613H320.955V240.612H323.955V237.613Z" fill="black"/>
<path d="M332.955 240.612H329.955V243.612H320.955V246.612H332.955V240.612Z" fill="black"/>
<path d="M305.955 252.613H308.956V249.612H305.955V243.612H302.955V255.613H305.955V252.613Z" fill="black"/>
<path d="M311.957 243.612H308.957V246.612H311.957V243.612Z" fill="black"/>
<path d="M320.957 255.613H326.956V252.613H323.956V249.612H317.957V243.612H314.957V249.612H311.957V255.613H314.957V252.613H316.456H317.957H320.957V255.613Z" fill="black"/>
<path d="M332.955 249.612H329.955V255.612H332.955V249.612Z" fill="black"/>
<path d="M329.955 258.613H320.955V261.613H326.955V270.613H320.955V273.612H329.955V270.613H335.956V267.613H329.955V258.613Z" fill="black"/>
<path d="M323.955 264.613H320.955V267.613H323.955V264.613Z" fill="black"/>
<path d="M335.955 258.613H332.955V264.613H335.955V258.613Z" fill="black"/>
<path d="M347.957 264.613H338.957V273.612H341.957V267.613H347.957V264.613Z" fill="black"/>
<path d="M350.957 270.613H344.957V273.612H350.957V270.613Z" fill="black"/>
<path d="M350.957 258.613H347.957V261.613H350.957V258.613Z" fill="black"/>
<path d="M338.957 261.613H341.957V252.613H335.957V255.613H338.957V261.613Z" fill="black"/>
<path d="M344.957 246.612H341.957V243.612H338.957V246.612H335.957V249.612H347.956V246.612H350.956V243.612H344.957V246.612Z" fill="black"/>
<path d="M350.957 252.613H344.957V255.613H350.957V252.613Z" fill="black"/>
<path d="M413.057 165.863C413.089 165.944 413.529 165.826 414.012 166.017C414.497 166.201 414.753 166.59 414.83 166.551C414.865 166.535 414.85 166.406 414.739 166.234C414.631 166.063 414.414 165.851 414.113 165.734C413.811 165.618 413.514 165.629 413.324 165.686C413.131 165.741 413.04 165.826 413.057 165.863Z" fill="#1A2E35"/>
<path d="M417.85 167.125C417.906 167.192 418.289 166.946 418.807 166.983C419.324 167.013 419.687 167.305 419.747 167.244C419.777 167.218 419.724 167.101 419.566 166.969C419.41 166.839 419.141 166.702 418.818 166.681C418.494 166.661 418.216 166.762 418.051 166.873C417.884 166.985 417.822 167.094 417.85 167.125Z" fill="#1A2E35"/>
<path d="M415.7 169.251C415.709 169.223 415.408 169.095 414.913 168.91C414.787 168.866 414.671 168.812 414.671 168.719C414.663 168.618 414.748 168.492 414.846 168.356C415.041 168.072 415.244 167.775 415.459 167.462C416.317 166.187 416.972 165.126 416.921 165.092C416.869 165.058 416.131 166.064 415.272 167.339C415.064 167.655 414.865 167.955 414.675 168.243C414.591 168.378 414.468 168.524 414.489 168.734C414.501 168.838 414.579 168.932 414.657 168.972C414.733 169.017 414.806 169.036 414.868 169.055C415.373 169.202 415.691 169.279 415.7 169.251Z" fill="#1A2E35"/>
<path d="M417.072 170.701C416.969 170.467 416.75 170.291 416.512 170.207C416.168 170.086 415.778 170.149 415.512 170.37C415.334 170.552 415.401 170.873 415.423 170.949C415.602 171.177 415.619 171.37 415.869 171.51C416.121 171.65 416.756 171.563 416.96 171.384C417.138 171.227 417.173 170.936 417.072 170.701Z" fill="#FF9A6C"/>
<path d="M417.104 169.95C417.023 169.925 416.892 170.474 416.331 170.754C415.771 171.036 415.2 170.837 415.177 170.911C415.162 170.944 415.283 171.048 415.527 171.114C415.768 171.179 416.14 171.183 416.483 171.012C416.826 170.841 417.025 170.551 417.096 170.33C417.171 170.106 417.141 169.955 417.104 169.95Z" fill="#1A2E35"/>
<path d="M418.892 164.45C418.864 164.594 419.329 164.478 419.755 164.789C420.189 165.089 420.438 165.713 420.557 165.633C420.613 165.594 420.61 165.442 420.525 165.241C420.439 165.041 420.263 164.8 420.005 164.616C419.747 164.433 419.466 164.35 419.256 164.339C419.044 164.328 418.907 164.381 418.892 164.45Z" fill="#1A2E35"/>
<path d="M413.366 163.916C413.479 164.024 413.805 163.598 414.282 163.546C414.759 163.479 415.237 163.806 415.318 163.675C415.353 163.612 415.277 163.5 415.089 163.406C414.904 163.313 414.602 163.249 414.274 163.29C413.946 163.33 413.671 163.464 413.515 163.601C413.36 163.738 413.315 163.864 413.366 163.916Z" fill="#1A2E35"/>
<defs>
<radialGradient id="paint0_radial" cx="0" cy="0" r="1" gradientUnits="userSpaceOnUse" gradientTransform="translate(176.076 298.807) rotate(-1.67439) scale(107.112 96.3021)">
<stop stop-color="#7C65E0"/>
<stop offset="0.9944" stop-color="#954CB8"/>
</radialGradient>
<linearGradient id="paint1_linear" x1="25.1447" y1="313.697" x2="327.62" y2="304.861" gradientUnits="userSpaceOnUse">
<stop stop-color="#603082"/>
<stop offset="0.9944" stop-color="#2A0E51"/>
</linearGradient>
<radialGradient id="paint2_radial" cx="0" cy="0" r="1" gradientUnits="userSpaceOnUse" gradientTransform="translate(80.4067 180.177) scale(16.8129)">
<stop stop-color="#EBD7E3"/>
<stop offset="0.9829" stop-color="#BDAFD2"/>
</radialGradient>
<radialGradient id="paint3_radial" cx="0" cy="0" r="1" gradientUnits="userSpaceOnUse" gradientTransform="translate(265.891 180.177) rotate(180) scale(16.8129)">
<stop stop-color="#EBD7E3"/>
<stop offset="0.9829" stop-color="#BDAFD2"/>
</radialGradient>
<linearGradient id="paint4_linear" x1="221.974" y1="295.248" x2="221.974" y2="216.619" gradientUnits="userSpaceOnUse">
<stop stop-color="#6D47D3"/>
<stop offset="0.9944" stop-color="#713592"/>
</linearGradient>
<radialGradient id="paint5_radial" cx="0" cy="0" r="1" gradientUnits="userSpaceOnUse" gradientTransform="translate(134.261 243.674) scale(18.712)">
<stop stop-color="#7C65E0"/>
<stop offset="0.9944" stop-color="#954CB8"/>
</radialGradient>
<radialGradient id="paint6_radial" cx="0" cy="0" r="1" gradientUnits="userSpaceOnUse" gradientTransform="translate(133.384 230.17) scale(17.1639)">
<stop stop-color="#7C65E0"/>
<stop offset="0.9944" stop-color="#954CB8"/>
</radialGradient>
<linearGradient id="paint7_linear" x1="205.285" y1="122.431" x2="294.154" y2="122.431" gradientUnits="userSpaceOnUse">
<stop stop-color="#C73E27"/>
<stop offset="0.998" stop-color="#A4152C"/>
</linearGradient>
<radialGradient id="paint8_radial" cx="0" cy="0" r="1" gradientUnits="userSpaceOnUse" gradientTransform="translate(376.97 251.682) rotate(-175.313) scale(16.359)">
<stop stop-color="#EBD7E3"/>
<stop offset="0.9829" stop-color="#BDAFD2"/>
</radialGradient>
<linearGradient id="paint9_linear" x1="400.762" y1="242.837" x2="401.26" y2="236.767" gradientUnits="userSpaceOnUse">
<stop stop-color="#C73E27"/>
<stop offset="0.998" stop-color="#A4152C"/>
</linearGradient>
<linearGradient id="paint10_linear" x1="410.919" y1="252.105" x2="416.683" y2="213.322" gradientUnits="userSpaceOnUse">
<stop offset="0.0171" stop-color="#BD8BD2"/>
<stop offset="1" stop-color="#EBD7E3"/>
</linearGradient>
</defs>
</svg>
