<svg width="213" height="184" viewBox="0 0 213 184" fill="none" xmlns="http://www.w3.org/2000/svg">
    <path d="M192.751 143.144C190.039 148.533 186.868 153.031 183.323 156.261C182.318 157.19 181.236 158.033 180.09 158.78C179.064 159.451 177.979 160.026 176.848 160.498C160.682 167.191 144.129 151.961 125.636 153.762C110.136 155.273 98.9799 163.9 89.0911 171.143C85.8505 173.618 82.4583 175.887 78.9339 177.936C78.0001 178.46 77.0563 178.934 76.1225 179.36C75.1161 179.809 74.0485 180.232 72.9052 180.62C72.9052 180.628 72.8954 180.628 72.8954 180.628L72.8873 180.62C58.5615 185.541 34.3656 185.357 23.6433 174.774C12.4196 163.681 -1.21784 127.73 29.6599 81.4246C63.9691 29.9525 157.705 22.8367 182.756 39.8596C208.677 57.4567 207.634 113.577 192.753 143.149" fill="#D6DCFD"/>
    <path d="M152.355 80.3751C152.355 88.2877 150.012 96.0225 145.623 102.601C141.234 109.18 134.996 114.308 127.698 117.336C120.4 120.363 112.37 121.155 104.622 119.611C96.875 118.068 89.7587 114.257 84.1732 108.662C78.5878 103.067 74.7839 95.9382 73.243 88.1776C71.702 80.417 72.4929 72.373 75.5158 65.0627C78.5387 57.7524 83.6578 51.5041 90.2257 47.108C96.7936 42.712 104.515 40.3655 112.415 40.3654C123.007 40.3654 133.166 44.5804 140.656 52.0833C148.147 59.5861 152.354 69.7622 152.354 80.3729" fill="#6654A4"/>
    <path d="M135.548 128.888H89.2823C87.8159 128.888 86.4094 128.305 85.3723 127.267C84.3352 126.228 83.7523 124.82 83.752 123.351V27.0624C83.752 25.5931 84.3344 24.1841 85.3716 23.1452C86.4087 22.1063 87.8156 21.5227 89.2823 21.5227H135.544C137.01 21.5229 138.417 22.1066 139.454 23.1455C140.491 24.1843 141.073 25.5933 141.073 27.0624V123.347C141.073 124.816 140.491 126.225 139.454 127.264C138.417 128.302 137.01 128.886 135.544 128.886" fill="black"/>
    <path d="M124.755 25.3473V26.8111C124.755 27.0957 124.699 27.3776 124.591 27.6407C124.482 27.9038 124.323 28.1428 124.122 28.3442C123.922 28.5457 123.683 28.7055 123.421 28.8146C123.158 28.9237 122.877 28.98 122.593 28.9802H102.237C101.663 28.9798 101.113 28.7511 100.707 28.3443C100.301 27.9375 100.073 27.386 100.073 26.8111V25.3488C100.073 25.1617 99.9989 24.9824 99.867 24.85C99.735 24.7177 99.5561 24.6431 99.3693 24.6427H90.9509C90.4493 24.6427 89.9528 24.7418 89.4895 24.9342C89.0261 25.1266 88.6053 25.4087 88.2509 25.7642C87.8965 26.1197 87.6152 26.5417 87.4238 27.0061C87.2323 27.4704 87.1341 27.9681 87.1348 28.4705V121.94C87.1344 122.955 87.5361 123.928 88.2517 124.646C88.9672 125.363 89.9381 125.767 90.9509 125.769H133.874C134.887 125.767 135.858 125.363 136.573 124.646C137.289 123.928 137.691 122.955 137.69 121.94V28.469C137.691 27.4546 137.288 26.4815 136.573 25.7638C135.857 25.046 134.887 24.6422 133.874 24.6412H125.456C125.269 24.6412 125.09 24.7156 124.958 24.848C124.826 24.9804 124.752 25.16 124.752 25.3473" fill="white"/>
    <path d="M139.053 115.088H86.1807V126.125H139.053V115.088Z" fill="black"/>
    <path d="M117.203 121.275C117.202 122.338 116.78 123.358 116.029 124.11C115.278 124.861 114.26 125.283 113.198 125.283C112.136 125.283 111.118 124.86 110.368 124.108C109.617 123.356 109.195 122.336 109.195 121.272C109.195 120.209 109.617 119.189 110.368 118.437C111.118 117.685 112.136 117.262 113.198 117.262C114.26 117.261 115.278 117.683 116.029 118.435C116.78 119.187 117.202 120.206 117.203 121.27V121.275Z" fill="#545454"/>
    <path d="M116.202 121.275C116.202 121.87 116.025 122.451 115.695 122.945C115.365 123.439 114.896 123.824 114.348 124.051C113.799 124.279 113.195 124.338 112.613 124.222C112.031 124.105 111.497 123.819 111.077 123.398C110.657 122.978 110.372 122.442 110.256 121.859C110.14 121.276 110.199 120.671 110.427 120.122C110.654 119.573 111.039 119.103 111.532 118.773C112.026 118.442 112.606 118.266 113.199 118.266C113.594 118.266 113.985 118.343 114.349 118.494C114.713 118.646 115.045 118.867 115.323 119.147C115.602 119.426 115.823 119.758 115.974 120.123C116.125 120.488 116.202 120.88 116.202 121.275Z" fill="#737373"/>
    <path d="M116.919 26.7883H104.573C104.485 26.7884 104.398 26.7712 104.317 26.7376C104.236 26.7041 104.162 26.6548 104.1 26.5927C104.038 26.5306 103.989 26.4569 103.955 26.3758C103.921 26.2946 103.904 26.2076 103.904 26.1197C103.904 26.0319 103.921 25.9449 103.955 25.8637C103.989 25.7826 104.038 25.7088 104.1 25.6467C104.162 25.5846 104.236 25.5354 104.317 25.5018C104.398 25.4683 104.485 25.4511 104.573 25.4512H116.915C117.092 25.4512 117.261 25.5216 117.387 25.647C117.512 25.7723 117.582 25.9424 117.582 26.1197C117.582 26.297 117.512 26.4669 117.387 26.5922C117.261 26.7176 117.092 26.7881 116.915 26.7883" fill="#A4A5A4"/>
    <path d="M120.922 26.1182C120.922 26.3165 120.863 26.5104 120.753 26.6752C120.643 26.84 120.487 26.9684 120.304 27.0442C120.121 27.12 119.919 27.1398 119.725 27.101C119.531 27.0622 119.353 26.9666 119.213 26.8263C119.073 26.686 118.978 26.5074 118.939 26.3129C118.9 26.1184 118.921 25.9167 118.996 25.7335C119.072 25.5503 119.2 25.3938 119.365 25.2836C119.53 25.1735 119.723 25.1146 119.921 25.1146C120.053 25.1146 120.183 25.1406 120.304 25.1911C120.426 25.2415 120.536 25.3154 120.629 25.4086C120.722 25.5018 120.796 25.6125 120.846 25.7342C120.896 25.856 120.922 25.9865 120.922 26.1182Z" fill="#A4A5A4"/>
    <path d="M127.027 104.083H96.8874C95.4942 104.083 94.1583 103.528 93.1733 102.541C92.1882 101.554 91.6348 100.215 91.6348 98.8198V98.8146C91.6348 97.4187 92.1883 96.08 93.1736 95.093C94.159 94.106 95.4954 93.5515 96.8889 93.5515H127.029C128.422 93.5517 129.758 94.1063 130.744 95.0933C131.729 96.0803 132.282 97.4188 132.282 98.8146V98.8198C132.282 100.216 131.729 101.554 130.744 102.541C129.758 103.528 128.422 104.083 127.029 104.083" fill="#6654A4"/>
    <path d="M86.4507 65.2039C86.4507 65.2039 90.7734 68.9395 91.7155 73.2889C92.9785 79.1239 86.9706 87.9637 87.3006 95.1575C87.6837 103.473 92.2023 107.063 94.9529 112.574C98.1329 118.945 97.9064 123.134 97.9064 125.316C97.9201 126.583 97.6458 127.837 97.1048 128.982H126.952C122.255 135.458 116.334 140.945 109.524 145.131C100.075 151.024 95.1447 161.06 95.1447 161.06H53.3154L68.3745 136.009C68.3745 136.009 65.6497 122.812 67.2577 113.268C70.1683 96.0037 86.45 65.2017 86.45 65.2017" fill="#B78876"/>
    <path d="M97.2418 128.891C97.2418 128.891 95.6518 131.846 93.7939 134.869C91.936 137.892 90.7754 139.522 90.7754 139.522C90.7754 139.522 95.1669 138.331 97.9743 136.266C100.785 134.188 103.302 131.739 105.457 128.984L97.2418 128.891Z" fill="#AA6550"/>
    <path d="M138.732 3.03477L140.026 0.664062L141.32 3.03477C142.615 5.40506 144.561 7.35386 146.927 8.65013L149.293 9.94677L146.927 11.2434C144.561 12.54 142.615 14.489 141.32 16.8595L140.026 19.2295L138.732 16.8595C137.438 14.489 135.492 12.5399 133.126 11.2434L130.759 9.94677L133.126 8.65013C135.492 7.35403 137.438 5.40518 138.732 3.03477Z" fill="#6654A4"/>
    <path d="M115.162 11.6201L115.712 10.6143L116.259 11.6201C116.809 12.6251 117.634 13.4514 118.637 14.0013L119.641 14.5514L118.637 15.1008C117.634 15.6513 116.809 16.4781 116.259 17.4835L115.712 18.4886L115.162 17.4835C114.614 16.4777 113.788 15.6508 112.785 15.1008L111.781 14.5514L112.785 14.0013C113.788 13.452 114.614 12.6255 115.162 11.6201Z" fill="#6654A4"/>
    <path d="M149.483 38.9543L149.735 38.4918L149.988 38.9543C150.241 39.4175 150.62 39.7984 151.083 40.0516L151.544 40.3049L151.083 40.5582C150.62 40.8111 150.241 41.1917 149.988 41.6547L149.735 42.1172L149.483 41.6547C149.231 41.1918 148.851 40.8112 148.389 40.5582L147.927 40.3049L148.389 40.0516C148.851 39.7984 149.231 39.4175 149.483 38.9543Z" fill="#6654A4"/>
    <path d="M152.507 20.5571L152.968 19.7131L153.429 20.5571C153.89 21.4012 154.582 22.0952 155.425 22.5568L156.267 23.0185L155.425 23.4795C154.582 23.941 153.89 24.635 153.429 25.4791L152.968 26.3231L152.507 25.4791C152.046 24.635 151.353 23.9411 150.511 23.4795L149.669 23.0185L150.511 22.5568C151.353 22.0952 152.046 21.4012 152.507 20.5571Z" fill="#6654A4"/>
    <path d="M95.3055 35.4366H93.714L93.4535 36.1111C93.4368 36.1624 93.4039 36.2069 93.36 36.2381C93.316 36.2693 93.2633 36.2855 93.2095 36.2843C93.1601 36.2844 93.1116 36.2723 93.0681 36.2491C93.0305 36.2319 92.9987 36.2042 92.9764 36.1694C92.9541 36.1346 92.9423 36.094 92.9424 36.0527C92.9424 36.0217 92.9487 35.9911 92.961 35.9627L94.071 33.1895C94.1046 33.0808 94.1694 32.9844 94.2573 32.9122C94.3333 32.8643 94.4218 32.8402 94.5116 32.8433C94.6004 32.8406 94.6879 32.8646 94.7629 32.9122C94.8503 32.9847 94.9148 33.081 94.9485 33.1895L96.0581 35.9627C96.0701 35.992 96.0764 36.0233 96.0767 36.0549C96.0772 36.0981 96.0637 36.1402 96.038 36.1749C96.0122 36.2101 95.9778 36.2382 95.9383 36.2566C95.8983 36.2754 95.8546 36.2851 95.8104 36.285C95.7579 36.281 95.7076 36.2627 95.6646 36.2322C95.6217 36.2017 95.5879 36.1601 95.5667 36.1119L95.3055 35.4366ZM94.5108 33.3649L93.8605 35.0521H95.1586L94.5108 33.3649Z" fill="#474A51"/>
    <path d="M96.6265 36.2076C96.6028 36.1867 96.5844 36.1606 96.5724 36.1314C96.5603 36.1022 96.5551 36.0706 96.557 36.039V34.1263C96.5559 34.0951 96.5619 34.064 96.5749 34.0357C96.5879 34.0073 96.6072 33.9823 96.6316 33.9628C96.6786 33.9233 96.7386 33.9022 96.8 33.9037C96.8601 33.9026 96.9188 33.9221 96.9662 33.9591C96.9904 33.9769 97.0098 34.0003 97.0229 34.0273C97.0359 34.0544 97.0423 34.0842 97.0411 34.1143V34.3039C97.1082 34.1652 97.2157 34.0504 97.3498 33.9748C97.4877 33.9006 97.6424 33.863 97.7989 33.8654C97.9769 33.8598 98.152 33.9107 98.2994 34.0108C98.4347 34.1065 98.5328 34.246 98.5771 34.4058C98.6344 34.2386 98.7467 34.0957 98.8953 34.0003C99.0521 33.907 99.2321 33.8602 99.4145 33.8654C99.5286 33.8643 99.6419 33.8821 99.7502 33.9179C99.8511 33.9516 99.9442 34.0057 100.024 34.0768C100.108 34.1548 100.172 34.252 100.211 34.3601C100.257 34.4911 100.28 34.6295 100.277 34.7686V36.039C100.279 36.0706 100.274 36.1023 100.262 36.1315C100.25 36.1608 100.231 36.1868 100.207 36.2076C100.159 36.2474 100.098 36.2684 100.036 36.2669C99.9751 36.2683 99.9154 36.2472 99.8686 36.2076C99.845 36.1867 99.8266 36.1606 99.8145 36.1314C99.8025 36.1022 99.7969 36.0706 99.7988 36.039V34.7566C99.8107 34.6036 99.7654 34.4515 99.6717 34.3301C99.6246 34.2811 99.5677 34.2429 99.5043 34.2183C99.441 34.1937 99.373 34.1833 99.3052 34.1877C99.218 34.185 99.1309 34.2013 99.0506 34.2355C98.9702 34.2696 98.8984 34.3208 98.8398 34.3856C98.7093 34.5429 98.6438 34.7443 98.6571 34.9485V36.036C98.6588 36.0678 98.6533 36.0995 98.641 36.1289C98.6287 36.1582 98.6101 36.1844 98.5862 36.2054C98.5385 36.2461 98.4775 36.2678 98.4149 36.2661C98.3539 36.2672 98.2946 36.2455 98.2486 36.2054C98.225 36.1842 98.2063 36.158 98.1942 36.1287C98.182 36.0994 98.1768 36.0677 98.1785 36.036V34.7941C98.1913 34.6313 98.1457 34.4692 98.0502 34.3369C98.0043 34.2861 97.9477 34.2462 97.8844 34.2203C97.821 34.1944 97.7528 34.183 97.6845 34.187C97.5969 34.1829 97.5095 34.1982 97.4284 34.2317C97.3473 34.2653 97.2746 34.3163 97.2154 34.3811C97.0906 34.5304 97.0272 34.7219 97.0386 34.9163V36.0405C97.0402 36.0725 97.0344 36.1045 97.0214 36.1338C97.0084 36.1631 96.9889 36.1889 96.964 36.2091C96.9159 36.2489 96.855 36.2699 96.7927 36.2683C96.7317 36.2696 96.6723 36.248 96.6265 36.2076Z" fill="#474A51"/>
    <path d="M101.474 36.2062C101.329 36.1475 101.199 36.0562 101.095 35.9393C100.997 35.8259 100.921 35.6949 100.871 35.5533C100.819 35.4032 100.794 35.2452 100.796 35.0864C100.794 34.9264 100.819 34.7671 100.871 34.6157C100.92 34.4734 100.996 34.3419 101.095 34.2282C101.199 34.1121 101.329 34.0214 101.473 33.9629C101.637 33.896 101.813 33.8629 101.99 33.8654C102.219 33.8594 102.444 33.9167 102.643 34.0311C102.819 34.1346 102.963 34.2875 103.054 34.4711C103.147 34.6625 103.193 34.8729 103.19 35.0856C103.192 35.2439 103.167 35.4014 103.116 35.5511C103.066 35.6932 102.989 35.8247 102.891 35.9386C102.787 36.0553 102.658 36.1466 102.513 36.2054C102.18 36.3367 101.81 36.3367 101.477 36.2054L101.474 36.2062ZM102.529 35.7407C102.655 35.5457 102.722 35.3184 102.722 35.086C102.722 34.8537 102.655 34.6263 102.529 34.4313C102.462 34.3558 102.379 34.2953 102.287 34.2539C102.194 34.2125 102.095 34.1911 101.994 34.1911C101.893 34.1911 101.793 34.2125 101.7 34.2539C101.608 34.2953 101.525 34.3558 101.458 34.4313C101.332 34.6264 101.264 34.8541 101.264 35.0868C101.264 35.3194 101.332 35.5471 101.458 35.7422C101.522 35.8211 101.604 35.8838 101.697 35.9253C101.79 35.9669 101.891 35.986 101.993 35.9813C102.094 35.9855 102.196 35.966 102.289 35.9242C102.382 35.8825 102.464 35.8197 102.529 35.7407Z" fill="#474A51"/>
    <path d="M103.931 36.077C103.846 35.9852 103.782 35.8768 103.741 35.7586C103.7 35.6405 103.683 35.5152 103.693 35.3905V34.1343C103.692 34.1025 103.697 34.0708 103.71 34.0415C103.722 34.0121 103.741 33.986 103.764 33.9649C103.811 33.9247 103.871 33.9031 103.933 33.9042C103.994 33.9031 104.053 33.9247 104.099 33.9649C104.123 33.9862 104.141 34.0124 104.154 34.0417C104.166 34.071 104.171 34.1027 104.169 34.1343V35.395C104.158 35.5522 104.206 35.7077 104.304 35.8312C104.351 35.8816 104.408 35.9211 104.472 35.9469C104.536 35.9728 104.605 35.9845 104.673 35.9811C104.758 35.9819 104.842 35.9649 104.919 35.931C104.996 35.8972 105.066 35.8473 105.122 35.7847C105.251 35.6407 105.321 35.4533 105.318 35.2601V34.1358C105.316 34.1037 105.322 34.0718 105.335 34.0424C105.348 34.0131 105.368 33.9871 105.392 33.9664C105.44 33.9259 105.501 33.9043 105.563 33.9057C105.624 33.9045 105.684 33.9262 105.73 33.9664C105.753 33.9877 105.772 34.0139 105.784 34.0432C105.796 34.0725 105.801 34.1041 105.799 34.1358V36.0441C105.801 36.0756 105.795 36.1069 105.782 36.1357C105.769 36.1644 105.749 36.1898 105.725 36.2097C105.677 36.2473 105.617 36.2677 105.556 36.2677C105.495 36.2677 105.436 36.2473 105.388 36.2097C105.365 36.1905 105.346 36.1661 105.334 36.1385C105.322 36.1109 105.317 36.0809 105.318 36.0508V35.8799C105.256 36.015 105.151 36.1255 105.019 36.194C104.873 36.27 104.71 36.3078 104.546 36.3041C104.433 36.3088 104.321 36.2911 104.216 36.2521C104.11 36.2131 104.013 36.1536 103.931 36.077Z" fill="#474A51"/>
    <path d="M106.554 36.2067C106.531 36.1859 106.512 36.16 106.5 36.1311C106.488 36.1022 106.483 36.0709 106.485 36.0396V34.129C106.483 34.0979 106.488 34.0668 106.501 34.0381C106.513 34.0095 106.532 33.9842 106.556 33.9642C106.603 33.9256 106.662 33.9051 106.723 33.9064C106.784 33.9048 106.843 33.925 106.89 33.9634C106.914 33.9825 106.932 34.0068 106.944 34.0344C106.957 34.0621 106.962 34.0922 106.961 34.1223V34.2902C107.023 34.1546 107.128 34.0435 107.26 33.9747C107.406 33.8993 107.568 33.8616 107.732 33.8652C107.846 33.864 107.959 33.882 108.067 33.9184C108.167 33.9533 108.259 34.0081 108.338 34.0796C108.423 34.1587 108.487 34.2573 108.524 34.3667C108.57 34.4988 108.593 34.6382 108.59 34.7781V36.0388C108.592 36.0706 108.586 36.1022 108.573 36.1312C108.56 36.1602 108.54 36.1858 108.515 36.2059C108.468 36.246 108.408 36.2676 108.347 36.2666C108.285 36.2681 108.226 36.2465 108.18 36.2059C108.156 36.1851 108.138 36.1593 108.125 36.1304C108.113 36.1014 108.108 36.0701 108.11 36.0388V34.7736C108.121 34.6167 108.072 34.4616 107.972 34.3397C107.925 34.2891 107.866 34.2495 107.802 34.2236C107.737 34.1977 107.668 34.1862 107.598 34.1898C107.514 34.1885 107.43 34.2053 107.353 34.239C107.275 34.2728 107.206 34.3226 107.149 34.3854C107.021 34.5297 106.952 34.717 106.955 34.91V36.0343C106.957 36.0657 106.952 36.0972 106.939 36.1261C106.927 36.1551 106.908 36.1809 106.884 36.2015C106.838 36.2417 106.778 36.2633 106.716 36.2622C106.657 36.2637 106.6 36.244 106.554 36.2067Z" fill="#474A51"/>
    <path d="M109.597 36.1134C109.475 35.9629 109.414 35.7716 109.428 35.5783V34.2389H109.153C109.13 34.2406 109.107 34.2376 109.084 34.2301C109.062 34.2227 109.042 34.2108 109.024 34.1954C108.995 34.165 108.979 34.1248 108.979 34.083C108.979 34.0412 108.995 34.0009 109.024 33.9706C109.06 33.9398 109.106 33.9244 109.153 33.9278H109.43L109.494 33.2713C109.5 33.2138 109.526 33.1605 109.569 33.1214C109.612 33.082 109.668 33.0608 109.726 33.0622C109.751 33.0605 109.775 33.0642 109.798 33.0731C109.821 33.0821 109.842 33.096 109.859 33.1139C109.876 33.1317 109.89 33.1531 109.898 33.1766C109.906 33.2 109.908 33.2249 109.906 33.2495V33.9241H110.329C110.352 33.9223 110.376 33.9254 110.397 33.9331C110.419 33.9409 110.439 33.9531 110.456 33.969C110.471 33.9842 110.482 34.0021 110.489 34.0217C110.496 34.0413 110.5 34.0621 110.499 34.083C110.5 34.1033 110.496 34.1237 110.489 34.1426C110.482 34.1616 110.471 34.1788 110.456 34.1932C110.421 34.2232 110.375 34.238 110.329 34.2344H109.906V35.4741C109.898 35.5898 109.92 35.7056 109.969 35.8106C109.991 35.8463 110.021 35.8754 110.058 35.8946C110.095 35.9137 110.136 35.9223 110.178 35.9193H110.202L110.369 35.9096H110.384C110.409 35.9083 110.435 35.9126 110.459 35.9221C110.483 35.9317 110.504 35.9463 110.522 35.965C110.546 35.9911 110.563 36.0234 110.57 36.0584C110.577 36.0933 110.574 36.1295 110.561 36.1629C110.554 36.1816 110.544 36.1989 110.53 36.2138C110.516 36.2285 110.498 36.2402 110.479 36.2483C110.459 36.2574 110.438 36.2649 110.417 36.2708C110.393 36.2769 110.368 36.2811 110.343 36.2835C110.311 36.2835 110.283 36.2888 110.259 36.2895H110.169H110.055C109.97 36.2949 109.886 36.282 109.807 36.2516C109.727 36.2212 109.656 36.1741 109.597 36.1134Z" fill="#474A51"/>
    <path d="M113.449 36.2001C113.423 36.1764 113.404 36.1472 113.391 36.1148C113.378 36.0824 113.372 36.0475 113.374 36.0127V33.4201L112.88 33.7379C112.85 33.7581 112.815 33.7689 112.779 33.7686C112.754 33.7688 112.729 33.7637 112.706 33.7535C112.683 33.7432 112.662 33.7283 112.646 33.7094C112.627 33.692 112.613 33.671 112.603 33.6478C112.593 33.6247 112.588 33.5997 112.588 33.5745C112.588 33.5428 112.597 33.5118 112.613 33.4846C112.629 33.4574 112.653 33.4351 112.681 33.4201L113.504 32.9104C113.548 32.886 113.597 32.8729 113.647 32.8722C113.714 32.871 113.778 32.8957 113.826 32.9412C113.852 32.9659 113.872 32.9958 113.885 33.0289C113.897 33.062 113.903 33.0975 113.901 33.133V36.0127C113.903 36.0476 113.898 36.0825 113.885 36.115C113.872 36.1474 113.852 36.1765 113.826 36.2001C113.774 36.2437 113.708 36.2671 113.64 36.266C113.571 36.269 113.502 36.2454 113.449 36.2001Z" fill="#474A51"/>
    <path d="M115.753 36.2242C115.588 36.1588 115.435 36.0658 115.3 35.9491C115.284 35.935 115.271 35.9175 115.263 35.8978C115.254 35.8781 115.25 35.8567 115.251 35.8352C115.253 35.7731 115.276 35.7137 115.318 35.668C115.336 35.6443 115.358 35.6248 115.384 35.611C115.41 35.5973 115.439 35.5896 115.468 35.5886C115.501 35.5886 115.533 35.6003 115.558 35.6216C115.767 35.7947 116.03 35.8893 116.301 35.8892C116.393 35.8958 116.486 35.8829 116.573 35.8513C116.66 35.8196 116.739 35.77 116.806 35.7055C116.927 35.5633 116.989 35.3795 116.977 35.1929C116.986 35.0175 116.925 34.8459 116.807 34.7154C116.75 34.6552 116.68 34.6081 116.603 34.5772C116.525 34.5463 116.442 34.5324 116.358 34.5363C116.236 34.5367 116.114 34.5646 116.004 34.618C115.896 34.667 115.799 34.7348 115.715 34.8181C115.706 34.8266 115.695 34.8323 115.682 34.8346C115.666 34.8379 115.649 34.8394 115.633 34.8391C115.555 34.838 115.478 34.8185 115.408 34.7821C115.333 34.7439 115.294 34.6974 115.294 34.642V33.125C115.294 32.9656 115.381 32.8859 115.554 32.8859H117.102C117.128 32.8845 117.154 32.8892 117.179 32.8998C117.203 32.9103 117.224 32.9263 117.242 32.9466C117.274 32.9861 117.292 33.0361 117.291 33.0875C117.292 33.1386 117.274 33.1884 117.242 33.2276C117.224 33.2475 117.203 33.2632 117.178 33.2735C117.154 33.2837 117.128 33.2883 117.102 33.2868H115.717V34.3654L115.744 34.3414C115.77 34.3175 115.798 34.2963 115.829 34.2784C115.873 34.2505 115.919 34.2254 115.967 34.2035C116.033 34.1759 116.101 34.1555 116.171 34.1428C116.259 34.126 116.347 34.1177 116.436 34.118C116.577 34.1118 116.718 34.1353 116.849 34.1869C116.98 34.2386 117.099 34.3173 117.197 34.4179C117.295 34.5231 117.371 34.6466 117.42 34.7813C117.47 34.916 117.493 35.0591 117.487 35.2026C117.493 35.3526 117.467 35.502 117.41 35.6409C117.353 35.7797 117.266 35.9045 117.157 36.0068C116.927 36.2136 116.627 36.3228 116.318 36.3111C116.126 36.3176 115.934 36.2881 115.753 36.2242Z" fill="#474A51"/>
    <path d="M118.694 36.2528C118.575 36.2124 118.467 36.1475 118.376 36.0624C118.288 35.9782 118.212 35.8821 118.151 35.7768C118.085 35.6629 118.035 35.5406 118.002 35.4133C117.966 35.2782 117.939 35.1407 117.923 35.0018C117.906 34.8541 117.897 34.7054 117.898 34.5566C117.897 34.3764 117.909 34.1962 117.933 34.0177C117.956 33.855 117.997 33.6955 118.055 33.5418C118.107 33.4001 118.183 33.2684 118.28 33.1528C118.376 33.0426 118.495 32.9556 118.629 32.898C118.941 32.7723 119.29 32.7723 119.602 32.898C119.736 32.9554 119.855 33.0425 119.951 33.1528C120.048 33.2685 120.124 33.4005 120.175 33.5425C120.233 33.6965 120.274 33.8563 120.298 34.0192C120.344 34.3739 120.344 34.7333 120.298 35.088C120.275 35.2511 120.234 35.4112 120.177 35.5654C120.124 35.7088 120.049 35.8423 119.952 35.9605C119.857 36.0731 119.738 36.1626 119.603 36.222C119.449 36.2899 119.281 36.3234 119.113 36.3202C118.97 36.3219 118.828 36.2991 118.694 36.2528ZM119.367 35.8345C119.441 35.7982 119.505 35.7432 119.552 35.6749C119.601 35.6049 119.641 35.5295 119.672 35.45C119.707 35.3582 119.731 35.2626 119.743 35.1652C119.758 35.0578 119.769 34.9579 119.775 34.8654C119.781 34.773 119.784 34.6708 119.785 34.5589C119.785 34.4624 119.783 34.3735 119.779 34.292C119.774 34.2103 119.767 34.1234 119.755 34.0305C119.744 33.9461 119.729 33.8625 119.707 33.7801C119.687 33.7056 119.66 33.6333 119.625 33.5643C119.595 33.4997 119.554 33.4405 119.505 33.3889C119.456 33.3406 119.399 33.3024 119.336 33.2765C119.264 33.2473 119.188 33.2328 119.111 33.2337C119.034 33.2324 118.958 33.2469 118.887 33.2765C118.824 33.3027 118.767 33.3406 118.718 33.3881C118.668 33.4386 118.627 33.4975 118.597 33.562C118.564 33.6313 118.537 33.7036 118.516 33.7779C118.495 33.8601 118.479 33.9438 118.469 34.0282C118.457 34.1212 118.449 34.2089 118.445 34.2913C118.441 34.3737 118.44 34.4629 118.44 34.5589C118.44 34.6548 118.44 34.741 118.445 34.8205C118.45 34.8999 118.457 34.9868 118.469 35.0813C118.479 35.1663 118.495 35.2507 118.516 35.3339C118.535 35.4099 118.562 35.4837 118.596 35.5542C118.626 35.6204 118.667 35.6812 118.717 35.7341C118.765 35.7832 118.822 35.8222 118.886 35.8488C118.957 35.8787 119.033 35.8935 119.11 35.8923C119.2 35.8936 119.289 35.8738 119.369 35.8345H119.367Z" fill="#474A51"/>
    <path d="M122.4 36.1875C122.374 36.1646 122.354 36.1367 122.34 36.1054C122.326 36.0742 122.319 36.0404 122.318 36.0062V33.134C122.318 33.1002 122.325 33.0667 122.338 33.0354C122.351 33.0042 122.369 32.9758 122.393 32.9519C122.417 32.9274 122.445 32.9081 122.476 32.8952C122.507 32.8823 122.541 32.876 122.574 32.8769H124.316C124.344 32.8757 124.372 32.8807 124.398 32.8918C124.424 32.9028 124.447 32.9195 124.466 32.9406C124.502 32.9822 124.521 33.0356 124.52 33.0905C124.521 33.1455 124.502 33.1988 124.466 33.2404C124.447 33.2619 124.425 33.279 124.399 33.2903C124.373 33.3016 124.344 33.3068 124.316 33.3056H122.857V34.322H124.231C124.26 34.3202 124.288 34.3248 124.315 34.3354C124.342 34.346 124.367 34.3624 124.387 34.3834C124.422 34.4242 124.441 34.4762 124.441 34.53C124.441 34.5837 124.422 34.6357 124.387 34.6765C124.367 34.6977 124.343 34.7144 124.316 34.7253C124.289 34.7362 124.261 34.741 124.232 34.7395H122.857V35.8465H124.374C124.403 35.8449 124.432 35.8499 124.458 35.8612C124.485 35.8725 124.508 35.8898 124.527 35.9117C124.563 35.9533 124.582 36.0066 124.582 36.0616C124.582 36.1166 124.563 36.1699 124.527 36.2115C124.508 36.2331 124.484 36.25 124.458 36.261C124.431 36.272 124.403 36.2769 124.374 36.2752H122.581C122.547 36.2736 122.513 36.265 122.482 36.2499C122.451 36.2348 122.423 36.2136 122.4 36.1875Z" fill="#474A51"/>
    <path d="M126.117 36.2043C125.921 36.1317 125.742 36.0182 125.593 35.8715C125.439 35.7147 125.323 35.5251 125.252 35.3169C125.168 35.0723 125.127 34.8148 125.131 34.5561C125.129 34.3268 125.166 34.0989 125.239 33.8816C125.308 33.6781 125.414 33.4894 125.552 33.3254C125.699 33.157 125.883 33.0257 126.09 32.9424C126.328 32.8466 126.582 32.7993 126.838 32.803C127.17 32.7971 127.501 32.8559 127.811 32.9762C127.848 32.9896 127.881 33.0149 127.903 33.0483C127.925 33.0816 127.936 33.1213 127.934 33.1613C127.934 33.2177 127.916 33.2724 127.88 33.3164C127.865 33.3384 127.844 33.3562 127.82 33.3684C127.796 33.3805 127.77 33.3866 127.743 33.3861C127.725 33.3871 127.707 33.3838 127.69 33.3764C127.569 33.3434 127.476 33.3184 127.412 33.3014C127.348 33.2844 127.262 33.2687 127.155 33.2542C127.056 33.2385 126.956 33.2302 126.856 33.2295C126.677 33.2259 126.498 33.2586 126.332 33.3254C126.189 33.3835 126.064 33.4777 125.969 33.599C125.875 33.7228 125.805 33.8635 125.764 34.0135C125.717 34.1871 125.695 34.3665 125.697 34.5464C125.676 34.8979 125.775 35.2462 125.977 35.5342C126.08 35.655 126.209 35.7499 126.355 35.8112C126.502 35.8726 126.66 35.8986 126.818 35.8873C127.057 35.8857 127.294 35.8548 127.526 35.7951V34.8664H126.927C126.902 34.8674 126.876 34.8621 126.853 34.851C126.829 34.84 126.809 34.8234 126.794 34.8027C126.762 34.7629 126.745 34.7135 126.745 34.6626C126.745 34.6108 126.762 34.5604 126.794 34.5194C126.809 34.4984 126.829 34.4814 126.852 34.4701C126.876 34.4587 126.901 34.4532 126.927 34.4542H127.843C127.873 34.4523 127.903 34.4573 127.931 34.4688C127.959 34.4804 127.983 34.4982 128.003 34.5209C128.042 34.5707 128.062 34.633 128.058 34.6963V35.8551C128.065 35.9207 128.047 35.9863 128.008 36.0396C127.969 36.0929 127.913 36.1302 127.848 36.1444C127.502 36.2539 127.142 36.3123 126.779 36.3175C126.553 36.3203 126.329 36.2819 126.117 36.2043Z" fill="#474A51"/>
    <path d="M128.833 36.2019C128.806 36.1781 128.785 36.1485 128.771 36.1153C128.757 36.082 128.75 36.046 128.752 36.0099V33.1401C128.752 33.1047 128.758 33.0696 128.772 33.037C128.786 33.0043 128.806 32.9749 128.832 32.9505C128.857 32.9255 128.887 32.9061 128.92 32.8932C128.954 32.8803 128.989 32.8743 129.024 32.8755H130.042C130.358 32.8544 130.672 32.9353 130.939 33.1064C131.048 33.1969 131.132 33.3124 131.186 33.443C131.24 33.5735 131.262 33.7152 131.249 33.8559C131.253 34.0153 131.223 34.1738 131.161 34.3206C131.105 34.4459 131.016 34.5525 130.901 34.6278C130.782 34.7055 130.649 34.7609 130.509 34.7913C130.34 34.8274 130.168 34.8444 129.995 34.8422H129.29V36.0107C129.292 36.0466 129.286 36.0824 129.272 36.1156C129.258 36.1488 129.237 36.1785 129.211 36.2026C129.159 36.2481 129.092 36.2727 129.023 36.2715C128.953 36.2727 128.886 36.2479 128.833 36.2019ZM129.983 34.4315C130.178 34.4463 130.372 34.4022 130.541 34.3048C130.605 34.2501 130.655 34.1805 130.686 34.1021C130.717 34.0237 130.728 33.9389 130.719 33.8551C130.728 33.774 130.718 33.6919 130.688 33.6158C130.658 33.5398 130.61 33.4722 130.549 33.4189C130.383 33.3255 130.194 33.2835 130.004 33.2982H129.289V34.4307L129.983 34.4315Z" fill="#474A51"/>
    <path d="M98.7339 100.028C98.5574 99.9802 98.3918 99.8977 98.2472 99.7855C98.1926 99.7423 98.1572 99.6794 98.1486 99.6103C98.1399 99.5411 98.1586 99.4713 98.2008 99.416C98.2155 99.3954 98.2351 99.3787 98.2574 99.367C98.2798 99.3553 98.3046 99.3489 98.3298 99.3485C98.3938 99.3525 98.4554 99.3738 98.5084 99.41C98.6274 99.4972 98.7601 99.5635 98.9012 99.6064C99.0486 99.6487 99.2013 99.6694 99.3546 99.6678C99.5245 99.678 99.694 99.6392 99.8427 99.5561C99.8974 99.5219 99.9417 99.4738 99.9717 99.4166C100.002 99.3594 100.016 99.2954 100.013 99.2309C100.014 99.1776 99.999 99.1252 99.9709 99.08C99.9429 99.0347 99.9027 98.9984 99.8548 98.9752C99.6863 98.8947 99.5075 98.8367 99.3239 98.8029C99.1098 98.7607 98.9007 98.6964 98.6999 98.611C98.5567 98.5514 98.4319 98.455 98.3378 98.3315C98.2521 98.2041 98.2091 98.0526 98.2151 97.899C98.2121 97.7255 98.2646 97.5556 98.3649 97.4141C98.4734 97.2659 98.6203 97.1503 98.7898 97.0798C99.0569 96.973 99.347 96.9364 99.6323 96.9736C99.9175 97.0107 100.189 97.1202 100.42 97.2919C100.452 97.3177 100.48 97.3495 100.5 97.3855C100.517 97.4219 100.525 97.4617 100.523 97.5017C100.525 97.5598 100.506 97.6164 100.469 97.6614C100.454 97.6819 100.435 97.6987 100.413 97.7104C100.39 97.7222 100.366 97.7284 100.34 97.7288C100.313 97.7291 100.286 97.7249 100.26 97.7161C100.226 97.7031 100.193 97.6871 100.162 97.6682C100.056 97.5881 99.9393 97.5225 99.8157 97.4733C99.683 97.4281 99.5436 97.4068 99.4036 97.4103C99.2386 97.4013 99.0745 97.4431 98.9341 97.5302C98.8792 97.5665 98.8349 97.6163 98.8047 97.6748C98.7746 97.7334 98.7597 97.7987 98.762 97.8645C98.7599 97.9197 98.7729 97.9744 98.7993 98.023C98.8256 98.0715 98.8644 98.1121 98.9118 98.1404C99.0744 98.2265 99.2492 98.2868 99.4302 98.3194C99.6459 98.364 99.8571 98.429 100.06 98.5136C100.206 98.5718 100.335 98.6659 100.435 98.7871C100.523 98.907 100.568 99.0534 100.563 99.2024C100.566 99.3738 100.513 99.5415 100.413 99.6806C100.305 99.8253 100.159 99.9373 99.9907 100.004C99.7918 100.085 99.5788 100.124 99.3645 100.12C99.1509 100.12 98.9386 100.089 98.7339 100.028Z" fill="white"/>
    <path d="M102.845 99.5503C102.877 99.5935 102.894 99.6464 102.892 99.7002C102.888 99.749 102.871 99.7958 102.843 99.8355C102.814 99.8752 102.775 99.9062 102.73 99.9251C102.624 99.9836 102.511 100.028 102.394 100.058C102.277 100.091 102.158 100.108 102.037 100.109C101.888 100.116 101.738 100.093 101.598 100.042C101.458 99.9904 101.33 99.9112 101.221 99.8089C101.118 99.7011 101.039 99.5735 100.987 99.4338C100.936 99.294 100.913 99.1452 100.922 98.9964C100.918 98.7948 100.963 98.5953 101.052 98.4148C101.135 98.2508 101.263 98.1141 101.421 98.0213C101.585 97.9268 101.771 97.8783 101.96 97.8811C102.136 97.8769 102.309 97.9208 102.462 98.0079C102.604 98.0927 102.719 98.2171 102.793 98.3661C102.875 98.5363 102.916 98.7236 102.911 98.9125C102.911 99.0377 102.856 99.1006 102.745 99.1006H101.454C101.457 99.2641 101.517 99.4214 101.625 99.5443C101.682 99.5947 101.748 99.6333 101.82 99.6577C101.892 99.6822 101.968 99.6921 102.044 99.6867C102.128 99.6881 102.211 99.6762 102.291 99.6515C102.373 99.6238 102.454 99.5917 102.532 99.5555C102.591 99.5189 102.657 99.4951 102.725 99.4858C102.749 99.4858 102.772 99.4918 102.793 99.503C102.814 99.5143 102.832 99.5305 102.845 99.5503ZM101.615 98.4141C101.519 98.5264 101.463 98.6678 101.456 98.8158H102.442C102.447 98.67 102.401 98.5269 102.311 98.4118C102.268 98.3651 102.215 98.3286 102.156 98.3047C102.097 98.2809 102.034 98.2704 101.97 98.2739C101.905 98.271 101.839 98.282 101.778 98.3061C101.717 98.3303 101.661 98.3671 101.615 98.4141Z" fill="white"/>
    <path d="M105.165 98.1079C105.304 98.2984 105.371 98.5322 105.353 98.7675V99.8431C105.355 99.8785 105.349 99.9139 105.336 99.9469C105.323 99.9799 105.303 100.01 105.278 100.035C105.251 100.059 105.22 100.078 105.186 100.09C105.151 100.102 105.115 100.107 105.079 100.105C105.006 100.109 104.934 100.084 104.879 100.035C104.853 100.01 104.834 99.9801 104.821 99.947C104.808 99.9139 104.802 99.8785 104.804 99.8431V98.7982C104.815 98.6701 104.782 98.5422 104.71 98.4354C104.673 98.3953 104.627 98.3641 104.576 98.3444C104.525 98.3247 104.47 98.3169 104.415 98.3215C104.346 98.319 104.277 98.331 104.213 98.3568C104.148 98.3827 104.09 98.4217 104.041 98.4714C103.993 98.5251 103.955 98.5879 103.931 98.6562C103.906 98.7245 103.896 98.7969 103.899 98.8694V99.8438C103.901 99.8793 103.895 99.9147 103.882 99.9478C103.87 99.9809 103.85 100.011 103.824 100.036C103.769 100.085 103.697 100.11 103.624 100.106C103.588 100.108 103.551 100.103 103.517 100.091C103.483 100.079 103.452 100.06 103.426 100.036C103.401 100.011 103.381 99.9807 103.368 99.9476C103.355 99.9146 103.349 99.8792 103.351 99.8438V98.1522C103.35 98.118 103.355 98.0839 103.368 98.0523C103.381 98.0206 103.401 97.9921 103.426 97.9685C103.481 97.9199 103.553 97.8949 103.626 97.8988C103.694 97.896 103.761 97.9202 103.812 97.9663C103.836 97.9886 103.856 98.016 103.869 98.0465C103.881 98.077 103.887 98.11 103.886 98.1431V98.2608C103.957 98.144 104.058 98.0489 104.179 97.9857C104.308 97.9202 104.45 97.8872 104.594 97.8898C104.699 97.8815 104.806 97.8968 104.904 97.9345C105.003 97.9722 105.092 98.0314 105.165 98.1079Z" fill="white"/>
    <path d="M107.886 97.0465C107.912 97.0695 107.932 97.0979 107.945 97.1296C107.959 97.1614 107.966 97.1957 107.964 97.2302V99.846C107.966 99.8809 107.96 99.9157 107.947 99.9481C107.934 99.9805 107.915 100.01 107.89 100.034C107.834 100.079 107.765 100.104 107.693 100.104C107.621 100.104 107.552 100.079 107.497 100.034C107.472 100.01 107.452 99.9805 107.439 99.9481C107.426 99.9156 107.42 99.8809 107.422 99.846V99.7366C107.359 99.8549 107.262 99.9522 107.144 100.016C107.018 100.085 106.876 100.119 106.732 100.117C106.558 100.119 106.387 100.07 106.241 99.9764C106.094 99.8792 105.977 99.7419 105.905 99.5806C105.823 99.396 105.782 99.1954 105.785 98.9931C105.781 98.7926 105.822 98.5938 105.905 98.4114C105.977 98.2527 106.093 98.1186 106.24 98.0261C106.387 97.9335 106.558 97.8866 106.732 97.8912C106.875 97.8884 107.016 97.9214 107.142 97.9872C107.258 98.0485 107.354 98.1429 107.418 98.2585V97.2227C107.417 97.1896 107.423 97.1566 107.436 97.1261C107.449 97.0956 107.468 97.0683 107.492 97.0458C107.546 96.9988 107.616 96.9745 107.687 96.9783C107.759 96.9753 107.83 96.9997 107.886 97.0465ZM107.281 99.5117C107.385 99.3622 107.435 99.1821 107.423 99.0005C107.435 98.8196 107.385 98.6401 107.281 98.4916C107.233 98.4328 107.172 98.3861 107.103 98.3554C107.033 98.3246 106.957 98.3107 106.882 98.3147C106.805 98.3106 106.729 98.3242 106.658 98.3544C106.588 98.3847 106.526 98.4309 106.476 98.4893C106.371 98.635 106.32 98.813 106.332 98.9923C106.321 99.1754 106.372 99.3571 106.476 99.5079C106.526 99.5652 106.588 99.6113 106.657 99.643C106.726 99.6746 106.801 99.6912 106.878 99.6916C106.954 99.6921 107.029 99.6763 107.099 99.6454C107.168 99.6145 107.23 99.5692 107.281 99.5125V99.5117Z" fill="white"/>
    <path d="M112.272 99.8801C112.272 99.9121 112.265 99.9437 112.251 99.9725C112.237 100.001 112.216 100.026 112.191 100.046C112.138 100.089 112.071 100.113 112.002 100.112C111.955 100.112 111.91 100.1 111.869 100.079C111.825 100.056 111.788 100.022 111.762 99.9805L111.181 99.0976C111.136 99.0181 111.072 98.9508 110.996 98.9013C110.917 98.8603 110.829 98.8406 110.74 98.8443H110.313V99.8232C110.315 99.861 110.309 99.8988 110.296 99.9344C110.283 99.97 110.264 100.003 110.238 100.031C110.212 100.056 110.18 100.076 110.146 100.089C110.111 100.102 110.074 100.108 110.038 100.106C110 100.108 109.963 100.102 109.928 100.089C109.893 100.076 109.861 100.056 109.834 100.031C109.808 100.003 109.789 99.9703 109.776 99.9346C109.763 99.8989 109.757 99.861 109.759 99.8232V97.2666C109.757 97.2303 109.763 97.1941 109.776 97.1602C109.789 97.1262 109.809 97.0953 109.834 97.0694C109.861 97.0453 109.893 97.0267 109.927 97.0148C109.961 97.0028 109.997 96.9977 110.033 96.9998H111.123C111.408 96.9802 111.69 97.063 111.92 97.2335C112.013 97.3183 112.086 97.423 112.133 97.5398C112.18 97.6565 112.201 97.7824 112.193 97.9081C112.201 98.1225 112.128 98.3323 111.99 98.4958C111.838 98.6576 111.636 98.7619 111.416 98.791C111.498 98.8099 111.575 98.8474 111.64 98.9005C111.714 98.9637 111.777 99.0375 111.828 99.1194L112.225 99.7265C112.255 99.7719 112.272 99.8253 112.272 99.8801ZM111.508 98.2911C111.56 98.2452 111.6 98.188 111.626 98.1239C111.652 98.0599 111.663 97.9906 111.658 97.9217C111.664 97.8526 111.653 97.7831 111.627 97.7189C111.601 97.6547 111.56 97.5975 111.508 97.5521C111.369 97.4638 111.205 97.423 111.041 97.4359H110.309V98.4103H111.041C111.206 98.4237 111.371 98.3812 111.509 98.2896L111.508 98.2911Z" fill="white"/>
    <path d="M114.551 99.5503C114.583 99.5937 114.599 99.6465 114.597 99.7002C114.593 99.7489 114.576 99.7957 114.548 99.8353C114.52 99.875 114.481 99.9061 114.436 99.9251C114.33 99.9833 114.217 100.028 114.1 100.058C113.983 100.091 113.863 100.108 113.742 100.109C113.593 100.116 113.443 100.094 113.303 100.042C113.163 99.9905 113.035 99.9112 112.926 99.8089C112.824 99.7012 112.744 99.5735 112.692 99.4338C112.641 99.294 112.618 99.1452 112.627 98.9964C112.623 98.7948 112.668 98.5952 112.758 98.4148C112.84 98.2508 112.968 98.1142 113.126 98.0213C113.289 97.9268 113.476 97.8783 113.665 97.8811C113.84 97.8769 114.013 97.9208 114.166 98.0079C114.309 98.0926 114.424 98.2171 114.497 98.3661C114.58 98.5362 114.62 98.7236 114.616 98.9125C114.616 99.038 114.56 99.1007 114.449 99.1007H113.163C113.164 99.2642 113.225 99.4215 113.333 99.5443C113.389 99.5948 113.456 99.6334 113.528 99.6578C113.6 99.6823 113.676 99.6921 113.752 99.6868C113.835 99.6881 113.918 99.6762 113.998 99.6515C114.081 99.6239 114.162 99.5918 114.241 99.5556C114.299 99.5189 114.364 99.4951 114.432 99.4858C114.456 99.4865 114.479 99.4927 114.499 99.5039C114.52 99.5151 114.538 99.531 114.551 99.5503ZM113.32 98.4141C113.224 98.5263 113.168 98.6679 113.162 98.8158H114.147C114.152 98.67 114.106 98.5269 114.016 98.4118C113.973 98.3652 113.92 98.3287 113.862 98.3048C113.803 98.281 113.739 98.2704 113.676 98.2739C113.61 98.2711 113.545 98.2821 113.483 98.3062C113.422 98.3304 113.367 98.3671 113.32 98.4141Z" fill="white"/>
    <path d="M117.043 97.9688C117.068 97.9931 117.088 98.0223 117.101 98.0547C117.114 98.0872 117.12 98.122 117.118 98.1569V100.635C117.12 100.669 117.114 100.703 117.101 100.735C117.088 100.767 117.068 100.795 117.043 100.818C116.987 100.866 116.916 100.891 116.843 100.888C116.771 100.892 116.701 100.868 116.648 100.821C116.624 100.798 116.604 100.771 116.592 100.74C116.579 100.71 116.573 100.677 116.573 100.644V99.7443C116.51 99.8605 116.413 99.9554 116.296 100.017C116.171 100.084 116.031 100.118 115.889 100.115C115.716 100.119 115.545 100.072 115.399 99.9796C115.252 99.8871 115.136 99.7533 115.065 99.5952C114.982 99.4129 114.941 99.214 114.946 99.0136C114.942 98.8112 114.983 98.6106 115.065 98.426C115.138 98.2648 115.254 98.1274 115.401 98.0302C115.548 97.9362 115.718 97.8875 115.892 97.89C116.036 97.8873 116.177 97.9212 116.304 97.9883C116.422 98.0509 116.519 98.1475 116.581 98.2656V98.1562C116.58 98.1213 116.586 98.0865 116.599 98.0541C116.611 98.0217 116.631 97.9923 116.656 97.968C116.712 97.9226 116.781 97.8979 116.853 97.8979C116.924 97.8979 116.994 97.9226 117.049 97.968L117.043 97.9688ZM116.435 99.5113C116.527 99.3576 116.576 99.1815 116.576 99.002C116.576 98.8225 116.527 98.6464 116.435 98.4927C116.384 98.436 116.322 98.3907 116.252 98.3598C116.183 98.3289 116.107 98.3131 116.031 98.3136C115.955 98.314 115.88 98.3306 115.811 98.3622C115.742 98.3939 115.68 98.4399 115.63 98.4972C115.525 98.648 115.475 98.8297 115.486 99.0128C115.475 99.1914 115.525 99.3683 115.63 99.5135C115.679 99.5725 115.741 99.6192 115.812 99.6499C115.882 99.6806 115.958 99.6945 116.035 99.6905C116.112 99.6948 116.188 99.6808 116.258 99.6496C116.328 99.6185 116.389 99.5711 116.437 99.5113H116.435Z" fill="white"/>
    <path d="M119.567 97.9682C119.592 97.9924 119.612 98.0218 119.625 98.0542C119.638 98.0866 119.643 98.1215 119.642 98.1564V99.8517C119.643 99.8859 119.637 99.92 119.624 99.9517C119.611 99.9833 119.592 100.012 119.567 100.035C119.512 100.083 119.441 100.108 119.368 100.105C119.3 100.108 119.233 100.085 119.181 100.039C119.157 100.016 119.139 99.988 119.127 99.9571C119.115 99.9263 119.109 99.8931 119.111 99.86V99.7506C119.048 99.8639 118.954 99.9571 118.841 100.02C118.723 100.083 118.591 100.116 118.457 100.113C117.933 100.113 117.671 99.819 117.671 99.2304V98.1556C117.67 98.1207 117.675 98.0859 117.688 98.0535C117.701 98.021 117.721 97.9917 117.746 97.9675C117.8 97.919 117.87 97.8936 117.942 97.897C118.016 97.8931 118.088 97.9184 118.143 97.9675C118.168 97.9916 118.188 98.0209 118.201 98.0534C118.214 98.0858 118.22 98.1207 118.218 98.1556V99.2349C118.208 99.3544 118.241 99.4735 118.31 99.5714C118.347 99.6102 118.392 99.6401 118.442 99.6591C118.492 99.678 118.545 99.6855 118.598 99.6808C118.666 99.6837 118.734 99.6718 118.797 99.6459C118.86 99.62 118.916 99.5808 118.963 99.531C119.058 99.4202 119.107 99.2768 119.1 99.1307V98.1564C119.099 98.1215 119.104 98.0866 119.117 98.0542C119.13 98.0217 119.15 97.9924 119.175 97.9682C119.228 97.9198 119.299 97.8944 119.371 97.8977C119.443 97.8951 119.513 97.9203 119.567 97.9682Z" fill="white"/>
    <path d="M122.017 99.5503C122.049 99.5935 122.066 99.6464 122.063 99.7002C122.06 99.7489 122.043 99.7958 122.014 99.8354C121.986 99.8751 121.947 99.9061 121.902 99.9251C121.796 99.9834 121.683 100.028 121.566 100.058C121.449 100.091 121.329 100.108 121.208 100.109C121.059 100.116 120.91 100.093 120.77 100.042C120.63 99.9904 120.502 99.9112 120.393 99.8089C120.29 99.7012 120.21 99.5735 120.159 99.4338C120.107 99.294 120.085 99.1452 120.093 98.9964C120.09 98.7948 120.135 98.5953 120.224 98.4148C120.307 98.2508 120.435 98.1142 120.593 98.0213C120.757 97.9268 120.943 97.8783 121.132 97.8811C121.308 97.8769 121.481 97.9207 121.634 98.0079C121.777 98.0928 121.892 98.2172 121.966 98.3661C122.048 98.5363 122.088 98.7236 122.084 98.9125C122.084 99.038 122.028 99.1007 121.918 99.1007H120.631C120.633 99.2641 120.694 99.4214 120.801 99.5443C120.858 99.5947 120.924 99.6333 120.996 99.6578C121.068 99.6822 121.144 99.6921 121.22 99.6868C121.304 99.6881 121.387 99.6762 121.467 99.6515C121.549 99.624 121.63 99.5919 121.709 99.5556C121.767 99.5189 121.833 99.4951 121.901 99.4858C121.924 99.4866 121.947 99.4928 121.967 99.504C121.987 99.5153 122.004 99.5311 122.017 99.5503ZM120.787 98.4141C120.69 98.5263 120.634 98.6678 120.628 98.8158H121.614C121.619 98.67 121.572 98.5269 121.483 98.4118C121.44 98.3652 121.387 98.3287 121.328 98.3048C121.269 98.281 121.206 98.2704 121.142 98.2739C121.076 98.2708 121.011 98.2817 120.949 98.3059C120.888 98.33 120.832 98.3669 120.785 98.4141H120.787Z" fill="white"/>
    <path d="M122.529 99.926C122.486 99.9036 122.45 99.8696 122.425 99.8279C122.401 99.7862 122.388 99.7384 122.389 99.6899C122.387 99.6384 122.404 99.5878 122.437 99.5482C122.451 99.5308 122.469 99.5168 122.49 99.5073C122.51 99.4978 122.533 99.4931 122.555 99.4935C122.628 99.501 122.698 99.5248 122.76 99.5632C122.843 99.6028 122.928 99.6364 123.015 99.6637C123.111 99.6895 123.21 99.7014 123.31 99.6989C123.409 99.7041 123.508 99.6829 123.596 99.6374C123.627 99.6214 123.653 99.597 123.671 99.567C123.689 99.5369 123.699 99.5024 123.698 99.4673C123.7 99.4242 123.686 99.382 123.657 99.3496C123.614 99.3117 123.563 99.2841 123.508 99.2687C123.401 99.2344 123.292 99.2059 123.183 99.1832C122.982 99.1547 122.791 99.0775 122.627 98.9584C122.571 98.909 122.526 98.8477 122.497 98.7788C122.468 98.7098 122.455 98.6351 122.459 98.5604C122.458 98.4351 122.498 98.313 122.572 98.2126C122.652 98.1052 122.76 98.022 122.884 97.9721C123.027 97.9134 123.179 97.8843 123.333 97.8866C123.453 97.8861 123.571 97.9014 123.686 97.9323C123.795 97.9605 123.898 98.0056 123.992 98.0657C124.034 98.0881 124.07 98.1214 124.094 98.1622C124.119 98.2029 124.132 98.2497 124.132 98.2973C124.135 98.3514 124.118 98.4046 124.084 98.4472C124.071 98.4654 124.053 98.4802 124.033 98.4905C124.012 98.5007 123.99 98.5061 123.967 98.5064C123.934 98.5064 123.902 98.4998 123.873 98.4869C123.833 98.4692 123.794 98.4494 123.757 98.4277C123.686 98.3902 123.613 98.3574 123.538 98.3295C123.466 98.3059 123.39 98.2948 123.314 98.2966C123.224 98.2919 123.135 98.3149 123.059 98.3625C123.03 98.3818 123.005 98.4083 122.989 98.4397C122.972 98.4711 122.964 98.5061 122.965 98.5416C122.964 98.5755 122.972 98.6091 122.989 98.6385C123.006 98.6679 123.031 98.692 123.061 98.708C123.179 98.7637 123.305 98.8021 123.435 98.8219C123.593 98.8513 123.747 98.8983 123.894 98.9621C123.99 99.003 124.073 99.0712 124.131 99.1584C124.183 99.2496 124.209 99.3534 124.206 99.4583C124.208 99.552 124.186 99.6447 124.143 99.7278C124.099 99.811 124.036 99.8819 123.959 99.9342C123.765 100.062 123.535 100.125 123.303 100.113C123.032 100.127 122.763 100.062 122.529 99.926Z" fill="white"/>
    <path d="M125.947 99.8958C125.948 99.9276 125.941 99.9591 125.926 99.9872C125.911 100.015 125.889 100.039 125.862 100.055C125.788 100.095 125.704 100.111 125.62 100.101L125.502 100.092C125.4 100.097 125.298 100.08 125.203 100.042C125.108 100.003 125.023 99.9445 124.953 99.8695C124.883 99.7946 124.83 99.7052 124.799 99.6077C124.767 99.5102 124.757 99.407 124.77 99.3052V98.3526H124.551C124.486 98.3568 124.422 98.3382 124.37 98.3001C124.35 98.28 124.334 98.2562 124.323 98.23C124.312 98.2037 124.307 98.1756 124.307 98.1472C124.307 98.1188 124.312 98.0907 124.323 98.0645C124.334 98.0382 124.35 98.0143 124.37 97.9943C124.422 97.9562 124.486 97.9377 124.551 97.9419H124.77V97.5401C124.768 97.5052 124.774 97.4704 124.787 97.4379C124.8 97.4055 124.819 97.3762 124.844 97.352C124.9 97.3033 124.972 97.2782 125.045 97.2823C125.117 97.2787 125.188 97.3038 125.242 97.352C125.267 97.3762 125.286 97.4055 125.299 97.4379C125.312 97.4704 125.318 97.5052 125.316 97.5401V97.9419H125.691C125.755 97.9377 125.819 97.9562 125.872 97.9943C125.912 98.0349 125.935 98.0899 125.935 98.1472C125.935 98.2045 125.912 98.2595 125.872 98.3001C125.819 98.3382 125.755 98.3568 125.691 98.3526H125.316V99.3449C125.316 99.5608 125.415 99.6755 125.616 99.6905L125.733 99.6995C125.876 99.7079 125.947 99.7734 125.947 99.8958Z" fill="white"/>
    <path d="M95.724 65.6687C95.679 65.6352 95.6444 65.5898 95.6239 65.5375L94.8556 63.7619V65.6177C94.8562 65.6381 94.8514 65.6582 94.8417 65.6761C94.832 65.6941 94.8175 65.7091 94.8001 65.7197C94.7607 65.7433 94.7159 65.7558 94.67 65.7558C94.6241 65.7558 94.5789 65.7433 94.5396 65.7197C94.5223 65.709 94.5084 65.6939 94.4987 65.6761C94.4889 65.6582 94.484 65.6381 94.4844 65.6177V63.5678C94.4838 63.5316 94.4917 63.4957 94.5074 63.463C94.5231 63.4304 94.5464 63.4018 94.575 63.3797C94.6346 63.33 94.7098 63.3035 94.7873 63.3047C94.8549 63.3047 94.9214 63.3248 94.9776 63.3624C95.0403 63.4046 95.0883 63.465 95.1157 63.5356L95.8596 65.2295L96.6034 63.5356C96.6311 63.4652 96.6794 63.4048 96.7419 63.3624C96.798 63.325 96.8638 63.3049 96.9312 63.3047C97.0089 63.3034 97.0847 63.33 97.1445 63.3797C97.1731 63.4019 97.1961 63.4305 97.2118 63.4631C97.2275 63.4957 97.2352 63.5316 97.2348 63.5678V65.6177C97.2354 65.6381 97.2306 65.6582 97.2209 65.6761C97.2112 65.6941 97.197 65.7091 97.1796 65.7197C97.1403 65.7433 97.095 65.7558 97.0492 65.7558C97.0033 65.7558 96.9584 65.7433 96.9191 65.7197C96.9017 65.7091 96.8876 65.6941 96.8778 65.6761C96.8681 65.6582 96.8634 65.6381 96.8639 65.6177V63.7619L96.0938 65.5375C96.0737 65.5896 96.0396 65.635 95.9951 65.6687C95.9563 65.6986 95.9086 65.7149 95.8596 65.7152C95.8106 65.7146 95.7631 65.6983 95.724 65.6687Z" fill="#474A51"/>
    <path d="M98.224 65.7432C98.1155 65.699 98.0186 65.6305 97.9405 65.543C97.8667 65.4578 97.8096 65.3594 97.7721 65.253C97.7323 65.1406 97.7122 65.0222 97.7129 64.9029C97.7121 64.7827 97.7322 64.6633 97.7721 64.5499C97.8096 64.4431 97.867 64.3444 97.9413 64.2591C98.0196 64.1718 98.1168 64.1036 98.2255 64.0597C98.3483 64.0089 98.4802 63.9834 98.6131 63.9848C98.7843 63.9805 98.9533 64.0235 99.1016 64.1092C99.2347 64.1867 99.3423 64.3013 99.4114 64.439C99.5299 64.6933 99.5456 64.9837 99.4549 65.2492C99.4176 65.3561 99.3601 65.4548 99.2858 65.54C99.2076 65.6275 99.1107 65.6959 99.0022 65.7401C98.7524 65.8385 98.4746 65.8385 98.2248 65.7401L98.224 65.7432ZM99.0158 65.3939C99.11 65.2476 99.1601 65.0771 99.1601 64.9029C99.1601 64.7288 99.11 64.5584 99.0158 64.412C98.9652 64.3555 98.9034 64.3102 98.8342 64.2793C98.765 64.2483 98.69 64.2323 98.6142 64.2323C98.5385 64.2323 98.4635 64.2483 98.3943 64.2793C98.3251 64.3102 98.2632 64.3555 98.2127 64.412C98.1182 64.5584 98.068 64.729 98.068 64.9033C98.068 65.0777 98.1182 65.2482 98.2127 65.3946C98.2609 65.4539 98.3224 65.5011 98.3921 65.5324C98.4618 65.5636 98.5376 65.578 98.6139 65.5745C98.6902 65.5776 98.7663 65.563 98.836 65.5316C98.9057 65.5003 98.9673 65.4531 99.0158 65.3939Z" fill="#474A51"/>
    <path d="M99.9591 65.743C99.9415 65.7274 99.9276 65.708 99.9185 65.6863C99.9095 65.6647 99.9053 65.6413 99.9065 65.6178V64.1855C99.9052 64.1621 99.9095 64.1387 99.9189 64.1172C99.9283 64.0957 99.9425 64.0767 99.9605 64.0618C99.9964 64.0339 100.04 64.0188 100.086 64.0188C100.131 64.0188 100.175 64.0339 100.211 64.0618C100.229 64.0761 100.242 64.0944 100.251 64.1151C100.26 64.1358 100.265 64.1584 100.263 64.181V64.3069C100.31 64.2052 100.389 64.1221 100.488 64.0708C100.598 64.0144 100.719 63.9863 100.843 63.9891C100.928 63.9881 101.012 64.0016 101.093 64.0288C101.169 64.055 101.238 64.096 101.298 64.1495C101.361 64.2087 101.408 64.2826 101.437 64.3646C101.472 64.4634 101.489 64.5678 101.487 64.6726V65.6185C101.488 65.6421 101.484 65.6657 101.475 65.6874C101.465 65.7091 101.451 65.7284 101.433 65.7437C101.397 65.7736 101.352 65.7896 101.306 65.7887C101.26 65.7896 101.216 65.7736 101.181 65.7437C101.163 65.728 101.15 65.7087 101.141 65.687C101.132 65.6654 101.128 65.642 101.129 65.6185V64.6689C101.137 64.5514 101.1 64.4352 101.026 64.3436C100.99 64.306 100.947 64.2766 100.898 64.2573C100.85 64.2381 100.799 64.2294 100.747 64.232C100.683 64.2315 100.621 64.2446 100.563 64.2704C100.505 64.2963 100.453 64.3343 100.411 64.3818C100.315 64.4907 100.262 64.632 100.266 64.7776V65.6223C100.267 65.6458 100.263 65.6693 100.254 65.691C100.244 65.7126 100.23 65.7319 100.213 65.7474C100.178 65.7772 100.133 65.7932 100.087 65.7924C100.04 65.7929 99.9939 65.7752 99.9591 65.743Z" fill="#474A51"/>
    <path d="M102.019 65.6828C101.963 65.6388 101.917 65.5819 101.887 65.5166C101.856 65.4514 101.842 65.3799 101.845 65.308C101.844 65.2458 101.852 65.1838 101.868 65.1236C101.881 65.0752 101.901 65.0291 101.929 64.9872C101.958 64.9462 101.996 64.9128 102.041 64.8898C102.09 64.8627 102.142 64.8408 102.196 64.8245C102.266 64.8053 102.337 64.7926 102.409 64.7863C102.496 64.7774 102.584 64.7714 102.672 64.7684C102.76 64.7654 102.868 64.7638 102.996 64.7638V64.59C103.003 64.5412 102.998 64.4915 102.983 64.4448C102.967 64.3982 102.941 64.3557 102.906 64.3209C102.871 64.2861 102.829 64.2599 102.782 64.2442C102.736 64.2286 102.686 64.2241 102.638 64.2309C102.565 64.2311 102.493 64.2392 102.422 64.255C102.366 64.2662 102.311 64.2812 102.257 64.2999C102.219 64.3142 102.171 64.3344 102.107 64.3606C102.093 64.3666 102.078 64.3696 102.062 64.3696C102.051 64.3697 102.039 64.3679 102.029 64.3644C102.018 64.3607 102.008 64.3557 101.999 64.3494C101.989 64.3428 101.98 64.335 101.973 64.3261C101.965 64.3176 101.959 64.308 101.954 64.2976C101.948 64.2877 101.944 64.2771 101.941 64.2662C101.938 64.2556 101.937 64.2448 101.937 64.234C101.937 64.215 101.942 64.1963 101.951 64.18C101.962 64.1628 101.977 64.1491 101.996 64.1403C102.197 64.0363 102.422 63.9847 102.649 63.9904C102.833 63.9792 103.015 64.0322 103.164 64.1403C103.229 64.1999 103.281 64.2739 103.313 64.3566C103.346 64.4393 103.359 64.5284 103.351 64.6169V65.619C103.353 65.6426 103.348 65.6661 103.339 65.6877C103.33 65.7094 103.316 65.7287 103.298 65.7442C103.264 65.7739 103.219 65.7898 103.174 65.7892C103.145 65.7895 103.116 65.7831 103.09 65.7704C103.064 65.7575 103.042 65.7378 103.026 65.7135C103.008 65.6864 102.999 65.6545 103 65.622V65.4901C102.955 65.592 102.88 65.6778 102.785 65.736C102.69 65.7941 102.58 65.8218 102.469 65.8154C102.309 65.8228 102.15 65.7761 102.019 65.6828ZM102.843 65.4212C102.943 65.3102 102.997 65.1642 102.992 65.0142V64.9647C102.879 64.9647 102.784 64.9647 102.709 64.9692C102.633 64.9737 102.559 64.9782 102.498 64.9872C102.447 64.9931 102.396 65.0046 102.348 65.0217C102.313 65.0348 102.28 65.0547 102.253 65.0801C102.227 65.1037 102.208 65.1341 102.199 65.1678C102.189 65.2074 102.183 65.2483 102.184 65.2892C102.181 65.3302 102.187 65.3713 102.202 65.4095C102.217 65.4477 102.24 65.4819 102.271 65.5096C102.338 65.56 102.421 65.5852 102.505 65.5808C102.57 65.5806 102.634 65.5664 102.693 65.5389C102.752 65.5115 102.804 65.4715 102.846 65.4219L102.843 65.4212Z" fill="#474A51"/>
    <path d="M118.668 64.1395C118.788 64.2052 118.886 64.3044 118.951 64.4251C119.02 64.5558 119.054 64.7018 119.051 64.8493C119.054 64.9992 119.016 65.1471 118.942 65.2773C118.872 65.4008 118.768 65.5018 118.643 65.5688C118.504 65.64 118.349 65.6755 118.194 65.6723C118.043 65.6722 117.894 65.6451 117.754 65.5921C117.62 65.544 117.496 65.4699 117.391 65.3739C117.373 65.3587 117.358 65.3398 117.348 65.3185C117.338 65.2971 117.332 65.2739 117.332 65.2503C117.331 65.2176 117.341 65.1855 117.361 65.1596C117.369 65.1485 117.38 65.1394 117.392 65.133C117.404 65.1266 117.417 65.1231 117.43 65.1229C117.468 65.1241 117.504 65.1381 117.532 65.1626C117.628 65.2436 117.736 65.3094 117.852 65.3575C117.959 65.4 118.072 65.4217 118.187 65.4212C118.263 65.4261 118.34 65.4153 118.413 65.3895C118.485 65.3637 118.551 65.3235 118.608 65.2713C118.706 65.1564 118.76 65.0102 118.76 64.8591C118.76 64.7079 118.706 64.5617 118.608 64.4468C118.554 64.3937 118.49 64.3524 118.419 64.3255C118.349 64.2985 118.273 64.2865 118.198 64.2902C118.095 64.2876 117.992 64.3094 117.899 64.3537C117.805 64.3979 117.724 64.4634 117.66 64.545C117.645 64.5624 117.626 64.5763 117.604 64.5857C117.583 64.5952 117.56 64.6 117.537 64.5997C117.505 64.6006 117.475 64.5896 117.451 64.569C117.44 64.5581 117.43 64.5448 117.425 64.5301C117.419 64.5153 117.416 64.4994 117.417 64.4835V63.2274C117.416 63.2082 117.419 63.1889 117.426 63.1709C117.433 63.153 117.443 63.1367 117.457 63.1233C117.471 63.1098 117.487 63.0995 117.505 63.093C117.523 63.0865 117.543 63.0841 117.562 63.0857H118.841C118.878 63.0837 118.915 63.0954 118.945 63.1187C118.969 63.1429 118.982 63.1756 118.982 63.2098C118.982 63.2439 118.969 63.2766 118.945 63.3008C118.915 63.3241 118.878 63.3358 118.841 63.3338H117.705V64.2474C117.773 64.1821 117.854 64.1311 117.943 64.0975C118.039 64.0614 118.14 64.0437 118.242 64.0451C118.39 64.0397 118.536 64.0722 118.668 64.1395Z" fill="#474A51"/>
    <path d="M119.654 65.34C119.503 65.0363 119.425 64.7017 119.425 64.3627C119.425 64.0236 119.503 63.6891 119.654 63.3853C119.732 63.2816 119.833 63.1975 119.949 63.1396C120.065 63.0817 120.193 63.0515 120.322 63.0515C120.452 63.0515 120.58 63.0817 120.696 63.1396C120.812 63.1975 120.913 63.2816 120.991 63.3853C121.142 63.6894 121.22 64.0243 121.22 64.3638C121.22 64.7033 121.142 65.0381 120.991 65.3423C120.914 65.4462 120.812 65.5306 120.696 65.5887C120.58 65.6468 120.452 65.6771 120.322 65.6771C120.193 65.6771 120.065 65.6468 119.949 65.5887C119.833 65.5306 119.731 65.4462 119.654 65.3423V65.34ZM120.776 65.1654C120.969 64.6464 120.969 64.0752 120.776 63.5562C120.73 63.4774 120.664 63.412 120.584 63.3666C120.505 63.3212 120.416 63.2974 120.324 63.2974C120.233 63.2974 120.143 63.3212 120.064 63.3666C119.985 63.412 119.919 63.4774 119.873 63.5562C119.68 64.0744 119.68 64.6449 119.873 65.1631C119.919 65.2416 119.985 65.3066 120.064 65.3518C120.143 65.397 120.233 65.4207 120.324 65.4207C120.415 65.4207 120.504 65.397 120.583 65.3518C120.662 65.3066 120.728 65.2416 120.774 65.1631L120.776 65.1654Z" fill="#474A51"/>
    <path d="M122.709 65.6064C122.695 65.5927 122.684 65.5762 122.677 65.558C122.67 65.5398 122.666 65.5203 122.667 65.5008V63.2252C122.666 63.2057 122.67 63.1861 122.677 63.168C122.684 63.1498 122.695 63.1333 122.709 63.1196C122.739 63.0922 122.779 63.0779 122.82 63.0798H124.179C124.216 63.0779 124.253 63.0896 124.281 63.1128C124.304 63.1374 124.317 63.17 124.317 63.2039C124.317 63.2377 124.304 63.2703 124.281 63.2949C124.253 63.3181 124.216 63.3298 124.179 63.3279H122.962V64.2198H124.107C124.144 64.2179 124.18 64.2296 124.209 64.2528C124.232 64.2774 124.245 64.31 124.245 64.3439C124.245 64.3777 124.232 64.4103 124.209 64.435C124.18 64.4579 124.144 64.4693 124.107 64.4672H122.962V65.3996H124.179C124.216 65.397 124.252 65.4079 124.281 65.4303C124.304 65.4553 124.317 65.4881 124.317 65.5221C124.317 65.5562 124.304 65.589 124.281 65.6139C124.253 65.6371 124.216 65.6489 124.179 65.6469H122.82C122.779 65.6487 122.739 65.6341 122.709 65.6064Z" fill="#474A51"/>
    <path d="M126.762 64.343C126.774 64.355 126.783 64.3693 126.789 64.385C126.794 64.4008 126.797 64.4176 126.796 64.4344V65.3406C126.799 65.386 126.79 65.4314 126.768 65.4718C126.744 65.5055 126.709 65.5298 126.668 65.5407C126.555 65.5866 126.437 65.6196 126.316 65.6389C126.179 65.6629 126.04 65.6749 125.901 65.6749C125.672 65.681 125.445 65.627 125.243 65.5182C125.06 65.4149 124.913 65.258 124.821 65.0685C124.724 64.8469 124.674 64.6077 124.674 64.3658C124.674 64.124 124.724 63.8847 124.821 63.6631C124.912 63.4745 125.058 63.3178 125.239 63.2135C125.434 63.1044 125.655 63.0498 125.878 63.0553C126.039 63.0528 126.198 63.0782 126.35 63.1302C126.487 63.1777 126.612 63.2545 126.717 63.3551C126.735 63.3711 126.75 63.3906 126.761 63.4125C126.771 63.4344 126.778 63.4582 126.779 63.4825C126.78 63.5146 126.77 63.546 126.751 63.5717C126.742 63.5837 126.731 63.5936 126.718 63.6002C126.705 63.6069 126.69 63.6102 126.676 63.6099C126.638 63.6066 126.603 63.5914 126.574 63.5665C126.471 63.4826 126.355 63.4144 126.232 63.3641C126.119 63.3248 126 63.3057 125.88 63.3079C125.756 63.3002 125.632 63.3208 125.517 63.3681C125.402 63.4153 125.3 63.488 125.217 63.5807C125.065 63.8151 124.984 64.0884 124.984 64.3677C124.984 64.647 125.065 64.9203 125.217 65.1547C125.304 65.2484 125.411 65.3214 125.53 65.3683C125.649 65.4153 125.777 65.435 125.905 65.4261C126.114 65.4288 126.322 65.3942 126.519 65.3241V64.5453H125.988C125.952 64.5471 125.917 64.5353 125.89 64.5123C125.879 64.5014 125.87 64.4883 125.863 64.4737C125.857 64.4592 125.854 64.4435 125.854 64.4277C125.854 64.4118 125.857 64.3962 125.863 64.3816C125.87 64.367 125.879 64.3539 125.89 64.343C125.918 64.3215 125.953 64.3106 125.988 64.3123H126.668C126.685 64.3107 126.702 64.3126 126.718 64.3179C126.734 64.3232 126.749 64.3317 126.762 64.343Z" fill="#474A51"/>
    <path d="M127.439 65.6214C127.426 65.6065 127.415 65.589 127.408 65.5699C127.402 65.5509 127.399 65.5307 127.4 65.5105V63.2245C127.399 63.205 127.402 63.1855 127.409 63.1673C127.416 63.149 127.427 63.1326 127.441 63.1188C127.471 63.0914 127.511 63.0771 127.552 63.0791H128.413C128.639 63.0649 128.862 63.1349 129.04 63.2754C129.116 63.3459 129.175 63.4324 129.214 63.5287C129.253 63.6249 129.27 63.7286 129.264 63.8323C129.27 63.9365 129.253 64.0408 129.214 64.1377C129.176 64.2346 129.116 64.3217 129.04 64.3929C128.864 64.5353 128.641 64.6067 128.415 64.5931H127.699V65.5105C127.701 65.5513 127.687 65.5911 127.659 65.6214C127.645 65.6356 127.628 65.6467 127.609 65.6539C127.59 65.6611 127.57 65.6644 127.55 65.6634C127.53 65.6647 127.509 65.6617 127.49 65.6545C127.471 65.6472 127.454 65.6359 127.439 65.6214ZM128.384 64.3472C128.774 64.3472 128.97 64.1761 128.97 63.8338C128.97 63.4916 128.774 63.3229 128.384 63.3279H127.697V64.3472H128.384Z" fill="#474A51"/>
    <path d="M133.005 68.2877H91.8235C91.0764 68.2877 90.4707 68.8944 90.4707 69.6428V69.6436C90.4707 70.392 91.0764 70.9987 91.8235 70.9987H133.005C133.752 70.9987 134.357 70.392 134.357 69.6436V69.6428C134.357 68.8944 133.752 68.2877 133.005 68.2877Z" fill="#DADBDC"/>
    <path d="M96.603 49.1481L95.8171 47.9249C95.8119 47.9179 95.8073 47.9103 95.8036 47.9024L95.7948 47.88C95.7948 47.8725 95.7908 47.8657 95.7893 47.859C95.789 47.8517 95.789 47.8445 95.7893 47.8372C95.7893 47.823 95.7916 47.8089 95.7956 47.7952C95.7995 47.7819 95.805 47.7691 95.812 47.757C95.8195 47.7451 95.8277 47.7337 95.8372 47.7233C95.8467 47.7122 95.8581 47.7027 95.8704 47.6948C95.8825 47.6867 95.8951 47.6797 95.9084 47.6738C95.9218 47.6676 95.936 47.6631 95.9505 47.6603C95.9645 47.6574 95.9785 47.6559 95.9928 47.6558C96.0274 47.6556 96.0617 47.6647 96.0915 47.6822C96.1213 47.6998 96.1455 47.7251 96.162 47.7555L96.828 48.8326L97.5014 47.7398C97.5163 47.712 97.5385 47.6888 97.5657 47.6728C97.5929 47.6568 97.624 47.6486 97.6556 47.6491C97.6988 47.6492 97.7409 47.6646 97.7739 47.6926C97.7896 47.7062 97.8024 47.7228 97.8119 47.7413C97.8213 47.7602 97.8262 47.7809 97.8262 47.802C97.8254 47.8357 97.815 47.8685 97.7962 47.8964L97.0045 49.1339V50.0033C97.0055 50.0412 96.995 50.0786 96.9745 50.1105C96.9564 50.1392 96.9307 50.1621 96.9 50.1764C96.8694 50.1902 96.836 50.1971 96.8025 50.1967C96.7507 50.1976 96.7004 50.1794 96.6611 50.1457C96.6411 50.1278 96.6253 50.1057 96.615 50.0809C96.6048 50.0561 96.6003 50.0293 96.6019 50.0025L96.603 49.1481Z" fill="#474A51"/>
    <path d="M98.6098 50.1537C98.5012 50.1097 98.4042 50.0412 98.3263 49.9535C98.2523 49.8686 98.1949 49.7704 98.1571 49.6642C98.1177 49.5518 98.0979 49.4334 98.0987 49.3142C98.0978 49.1941 98.1176 49.0747 98.1571 48.9612C98.1946 48.8543 98.2523 48.7555 98.327 48.6704C98.4053 48.5833 98.5022 48.5152 98.6105 48.471C98.7337 48.4203 98.8657 48.3948 98.9989 48.396C99.1701 48.3917 99.339 48.4348 99.4874 48.5205C99.6201 48.5981 99.7275 48.7127 99.7965 48.8503C99.915 49.1046 99.9303 49.3951 99.8392 49.6605C99.802 49.7672 99.7448 49.8659 99.6708 49.9513C99.5928 50.0388 99.4958 50.1073 99.3873 50.1514C99.1374 50.2497 98.8597 50.2497 98.6098 50.1514V50.1537ZM99.4015 49.8044C99.4958 49.6581 99.5458 49.4876 99.5458 49.3134C99.5458 49.1393 99.4958 48.9689 99.4015 48.8225C99.351 48.766 99.2891 48.7208 99.2199 48.6898C99.1508 48.6588 99.0758 48.6428 99 48.6428C98.9242 48.6428 98.8492 48.6588 98.78 48.6898C98.7109 48.7208 98.649 48.766 98.5985 48.8225C98.5039 48.9689 98.4538 49.1395 98.4538 49.3139C98.4538 49.4882 98.5039 49.6588 98.5985 49.8051C98.6467 49.8644 98.7082 49.9115 98.7779 49.9428C98.8475 49.974 98.9234 49.9885 98.9996 49.985C99.076 49.9881 99.152 49.9734 99.2218 49.9421C99.2915 49.9107 99.3531 49.8636 99.4015 49.8044Z" fill="#474A51"/>
    <path d="M100.454 50.0543C100.39 49.9855 100.342 49.9043 100.311 49.8158C100.281 49.7273 100.268 49.6335 100.275 49.5402V48.598C100.274 48.5741 100.278 48.5502 100.287 48.5281C100.297 48.506 100.311 48.4864 100.329 48.4706C100.364 48.4413 100.408 48.4252 100.454 48.4252C100.5 48.4252 100.544 48.4413 100.579 48.4706C100.597 48.4866 100.611 48.5063 100.62 48.5284C100.629 48.5504 100.633 48.5742 100.632 48.598V49.5439C100.623 49.6618 100.66 49.7785 100.734 49.8707C100.769 49.9084 100.812 49.938 100.86 49.9573C100.907 49.9766 100.959 49.9851 101.01 49.9824C101.074 49.9829 101.137 49.9698 101.195 49.9439C101.254 49.9181 101.306 49.8801 101.348 49.8325C101.446 49.7248 101.5 49.5839 101.498 49.4383V48.5958C101.497 48.5718 101.501 48.548 101.51 48.5259C101.52 48.5038 101.534 48.4841 101.552 48.4684C101.587 48.4381 101.633 48.4218 101.679 48.4226C101.725 48.4219 101.769 48.4382 101.804 48.4684C101.822 48.4844 101.836 48.5041 101.845 48.5261C101.854 48.5482 101.858 48.572 101.857 48.5958V50.0266C101.858 50.0501 101.854 50.0736 101.845 50.0952C101.836 50.1168 101.821 50.1359 101.803 50.151C101.767 50.1808 101.722 50.1965 101.675 50.1953C101.63 50.1964 101.586 50.1812 101.55 50.1525C101.533 50.1381 101.519 50.1198 101.51 50.0992C101.501 50.0785 101.497 50.056 101.498 50.0334V49.9052C101.452 50.0066 101.373 50.0894 101.274 50.1405C101.164 50.1973 101.042 50.2257 100.919 50.223C100.834 50.2273 100.749 50.2145 100.669 50.1856C100.589 50.1566 100.516 50.112 100.454 50.0543Z" fill="#474A51"/>
    <path d="M118.668 48.5482C118.788 48.6139 118.886 48.7131 118.951 48.8338C119.02 48.9645 119.054 49.1104 119.051 49.258C119.054 49.4079 119.016 49.5558 118.942 49.6859C118.872 49.8093 118.768 49.9102 118.643 49.9768C118.504 50.0479 118.349 50.0835 118.194 50.0802C118.043 50.0802 117.894 50.053 117.754 50C117.62 49.9518 117.496 49.8774 117.391 49.7811C117.373 49.766 117.358 49.747 117.348 49.7257C117.338 49.7044 117.332 49.6811 117.332 49.6575C117.331 49.6248 117.341 49.5927 117.361 49.5668C117.369 49.5557 117.38 49.5465 117.392 49.5402C117.404 49.5338 117.417 49.5303 117.43 49.5301C117.468 49.5316 117.504 49.5458 117.532 49.5705C117.628 49.6515 117.736 49.7172 117.852 49.7654C117.959 49.8078 118.072 49.8295 118.187 49.8291C118.263 49.834 118.34 49.8232 118.413 49.7974C118.485 49.7716 118.551 49.7314 118.608 49.6792C118.706 49.5643 118.76 49.4181 118.76 49.267C118.76 49.1159 118.706 48.9697 118.608 48.8548C118.554 48.8017 118.49 48.7604 118.419 48.7335C118.349 48.7065 118.273 48.6944 118.198 48.6981C118.095 48.6956 117.992 48.7173 117.899 48.7616C117.805 48.8058 117.724 48.8714 117.66 48.9529C117.645 48.9704 117.626 48.9843 117.604 48.9937C117.583 49.0031 117.56 49.0079 117.537 49.0077C117.505 49.0086 117.475 48.9976 117.451 48.9769C117.44 48.9661 117.43 48.9528 117.425 48.938C117.419 48.9233 117.416 48.9074 117.417 48.8915V47.6308C117.416 47.6116 117.419 47.5923 117.426 47.5744C117.433 47.5564 117.443 47.5401 117.457 47.5267C117.471 47.5133 117.487 47.5029 117.505 47.4965C117.523 47.49 117.543 47.4875 117.562 47.4891H118.841C118.878 47.4871 118.915 47.4989 118.945 47.5221C118.969 47.5463 118.982 47.579 118.982 47.6132C118.982 47.6473 118.969 47.6801 118.945 47.7042C118.915 47.7276 118.878 47.7393 118.841 47.7372H117.705V48.6509C117.773 48.5856 117.855 48.5346 117.943 48.501C118.039 48.4648 118.14 48.447 118.242 48.4485C118.39 48.4448 118.537 48.4791 118.668 48.5482Z" fill="#474A51"/>
    <path d="M119.654 49.7499C119.503 49.4462 119.425 49.1117 119.425 48.7726C119.425 48.4335 119.503 48.099 119.654 47.7952C119.732 47.6916 119.833 47.6075 119.949 47.5495C120.065 47.4916 120.193 47.4614 120.322 47.4614C120.452 47.4614 120.58 47.4916 120.696 47.5495C120.812 47.6075 120.913 47.6916 120.991 47.7952C121.142 48.0994 121.22 48.4343 121.22 48.7737C121.22 49.1132 121.142 49.4481 120.991 49.7522C120.914 49.8562 120.812 49.9405 120.696 49.9986C120.58 50.0567 120.452 50.087 120.322 50.087C120.193 50.087 120.065 50.0567 119.949 49.9986C119.833 49.9405 119.731 49.8562 119.654 49.7522V49.7499ZM120.776 49.5753C120.969 49.0563 120.969 48.4851 120.776 47.9661C120.73 47.8873 120.664 47.822 120.584 47.7766C120.505 47.7312 120.416 47.7073 120.324 47.7073C120.233 47.7073 120.143 47.7312 120.064 47.7766C119.985 47.822 119.919 47.8873 119.873 47.9661C119.68 48.4843 119.68 49.0549 119.873 49.5731C119.919 49.6516 119.985 49.7165 120.064 49.7617C120.143 49.8069 120.233 49.8306 120.324 49.8306C120.415 49.8306 120.504 49.8069 120.583 49.7617C120.662 49.7165 120.728 49.6516 120.774 49.5731L120.776 49.5753Z" fill="#474A51"/>
    <path d="M122.709 50.0156C122.695 50.0018 122.684 49.9854 122.677 49.9672C122.67 49.949 122.666 49.9294 122.667 49.9099V47.6351C122.666 47.6156 122.67 47.5961 122.677 47.5779C122.684 47.5597 122.695 47.5432 122.709 47.5295C122.739 47.5021 122.779 47.4878 122.82 47.4897H124.179C124.216 47.4878 124.253 47.4995 124.281 47.5227C124.304 47.5473 124.317 47.5799 124.317 47.6138C124.317 47.6476 124.304 47.6802 124.281 47.7049C124.253 47.728 124.216 47.7397 124.179 47.7378H122.962V48.6297H124.107C124.144 48.6278 124.18 48.6395 124.209 48.6627C124.232 48.6873 124.245 48.7199 124.245 48.7538C124.245 48.7876 124.232 48.8202 124.209 48.8449C124.18 48.868 124.144 48.8797 124.107 48.8778H122.962V49.8095H124.179C124.216 49.8069 124.252 49.8178 124.281 49.8402C124.304 49.8652 124.317 49.898 124.317 49.932C124.317 49.9661 124.304 49.9989 124.281 50.0238C124.253 50.047 124.216 50.0588 124.179 50.0568H122.82C122.779 50.0583 122.739 50.0434 122.709 50.0156Z" fill="#474A51"/>
    <path d="M126.762 48.7521C126.774 48.764 126.783 48.7782 126.789 48.7938C126.794 48.8094 126.797 48.8262 126.796 48.8428V49.7497C126.799 49.7952 126.79 49.8406 126.768 49.8809C126.744 49.9146 126.709 49.9389 126.668 49.9499C126.555 49.9958 126.437 50.0288 126.316 50.048C126.179 50.0723 126.04 50.0846 125.901 50.0848C125.672 50.0909 125.445 50.0369 125.243 49.9281C125.06 49.8248 124.913 49.6679 124.821 49.4784C124.724 49.2568 124.674 49.0176 124.674 48.7757C124.674 48.5339 124.724 48.2946 124.821 48.0731C124.912 47.8844 125.058 47.7277 125.239 47.6234C125.434 47.5144 125.655 47.4597 125.878 47.4652C126.039 47.4627 126.198 47.4881 126.35 47.5402C126.487 47.5877 126.612 47.6645 126.717 47.765C126.735 47.781 126.75 47.8005 126.761 47.8224C126.771 47.8443 126.778 47.8681 126.779 47.8924C126.78 47.9245 126.77 47.9559 126.751 47.9817C126.742 47.9937 126.731 48.0035 126.718 48.0102C126.705 48.0168 126.69 48.0201 126.676 48.0198C126.638 48.0165 126.603 48.0013 126.574 47.9764C126.471 47.8926 126.355 47.8244 126.232 47.774C126.119 47.7346 126 47.7155 125.88 47.7178C125.756 47.7101 125.632 47.7307 125.517 47.778C125.402 47.8252 125.3 47.8979 125.217 47.9906C125.065 48.225 124.984 48.4983 124.984 48.7776C124.984 49.0569 125.065 49.3302 125.217 49.5646C125.304 49.6583 125.411 49.7312 125.53 49.7781C125.649 49.8251 125.777 49.8448 125.905 49.8359C126.114 49.8387 126.322 49.8041 126.519 49.734V48.9552H125.988C125.952 48.957 125.917 48.9452 125.89 48.9222C125.878 48.9118 125.869 48.8989 125.863 48.8844C125.856 48.8698 125.854 48.8541 125.854 48.8383C125.853 48.8223 125.856 48.8062 125.862 48.7914C125.869 48.7766 125.878 48.7634 125.89 48.7529C125.918 48.7314 125.953 48.7205 125.988 48.7222H126.668C126.685 48.7205 126.702 48.7223 126.718 48.7274C126.734 48.7326 126.749 48.741 126.762 48.7521Z" fill="#474A51"/>
    <path d="M127.439 50.0313C127.425 50.0164 127.414 49.999 127.407 49.9799C127.4 49.9609 127.397 49.9406 127.399 49.9204V47.6344C127.398 47.6148 127.401 47.5954 127.408 47.5772C127.415 47.559 127.426 47.5424 127.44 47.5287C127.47 47.5013 127.51 47.487 127.551 47.489H128.412C128.638 47.4749 128.861 47.5448 129.039 47.6854C129.115 47.7558 129.175 47.8422 129.213 47.9385C129.252 48.0348 129.269 48.1386 129.263 48.2422C129.269 48.3464 129.252 48.4507 129.213 48.5476C129.175 48.6445 129.115 48.7316 129.039 48.8029C128.863 48.9451 128.64 49.0165 128.414 49.003H127.698V49.9204C127.7 49.9612 127.686 50.001 127.658 50.0313C127.644 50.0455 127.627 50.0566 127.608 50.0638C127.589 50.071 127.569 50.0743 127.549 50.0733C127.529 50.0747 127.508 50.0717 127.489 50.0644C127.47 50.0572 127.453 50.0458 127.439 50.0313ZM128.383 48.7572C128.773 48.7572 128.969 48.586 128.969 48.2437C128.969 47.9015 128.773 47.7328 128.383 47.7378H127.696V48.7572H128.383Z" fill="#474A51"/>
    <path d="M133.005 52.6971H91.8235C91.0764 52.6971 90.4707 53.3038 90.4707 54.0523V54.053C90.4707 54.8014 91.0764 55.4081 91.8235 55.4081H133.005C133.752 55.4081 134.357 54.8014 134.357 54.053V54.0523C134.357 53.3038 133.752 52.6971 133.005 52.6971Z" fill="#DADBDC"/>
    <path d="M95.9246 80.8108H94.7277L94.5322 81.3175C94.5186 81.3575 94.4923 81.3919 94.4573 81.4156C94.4248 81.4367 94.3868 81.4477 94.3481 81.4471C94.3108 81.447 94.274 81.4377 94.241 81.4201C94.2126 81.407 94.1886 81.3858 94.172 81.3592C94.1554 81.3326 94.1468 81.3017 94.1475 81.2703C94.1477 81.247 94.1528 81.2239 94.1625 81.2027L94.9947 79.1251C95.0203 79.0436 95.0689 78.9712 95.1347 78.9168C95.1922 78.8829 95.2576 78.865 95.3243 78.865C95.391 78.865 95.4564 78.8829 95.5139 78.9168C95.5795 78.9712 95.6279 79.0436 95.6531 79.1251L96.4857 81.2027C96.4947 81.2246 96.4995 81.2481 96.5 81.2717C96.5 81.3042 96.4895 81.3357 96.47 81.3617C96.4506 81.3881 96.4252 81.4093 96.3955 81.4231C96.3653 81.4372 96.332 81.4444 96.2987 81.4441C96.2594 81.441 96.222 81.4273 96.1898 81.4045C96.1577 81.3817 96.1323 81.3505 96.1164 81.3145L95.9246 80.8108ZM95.3261 79.257L94.8376 80.5229H95.8102L95.3261 79.257Z" fill="#474A51"/>
    <path d="M96.9178 81.3888C96.9 81.3729 96.8861 81.3531 96.8769 81.3311C96.8677 81.309 96.8633 81.2852 96.8644 81.2614V79.0556C96.8633 79.0323 96.8675 79.0091 96.8769 78.9878C96.8862 78.9664 96.9006 78.9476 96.9185 78.9327C96.9541 78.904 96.9985 78.8883 97.0442 78.8883C97.0899 78.8883 97.1343 78.904 97.1699 78.9327C97.1876 78.9476 97.2016 78.9665 97.2108 78.9879C97.22 79.0092 97.2241 79.0323 97.2229 79.0556V79.9227C97.2767 79.8302 97.3574 79.7563 97.4541 79.7106C97.5639 79.6583 97.6845 79.6327 97.806 79.6357C97.8879 79.635 97.9692 79.6481 98.0467 79.6747C98.1209 79.7006 98.1894 79.7408 98.248 79.7931C98.3117 79.8514 98.3604 79.9242 98.3902 80.0053C98.4268 80.1035 98.4448 80.2077 98.4428 80.3125V81.2637C98.4441 81.2875 98.4399 81.3114 98.4307 81.3335C98.4215 81.3555 98.4073 81.3753 98.3894 81.3911C98.3537 81.4212 98.3083 81.4372 98.2616 81.436C98.2158 81.4368 98.1714 81.4209 98.1366 81.3911C98.1189 81.3751 98.1051 81.3553 98.0961 81.3333C98.087 81.3112 98.083 81.2875 98.0844 81.2637V80.3021C98.0931 80.1898 98.0571 80.0785 97.9846 79.9924C97.9496 79.9575 97.9076 79.9303 97.8615 79.9125C97.8154 79.8947 97.7662 79.8867 97.7168 79.8891C97.6519 79.8879 97.5873 79.9001 97.5272 79.9248C97.4671 79.9496 97.4129 79.9864 97.3675 80.033C97.3182 80.0856 97.2801 80.1476 97.2554 80.2153C97.2307 80.2831 97.2197 80.3552 97.2236 80.4272V81.2629C97.225 81.2868 97.2211 81.3107 97.2119 81.3328C97.2027 81.3549 97.1886 81.3745 97.1706 81.3903C97.1352 81.4205 97.09 81.4365 97.0435 81.4353C96.9972 81.4362 96.9524 81.4196 96.9178 81.3888Z" fill="#474A51"/>
    <path d="M98.9899 81.3896C98.9726 81.3738 98.9589 81.3542 98.9501 81.3324C98.9413 81.3106 98.9373 81.2871 98.9388 81.2636V79.8291C98.9375 79.8059 98.942 79.7827 98.9512 79.7614C98.9604 79.74 98.9743 79.7211 98.9921 79.7061C99.0275 79.6766 99.0724 79.6609 99.1185 79.6619C99.1637 79.6613 99.2078 79.6761 99.2435 79.7039C99.2611 79.7176 99.275 79.7352 99.2844 79.7554C99.2938 79.7756 99.2981 79.7979 99.2972 79.8201V79.9625C99.3473 79.8581 99.4283 79.7718 99.5292 79.7152C99.6331 79.6594 99.7496 79.6313 99.8675 79.6335C100.001 79.6295 100.132 79.6678 100.242 79.7429C100.343 79.8146 100.417 79.9192 100.45 80.039C100.493 79.9136 100.577 79.8063 100.688 79.7347C100.806 79.6647 100.941 79.6296 101.078 79.6335C101.164 79.6326 101.249 79.6458 101.33 79.6724C101.405 79.6979 101.475 79.7384 101.535 79.7916C101.597 79.8501 101.645 79.9229 101.675 80.0037C101.71 80.102 101.727 80.2058 101.725 80.3103V81.2629C101.727 81.2865 101.722 81.3102 101.713 81.3321C101.704 81.3539 101.69 81.3732 101.672 81.3888C101.636 81.4185 101.591 81.4343 101.544 81.4331C101.499 81.4341 101.454 81.4183 101.42 81.3888C101.402 81.373 101.388 81.3536 101.379 81.3318C101.37 81.31 101.366 81.2865 101.367 81.2629V80.3013C101.375 80.1864 101.341 80.0724 101.271 79.9812C101.236 79.9445 101.193 79.916 101.145 79.8976C101.098 79.8792 101.047 79.8715 100.996 79.8748C100.93 79.873 100.865 79.8855 100.805 79.9113C100.744 79.9372 100.69 79.9759 100.646 80.0247C100.549 80.1426 100.5 80.2936 100.509 80.4467V81.2629C100.511 81.2868 100.507 81.3106 100.498 81.3327C100.489 81.3548 100.474 81.3745 100.456 81.3903C100.421 81.4204 100.375 81.4364 100.329 81.4353C100.283 81.4362 100.238 81.4202 100.204 81.3903C100.186 81.3743 100.172 81.3545 100.163 81.3325C100.154 81.3105 100.15 81.2867 100.151 81.2629V80.3283C100.161 80.206 100.127 80.0842 100.055 79.985C100.02 79.947 99.9777 79.9173 99.9303 79.898C99.8829 79.8787 99.8316 79.8702 99.7805 79.8733C99.7148 79.8704 99.6492 79.8819 99.5884 79.907C99.5275 79.9322 99.473 79.9703 99.4283 80.0188C99.3348 80.1309 99.2872 80.2745 99.2957 80.4204V81.2614C99.297 81.2851 99.293 81.3088 99.2837 81.3307C99.2743 81.3525 99.2601 81.3719 99.242 81.3873C99.2058 81.417 99.1602 81.4327 99.1134 81.4315C99.0685 81.4331 99.0245 81.4183 98.9899 81.3896Z" fill="#474A51"/>
    <path d="M102.368 81.2115C102.283 81.1218 102.217 81.0157 102.175 80.8998C102.132 80.7838 102.113 80.6603 102.119 80.5369C102.119 80.42 102.139 80.3038 102.178 80.1936C102.215 80.0887 102.27 79.9915 102.342 79.9066C102.416 79.8207 102.509 79.7525 102.613 79.7072C102.727 79.6566 102.851 79.631 102.977 79.6322C103.101 79.63 103.224 79.6538 103.338 79.7019C103.436 79.7434 103.522 79.8089 103.588 79.8923C103.651 79.974 103.699 80.0658 103.731 80.1637C103.764 80.27 103.782 80.3806 103.783 80.492C103.785 80.5263 103.775 80.5601 103.754 80.5879C103.744 80.6006 103.731 80.6107 103.716 80.6172C103.701 80.6238 103.685 80.6266 103.669 80.6254H102.48C102.476 80.7055 102.488 80.7856 102.515 80.8611C102.542 80.9365 102.584 81.0057 102.639 81.0645C102.746 81.1641 102.888 81.2179 103.034 81.2145C103.125 81.2158 103.216 81.1974 103.3 81.1605C103.388 81.1195 103.47 81.0693 103.547 81.0107C103.558 81.003 103.569 80.9967 103.582 80.9919C103.593 80.988 103.604 80.9859 103.616 80.9859C103.636 80.9858 103.656 80.9919 103.672 81.0031C103.69 81.0146 103.704 81.0303 103.713 81.0488C103.723 81.0674 103.728 81.0884 103.728 81.1096C103.728 81.1298 103.724 81.1499 103.715 81.168C103.705 81.1885 103.691 81.2062 103.673 81.2197C103.49 81.3819 103.253 81.4689 103.009 81.4633C102.891 81.4667 102.773 81.4463 102.663 81.403C102.552 81.3597 102.452 81.2946 102.368 81.2115ZM103.474 80.4087C103.469 80.2707 103.422 80.1375 103.339 80.0273C103.297 79.9767 103.244 79.9368 103.184 79.9107C103.123 79.8847 103.058 79.8732 102.993 79.8773C102.919 79.8765 102.847 79.8921 102.78 79.9231C102.719 79.9511 102.665 79.9929 102.623 80.0452C102.583 80.0966 102.55 80.1541 102.528 80.2154C102.504 80.2775 102.49 80.3425 102.484 80.4087H103.474Z" fill="#474A51"/>
    <path d="M104.511 81.3872C104.416 81.3391 104.334 81.2689 104.271 81.1826C104.207 81.093 104.159 80.9935 104.128 80.888C104.094 80.7739 104.078 80.6555 104.078 80.5365C104.068 80.301 104.144 80.0698 104.291 79.8859C104.362 79.8024 104.451 79.7362 104.551 79.6924C104.651 79.6486 104.76 79.6284 104.87 79.6333C104.985 79.6247 105.1 79.6494 105.202 79.7046C105.303 79.7597 105.387 79.843 105.443 79.9444V79.0554C105.442 79.0321 105.445 79.0088 105.455 78.9874C105.464 78.9659 105.478 78.9469 105.496 78.9318C105.531 78.9029 105.576 78.8875 105.622 78.8884C105.667 78.8873 105.711 78.9027 105.747 78.9318C105.764 78.9469 105.778 78.966 105.787 78.9874C105.797 79.0089 105.801 79.0321 105.799 79.0554V81.2612C105.8 81.2848 105.796 81.3083 105.787 81.33C105.778 81.3517 105.764 81.371 105.746 81.3864C105.711 81.4165 105.666 81.4328 105.62 81.4321C105.573 81.4352 105.526 81.4196 105.489 81.3887C105.473 81.3719 105.46 81.3519 105.452 81.3299C105.444 81.308 105.441 81.2845 105.443 81.2612V81.1353C105.386 81.2421 105.298 81.3298 105.192 81.3879C105.086 81.4459 104.965 81.4717 104.844 81.4622C104.729 81.4644 104.615 81.4387 104.511 81.3872ZM105.166 81.1706C105.233 81.1404 105.29 81.0912 105.329 81.0289C105.369 80.9638 105.398 80.8923 105.414 80.8176C105.432 80.7269 105.441 80.6343 105.44 80.5417C105.44 80.4757 105.435 80.4098 105.424 80.3447C105.412 80.2823 105.393 80.2215 105.367 80.164C105.342 80.1092 105.309 80.0586 105.269 80.0141C105.228 79.9704 105.178 79.9361 105.123 79.9136C105.061 79.888 104.995 79.8753 104.927 79.8762C104.845 79.8741 104.764 79.8946 104.693 79.9354C104.628 79.9733 104.575 80.0282 104.539 80.0942C104.503 80.1608 104.477 80.232 104.46 80.3057C104.442 80.3826 104.433 80.4613 104.433 80.5403C104.433 80.6176 104.442 80.6948 104.458 80.7704C104.474 80.8449 104.499 80.9172 104.533 80.9855C104.566 81.0541 104.618 81.112 104.683 81.1526C104.752 81.196 104.832 81.2186 104.914 81.2178C105 81.2209 105.086 81.2048 105.166 81.1706Z" fill="#474A51"/>
    <path d="M118.493 79.9282C118.613 79.9939 118.711 80.0932 118.776 80.2138C118.845 80.3445 118.879 80.4904 118.876 80.638C118.878 80.7879 118.841 80.9358 118.766 81.066C118.695 81.1899 118.59 81.291 118.464 81.3576C118.325 81.4289 118.17 81.4647 118.015 81.4617C117.864 81.4618 117.715 81.4346 117.575 81.3815C117.441 81.3334 117.317 81.2593 117.212 81.1634C117.194 81.1482 117.179 81.1292 117.169 81.1079C117.159 81.0865 117.154 81.0633 117.153 81.0397C117.152 81.007 117.163 80.975 117.183 80.949C117.19 80.9378 117.201 80.9286 117.213 80.9222C117.225 80.9158 117.238 80.9124 117.252 80.9123C117.29 80.9137 117.326 80.9281 117.354 80.9528C117.45 81.0339 117.558 81.0997 117.674 81.1477C117.78 81.1901 117.894 81.2117 118.008 81.2113C118.085 81.2161 118.161 81.2053 118.234 81.1795C118.306 81.1537 118.373 81.1136 118.429 81.0615C118.527 80.9465 118.581 80.8003 118.581 80.6492C118.581 80.4981 118.527 80.3519 118.429 80.2369C118.375 80.1839 118.311 80.1426 118.24 80.1156C118.169 80.0887 118.094 80.0766 118.018 80.0803C117.915 80.0777 117.812 80.0995 117.719 80.1437C117.626 80.188 117.544 80.2536 117.48 80.3352C117.465 80.3526 117.446 80.3665 117.424 80.3759C117.403 80.3854 117.38 80.3902 117.357 80.3899C117.326 80.3909 117.295 80.3799 117.271 80.3592C117.26 80.3483 117.251 80.3351 117.245 80.3203C117.239 80.3055 117.236 80.2896 117.237 80.2737V79.0175C117.236 78.9798 117.25 78.9432 117.275 78.9156C117.289 78.9019 117.306 78.8912 117.325 78.8844C117.343 78.8776 117.363 78.8747 117.382 78.8759H118.662C118.699 78.874 118.736 78.8856 118.766 78.9088C118.778 78.9207 118.787 78.9349 118.794 78.9505C118.8 78.9662 118.804 78.983 118.804 79C118.804 79.0169 118.8 79.0336 118.794 79.0493C118.787 79.0649 118.778 79.0791 118.766 79.091C118.736 79.1142 118.699 79.1259 118.662 79.1239H117.532V80.0376C117.6 79.9721 117.681 79.9212 117.769 79.8877C117.865 79.8516 117.966 79.8339 118.069 79.8353C118.216 79.8297 118.362 79.8616 118.493 79.9282Z" fill="#474A51"/>
    <path d="M119.48 81.1293C119.329 80.8256 119.251 80.4911 119.251 80.1519C119.251 79.8128 119.329 79.4783 119.48 79.1746C119.558 79.0709 119.659 78.9868 119.775 78.9288C119.891 78.8709 120.019 78.8408 120.149 78.8408C120.278 78.8408 120.406 78.8709 120.522 78.9288C120.638 78.9868 120.739 79.0709 120.817 79.1746C120.968 79.4787 121.046 79.8136 121.046 80.1531C121.046 80.4926 120.968 80.8274 120.817 81.1315C120.739 81.2355 120.638 81.3199 120.522 81.378C120.406 81.4361 120.278 81.4663 120.149 81.4663C120.019 81.4663 119.891 81.4361 119.775 81.378C119.659 81.3199 119.558 81.2355 119.48 81.1315V81.1293ZM120.602 80.9547C120.795 80.4357 120.795 79.8645 120.602 79.3455C120.556 79.2667 120.49 79.2013 120.411 79.1559C120.332 79.1105 120.242 79.0867 120.151 79.0867C120.06 79.0867 119.97 79.1105 119.891 79.1559C119.812 79.2013 119.745 79.2667 119.699 79.3455C119.505 79.8636 119.505 80.4343 119.699 80.9524C119.746 81.0309 119.811 81.0959 119.89 81.141C119.969 81.1862 120.059 81.2099 120.15 81.2099C120.241 81.2099 120.33 81.1862 120.41 81.141C120.489 81.0959 120.555 81.0309 120.601 80.9524L120.602 80.9547Z" fill="#474A51"/>
    <path d="M122.535 81.3947C122.521 81.381 122.51 81.3645 122.503 81.3463C122.496 81.3281 122.493 81.3086 122.493 81.289V79.0135C122.493 78.9939 122.496 78.9745 122.503 78.9563C122.51 78.9381 122.521 78.9216 122.535 78.9078C122.55 78.894 122.567 78.8834 122.586 78.8766C122.605 78.8698 122.626 78.8669 122.646 78.8681H124.005C124.042 78.8657 124.078 78.8775 124.106 78.901C124.129 78.9257 124.142 78.9583 124.142 78.9922C124.142 79.026 124.129 79.0586 124.106 79.0832C124.078 79.1068 124.042 79.1185 124.005 79.1161H122.79V80.0081H123.935C123.972 80.006 124.009 80.0177 124.038 80.041C124.061 80.0657 124.074 80.0983 124.074 80.1322C124.074 80.166 124.061 80.1986 124.038 80.2232C124.009 80.2466 123.972 80.2583 123.935 80.2561H122.79V81.1878H124.008C124.044 81.1852 124.081 81.1962 124.11 81.2186C124.133 81.2435 124.145 81.2764 124.145 81.3104C124.145 81.3445 124.133 81.3772 124.11 81.4022C124.081 81.4258 124.045 81.4376 124.008 81.4352H122.649C122.628 81.4368 122.607 81.4339 122.588 81.4269C122.568 81.4199 122.55 81.409 122.535 81.3947Z" fill="#474A51"/>
    <path d="M126.586 80.1318C126.598 80.1436 126.607 80.1578 126.613 80.1735C126.619 80.1891 126.621 80.2058 126.62 80.2224V81.1286C126.623 81.1739 126.614 81.2193 126.593 81.2598C126.568 81.2933 126.533 81.3177 126.493 81.3288C126.379 81.3746 126.261 81.4075 126.14 81.4269C126.003 81.4512 125.865 81.4634 125.726 81.4636C125.497 81.4698 125.27 81.4158 125.068 81.307C124.885 81.2036 124.737 81.0468 124.645 80.8573C124.548 80.6357 124.498 80.3964 124.498 80.1546C124.498 79.9128 124.548 79.6736 124.645 79.452C124.736 79.2637 124.881 79.1071 125.062 79.0023C125.257 78.8931 125.478 78.8382 125.702 78.8433C125.862 78.8408 126.022 78.8662 126.174 78.9183C126.311 78.9658 126.437 79.0426 126.541 79.1432C126.56 79.1592 126.574 79.1788 126.585 79.2006C126.596 79.2225 126.602 79.2462 126.604 79.2705C126.604 79.3027 126.594 79.3342 126.574 79.3597C126.566 79.3718 126.555 79.3817 126.541 79.3884C126.528 79.395 126.514 79.3983 126.499 79.398C126.462 79.3945 126.426 79.3793 126.398 79.3545C126.294 79.2707 126.179 79.2025 126.056 79.1521C125.943 79.1127 125.823 79.0937 125.703 79.096C125.579 79.0884 125.455 79.109 125.341 79.1563C125.226 79.2035 125.123 79.2762 125.04 79.3688C124.888 79.6031 124.808 79.8764 124.808 80.1557C124.808 80.435 124.888 80.7084 125.04 80.9427C125.128 81.0364 125.235 81.1093 125.354 81.1562C125.473 81.2031 125.601 81.2229 125.729 81.214C125.937 81.2168 126.145 81.1823 126.342 81.1121V80.3334H125.813C125.777 80.3352 125.742 80.3234 125.714 80.3004C125.702 80.2899 125.693 80.277 125.687 80.2625C125.681 80.248 125.678 80.2323 125.679 80.2165C125.678 80.2004 125.68 80.1844 125.687 80.1695C125.693 80.1547 125.702 80.1416 125.714 80.131C125.742 80.1095 125.777 80.0986 125.813 80.1003H126.492C126.509 80.0987 126.526 80.1007 126.542 80.1061C126.558 80.1116 126.573 80.1203 126.586 80.1318Z" fill="#474A51"/>
    <path d="M127.263 81.4107C127.236 81.3804 127.222 81.3406 127.224 81.2998V79.0137C127.223 78.9942 127.226 78.9748 127.233 78.9566C127.24 78.9384 127.251 78.9218 127.265 78.9081C127.28 78.8943 127.297 78.8837 127.316 78.8769C127.335 78.87 127.356 78.8671 127.376 78.8684H128.238C128.463 78.8543 128.686 78.9242 128.864 79.0647C128.94 79.1351 129 79.2217 129.039 79.318C129.077 79.4142 129.094 79.5179 129.088 79.6216C129.094 79.7258 129.077 79.8301 129.039 79.927C129 80.0239 128.94 80.1111 128.864 80.1823C128.688 80.3246 128.465 80.396 128.239 80.3824H127.522V81.2998C127.524 81.3406 127.51 81.3804 127.482 81.4107C127.468 81.4249 127.451 81.436 127.432 81.4433C127.414 81.4505 127.393 81.4537 127.373 81.4527C127.353 81.4539 127.333 81.4508 127.314 81.4435C127.295 81.4363 127.278 81.4251 127.263 81.4107ZM128.208 80.1365C128.598 80.1365 128.793 79.9654 128.793 79.6231C128.793 79.2808 128.598 79.1122 128.208 79.1172H127.521V80.1365H128.208Z" fill="#474A51"/>
    <path d="M133.005 83.6775H91.8235C91.0764 83.6775 90.4707 84.2842 90.4707 85.0326V85.0334C90.4707 85.7818 91.0764 86.3885 91.8235 86.3885H133.005C133.752 86.3885 134.357 85.7818 134.357 85.0334V85.0326C134.357 84.2842 133.752 83.6775 133.005 83.6775Z" fill="#DADBDC"/>
    <path d="M53.3113 161.059L41.7969 182.87C41.7969 182.87 67.7317 190.268 94.4851 167.205L97.0565 157.793L53.3113 161.059Z" fill="#B78876"/>
</svg>
