<svg width="50" height="50" viewBox="0 0 50 50" fill="none" xmlns="http://www.w3.org/2000/svg">
<path fill-rule="evenodd" clip-rule="evenodd" d="M27.0827 10.4165C27.0827 11.5686 26.1493 12.4998 24.9993 12.4998C23.8493 12.4998 22.916 11.5686 22.916 10.4165V6.24984C22.916 5.09775 23.8493 4.1665 24.9993 4.1665C26.1493 4.1665 27.0827 5.09775 27.0827 6.24984V10.4165ZM27.0827 32.208C27.0827 31.4642 27.4806 30.7746 28.1264 30.4017C30.0535 29.2955 31.2493 27.2246 31.2493 24.9996C31.2493 21.5538 28.4452 18.7496 24.9993 18.7496C21.5535 18.7496 18.7493 21.5538 18.7493 24.9996C18.7493 27.2246 19.9452 29.2955 21.8723 30.4017C22.5181 30.7746 22.916 31.4642 22.916 32.208V41.6663H27.0827V32.208ZM14.5827 24.9996C14.5827 19.2559 19.2556 14.583 24.9993 14.583C30.7431 14.583 35.416 19.2559 35.416 24.9996C35.416 28.2892 33.8452 31.3788 31.2493 33.3246V41.6663C31.2493 43.9642 29.3806 45.833 27.0827 45.833H22.916C20.6181 45.833 18.7493 43.9642 18.7493 41.6663V33.3246C16.1514 31.3788 14.5827 28.2892 14.5827 24.9996ZM43.7494 22.9165H39.5827C38.4306 22.9165 37.4993 23.8478 37.4993 24.9998C37.4993 26.1519 38.4306 27.0832 39.5827 27.0832H43.7494C44.9014 27.0832 45.8327 26.1519 45.8327 24.9998C45.8327 23.8478 44.9014 22.9165 43.7494 22.9165ZM6.24935 22.9165H10.416C11.566 22.9165 12.4993 23.8478 12.4993 24.9998C12.4993 26.1519 11.566 27.0832 10.416 27.0832H6.24935C5.09935 27.0832 4.16602 26.1519 4.16602 24.9998C4.16602 23.8478 5.09935 22.9165 6.24935 22.9165ZM15.957 13.3704L12.9591 10.4745C12.132 9.67662 10.8153 9.70162 10.0133 10.5287C9.21326 11.3537 9.23618 12.6745 10.0633 13.4745L13.0612 16.3683C13.4674 16.76 13.9883 16.9537 14.5091 16.9537C15.0549 16.9537 15.5987 16.7391 16.007 16.3162C16.807 15.4912 16.7841 14.1704 15.957 13.3704ZM37.0398 10.4779C37.8648 9.68002 39.1898 9.70294 39.9835 10.5279C40.7835 11.3529 40.7606 12.6738 39.9335 13.4717L36.9356 16.3675C36.5335 16.7571 36.0106 16.9529 35.4898 16.9529C34.944 16.9529 34.3981 16.7384 33.9919 16.3154C33.1919 15.4904 33.2148 14.1696 34.0419 13.3717L37.0398 10.4779Z" fill="#FF5364"/>
<mask id="mask0" mask-type="alpha" maskUnits="userSpaceOnUse" x="4" y="4" width="42" height="42">
<path fill-rule="evenodd" clip-rule="evenodd" d="M27.0827 10.4165C27.0827 11.5686 26.1493 12.4998 24.9993 12.4998C23.8493 12.4998 22.916 11.5686 22.916 10.4165V6.24984C22.916 5.09775 23.8493 4.1665 24.9993 4.1665C26.1493 4.1665 27.0827 5.09775 27.0827 6.24984V10.4165ZM27.0827 32.208C27.0827 31.4642 27.4806 30.7746 28.1264 30.4017C30.0535 29.2955 31.2493 27.2246 31.2493 24.9996C31.2493 21.5538 28.4452 18.7496 24.9993 18.7496C21.5535 18.7496 18.7493 21.5538 18.7493 24.9996C18.7493 27.2246 19.9452 29.2955 21.8723 30.4017C22.5181 30.7746 22.916 31.4642 22.916 32.208V41.6663H27.0827V32.208ZM14.5827 24.9996C14.5827 19.2559 19.2556 14.583 24.9993 14.583C30.7431 14.583 35.416 19.2559 35.416 24.9996C35.416 28.2892 33.8452 31.3788 31.2493 33.3246V41.6663C31.2493 43.9642 29.3806 45.833 27.0827 45.833H22.916C20.6181 45.833 18.7493 43.9642 18.7493 41.6663V33.3246C16.1514 31.3788 14.5827 28.2892 14.5827 24.9996ZM43.7494 22.9165H39.5827C38.4306 22.9165 37.4993 23.8478 37.4993 24.9998C37.4993 26.1519 38.4306 27.0832 39.5827 27.0832H43.7494C44.9014 27.0832 45.8327 26.1519 45.8327 24.9998C45.8327 23.8478 44.9014 22.9165 43.7494 22.9165ZM6.24935 22.9165H10.416C11.566 22.9165 12.4993 23.8478 12.4993 24.9998C12.4993 26.1519 11.566 27.0832 10.416 27.0832H6.24935C5.09935 27.0832 4.16602 26.1519 4.16602 24.9998C4.16602 23.8478 5.09935 22.9165 6.24935 22.9165ZM15.957 13.3704L12.9591 10.4745C12.132 9.67662 10.8153 9.70162 10.0133 10.5287C9.21326 11.3537 9.23618 12.6745 10.0633 13.4745L13.0612 16.3683C13.4674 16.76 13.9883 16.9537 14.5091 16.9537C15.0549 16.9537 15.5987 16.7391 16.007 16.3162C16.807 15.4912 16.7841 14.1704 15.957 13.3704ZM37.0398 10.4779C37.8648 9.68002 39.1898 9.70294 39.9835 10.5279C40.7835 11.3529 40.7606 12.6738 39.9335 13.4717L36.9356 16.3675C36.5335 16.7571 36.0106 16.9529 35.4898 16.9529C34.944 16.9529 34.3981 16.7384 33.9919 16.3154C33.1919 15.4904 33.2148 14.1696 34.0419 13.3717L37.0398 10.4779Z" fill="white"/>
</mask>
<g mask="url(#mask0)">
<rect width="50" height="50" fill="#FF5364"/>
</g>
</svg>
