<svg xmlns="http://www.w3.org/2000/svg" width="247" height="194" fill="none" viewBox="0 0 247 194"><path fill="#D6DCFD" d="M236.223 165.433C232.02 173.823 227.207 178.834 221.982 181.451C213.957 185.509 204.94 183.951 195.62 180.445C195.335 180.349 195.062 180.244 194.777 180.139C193.513 179.644 192.239 179.123 190.954 178.571C176.325 172.31 161.222 162.883 148.16 164.154C142.187 164.737 135.68 167.225 128.697 170.51C122.451 173.455 115.806 177.046 108.823 180.49C107.58 181.104 106.326 181.708 105.062 182.313C101.84 183.838 98.5429 185.3 95.1717 186.636C76.2883 194.115 55.2531 197.42 32.6437 183.5C16.8658 173.786 -14.7946 118.603 21.4156 64.0771C61.6503 3.46953 169.089 4.42302 200.181 21.6481C255.213 52.1323 253.676 130.61 236.223 165.433Z"/><path fill="#6D53A7" d="M142.908 88.6959C142.908 100.747 138.118 111.684 130.337 119.698C129.151 120.921 127.893 122.077 126.571 123.158C124.684 124.704 122.668 126.097 120.539 127.32C115.425 130.259 109.674 132.211 103.54 132.917C103.163 132.962 102.783 133.001 102.403 133.033C101.081 133.152 99.7443 133.212 98.392 133.212C97.6199 133.212 96.8521 133.193 96.0908 133.154C95.7091 133.134 95.3274 133.111 94.9478 133.08C89.4116 132.658 84.1579 131.221 79.3744 128.957C78.3069 128.452 77.263 127.907 76.2451 127.32H78.7684C78.4125 126.434 77.9963 125.502 77.5067 124.523C75.2746 120.056 71.9943 116.722 70.215 111.665C69.5507 109.78 69.0957 107.655 68.9792 105.143C68.8649 102.667 69.4256 100.019 70.215 97.3464C71.977 91.3767 74.8713 85.2949 73.8986 80.809C73.3271 78.1713 71.6362 75.7364 70.215 74.0672C69.0288 72.674 68.0324 71.8134 68.0324 71.8134C68.0324 71.8134 67.4393 72.9349 66.4473 74.8846C64.0663 79.5646 59.3928 89.0216 55.129 99.2205C54.3095 95.8475 53.876 92.3213 53.876 88.6959C53.876 76.6444 58.6638 65.7079 66.4473 57.6937C67.6334 56.4687 68.8908 55.3127 70.215 54.2322C77.8885 47.9476 87.6992 44.1777 98.392 44.1777C109.085 44.1777 118.898 47.9498 126.571 54.2322C127.893 55.3148 129.151 56.4687 130.337 57.6937C138.12 65.7079 142.908 76.6444 142.908 88.6959Z"/><path fill="#000" d="M130.338 27.4145V138.471C130.338 140.791 128.457 142.674 126.134 142.674H79.9555C80.3998 141.704 80.6737 140.664 80.7664 139.603C80.7772 139.471 80.7859 139.338 80.7902 139.206C80.801 139.038 80.8031 138.87 80.801 138.701C80.801 136.821 80.9519 133.603 79.3754 128.958C78.3078 128.453 77.264 127.907 76.246 127.321H78.7694C78.4135 126.434 77.9973 125.503 77.5077 124.523C75.2755 120.057 71.9952 116.723 70.216 111.665C69.5517 109.78 69.0966 107.656 68.9802 105.143C68.8659 102.668 69.4266 100.019 70.216 97.3471C71.978 91.3774 74.8722 85.2955 73.8996 80.8096C73.3281 78.172 71.6372 75.7371 70.216 74.0678C69.0298 72.6746 68.0334 71.8141 68.0334 71.8141C68.0334 71.8141 67.4403 72.9356 66.4482 74.8852V27.4145C66.4482 25.0918 68.3289 23.209 70.6516 23.209H126.134C128.457 23.209 130.338 25.0918 130.338 27.4145Z"/><path fill="#fff" d="M126.572 30.9382V134.946C126.572 137.297 124.668 139.204 122.315 139.206H80.79C80.8008 139.037 80.803 138.869 80.8008 138.701C80.8008 136.82 80.9518 133.603 79.3752 128.957C78.3077 128.452 77.2639 127.907 76.2459 127.32H78.7692C78.4134 126.434 77.9971 125.502 77.5076 124.523C75.2754 120.057 71.9951 116.722 70.2158 111.665V97.3467C71.9778 91.377 74.8721 85.2951 73.8994 80.8092C73.3279 78.1716 71.6371 75.7367 70.2158 74.0675V30.9382C70.2137 28.5874 72.1202 26.6809 74.471 26.6787H83.8525C84.286 26.6787 84.6375 27.0324 84.6375 27.4659V29.092C84.6375 29.0942 84.6375 29.0942 84.6375 29.0942C84.6375 30.427 85.7159 31.5054 87.0487 31.5054H109.737C109.739 31.5054 109.739 31.5054 109.741 31.5054C111.072 31.5032 112.148 30.4227 112.148 29.092V27.4637C112.148 27.0302 112.5 26.6787 112.933 26.6787H122.315C124.668 26.6809 126.572 28.5874 126.572 30.9382Z"/><path fill="#000" d="M128.085 127.32V139.603H80.7675C80.7783 139.471 80.7869 139.337 80.7912 139.206C80.802 139.038 80.8041 138.869 80.802 138.701C80.802 136.82 80.9529 133.603 79.3764 128.957C78.3089 128.453 77.265 127.907 76.2471 127.32H128.085Z"/><path fill="#545454" d="M99.2698 138.67C101.734 138.67 103.732 136.671 103.732 134.204C103.732 131.737 101.734 129.737 99.2698 129.737C96.8054 129.737 94.8076 131.737 94.8076 134.204C94.8076 136.671 96.8054 138.67 99.2698 138.67Z"/><path fill="#737373" d="M102.616 134.204C102.614 136.052 101.115 137.549 99.2667 137.547C97.4184 137.545 95.9217 136.046 95.9238 134.197C95.926 132.351 97.4227 130.854 99.2688 130.854C101.117 130.857 102.616 132.356 102.616 134.204Z"/><path fill="#A4A6A4" d="M89.4229 27.5801H103.65C103.931 27.5801 104.157 27.8065 104.157 28.0869V28.5592C104.157 28.8396 103.931 29.066 103.65 29.066H89.4229C89.1425 29.066 88.916 28.8396 88.916 28.5592V28.0869C88.9139 27.8065 89.1403 27.5801 89.4229 27.5801Z"/><path fill="#A4A6A4" d="M107.876 28.3242C107.876 28.941 107.375 29.4392 106.759 29.4392C106.142 29.4392 105.644 28.9388 105.644 28.322C105.644 27.7074 106.144 27.207 106.759 27.207C107.378 27.207 107.876 27.7074 107.876 28.3242Z"/><path fill="#6D53A7" d="M79.2276 103.355H116.542C118.749 103.355 120.537 105.143 120.537 107.35V111.079C120.537 113.285 118.749 115.073 116.542 115.073H79.2276C77.0213 115.073 75.2334 113.285 75.2334 111.079V107.35C75.2312 105.146 77.0213 103.355 79.2276 103.355Z"/><path fill="#fff" d="M87.7285 108.777C87.7845 108.831 87.8147 108.905 87.8147 108.997V110.007C87.8147 110.145 87.8039 110.253 87.7802 110.328C87.7587 110.404 87.7198 110.464 87.6638 110.509C87.6077 110.555 87.5257 110.591 87.4157 110.624C87.282 110.665 87.1268 110.697 86.9521 110.723C86.7774 110.746 86.6135 110.759 86.4582 110.759C86.0721 110.759 85.7379 110.684 85.4532 110.535C85.1706 110.384 84.9528 110.168 84.8018 109.888C84.6509 109.608 84.5732 109.273 84.5732 108.887C84.5732 108.508 84.6487 108.178 84.7975 107.895C84.9485 107.615 85.162 107.397 85.4424 107.246C85.7228 107.095 86.0484 107.018 86.4215 107.018C86.9003 107.018 87.2971 107.143 87.612 107.391C87.6638 107.432 87.7004 107.473 87.7198 107.516C87.7414 107.557 87.75 107.609 87.75 107.671C87.75 107.762 87.7242 107.837 87.6746 107.902C87.6249 107.967 87.5646 107.997 87.4955 107.997C87.4503 107.997 87.4093 107.99 87.3748 107.975C87.3381 107.962 87.295 107.938 87.2432 107.908C87.0987 107.818 86.965 107.755 86.8442 107.716C86.7235 107.678 86.5897 107.66 86.4452 107.66C85.7422 107.66 85.3885 108.07 85.3885 108.887C85.3885 109.308 85.479 109.623 85.6624 109.83C85.8457 110.037 86.1217 110.14 86.4905 110.14C86.6911 110.14 86.8895 110.115 87.0858 110.063V109.261H86.6091C86.5099 109.261 86.4323 109.237 86.3762 109.187C86.3202 109.14 86.2943 109.071 86.2943 108.98C86.2943 108.89 86.3223 108.821 86.3762 108.773C86.4301 108.726 86.5099 108.7 86.6091 108.7H87.4934C87.5948 108.698 87.6724 108.724 87.7285 108.777Z"/><path fill="#fff" d="M88.5973 110.613C88.5326 110.548 88.498 110.453 88.498 110.332V107.438C88.498 107.317 88.5304 107.225 88.5973 107.158C88.6641 107.091 88.7568 107.059 88.8776 107.059H90.7108C90.9653 107.059 91.0947 107.162 91.0947 107.369C91.0947 107.581 90.9674 107.684 90.7108 107.684H89.2874V108.538H90.6073C90.8618 108.538 90.9912 108.644 90.9912 108.853C90.9912 109.06 90.8639 109.164 90.6073 109.164H89.2874V110.08H90.7108C90.9653 110.08 91.0947 110.186 91.0947 110.395C91.0947 110.602 90.9674 110.706 90.7108 110.706H88.8776C88.7568 110.71 88.662 110.678 88.5973 110.613Z"/><path fill="#fff" d="M94.6297 107.147C94.7008 107.221 94.7353 107.318 94.7353 107.434V110.337C94.7353 110.458 94.6987 110.555 94.6297 110.63C94.5585 110.704 94.4658 110.742 94.3536 110.742C94.2285 110.742 94.1293 110.697 94.0538 110.609L92.3199 108.387V110.339C92.3199 110.46 92.2854 110.557 92.2185 110.632C92.1516 110.706 92.0611 110.745 91.9468 110.745C91.8325 110.745 91.7419 110.708 91.6729 110.632C91.6038 110.559 91.5693 110.46 91.5693 110.339V107.436C91.5693 107.32 91.6038 107.223 91.675 107.149C91.7462 107.076 91.8389 107.037 91.9511 107.037C92.0783 107.037 92.1775 107.083 92.2465 107.171L93.9805 109.375V107.434C93.9805 107.318 94.015 107.221 94.084 107.147C94.153 107.074 94.2436 107.035 94.3536 107.035C94.4679 107.035 94.5585 107.072 94.6297 107.147Z"/><path fill="#fff" d="M95.5582 110.613C95.4935 110.548 95.459 110.453 95.459 110.332V107.438C95.459 107.317 95.4913 107.225 95.5582 107.158C95.6229 107.093 95.7178 107.059 95.8386 107.059H97.6717C97.9262 107.059 98.0556 107.162 98.0556 107.369C98.0556 107.581 97.9284 107.684 97.6717 107.684H96.2483V108.538H97.5682C97.8227 108.538 97.9521 108.644 97.9521 108.853C97.9521 109.06 97.8249 109.164 97.5682 109.164H96.2483V110.08H97.6717C97.9262 110.08 98.0556 110.186 98.0556 110.395C98.0556 110.602 97.9284 110.706 97.6717 110.706H95.8386C95.7178 110.71 95.6229 110.678 95.5582 110.613Z"/><path fill="#fff" d="M101.599 110.421C101.599 110.518 101.56 110.598 101.483 110.658C101.405 110.721 101.314 110.751 101.211 110.751C101.146 110.751 101.081 110.736 101.019 110.703C100.956 110.673 100.905 110.624 100.864 110.559L100.18 109.545C100.122 109.455 100.059 109.39 99.9945 109.351C99.9298 109.312 99.8456 109.291 99.7464 109.291H99.328V110.337C99.328 110.462 99.2935 110.559 99.2224 110.632C99.1512 110.706 99.0563 110.74 98.9355 110.74C98.8104 110.74 98.7134 110.703 98.6401 110.632C98.5667 110.561 98.5322 110.462 98.5322 110.337V107.438C98.5322 107.317 98.5646 107.225 98.6314 107.158C98.6961 107.093 98.791 107.059 98.9118 107.059H100.21C100.637 107.059 100.961 107.153 101.181 107.341C101.401 107.529 101.508 107.8 101.508 108.156C101.508 108.437 101.431 108.67 101.276 108.855C101.12 109.041 100.9 109.164 100.618 109.222C100.721 109.243 100.814 109.282 100.894 109.343C100.976 109.403 101.053 109.489 101.129 109.603L101.521 110.194C101.573 110.274 101.599 110.348 101.599 110.421ZM100.59 108.56C100.693 108.478 100.745 108.353 100.745 108.18C100.745 108.003 100.693 107.876 100.59 107.796C100.486 107.716 100.318 107.678 100.087 107.678H99.3151V108.683H100.087C100.318 108.68 100.486 108.642 100.59 108.56Z"/><path fill="#fff" d="M105.548 110.384C105.548 110.481 105.509 110.563 105.432 110.63C105.354 110.697 105.265 110.731 105.164 110.731C105.099 110.731 105.037 110.714 104.979 110.677C104.92 110.641 104.875 110.587 104.845 110.514L104.571 109.903H102.815L102.542 110.514C102.511 110.587 102.466 110.641 102.41 110.677C102.354 110.714 102.289 110.731 102.22 110.731C102.121 110.731 102.03 110.697 101.951 110.63C101.871 110.563 101.832 110.481 101.832 110.384C101.832 110.337 101.845 110.281 101.873 110.218L103.271 107.283C103.309 107.201 103.365 107.136 103.441 107.093C103.516 107.05 103.598 107.028 103.685 107.028C103.775 107.028 103.857 107.05 103.933 107.095C104.008 107.14 104.066 107.203 104.109 107.281L105.507 110.216C105.535 110.281 105.548 110.337 105.548 110.384ZM104.295 109.293L103.695 107.947L103.089 109.293H104.295Z"/><path fill="#fff" d="M106.481 110.627C106.408 110.554 106.369 110.459 106.369 110.338V107.72H105.53C105.276 107.72 105.146 107.61 105.146 107.388C105.146 107.17 105.274 107.062 105.53 107.062H108.015C108.269 107.062 108.399 107.17 108.399 107.388C108.399 107.608 108.272 107.72 108.015 107.72H107.176V110.338C107.176 110.459 107.139 110.556 107.068 110.627C106.997 110.699 106.898 110.735 106.773 110.735C106.654 110.735 106.557 110.699 106.481 110.627Z"/><path fill="#fff" d="M108.845 110.613C108.781 110.548 108.746 110.453 108.746 110.332V107.438C108.746 107.317 108.778 107.225 108.845 107.158C108.912 107.091 109.005 107.059 109.126 107.059H110.959C111.213 107.059 111.343 107.162 111.343 107.369C111.343 107.581 111.215 107.684 110.959 107.684H109.535V108.538H110.855C111.11 108.538 111.239 108.644 111.239 108.853C111.239 109.06 111.112 109.164 110.855 109.164H109.535V110.08H110.959C111.213 110.08 111.343 110.186 111.343 110.395C111.343 110.602 111.215 110.706 110.959 110.706H109.126C109.003 110.71 108.91 110.678 108.845 110.613Z"/><path fill="#6D53A7" d="M96.9506 54.8164H75.3213V55.884H96.9506V54.8164Z"/><path fill="#6D53A7" d="M96.9506 58.8281H75.3213V59.8957H96.9506V58.8281Z"/><path fill="#6D53A7" d="M121.585 54.8164H99.9561V55.884H121.585V54.8164Z"/><path fill="#6D53A7" d="M121.585 58.8281H99.9561V59.8957H121.585V58.8281Z"/><path fill="#6D53A7" d="M96.9506 62.667H75.3213V63.7345H96.9506V62.667Z"/><path fill="#6D53A7" d="M96.9506 66.6777H75.3213V67.7453H96.9506V66.6777Z"/><path fill="#6D53A7" d="M121.585 62.667H99.9561V63.7345H121.585V62.667Z"/><path fill="#6D53A7" d="M121.585 66.6777H99.9561V67.7453H121.585V66.6777Z"/><path fill="#B78876" d="M79.3745 128.957C78.3069 128.453 77.2631 127.907 76.2451 127.32H78.7684C78.9949 127.883 79.1955 128.429 79.3745 128.957Z"/><path fill="#B78876" d="M89.2139 142.783C86.8135 145.848 84.0077 148.574 80.874 150.886C77.7964 153.148 73.0043 154.468 72.8555 154.507C72.9331 154.395 74.2099 152.592 76.2156 149.333C78.0746 146.31 79.6965 143.351 80.0049 142.781H89.0198L89.2139 142.783Z"/><path fill="#EB996E" d="M89.2139 142.784C86.8135 145.849 84.0077 148.575 80.874 150.887C77.7964 153.149 73.0043 154.469 72.8555 154.508C72.9331 154.396 74.2099 152.593 76.2156 149.334C78.0746 146.31 79.6965 143.351 80.0049 142.782C80.0415 142.717 80.0588 142.683 80.0588 142.683L89.0198 142.782L89.2139 142.784Z"/><path fill="#6D53A7" d="M126.303 2.63762L127.746 0L129.188 2.63762C130.631 5.27524 132.799 7.44271 135.436 8.88553L138.074 10.3283L135.436 11.7712C132.799 13.214 130.631 15.3836 129.188 18.0212L127.746 20.6588L126.303 18.0212C124.86 15.3836 122.692 13.214 120.053 11.7712L117.415 10.3283L120.053 8.88553C122.692 7.44271 124.86 5.27524 126.303 2.63762Z"/><path fill="#6D53A7" d="M100.036 12.1916L100.649 11.0723L101.261 12.1916C101.874 13.3109 102.793 14.2296 103.912 14.8421L105.031 15.4546L103.912 16.0671C102.793 16.6796 101.874 17.5984 101.261 18.7177L100.649 19.837L100.036 18.7177C99.424 17.5984 98.5052 16.6796 97.3859 16.0671L96.2666 15.4546L97.3859 14.8421C98.5031 14.2296 99.424 13.3087 100.036 12.1916Z"/><path fill="#6D53A7" d="M138.288 42.6051L138.57 42.0918L138.853 42.6051C139.135 43.1205 139.558 43.5432 140.073 43.8236L140.587 44.1061L140.073 44.3887C139.558 44.6712 139.135 45.0939 138.853 45.6093L138.57 46.1226L138.288 45.6093C138.005 45.0939 137.582 44.6712 137.067 44.3887L136.554 44.1061L137.067 43.8236C137.582 43.5432 138.005 43.1205 138.288 42.6051Z"/><path fill="#6D53A7" d="M141.655 22.1366L142.169 21.1963L142.682 22.1366C143.195 23.0748 143.967 23.8469 144.908 24.3623L145.846 24.8756L144.908 25.3889C143.969 25.9022 143.195 26.6743 142.682 27.6146L142.169 28.5549L141.655 27.6146C141.142 26.6764 140.37 25.9043 139.43 25.3889L138.489 24.8756L139.43 24.3623C140.37 23.8469 141.142 23.0748 141.655 22.1366Z"/><path fill="#474A51" d="M86.7863 74.8299H84.6533V74.0557H89.8013V74.8299H87.6684V80.282H86.7884L86.7863 74.8299Z"/><path fill="#474A51" d="M90.1729 77.1687C90.1729 75.3463 91.579 73.9854 93.4898 73.9854C95.2475 73.9229 96.7227 75.2989 96.7852 77.0566C96.8478 78.8143 95.4718 80.2894 93.7141 80.352C93.6386 80.3541 93.5653 80.3541 93.4898 80.352C91.579 80.352 90.1729 78.9911 90.1729 77.1687ZM95.8988 77.1687C95.9139 75.8337 94.8442 74.7381 93.5071 74.723C92.1721 74.7079 91.0765 75.7776 91.0614 77.1148C91.0463 78.4498 92.116 79.5454 93.4532 79.5605C93.4661 79.5605 93.4769 79.5605 93.4898 79.5605C94.7795 79.6014 95.86 78.5878 95.8988 77.296C95.901 77.2528 95.901 77.2097 95.8988 77.1687Z"/><path fill="#474A51" d="M99.2941 74.8289H97.1611V74.0547H102.309V74.8289H100.176V80.281H99.2962L99.2941 74.8289Z"/><path fill="#474A51" d="M106.935 78.7237H103.627L102.943 80.2808H102.026L104.845 74.0566H105.725L108.552 80.2808H107.619L106.935 78.7237ZM106.622 78.012L105.279 74.9624L103.935 78.012H106.622Z"/><path fill="#474A51" d="M109.475 74.0566H110.365V79.5087H113.736V80.283H109.477V74.0566H109.475Z"/><path fill="#474A51" d="M87.4857 85.6562V91.8114H86.3405V86.6138H85.04V85.6562H87.4857Z"/><path fill="#474A51" d="M88.7051 88.7314C88.7051 86.7085 89.8115 85.5654 91.2737 85.5654C92.7424 85.5654 93.8509 86.7085 93.8509 88.7314C93.8509 90.7544 92.7424 91.8974 91.2737 91.8974C89.8136 91.8974 88.7051 90.7544 88.7051 88.7314ZM92.6971 88.7314C92.6971 87.2455 92.1169 86.5575 91.2758 86.5575C90.4412 86.5575 89.8589 87.2433 89.8589 88.7314C89.8589 90.2195 90.4412 90.9054 91.2758 90.9054C92.1191 90.9054 92.6971 90.2195 92.6971 88.7314Z"/><path fill="#474A51" d="M94.5869 88.7314C94.5869 86.7085 95.6933 85.5654 97.1555 85.5654C98.6242 85.5654 99.7328 86.7085 99.7328 88.7314C99.7328 90.7544 98.6264 91.8974 97.1555 91.8974C95.6954 91.8974 94.5869 90.7544 94.5869 88.7314ZM98.5768 88.7314C98.5768 87.2455 97.9966 86.5575 97.1555 86.5575C96.3209 86.5575 95.7386 87.2433 95.7386 88.7314C95.7386 90.2195 96.3209 90.9054 97.1555 90.9054C97.9966 90.9054 98.5789 90.2195 98.5768 88.7314Z"/><path fill="#474A51" d="M100.885 91.1426C100.883 90.7436 101.206 90.4201 101.603 90.418C102.002 90.4158 102.325 90.7393 102.328 91.1362C102.328 91.1383 102.328 91.1405 102.328 91.1405C102.33 91.5394 102.006 91.863 101.609 91.8651C101.21 91.8673 100.887 91.5438 100.885 91.1469C100.885 91.1448 100.885 91.1426 100.885 91.1426Z"/><path fill="#474A51" d="M102.961 88.7314C102.961 86.7085 104.067 85.5654 105.53 85.5654C106.998 85.5654 108.107 86.7085 108.107 88.7314C108.107 90.7544 106.998 91.8974 105.53 91.8974C104.067 91.8974 102.961 90.7544 102.961 88.7314ZM106.951 88.7314C106.951 87.2455 106.371 86.5575 105.53 86.5575C104.695 86.5575 104.113 87.2433 104.113 88.7314C104.113 90.2195 104.695 90.9054 105.53 90.9054C106.371 90.9054 106.951 90.2195 106.951 88.7314Z"/><path fill="#474A51" d="M113.352 89.9202C113.352 91.0029 112.569 91.8979 110.915 91.8979C110.086 91.9151 109.278 91.6671 108.603 91.1862L109.086 90.2976C109.603 90.6966 110.242 90.9123 110.897 90.9037C111.715 90.9037 112.202 90.5435 112.202 89.9633C112.202 89.3746 111.825 89.0036 110.548 89.0036H109.062L109.379 85.6543H112.994V86.6119H110.347L110.214 88.0374H110.802C112.62 88.0374 113.352 88.8289 113.352 89.9202Z"/><mask id="mask0" width="247" height="185" x="0" y="9" mask-type="alpha" maskUnits="userSpaceOnUse"><path fill="#D6DCFD" d="M235.927 165.346C231.643 173.86 226.738 178.945 221.414 181.601C213.234 185.718 204.046 184.137 194.547 180.58C194.256 180.483 193.978 180.376 193.687 180.269C192.399 179.766 191.101 179.238 189.791 178.678C174.883 172.324 159.491 162.757 146.179 164.048C140.092 164.639 133.46 167.164 126.344 170.498C119.978 173.486 113.205 177.131 106.089 180.625C104.823 181.248 103.545 181.862 102.256 182.475C98.9729 184.022 95.6124 185.506 92.1767 186.862C72.932 194.452 51.4942 197.806 28.4523 183.68C12.3725 173.822 -19.8937 117.823 17.0094 62.4914C58.0139 0.987813 167.508 1.95539 199.195 19.4351C255.28 50.3699 253.713 130.008 235.927 165.346Z"/></mask><g mask="url(#mask0)"><path fill="#263238" d="M224.7 129.549C225.252 130.097 225.699 130.744 226.016 131.455C228.897 136.593 230.06 148.907 219.201 159.891C205.165 174.091 188.731 197.316 188.731 197.316L175.828 251.865L156.338 247.644L166.382 190.943L193.925 139.853L224.7 129.549Z"/><path fill="#263238" d="M246.205 235.129L216.18 189.179L207.07 149.518L183.879 160.913L195.51 201.172L232.618 247.396L246.205 235.129Z"/><path fill="#455A64" d="M175.823 251.871C175.83 251.781 175.845 251.69 175.869 251.602C175.91 251.41 175.966 251.151 176.035 250.819C176.194 250.116 176.421 249.108 176.71 247.821L179.257 236.809L187.791 200.506C188.052 199.401 188.313 198.304 188.554 197.281L188.563 197.242L188.586 197.212C197.097 186.33 204.846 176.698 210.55 169.859C213.406 166.441 215.739 163.713 217.393 161.869C218.208 160.937 218.873 160.24 219.313 159.762L219.82 159.225C219.876 159.16 219.936 159.102 220.001 159.05C219.953 159.121 219.902 159.186 219.845 159.248L219.362 159.809C218.937 160.303 218.29 161.01 217.492 161.957C215.871 163.827 213.567 166.579 210.738 170.014C205.083 176.892 197.368 186.547 188.865 197.43L188.897 197.361C188.656 198.383 188.395 199.481 188.134 200.585C184.765 214.746 181.713 227.563 179.498 236.865C178.379 241.491 177.473 245.239 176.841 247.853C176.524 249.134 176.276 250.135 176.101 250.836L175.901 251.61C175.886 251.701 175.858 251.789 175.823 251.871Z"/><path fill="#455A64" d="M211.037 144.055C210.896 144.169 210.737 144.257 210.564 144.313C210.114 144.505 209.648 144.656 209.169 144.764C205.934 145.508 202.544 144.523 200.214 142.157C199.869 141.809 199.557 141.432 199.278 141.027C199.164 140.886 199.076 140.727 199.02 140.554C199.069 140.518 199.496 141.154 200.387 141.976C202.729 144.16 205.968 145.103 209.119 144.518C210.314 144.305 211.015 143.996 211.037 144.055Z"/></g><path fill="#263238" d="M213.759 15.4651C215.04 12.7132 217.744 10.9016 220.777 10.7614C223.811 10.701 226.628 12.3271 228.09 14.9863C228.918 16.5435 229.244 18.3982 230.441 19.6965C232.037 21.3227 234.575 21.5599 236.445 20.2573C236.883 22.2328 235.802 24.2277 233.909 24.9416L236.842 25.2435C235.259 28.6964 230.922 30.2794 227.178 29.6043C223.434 28.9293 220.242 26.4491 217.69 23.6303"/><path fill="#263238" d="M213.781 15.5115L222.83 18.4747C226.05 20.5689 228.498 23.6572 229.801 27.2697C230.223 28.4904 230.512 29.7606 231.047 30.9382C231.53 32.1524 232.436 33.1509 233.596 33.7505C234.466 34.1387 235.451 34.184 236.344 34.514C237.867 35.1178 238.999 36.4226 239.381 38.0164C239.734 39.6037 239.439 41.2687 238.559 42.636C238.035 43.2507 237.679 43.9904 237.522 44.7819C237.556 45.3254 237.668 45.8624 237.852 46.3736C238.259 48.2326 237.45 50.1456 235.833 51.1484C234.174 52.0888 232.106 51.886 230.661 50.6438C230.083 51.9723 229.313 53.3418 228.002 53.9651C226.691 54.5905 224.756 54.0276 224.484 52.6042C223.779 53.9953 222.252 54.7695 220.712 54.5107C219.185 54.1894 218.047 52.9104 217.904 51.3555L193.103 24.3064C196.806 14.4094 211.281 15.285 213.781 15.5115Z"/><path fill="#FFBE9D" d="M217.978 24.9199C219.572 25.086 220.775 26.4447 220.745 28.0471L218.992 69.7034C218.925 74.6228 209.977 80.4394 204.695 80.3294C199.359 80.2172 200.929 74.5732 200.854 69.8932C200.724 62.0709 200.729 59.14 200.724 59.1853C200.724 59.1853 193.987 58.0681 192.589 49.3012C191.895 44.9404 192.115 37.791 192.484 31.9442C192.816 26.6819 196.312 20.2291 201.566 20.7834L217.978 24.9199Z"/><path fill="#263238" d="M194.769 37.6218C194.764 38.2322 195.245 38.7347 195.856 38.7562C196.449 38.8037 196.968 38.3616 197.016 37.7685C197.016 37.7599 197.018 37.7512 197.018 37.7426C197.022 37.1323 196.541 36.6298 195.931 36.606C195.338 36.5586 194.816 37.0007 194.769 37.5959C194.771 37.6046 194.769 37.6132 194.769 37.6218Z"/><path fill="#263238" d="M194.042 35.6634C194.182 35.81 195.036 35.1803 196.25 35.1824C197.462 35.1695 198.353 35.7906 198.484 35.644C198.549 35.5771 198.407 35.314 198.018 35.0315C197.492 34.6691 196.869 34.4772 196.231 34.4815C195.601 34.4794 194.986 34.6778 194.477 35.0466C194.1 35.3334 193.975 35.6008 194.042 35.6634Z"/><path fill="#263238" d="M206.631 37.623C206.627 38.2333 207.108 38.7358 207.718 38.7574C208.311 38.8049 208.831 38.3627 208.878 37.7675C208.878 37.7589 208.88 37.7502 208.88 37.7416C208.885 37.1313 208.404 36.6288 207.793 36.605C207.2 36.5576 206.68 37.0019 206.633 37.595C206.633 37.6057 206.633 37.6144 206.631 37.623Z"/><path fill="#263238" d="M205.969 35.8921C206.109 36.0388 206.963 35.409 208.177 35.4112C209.389 35.3961 210.28 36.0193 210.412 35.8705C210.476 35.8037 210.338 35.5406 209.946 35.258C209.422 34.8957 208.796 34.7038 208.158 34.7081C207.528 34.7059 206.914 34.9043 206.405 35.2731C206.029 35.56 205.9 35.8252 205.969 35.8921Z"/><path fill="#263238" d="M201.565 44.8656C200.924 44.665 200.262 44.5464 199.591 44.5097C199.281 44.4774 198.988 44.417 198.934 44.2056C198.908 43.8865 198.979 43.5673 199.141 43.2891L200.057 40.9361C201.33 37.5868 202.251 34.8306 202.115 34.781C201.979 34.7313 200.838 37.4056 199.566 40.755C199.259 41.581 198.968 42.3703 198.688 43.1208C198.494 43.4939 198.436 43.9231 198.526 44.3329C198.617 44.555 198.806 44.7211 199.037 44.7836C199.21 44.8311 199.387 44.8548 199.563 44.857C200.228 44.9475 200.901 44.9497 201.565 44.8656Z"/><path fill="#EB996E" d="M200.726 59.1864C204.864 59.2489 208.94 58.1641 212.501 56.0527C212.501 56.0527 209.643 62.0763 200.846 61.2568L200.726 59.1864Z"/><path fill="#EB996E" d="M202.077 47.7817C202.547 47.1929 203.287 46.8867 204.037 46.9708C204.579 47.0182 205.075 47.2856 205.415 47.7083C205.748 48.1203 205.786 48.6983 205.513 49.1512C205.114 49.5954 204.484 49.755 203.921 49.5523C203.347 49.3496 202.821 49.0369 202.37 48.6292C202.232 48.5322 202.116 48.4114 202.023 48.2712C201.932 48.1354 201.932 47.9564 202.023 47.8205"/><path fill="#263238" d="M205.135 45.7022C204.937 45.6914 204.934 47.0048 203.809 47.9365C202.681 48.8682 201.279 48.7237 201.27 48.907C201.253 48.989 201.583 49.1615 202.176 49.1788C202.948 49.1896 203.699 48.9286 204.296 48.4412C204.87 47.9732 205.238 47.3025 205.325 46.567C205.372 46.0192 205.226 45.6979 205.135 45.7022Z"/><path fill="#263238" d="M205.426 33.7752C205.544 34.1052 206.757 33.9477 208.18 34.1203C209.608 34.2669 210.755 34.6788 210.945 34.3834C211.029 34.2432 210.828 33.9326 210.365 33.6134C209.748 33.2166 209.047 32.9707 208.318 32.8996C207.589 32.8112 206.851 32.8996 206.161 33.1519C205.635 33.3568 205.372 33.6156 205.426 33.7752Z"/><path fill="#263238" d="M194.488 32.163C194.701 32.4369 195.536 32.1522 196.541 32.1393C197.546 32.0897 198.398 32.3226 198.592 32.0358C198.678 31.8956 198.544 31.6195 198.171 31.3607C197.675 31.0415 197.091 30.8841 196.502 30.91C195.911 30.9208 195.34 31.1127 194.863 31.4621C194.509 31.7446 194.393 32.0271 194.488 32.163Z"/><path fill="#FFBE9D" d="M219.772 38.9478C220.499 38.551 221.388 38.5963 222.071 39.0621C223.713 40.0628 224.463 42.0513 223.892 43.8866C223.225 45.6918 221.418 46.8132 219.505 46.6127"/><path fill="#263238" d="M205.952 17.8645C202.747 17.9702 200.317 18.9429 197.504 20.4763C194.625 21.9622 192.456 24.5352 191.474 27.6235C191.224 28.2641 191.252 28.9779 191.548 29.5969C192.124 30.3258 193.135 30.5415 193.959 30.1166C194.748 29.681 195.419 29.062 195.919 28.3137C196.389 29.9635 197.886 31.1066 199.601 31.126C201.313 31.0677 202.786 29.8902 203.218 28.2317C203.362 29.9786 204.854 31.305 206.606 31.2467C208.329 31.0979 209.798 29.9398 210.348 28.3007C210.557 29.8212 211.085 31.2791 211.894 32.5817C212.791 33.824 214.417 34.6737 215.875 34.1992C215.558 35.4889 215.577 36.8412 215.933 38.1201C216.399 39.3623 217.777 40.363 219.032 39.9339C220.251 39.5155 220.723 38.077 221.006 36.8261C221.631 34.4257 221.948 31.9563 221.948 29.4761C221.942 26.9787 221.148 24.5481 219.682 22.5273C218.021 20.541 215.759 19.1499 213.237 18.5655C210.729 17.9896 208.156 17.7567 205.586 17.871"/><path fill="#EB996E" d="M220.387 43.9956C220.413 43.933 220.728 44.0689 221.153 43.8748C221.681 43.5707 221.977 42.9819 221.908 42.3781C221.901 41.7656 221.535 41.2135 220.97 40.9719C220.532 40.7929 220.204 40.8792 220.187 40.8123C220.154 40.7692 220.484 40.5363 221.065 40.6657C221.401 40.7476 221.701 40.9352 221.923 41.2005C222.19 41.5283 222.343 41.9316 222.361 42.3543C222.453 43.1415 222.003 43.8942 221.265 44.1811C220.661 44.3363 220.34 44.0322 220.387 43.9956Z"/><path fill="#E8505B" d="M220.65 47.6806C221.283 47.6806 221.795 47.1689 221.795 46.5376C221.795 45.9063 221.283 45.3945 220.65 45.3945C220.018 45.3945 219.505 45.9063 219.505 46.5376C219.505 47.1689 220.018 47.6806 220.65 47.6806Z"/><path fill="#E8505B" d="M213.898 15.0689C214.358 14.9137 214.843 14.8576 215.326 14.905C216.499 14.959 217.642 15.2932 218.658 15.8799C219.676 16.4643 220.541 17.2839 221.175 18.2738C221.458 18.6663 221.654 19.1149 221.749 19.5893C221.693 19.6152 221.479 19.1106 220.972 18.4096C220.308 17.5017 219.461 16.7425 218.488 16.1796C217.511 15.6211 216.43 15.2695 215.311 15.1487C214.448 15.0646 213.905 15.1293 213.898 15.0689Z"/><path fill="#455A64" d="M218.493 15.0729C218.467 14.9823 218.457 14.8895 218.461 14.7968C218.465 14.5294 218.523 14.2641 218.629 14.0161C219.067 13.106 219.908 12.4547 220.9 12.2627C222.155 11.922 223.743 12.5646 224.847 13.7767C225.427 14.4129 225.908 15.1311 226.277 15.9097C226.667 16.7076 226.984 17.566 227.323 18.4287C227.631 19.2698 228.006 20.085 228.448 20.8657C228.867 21.5774 229.408 22.2093 230.047 22.7312C230.616 23.2035 231.302 23.5163 232.033 23.637C232.669 23.7298 233.32 23.6392 233.907 23.3761C234.77 22.9879 235.471 22.3064 235.88 21.4545C236.008 21.1288 236.115 20.7967 236.204 20.4603C236.217 20.553 236.217 20.6457 236.2 20.7363C236.167 20.9994 236.1 21.2604 236.005 21.5084C235.622 22.4293 234.908 23.1734 234.006 23.6004C233.381 23.9002 232.68 24.0123 231.992 23.9217C231.207 23.8074 230.465 23.4839 229.848 22.9836C229.171 22.4444 228.599 21.7866 228.157 21.0426C227.702 20.2489 227.314 19.4164 226.999 18.5581C226.341 16.8219 225.703 15.157 224.612 13.9967C223.566 12.8278 222.114 12.2196 220.952 12.5064C220.018 12.6682 219.209 13.2483 218.754 14.0808C218.614 14.3914 218.528 14.7299 218.493 15.0729Z"/><path fill="#455A64" d="M201.93 28.6161C201.919 28.6161 201.898 28.5342 201.874 28.3746C201.833 28.1417 201.807 27.9066 201.794 27.6715C201.736 26.8002 201.79 25.9268 201.956 25.0706C202.2 23.7938 202.653 22.5667 203.3 21.4409C204.095 20.0563 205.18 18.8593 206.481 17.9319C207.788 17.0218 209.252 16.3619 210.8 15.9845C212.056 15.6588 213.354 15.5251 214.648 15.5919C215.519 15.6286 216.384 15.7861 217.212 16.06C217.437 16.1311 217.657 16.2195 217.87 16.3209C218.017 16.3878 218.09 16.4287 218.09 16.4395C216.971 16.0901 215.81 15.8874 214.639 15.8378C213.371 15.8076 212.105 15.9629 210.88 16.295C209.377 16.6789 207.956 17.3302 206.681 18.2166C205.42 19.116 204.363 20.2719 203.576 21.6048C202.933 22.6961 202.467 23.8844 202.195 25.1223C201.98 26.2718 201.891 27.4429 201.93 28.6161Z"/><path fill="#455A64" d="M207.47 28.0225C207.429 27.7982 207.42 27.5675 207.446 27.3389C207.474 26.7177 207.561 26.0988 207.701 25.4949C208.164 23.4741 209.146 21.6107 210.552 20.0859C211.967 18.5719 213.752 17.4526 215.73 16.838C216.323 16.6525 216.934 16.5188 217.55 16.4433C217.775 16.4002 218.005 16.3894 218.232 16.4153C218.243 16.48 217.27 16.5619 215.806 17.0731C213.901 17.7395 212.185 18.8545 210.802 20.3232C209.439 21.8091 208.453 23.6035 207.934 25.5531C207.539 27.052 207.535 28.029 207.47 28.0225Z"/><path fill="#E8505B" d="M205.953 79.8201C204.034 73.9366 199.341 67.9454 194.184 70.1064C188.443 72.5132 186.847 75.5606 183.701 80.2859C180.554 85.0112 178.626 90.418 176.726 95.7644C175.982 97.8564 175.264 100.28 176.404 102.187C177.388 103.83 179.411 104.48 181.263 104.973C186.045 106.246 190.869 107.333 195.737 108.239C197.689 108.603 199.83 108.905 201.556 107.926C203.749 106.684 204.415 103.899 204.871 101.426L209.678 75.3838"/><path fill="#E8505B" d="M200.432 67.2819L192.879 70.5385C189.062 73.5449 187.981 78.6907 188.113 83.5411L184.971 136.708C184.971 136.708 206.997 150.323 232.737 136.084C233.408 135.713 228.424 123.554 228.424 123.554L235.435 97.0052C235.974 93.1879 236.306 85.2729 235.31 81.516C232.752 71.8799 225.922 68.9986 218.904 67.0684C218.904 67.0684 211.882 72.9583 205.032 71.7182C205.036 71.7203 200.857 71.3321 200.432 67.2819Z"/><g opacity=".2"><g opacity=".2"><g opacity=".2"><path fill="#000" d="M190.288 111.552L203.36 130.494C205.064 132.964 206.834 135.498 209.362 137.113C213.162 139.46 217.971 139.41 221.722 136.986C225.395 134.448 227.282 130.022 226.568 125.616C226.514 125.098 226.311 124.609 225.988 124.203C225.379 123.66 224.521 123.496 223.755 123.776C223.009 124.061 222.293 124.417 221.618 124.844C217.514 127.022 212.303 125.851 208.452 123.252C204.6 120.653 201.777 116.838 198.829 113.247C197.737 111.919 196.549 110.558 194.934 109.967C193.32 109.374 191.181 109.859 190.497 111.436" opacity=".2"/></g></g></g><path fill="#fff" d="M212.301 85.501C214.793 85.501 216.813 83.4858 216.813 81C216.813 78.5142 214.793 76.499 212.301 76.499C209.809 76.499 207.789 78.5142 207.789 81C207.789 83.4858 209.809 85.501 212.301 85.501Z"/><path fill="#fff" d="M191.27 77.158C191.272 79.6468 193.293 81.6612 195.781 81.659C198.27 81.6612 200.291 79.6468 200.293 77.158C200.289 74.6692 198.27 72.6549 195.781 72.6592C193.295 72.6549 191.274 74.6692 191.27 77.158Z"/><path fill="#fff" d="M187.63 120.254C187.634 122.743 189.653 124.757 192.142 124.753C194.63 124.755 196.651 122.741 196.653 120.254C196.651 117.765 194.63 115.751 192.142 115.753C189.653 115.751 187.634 117.765 187.63 120.254Z"/><path fill="#fff" d="M200.296 137.712C202.788 137.712 204.808 135.697 204.808 133.211C204.808 130.725 202.788 128.71 200.296 128.71C197.804 128.71 195.784 130.725 195.784 133.211C195.784 135.697 197.804 137.712 200.296 137.712Z"/><path fill="#fff" d="M221.326 138.804C223.818 138.804 225.838 136.789 225.838 134.303C225.838 131.817 223.818 129.802 221.326 129.802C218.834 129.802 216.814 131.817 216.814 134.303C216.814 136.789 218.834 138.804 221.326 138.804Z"/><path fill="#fff" d="M203.508 111.095C206 111.095 208.02 109.08 208.02 106.594C208.02 104.108 206 102.093 203.508 102.093C201.016 102.093 198.996 104.108 198.996 106.594C198.996 109.08 201.016 111.095 203.508 111.095Z"/><path fill="#fff" d="M198.995 96.9034C201.487 96.9034 203.507 94.8882 203.507 92.4024C203.507 89.9165 201.487 87.9014 198.995 87.9014C196.503 87.9014 194.483 89.9165 194.483 92.4024C194.483 94.8882 196.503 96.9034 198.995 96.9034Z"/><path fill="#263238" d="M198.995 68.377C199.599 69.4596 200.386 70.428 201.32 71.2389C202.355 72.0886 203.544 72.7335 204.818 73.1389C206.378 73.6393 208.027 73.8075 209.656 73.6307C211.286 73.4236 212.869 72.9448 214.338 72.2116C215.544 71.6163 216.684 70.896 217.739 70.0635C218.455 69.5049 219.143 68.9097 219.801 68.2799C220.029 68.0341 220.277 67.8076 220.543 67.6006C220.355 67.8788 220.137 68.1376 219.896 68.3727C219.27 69.0434 218.602 69.671 217.892 70.2511C216.842 71.1224 215.697 71.8751 214.478 72.4941C212.981 73.2597 211.362 73.7601 209.695 73.9693C208.017 74.1526 206.319 73.9693 204.717 73.4366C203.41 73.0074 202.2 72.3216 201.158 71.4222C200.458 70.8184 199.862 70.098 199.405 69.2936C199.28 69.0779 199.17 68.8515 199.077 68.6207C199.015 68.4697 198.985 68.3813 198.995 68.377Z"/><path fill="#E8505B" d="M221.733 68.0703C226.894 70.2292 232.26 72.5368 235.827 76.8415C239.448 81.2131 240.71 87.1548 240.447 92.8204C240.184 98.486 238.534 103.986 236.897 109.418C236.256 111.543 235.396 113.924 233.347 114.786C231.581 115.532 229.564 114.864 227.776 114.167C223.168 112.373 218.63 110.406 214.166 108.264C212.378 107.406 210.471 106.388 209.658 104.583C208.627 102.288 209.74 99.6484 210.838 97.3839L222.4 73.5461"/><path fill="#fff" d="M232.739 100.066C235.231 100.066 237.251 98.0513 237.251 95.5654C237.251 93.0796 235.231 91.0645 232.739 91.0645C230.248 91.0645 228.228 93.0796 228.228 95.5654C228.228 98.0513 230.248 100.066 232.739 100.066Z"/><path fill="#fff" d="M220.79 108.293C223.282 108.293 225.302 106.278 225.302 103.792C225.302 101.306 223.282 99.291 220.79 99.291C218.298 99.291 216.278 101.306 216.278 103.792C216.278 106.278 218.298 108.293 220.79 108.293Z"/><path fill="#fff" d="M221.985 81.7009C221.988 84.1422 223.969 86.1177 226.409 86.1134C228.848 86.1156 230.83 84.1422 230.832 81.7009C230.832 81.7009 230.832 81.7009 230.832 81.6987C230.83 79.2595 228.85 77.2818 226.409 77.2861C226.409 77.2861 226.409 77.2861 226.407 77.2861C223.969 77.284 221.988 79.2595 221.985 81.7009Z"/><path fill="#FFBE9D" d="M212.815 107.568L211.663 111.998L188.736 95.288L181.718 85.309C180.778 83.9741 179.356 83.0532 177.754 82.7404C176.052 82.4083 174.288 82.7879 172.873 83.7907L166.341 88.4255C166.341 88.4255 166.518 91.943 168.105 91.2399C169.692 90.5368 172.867 88.777 172.867 88.777L173.749 97.2204L177.629 100.035L181.509 103.026L207.395 128.725C211.929 133.222 219.249 133.192 223.745 128.658C224.601 127.796 225.317 126.801 225.863 125.714L229.7 114.823L212.815 107.568Z"/><path fill="#EB996E" d="M211.087 111.367C211.46 111.462 211.796 111.669 212.049 111.96C212.704 112.614 213.17 113.435 213.39 114.335C213.604 115.219 213.688 116.131 213.638 117.039C213.657 117.415 213.612 117.79 213.504 118.152C213.416 117.79 213.377 117.417 213.392 117.041C213.368 116.159 213.254 115.284 213.054 114.425C212.842 113.58 212.437 112.795 211.872 112.133C211.43 111.63 211.056 111.417 211.087 111.367Z"/><path fill="#EB996E" d="M172.826 89.2165C172.79 89.1928 172.9 88.9232 173.169 88.5329C173.521 88.0002 174.03 87.5882 174.625 87.3575C175.261 87.1375 175.964 87.2734 176.473 87.7133C176.851 88.0735 176.838 88.4294 176.801 88.425C176.745 88.4444 176.667 88.1511 176.318 87.901C175.852 87.5882 175.27 87.5063 174.737 87.681C174.204 87.8988 173.73 88.2417 173.359 88.6838C173.053 89.0224 172.867 89.2446 172.826 89.2165Z"/><path fill="#EB996E" d="M176.931 91.4704C176.892 91.5049 176.72 91.3475 176.403 91.1728C176.002 90.9464 175.549 90.8234 175.087 90.8191C174.626 90.8277 174.173 90.9528 173.772 91.1836C173.459 91.3604 173.286 91.52 173.247 91.4855C173.209 91.451 173.325 91.2332 173.636 90.9809C174.05 90.653 174.561 90.4719 175.087 90.4697C175.613 90.4697 176.127 90.6444 176.543 90.9679C176.851 91.2159 176.963 91.4445 176.931 91.4704Z"/><path fill="#263238" d="M212.815 107.567C212.664 107.559 212.515 107.522 212.377 107.462C211.968 107.298 211.607 107.028 211.338 106.677C210.913 106.12 210.652 105.458 210.583 104.764C210.521 103.843 210.689 102.922 211.07 102.083C211.448 101.14 212.013 100.194 212.494 99.1325C213.007 97.9981 213.447 96.8314 213.809 95.6387C214.594 93.1219 215.162 90.2707 215.955 87.3139C216.63 84.5016 217.761 81.8165 219.305 79.3709C220.601 77.3716 222.423 75.7692 224.573 74.7405C226.016 74.0417 227.612 73.7182 229.215 73.798C229.797 73.8239 230.375 73.9339 230.925 74.1237C230.916 74.1668 230.319 73.9727 229.208 73.9339C227.636 73.9037 226.081 74.2574 224.677 74.9605C222.589 75.9978 220.823 77.5851 219.568 79.5499C218.06 81.9761 216.954 84.6289 216.287 87.4067C215.498 90.3462 214.922 93.2038 214.114 95.7401C213.74 96.9413 213.288 98.1189 212.757 99.2598C212.257 100.336 211.681 101.27 211.301 102.184C210.922 102.984 210.743 103.866 210.781 104.753C210.833 105.419 211.064 106.058 211.45 106.603C211.696 106.948 212.024 107.224 212.405 107.408C212.664 107.522 212.82 107.546 212.815 107.567Z"/><path fill="#263238" d="M187.369 93.1608C187.442 91.2349 187.632 89.3133 187.936 87.4089C188.126 85.4895 188.428 83.583 188.844 81.7002C188.771 83.6283 188.581 85.5477 188.277 87.4521C188.087 89.3715 187.785 91.278 187.369 93.1608Z"/><path fill="#FFBE9D" d="M177.059 103.015L175.841 112.595L161.234 100.145L153.243 102.073C153.243 102.073 161.482 119.371 167.988 126.223C174.495 133.075 178.002 134.05 180.463 134.155C183.838 134.302 185.382 130.191 185.382 130.191L186.853 106.382L177.059 103.015Z"/><path fill="#EB996E" d="M175.897 112.339C176.398 113.057 176.749 113.868 176.928 114.726C177.215 115.552 177.332 116.43 177.269 117.304C176.993 116.49 176.767 115.66 176.594 114.819C176.309 114.006 176.076 113.18 175.897 112.339Z"/><path fill="#455A64" d="M159.82 75.8623H148.823C147.16 75.8623 145.674 77.7904 146.271 79.3669L157.331 100.906C157.76 101.74 158.618 102.267 159.559 102.264L172.965 102.236C174.017 102.118 174.774 101.167 174.656 100.112C174.627 99.8618 174.55 99.6181 174.427 99.3982L163.756 78.3101C163.016 76.8134 161.491 75.8623 159.82 75.8623Z"/><path fill="#263238" d="M159.076 77.1572H148.079C147.063 77.1551 146.237 77.9789 146.237 78.9947C146.237 79.2859 146.306 79.5749 146.438 79.8337L157.234 100.904C157.663 101.739 158.522 102.265 159.462 102.263H172.715C173.312 102.265 173.798 101.782 173.8 101.185C173.8 101.014 173.761 100.846 173.683 100.695L163.012 79.6072C162.274 78.1083 160.747 77.1572 159.076 77.1572Z"/><path fill="#FFBE9D" d="M158.145 85.9795L151.453 88.6538L150.019 94.0455L153.243 102.073L165.068 103.794L161.602 100.255L162.049 97.1727C162.049 97.1727 165.348 96.1375 165.43 95.6328C165.512 95.1281 165.02 93.4351 164.514 93.3532C164.007 93.2712 160.547 94.5609 160.547 94.5609C160.547 94.5609 164.641 91.3173 164.529 90.7975C164.417 90.2778 163.974 88.9449 163.157 88.7983C162.34 88.6516 155.732 91.7659 155.732 91.7659L154.658 94.2115L153.722 90.2993C153.722 90.295 159.596 88.6495 158.145 85.9795Z"/><path fill="#EB996E" d="M158.985 98.6225C158.946 98.6333 158.821 98.3896 158.758 97.9561C158.689 97.3846 158.758 96.8066 158.959 96.2674C159.157 95.7261 159.483 95.243 159.91 94.8548C160.24 94.5615 160.495 94.4623 160.516 94.4968C160.014 95.0618 159.6 95.7002 159.287 96.3904C159.073 97.1128 158.972 97.8677 158.985 98.6225Z"/><path fill="#EB996E" d="M155.807 97.4554C155.93 96.8774 156.02 96.2908 156.072 95.702C156.1 95.0421 156.212 94.3907 156.408 93.7588C156.538 93.3728 156.747 93.0191 157.025 92.7215C157.336 92.4174 157.709 92.1823 158.119 92.0335C159.719 91.4533 161.16 90.9832 162.212 90.6446C162.771 90.4311 163.349 90.2715 163.939 90.168C163.415 90.457 162.863 90.6942 162.292 90.8754C161.263 91.2722 159.814 91.7876 158.244 92.357C157.879 92.4886 157.545 92.6934 157.262 92.9609C157.014 93.224 156.825 93.5324 156.702 93.8731C156.501 94.477 156.37 95.1003 156.309 95.7322C156.292 96.3382 156.117 96.9313 155.807 97.4554Z"/><path fill="#EB996E" d="M154.269 96.2432C154.174 96.2281 154.195 95.6372 154.312 94.9233C154.428 94.2116 154.605 93.6444 154.696 93.6595C154.786 93.6746 154.769 94.2655 154.652 94.9794C154.536 95.6932 154.363 96.2583 154.269 96.2432Z"/><path fill="#FAFAFA" d="M154.089 81.2231C154.089 81.9974 154.716 82.625 155.491 82.625C156.265 82.625 156.893 81.9974 156.893 81.2231C156.893 80.4489 156.265 79.8213 155.491 79.8213C154.716 79.8213 154.089 80.4489 154.089 81.2231Z"/><path fill="#EB996E" d="M181.507 103.026C181.656 103.119 181.794 103.227 181.917 103.35L183.012 104.331L186.873 107.9L186.924 107.948L186.92 108.021C186.745 110.256 186.541 112.882 186.323 115.693C186.019 119.808 185.784 123.534 185.652 126.234C185.594 127.541 185.544 128.62 185.505 129.433C185.51 129.823 185.484 130.216 185.426 130.602C185.378 130.211 185.359 129.819 185.369 129.426C185.359 128.669 185.365 127.574 185.404 126.219C185.477 123.515 185.671 119.779 185.975 115.66C186.183 112.839 186.409 110.206 186.622 107.985L186.668 108.105L182.891 104.445L181.852 103.404C181.723 103.296 181.606 103.167 181.507 103.026Z"/><path fill="#FFBE9D" d="M113.171 142.781C113.171 142.781 106.614 152.736 93.7454 160.751C87.9634 164.352 83.6996 169.343 81.0275 173.111H81.0318L75.4136 192.974C51.7505 197.654 29.3857 181.699 29.3857 181.699L31.096 178.476L47.8814 150.601C47.8814 150.601 44.8448 135.917 46.637 125.297C47.8858 117.9 51.3451 108.268 55.1279 99.2206C59.3916 89.0216 64.0652 79.5646 66.4461 74.8846C67.4382 72.9349 68.0313 71.8135 68.0313 71.8135C68.0313 71.8135 69.0277 72.674 70.2139 74.0672C71.6351 75.7365 73.326 78.1714 73.8975 80.809C74.8701 85.2949 71.9759 91.3767 70.2139 97.3464C69.4245 100.019 68.8638 102.667 68.9781 105.143C69.0946 107.655 69.5496 109.78 70.2139 111.665C71.9931 116.722 75.2734 120.056 77.5056 124.523C77.9952 125.502 78.4114 126.434 78.7673 127.32H76.2439C77.2619 127.907 78.3057 128.452 79.3733 128.957C80.9498 133.602 80.7989 136.82 80.7989 138.701C80.801 138.869 80.7989 139.037 80.7881 139.205C80.7838 139.337 80.7751 139.471 80.7644 139.602C80.6716 140.663 80.3977 141.703 79.9534 142.673C79.9383 142.71 79.9232 142.745 79.906 142.781H80.003C79.6946 143.351 78.0728 146.31 76.2138 149.333C74.208 152.592 72.9313 154.395 72.8536 154.507C73.0025 154.468 77.7946 153.148 80.8722 150.886C84.0058 148.574 86.8117 145.848 89.2121 142.783L89.018 142.781H113.171Z"/></svg>