<svg width="236" height="202" viewBox="0 0 236 202" fill="none" xmlns="http://www.w3.org/2000/svg">
    <path d="M20.3524 53.8095C23.5593 46.6642 27.307 40.7036 31.5044 36.4184C32.6813 35.199 33.9604 34.0826 35.3278 33.0815C36.528 32.1991 37.8114 31.4359 39.1599 30.8028C58.2712 21.9277 77.8408 42.1226 99.7041 39.7359C118.03 37.732 131.218 26.2937 142.907 16.6915C146.71 13.4316 150.722 10.4235 154.917 7.68644C156.021 6.99449 157.136 6.36225 158.241 5.80201C159.479 5.18164 160.748 4.62481 162.042 4.13362C162.042 4.13212 162.042 4.1306 162.043 4.12917C162.043 4.12774 162.044 4.1264 162.045 4.12526C162.046 4.12412 162.047 4.12315 162.049 4.12247C162.05 4.12179 162.051 4.12141 162.053 4.12129L162.064 4.13362C178.997 -2.39253 207.602 -2.15282 220.278 11.8865C233.551 26.594 249.669 74.259 213.165 135.653C172.608 203.896 61.7862 213.329 32.1727 190.761C1.52645 167.43 2.7602 93.0217 20.355 53.8139" fill="#D6DCFD"/>
    <path d="M37.7832 120.349L40.176 131.846H50.4877L52.2623 120.181L37.7832 120.349Z" fill="#EBEBEB"/>
    <path d="M45.1276 127.596C48.3871 127.596 51.0293 127.623 51.0293 127.657C51.0293 127.69 48.3863 127.717 45.1276 127.717C41.8689 127.717 39.2266 127.69 39.2266 127.657C39.2266 127.623 41.8663 127.596 45.1276 127.596Z" fill="#FAFAFA"/>
    <path d="M45.1259 127.022C48.4083 127.022 51.0673 127.049 51.0673 127.083C51.0673 127.116 48.4065 127.143 45.1259 127.143C41.8453 127.143 39.1846 127.116 39.1846 127.083C39.1846 127.049 41.8435 127.022 45.1259 127.022Z" fill="#FAFAFA"/>
    <path d="M45.1474 126.379C48.4298 126.379 51.0896 126.406 51.0896 126.44C51.0896 126.474 48.428 126.501 45.1474 126.501C41.8667 126.501 39.2061 126.473 39.2061 126.44C39.2061 126.407 41.865 126.379 45.1474 126.379Z" fill="#FAFAFA"/>
    <path d="M49.5022 129.689C49.5682 129.192 49.6742 128.702 49.8192 128.223C49.7931 128.725 49.727 129.224 49.6217 129.715C49.5558 130.213 49.4498 130.704 49.3047 131.184C49.3307 130.682 49.3967 130.181 49.5022 129.689Z" fill="#FAFAFA"/>
    <path d="M48.6043 131.057C48.5483 130.096 48.6139 129.131 48.7993 128.187C48.8071 128.667 48.7845 129.147 48.7317 129.624C48.7185 130.104 48.6754 130.582 48.6026 131.057H48.6043Z" fill="#FAFAFA"/>
    <path d="M47.6684 128.095C47.6802 129.092 47.5642 130.087 47.3232 131.056C47.4046 130.065 47.5197 129.078 47.6684 128.095Z" fill="#FAFAFA"/>
    <path d="M46.5245 128.125C46.6181 129.122 46.5854 130.128 46.4271 131.117C46.423 130.119 46.4555 129.121 46.5245 128.125Z" fill="#FAFAFA"/>
    <path d="M44.935 128.219C44.9837 129.166 44.9514 130.115 44.8384 131.057C44.7896 130.11 44.8219 129.16 44.935 128.219Z" fill="#FAFAFA"/>
    <path d="M43.6549 128.186C43.7435 129.161 43.7514 130.141 43.6786 131.118C43.5898 130.143 43.5819 129.162 43.6549 128.186Z" fill="#FAFAFA"/>
    <path d="M42.2939 127.91C42.4728 128.918 42.5718 129.938 42.5899 130.962C42.4113 129.954 42.3123 128.933 42.2939 127.91Z" fill="#FAFAFA"/>
    <path d="M40.6299 128.25C40.9542 129.067 41.1423 129.932 41.1866 130.81C40.9835 129.961 40.7979 129.107 40.6299 128.25Z" fill="#FAFAFA"/>
    <path d="M42.2035 97.2205L42.2632 97.3811L42.481 98.0037C42.5767 98.2724 42.6883 98.6061 42.8042 98.996C42.9201 99.3859 43.0676 99.8267 43.1932 100.323C43.3188 100.819 43.4759 101.359 43.6103 101.947C43.7578 102.532 43.8816 103.163 44.0194 103.827C44.2741 105.159 44.5024 106.633 44.6623 108.19C44.8221 109.747 44.88 111.238 44.894 112.594C44.894 113.271 44.8941 113.911 44.8642 114.518C44.851 115.121 44.8142 115.681 44.7764 116.192C44.7387 116.703 44.6886 117.169 44.657 117.572C44.6254 117.975 44.577 118.322 44.5366 118.606L44.4488 119.26C44.4383 119.329 44.4295 119.384 44.4225 119.43C44.4207 119.449 44.4163 119.468 44.4093 119.486C44.4064 119.466 44.4064 119.447 44.4093 119.427C44.4093 119.381 44.4182 119.323 44.4234 119.251L44.491 118.595C44.5235 118.311 44.5595 117.963 44.5911 117.558C44.6227 117.152 44.6701 116.692 44.6929 116.181C44.7157 115.67 44.7553 115.11 44.7658 114.512C44.7904 113.911 44.7842 113.268 44.7842 112.592C44.764 111.239 44.6965 109.751 44.5428 108.201C44.3892 106.651 44.1582 105.178 43.9115 103.848C43.7771 103.185 43.6568 102.553 43.5137 101.969C43.3846 101.38 43.2415 100.839 43.1115 100.345C42.9816 99.8504 42.848 99.4061 42.74 99.0144C42.632 98.6228 42.5249 98.2891 42.4379 98.0169C42.351 97.7447 42.2904 97.5409 42.2412 97.3873L42.193 97.223C42.1865 97.2046 42.1824 97.1855 42.1807 97.166C42.1911 97.1828 42.1989 97.2012 42.2035 97.2205Z" fill="#EBEBEB"/>
    <path d="M44.226 105.305C43.6071 105.394 42.9778 105.236 42.4742 104.865C41.9063 104.493 41.492 103.928 41.3072 103.274C41.2009 102.89 41.2291 102.382 41.5891 102.209C41.7324 102.164 41.8846 102.154 42.0325 102.181C42.1805 102.208 42.3195 102.271 42.4373 102.365C43.1907 102.834 43.7575 103.551 44.0408 104.392" fill="#EBEBEB"/>
    <path d="M44.774 109.767C44.0407 109.591 43.3708 109.215 42.8394 108.68C42.308 108.145 41.9362 107.473 41.7657 106.738C41.7262 106.627 41.7149 106.508 41.733 106.391C41.7511 106.274 41.7979 106.164 41.8692 106.07C41.9322 106.017 42.0074 105.98 42.0881 105.962C42.1688 105.945 42.2526 105.947 42.332 105.97C42.4897 106.017 42.6364 106.096 42.7632 106.201C43.6757 107.02 44.336 108.082 44.667 109.263" fill="#EBEBEB"/>
    <path d="M44.7736 114.537C44.1444 114.311 43.5474 114.004 42.9972 113.624C42.6765 113.416 42.401 113.146 42.187 112.829C41.9731 112.512 41.8252 112.156 41.7521 111.78C41.7196 111.412 41.8846 110.966 42.249 110.902C42.371 110.895 42.4931 110.913 42.6082 110.954C42.7233 110.995 42.829 111.059 42.9191 111.141C43.7626 111.761 44.4256 112.595 44.8395 113.556" fill="#EBEBEB"/>
    <path d="M44.6375 117.255C43.6987 116.946 42.8823 116.347 42.3061 115.545C42.1305 115.313 41.975 114.988 42.1383 114.747C42.1944 114.676 42.2688 114.621 42.3536 114.589C42.4384 114.557 42.5304 114.548 42.6196 114.565C42.7979 114.599 42.9659 114.674 43.1104 114.784C43.7853 115.276 44.3431 115.912 44.7437 116.645" fill="#EBEBEB"/>
    <path d="M44.7441 116.067C45.4036 115.899 46.0165 115.583 46.5374 115.145C47.0582 114.707 47.4735 114.157 47.7525 113.536C47.8111 113.415 47.8412 113.283 47.8404 113.148C47.8385 113.081 47.8171 113.015 47.7787 112.959C47.7404 112.904 47.6867 112.86 47.6243 112.834C47.4609 112.78 47.2916 112.898 47.159 113.01C46.3088 113.73 45.5266 114.526 44.8223 115.389" fill="#EBEBEB"/>
    <path d="M44.843 111.976C45.1429 112.007 45.4459 111.978 45.734 111.889C46.0221 111.8 46.2892 111.654 46.5193 111.459C47.0468 111.068 47.4996 110.586 47.8558 110.035C48.0258 109.819 48.148 109.569 48.2141 109.302C48.245 109.168 48.2379 109.027 48.1935 108.897C48.1492 108.767 48.0693 108.651 47.963 108.564C47.8441 108.493 47.7082 108.457 47.5701 108.458C47.432 108.46 47.2969 108.499 47.1797 108.572C46.9479 108.722 46.746 108.914 46.5843 109.138L44.749 111.375" fill="#EBEBEB"/>
    <path d="M44.5919 107.619C45.3266 107.361 46.0158 106.989 46.6344 106.517C46.9792 106.272 47.2724 105.962 47.4967 105.604C47.6078 105.425 47.6801 105.224 47.709 105.015C47.7378 104.806 47.7227 104.593 47.6645 104.39C47.6145 104.209 47.5031 104.051 47.3494 103.943C47.1958 103.835 47.0095 103.784 46.8224 103.799C46.64 103.848 46.4739 103.945 46.3411 104.08C45.4925 104.825 44.8562 105.781 44.4971 106.852" fill="#EBEBEB"/>
    <path d="M43.9185 103.405C44.6553 103.13 45.2948 102.644 45.7572 102.007C46.2195 101.371 46.4844 100.612 46.5187 99.8262C46.5313 99.6503 46.5065 99.4738 46.4458 99.3082C46.4146 99.2256 46.3632 99.1522 46.2963 99.0946C46.2294 99.0371 46.1492 98.9973 46.0629 98.9789C45.7898 98.9376 45.5597 99.1721 45.3946 99.3934C44.5645 100.376 44.0012 101.555 43.7588 102.818" fill="#EBEBEB"/>
    <path d="M43.2456 100.762C42.3938 100.433 41.5772 99.1304 41.089 97.9519C40.9753 97.71 40.9054 97.4499 40.8826 97.1836C40.8721 97.0501 40.8918 96.916 40.9403 96.7911C40.9888 96.6663 41.0648 96.5541 41.1627 96.4627C41.2785 96.3757 41.4146 96.3201 41.5582 96.3012C41.7017 96.2822 41.8477 96.3006 41.982 96.3547C42.2492 96.4643 42.4802 96.6468 42.6485 96.8815C43.0414 97.4295 43.272 98.0772 43.3141 98.7502C43.3542 99.4194 43.3316 100.091 43.2465 100.756" fill="#EBEBEB"/>
    <path d="M51.2577 102.467C51.2577 102.586 51.2682 102.744 51.2752 102.938C51.2823 103.132 51.2875 103.393 51.284 103.684C51.2805 103.976 51.284 104.306 51.2664 104.672C51.2454 105.403 51.1839 106.274 51.0785 107.237C50.9732 108.199 50.809 109.257 50.5781 110.347C50.3471 111.438 50.0696 112.47 49.7877 113.396C49.5059 114.322 49.2038 115.142 48.9289 115.82C48.799 116.163 48.6611 116.464 48.5478 116.732C48.4346 117 48.3291 117.226 48.2396 117.411L48.0342 117.835C48.0127 117.886 47.9862 117.934 47.9551 117.98C47.9688 117.926 47.988 117.874 48.0122 117.824L48.1966 117.391C48.2791 117.204 48.3775 116.975 48.4846 116.705C48.5917 116.434 48.7235 116.134 48.8482 115.789C49.1116 115.108 49.3961 114.286 49.6797 113.363C49.9633 112.44 50.2347 111.412 50.4604 110.321C50.686 109.229 50.8494 108.182 50.9679 107.223C51.0865 106.264 51.1497 105.397 51.1813 104.668C51.205 104.303 51.205 103.973 51.2164 103.682C51.2278 103.392 51.2287 103.142 51.2287 102.938L51.234 102.467C51.232 102.412 51.2355 102.357 51.2445 102.303C51.254 102.357 51.2584 102.412 51.2577 102.467Z" fill="#E0E0E0"/>
    <path d="M50.8848 108.289C50.4443 108.216 50.0501 107.973 49.7872 107.612C49.4806 107.236 49.32 106.762 49.3349 106.277C49.3446 105.992 49.4737 105.656 49.7556 105.613C49.863 105.613 49.9689 105.639 50.0638 105.689C50.1588 105.739 50.2399 105.812 50.3 105.901C50.7118 106.383 50.9433 106.992 50.955 107.626" fill="#E0E0E0"/>
    <path d="M50.2947 111.447C49.8331 111.17 49.4581 110.769 49.2115 110.29C48.9649 109.812 48.8565 109.274 48.8985 108.737C48.8957 108.653 48.914 108.57 48.9515 108.494C48.9891 108.419 49.0448 108.354 49.1136 108.306C49.1681 108.283 49.2274 108.274 49.2862 108.279C49.345 108.285 49.4016 108.305 49.4508 108.337C49.5485 108.404 49.6319 108.489 49.6959 108.588C50.1408 109.342 50.3618 110.207 50.3334 111.082" fill="#E0E0E0"/>
    <path d="M49.2697 114.697C48.8899 114.407 48.5492 114.069 48.2563 113.692C48.0828 113.482 47.9535 113.239 47.8759 112.977C47.7984 112.716 47.7742 112.442 47.8049 112.171C47.862 111.913 48.0684 111.644 48.3318 111.679C48.4164 111.701 48.4957 111.739 48.5652 111.792C48.6347 111.845 48.693 111.911 48.7366 111.987C49.1784 112.59 49.4512 113.3 49.5269 114.044" fill="#E0E0E0"/>
    <path d="M48.5915 116.515C48.0183 116.103 47.5914 115.518 47.3727 114.847C47.3025 114.651 47.2664 114.397 47.4298 114.267C47.4833 114.231 47.5457 114.21 47.6104 114.206C47.675 114.202 47.7395 114.216 47.7969 114.246C47.9107 114.308 48.0085 114.396 48.0831 114.502C48.4366 114.982 48.6798 115.535 48.7953 116.12" fill="#E0E0E0"/>
    <path d="M48.9189 115.729C49.4042 115.756 49.8893 115.673 50.3383 115.487C50.7872 115.301 51.1884 115.015 51.512 114.653C51.5785 114.583 51.6281 114.499 51.6569 114.406C51.6699 114.36 51.6695 114.311 51.6554 114.266C51.6414 114.22 51.6145 114.179 51.5779 114.148C51.5222 114.122 51.461 114.111 51.3998 114.114C51.3386 114.118 51.2791 114.136 51.2267 114.168C50.4915 114.475 49.786 114.849 49.1192 115.285" fill="#E0E0E0"/>
    <path d="M49.8711 112.961C50.0682 113.047 50.2805 113.092 50.4954 113.093C50.7103 113.095 50.9232 113.053 51.1215 112.97C51.5645 112.819 51.9765 112.589 52.3377 112.291C52.5005 112.18 52.6376 112.035 52.7399 111.867C52.79 111.782 52.8155 111.685 52.8133 111.587C52.8111 111.488 52.7814 111.393 52.7275 111.31C52.6619 111.237 52.5772 111.183 52.4829 111.154C52.3886 111.125 52.2882 111.123 52.1928 111.148C52.0026 111.201 51.824 111.289 51.6659 111.407L49.9352 112.534" fill="#E0E0E0"/>
    <path d="M50.6348 109.947C51.1904 109.929 51.7398 109.825 52.2628 109.636C52.5505 109.543 52.817 109.394 53.047 109.197C53.1612 109.099 53.2535 108.978 53.3182 108.842C53.3829 108.705 53.4186 108.557 53.4228 108.407C53.4278 108.273 53.386 108.141 53.3046 108.035C53.2232 107.928 53.1072 107.853 52.9767 107.823C52.8419 107.818 52.708 107.848 52.5886 107.911C51.8492 108.235 51.2093 108.751 50.734 109.403" fill="#E0E0E0"/>
    <path d="M51.085 106.936C51.646 106.907 52.1861 106.713 52.6378 106.379C53.0896 106.045 53.4331 105.586 53.6254 105.058C53.6722 104.941 53.6934 104.815 53.6877 104.689C53.6842 104.626 53.6649 104.565 53.6316 104.511C53.5983 104.458 53.5521 104.413 53.4972 104.382C53.4025 104.356 53.3024 104.354 53.2069 104.379C53.1115 104.403 53.0241 104.452 52.9536 104.52C52.1766 105.011 51.539 105.693 51.1025 106.501" fill="#E0E0E0"/>
    <path d="M51.1941 104.988C50.6436 104.318 50.3394 103.479 50.3318 102.612C50.3063 102.423 50.3146 102.231 50.3564 102.045C50.3779 101.951 50.42 101.864 50.4798 101.79C50.5395 101.715 50.6152 101.655 50.7014 101.613C50.7988 101.579 50.9034 101.571 51.005 101.589C51.1066 101.607 51.2019 101.65 51.2819 101.715C51.4401 101.848 51.5577 102.023 51.6209 102.22C51.7707 102.678 51.7884 103.169 51.6719 103.636C51.5554 104.1 51.3954 104.553 51.1941 104.987" fill="#E0E0E0"/>
    <path d="M38.2154 102.359C38.2154 102.479 38.2154 102.635 38.2206 102.831C38.2259 103.027 38.2207 103.285 38.2321 103.575C38.2435 103.865 38.2435 104.196 38.2672 104.56C38.2997 105.29 38.3699 106.156 38.4806 107.115C38.5912 108.074 38.7563 109.123 38.9881 110.213C39.22 111.304 39.4922 112.33 39.7688 113.256C40.0454 114.181 40.3361 115.001 40.6004 115.682C40.7251 116.026 40.8568 116.328 40.9639 116.599C41.071 116.869 41.1702 117.098 41.2528 117.285C41.3353 117.472 41.3898 117.608 41.4373 117.718C41.4612 117.767 41.4803 117.819 41.4943 117.872C41.4632 117.827 41.4368 117.779 41.4153 117.728L41.2098 117.304C41.122 117.12 41.0158 116.892 40.9025 116.624C40.7892 116.357 40.6513 116.055 40.5213 115.713C40.2465 115.034 39.9541 114.212 39.6634 113.288C39.3728 112.365 39.0988 111.334 38.8731 110.24C38.6474 109.145 38.4858 108.092 38.3725 107.13C38.2593 106.169 38.2057 105.298 38.1846 104.565C38.1671 104.2 38.1724 103.868 38.1672 103.577C38.1619 103.287 38.1671 103.036 38.1758 102.832C38.1846 102.627 38.189 102.481 38.1934 102.361C38.1929 102.306 38.1976 102.252 38.2075 102.198C38.2155 102.251 38.2182 102.305 38.2154 102.359Z" fill="#EBEBEB"/>
    <path d="M38.5633 108.176C39.0041 108.103 39.3985 107.86 39.6609 107.498C39.9674 107.122 40.128 106.648 40.1131 106.163C40.1035 105.878 39.9744 105.542 39.6925 105.499C39.5851 105.498 39.4793 105.525 39.3843 105.575C39.2894 105.625 39.2082 105.698 39.1481 105.787C38.7359 106.269 38.504 106.879 38.4922 107.513" fill="#EBEBEB"/>
    <path d="M39.1525 111.334C39.6142 111.057 39.9896 110.656 40.2363 110.178C40.4831 109.699 40.5916 109.161 40.5497 108.624C40.5524 108.54 40.5342 108.457 40.4966 108.381C40.459 108.306 40.4034 108.241 40.3345 108.193C40.2801 108.17 40.2208 108.161 40.1619 108.167C40.1031 108.172 40.0466 108.192 39.9973 108.225C39.8997 108.291 39.8165 108.375 39.7524 108.474C39.3073 109.228 39.0861 110.093 39.1148 110.968" fill="#EBEBEB"/>
    <path d="M40.1782 114.581C40.558 114.292 40.8987 113.954 41.1916 113.577C41.3651 113.367 41.4944 113.124 41.572 112.863C41.6495 112.602 41.6736 112.328 41.6428 112.057C41.5857 111.799 41.3794 111.53 41.116 111.564C41.0315 111.586 40.9521 111.625 40.8826 111.677C40.8131 111.73 40.7549 111.796 40.7112 111.872C40.2695 112.475 39.9967 113.185 39.9209 113.929" fill="#EBEBEB"/>
    <path d="M40.856 116.403C41.4293 115.99 41.8562 115.406 42.0749 114.734C42.1451 114.538 42.1811 114.284 42.0178 114.155C41.9641 114.118 41.9017 114.097 41.837 114.094C41.7724 114.09 41.708 114.104 41.6507 114.135C41.537 114.196 41.439 114.283 41.3644 114.389C41.0108 114.87 40.7677 115.422 40.6523 116.007" fill="#EBEBEB"/>
    <path d="M40.529 115.617C40.0437 115.644 39.5587 115.561 39.1098 115.375C38.6609 115.189 38.2596 114.904 37.9359 114.541C37.8693 114.471 37.8198 114.387 37.7911 114.295C37.7777 114.248 37.778 114.2 37.7919 114.154C37.8057 114.108 37.8326 114.067 37.8692 114.036C37.9249 114.01 37.9861 113.998 38.0473 114.002C38.1085 114.005 38.168 114.023 38.2205 114.055C38.9557 114.362 39.661 114.736 40.3279 115.172" fill="#EBEBEB"/>
    <path d="M39.5773 112.848C39.3801 112.933 39.1679 112.978 38.953 112.98C38.7382 112.981 38.5252 112.939 38.3269 112.857C37.8836 112.705 37.4713 112.475 37.1098 112.177C36.9471 112.067 36.81 111.922 36.7077 111.754C36.6573 111.669 36.6317 111.572 36.6339 111.473C36.6361 111.375 36.6659 111.279 36.7199 111.196C36.7856 111.123 36.8703 111.069 36.9646 111.04C37.0589 111.012 37.1592 111.01 37.2547 111.034C37.4449 111.087 37.6237 111.174 37.7816 111.293L39.5132 112.421" fill="#EBEBEB"/>
    <path d="M38.813 109.833C38.2573 109.815 37.7079 109.711 37.185 109.522C36.8974 109.429 36.6311 109.28 36.4016 109.083C36.2873 108.985 36.1949 108.864 36.1302 108.727C36.0655 108.591 36.0299 108.443 36.0258 108.293C36.0208 108.159 36.0626 108.027 36.144 107.921C36.2254 107.814 36.3414 107.739 36.4719 107.709C36.6068 107.703 36.7407 107.734 36.8601 107.797C37.5992 108.122 38.2391 108.637 38.7146 109.289" fill="#EBEBEB"/>
    <path d="M38.3652 106.821C37.8041 106.792 37.2639 106.599 36.812 106.265C36.3601 105.931 36.0164 105.471 35.8239 104.943C35.7772 104.826 35.756 104.701 35.7616 104.575C35.7654 104.512 35.7846 104.451 35.8177 104.397C35.8508 104.344 35.8967 104.299 35.9513 104.268C36.0462 104.241 36.1465 104.24 36.2421 104.264C36.3377 104.289 36.4251 104.338 36.4957 104.407C37.2726 104.897 37.9101 105.58 38.3468 106.388" fill="#EBEBEB"/>
    <path d="M38.2529 104.875C38.8034 104.205 39.1077 103.366 39.1152 102.499C39.1407 102.31 39.1324 102.118 39.0906 101.932C39.0692 101.839 39.0271 101.752 38.9674 101.677C38.9076 101.602 38.8317 101.542 38.7455 101.501C38.6482 101.467 38.5439 101.458 38.4424 101.476C38.341 101.494 38.2458 101.537 38.166 101.603C38.0073 101.735 37.8895 101.91 37.8261 102.107C37.6764 102.565 37.6588 103.056 37.7752 103.523C37.8916 103.987 38.0513 104.439 38.2521 104.874" fill="#EBEBEB"/>
    <path d="M36.7959 117.872V120.055C36.7959 120.167 36.8182 120.279 36.8614 120.383C36.9046 120.488 36.968 120.582 37.0478 120.662C37.1276 120.742 37.2224 120.805 37.3267 120.848C37.431 120.891 37.5427 120.913 37.6556 120.913H52.5889C52.7017 120.913 52.8134 120.891 52.9177 120.848C53.0219 120.805 53.1167 120.741 53.1965 120.661C53.2762 120.582 53.3394 120.487 53.3825 120.383C53.4256 120.278 53.4477 120.167 53.4476 120.054V117.871L36.7959 117.872Z" fill="#EBEBEB"/>
    <path d="M37.9004 120.914L38.2517 122.59L52.0309 121.608L52.1548 120.914H37.9004Z" fill="#E0E0E0"/>
    <path d="M61.4262 77.3991C61.6554 77.6107 61.9663 77.9075 62.3043 78.2429C62.6424 78.5784 62.9462 78.8848 63.1622 79.1114C63.287 79.2262 63.3978 79.3553 63.4923 79.496C63.3505 79.4039 63.2203 79.2952 63.1043 79.1721C62.8751 78.9613 62.5634 78.6644 62.2262 78.3299C61.889 77.9953 61.5861 77.6889 61.3709 77.4624C61.2455 77.3461 61.1338 77.2159 61.0381 77.0742C61.1801 77.1664 61.3105 77.2755 61.4262 77.3991Z" fill="#E0E0E0"/>
    <path d="M47.2552 77.4273C47.0445 77.6565 46.746 77.9682 46.4123 78.3054C46.0786 78.6426 45.7704 78.9473 45.543 79.1633C45.5808 79.2145 45.5979 79.2781 45.591 79.3414C45.5841 79.4048 45.5536 79.4632 45.5057 79.5051C45.4577 79.547 45.3957 79.5694 45.332 79.5677C45.2683 79.5661 45.2077 79.5405 45.162 79.4961C45.1163 79.4518 45.0889 79.3919 45.0854 79.3283C45.0818 79.2647 45.1023 79.202 45.1427 79.1528C45.1832 79.1036 45.2406 79.0714 45.3037 79.0626C45.3668 79.0539 45.4309 79.0691 45.4833 79.1054C45.694 78.8762 45.9907 78.5645 46.3244 78.2273C46.6581 77.8901 46.9654 77.5872 47.192 77.372C47.3083 77.2466 47.4388 77.1351 47.581 77.04C47.4886 77.1819 47.3792 77.312 47.2552 77.4273Z" fill="#E0E0E0"/>
    <path d="M72.4961 153.394C72.7982 153.495 75.0594 167.369 80.862 173.684C86.6646 180 89.0424 173.684 89.0424 173.684C89.0424 173.684 83.498 144.882 83.4401 144.903L72.4961 153.394Z" fill="#FFBE9D"/>
    <path d="M40.6777 125.363C39.468 125.675 38.2156 125.789 36.9694 125.7C36.3458 125.649 35.7435 125.449 35.2131 125.117C34.6827 124.785 34.2398 124.331 33.9215 123.792C33.5882 122.984 33.4441 122.111 33.5001 121.238C33.4363 114.284 33.6384 107.341 34.1068 100.409C34.2726 96.2217 34.8868 92.0638 35.9386 88.0069C37.0039 83.9316 39.1688 80.2275 42.1969 77.2992C43.7192 75.8537 45.5395 74.7589 47.5299 74.0914C49.5202 73.4239 51.6325 73.2001 53.7186 73.4355" fill="#263238"/>
    <path d="M56.9521 128.289C57.4708 130.196 58.4552 131.945 59.8166 133.377C60.503 134.086 61.3465 134.623 62.2788 134.945C63.2112 135.268 64.2062 135.366 65.1836 135.232C66.2281 134.968 67.1945 134.458 68.002 133.745C68.8096 133.032 69.435 132.136 69.8262 131.132C70.5901 129.12 71.0236 126.997 71.11 124.847C71.5626 120.039 72.0148 115.231 72.4668 110.425C73.7748 102.135 73.0697 93.6534 70.411 85.6941C69.7612 83.2995 69.8464 79.7229 68.3035 77.7797C66.3172 75.2788 62.3824 74.3401 59.2239 74.8037" fill="#263238"/>
    <path d="M71.8511 118.163C72.5156 116.853 73.1061 115.508 73.6196 114.132C74.4122 112.075 74.983 109.938 75.3222 107.76C75.5215 106.453 75.5957 105.129 75.5436 103.808C75.5436 103.463 75.4961 103.117 75.4724 102.766C75.4487 102.415 75.3969 102.063 75.3486 101.712C75.2362 101.01 75.0975 100.298 74.9148 99.5959C74.176 97.0188 73.2452 94.5006 72.1303 92.0625C71.2645 90.1216 70.5285 88.1254 69.9272 86.087C68.9358 82.614 69.2053 80.3292 68.9427 80.3011C68.8391 80.2861 68.6319 80.8411 68.5151 81.8939C68.3874 83.3855 68.4779 84.8876 68.7839 86.353C69.2394 88.5004 69.8859 90.6028 70.7157 92.6351C71.7194 95.0406 72.5854 97.5012 73.3096 100.005C73.9491 102.472 74.1183 105.037 73.8084 107.566C73.5484 109.666 73.1135 111.739 72.5079 113.766C72.0092 115.522 71.5419 116.934 71.2574 117.926C70.9729 118.917 70.85 119.486 70.958 119.529C71.066 119.572 71.3795 119.085 71.8511 118.163Z" fill="#263238"/>
    <path d="M43.0028 121.617C43.1951 126.827 46.8112 131.234 52.1159 131.101C57.4039 130.969 60.8487 126.751 60.7539 121.554L60.1392 113.563C60.1389 113.557 60.1397 113.551 60.1417 113.546C60.1437 113.54 60.1467 113.535 60.1507 113.53C60.1547 113.526 60.1596 113.522 60.165 113.52C60.1704 113.517 60.1762 113.515 60.1822 113.515C60.8134 113.503 61.4417 113.426 62.057 113.284C63.793 112.684 68.1564 110.514 69.0459 103.724C69.3418 101.473 69.2602 95.1677 69.0398 88.9068C68.9235 85.4141 67.4863 82.0956 65.0184 79.6214C62.5505 77.1471 59.2358 75.7013 55.7434 75.5761C53.9434 75.5131 52.1492 75.8135 50.4679 76.4593C48.7865 77.1051 47.2525 78.0831 45.9576 79.3349C44.6626 80.5866 43.6331 82.0866 42.9307 83.7451C42.2282 85.4035 41.8672 87.1865 41.8691 88.9876L43.0028 121.617Z" fill="#FFBE9D"/>
    <path d="M60.2972 115.677C51.6767 116.687 49.6816 110.754 49.6816 110.754C55.5404 114.01 60.1312 113.525 60.1312 113.525L60.2972 115.677Z" fill="#EB996E"/>
    <path d="M64.2293 92.5347C64.761 92.9478 65.4107 93.1804 66.0838 93.1985C66.7648 93.226 67.4375 93.0419 68.0096 92.6716C68.4346 92.3827 68.5944 92.1052 68.5286 92.0332C68.3933 91.8708 67.4222 92.5057 66.1313 92.4486C64.8379 92.4108 63.9492 91.7074 63.7947 91.8593C63.7183 91.9278 63.8447 92.215 64.2293 92.5347Z" fill="#263238"/>
    <path d="M50.8615 92.4719C51.4368 92.9573 52.1399 93.2665 52.8864 93.3624C53.6448 93.4758 54.4198 93.3774 55.1257 93.0779C55.6385 92.8443 55.85 92.5887 55.7833 92.5088C55.6481 92.3332 54.4776 92.8399 53.0217 92.6239C51.5614 92.4255 50.6323 91.6167 50.44 91.7458C50.3469 91.8108 50.4584 92.1084 50.8615 92.4719Z" fill="#263238"/>
    <path d="M62.1057 100.488C62.2953 100.486 62.4838 100.46 62.6667 100.41C62.7875 100.376 62.8988 100.315 62.9924 100.231C63.086 100.147 63.1593 100.044 63.2068 99.9273C63.3029 99.4878 63.2407 99.0286 63.0312 98.6304L62.0907 96.1015C60.7279 92.5223 59.5046 89.664 59.3606 89.7175C59.2166 89.7711 60.2037 92.7145 61.5665 96.2946C61.909 97.1727 62.2359 98.0108 62.5473 98.8087C62.7196 99.1044 62.7971 99.4457 62.7695 99.7868C62.7142 100.012 62.4016 100.079 62.0714 100.114C61.3581 100.153 60.6525 100.282 59.971 100.496C60.68 100.585 61.3974 100.582 62.1057 100.488Z" fill="#263238"/>
    <path d="M50.5946 88.1558C51.3688 88.2594 52.1565 88.1854 52.8979 87.9394C53.6393 87.6934 54.3149 87.2818 54.8736 86.7359C55.2881 86.2969 55.4277 85.9306 55.3083 85.8015C55.0449 85.5381 53.9411 86.2248 52.4852 86.692C51.0389 87.1881 49.7401 87.2953 49.6892 87.665C49.6708 87.8415 50.0001 88.0539 50.5946 88.1558Z" fill="#263238"/>
    <path d="M63.769 86.1309C64.1886 86.7253 64.7624 87.1937 65.4287 87.4858C66.0874 87.8026 66.8196 87.9356 67.5476 87.8706C68.0877 87.8012 68.3572 87.5948 68.3169 87.4156C68.2115 87.0363 67.1296 86.8431 65.9898 86.2969C64.8342 85.7858 63.9894 85.0913 63.6268 85.2555C63.4617 85.3407 63.4775 85.6726 63.769 86.1309Z" fill="#263238"/>
    <path d="M58.886 104.811C58.6474 104.058 58.1258 103.426 57.431 103.05C56.7062 102.659 55.8666 102.536 55.0601 102.703C54.4454 102.839 54.1301 103.088 54.167 103.17C54.2144 103.361 55.6537 102.927 57.0227 103.679C58.3916 104.431 58.6586 105.81 58.8667 105.758C58.9615 105.75 59.0493 105.377 58.886 104.811Z" fill="#263238"/>
    <path d="M73.0447 158.296L85.0942 150.744C85.0942 150.744 84.6666 135.414 81.1796 128.44C77.6926 121.466 71.8908 121.081 71.2568 120.922L73.0447 158.296Z" fill="#E8505B"/>
    <path d="M26.623 185.614L27.1744 121.875L38.2282 118.678L41.3393 121.963C42.6695 123.369 44.3276 124.422 46.1649 125.029C48.0021 125.636 49.9613 125.778 51.8669 125.442C53.7725 125.106 55.5651 124.303 57.084 123.104C58.6028 121.905 59.8006 120.348 60.57 118.573L60.6473 118.397L71.9891 121.058L77.2191 150.696L73.5442 158.317L76.838 201.708C76.838 201.708 38.849 201.687 26.623 185.614Z" fill="#E8505B"/>
    <path d="M32.5704 127.294C36.8442 132.63 35.938 149.201 35.938 149.201H18.0684C18.0684 149.201 19.1081 145.431 19.8369 135.698C20.6421 124.941 27.3202 121.832 27.3202 121.832C27.3202 121.832 32.2183 126.849 32.5704 127.294Z" fill="#E8505B"/>
    <path d="M66.4479 140.647H66.0966L64.7206 140.628L59.5089 140.525C55.0209 140.424 48.6292 140.282 41.0054 140.11L41.0984 140.007C41.4751 143.296 41.8817 146.856 42.3128 150.601C42.5277 152.479 42.7466 154.398 42.9697 156.361C43.0809 157.342 43.1939 158.332 43.3086 159.331C43.3672 159.831 43.4258 160.333 43.4843 160.837C43.5243 161.337 43.6175 161.831 43.7626 162.312C43.8331 162.593 43.9712 162.852 44.1648 163.068C44.3583 163.283 44.6016 163.448 44.8734 163.548C45.4518 163.665 46.0462 163.68 46.6296 163.592L50.1817 163.339L57.0256 162.855L69.3904 161.987L69.3106 162.084C68.4746 155.627 67.7808 150.273 67.2952 146.521C67.059 144.654 66.8764 143.184 66.7464 142.18C66.6879 141.685 66.6422 141.304 66.6094 141.039C66.5796 140.78 66.5707 140.646 66.5707 140.646C66.5707 140.646 66.5971 140.775 66.6348 141.034L66.7982 142.176C66.9361 143.182 67.1372 144.646 67.3945 146.51C67.8977 150.259 68.6159 155.611 69.4826 162.065L69.4949 162.153L69.4071 162.16L57.0441 163.054L50.2009 163.545L46.649 163.799C46.0387 163.891 45.4169 163.873 44.8128 163.747C44.5024 163.649 44.2263 163.465 44.0173 163.215C43.815 162.969 43.6622 162.686 43.5668 162.381C43.4165 161.887 43.3199 161.377 43.2788 160.862C43.2203 160.359 43.1617 159.857 43.1031 159.357L42.766 156.386C42.5436 154.421 42.326 152.501 42.1135 150.626C41.6903 146.876 41.2889 143.319 40.9175 140.029L40.9053 139.923H41.0106L59.5133 140.414L64.7233 140.567L66.0992 140.615L66.4505 140.631C66.4905 140.631 66.5305 140.634 66.5699 140.642C66.5294 140.646 66.4887 140.648 66.4479 140.647Z" fill="#FF735D"/>
    <path d="M64.9811 151.529C65.6519 157.555 66.149 162.443 66.0919 162.45C66.0348 162.457 65.4438 157.576 64.7747 151.553C64.1056 145.53 63.6068 140.641 63.6647 140.634C63.7227 140.627 64.3067 145.505 64.9811 151.529Z" fill="#FF735D"/>
    <path d="M61.8081 151.258C62.4781 157.284 62.976 162.17 62.9189 162.178C62.8618 162.186 62.2709 157.305 61.6017 151.282C60.9326 145.258 60.4339 140.368 60.4919 140.362C60.5498 140.356 61.1416 145.232 61.8081 151.258Z" fill="#FF735D"/>
    <path d="M58.6361 151.529C59.307 157.555 59.8049 162.443 59.7469 162.45C59.6889 162.457 59.0989 157.576 58.4297 151.553C57.7606 145.53 57.2618 140.641 57.3189 140.634C57.376 140.627 57.9652 145.505 58.6361 151.529Z" fill="#FF735D"/>
    <path d="M55.4642 151.529C56.1351 157.555 56.6321 162.443 56.575 162.45C56.518 162.457 55.9261 157.576 55.2579 151.553C54.5896 145.53 54.0909 140.641 54.148 140.634C54.2051 140.627 54.7942 145.505 55.4642 151.529Z" fill="#FF735D"/>
    <path d="M52.0042 151.258C52.6751 157.284 53.1721 162.17 53.1151 162.178C53.058 162.186 52.467 157.305 51.7979 151.282C51.1288 145.258 50.63 140.368 50.6871 140.362C50.7441 140.356 51.3342 145.232 52.0042 151.258Z" fill="#FF735D"/>
    <path d="M48.8071 151.258C49.478 157.284 49.975 162.17 49.9179 162.178C49.8608 162.186 49.269 157.305 48.6007 151.282C47.9325 145.258 47.4337 140.368 47.4908 140.362C47.5479 140.356 48.1371 145.232 48.8071 151.258Z" fill="#FF735D"/>
    <path d="M46.1468 151.694C46.8177 157.72 47.3147 162.608 47.2577 162.614C47.2006 162.62 46.6105 157.742 45.9405 151.718C45.2705 145.694 44.7726 140.805 44.8297 140.799C44.8867 140.793 45.4768 145.668 46.1468 151.694Z" fill="#FF735D"/>
    <path d="M73.4016 158.062C73.5096 157.894 73.636 157.688 73.7782 157.443C73.9205 157.198 74.0909 156.925 74.2524 156.609C74.6492 155.878 75.0082 155.128 75.3281 154.36C76.1116 152.479 76.6479 150.505 76.9237 148.486C77.0359 147.662 77.1062 146.833 77.1344 146.002C77.1555 145.651 77.1432 145.327 77.1484 145.044C77.1537 144.761 77.1485 144.517 77.1379 144.32C77.0597 144.309 76.9884 144.27 76.9384 144.209C76.8883 144.148 76.8634 144.07 76.8686 143.991C76.8738 143.912 76.9087 143.839 76.9663 143.785C77.0239 143.731 77.0999 143.701 77.1788 143.701C77.2577 143.701 77.3336 143.731 77.3912 143.785C77.4488 143.839 77.4837 143.912 77.4889 143.991C77.4941 144.07 77.4692 144.148 77.4192 144.209C77.3692 144.27 77.2978 144.309 77.2196 144.32C77.2398 144.518 77.2583 144.759 77.2653 145.046C77.2723 145.333 77.2933 145.653 77.281 146.012C77.2749 146.85 77.2192 147.687 77.1143 148.518C76.8568 150.558 76.3147 152.552 75.5038 154.442C75.1728 155.212 74.7972 155.962 74.3789 156.688C74.2086 157.002 74.0277 157.269 73.8766 157.512C73.7256 157.754 73.5877 157.951 73.4682 158.116C73.3566 158.29 73.23 158.454 73.0898 158.607C73.1771 158.416 73.2814 158.234 73.4016 158.062Z" fill="#263238"/>
    <path d="M29.2878 122.956C29.5584 123.04 29.8225 123.144 30.0781 123.267C31.0241 123.706 31.8903 124.299 32.6413 125.023C33.1659 125.517 33.6368 126.064 34.0462 126.657C35.0535 128.086 35.7014 129.736 35.9351 131.468C36.0518 132.411 36.0861 133.387 36.1204 134.387C36.2284 138.388 36.1529 142.007 36.1028 144.625C36.0686 145.917 36.0396 146.971 36.0203 147.726L35.9861 148.569C35.9865 148.667 35.978 148.765 35.9606 148.862C35.9454 148.765 35.9398 148.666 35.9438 148.568C35.9438 148.355 35.9421 148.074 35.9386 147.725C35.9386 146.969 35.9474 145.917 35.9545 144.623C35.9676 142.005 36.0194 138.389 35.9114 134.394C35.8771 133.398 35.8456 132.419 35.7358 131.496C35.5105 129.793 34.8835 128.168 33.9067 126.755C33.5102 126.167 33.0538 125.621 32.5447 125.127C31.8115 124.405 30.9693 123.802 30.049 123.34C29.8005 123.211 29.5449 123.096 29.2834 122.995C29.1901 122.963 29.1001 122.921 29.0146 122.872C29.108 122.891 29.1995 122.92 29.2878 122.956Z" fill="#263238"/>
    <path d="M49.2592 85.3281L58.5996 79.1576C59.5436 78.5333 60.5745 77.7799 60.7388 76.6585C60.946 75.243 59.642 74.0531 58.3327 73.4744C54.4084 71.7419 49.7088 73.0081 46.1752 75.4414C43.173 77.4473 40.8648 80.3331 39.5674 83.7027C38.3942 86.9298 38.3617 90.4414 38.338 93.8757C38.2941 101.814 38.2499 109.753 38.2054 117.692C38.0805 120.745 38.2768 123.802 38.7911 126.814C39.3173 129.845 40.7804 132.635 42.9745 134.791C43.9801 135.779 45.2671 136.43 46.6581 136.655C47.3522 136.756 48.0607 136.668 48.7095 136.402C49.3583 136.136 49.9236 135.7 50.3463 135.14C50.685 134.533 50.8904 133.861 50.9487 133.169C51.007 132.476 50.9169 131.779 50.6844 131.124C50.3129 129.789 49.6702 128.535 49.3672 127.182C48.8465 124.88 49.332 122.488 49.5621 120.139C50.1469 114.168 49.0598 108.181 48.4443 102.214C47.8287 96.2474 47.7269 89.9988 50.1312 84.5027" fill="#263238"/>
    <path d="M49.0688 125.97C49.8096 124.495 50.4437 122.969 50.9664 121.404C51.7697 119.055 52.2485 116.608 52.3898 114.129C52.4524 111.09 52.0678 108.058 51.2483 105.131C50.48 102.05 49.6194 99.1899 49.1882 96.5652C48.7713 94.2533 48.7089 91.8914 49.003 89.5606C49.2181 87.9964 49.6877 86.478 50.393 85.0655C50.5283 84.819 50.6454 84.5978 50.7443 84.4017L51.02 83.9186C51.1649 83.6552 51.222 83.4884 51.179 83.4515C51.1359 83.4146 50.9937 83.5034 50.7584 83.7106C50.6123 83.8375 50.4733 83.9723 50.3421 84.1145C50.1952 84.2901 50.0283 84.495 49.8415 84.7291C48.8614 86.1144 48.1821 87.6896 47.8473 89.3533C47.3601 91.8053 47.3007 94.3231 47.6718 96.7954C48.169 99.7411 48.8238 102.658 49.6335 105.533C50.4173 108.318 50.8307 111.194 50.8629 114.086C50.7942 116.448 50.4523 118.794 49.8442 121.077C49.334 123.047 48.8176 124.629 48.4752 125.731C48.1327 126.833 47.972 127.46 48.0809 127.507C48.1898 127.553 48.5428 127.009 49.0688 125.97Z" fill="#263238"/>
    <path d="M35.9438 88.5428L36.6771 88.2838C36.9967 88.1714 37.3857 88.0265 37.8318 87.8447C38.2778 87.6629 38.7907 87.4733 39.3448 87.2301C40.4626 86.7629 41.7718 86.1579 43.2023 85.4378C44.6327 84.7178 46.1712 83.8572 47.7466 82.8913C49.3219 81.9253 50.7725 80.9234 52.066 79.9785C53.3594 79.0337 54.4835 78.1283 55.4028 77.3442C55.87 76.9605 56.2713 76.5872 56.6322 76.2702C56.9931 75.9532 57.2969 75.6705 57.5401 75.4361L58.103 74.896C58.1709 74.8361 58.2339 74.7705 58.291 74.7002C58.2157 74.7528 58.1449 74.8115 58.0793 74.8758L57.4963 75.3931C57.246 75.6196 56.936 75.8944 56.5707 76.2053C56.2054 76.5161 55.7971 76.8815 55.3247 77.2591C54.3965 78.0336 53.262 78.9187 51.9729 79.8635C50.6839 80.8084 49.2244 81.7875 47.6561 82.7613C46.0878 83.7352 44.5458 84.5763 43.1277 85.3078C41.7095 86.0393 40.4055 86.6478 39.2938 87.1281C38.7433 87.3784 38.234 87.5778 37.7923 87.7666C37.3506 87.9553 36.9651 88.1055 36.6507 88.2276L35.9263 88.5156C35.8404 88.5455 35.7572 88.5828 35.6777 88.6271C35.7686 88.6062 35.8575 88.5781 35.9438 88.5428Z" fill="#455A64"/>
    <path d="M35.9649 89.7782L36.7482 89.6404L37.3146 89.5358C37.5209 89.4937 37.7413 89.4384 37.9811 89.3831C38.4579 89.2672 39.0067 89.1548 39.5976 88.973C39.8953 88.8852 40.207 88.7974 40.5311 88.7096C40.8551 88.6218 41.1853 88.4945 41.5304 88.3812C42.2241 88.1634 42.9451 87.8718 43.7073 87.5777C46.9996 86.243 50.0913 84.4593 52.8949 82.2774C53.5315 81.7654 54.1436 81.2868 54.6802 80.796C54.9515 80.5527 55.2219 80.328 55.4651 80.0935L56.1633 79.4201C56.6164 78.9986 56.9887 78.5806 57.3277 78.2267C57.4945 78.0511 57.6535 77.8833 57.794 77.7261L58.1671 77.287L58.6791 76.6785C58.742 76.6103 58.7989 76.5369 58.8494 76.459C58.7796 76.5196 58.7147 76.5857 58.6554 76.6565L58.1206 77.2441L57.736 77.6708L57.2618 78.1599C56.9167 78.5111 56.54 78.9186 56.0834 79.334L55.3809 79.997C55.1359 80.2261 54.8645 80.4474 54.5905 80.6872C54.0523 81.1728 53.4385 81.6451 52.8018 82.1535C49.999 84.312 46.9211 86.0875 43.6493 87.4329C42.8923 87.7305 42.1758 88.0247 41.4865 88.2477C41.144 88.3636 40.8165 88.4865 40.4942 88.584L39.5677 88.8606C38.9803 89.0468 38.4367 89.1671 37.9625 89.2918L37.3005 89.4577L36.7402 89.5763L35.9639 89.7457C35.8725 89.7614 35.7827 89.7849 35.6953 89.816C35.786 89.8103 35.8761 89.7976 35.9649 89.7782Z" fill="#455A64"/>
    <path d="M43.1322 131.075L43.0761 130.754C43.0251 130.474 42.94 130.06 42.8609 129.525C42.6197 128.015 42.4552 126.493 42.3683 124.966C42.2462 123.034 42.2278 120.727 42.3033 118.166C42.3788 115.606 42.5377 112.793 42.6756 109.838C42.9522 103.934 43.2025 98.5861 43.3834 94.7048C43.4659 92.773 43.5327 91.2108 43.5801 90.1175C43.5976 89.5836 43.6126 89.1647 43.6232 88.8706L43.6301 88.5457C43.6332 88.5089 43.6332 88.4719 43.6301 88.4351C43.6218 88.4711 43.6171 88.5079 43.6161 88.5448L43.5933 88.8688L43.5168 90.1149C43.458 91.2064 43.3729 92.772 43.2684 94.6995C43.0743 98.5807 42.8074 103.926 42.5115 109.831C42.3736 112.785 42.2217 115.598 42.1523 118.162C42.0829 120.726 42.1163 123.04 42.2533 124.975C42.3501 126.505 42.5321 128.028 42.7985 129.537C42.8864 130.072 42.9821 130.483 43.0436 130.766L43.1165 131.083C43.1226 131.12 43.1329 131.155 43.1472 131.19C43.1458 131.151 43.1407 131.112 43.1322 131.075Z" fill="#455A64"/>
    <path d="M46.1112 112.978C46.0936 112.789 46.0705 112.533 46.0418 112.213C45.9786 111.53 45.8881 110.572 45.7783 109.396C45.5623 107.017 45.2998 103.729 45.1092 100.088C44.9187 96.4461 44.8327 93.1506 44.7967 90.7595C44.7817 89.5775 44.7703 88.6151 44.7624 87.931C44.7571 87.6084 44.7531 87.3518 44.7502 87.1609C44.7521 87.0714 44.7471 86.9818 44.7351 86.8931C44.7211 86.9816 44.7149 87.0713 44.7167 87.1609L44.6966 87.931C44.6825 88.5993 44.6746 89.5661 44.6773 90.7612C44.6825 93.1505 44.7483 96.4549 44.9406 100.096C45.1329 103.738 45.414 107.034 45.6599 109.404C45.7819 110.593 45.889 111.554 45.975 112.214C46.0172 112.534 46.0506 112.788 46.0761 112.978C46.0838 113.066 46.0991 113.155 46.1218 113.241C46.1249 113.153 46.1213 113.066 46.1112 112.978Z" fill="#455A64"/>
    <path d="M67.2608 132.8C66.8497 132.623 66.3881 132.601 65.962 132.739C65.0374 132.923 59.6107 138.843 59.6107 138.843L57.8975 139.411L61.4617 136.255C62.2609 135.439 62.9827 134.551 63.6175 133.602C63.7565 133.424 63.8534 133.216 63.901 132.996C63.9485 132.775 63.9456 132.546 63.8923 132.326C63.839 132.107 63.7367 131.902 63.5932 131.728C63.4497 131.553 63.2686 131.413 63.0635 131.319C62.0765 130.704 60.2807 133.043 60.2807 133.043L56.5294 136.064L53.816 136.619L55.6047 135.88C56.6751 134.782 57.6644 133.608 58.5648 132.367C59.4895 130.948 58.5034 130.517 58.5034 130.517C58.5034 130.517 50.3009 134.218 49.5615 135.083C48.8221 135.948 44.0127 142.547 44.0127 142.547L51.4767 149.208C51.4767 149.208 54.313 147.789 56.1632 146.802C57.5819 146.01 58.9594 145.146 60.2903 144.214L64.6142 141.254L69.6695 132.931C68.6131 131.011 67.2608 132.8 67.2608 132.8Z" fill="#FFBE9D"/>
    <path d="M56.8207 143.023L58.3671 142.436L60.6563 141.553L62.0016 141.017L62.7041 140.72C62.8235 140.67 62.9368 140.613 63.0554 140.558C63.1565 140.496 63.2423 140.413 63.3065 140.314C64.5895 138.623 65.6352 136.993 66.3965 135.825L67.2747 134.425C67.3709 134.246 67.482 134.076 67.6066 133.917C67.5369 134.108 67.4486 134.292 67.3432 134.466C67.1605 134.812 66.8795 135.305 66.5168 135.903C65.7827 137.095 64.7606 138.734 63.4654 140.444C63.3832 140.565 63.2746 140.667 63.1476 140.741C63.0264 140.798 62.9052 140.86 62.7858 140.908C62.5461 141.013 62.308 141.109 62.0745 141.205L60.7204 141.732C59.8555 142.057 59.0731 142.342 58.4137 142.574C57.7133 142.86 56.9889 143.083 56.249 143.241C56.2569 143.228 56.4563 143.166 56.8207 143.023Z" fill="#EB996E"/>
    <path d="M55.7506 139.905C56.4819 139.675 57.2288 139.499 57.9854 139.378C57.2856 139.698 56.553 139.941 55.8007 140.102C55.0613 140.329 54.2907 140.437 53.5176 140.422C53.5149 140.367 54.5274 140.219 55.7506 139.905Z" fill="#EB996E"/>
    <path d="M50.3252 137.142C50.846 137.054 51.5642 136.93 52.3554 136.779C53.3062 136.555 54.272 136.4 55.2452 136.314C54.9802 136.426 54.7029 136.505 54.419 136.552C53.9044 136.671 53.1896 136.834 52.3993 136.983C51.609 137.132 50.8776 137.236 50.3489 137.285C50.0649 137.333 49.7757 137.342 49.4893 137.311C49.761 137.225 50.0413 137.168 50.3252 137.142Z" fill="#EB996E"/>
    <path d="M44.6322 141.695L33.1043 155.465L33.0867 149.2H19.5752C19.5752 149.2 19.8518 166.574 20.1213 170.283C20.6561 177.65 25.074 179.565 29.605 179.958C34.2028 180.356 35.9362 178.748 37.8286 176.139C39.5848 173.717 52.8355 148.41 52.8355 148.41L44.6322 141.695Z" fill="#FFBE9D"/>
    <path d="M24.2851 170.827C24.2851 170.705 24.2851 170.525 24.3027 170.293C24.3462 169.637 24.4392 168.986 24.581 168.344C25.0726 166.227 25.9229 164.21 27.0951 162.379C28.286 160.569 29.6665 158.891 31.2134 157.374C31.7728 156.798 32.2364 156.32 32.5815 155.969C32.7411 155.789 32.914 155.62 33.0987 155.466C33.0699 155.522 33.0329 155.573 32.9889 155.618L32.6439 156.024C32.3392 156.376 31.8843 156.869 31.3267 157.477C29.8209 159.016 28.4657 160.695 27.2795 162.492C26.1216 164.306 25.2619 166.293 24.7329 168.379C24.5802 169.013 24.4665 169.656 24.3923 170.303C24.3777 170.543 24.3484 170.781 24.3045 171.017C24.2882 170.955 24.2816 170.891 24.2851 170.827Z" fill="#EB996E"/>
    <path d="M74.7945 69.0244L78.8796 69.9613L81.0414 61.6719L77.5711 67.8029L73.5433 66.8932L72.7012 74.7883L74.7945 69.0244Z" fill="#E8505B"/>
    <path d="M77.8634 74.0814L79.6469 76.2846L84.2578 72.7722L79.8524 74.5864L78.0882 72.4209L74.3457 76.2732L77.8634 74.0814Z" fill="#E8505B"/>
    <path d="M30.1973 75.6706L27.1677 77.8422L22.5498 71.7832L27.5023 75.6214L30.4931 73.4921L33.895 79.6801L30.1973 75.6706Z" fill="#E8505B"/>
    <path d="M24.738 82.7372L24.1735 84.6743L20.1807 83.6398L23.5727 83.6197L24.1356 81.7124L27.6481 83.2122L24.738 82.7372Z" fill="#E8505B"/>
    <path d="M102.839 124.749C102.156 126.6 100.922 135.065 100.922 135.065C100.922 135.065 94.0629 171.101 88.4412 174.626C82.8195 178.152 79.6381 169.075 80.3301 164.879C81.022 160.684 93.1698 133.081 93.1698 133.081L92.2917 130.319L102.839 124.749Z" fill="#FFBE9D"/>
    <path d="M103.917 115.631C103.904 115.44 103.853 115.253 103.767 115.082C103.682 114.91 103.563 114.757 103.419 114.632C103.274 114.506 103.106 114.41 102.925 114.349C102.743 114.289 102.551 114.264 102.36 114.277L91.6471 115.028C91.1108 115.065 90.5942 115.245 90.151 115.549C89.7078 115.854 89.3542 116.271 89.1269 116.758L80.9763 134.233C80.7828 134.646 80.7017 135.103 80.7412 135.558C80.7807 136.013 80.9394 136.449 81.2013 136.823C81.4631 137.197 81.8189 137.496 82.2328 137.688C82.6467 137.881 83.1041 137.961 83.5588 137.921L90.7778 137.283C91.5073 137.219 92.2085 136.971 92.8159 136.561C93.4233 136.152 93.9169 135.596 94.2507 134.944L103.757 116.395C103.879 116.159 103.934 115.895 103.917 115.631Z" fill="#4D5A64"/>
    <path d="M98.8411 126.868C98.8411 126.868 99.0958 125.275 97.6917 125.966C96.0233 126.787 94.9976 127.936 93.9842 126.69C93.0429 125.534 94.9501 123.491 94.9501 123.491C93.7779 124.978 92.5599 124.896 92.0831 124.248C91.3525 123.249 92.7926 122.141 93.5109 121.444C94.2134 120.763 99.36 120.58 99.36 120.58C99.36 120.58 98.8577 119.087 98.6505 118.631C98.4433 118.175 96.3042 118.915 95.2847 118.917C94.2652 118.92 93.4915 118.141 93.5706 117.46C93.6496 116.778 99.433 116.182 100.39 116.57C101.347 116.958 102.836 124.753 102.836 124.753L98.8411 126.868Z" fill="#FFBE9D"/>
    <path d="M98.9022 122.824C98.2415 122.537 97.5142 122.439 96.801 122.541C96.0879 122.643 95.417 122.94 94.8629 123.401C94.6161 123.568 94.4216 123.801 94.3018 124.074C94.5444 123.925 94.776 123.759 94.9946 123.576C95.546 123.192 96.1795 122.943 96.8445 122.848C97.5094 122.754 98.1874 122.816 98.8241 123.03C99.085 123.144 99.3538 123.239 99.6284 123.314C99.438 123.085 99.186 122.915 98.9022 122.824Z" fill="#996552"/>
    <path d="M82.5506 156.757C82.5067 156.868 82.433 157.031 82.361 157.248C82.1489 157.859 81.9839 158.485 81.8675 159.121C81.5046 161.23 81.5091 163.386 81.8807 165.494C82.2781 167.598 82.8995 169.653 83.7344 171.625L84.4491 173.429C84.5264 173.654 84.6201 173.873 84.7293 174.085C84.7238 174.024 84.7096 173.965 84.6872 173.909L84.5255 173.406C84.3806 172.967 84.1559 172.348 83.8732 171.579C83.0827 169.603 82.4836 167.556 82.0844 165.466C81.7187 163.378 81.6935 161.244 82.0097 159.148C82.1125 158.516 82.2548 157.89 82.4356 157.276C82.5143 157.053 82.5791 156.827 82.6297 156.596C82.5956 156.646 82.5688 156.7 82.5506 156.757Z" fill="#EB996E"/>
    <path d="M61.4021 62.6365C61.6128 62.4073 61.9106 62.0956 62.2451 61.7584C62.5797 61.4212 62.887 61.1164 63.1144 60.9013C63.0763 60.8503 63.0587 60.7869 63.0652 60.7235C63.0717 60.6602 63.1018 60.6016 63.1495 60.5594C63.1972 60.5172 63.259 60.4944 63.3226 60.4957C63.3863 60.4969 63.4471 60.522 63.4932 60.566C63.5392 60.61 63.5669 60.6698 63.571 60.7333C63.575 60.7968 63.5551 60.8595 63.515 60.909C63.475 60.9585 63.4179 60.9911 63.3549 61.0004C63.2919 61.0097 63.2277 60.9951 63.175 60.9593C62.9643 61.1893 62.6666 61.5011 62.3338 61.8374C62.001 62.1737 61.6927 62.4775 61.4662 62.6927C61.3502 62.8181 61.22 62.9295 61.0781 63.0246C61.1703 62.8828 61.279 62.7525 61.4021 62.6365Z" fill="#E0E0E0"/>
    <path d="M157.247 95.5145L178.033 98.0462C178.033 98.0462 194.759 101.086 198.121 113.613C200.443 122.265 205.249 138.376 208.001 147.52C208.576 149.432 208.465 151.484 207.688 153.323C206.912 155.162 205.518 156.672 203.746 157.592C201.73 158.641 199.379 158.845 197.211 158.161C195.044 157.477 193.237 155.959 192.188 153.943C192.096 153.767 192.011 153.588 191.932 153.404L182.842 132.485C182.842 132.485 179.637 139.793 179.821 143.248C180.005 146.703 189.756 163.283 189.756 163.283L188.338 164.488C176.22 173.836 178.384 174.629 145.873 189.029L144.133 161.595L144.712 128.533C144.712 128.533 138.998 158.032 127.427 155.786C117.728 153.903 124.115 134.995 127.427 127.766C131.653 118.546 137.167 105.388 140.637 102.213C149.941 93.7136 157.247 95.5145 157.247 95.5145Z" fill="#263238"/>
    <g opacity="0.2">
        <g opacity="0.2">
            <g opacity="0.2">
                <path opacity="0.2" d="M176.455 100.082C177.791 101.996 179.387 103.715 181.197 105.188C182.322 106.289 183.632 107.183 185.068 107.829C185.789 108.145 186.576 108.28 187.362 108.222C188.147 108.165 188.907 107.916 189.574 107.498C190.217 107.048 190.659 106.365 190.805 105.594C190.951 104.822 190.79 104.025 190.357 103.371C189.609 102.64 188.647 102.168 187.612 102.025L177.513 99.5352" fill="black"/>
            </g>
        </g>
    </g>
    <path d="M202.963 138.615C202.137 137.904 201.157 137.393 200.101 137.122C199.045 136.852 197.941 136.828 196.874 137.054C199.005 137.035 201.104 137.573 202.963 138.615Z" fill="#2E353A"/>
    <path d="M200.216 135.746C199.535 135.391 198.767 135.242 198.003 135.315C197.239 135.388 196.513 135.682 195.913 136.16C197.276 135.605 198.772 135.462 200.216 135.746Z" fill="#2E353A"/>
    <g opacity="0.2">
        <g opacity="0.2">
            <g opacity="0.2">
                <path opacity="0.2" d="M196.085 137.292C196.996 136.852 198.006 136.658 199.016 136.728C200.025 136.798 200.998 137.13 201.84 137.692C202.191 137.93 202.63 138.219 202.992 138.004C203.343 137.8 203.322 137.272 203.127 136.917C202.846 136.525 202.474 136.205 202.045 135.985C201.615 135.764 201.139 135.649 200.656 135.649C198.916 135.47 197.159 135.752 195.562 136.467" fill="black"/>
            </g>
        </g>
    </g>
    <g opacity="0.2">
        <g opacity="0.2">
            <g opacity="0.2">
                <path opacity="0.2" d="M162.303 123.316C163.397 125.521 166.546 126.901 168.02 129.305C169.264 131.336 169.729 133.731 170.479 135.991C172.59 142.277 176.933 147.571 182.685 150.87C181.546 148.712 180.62 146.447 179.921 144.109C179.77 142.682 179.981 141.241 180.536 139.918C179.822 137.722 176.698 134.699 175.267 132.893C173.625 130.668 171.763 128.613 169.711 126.759C167.642 124.898 165.061 123.701 162.304 123.323" fill="black"/>
            </g>
        </g>
    </g>
    <path d="M136.601 137.638C136.56 138.232 136.574 138.828 136.64 139.419C136.696 140.515 136.821 142.027 136.752 143.69C136.602 145.695 136.168 147.668 135.463 149.551C135.483 149.56 135.57 149.413 135.711 149.138C135.907 148.749 136.081 148.348 136.232 147.939C136.731 146.58 137.016 145.151 137.076 143.705C137.114 142.267 137.045 140.829 136.869 139.402C136.835 138.807 136.745 138.216 136.601 137.638Z" fill="#2E353A"/>
    <path d="M175.313 117.636L167.009 118.183L167.161 120.497L175.465 119.95L175.313 117.636Z" fill="#FAFAFA"/>
    <path d="M135.915 103.894C135.915 103.894 141.766 100.356 142.787 100.382C143.434 100.395 144.08 100.327 144.71 100.181C144.71 100.181 148.062 99.127 148.592 98.5027C149.242 97.9905 149.992 97.6201 150.795 97.4155L153.323 93.9093L172.89 93.3174C174.025 93.6181 175.126 94.0348 176.176 94.5608C176.927 95.0929 178.216 98.6221 178.216 98.6221C178.216 98.6221 190.625 103.15 192.989 105.39" fill="#263238"/>
    <path d="M171.206 105.162C171.155 105.235 171.096 105.302 171.031 105.363L170.493 105.912C170.026 106.388 169.359 107.085 168.573 107.982C166.501 110.3 164.78 112.91 163.465 115.728L163.432 115.802L163.352 115.79L163.259 115.776L158.155 114.971L158.047 114.954L158.075 114.849C158.589 112.949 159.438 111.156 160.582 109.554C160.908 109.098 161.26 108.661 161.636 108.244C161.767 108.098 161.873 107.993 161.943 107.921C161.977 107.882 162.016 107.847 162.058 107.817C161.943 107.981 161.818 108.137 161.684 108.285C161.438 108.587 161.086 109.032 160.682 109.622C159.583 111.231 158.765 113.015 158.266 114.899L158.186 114.777L163.293 115.567L163.387 115.582L163.274 115.643C164.594 112.806 166.345 110.189 168.463 107.885C169.267 106.998 169.956 106.315 170.438 105.856C170.679 105.624 170.877 105.453 171.004 105.334C171.065 105.27 171.133 105.212 171.206 105.162Z" fill="#455A64"/>
    <path d="M159.818 107.397C159.809 107.412 159.73 107.375 159.582 107.352C159.374 107.323 159.163 107.358 158.975 107.453C158.863 107.511 158.765 107.594 158.69 107.695C158.614 107.796 158.561 107.913 158.537 108.037C158.512 108.161 158.515 108.289 158.546 108.411C158.577 108.534 158.635 108.648 158.716 108.745C158.797 108.842 158.898 108.92 159.013 108.973C159.128 109.026 159.253 109.053 159.379 109.051C159.506 109.049 159.63 109.019 159.744 108.963C159.857 108.907 159.956 108.826 160.034 108.727C160.123 108.606 160.18 108.466 160.201 108.318C160.223 108.171 160.208 108.02 160.157 107.879C160.074 107.686 159.941 107.518 159.771 107.394C159.65 107.301 159.573 107.258 159.579 107.243C159.585 107.229 159.672 107.248 159.816 107.324C160.023 107.436 160.19 107.609 160.295 107.82C160.367 107.984 160.396 108.165 160.378 108.344C160.36 108.523 160.297 108.694 160.193 108.842C160.062 109.024 159.875 109.159 159.66 109.224C159.445 109.29 159.215 109.283 159.004 109.204C158.782 109.13 158.593 108.979 158.472 108.777C158.365 108.591 158.315 108.377 158.33 108.163C158.339 107.982 158.399 107.808 158.502 107.659C158.604 107.51 158.746 107.393 158.912 107.32C159.129 107.225 159.373 107.209 159.6 107.275C159.756 107.323 159.823 107.388 159.818 107.397Z" fill="#455A64"/>
    <path d="M151.954 95.0933C151.926 95.1556 151.891 95.2145 151.85 95.2688L151.524 95.7597C151.135 96.3772 150.793 97.023 150.5 97.6916C150.063 98.7068 149.75 99.7712 149.568 100.862C149.323 102.227 149.389 103.63 149.761 104.966L149.566 104.959C149.937 104.026 150.33 103.041 150.736 102.029C150.824 101.81 150.901 101.59 151.016 101.37C151.069 101.251 151.147 101.144 151.244 101.057C151.341 100.969 151.456 100.903 151.58 100.863C151.833 100.813 152.097 100.864 152.312 101.006C152.508 101.128 152.693 101.265 152.867 101.417C153.555 101.98 154.228 102.512 154.876 103.009C156.174 104.003 157.37 104.86 158.388 105.556C159.406 106.252 160.246 106.8 160.827 107.176L161.495 107.61C161.576 107.657 161.653 107.711 161.723 107.773C161.636 107.74 161.552 107.698 161.474 107.648C161.315 107.56 161.083 107.426 160.785 107.247C160.189 106.896 159.337 106.369 158.305 105.682C157.273 104.996 156.063 104.15 154.755 103.165C154.104 102.67 153.425 102.14 152.736 101.578C152.571 101.434 152.395 101.303 152.209 101.186C152.041 101.072 151.834 101.029 151.634 101.064C151.539 101.098 151.451 101.151 151.377 101.22C151.303 101.29 151.244 101.374 151.204 101.467C151.102 101.661 151.024 101.886 150.935 102.104L149.759 105.032L149.65 105.302L149.562 105.025C149.183 103.658 149.123 102.222 149.387 100.828C149.581 99.7263 149.912 98.653 150.373 97.6336C150.68 96.9628 151.043 96.3194 151.46 95.7106C151.607 95.4998 151.734 95.3444 151.811 95.2372C151.853 95.1837 151.901 95.1355 151.954 95.0933Z" fill="#455A64"/>
    <path d="M163.712 107.99C163.777 107.948 163.848 107.914 163.922 107.889L164.536 107.637L166.82 106.747C168.751 106.01 171.416 104.982 174.382 103.897C175.294 103.567 176.23 103.308 177.182 103.123C177.629 103.038 178.082 102.996 178.536 102.997C178.757 103 178.977 103.03 179.191 103.085C179.424 103.126 179.631 103.258 179.767 103.451L179.592 103.504C179.248 101.785 178.959 100.338 178.749 99.2895C178.657 98.7995 178.583 98.4035 178.527 98.1014C178.473 98.1046 178.42 98.0874 178.378 98.053C178.337 98.0187 178.31 97.97 178.303 97.9166C178.296 97.8632 178.31 97.8091 178.341 97.7653C178.373 97.7216 178.419 97.6914 178.472 97.6809C178.525 97.6703 178.58 97.6802 178.626 97.7085C178.671 97.7368 178.705 97.7815 178.719 97.8334C178.733 97.8854 178.727 97.9407 178.702 97.9883C178.677 98.0359 178.635 98.0723 178.584 98.09L178.857 99.2675L179.774 103.464L179.888 103.98L179.597 103.518C179.478 103.386 179.319 103.299 179.145 103.267C178.943 103.219 178.737 103.195 178.53 103.195C178.088 103.197 177.647 103.241 177.213 103.325C176.272 103.512 175.347 103.771 174.445 104.097L166.868 106.887L164.563 107.713L163.931 107.928C163.861 107.957 163.787 107.978 163.712 107.99Z" fill="#455A64"/>
    <path d="M192.107 104.705C191.7 104.374 191.213 104.159 190.695 104.079C189.174 103.724 187.593 103.705 186.063 104.023C184.533 104.342 183.091 104.99 181.838 105.923C180.872 106.637 180.385 107.209 180.355 107.179C180.45 107.031 180.561 106.894 180.688 106.773C181.015 106.423 181.369 106.1 181.747 105.807C182.999 104.822 184.461 104.141 186.019 103.816C187.578 103.491 189.191 103.531 190.731 103.934C191.17 104.043 191.584 104.236 191.951 104.501C192.26 104.639 192.112 104.693 192.107 104.705Z" fill="#455A64"/>
    <path d="M144.096 118.459C144.213 116.212 144.474 113.976 144.878 111.763C145.035 110.915 145.179 110.23 145.294 109.762L145.43 109.223C145.408 109.213 145.39 109.195 145.38 109.173C145.371 109.151 145.369 109.126 145.377 109.103C145.384 109.08 145.4 109.06 145.421 109.048C145.442 109.036 145.467 109.032 145.491 109.037C145.514 109.042 145.535 109.056 145.55 109.076C145.564 109.095 145.571 109.119 145.568 109.143C145.566 109.168 145.554 109.19 145.536 109.206C145.518 109.223 145.495 109.232 145.471 109.232C145.445 109.382 145.413 109.562 145.375 109.779C145.287 110.252 145.163 110.938 145.024 111.788C144.665 114.001 144.426 116.232 144.306 118.471" fill="#455A64"/>
    <path d="M144.904 107.968C144.17 105.794 142.768 103.909 140.897 102.581C141.213 102.707 141.506 102.882 141.768 103.1C143.089 104.085 144.094 105.436 144.658 106.985C144.791 107.298 144.874 107.63 144.904 107.968Z" fill="#455A64"/>
    <path d="M178.437 121.05C178.418 120.891 178.418 120.73 178.437 120.571C178.45 120.264 178.487 119.821 178.547 119.272C178.877 116.418 179.603 113.625 180.706 110.972C180.919 110.464 181.104 110.059 181.242 109.783C181.191 109.751 181.155 109.7 181.14 109.642C181.125 109.583 181.132 109.521 181.161 109.468C181.189 109.415 181.237 109.375 181.293 109.355C181.35 109.335 181.413 109.337 181.468 109.361C181.523 109.385 181.568 109.428 181.592 109.483C181.617 109.538 181.62 109.601 181.601 109.658C181.582 109.715 181.542 109.763 181.49 109.792C181.437 109.821 181.376 109.83 181.317 109.816C181.202 110.1 181.039 110.514 180.845 111.026C179.825 113.693 179.105 116.465 178.697 119.291C178.617 119.833 178.557 120.273 178.521 120.577C178.511 120.737 178.483 120.896 178.437 121.05Z" fill="#455A64"/>
    <path d="M161.122 115.045C161.122 115.045 158.926 116.011 157.219 116.801C154.519 118.04 153.619 115.789 153.619 115.789L161.129 110.36C161.773 109.9 162.502 109.573 163.274 109.399C164.046 109.225 164.845 109.207 165.625 109.346C166.404 109.485 167.147 109.778 167.812 110.209C168.476 110.64 169.047 111.198 169.492 111.853L174.865 119.493L204.1 142.808C208.674 146.455 208.823 152.613 204.198 156.194C202.505 157.512 200.375 158.135 198.239 157.937C196.104 157.739 194.124 156.736 192.702 155.13L168.697 128.017L165.598 125.628L161.952 122.983C161.952 122.983 159.229 121.012 161.471 119.012C162.199 118.365 160.798 118.378 160.658 117.441C160.585 116.951 160.728 116.864 161.583 116.267C161.583 116.264 160.243 116.294 161.122 115.045Z" fill="#AA8776"/>
    <path d="M161.196 115.682C161.236 115.709 161.41 115.498 161.698 115.182C162.047 114.767 162.491 114.444 162.993 114.24C163.239 114.158 163.502 114.134 163.759 114.17C164.017 114.205 164.263 114.299 164.479 114.443C164.806 114.678 164.879 114.954 164.932 114.935C164.965 114.94 164.977 114.606 164.624 114.267C164.389 114.064 164.105 113.926 163.8 113.867C163.496 113.809 163.181 113.831 162.887 113.932C162.327 114.15 161.849 114.536 161.518 115.038C161.265 115.405 161.161 115.659 161.196 115.682Z" fill="#996552"/>
    <path d="M164.942 117.575C164.974 117.55 164.866 117.339 164.574 117.104C164.183 116.799 163.7 116.635 163.205 116.637C162.709 116.639 162.228 116.807 161.839 117.115C161.549 117.352 161.444 117.564 161.475 117.589C161.506 117.613 161.674 117.472 161.969 117.305C162.344 117.082 162.771 116.963 163.206 116.962C163.642 116.96 164.07 117.075 164.446 117.295C164.742 117.46 164.905 117.608 164.942 117.575Z" fill="#996552"/>
    <path d="M164.942 119.785C164.974 119.76 164.866 119.549 164.574 119.314C164.183 119.01 163.7 118.845 163.205 118.847C162.709 118.849 162.228 119.018 161.839 119.326C161.549 119.563 161.444 119.774 161.475 119.798C161.506 119.822 161.674 119.681 161.969 119.514C162.344 119.292 162.771 119.173 163.206 119.171C163.642 119.17 164.07 119.285 164.446 119.505C164.742 119.669 164.905 119.817 164.942 119.785Z" fill="#996552"/>
    <path d="M171.6 83.3367C172.638 80.5225 173.431 77.6238 173.971 74.6731C174.509 71.7088 174.301 68.6572 173.367 65.7928C173.214 65.3652 171.9 62.4902 171.447 62.5297C171.123 62.5578 171.922 65.2352 171.755 65.5153C170.246 68.2493 169.603 71.3769 169.911 74.4844C170.144 77.4899 170.71 80.4602 171.601 83.3402" fill="#263238"/>
    <path d="M163.201 103.86C165.435 103.84 167.574 102.946 169.157 101.369C170.741 99.7921 171.644 97.6576 171.673 95.4229L172.034 71.9025C172.37 64.3911 168.28 57.9344 160.76 57.8062L160.065 57.8351C156.69 57.9739 153.491 59.3784 151.104 61.769C148.718 64.1596 147.319 67.3611 147.186 70.7364C146.931 77.2485 146.731 84.4473 146.923 87.9273C147.31 95.1278 154.563 95.955 154.563 95.955C154.579 95.955 154.583 93.1757 154.579 95.2928C154.575 97.5603 155.471 99.7368 157.071 101.343C158.672 102.95 160.844 103.855 163.112 103.86H163.201Z" fill="#B78876"/>
    <path d="M154.563 95.9551C157.892 95.8093 161.11 94.7123 163.834 92.7939C163.834 92.7939 161.763 98.1311 154.544 97.779L154.563 95.9551Z" fill="#995037"/>
    <path d="M149.949 75.2047C149.958 75.4732 150.071 75.7276 150.265 75.9139C150.458 76.1003 150.717 76.2037 150.986 76.2022C151.115 76.2072 151.244 76.1867 151.365 76.1418C151.487 76.0969 151.598 76.0285 151.693 75.9405C151.788 75.8525 151.865 75.7466 151.919 75.6289C151.973 75.5112 152.003 75.3841 152.008 75.2547C152.008 75.2468 152.008 75.2381 152.008 75.2302C151.999 74.9619 151.887 74.7074 151.694 74.5209C151.501 74.3344 151.242 74.2306 150.974 74.2317C150.713 74.2217 150.458 74.3159 150.266 74.4935C150.074 74.6712 149.961 74.9178 149.95 75.1791C149.949 75.187 149.949 75.1959 149.949 75.2047Z" fill="#263238"/>
    <path d="M148.852 73.6649C148.984 73.7931 149.742 73.1846 150.849 73.138C151.955 73.0792 152.792 73.6157 152.906 73.4752C152.963 73.4129 152.818 73.1758 152.458 72.9325C151.966 72.6189 151.388 72.4655 150.804 72.4935C150.229 72.5161 149.675 72.7205 149.223 73.0775C148.892 73.3602 148.788 73.6069 148.852 73.6649Z" fill="#263238"/>
    <path d="M160.716 75.2037C160.724 75.4723 160.837 75.7268 161.031 75.9132C161.225 76.0996 161.483 76.203 161.752 76.2012C162.013 76.211 162.268 76.1166 162.459 75.9389C162.651 75.7613 162.764 75.5149 162.774 75.2538V75.2291C162.766 74.9608 162.653 74.7063 162.46 74.5198C162.267 74.3334 162.008 74.2297 161.74 74.2307C161.61 74.2257 161.481 74.2462 161.359 74.2912C161.238 74.3361 161.126 74.4045 161.031 74.4926C160.936 74.5807 160.859 74.6867 160.805 74.8045C160.751 74.9223 160.721 75.0495 160.716 75.1791C160.717 75.1878 160.716 75.1958 160.716 75.2037Z" fill="#263238"/>
    <path d="M159.725 73.6641C159.857 73.794 160.615 73.1837 161.722 73.1425C162.828 73.0836 163.664 73.6201 163.779 73.4787C163.835 73.4164 163.696 73.1794 163.331 72.937C162.839 72.6231 162.261 72.4697 161.678 72.4979C161.102 72.5201 160.549 72.7246 160.097 73.0819C159.763 73.3594 159.656 73.6052 159.725 73.6641Z" fill="#263238"/>
    <path d="M156.099 82.3427C155.508 82.1843 154.899 82.1002 154.287 82.0924C154.003 82.0748 153.734 82.0291 153.677 81.8385C153.641 81.547 153.695 81.2514 153.831 80.9912C154.069 80.2951 154.318 79.5658 154.578 78.803C155.279 76.9475 155.83 75.0388 156.225 73.0952C155.377 74.8913 154.674 76.7525 154.123 78.6607L153.41 80.8613C153.247 81.2098 153.211 81.605 153.309 81.9773C153.355 82.0753 153.421 82.1616 153.505 82.2298C153.589 82.298 153.686 82.3462 153.791 82.3707C153.95 82.4068 154.112 82.4227 154.274 82.4181C154.883 82.4705 155.497 82.4452 156.099 82.3427Z" fill="#263238"/>
    <path d="M159.391 82.9714C159.211 82.9714 159.258 84.171 158.264 85.0676C157.27 85.9641 155.981 85.8842 155.981 86.0519C155.967 86.1283 156.276 86.2741 156.818 86.2662C157.523 86.2467 158.198 85.9796 158.725 85.5119C159.231 85.061 159.542 84.4314 159.593 83.7556C159.619 83.2534 159.472 82.9618 159.391 82.9714Z" fill="#263238"/>
    <path d="M159.597 69.1659C159.72 69.4627 160.819 69.274 162.126 69.3768C163.434 69.4532 164.497 69.7912 164.659 69.5137C164.73 69.382 164.536 69.1062 164.101 68.8314C163.52 68.4976 162.871 68.3005 162.203 68.2549C161.534 68.2092 160.864 68.3163 160.244 68.568C159.775 68.7779 159.544 69.0245 159.597 69.1659Z" fill="#263238"/>
    <path d="M149.158 69.9638C149.363 70.2071 150.116 69.9146 151.033 69.8654C151.948 69.7829 152.734 69.9638 152.902 69.6898C152.975 69.5599 152.843 69.3122 152.493 69.0883C152.025 68.8221 151.488 68.7007 150.951 68.7395C150.414 68.7783 149.901 68.9755 149.476 69.3061C149.163 69.581 149.067 69.8444 149.158 69.9638Z" fill="#263238"/>
    <path d="M171.665 77.2653C171.786 77.2074 176.558 75.5969 176.604 80.5302C176.649 85.4634 171.686 84.4931 171.676 84.3517C171.665 84.2103 171.665 77.2653 171.665 77.2653Z" fill="#B78876"/>
    <path d="M173.169 82.4675C173.19 82.4516 173.256 82.5263 173.401 82.5921C173.606 82.6776 173.836 82.6802 174.043 82.5992C174.36 82.3944 174.617 82.1087 174.786 81.7718C174.956 81.4348 175.033 81.0588 175.009 80.6823C175.018 80.2588 174.932 79.8387 174.757 79.4529C174.71 79.2992 174.626 79.1594 174.512 79.0455C174.399 78.9315 174.259 78.8468 174.106 78.7987C174.006 78.7736 173.902 78.7839 173.809 78.8279C173.717 78.8718 173.643 78.9465 173.6 79.0392C173.534 79.178 173.567 79.2764 173.541 79.2843C173.528 79.2966 173.435 79.2027 173.473 78.9989C173.499 78.8764 173.567 78.7666 173.665 78.6881C173.799 78.584 173.969 78.5373 174.138 78.5581C174.341 78.5963 174.531 78.6859 174.689 78.8182C174.848 78.9506 174.97 79.1213 175.044 79.3141C175.257 79.7394 175.364 80.2107 175.354 80.6867C175.383 81.1257 175.281 81.5633 175.062 81.9446C174.842 82.3258 174.515 82.6337 174.121 82.8292C173.988 82.8696 173.848 82.8795 173.711 82.8582C173.575 82.8369 173.444 82.785 173.33 82.7063C173.178 82.5869 173.151 82.4762 173.169 82.4675Z" fill="#995037"/>
    <path d="M150.377 62.5595C149.578 62.1204 151.974 59.5318 153.935 58.6396C156.901 57.2926 161.429 56.461 164.165 57.2346C167.457 58.1663 170.195 59.8032 171.849 62.7993C173.443 65.8504 174.197 69.2704 174.033 72.7087C174.074 73.7577 173.835 74.7988 173.339 75.7243C172.651 76.8158 171.328 77.5033 171.388 79.0084C171.407 79.2809 171.371 79.5544 171.283 79.8131C171.195 80.0717 171.057 80.3103 170.876 80.5152C169.974 81.4767 168.87 80.574 168.361 79.6696C167.275 77.7377 167.153 75.43 167.057 73.2154C166.903 71.6446 167.007 70.059 167.366 68.5219C167.607 67.6991 167.995 66.922 168.19 66.0878C168.314 65.6762 168.346 65.2427 168.286 64.8172C168.225 64.3917 168.073 63.9845 167.839 63.6238C167.718 63.4765 167.584 63.3409 167.437 63.2189C166.749 62.6194 165.913 62.214 165.016 62.0442C164.118 61.8745 163.192 61.9465 162.332 62.253C159.554 63.2374 154.808 64.7118 153.569 63.766C152.684 63.1818 151.931 62.4184 151.358 61.5251L150.377 62.5595Z" fill="#263238"/>
    <path d="M154.544 97.7784C154.497 98.4522 154.521 99.1293 154.616 99.7981C155.345 100.488 161.465 105.392 161.465 105.392C161.465 105.392 170.762 101.149 171.277 100.404C171.792 99.6584 171.687 94.5522 171.687 94.5522L154.544 97.7784Z" fill="#B78876"/>
    <path d="M142.657 96.2281C142.784 96.4867 142.831 96.7772 142.793 97.0628C142.755 97.3485 142.634 97.6165 142.443 97.8329C142.253 98.0493 142.003 98.2045 141.724 98.2787C141.446 98.3529 141.152 98.3429 140.879 98.2499C140.606 98.1569 140.367 97.9851 140.192 97.7562C140.017 97.5274 139.914 97.2517 139.896 96.9641C139.877 96.6765 139.944 96.39 140.089 96.1406C140.233 95.8913 140.449 95.6904 140.707 95.5634C141.054 95.3934 141.454 95.3679 141.819 95.4926C142.185 95.6172 142.486 95.8817 142.657 96.2281Z" fill="#FAFAFA"/>
    <path d="M139.828 108.784L137.765 111.018C137.765 111.018 137.079 142.637 135.876 146.933C134.673 151.23 127.628 158.446 123.846 152.605C120.063 146.764 129.517 109.476 129.517 109.476C129.517 109.476 132.095 100.883 132.266 98.8213L139.828 108.784Z" fill="#AA8776"/>
    <path d="M135.092 90.4708L135.905 112.313C135.934 113.08 136.156 113.828 136.552 114.486C136.948 115.143 137.504 115.69 138.169 116.075L144.748 119.88C145.161 120.12 145.631 120.246 146.11 120.247C146.588 120.247 147.058 120.121 147.473 119.882C147.887 119.643 148.231 119.299 148.47 118.885C148.709 118.47 148.835 118 148.834 117.522V97.2982C148.834 96.7347 148.683 96.1815 148.397 95.696C148.111 95.2104 147.701 94.8101 147.208 94.5365L137.364 89.0763C137.126 88.9446 136.858 88.8783 136.587 88.8841C136.316 88.89 136.051 88.9679 135.82 89.1098C135.589 89.2517 135.4 89.4526 135.272 89.6917C135.144 89.9309 135.082 90.1997 135.092 90.4708Z" fill="#4D5A64"/>
    <path d="M132.264 98.8165C132.264 98.8165 137.136 92.069 138.216 92.1244C139.296 92.1797 144.529 95.3093 144.302 95.9925C144.194 96.1837 144.05 96.3517 143.877 96.4867C143.704 96.6218 143.506 96.7214 143.295 96.7795C143.083 96.8376 142.862 96.8532 142.644 96.8255C142.427 96.7977 142.217 96.727 142.026 96.6176C141.061 96.1619 139.354 94.5102 138.953 94.8544C138.553 95.1987 137.416 96.3903 137.416 96.3903C137.416 96.3903 142.228 98.849 142.597 99.8026C142.972 100.782 143.849 102.475 142.711 103.102C141.97 103.509 140.78 103.045 140.322 101.111C140.322 101.111 141.232 103.898 139.826 104.581C138.312 105.316 137.848 103.77 136.624 102.249C135.596 100.97 135.132 102.6 135.132 102.6L132.264 98.8165Z" fill="#AA8776"/>
    <path d="M135.951 98.8754C136.245 98.926 136.543 98.9554 136.842 98.9633C137.542 99.0417 138.214 99.2829 138.804 99.6678C139.394 100.053 139.885 100.57 140.239 101.18C140.366 101.451 140.513 101.712 140.678 101.962C140.685 101.649 140.603 101.342 140.443 101.073C140.12 100.39 139.614 99.81 138.982 99.3973C138.349 98.9846 137.614 98.7555 136.859 98.7358C136.549 98.6949 136.234 98.7433 135.951 98.8754Z" fill="#996552"/>
    <path d="M33.0277 15.2854C34.4739 14.1439 36.2575 13.5137 38.0997 13.4931C41.9195 13.4861 44.6347 15.3196 46.3892 18.6547C46.4273 18.7456 46.4906 18.8238 46.5716 18.88C46.6527 18.9361 46.7481 18.968 46.8467 18.9717C49.3446 19.2184 51.6653 20.3725 53.3693 22.2154C54.4491 23.3063 55.2321 24.6551 55.6438 26.1338C56.0555 27.6124 56.0824 29.1719 55.7217 30.6638C55.4181 32.0196 54.8203 33.292 53.9705 34.3912C53.1208 35.4904 52.0399 36.3895 50.8043 37.0248C50.7217 37.0648 50.6531 37.1286 50.6071 37.2079C50.5611 37.2873 50.5398 37.3786 50.5462 37.4701C50.5191 38.396 50.4243 39.3187 50.2626 40.2308C49.669 42.6619 48.1821 44.7805 46.0977 46.1652C44.0133 47.55 41.4841 48.0996 39.013 47.7045C37.9859 47.5253 36.9896 47.2 36.0546 46.7386C34.7316 48.4145 32.9966 49.7188 31.0192 50.5244C29.0417 51.3299 26.8892 51.609 24.7717 51.3346C22.6362 51.1529 20.5884 50.4027 18.8407 49.1622C17.093 47.9216 15.7093 46.2358 14.8332 44.2799L14.4495 44.3676C12.5361 44.8509 10.5275 44.805 8.63817 44.235C6.47063 43.6486 4.51998 42.4453 3.02346 40.7712C1.52694 39.0972 0.548901 37.0245 0.208179 34.805C-0.370219 31.7509 0.267542 28.5916 1.98542 26.001C3.7033 23.4104 6.36537 21.5935 9.40384 20.9378C9.51785 20.9238 9.62409 20.8726 9.70602 20.7921C9.78794 20.7116 9.84097 20.6063 9.85694 20.4926C10.4948 18.0604 11.8962 15.8969 13.855 14.3203C16.4107 12.2309 19.6325 11.13 22.9324 11.2183C26.2324 11.3066 29.3906 12.5784 31.8309 14.8015C32.104 15.0518 32.3305 15.353 32.5843 15.6348C32.7801 15.4803 32.9022 15.3802 33.0277 15.2854ZM8.44051 43.1093C10.5066 43.8114 12.7414 43.8455 14.828 43.2068C15.3171 43.0628 15.5015 43.1444 15.6912 43.5826C16.3902 45.3254 17.5343 46.8542 19.0093 48.0162C20.4843 49.1783 22.2384 49.9328 24.0964 50.2045C25.9749 50.5852 27.9196 50.4801 29.7461 49.8991C31.5726 49.318 33.2205 48.2804 34.5338 46.8843C34.8215 46.5794 35.0925 46.2594 35.346 45.9255C35.684 45.5022 35.8491 45.4548 36.3259 45.7138C37.7369 46.4839 39.3295 46.8591 40.9358 46.7997C42.5421 46.7404 44.1027 46.2487 45.453 45.3766C46.8033 44.5046 47.8933 43.2844 48.6081 41.8446C49.3228 40.4049 49.636 38.7989 49.5144 37.1961C49.4634 36.6148 49.5038 36.5507 50.0412 36.2723C51.1448 35.7444 52.1238 34.9884 52.9135 34.0541C53.7032 33.1199 54.2857 32.0286 54.6224 30.8526C55.0921 29.1862 55.0295 27.4148 54.4436 25.7857C53.8576 24.1566 52.7775 22.7513 51.354 21.7659C49.9086 20.7099 48.197 20.0788 46.412 19.9438C46.2329 19.9415 46.0589 19.884 45.9137 19.7792C45.7685 19.6744 45.6591 19.5273 45.6006 19.3581C45.1824 18.3548 44.5607 17.4492 43.7748 16.6985C42.9888 15.9478 42.0558 15.3682 41.0344 14.9964C39.7151 14.4813 38.2775 14.3482 36.886 14.6122C35.4945 14.8762 34.2055 15.5267 33.1665 16.4893C32.6195 16.9511 32.4754 16.9476 31.9969 16.4199C30.7263 14.9656 29.1297 13.8326 27.3376 13.1133C25.5454 12.394 23.6085 12.109 21.6851 12.2813C19.9671 12.3572 18.2857 12.8024 16.7553 13.5866C15.2248 14.3708 13.8813 15.4755 12.8162 16.8256C11.7847 18.0994 11.0665 19.5976 10.7193 21.1995C10.6122 21.6754 10.5235 21.7597 10.0563 21.8379C7.74897 22.2367 5.632 23.3699 4.02067 25.0689C2.40934 26.7679 1.38971 28.9418 1.11352 31.267C1.06083 31.728 1.03806 32.1917 1.01962 32.4323C0.965091 34.769 1.65458 37.0625 2.98863 38.9816C4.32268 40.9008 6.23227 42.3463 8.44147 43.1093H8.44051Z" fill="#6D6D6D"/>
    <path d="M35.9683 54.2726C36.3184 53.6331 36.8045 53.0783 37.3925 52.6473C37.9805 52.2163 38.6559 51.9197 39.3711 51.7782C40.0862 51.6368 40.8237 51.6541 41.5315 51.8288C42.2393 52.0036 42.9001 52.3315 43.4673 52.7895C43.9498 53.1641 44.3473 53.637 44.6333 54.1768C44.9194 54.7165 45.0875 55.3109 45.1265 55.9205C45.1655 56.5302 45.0746 57.1411 44.8597 57.7129C44.6448 58.2847 44.3108 58.8044 43.88 59.2375C43.1171 59.9998 42.13 60.4973 41.0634 60.6569C39.9968 60.8166 38.9071 60.6299 37.9545 60.1244C37.2261 59.7593 36.6123 59.2006 36.1806 58.5096C35.7489 57.8185 35.5159 57.0218 35.5072 56.2071C35.4978 55.534 35.6563 54.8691 35.9683 54.2726ZM38.4049 59.205C39.1694 59.6157 40.046 59.7687 40.9044 59.6414C41.7629 59.514 42.5573 59.113 43.1696 58.4981C43.5198 58.1365 43.7834 57.7001 43.9404 57.2219C44.0975 56.7436 44.144 56.236 44.0764 55.7371C44.0087 55.2383 43.8288 54.7613 43.55 54.3421C43.2713 53.923 42.901 53.5725 42.4672 53.3172C41.6627 52.8145 40.7067 52.6116 39.7674 52.7439C38.828 52.8763 37.9654 53.3355 37.3311 54.0408C36.7565 54.7264 36.468 55.6069 36.5258 56.4995C36.5787 57.0743 36.7796 57.6257 37.1089 58.0999C37.4382 58.574 37.8847 58.9547 38.4049 59.205Z" fill="#6D6D6D"/>
    <path d="M48.9331 68.0759C48.252 68.0475 47.5942 67.8195 47.0416 67.4201C46.4891 67.0207 46.0661 66.4677 45.8254 65.8298C45.5847 65.1919 45.5369 64.4974 45.6879 63.8326C45.8389 63.1678 46.182 62.562 46.6746 62.0906C47.1672 61.6193 47.7875 61.3032 48.4584 61.1816C49.1292 61.0601 49.821 61.1386 50.4476 61.4072C51.0743 61.6758 51.6081 62.1227 51.9827 62.6923C52.3573 63.2619 52.5561 63.929 52.5545 64.6108C52.5321 65.55 52.1385 66.4421 51.4597 67.0916C50.781 67.741 49.8724 68.095 48.9331 68.0759ZM46.3313 64.6118C46.3043 65.1309 46.4334 65.6461 46.7018 66.0912C46.9703 66.5363 47.3659 66.8908 47.8376 67.109C48.3094 67.3273 48.8356 67.3993 49.3486 67.3158C49.8616 67.2323 50.338 66.9971 50.7162 66.6405C51.0943 66.2839 51.357 65.8223 51.4705 65.3151C51.5839 64.8078 51.543 64.2782 51.3528 63.7944C51.1626 63.3107 50.8318 62.895 50.4033 62.6009C49.9747 62.3067 49.4679 62.1477 48.9481 62.1442C48.614 62.1332 48.2809 62.1885 47.9682 62.3067C47.6555 62.425 47.3693 62.604 47.1261 62.8334C46.8828 63.0627 46.6874 63.3379 46.551 63.6431C46.4146 63.9483 46.3399 64.2776 46.3313 64.6118Z" fill="#6D6D6D"/>
    <path d="M34.2683 24.1933L14.1035 29.5581L16.7606 39.5455L36.9254 34.1808L34.2683 24.1933Z" fill="#92E3A9"/>
    <path opacity="0.5" d="M36.9222 34.2262L34.2491 24.2402L14.042 29.5871L16.7149 39.5731L36.9222 34.2262ZM15.0641 30.1377L33.6986 25.2202L35.9396 33.673L17.305 38.6264L15.0641 30.1377Z" fill="black"/>
    <path opacity="0.5" d="M18.0506 36.9376L20.5268 36.2693C20.5911 36.2505 20.6586 36.2447 20.7252 36.2522C20.7918 36.2597 20.8563 36.2804 20.9148 36.3131C20.9734 36.3458 21.0248 36.3898 21.0661 36.4426C21.1074 36.4954 21.1378 36.5559 21.1555 36.6205C21.1744 36.6849 21.1804 36.7524 21.173 36.8192C21.1655 36.8859 21.1448 36.9505 21.1121 37.0091C21.0794 37.0677 21.0353 37.1193 20.9825 37.1607C20.9296 37.2021 20.8691 37.2325 20.8043 37.2502L18.328 37.9184C18.2636 37.9372 18.1962 37.9431 18.1296 37.9356C18.0629 37.928 17.9986 37.9073 17.9401 37.8746C17.8815 37.8419 17.83 37.7979 17.7887 37.7451C17.7474 37.6923 17.717 37.6318 17.6993 37.5671C17.6803 37.5027 17.6744 37.4352 17.6818 37.3685C17.6893 37.3018 17.71 37.2372 17.7427 37.1786C17.7754 37.12 17.8195 37.0685 17.8723 37.0271C17.9252 36.9857 17.9858 36.9553 18.0506 36.9376Z" fill="black"/>
    <path opacity="0.5" d="M30.1986 26.5196L32.6748 25.8513C32.7392 25.8325 32.8066 25.8267 32.8733 25.8342C32.9399 25.8418 33.0044 25.8625 33.0629 25.8952C33.1214 25.9279 33.1729 25.9719 33.2142 26.0247C33.2556 26.0775 33.2859 26.138 33.3036 26.2026C33.3224 26.267 33.3283 26.3344 33.3208 26.401C33.3133 26.4676 33.2925 26.5321 33.2598 26.5906C33.2271 26.6491 33.1831 26.7006 33.1303 26.7419C33.0775 26.7832 33.017 26.8136 32.9524 26.8313L30.4761 27.4996C30.4118 27.5184 30.3443 27.5242 30.2777 27.5167C30.2111 27.5092 30.1466 27.4884 30.0881 27.4557C30.0296 27.423 29.9782 27.379 29.9368 27.3263C29.8955 27.2735 29.865 27.213 29.8473 27.1483C29.8243 27.0841 29.8153 27.0157 29.821 26.9476C29.8266 26.8796 29.8467 26.8136 29.88 26.7541C29.9133 26.6945 29.959 26.6427 30.0139 26.6023C30.0689 26.5618 30.1318 26.5336 30.1986 26.5196Z" fill="black"/>
    <path d="M42.9756 37.6066C43.2945 37.8009 43.6637 37.8963 44.0368 37.8807C44.4099 37.8651 44.77 37.7393 45.0715 37.5191C45.3731 37.2989 45.6025 36.9942 45.7309 36.6435C45.8592 36.2929 45.8808 35.9121 45.7927 35.5492C45.7047 35.1864 45.5111 34.8578 45.2363 34.605C44.9615 34.3522 44.6179 34.1865 44.2489 34.129C43.88 34.0715 43.5022 34.1247 43.1635 34.2818C42.8248 34.4389 42.5403 34.6929 42.346 35.0118C42.2153 35.223 42.1279 35.4581 42.0888 35.7034C42.0497 35.9487 42.0597 36.1994 42.1183 36.4408C42.1769 36.6822 42.2828 36.9095 42.43 37.1097C42.5772 37.3098 42.7626 37.4787 42.9756 37.6066Z" fill="#FFBC31"/>
    <path d="M34.2683 24.1933L14.1035 29.5581L16.7606 39.5455L36.9254 34.1808L34.2683 24.1933Z" stroke="#263238" stroke-width="0.399841" stroke-linecap="round" stroke-linejoin="round"/>
    <path d="M24.3041 29.0875C23.7249 29.3325 23.2315 29.7437 22.886 30.2692C22.5406 30.7946 22.3587 31.4107 22.3634 32.0395C22.368 32.6683 22.5591 33.2817 22.9123 33.8019C23.2655 34.3222 23.7651 34.726 24.3478 34.9624C24.9305 35.1988 25.5703 35.257 26.1861 35.1298C26.802 35.0026 27.3662 34.6956 27.8076 34.2478C28.249 33.7999 28.5477 33.2311 28.6659 32.6135C28.7841 31.9959 28.7165 31.3571 28.4717 30.7778C28.1401 30.0036 27.5162 29.3916 26.7357 29.0751C25.9552 28.7585 25.0813 28.763 24.3041 29.0875Z" fill="#5E936D"/>
    <path d="M23.7541 31.3282C23.7359 31.25 23.7455 31.1679 23.7815 31.0961C23.8174 31.0242 23.8773 30.9672 23.9508 30.9348L24.973 30.502C24.7795 30.7074 24.6564 30.9691 24.6217 31.2492L24.1888 31.4459C24.1132 31.4724 24.0314 31.4753 23.9542 31.4543C23.8769 31.4333 23.8078 31.3893 23.756 31.3282H23.7541Z" fill="#92E3A9"/>
    <path d="M23.8713 32.7039C23.8531 32.6256 23.8627 32.5435 23.8987 32.4716C23.9346 32.3998 23.9945 32.3428 24.068 32.3105L24.6186 32.0742C24.6393 32.1673 24.6654 32.2591 24.6967 32.3491C24.7362 32.4281 24.7757 32.4677 24.8153 32.5458L24.3042 32.782C24.2725 32.8101 24.235 32.8306 24.1943 32.842C24.1536 32.8534 24.1108 32.8554 24.0692 32.8479C24.0276 32.8403 23.9882 32.8235 23.9541 32.7985C23.9199 32.7736 23.892 32.7412 23.8722 32.7039H23.8713Z" fill="#92E3A9"/>
    <path d="M24.1477 34.1194C24.1294 34.0412 24.1391 33.959 24.175 33.8872C24.2109 33.8154 24.2708 33.7583 24.3444 33.726L25.327 33.2939C25.5334 33.4485 25.7782 33.5436 26.0348 33.5688L24.5806 34.1976C24.5411 34.1976 24.5016 34.2371 24.4629 34.2371H24.4234C24.4019 34.2397 24.3802 34.2376 24.3597 34.2307C24.3392 34.2239 24.3204 34.2126 24.3048 34.1976C24.2258 34.2371 24.1863 34.1975 24.1477 34.1194Z" fill="#92E3A9"/>
    <path d="M26.7416 31.3239L26.5449 30.891C26.6812 30.8211 26.8126 30.7422 26.9383 30.6548C27.0437 30.7898 27.1358 30.9348 27.2132 31.0877L26.7416 31.3239Z" fill="#92E3A9"/>
    <path d="M25.17 31.9963C25.0776 31.7578 25.0637 31.496 25.1304 31.249H25.5238C25.558 31.4373 25.6106 31.6217 25.681 31.7996L25.17 31.9963Z" fill="#92E3A9"/>
    <path d="M25.2861 32.311L25.7577 32.1143C25.8343 32.2797 25.9264 32.4375 26.0325 32.5858C25.9223 32.6567 25.8286 32.7504 25.7577 32.8606C25.5518 32.7256 25.3883 32.535 25.2861 32.311Z" fill="#92E3A9"/>
    <path d="M26.3868 30.6607L26.1514 30.0706C26.2068 30.0649 26.2625 30.0789 26.3086 30.1101C26.4148 30.1525 26.5091 30.22 26.5835 30.3068L26.7406 30.464C26.6581 30.5026 26.5448 30.5816 26.3868 30.6607Z" fill="#92E3A9"/>
    <path d="M26.0732 33.019L26.3095 32.7827C26.349 32.8617 26.4272 32.9004 26.5062 32.9794C26.5509 33.0279 26.6043 33.0678 26.6634 33.0971C26.6687 33.097 26.6738 33.0979 26.6787 33.0998C26.6835 33.1018 26.6879 33.1047 26.6916 33.1084C26.6953 33.1121 26.6982 33.1165 26.7001 33.1213C26.702 33.1262 26.703 33.1314 26.7029 33.1366L26.7424 33.1761H26.428C26.3885 33.1761 26.3491 33.1366 26.2709 33.1366C26.2314 33.1366 26.1918 33.0971 26.1532 33.0971C26.1119 33.0576 26.0732 33.0576 26.0732 33.019Z" fill="#92E3A9"/>
    <path d="M25.7588 30.8562V30.62C25.7616 30.5107 25.7886 30.4033 25.8378 30.3056C25.8773 30.2661 25.8773 30.2275 25.9168 30.188L26.153 30.7772C26.0185 30.7845 25.8857 30.8111 25.7588 30.8562Z" fill="#92E3A9"/>
    <path d="M26.5449 29.9517H26.7416C26.8621 29.9592 26.9806 29.9855 27.0929 30.0298C27.1034 30.0298 27.1135 30.034 27.1209 30.0414C27.1283 30.0488 27.1324 30.0588 27.1324 30.0693C27.1324 30.0798 27.1283 30.0898 27.1209 30.0972C27.1135 30.1046 27.1034 30.1088 27.0929 30.1088L26.8962 30.3055C26.8567 30.2273 26.7785 30.1878 26.6995 30.1088C26.7021 30.0693 26.624 29.9912 26.5449 29.9517Z" fill="#92E3A9"/>
    <path d="M27.3711 32.9397L27.1357 32.3496C27.2534 32.3101 27.4106 32.2714 27.5291 32.2319V32.4682C27.5263 32.5775 27.4994 32.6849 27.4501 32.7825C27.4097 32.8607 27.4098 32.9002 27.3711 32.9397Z" fill="#92E3A9"/>
    <path d="M27.016 32.075L26.8193 31.642L27.2909 31.4453C27.3665 31.6076 27.4194 31.7796 27.4481 31.9564C27.2971 31.9636 27.1495 32.0041 27.016 32.075Z" fill="#92E3A9"/>
    <path d="M25.9561 31.6815C25.8803 31.5192 25.8274 31.3472 25.7988 31.1704C25.956 31.1309 26.1132 31.0914 26.2318 31.0527L26.4285 31.4848L25.9561 31.6815Z" fill="#92E3A9"/>
    <path d="M25.1689 30.9349V30.8954C25.2085 30.8163 25.2471 30.6986 25.2866 30.6205C25.3402 30.5325 25.4065 30.4529 25.4833 30.3843C25.4833 30.4238 25.4833 30.4238 25.4438 30.4633C25.4497 30.5313 25.436 30.5996 25.4042 30.66V30.9349H25.1689Z" fill="#92E3A9"/>
    <path d="M27.7207 32.7435C27.753 32.6553 27.7665 32.5614 27.7603 32.4677V32.1929H28.0747V32.2719C27.9825 32.4469 27.863 32.6061 27.7207 32.7435Z" fill="#92E3A9"/>
    <path d="M26.0732 31.957L26.5449 31.7603L26.7416 32.1923C26.6053 32.2621 26.4739 32.3411 26.3482 32.4285C26.2422 32.2802 26.15 32.1223 26.0732 31.957Z" fill="#92E3A9"/>
    <path d="M26.5049 32.6645C26.6132 32.5843 26.7311 32.5182 26.856 32.4678L27.0923 33.057C27.0369 33.0628 26.9812 33.0487 26.9352 33.0175C26.829 32.9751 26.7347 32.9076 26.6603 32.8208C26.6226 32.7821 26.5444 32.7426 26.5049 32.6645Z" fill="#92E3A9"/>
    <path d="M167.403 38.8915C167.404 39.9538 167.164 41.0024 166.7 41.9581C166.236 42.9138 165.561 43.7515 164.726 44.4078C164.065 44.9011 163.608 45.6198 163.442 46.4275L163.392 46.4178H157.373L157.303 46.4275C157.18 45.6641 156.772 44.9758 156.161 44.5018C155.203 43.783 154.445 42.831 153.958 41.7363C153.471 40.6417 153.272 39.4408 153.38 38.2477C153.488 37.0546 153.9 35.909 154.576 34.9197C155.251 33.9304 156.169 33.1304 157.241 32.5956C158.313 32.0609 159.504 31.8092 160.701 31.8644C161.897 31.9197 163.06 32.28 164.078 32.9113C165.096 33.5426 165.936 34.4237 166.518 35.471C167.1 36.5184 167.404 37.697 167.401 38.895L167.403 38.8915Z" fill="#FFC107"/>
    <path d="M160.382 31.8706C159.877 31.8709 159.373 31.9245 158.879 32.0304C157.565 32.3156 156.36 32.9724 155.409 33.9227C154.457 34.873 153.799 36.0767 153.512 37.3906C153.225 38.7044 153.322 40.0729 153.791 41.3333C154.26 42.5937 155.081 43.6928 156.157 44.4997C156.768 44.9737 157.176 45.662 157.298 46.4254L157.368 46.4157H160.378V31.8706H160.382Z" fill="#DEA806"/>
    <path d="M166.973 33.0521C166.824 33.0519 166.679 33.0076 166.556 32.9249C166.432 32.8421 166.336 32.7246 166.279 32.5871C166.222 32.4496 166.207 32.2984 166.236 32.1525C166.265 32.0066 166.337 31.8726 166.442 31.7674L167.83 30.3791C167.971 30.2379 168.163 30.1587 168.362 30.1587C168.562 30.1587 168.753 30.2379 168.895 30.3791C169.036 30.5202 169.115 30.7116 169.115 30.9112C169.115 31.1108 169.036 31.3023 168.895 31.4434L167.506 32.8317C167.365 32.9728 167.173 33.052 166.973 33.0521Z" fill="#FFC107"/>
    <path d="M171.663 39.6419H169.7C169.505 39.6353 169.32 39.5532 169.184 39.4128C169.048 39.2725 168.973 39.085 168.973 38.8899C168.973 38.6947 169.048 38.5072 169.184 38.3669C169.32 38.2266 169.505 38.1444 169.7 38.1377H171.663C171.858 38.1444 172.043 38.2266 172.178 38.3669C172.314 38.5072 172.39 38.6947 172.39 38.8899C172.39 39.085 172.314 39.2725 172.178 39.4128C172.043 39.5532 171.858 39.6353 171.663 39.6419Z" fill="#FFC107"/>
    <path d="M168.362 47.6205C168.263 47.6207 168.165 47.6013 168.074 47.5635C167.983 47.5256 167.9 47.47 167.83 47.4L166.442 46.0117C166.372 45.9419 166.317 45.8589 166.279 45.7676C166.241 45.6763 166.222 45.5785 166.222 45.4796C166.222 45.3808 166.241 45.2829 166.279 45.1916C166.317 45.1003 166.372 45.0173 166.442 44.9474C166.512 44.8776 166.595 44.8221 166.686 44.7843C166.778 44.7465 166.875 44.7271 166.974 44.7271C167.073 44.7271 167.171 44.7465 167.262 44.7843C167.354 44.8221 167.437 44.8776 167.506 44.9474L168.895 46.3358C169 46.4411 169.072 46.5752 169.101 46.7212C169.13 46.8673 169.115 47.0188 169.058 47.1563C169.001 47.2939 168.904 47.4114 168.78 47.494C168.656 47.5766 168.511 47.6207 168.362 47.6205Z" fill="#FFC107"/>
    <path d="M163.442 46.4238C163.411 46.5959 163.394 46.7704 163.393 46.9454V49.1723C163.391 49.6375 163.206 50.083 162.877 50.4119C162.548 50.7408 162.102 50.9265 161.637 50.9286H159.129C158.876 50.9204 158.627 50.8596 158.398 50.75C158.169 50.6404 157.966 50.4845 157.801 50.2921C157.636 50.0996 157.512 49.8749 157.439 49.6323C157.365 49.3896 157.342 49.1344 157.373 48.8826V47.107C157.375 46.8779 157.351 46.6494 157.303 46.4255L157.373 46.415H163.391L163.442 46.4238Z" fill="#607D8B"/>
    <path d="M160.382 46.4136H157.373L157.303 46.4241C157.351 46.6479 157.375 46.8765 157.373 47.1055V48.881C157.343 49.1328 157.365 49.3882 157.439 49.6308C157.512 49.8735 157.636 50.0982 157.801 50.2906C157.966 50.483 158.169 50.6389 158.398 50.7485C158.627 50.8581 158.876 50.9189 159.129 50.9271H160.382V46.4136Z" fill="#546D79"/>
    <path d="M160.382 30.3225C160.183 30.3222 159.992 30.243 159.851 30.1021C159.71 29.9612 159.631 29.7701 159.63 29.5709V27.6074C159.627 27.5064 159.644 27.4058 159.68 27.3116C159.716 27.2173 159.771 27.1313 159.841 27.0587C159.911 26.9861 159.995 26.9284 160.088 26.8889C160.181 26.8495 160.281 26.8291 160.382 26.8291C160.483 26.8291 160.583 26.8495 160.676 26.8889C160.769 26.9284 160.853 26.9861 160.923 27.0587C160.994 27.1313 161.048 27.2173 161.085 27.3116C161.121 27.4058 161.138 27.5064 161.134 27.6074V29.5699C161.134 29.7695 161.055 29.961 160.914 30.1021C160.773 30.2432 160.582 30.3225 160.382 30.3225Z" fill="#FFC107"/>
    <path d="M160.382 26.8545C160.183 26.8547 159.992 26.9341 159.851 27.0752C159.71 27.2163 159.631 27.4076 159.631 27.607V29.5696C159.631 29.7689 159.71 29.9599 159.851 30.1008C159.992 30.2418 160.183 30.3211 160.382 30.3213V26.8545Z" fill="#DEA806"/>
    <path d="M153.791 33.0521C153.693 33.0522 153.595 33.0329 153.504 32.995C153.412 32.9572 153.33 32.9017 153.26 32.8317L151.872 31.4434C151.802 31.3735 151.746 31.2905 151.709 31.1992C151.671 31.1079 151.651 31.0101 151.651 30.9112C151.651 30.8124 151.671 30.7145 151.709 30.6232C151.746 30.5319 151.802 30.449 151.872 30.3791C151.942 30.3092 152.025 30.2538 152.116 30.2159C152.207 30.1781 152.305 30.1587 152.404 30.1587C152.503 30.1587 152.601 30.1781 152.692 30.2159C152.783 30.2538 152.866 30.3092 152.936 30.3791L154.324 31.7674C154.43 31.8727 154.501 32.0069 154.53 32.1529C154.559 32.299 154.544 32.4504 154.487 32.5879C154.43 32.7255 154.334 32.843 154.21 32.9256C154.086 33.0083 153.94 33.0522 153.791 33.0521Z" fill="#FFC107"/>
    <path d="M151.872 30.3804C151.802 30.4503 151.746 30.5332 151.709 30.6245C151.671 30.7158 151.651 30.8137 151.651 30.9125C151.651 31.0114 151.671 31.1092 151.709 31.2005C151.746 31.2918 151.802 31.3748 151.872 31.4447L153.26 32.833C153.33 32.9028 153.413 32.9582 153.504 32.996C153.595 33.0338 153.693 33.0533 153.792 33.0533C153.891 33.0533 153.988 33.0338 154.079 32.996C154.171 32.9582 154.254 32.9028 154.323 32.833L151.872 30.3804Z" fill="#DEA806"/>
    <path d="M151.062 39.6428H149.1C148.999 39.6463 148.898 39.6295 148.804 39.5932C148.71 39.557 148.624 39.5021 148.551 39.4319C148.478 39.3617 148.421 39.2777 148.381 39.1847C148.342 39.0917 148.321 38.9918 148.321 38.8908C148.321 38.7898 148.342 38.6898 148.381 38.5969C148.421 38.5039 148.478 38.4198 148.551 38.3496C148.624 38.2794 148.71 38.2246 148.804 38.1884C148.898 38.1521 148.999 38.1352 149.1 38.1386H151.062C151.257 38.1453 151.442 38.2275 151.578 38.3678C151.713 38.5081 151.789 38.6956 151.789 38.8908C151.789 39.0859 151.713 39.2735 151.578 39.4138C151.442 39.5541 151.257 39.6362 151.062 39.6428Z" fill="#FFC107"/>
    <path d="M151.813 38.8872H148.347C148.347 39.0868 148.426 39.2782 148.567 39.4193C148.708 39.5604 148.9 39.6398 149.099 39.6398H151.062C151.261 39.6396 151.452 39.5601 151.593 39.419C151.734 39.2779 151.813 39.0866 151.813 38.8872Z" fill="#DEA806"/>
    <path d="M152.404 47.6215C152.255 47.6213 152.11 47.577 151.986 47.4942C151.863 47.4115 151.766 47.2939 151.709 47.1565C151.652 47.019 151.638 46.8677 151.667 46.7218C151.696 46.5759 151.768 46.442 151.873 46.3368L153.261 44.9484C153.331 44.8785 153.414 44.8231 153.505 44.7853C153.597 44.7474 153.694 44.728 153.793 44.728C153.892 44.728 153.99 44.7474 154.081 44.7853C154.173 44.8231 154.255 44.8785 154.325 44.9484C154.395 45.0183 154.451 45.1013 154.488 45.1926C154.526 45.2839 154.546 45.3818 154.546 45.4806C154.546 45.5794 154.526 45.6772 154.488 45.7685C154.451 45.8598 154.395 45.9428 154.325 46.0127L152.937 47.401C152.867 47.471 152.784 47.5266 152.693 47.5644C152.601 47.6023 152.503 47.6217 152.404 47.6215Z" fill="#FFC107"/>
    <path d="M154.324 44.9502L151.872 47.4019C151.942 47.4717 152.024 47.5271 152.116 47.5649C152.207 47.6027 152.305 47.6222 152.403 47.6222C152.502 47.6222 152.6 47.6027 152.691 47.5649C152.782 47.5271 152.865 47.4717 152.935 47.4019L154.323 46.0135C154.464 45.8724 154.543 45.6812 154.543 45.4819C154.543 45.2825 154.464 45.0913 154.323 44.9502H154.324Z" fill="#DEA806"/>
    <path d="M164.145 39.3927C163.945 39.3927 163.754 39.3135 163.613 39.1723C163.472 39.0312 163.393 38.8398 163.393 38.6402C163.392 37.9089 163.101 37.2077 162.584 36.6906C162.067 36.1735 161.366 35.8827 160.634 35.882C160.435 35.882 160.243 35.8028 160.102 35.6616C159.961 35.5205 159.882 35.3291 159.882 35.1295C159.882 34.9299 159.961 34.7385 160.102 34.5973C160.243 34.4562 160.435 34.377 160.634 34.377C161.764 34.3786 162.848 34.8282 163.647 35.6272C164.446 36.4262 164.895 37.5094 164.897 38.6393C164.897 38.7382 164.878 38.836 164.84 38.9274C164.802 39.0187 164.747 39.1017 164.677 39.1717C164.607 39.2417 164.524 39.2972 164.433 39.3351C164.342 39.373 164.244 39.3926 164.145 39.3927Z" fill="#FFD54F"/>
    <path d="M160.119 35.126C160.042 35.126 159.963 35.126 159.882 35.126C159.882 35.3256 159.961 35.5169 160.102 35.6581C160.243 35.7992 160.435 35.8785 160.634 35.8785C161.366 35.8792 162.067 36.17 162.584 36.6871C163.101 37.2042 163.392 37.9054 163.393 38.6367C163.393 38.8363 163.472 39.0276 163.613 39.1688C163.754 39.3099 163.945 39.3892 164.145 39.3892C164.56 39.3927 164.702 35.126 160.119 35.126Z" fill="#DEB945"/>
</svg>
