<svg width="50" height="50" viewBox="0 0 50 50" fill="none" xmlns="http://www.w3.org/2000/svg">
<path fill-rule="evenodd" clip-rule="evenodd" d="M25 8.63853L10.4167 16.8427V17.1448C10.4167 27.0198 15.7625 36.1635 24.3708 41.0073L25 41.3614L25.6292 41.0073C34.2375 36.1635 39.5833 27.0198 39.5833 17.1448V16.8427L25 8.63853ZM25 45.5223C24.2937 45.5223 23.5875 45.3473 22.9604 44.9932L22.3292 44.6369C12.4104 39.0598 6.25 28.5244 6.25 17.1452V16.8432C6.25 15.3452 7.0625 13.9536 8.37083 13.214L22.9583 5.00983C24.2188 4.3015 25.7833 4.29942 27.0396 5.00775L41.625 13.2119C42.9375 13.9536 43.75 15.3452 43.75 16.8432V17.1452C43.75 28.5244 37.5896 39.0598 27.6708 44.6369L27.0417 44.9911C26.4125 45.3452 25.7062 45.5223 25 45.5223Z" fill="#FF5364"/>
<mask id="mask0" mask-type="alpha" maskUnits="userSpaceOnUse" x="6" y="4" width="38" height="42">
<path fill-rule="evenodd" clip-rule="evenodd" d="M25 8.63853L10.4167 16.8427V17.1448C10.4167 27.0198 15.7625 36.1635 24.3708 41.0073L25 41.3614L25.6292 41.0073C34.2375 36.1635 39.5833 27.0198 39.5833 17.1448V16.8427L25 8.63853ZM25 45.5223C24.2937 45.5223 23.5875 45.3473 22.9604 44.9932L22.3292 44.6369C12.4104 39.0598 6.25 28.5244 6.25 17.1452V16.8432C6.25 15.3452 7.0625 13.9536 8.37083 13.214L22.9583 5.00983C24.2188 4.3015 25.7833 4.29942 27.0396 5.00775L41.625 13.2119C42.9375 13.9536 43.75 15.3452 43.75 16.8432V17.1452C43.75 28.5244 37.5896 39.0598 27.6708 44.6369L27.0417 44.9911C26.4125 45.3452 25.7062 45.5223 25 45.5223Z" fill="white"/>
</mask>
<g mask="url(#mask0)">
<rect width="50" height="50" fill="#FF5364"/>
</g>
</svg>
