<svg width="489" height="269" viewBox="0 0 489 269" fill="none" xmlns="http://www.w3.org/2000/svg">
<g clip-path="url(#clip0)">
<path d="M413.824 98.9058C338.381 113.221 382.615 -45.1 279.84 22.102C238.969 48.8275 180.116 16.4858 123.758 34.1632C71.9979 50.3969 84.7486 103.665 89.756 121.094C99.8716 156.299 49.4895 142.259 20.2834 157.385C-25.5262 181.112 14.6573 276.769 57.9346 277.168C101.212 277.567 419.157 276.373 419.157 276.373C419.157 276.373 438.044 262.937 448.073 235.242C468.632 178.469 480.256 86.2982 413.824 98.9058Z" fill="url(#paint0_linear)" fill-opacity="0.79"/>
<path d="M86.1482 224.578H67.1035V263.827H86.1482V224.578Z" fill="#DCEAF9"/>
<path opacity="0.17" d="M369.558 263.798V114.187H347.313V97.0329H342.107V67.5392H314.19V97.0329H288.09V56.6048L259.289 45.7029V80.1707H252.721V34.2694L223.919 43.8148V112.761H187.494V153.484H173.885V163.743H142.623V146.077H124.674V98.0725H102.504V186.688H80.332V263.798H369.558Z" fill="#6653A2"/>
<path opacity="0.17" d="M248.026 47.6385H228.598V54.7539H248.026V47.6385Z" fill="#6653A2"/>
<path opacity="0.17" d="M248.026 61.006H228.598V68.1214H248.026V61.006Z" fill="#6653A2"/>
<path opacity="0.17" d="M248.026 73.0318H228.598V80.1472H248.026V73.0318Z" fill="#6653A2"/>
<path opacity="0.17" d="M124.88 130.747H102.514V141.73H124.88V130.747Z" fill="#6653A2"/>
<path opacity="0.17" d="M124.88 164.461H102.514V175.445H124.88V164.461Z" fill="#6653A2"/>
<path opacity="0.17" d="M124.88 181.052H102.514V192.036H124.88V181.052Z" fill="#6653A2"/>
<path opacity="0.17" d="M124.88 198.411H102.514V209.394H124.88V198.411Z" fill="#6653A2"/>
<path opacity="0.17" d="M124.88 215.41H102.514V226.394H124.88V215.41Z" fill="#6653A2"/>
<path opacity="0.17" d="M124.88 232.77H102.514V243.754H124.88V232.77Z" fill="#6653A2"/>
<path opacity="0.17" d="M283.89 73.0318H263.455V80.1472H283.89V73.0318Z" fill="#6653A2"/>
<path opacity="0.17" d="M283.89 61.1141H263.455V68.2295H283.89V61.1141Z" fill="#6653A2"/>
<path opacity="0.17" d="M283.89 84.6933H228.104V91.8087H283.89V84.6933Z" fill="#6653A2"/>
<path opacity="0.17" d="M283.89 95.3923H228.104V102.508H283.89V95.3923Z" fill="#6653A2"/>
<path opacity="0.17" d="M283.89 106.019H228.104V112.862H283.89V106.019Z" fill="#6653A2"/>
<path opacity="0.17" d="M124.88 147.87H102.514V158.853H124.88V147.87Z" fill="#6653A2"/>
<path opacity="0.17" d="M198.329 119.766H193.447V126.649H198.329V119.766Z" fill="#6653A2"/>
<path opacity="0.17" d="M207.46 119.766H202.578V126.649H207.46V119.766Z" fill="#6653A2"/>
<path opacity="0.17" d="M216.386 119.766H211.504V126.649H216.386V119.766Z" fill="#6653A2"/>
<path opacity="0.17" d="M224.849 119.766H219.967V126.649H224.849V119.766Z" fill="#6653A2"/>
<path opacity="0.17" d="M233.474 119.766H228.592V126.649H233.474V119.766Z" fill="#6653A2"/>
<path opacity="0.17" d="M242.198 119.766H237.316V126.649H242.198V119.766Z" fill="#6653A2"/>
<path opacity="0.17" d="M251.329 119.766H246.447V126.649H251.329V119.766Z" fill="#6653A2"/>
<path opacity="0.17" d="M260.255 119.766H255.373V126.649H260.255V119.766Z" fill="#6653A2"/>
<path opacity="0.17" d="M268.718 119.766H263.836V126.649H268.718V119.766Z" fill="#6653A2"/>
<path opacity="0.17" d="M277.343 119.766H272.461V126.649H277.343V119.766Z" fill="#6653A2"/>
<path opacity="0.17" d="M286.331 119.766H281.449V126.649H286.331V119.766Z" fill="#6653A2"/>
<path opacity="0.17" d="M295.462 119.766H290.58V126.649H295.462V119.766Z" fill="#6653A2"/>
<path opacity="0.17" d="M304.388 119.766H299.506V126.649H304.388V119.766Z" fill="#6653A2"/>
<path opacity="0.17" d="M312.851 119.766H307.969V126.649H312.851V119.766Z" fill="#6653A2"/>
<path opacity="0.17" d="M321.479 119.766H316.596V126.649H321.479V119.766Z" fill="#6653A2"/>
<path opacity="0.17" d="M330.202 119.766H325.32V126.649H330.202V119.766Z" fill="#6653A2"/>
<path opacity="0.17" d="M339.331 119.766H334.449V126.649H339.331V119.766Z" fill="#6653A2"/>
<path opacity="0.17" d="M348.257 119.766H343.375V126.649H348.257V119.766Z" fill="#6653A2"/>
<path opacity="0.17" d="M356.72 119.766H351.838V126.649H356.72V119.766Z" fill="#6653A2"/>
<path opacity="0.17" d="M365.345 119.766H360.463V126.649H365.345V119.766Z" fill="#6653A2"/>
<path opacity="0.17" d="M198.329 131.912H193.447V138.795H198.329V131.912Z" fill="#6653A2"/>
<path opacity="0.17" d="M207.46 131.912H202.578V138.795H207.46V131.912Z" fill="#6653A2"/>
<path opacity="0.17" d="M216.386 131.912H211.504V138.795H216.386V131.912Z" fill="#6653A2"/>
<path opacity="0.17" d="M224.849 131.912H219.967V138.795H224.849V131.912Z" fill="#6653A2"/>
<path opacity="0.17" d="M233.474 131.912H228.592V138.795H233.474V131.912Z" fill="#6653A2"/>
<path opacity="0.17" d="M242.198 131.912H237.316V138.795H242.198V131.912Z" fill="#6653A2"/>
<path opacity="0.17" d="M251.329 131.912H246.447V138.795H251.329V131.912Z" fill="#6653A2"/>
<path opacity="0.17" d="M260.255 131.912H255.373V138.795H260.255V131.912Z" fill="#6653A2"/>
<path opacity="0.17" d="M268.718 131.912H263.836V138.795H268.718V131.912Z" fill="#6653A2"/>
<path opacity="0.17" d="M277.343 131.912H272.461V138.795H277.343V131.912Z" fill="#6653A2"/>
<path opacity="0.17" d="M286.331 131.912H281.449V138.795H286.331V131.912Z" fill="#6653A2"/>
<path opacity="0.17" d="M295.462 131.912H290.58V138.795H295.462V131.912Z" fill="#6653A2"/>
<path opacity="0.17" d="M304.388 131.912H299.506V138.795H304.388V131.912Z" fill="#6653A2"/>
<path opacity="0.17" d="M312.851 131.912H307.969V138.795H312.851V131.912Z" fill="#6653A2"/>
<path opacity="0.17" d="M321.479 131.912H316.596V138.795H321.479V131.912Z" fill="#6653A2"/>
<path opacity="0.17" d="M330.202 131.912H325.32V138.795H330.202V131.912Z" fill="#6653A2"/>
<path opacity="0.17" d="M339.331 131.912H334.449V138.795H339.331V131.912Z" fill="#6653A2"/>
<path opacity="0.17" d="M348.257 131.912H343.375V138.795H348.257V131.912Z" fill="#6653A2"/>
<path opacity="0.17" d="M356.72 131.912H351.838V138.795H356.72V131.912Z" fill="#6653A2"/>
<path opacity="0.17" d="M365.345 131.912H360.463V138.795H365.345V131.912Z" fill="#6653A2"/>
<path opacity="0.17" d="M198.329 143.871H193.447V150.754H198.329V143.871Z" fill="#6653A2"/>
<path opacity="0.17" d="M207.46 143.871H202.578V150.754H207.46V143.871Z" fill="#6653A2"/>
<path opacity="0.17" d="M216.386 143.871H211.504V150.754H216.386V143.871Z" fill="#6653A2"/>
<path opacity="0.17" d="M224.849 143.871H219.967V150.754H224.849V143.871Z" fill="#6653A2"/>
<path opacity="0.17" d="M233.474 143.871H228.592V150.754H233.474V143.871Z" fill="#6653A2"/>
<path opacity="0.17" d="M242.198 143.871H237.316V150.754H242.198V143.871Z" fill="#6653A2"/>
<path opacity="0.17" d="M251.329 143.871H246.447V150.754H251.329V143.871Z" fill="#6653A2"/>
<path opacity="0.17" d="M260.255 143.871H255.373V150.754H260.255V143.871Z" fill="#6653A2"/>
<path opacity="0.17" d="M268.718 143.871H263.836V150.754H268.718V143.871Z" fill="#6653A2"/>
<path opacity="0.17" d="M277.343 143.871H272.461V150.754H277.343V143.871Z" fill="#6653A2"/>
<path opacity="0.17" d="M286.331 143.871H281.449V150.754H286.331V143.871Z" fill="#6653A2"/>
<path opacity="0.17" d="M295.462 143.871H290.58V150.754H295.462V143.871Z" fill="#6653A2"/>
<path opacity="0.17" d="M304.388 143.871H299.506V150.754H304.388V143.871Z" fill="#6653A2"/>
<path opacity="0.17" d="M312.851 143.871H307.969V150.754H312.851V143.871Z" fill="#6653A2"/>
<path opacity="0.17" d="M321.479 143.871H316.596V150.754H321.479V143.871Z" fill="#6653A2"/>
<path opacity="0.17" d="M330.202 143.871H325.32V150.754H330.202V143.871Z" fill="#6653A2"/>
<path opacity="0.17" d="M339.331 143.871H334.449V150.754H339.331V143.871Z" fill="#6653A2"/>
<path opacity="0.17" d="M348.257 143.871H343.375V150.754H348.257V143.871Z" fill="#6653A2"/>
<path opacity="0.17" d="M356.72 143.871H351.838V150.754H356.72V143.871Z" fill="#6653A2"/>
<path opacity="0.17" d="M365.345 143.871H360.463V150.754H365.345V143.871Z" fill="#6653A2"/>
<path opacity="0.17" d="M198.329 156.577H193.447V163.46H198.329V156.577Z" fill="#6653A2"/>
<path opacity="0.17" d="M207.46 156.577H202.578V163.46H207.46V156.577Z" fill="#6653A2"/>
<path opacity="0.17" d="M216.386 156.577H211.504V163.46H216.386V156.577Z" fill="#6653A2"/>
<path opacity="0.17" d="M224.849 156.577H219.967V163.46H224.849V156.577Z" fill="#6653A2"/>
<path opacity="0.17" d="M233.474 156.577H228.592V163.46H233.474V156.577Z" fill="#6653A2"/>
<path opacity="0.17" d="M242.198 156.577H237.316V163.46H242.198V156.577Z" fill="#6653A2"/>
<path opacity="0.17" d="M251.329 156.577H246.447V163.46H251.329V156.577Z" fill="#6653A2"/>
<path opacity="0.17" d="M260.255 156.577H255.373V163.46H260.255V156.577Z" fill="#6653A2"/>
<path opacity="0.17" d="M268.718 156.577H263.836V163.46H268.718V156.577Z" fill="#6653A2"/>
<path opacity="0.17" d="M277.343 156.577H272.461V163.46H277.343V156.577Z" fill="#6653A2"/>
<path opacity="0.17" d="M286.331 156.577H281.449V163.46H286.331V156.577Z" fill="#6653A2"/>
<path opacity="0.17" d="M295.462 156.577H290.58V163.46H295.462V156.577Z" fill="#6653A2"/>
<path opacity="0.17" d="M304.388 156.577H299.506V163.46H304.388V156.577Z" fill="#6653A2"/>
<path opacity="0.17" d="M312.851 156.577H307.969V163.46H312.851V156.577Z" fill="#6653A2"/>
<path opacity="0.17" d="M321.479 156.577H316.596V163.46H321.479V156.577Z" fill="#6653A2"/>
<path opacity="0.17" d="M330.202 156.577H325.32V163.46H330.202V156.577Z" fill="#6653A2"/>
<path opacity="0.17" d="M339.331 156.577H334.449V163.46H339.331V156.577Z" fill="#6653A2"/>
<path opacity="0.17" d="M348.257 156.577H343.375V163.46H348.257V156.577Z" fill="#6653A2"/>
<path opacity="0.17" d="M356.72 156.577H351.838V163.46H356.72V156.577Z" fill="#6653A2"/>
<path opacity="0.17" d="M365.345 156.577H360.463V163.46H365.345V156.577Z" fill="#6653A2"/>
<path opacity="0.17" d="M198.329 168.723H193.447V175.606H198.329V168.723Z" fill="#6653A2"/>
<path opacity="0.17" d="M207.46 168.723H202.578V175.606H207.46V168.723Z" fill="#6653A2"/>
<path opacity="0.17" d="M216.386 168.723H211.504V175.606H216.386V168.723Z" fill="#6653A2"/>
<path opacity="0.17" d="M224.849 168.723H219.967V175.606H224.849V168.723Z" fill="#6653A2"/>
<path opacity="0.17" d="M233.474 168.723H228.592V175.606H233.474V168.723Z" fill="#6653A2"/>
<path opacity="0.17" d="M242.198 168.723H237.316V175.606H242.198V168.723Z" fill="#6653A2"/>
<path opacity="0.17" d="M251.329 168.723H246.447V175.606H251.329V168.723Z" fill="#6653A2"/>
<path opacity="0.17" d="M260.255 168.723H255.373V175.606H260.255V168.723Z" fill="#6653A2"/>
<path opacity="0.17" d="M268.718 168.723H263.836V175.606H268.718V168.723Z" fill="#6653A2"/>
<path opacity="0.17" d="M277.343 168.723H272.461V175.606H277.343V168.723Z" fill="#6653A2"/>
<path opacity="0.17" d="M286.331 168.723H281.449V175.606H286.331V168.723Z" fill="#6653A2"/>
<path opacity="0.17" d="M295.462 168.723H290.58V175.606H295.462V168.723Z" fill="#6653A2"/>
<path opacity="0.17" d="M304.388 168.723H299.506V175.606H304.388V168.723Z" fill="#6653A2"/>
<path opacity="0.17" d="M312.851 168.723H307.969V175.606H312.851V168.723Z" fill="#6653A2"/>
<path opacity="0.17" d="M321.479 168.723H316.596V175.606H321.479V168.723Z" fill="#6653A2"/>
<path opacity="0.17" d="M330.202 168.723H325.32V175.606H330.202V168.723Z" fill="#6653A2"/>
<path opacity="0.17" d="M339.331 168.723H334.449V175.606H339.331V168.723Z" fill="#6653A2"/>
<path opacity="0.17" d="M356.72 168.723H351.838V175.606H356.72V168.723Z" fill="#6653A2"/>
<path opacity="0.17" d="M348.257 168.723H343.375V175.606H348.257V168.723Z" fill="#6653A2"/>
<path opacity="0.17" d="M365.345 168.723H360.463V175.606H365.345V168.723Z" fill="#6653A2"/>
<path opacity="0.17" d="M198.329 180.682H193.447V187.564H198.329V180.682Z" fill="#6653A2"/>
<path opacity="0.17" d="M207.46 180.682H202.578V187.564H207.46V180.682Z" fill="#6653A2"/>
<path opacity="0.17" d="M216.386 180.682H211.504V187.564H216.386V180.682Z" fill="#6653A2"/>
<path opacity="0.17" d="M224.849 180.682H219.967V187.564H224.849V180.682Z" fill="#6653A2"/>
<path opacity="0.17" d="M233.474 180.682H228.592V187.564H233.474V180.682Z" fill="#6653A2"/>
<path opacity="0.17" d="M242.198 180.682H237.316V187.564H242.198V180.682Z" fill="#6653A2"/>
<path opacity="0.17" d="M251.329 180.682H246.447V187.564H251.329V180.682Z" fill="#6653A2"/>
<path opacity="0.17" d="M260.255 180.682H255.373V187.564H260.255V180.682Z" fill="#6653A2"/>
<path opacity="0.17" d="M268.718 180.682H263.836V187.564H268.718V180.682Z" fill="#6653A2"/>
<path opacity="0.17" d="M277.343 180.682H272.461V187.564H277.343V180.682Z" fill="#6653A2"/>
<path opacity="0.17" d="M286.331 180.682H281.449V187.564H286.331V180.682Z" fill="#6653A2"/>
<path opacity="0.17" d="M295.462 180.682H290.58V187.564H295.462V180.682Z" fill="#6653A2"/>
<path opacity="0.17" d="M304.388 180.682H299.506V187.564H304.388V180.682Z" fill="#6653A2"/>
<path opacity="0.17" d="M312.851 180.682H307.969V187.564H312.851V180.682Z" fill="#6653A2"/>
<path opacity="0.17" d="M321.479 180.682H316.596V187.564H321.479V180.682Z" fill="#6653A2"/>
<path opacity="0.17" d="M330.202 180.682H325.32V187.564H330.202V180.682Z" fill="#6653A2"/>
<path opacity="0.17" d="M339.331 180.682H334.449V187.564H339.331V180.682Z" fill="#6653A2"/>
<path opacity="0.17" d="M356.72 180.682H351.838V187.564H356.72V180.682Z" fill="#6653A2"/>
<path opacity="0.17" d="M365.345 180.682H360.463V187.564H365.345V180.682Z" fill="#6653A2"/>
<path opacity="0.17" d="M417.138 167.076H406.275V240.568H417.138V167.076Z" fill="#6653A2"/>
<path d="M406.274 211.759H394.613V262.806H406.274V211.759Z" fill="#ADC9E0"/>
<path opacity="0.17" d="M150.568 146.076V131.761H151.156V146.076H159.211V163.743H142.623V146.076H150.568Z" fill="#6653A2"/>
<path opacity="0.17" d="M102.514 109.062V98.0783H106.966V93.2982H107.554V98.0783H124.57H124.881H128.1V93.2982H128.688V98.0783H132.816V146.076H124.57V125.395H102.514V114.412H124.57V109.062H102.514Z" fill="#6653A2"/>
<path opacity="0.17" d="M343.992 177.774V239.726H406.276V167.076L343.992 177.774Z" fill="#6653A2"/>
<path opacity="0.17" d="M421.693 211.626H343.992V263.886H421.693V211.626Z" fill="#6653A2"/>
<path opacity="0.17" d="M421.693 180.638H343.992V197.623H421.693V180.638Z" fill="#6653A2"/>
<path opacity="0.17" d="M353.274 225.736H349.283V231.361H353.274V225.736Z" fill="#6653A2"/>
<path opacity="0.17" d="M360.735 225.736H356.744V231.361H360.735V225.736Z" fill="#6653A2"/>
<path opacity="0.17" d="M368.03 225.736H364.039V231.361H368.03V225.736Z" fill="#6653A2"/>
<path opacity="0.17" d="M374.948 225.736H370.957V231.361H374.948V225.736Z" fill="#6653A2"/>
<path opacity="0.17" d="M381.998 225.736H378.008V231.361H381.998V225.736Z" fill="#6653A2"/>
<path opacity="0.17" d="M389.129 225.736H385.139V231.361H389.129V225.736Z" fill="#6653A2"/>
<path opacity="0.17" d="M396.592 225.736H392.602V231.361H396.592V225.736Z" fill="#6653A2"/>
<path opacity="0.17" d="M403.887 225.736H399.896V231.361H403.887V225.736Z" fill="#6653A2"/>
<path opacity="0.17" d="M410.803 225.736H406.812V231.361H410.803V225.736Z" fill="#6653A2"/>
<path opacity="0.17" d="M417.852 225.736H413.861V231.361H417.852V225.736Z" fill="#6653A2"/>
<path opacity="0.17" d="M353.274 235.663H349.283V241.289H353.274V235.663Z" fill="#6653A2"/>
<path opacity="0.17" d="M360.735 235.663H356.744V241.289H360.735V235.663Z" fill="#6653A2"/>
<path opacity="0.17" d="M368.03 235.663H364.039V241.289H368.03V235.663Z" fill="#6653A2"/>
<path opacity="0.17" d="M374.948 235.663H370.957V241.289H374.948V235.663Z" fill="#6653A2"/>
<path opacity="0.17" d="M381.998 235.663H378.008V241.289H381.998V235.663Z" fill="#6653A2"/>
<path opacity="0.17" d="M389.129 235.663H385.139V241.289H389.129V235.663Z" fill="#6653A2"/>
<path opacity="0.17" d="M396.592 235.663H392.602V241.289H396.592V235.663Z" fill="#6653A2"/>
<path opacity="0.17" d="M403.887 235.663H399.896V241.289H403.887V235.663Z" fill="#6653A2"/>
<path opacity="0.17" d="M410.803 235.663H406.812V241.289H410.803V235.663Z" fill="#6653A2"/>
<path opacity="0.17" d="M417.852 235.663H413.861V241.289H417.852V235.663Z" fill="#6653A2"/>
<path opacity="0.17" d="M353.274 205.734H349.283V211.36H353.274V205.734Z" fill="#6653A2"/>
<path opacity="0.17" d="M360.735 205.734H356.744V211.36H360.735V205.734Z" fill="#6653A2"/>
<path opacity="0.17" d="M368.03 205.734H364.039V211.36H368.03V205.734Z" fill="#6653A2"/>
<path opacity="0.17" d="M374.948 205.734H370.957V211.36H374.948V205.734Z" fill="#6653A2"/>
<path opacity="0.17" d="M381.998 205.734H378.008V211.36H381.998V205.734Z" fill="#6653A2"/>
<path opacity="0.17" d="M389.129 205.734H385.139V211.36H389.129V205.734Z" fill="#6653A2"/>
<path opacity="0.17" d="M396.592 205.734H392.602V211.36H396.592V205.734Z" fill="#6653A2"/>
<path opacity="0.17" d="M403.887 205.734H399.896V211.36H403.887V205.734Z" fill="#6653A2"/>
<path opacity="0.17" d="M353.274 215.66H349.283V221.286H353.274V215.66Z" fill="#6653A2"/>
<path opacity="0.17" d="M360.735 215.66H356.744V221.286H360.735V215.66Z" fill="#6653A2"/>
<path opacity="0.17" d="M368.03 215.66H364.039V221.286H368.03V215.66Z" fill="#6653A2"/>
<path opacity="0.17" d="M374.948 215.66H370.957V221.286H374.948V215.66Z" fill="#6653A2"/>
<path opacity="0.17" d="M381.998 215.66H378.008V221.286H381.998V215.66Z" fill="#6653A2"/>
<path opacity="0.17" d="M389.129 215.66H385.139V221.286H389.129V215.66Z" fill="#6653A2"/>
<path opacity="0.17" d="M396.592 215.66H392.602V221.286H396.592V215.66Z" fill="#6653A2"/>
<path opacity="0.17" d="M403.887 215.66H399.896V221.286H403.887V215.66Z" fill="#6653A2"/>
<path opacity="0.17" d="M410.803 215.66H406.812V221.286H410.803V215.66Z" fill="#6653A2"/>
<path opacity="0.17" d="M417.852 215.66H413.861V221.286H417.852V215.66Z" fill="#6653A2"/>
<path opacity="0.17" d="M353.274 245.437H349.283V251.062H353.274V245.437Z" fill="#6653A2"/>
<path opacity="0.17" d="M360.735 245.437H356.744V251.062H360.735V245.437Z" fill="#6653A2"/>
<path opacity="0.17" d="M368.03 245.437H364.039V251.062H368.03V245.437Z" fill="#6653A2"/>
<path opacity="0.17" d="M374.948 245.437H370.957V251.062H374.948V245.437Z" fill="#6653A2"/>
<path opacity="0.17" d="M381.998 245.437H378.008V251.062H381.998V245.437Z" fill="#6653A2"/>
<path opacity="0.17" d="M389.129 245.437H385.139V251.062H389.129V245.437Z" fill="#6653A2"/>
<path opacity="0.17" d="M396.592 245.437H392.602V251.062H396.592V245.437Z" fill="#6653A2"/>
<path opacity="0.17" d="M403.887 245.437H399.896V251.062H403.887V245.437Z" fill="#6653A2"/>
<path opacity="0.17" d="M410.803 245.437H406.812V251.062H410.803V245.437Z" fill="#6653A2"/>
<path opacity="0.17" d="M417.852 245.437H413.861V251.062H417.852V245.437Z" fill="#6653A2"/>
<path opacity="0.17" d="M402.098 155.411H400.947V170.14H402.098V155.411Z" fill="#6653A2"/>
<path opacity="0.17" d="M353.274 185.41H349.92V191.212H353.274V185.41Z" fill="#6653A2"/>
<path opacity="0.17" d="M386.567 185.41H383.213V191.212H386.567V185.41Z" fill="#6653A2"/>
<path opacity="0.17" d="M413.047 185.41H409.693V191.212H413.047V185.41Z" fill="#6653A2"/>
<path opacity="0.17" d="M137.068 264.018H248.889V198.602H137.068V264.018Z" fill="#6653A2"/>
<path opacity="0.17" d="M206.929 214.221H212.891V205.116H206.929V214.221Z" fill="#6653A2"/>
<path opacity="0.17" d="M196.103 214.221H202.064V205.116H196.103V214.221Z" fill="#6653A2"/>
<path opacity="0.17" d="M185.589 214.221H191.551V205.116H185.589V214.221Z" fill="#6653A2"/>
<path opacity="0.17" d="M175.006 214.221H180.967V205.116H175.006V214.221Z" fill="#6653A2"/>
<path opacity="0.17" d="M164.492 214.221H170.453V205.116H164.492V214.221Z" fill="#6653A2"/>
<path opacity="0.17" d="M153.468 214.221H159.43V205.116H153.468V214.221Z" fill="#6653A2"/>
<path opacity="0.17" d="M142.955 214.221H148.916V205.116H142.955V214.221Z" fill="#6653A2"/>
<path opacity="0.17" d="M238.539 227.685H244.5V218.58H238.539V227.685Z" fill="#6653A2"/>
<path opacity="0.17" d="M228.027 227.685H233.988V218.58H228.027V227.685Z" fill="#6653A2"/>
<path opacity="0.17" d="M217.443 227.685H223.404V218.58H217.443V227.685Z" fill="#6653A2"/>
<path opacity="0.17" d="M206.929 227.685H212.891V218.58H206.929V227.685Z" fill="#6653A2"/>
<path opacity="0.17" d="M196.103 227.685H202.064V218.58H196.103V227.685Z" fill="#6653A2"/>
<path opacity="0.17" d="M185.589 227.685H191.551V218.58H185.589V227.685Z" fill="#6653A2"/>
<path opacity="0.17" d="M175.006 227.685H180.967V218.58H175.006V227.685Z" fill="#6653A2"/>
<path opacity="0.17" d="M164.492 227.685H170.453V218.58H164.492V227.685Z" fill="#6653A2"/>
<path opacity="0.17" d="M153.468 227.685H159.43V218.58H153.468V227.685Z" fill="#6653A2"/>
<path opacity="0.17" d="M142.955 227.685H148.916V218.58H142.955V227.685Z" fill="#6653A2"/>
<path opacity="0.17" d="M238.539 242.145H244.5V233.041H238.539V242.145Z" fill="#6653A2"/>
<path opacity="0.17" d="M228.027 242.145H233.988V233.041H228.027V242.145Z" fill="#6653A2"/>
<path opacity="0.17" d="M217.443 242.145H223.404V233.041H217.443V242.145Z" fill="#6653A2"/>
<path opacity="0.17" d="M206.929 242.145H212.891V233.041H206.929V242.145Z" fill="#6653A2"/>
<path opacity="0.17" d="M196.103 242.145H202.064V233.041H196.103V242.145Z" fill="#6653A2"/>
<path opacity="0.17" d="M185.589 242.145H191.551V233.041H185.589V242.145Z" fill="#6653A2"/>
<path opacity="0.17" d="M175.006 242.145H180.967V233.041H175.006V242.145Z" fill="#6653A2"/>
<path opacity="0.17" d="M164.492 242.145H170.453V233.041H164.492V242.145Z" fill="#6653A2"/>
<path opacity="0.17" d="M153.468 242.145H159.43V233.041H153.468V242.145Z" fill="#6653A2"/>
<path opacity="0.17" d="M142.955 242.145H148.916V233.041H142.955V242.145Z" fill="#6653A2"/>
<path opacity="0.17" d="M238.539 255.609H244.5V246.505H238.539V255.609Z" fill="#6653A2"/>
<path opacity="0.17" d="M228.027 255.609H233.988V246.505H228.027V255.609Z" fill="#6653A2"/>
<path opacity="0.17" d="M175.59 201.399H152.256V181.052L175.59 189.988V201.399Z" fill="#6653A2"/>
<path opacity="0.17" d="M290.592 264.018H343.992V205.926L290.592 224.413V264.018Z" fill="#6653A2"/>
<path opacity="0.17" d="M292.003 227.941H342.582V226.146H292.003V227.941Z" fill="#6653A2"/>
<path opacity="0.17" d="M292.003 233.71H342.582V231.915H292.003V233.71Z" fill="#6653A2"/>
<path opacity="0.17" d="M292.003 239.48H342.582V237.685H292.003V239.48Z" fill="#6653A2"/>
<path opacity="0.17" d="M292.003 245.25H342.582V243.456H292.003V245.25Z" fill="#6653A2"/>
<path opacity="0.17" d="M292.003 251.019H342.582V249.225H292.003V251.019Z" fill="#6653A2"/>
<path opacity="0.17" d="M292.003 256.79H342.582V254.995H292.003V256.79Z" fill="#6653A2"/>
<path opacity="0.17" d="M147.768 198.411H152.256V181.053H147.768V198.411Z" fill="#6653A2"/>
<path opacity="0.17" d="M166.289 195.725V189.763H157.186V195.725H166.289Z" fill="#6653A2"/>
<path opacity="0.17" d="M336.122 96.5457H339.217V70.2921H336.122V96.5457Z" fill="#6653A2"/>
<path opacity="0.17" d="M329.968 96.5457H333.062V70.2921H329.968V96.5457Z" fill="#6653A2"/>
<path opacity="0.17" d="M323.897 96.5457H326.992V70.2921H323.897V96.5457Z" fill="#6653A2"/>
<path opacity="0.17" d="M317.612 96.5457H320.707V70.2921H317.612V96.5457Z" fill="#6653A2"/>
<path d="M27.375 250.032H272.319L262.373 213.294H27.375V250.032Z" fill="#1C2948"/>
<path d="M138.945 177.332C138.951 177.332 138.959 177.334 138.965 177.334C138.959 177.334 138.951 177.334 138.945 177.332Z" fill="#163560"/>
<path d="M209.295 205.031C205.622 204.895 201.806 204.821 197.842 204.821C197.842 204.821 175.903 185.78 150.523 179.298C176.618 185.742 209.295 205.031 209.295 205.031Z" fill="#163560"/>
<path d="M10.588 219.324V198.301C10.588 198.301 35.2505 195.481 50.164 190.079C84.6909 177.394 103.245 177.16 134.602 177.16C158.409 177.16 182.519 193.104 192.751 200.781C196.199 203.37 200.381 204.799 204.691 204.893C242.349 205.718 265.63 213.236 277.192 218.313C282.609 220.691 286.096 226.06 286.096 231.978V239.056C286.875 239.056 287.506 239.687 287.506 240.466V252.21C287.506 252.989 286.875 253.62 286.096 253.62H270.007H263.624C265.851 249.631 267.078 245.008 266.956 240.087C266.605 226.069 255.156 214.653 241.14 214.344C226.272 214.015 214.117 225.97 214.117 240.763C214.117 245.433 215.333 249.814 217.456 253.622H79.1886C81.4156 249.632 82.6431 245.009 82.5202 240.088C82.1692 226.071 70.7205 214.655 56.7042 214.345C41.8366 214.017 29.6816 225.971 29.6816 240.765C29.6816 245.434 30.8972 249.816 33.0205 253.623H27.499C8.39212 253.623 5.68393 234.08 5.50477 224.5C5.45294 221.653 7.74654 219.324 10.588 219.324Z" fill="#F1A34F"/>
<path d="M146.708 180.957C168.523 186.478 191.912 205.348 191.912 205.348L129.997 204.022C127.569 203.971 125.382 202.54 124.36 200.337L114.873 179.861H137.83C140.824 179.861 143.806 180.223 146.708 180.957Z" fill="#163560"/>
<path d="M111.233 180.332L119.926 200.248C120.594 201.779 119.473 203.493 117.803 203.494C109.031 203.499 86.0005 203.173 72.7438 199.851C69.5588 199.053 68.4897 195.046 70.8589 192.773C76.2471 187.602 87.9609 180.332 111.233 180.332Z" fill="#163560"/>
<path d="M284.487 225.225H275.44C275.44 225.225 260.648 211.415 236.908 207.501C236.908 207.501 280.763 212.333 284.487 225.225Z" fill="#B64C41"/>
<path d="M10.5879 219.324H12.9822C14.3237 219.324 15.5482 218.555 16.1213 217.343C17.5057 214.414 20.5456 208.85 25.2098 204.896C27.0162 203.365 25.9353 200.415 23.5677 200.415H10.5879V219.324Z" fill="#B64C41"/>
<path d="M129.346 209.87H141.38C142.045 209.87 142.584 209.331 142.584 208.667C142.584 208.002 142.045 207.463 141.38 207.463H129.346C128.682 207.463 128.143 208.002 128.143 208.667C128.143 209.331 128.682 209.87 129.346 209.87Z" fill="#163560"/>
<path d="M76.1491 209.87H88.1827C88.8476 209.87 89.3865 209.331 89.3865 208.667C89.3865 208.002 88.8476 207.463 88.1827 207.463H76.1491C75.4843 207.463 74.9453 208.002 74.9453 208.667C74.9453 209.331 75.4843 209.87 76.1491 209.87Z" fill="#163560"/>
<path d="M86.3359 217.68H194.831C199.317 217.68 202.077 222.589 199.745 226.423L192.758 237.909C191.237 240.408 187.916 241.094 185.535 239.395C176.259 232.782 149.536 219.059 86.3359 217.68Z" fill="#DD7F30"/>
<path d="M125.933 167.075H131.497C132.224 167.075 132.874 167.531 133.12 168.215L136.4 177.334H124.209V168.798C124.208 167.846 124.979 167.075 125.933 167.075Z" fill="#F1A34F"/>
<path d="M124.207 177.189V170.952H126.594C128.24 170.952 129.709 171.987 130.262 173.537L131.565 177.189H124.207Z" fill="#163560"/>
<path d="M157.66 220.771H149.426V229.006H157.66V220.771Z" fill="#163560"/>
<path d="M149.426 229.005H141.191V237.24H149.426V229.005Z" fill="#163560"/>
<path d="M141.193 220.771H132.959V229.006H141.193V220.771Z" fill="#163560"/>
<path d="M132.959 229.005H124.725V237.24H132.959V229.005Z" fill="#163560"/>
<path d="M124.722 220.771H116.488V229.006H124.722V220.771Z" fill="#163560"/>
<path d="M72.1362 257.146C81.1111 248.171 81.1111 233.618 72.1362 224.643C63.1613 215.667 48.6101 215.667 39.6352 224.643C30.6604 233.618 30.6603 248.171 39.6352 257.146C48.6101 266.122 63.1613 266.122 72.1362 257.146Z" fill="#2D3A62"/>
<path d="M55.8883 226.656C63.7523 226.656 70.1281 233.031 70.1281 240.897C70.1281 248.763 63.7537 255.138 55.8883 255.138C48.0228 255.138 41.6484 248.763 41.6484 240.897C41.6484 233.031 48.0243 226.656 55.8883 226.656ZM53.9382 228.217C50.8376 228.691 48.1043 230.277 46.1527 232.551L51.0879 235.599C51.8919 234.869 52.8647 234.322 53.9397 234.017V228.217H53.9382ZM57.8384 228.217V234.019C58.9133 234.322 59.8847 234.87 60.6902 235.6L65.6253 232.553C63.6723 230.275 60.9404 228.689 57.8384 228.217ZM67.7146 245.87C68.3587 244.34 68.7156 242.659 68.7156 240.896C68.7156 239.108 68.3498 237.407 67.6894 235.862L62.7572 238.908C62.9394 239.539 63.0386 240.206 63.0386 240.896C63.0386 241.562 62.9453 242.206 62.775 242.818L67.7146 245.87ZM57.8384 253.576C60.9626 253.099 63.7123 251.494 65.6668 249.191L60.7376 246.147C59.9232 246.899 58.9341 247.463 57.8369 247.774V253.576H57.8384ZM59.1206 240.896C59.1206 239.11 57.6725 237.663 55.8883 237.663C54.1026 237.663 52.6559 239.111 52.6559 240.896C52.6559 242.68 54.104 244.128 55.8883 244.128C57.674 244.13 59.1206 242.682 59.1206 240.896ZM53.9382 253.576V247.774C52.841 247.463 51.8519 246.899 51.0375 246.147L46.1083 249.191C48.0628 251.494 50.8139 253.099 53.9382 253.576ZM49.0031 242.818C48.8328 242.206 48.7395 241.562 48.7395 240.896C48.7395 240.206 48.8387 239.539 49.0208 238.908L44.0886 235.862C43.4282 237.408 43.0625 239.11 43.0625 240.896C43.0625 242.659 43.4193 244.34 44.0635 245.87L49.0031 242.818Z" fill="#98BDF4"/>
<path d="M256.767 257.181C265.742 248.206 265.742 233.653 256.767 224.677C247.792 215.702 233.241 215.702 224.266 224.677C215.291 233.653 215.291 248.206 224.266 257.181C233.241 266.157 247.792 266.157 256.767 257.181Z" fill="#2D3A62"/>
<path d="M240.519 226.688C248.383 226.688 254.759 233.065 254.759 240.929C254.759 248.794 248.385 255.171 240.519 255.171C232.655 255.171 226.279 248.794 226.279 240.929C226.279 233.065 232.655 226.688 240.519 226.688ZM238.569 228.249C235.469 228.721 232.735 230.309 230.784 232.583L235.719 235.631C236.523 234.901 237.496 234.354 238.571 234.049V228.249H238.569ZM242.469 228.249V234.051C243.544 234.354 244.516 234.902 245.321 235.632L250.256 232.585C248.303 230.309 245.57 228.723 242.469 228.249ZM252.346 245.903C252.99 244.374 253.345 242.693 253.345 240.929C253.345 239.142 252.979 237.442 252.319 235.896L247.387 238.944C247.569 239.574 247.668 240.241 247.668 240.931C247.668 241.597 247.575 242.241 247.404 242.853L252.346 245.903ZM242.469 253.61C245.594 253.133 248.343 251.528 250.299 249.225L245.37 246.18C244.556 246.933 243.567 247.497 242.469 247.808V253.61ZM243.752 240.929C243.752 239.143 242.303 237.697 240.519 237.697C238.735 237.697 237.287 239.143 237.287 240.929C237.287 242.715 238.735 244.162 240.519 244.162C242.303 244.162 243.752 242.715 243.752 240.929ZM238.569 253.61V247.808C237.472 247.497 236.483 246.933 235.668 246.18L230.739 249.225C232.694 251.528 235.445 253.133 238.569 253.61ZM233.634 242.851C233.464 242.24 233.37 241.596 233.37 240.929C233.37 240.239 233.47 239.573 233.652 238.942L228.72 235.895C228.059 237.441 227.693 239.142 227.693 240.928C227.693 242.692 228.05 244.372 228.694 245.902L233.634 242.851Z" fill="#98BDF4"/>
<path d="M358.882 185.698C357.865 185.698 356.964 185.493 356.184 185.104C346.481 180.287 355.488 147.187 355.488 147.187C355.488 147.187 355.946 145.693 357.711 144.896C358.627 144.489 359.899 144.269 361.663 144.557C366.77 145.406 367.753 147.526 367.956 148.714C368.178 149.919 372.792 185.63 358.882 185.698Z" fill="#6653A2"/>
<path d="M356.184 185.103C346.481 180.286 355.488 147.187 355.488 147.187C355.488 147.187 355.946 145.693 357.711 144.896C361.46 145.881 362.24 147.661 362.443 148.713C362.631 149.833 366.601 180.489 356.184 185.103Z" fill="#6653A2"/>
<path d="M376.154 253.425C376.154 253.425 378.365 255.474 377.934 256.93C377.503 258.386 375.507 259.357 375.237 261.136C374.968 262.916 376.545 264.161 375.575 264.161C374.605 264.161 368.291 263.886 368.291 263.886C368.291 263.886 367.576 262.633 369.303 262.255C371.028 261.877 371.679 259.787 371.571 257.845C371.463 255.904 371.732 253.315 371.732 253.315L375.399 252.452L376.154 253.425Z" fill="#233862"/>
<path d="M349.03 258.904C349.03 258.904 349.569 263.217 348.599 263.703C347.629 264.189 336.035 264.027 336.035 264.027C336.035 264.027 336.035 262.572 338.03 262.247C340.024 261.925 343.53 260.737 344.123 258.095C344.717 255.453 349.03 258.904 349.03 258.904Z" fill="#233862"/>
<path d="M338.543 193.027C338.543 193.027 339.197 201.202 339.969 211.028C341.016 224.376 342.274 240.773 342.399 243.88C342.613 249.274 343.478 257.902 343.478 257.902C343.478 257.902 345.526 259.951 349.626 259.088C349.626 259.088 353.279 246.772 354.323 233.741C354.339 233.527 354.355 233.311 354.372 233.096C355.341 219.83 356.852 191.895 356.852 191.895L338.543 193.027Z" fill="#231F20"/>
<path d="M338.543 193.026C338.543 193.026 339.197 201.202 339.969 211.027L354.321 233.739C354.338 233.526 354.354 233.309 354.37 233.095C355.34 219.828 356.85 191.894 356.85 191.894L338.543 193.026Z" fill="#231F20"/>
<path d="M341.535 193.998C341.535 193.998 353.344 223.604 361.108 237.516C368.873 251.43 371.3 255.313 371.3 255.313C371.3 255.313 375.748 253.533 376.152 252.32C376.152 252.32 373.184 225.459 367.983 218.913C365.046 215.212 361.594 204.11 361.431 200.226C361.27 196.343 360.38 188.659 360.38 188.659L341.535 193.998Z" fill="#231F20"/>
<path d="M320.679 160.433L318.193 160.519C317.709 160.535 317.238 160.402 316.808 160.177C315.917 159.707 314.15 159.201 312.701 161.412C312.701 161.412 311.947 162.776 312.926 163.166C313.905 163.559 313.564 163.238 314.938 163.827C315.969 164.268 317.025 164.255 317.75 163.812C318.367 163.436 319.143 163.427 319.845 163.602L322.115 164.168L320.679 160.433Z" fill="#FFB27D"/>
<path d="M347.591 148.296C347.065 145.195 347.049 143.357 347.049 143.357L353.04 138.528C352.818 145.168 357.072 148.361 357.072 148.361C357.072 148.361 349.088 152.291 344.473 150.836C344.474 150.837 345.61 149.384 347.591 148.296Z" fill="#FFB27D"/>
<path d="M345.639 143.25C345.639 143.25 353.262 144.516 353.977 139.757C354.692 134.997 356.158 131.956 351.322 130.946C346.486 129.936 345.264 131.609 344.64 133.14C344.015 134.67 343.676 142.797 345.639 143.25Z" fill="#FFB27D"/>
<path d="M317.979 161.994C318.075 160.537 318.58 159.063 318.58 159.063C318.58 159.063 332.371 158.305 333.671 158.082C334.971 157.858 351.795 149.798 351.795 149.798L359.903 158.973C359.903 158.973 338.24 164.953 334.934 165.452C329.472 166.278 318.284 164.111 318.284 164.111C318.284 164.111 317.903 163.139 317.979 161.994Z" fill="#963333"/>
<path d="M361.274 190.177C361.29 190.448 360.985 190.753 360.63 190.991C360.341 191.196 360.002 191.348 359.799 191.449C358.781 191.906 357.781 192.314 356.797 192.671C354.438 193.552 352.115 194.145 349.587 194.384C346.889 194.655 343.886 194.384 341.597 194.163C340.307 194.011 339.256 193.892 338.612 193.892H338.528C338.341 193.892 338.172 193.824 338.036 193.706C337.934 193.638 337.849 189.601 337.9 184.171C337.9 183.406 337.916 182.626 337.916 181.812C337.916 181.557 337.916 181.27 337.95 181.015V180.929C337.968 178.385 338.052 175.687 338.171 173.024V172.973C338.425 167.052 338.883 161.351 339.68 158.179C340.596 154.464 342.733 152.02 344.667 150.205L346.261 148.797C346.396 148.831 346.532 148.848 346.668 148.865C348.127 149.103 349.671 148.967 351.232 148.203C353.047 147.304 355.049 146.319 355.371 146.558C355.405 146.592 355.455 146.626 355.489 146.66C356.049 147.101 356.558 147.661 357.016 148.323C357.05 148.339 357.05 148.339 357.05 148.357C357.066 148.357 357.066 148.357 357.066 148.357C357.439 148.899 357.796 149.51 358.117 150.188C358.643 151.258 359.084 152.496 359.474 153.87C360.509 157.585 361.018 162.268 361 167.271C361 168.543 360.966 169.833 360.882 171.139C360.866 171.512 360.848 171.869 360.831 172.225C360.679 175.465 360.697 178.468 360.781 181.098V181.182C360.866 183.846 361.02 186.103 361.138 187.782C361.208 188.803 361.258 189.616 361.274 190.177Z" fill="#B64C41"/>
<path d="M361.14 187.788C360.897 184.252 360.475 178.169 360.887 171.15C360.961 169.842 360.999 168.546 361.005 167.27C359.427 163.441 358.136 160.662 358.136 160.662H354.157C354.157 160.664 351.24 180.591 361.14 187.788Z" fill="#963333"/>
<path d="M353.983 139.299C353.983 139.299 353.201 139.168 353.327 138.09C353.453 137.012 353.451 135.604 352.576 135.868C351.7 136.13 351.657 136.832 351.297 136.421C350.937 136.011 350.93 134.286 348.324 134.166C345.718 134.046 344.658 134.952 343.446 134.421C342.234 133.888 342.17 132.053 342.17 132.053C342.17 132.053 342.515 132.708 343.036 132.916C343.036 132.916 341.013 130.15 343.354 128.253C345.696 126.356 348.082 127.599 349.437 127.68C352.422 127.861 354.35 128.04 355.326 130.002C356.302 131.963 355.899 137.409 353.983 139.299Z" fill="black"/>
<path d="M367.645 185.887L369.127 189.379C369.306 189.801 369.291 190.27 369.125 190.698C368.761 191.639 368.46 193.451 370.824 194.636C370.824 194.636 372.264 195.228 372.541 194.211C372.818 193.193 372.538 193.568 372.966 192.136C373.339 190.883 373.094 189.666 372.335 189.044C372.069 188.825 371.945 188.476 371.908 188.132L371.674 185.909L367.645 185.887Z" fill="#FFB27D"/>
<path d="M370.884 189.383C369.451 189.663 367.898 189.549 367.898 189.549C367.898 189.549 363.644 176.407 363.096 175.207C362.548 174.006 350.461 159.798 350.461 159.798L355.497 147.194C355.497 147.194 368.571 169.035 369.898 172.105C372.092 177.177 372.853 188.547 372.853 188.547C372.853 188.547 372.009 189.164 370.884 189.383Z" fill="#B64C41"/>
<path d="M354.387 174.976C352.758 172.974 351.181 170.123 350.18 166.119C349.739 164.372 349.4 162.387 349.229 160.165C349.229 160.165 348.772 155.94 350.874 152.989C351.604 151.953 352.656 151.055 354.148 150.579C355.013 150.274 356.048 150.122 357.253 150.156C357.524 150.156 359.597 150.095 359.902 150.129C359.579 149.449 360.024 148.511 359.65 147.969C359.65 147.969 358.613 148.351 358.596 148.351C358.512 148.351 356.659 148.34 356.184 148.358C355.845 148.374 355.438 148.392 354.98 148.46C353.42 148.681 351.299 149.291 349.637 150.87C349.111 151.343 348.652 151.921 348.245 152.601C348.076 152.872 347.922 153.228 347.787 153.618C346.786 156.671 346.939 162.882 348.907 168.666C350.178 172.382 352.198 175.928 355.165 178.354C356.676 179.608 358.651 180.639 360.7 181.176C360.885 181.225 361.072 181.102 361.106 180.914L361.251 180.111C361.288 179.912 361.173 179.716 360.98 179.651C359.973 179.31 356.889 178.078 354.387 174.976Z" fill="#6653A2"/>
<path d="M429.771 168.683C429.771 168.683 427.572 169.869 427.147 171.258C426.724 172.647 426.617 188.764 425.928 190.195C425.238 191.627 424.585 199.844 425.646 203.802C425.646 203.802 424.83 207.319 425.087 208.008C425.345 208.696 427.442 209.545 428.195 209.491C428.949 209.438 429.334 205.056 428.506 203.8L429.771 168.683Z" fill="#FFB27D"/>
<path d="M450.667 162.45C449.305 161.261 448.979 159.277 448.91 158.123C449.179 160.168 451.02 161.973 451.02 161.973C448.828 159.376 452.363 149.867 446.829 147.464C443.207 145.891 440.539 146.922 439.127 147.822C435.967 147.394 432.178 151.948 432.178 151.948L439.74 161.972C439.74 161.972 440.28 160.725 441.035 160.781C440.624 162.369 440.382 163.666 441.176 164.48C445.113 168.526 443.507 170.488 445.754 171.182C448.505 172.032 453.988 165.348 450.667 162.45Z" fill="black"/>
<path d="M431.271 168.2C431.271 168.2 428.847 168.353 427.6 169.785C426.353 171.215 426.188 182.881 426.188 182.881C426.188 182.881 426.53 184.187 427.979 184.081C429.427 183.976 431.271 168.2 431.271 168.2Z" fill="#6653A2"/>
<path d="M456.054 197.285C455.887 197.691 455.16 198.052 454.113 198.312C451.766 198.896 447.808 198.972 444.923 197.903C441.829 196.757 439.584 180.399 438.63 172.015C438.297 169.09 438.121 167.136 438.121 167.136C438.121 167.136 439.899 164.353 446.779 165.28C453.658 166.207 454.354 168.528 454.971 172.702C455.59 176.878 456.594 195.97 456.054 197.285Z" fill="#6653A2"/>
<path d="M454.113 198.311C451.766 198.896 447.808 198.972 444.924 197.903C441.829 196.756 439.584 180.399 438.631 172.015C439.445 169.13 440.092 167.232 440.092 167.232C440.092 167.232 448.731 166.188 450.411 168.797C451.914 171.132 453.743 193.593 454.113 198.311Z" fill="#231F20"/>
<path d="M447.854 199.319C445.488 194.012 444.355 192.512 444.316 190.843C444.285 189.522 444.935 188.098 446.2 184.604C446.497 183.781 446.703 182.936 446.829 182.08C447.83 175.345 443.936 168.065 441.515 167.569C440.841 167.391 439.7 164.958 439.714 161.039L439.411 161.098L434.314 162.108C434.314 162.108 434.43 163.711 434.434 165.223C434.437 166.482 434.362 167.676 434.076 167.827C433.709 167.859 433.493 167.881 433.493 167.881C433.493 167.881 429.243 173.783 428.886 179.272C428.529 184.761 432.289 187.146 428.858 198.114C425.356 209.317 449.161 202.251 447.854 199.319Z" fill="#FFB27D"/>
<path d="M434.316 162.107C434.316 162.107 434.432 163.71 434.436 165.222C437.288 165.142 438.796 162.541 439.413 161.098L434.316 162.107Z" fill="#E8945B"/>
<path d="M439.939 160.543C439.939 160.543 441.434 158.181 441.792 156.163C442.048 154.72 441.314 149.377 435.945 150.146C435.945 150.146 434.385 150.3 432.92 151.289C431.754 152.077 430.071 153.777 431.953 158.44L432.441 160.016L439.939 160.543Z" fill="black"/>
<path d="M433.364 163.538C433.364 163.538 440.112 163.649 440.116 159.447C440.121 155.243 440.994 152.426 436.687 152.177C432.38 151.929 431.54 153.532 431.198 154.935C430.855 156.337 431.608 163.401 433.364 163.538Z" fill="#FFB27D"/>
<path d="M433.613 152.074C433.613 152.074 435.461 157.005 438.297 157.734C441.132 158.462 442.361 157.703 442.361 157.703C442.361 157.703 443.358 153.086 442.906 150.069C442.906 150.071 435.007 149.727 433.613 152.074Z" fill="black"/>
<path d="M434.071 152.475C434.071 152.475 432.691 153.575 432.355 154.646C432.019 155.717 431.868 157.92 431.225 157.845C431.225 157.845 429.833 154.494 431.397 152.597C433.057 150.587 434.071 152.475 434.071 152.475Z" fill="black"/>
<path d="M441.881 250.242C440.182 256.996 437.628 262.173 437.628 262.173L435.403 262.019C435.403 262.019 436.494 256.828 436.432 249.813C436.387 244.908 435.782 239.114 433.844 233.58C427.186 214.565 428.261 200.725 428.261 200.725L440.782 202.189L441.365 202.257C441.417 208.008 441.565 215.816 441.696 221.92C441.811 227.411 441.912 231.523 441.912 231.523C444.318 236.709 443.443 244.027 441.881 250.242Z" fill="#231F20"/>
<path d="M446.2 184.605C444.936 188.098 444.284 189.522 444.317 190.843C440.286 184.602 433.006 183.66 433.006 183.66L446.831 182.08C446.704 182.934 446.498 183.781 446.2 184.605Z" fill="#CB7D45"/>
<path d="M456.63 204.956L454.604 205.563C454.604 205.563 447.922 194.474 447.315 191.59C447.116 190.651 446.631 188.77 446.064 186.664C444.889 182.303 443.376 176.967 443.376 176.967L442.877 174.806L441.176 167.439C441.176 167.439 444.433 167.772 446.338 168.569C446.968 168.832 447.449 169.146 447.617 169.515C449.016 172.592 450.414 180.359 451.396 185.9C451.943 188.988 452.361 191.385 452.579 191.893C453.187 193.312 455.044 201.109 456.63 204.956Z" fill="#FFB27D"/>
<path d="M449.063 249.165C448.344 256.849 445.173 261.817 445.173 261.817L444.11 262.59C444.11 262.59 443.105 257.178 442.393 250.736C441.715 244.614 440.785 238.137 439.733 236.16C435.558 228.319 434.301 198.719 434.301 198.719L446.995 198.089C448.271 200.235 448.828 203.757 448.96 207.759C449.293 217.861 446.919 231.035 446.564 232.939C446.564 232.941 446.564 232.942 446.562 232.944C446.534 233.092 446.577 233.235 446.645 233.369C449.173 238.368 449.537 244.088 449.063 249.165Z" fill="#231F20"/>
<path d="M433.814 152.641C433.814 152.641 435.131 157.805 438.708 159.459C438.708 159.459 435.131 156.286 434.827 152.877C434.524 149.469 433.814 152.641 433.814 152.641Z" fill="black"/>
<path d="M449.444 203.151C449.466 203.579 449.443 203.921 449.366 204.165C449.096 205.015 448.168 205.403 445.926 205.17C444.556 205.028 443.945 202.73 443.672 200.771C442.849 203.574 441.697 205.148 440.206 205.478C438.032 205.961 427.066 207.295 426.348 202.081C425.559 196.348 427.924 186.194 428.053 180.72C427.73 178.779 427.62 177.094 427.654 175.647C427.746 171.748 428.891 169.562 429.77 168.681C430.019 168.49 430.269 168.37 431.27 168.199C431.781 168.111 432.49 168.011 433.494 167.879C433.494 167.879 433.904 167.833 433.894 167.848C433.709 168.179 431.224 171.941 431.418 172.908C431.621 173.921 440.43 173.008 441.037 172.452C441.644 171.895 442.605 167.63 442.605 167.63C442.605 167.63 446.016 167.714 447.543 168.825C447.543 168.825 447.983 169.38 448.061 169.53C449.688 172.629 450.888 180.445 452.031 186.025C449.261 187.552 446.838 187.097 446.087 186.896C447.071 193.324 449.299 200.223 449.444 203.151Z" fill="#6653A2"/>
<path d="M433.494 167.881C433.494 167.881 433.49 167.888 433.481 167.904C433.182 168.378 428.503 175.858 428.053 180.722C427.73 178.781 427.62 177.096 427.654 175.649C428.256 173.811 429.717 169.729 431.27 168.2C431.466 168.008 433.494 167.881 433.494 167.881Z" fill="#231F20"/>
<path d="M449.063 249.165C448.344 256.849 445.173 261.817 445.173 261.817L444.091 262.803C444.091 262.803 443.105 257.177 442.393 250.737C443.143 250.791 446.45 250.911 449.063 249.165Z" fill="#FFB27D"/>
<path d="M441.88 250.243C440.182 256.997 437.628 262.174 437.628 262.174L435.402 262.02C435.402 262.02 436.494 256.828 436.431 249.813C437.185 250.194 438.744 250.58 441.88 250.243Z" fill="#FFB27D"/>
<path d="M438.909 264.041H437.489C437.013 263.967 436.661 263.828 436.174 263.764C435.433 263.666 435.091 263.971 435.023 264.041C435.014 264.05 435.01 264.056 435.01 264.056H428.976C428.825 263.839 428.97 263.336 429.112 262.967C429.209 262.716 429.419 262.526 429.678 262.45C430.318 262.265 431.579 262.099 432.734 261.054C433.384 260.468 435.873 258.895 435.873 258.895L435.886 258.892C435.941 258.893 436.202 258.973 437.333 259.929C437.918 260.422 438.916 259.233 438.916 259.233C438.916 259.233 439.104 259.388 439.243 259.677C439.356 259.905 439.437 260.217 439.372 260.604C439.282 261.147 439.572 262.159 439.804 262.841C439.945 263.256 440.063 263.549 440.063 263.549C440.063 263.549 440.13 263.888 438.909 264.041Z" fill="#231F20"/>
<path d="M439.241 259.673C438.902 259.911 438.185 260.382 437.712 260.444C437.07 260.529 435.871 258.892 435.871 258.892L435.884 258.889C435.939 258.891 436.2 258.971 437.331 259.926C437.916 260.419 438.914 259.23 438.914 259.23C438.914 259.23 439.102 259.384 439.241 259.673Z" fill="#231F20"/>
<path d="M438.909 264.04H437.489C437.013 263.966 436.661 263.826 436.174 263.763C435.434 263.665 435.091 263.97 435.023 264.04C435.014 264.049 435.01 264.055 435.01 264.055H428.976C428.825 263.838 428.97 263.335 429.112 262.966C429.296 262.803 429.348 263.674 429.448 263.813C429.549 263.952 434.372 263.864 434.65 263.661C434.929 263.458 435.764 263.104 436.929 263.382C437.942 263.624 439.436 263.003 439.806 262.839C439.947 263.253 440.065 263.547 440.065 263.547C440.065 263.547 440.13 263.887 438.909 264.04Z" fill="#231F20"/>
<path d="M446.487 264.04H445.067C444.592 263.966 444.24 263.827 443.753 263.763C443.012 263.665 442.67 263.97 442.602 264.04C442.593 264.049 442.589 264.055 442.589 264.055H436.555C436.402 263.838 436.549 263.335 436.691 262.966C436.787 262.715 436.998 262.525 437.257 262.449C437.896 262.264 439.158 262.098 440.313 261.053C440.963 260.467 443.452 258.894 443.452 258.894L443.465 258.891C443.52 258.892 443.781 258.972 444.912 259.928C445.497 260.421 446.495 259.232 446.495 259.232C446.495 259.232 446.681 259.387 446.822 259.676C446.934 259.904 447.016 260.216 446.952 260.603C446.862 261.146 447.152 262.158 447.385 262.84C447.525 263.255 447.644 263.548 447.644 263.548C447.644 263.548 447.71 263.887 446.487 264.04Z" fill="#231F20"/>
<path d="M446.822 259.673C446.483 259.911 445.767 260.382 445.292 260.444C444.651 260.529 443.453 258.892 443.453 258.892L443.466 258.889C443.521 258.891 443.782 258.971 444.913 259.926C445.498 260.419 446.496 259.23 446.496 259.23C446.496 259.23 446.683 259.384 446.822 259.673Z" fill="#231F20"/>
<path d="M446.488 264.04H445.068C444.593 263.966 444.24 263.826 443.753 263.763C443.013 263.665 442.671 263.97 442.603 264.04C442.594 264.049 442.59 264.055 442.59 264.055H436.556C436.335 263.788 436.55 263.335 436.692 262.966C436.876 262.803 436.927 263.674 437.028 263.813C437.129 263.952 441.951 263.864 442.23 263.661C442.508 263.458 443.343 263.104 444.508 263.382C445.521 263.624 447.015 263.003 447.385 262.839C447.526 263.253 447.645 263.547 447.645 263.547C447.645 263.547 447.711 263.887 446.488 264.04Z" fill="#231F20"/>
<path d="M449.445 203.151C447.939 202.647 446.005 201.31 443.685 198.31C437.54 190.367 443.164 181.031 443.917 180.858C444.671 180.683 446.089 186.897 446.089 186.897C447.071 193.324 449.3 200.223 449.445 203.151Z" fill="#6653A2"/>
<path d="M445.219 167.442C445.219 167.442 439.821 171.273 439.357 180.201C438.894 189.129 446.932 190.946 446.932 190.946L446.411 188.125C446.411 188.125 439.899 185.767 441.599 178.655C443.299 171.543 448.194 167.881 448.194 167.881L445.219 167.442Z" fill="#231F20"/>
<path d="M456.486 204.62C456.486 204.62 457.102 206.071 457.743 206.477C458.384 206.881 459.431 208.55 459.16 209.296C459.021 209.681 457.906 210.851 456.63 210.73C455.823 210.653 455.279 207.051 455.044 206.376C454.807 205.701 454.605 205.566 454.605 205.566L456.486 204.62Z" fill="#FFB27D"/>
<path d="M405.474 200.524C405.474 200.524 410.89 198.059 414.989 200.216C419.087 202.374 416.582 220.178 410.721 221.903C410.721 221.903 398.14 237.195 405.474 200.524Z" fill="#231F20"/>
<path d="M395.884 202.587C395.618 200.505 396.136 196.729 396.136 196.729C396.136 196.729 394.296 196.634 393.266 199.059C391.131 204.085 392.058 214.935 392.188 216.489C392.188 216.489 391.456 219.573 392.545 224.909C392.385 225.288 392.168 225.78 392.037 225.976C392.018 225.999 392 226.021 391.984 226.046C391.852 226.246 391.839 226.514 391.975 226.729L392.68 227.847C392.747 227.952 392.84 228.03 392.947 228.081C392.982 228.097 393.018 228.11 393.056 228.119L393.93 228.325L394.016 225.349C394.014 225.346 394.01 225.346 394.005 225.347C394.306 222.415 396.129 204.499 395.884 202.587ZM393.626 225.562L393.609 225.538L393.646 225.56C393.637 225.563 393.629 225.565 393.626 225.562Z" fill="#FFB27D"/>
<path d="M411.481 261.54L410.785 264.053H404.904C404.904 264.053 403.152 260.841 411.481 261.54Z" fill="#233862"/>
<path d="M398.869 261.54L398.173 264.053H392.292C392.292 264.053 390.542 260.841 398.869 261.54Z" fill="#233862"/>
<path d="M410.336 185.766C410.72 184.1 410.246 182.87 409.482 181.685C408.749 180.549 407.719 180.5 406.728 179.538C405.795 178.631 404.058 178.036 402.675 178.036C398.25 178.036 394.418 180.746 395.291 185.34C395.568 186.8 395.334 187.95 396.517 189.656C397.993 191.786 399.789 193.496 402.674 193.496C404.205 193.496 405.546 193.142 406.726 192.027C407.369 191.42 408.292 191.344 408.857 190.682C410.002 189.347 409.917 187.586 410.336 185.766Z" fill="black"/>
<path d="M399.605 191.207C399.605 191.207 400.577 194.96 398.613 196.557L404.129 199.376L404.856 195.727C404.856 195.727 403.814 192.877 404.099 188.907L399.605 191.207Z" fill="#FFB27D"/>
<path d="M399.466 193.098C399.466 193.098 405.112 193.787 405.232 189.808C405.352 185.83 402.999 183.253 401.428 183.283C398.296 183.342 397.78 184.607 397.417 185.925C397.053 187.243 396.866 192.817 399.466 193.098Z" fill="#FFB27D"/>
<path d="M394.078 223.16L405.235 224.083C405.235 224.083 406.545 243.652 399.214 261.793L392.963 261.675L394.078 223.16Z" fill="#231F20"/>
<path d="M411.391 224.285C411.391 224.285 414.824 237.621 412.04 261.962L404.468 261.963L400.836 230.364C400.696 229.428 398.937 228.125 398.937 228.125L398.869 224.513L411.391 224.285Z" fill="#231F20"/>
<path d="M411.645 204.506L412.375 198.513C412.264 198.358 412.177 198.226 412.066 198.092C410.784 196.523 405.853 195.837 404.858 195.726C404.851 195.738 404.814 195.812 404.673 195.96C403.767 196.779 402.535 197.65 400.899 197.429C399.505 197.253 399.279 196.523 399.322 195.726C396.403 196.212 394.743 197.131 394.743 197.131C391.77 198.246 391.172 208.127 391.172 208.127C391.567 208.008 393.541 208.355 394.456 208.525L394.087 223.17C401.186 226.267 411.401 224.276 411.401 224.276L411.379 224.188L410.693 212.467L411.334 207.115L411.645 204.506Z" fill="#B64C41"/>
<path d="M407.096 223.801C407.578 224.405 409.956 224.618 411.385 224.18L410.689 212.476L411.647 204.515L410.722 204.085C410.722 204.085 406.659 207.345 407.134 209.942C407.609 212.541 406.474 223.024 407.096 223.801Z" fill="#B64C41"/>
<path d="M415.823 205.103C415.823 205.103 412.682 206.274 411.335 207.115C411.07 207.271 410.892 207.403 410.783 207.536L406.493 199L405.674 197.386L404.922 195.861L404.855 195.728C404.855 195.728 404.915 195.732 405.032 195.75C405.452 195.794 406.492 195.928 407.685 196.193C408.437 196.37 409.255 196.569 409.985 196.856H410.007C410.891 197.188 411.643 197.608 412.063 198.094C412.175 198.227 412.262 198.359 412.373 198.515C413.811 200.57 415.823 205.103 415.823 205.103Z" fill="#B64C41"/>
<path d="M411.349 221.189C411.349 221.189 395.923 204.616 405.675 197.385C406.25 196.942 406.915 196.544 407.688 196.19C408.44 196.367 409.257 196.566 409.987 196.853C409.19 197.074 407.688 197.65 406.494 198.997C404.128 201.629 403.179 207.367 411.228 219.02L411.349 221.189Z" fill="#231F20"/>
<path d="M400.029 183.32C400.029 183.32 404.853 183.317 403.746 186.629C403.047 188.717 405.37 189.042 405.37 189.042L406.488 185.695L405.788 183.089L400.029 183.32Z" fill="black"/>
<path d="M415.684 205.134C414.193 205.594 411.941 206.597 411.257 207.27C412.015 209.013 412.441 210.167 412.441 210.167C411.871 209.914 408.923 209.674 407.395 209.564C407.222 209.551 405.824 209.093 405.824 209.093C405.824 209.093 405.812 206.708 403.083 206.518C403.083 206.518 401.946 206.526 402.18 207.302C402.414 208.077 402.438 207.741 402.743 208.843C403.048 209.946 403.84 210.784 404.684 210.835C408.735 214.242 414.315 214.27 415.997 214.192C416.296 214.178 416.553 213.968 416.62 213.676C417.258 210.907 416.821 208.036 415.684 205.134Z" fill="#FFB27D"/>
<path d="M198.148 257.657H193.007L184.506 262.207L199.123 262.032L198.148 257.657Z" fill="#070808"/>
<path d="M199.174 263.955L199.123 262.032L184.506 262.206L184.556 264.13L199.174 263.955Z" fill="white"/>
<path d="M189.455 259.333L191.139 259.793" stroke="white" stroke-width="1.4566" stroke-miterlimit="10" stroke-linecap="round" stroke-linejoin="round"/>
<path d="M191.102 258.488L192.785 258.948" stroke="white" stroke-width="1.4566" stroke-miterlimit="10" stroke-linecap="round" stroke-linejoin="round"/>
<path d="M192.463 250.411H197.703L198.147 257.658H192.909L192.463 250.411Z" fill="#F9B189"/>
<path d="M189.035 202.787L192.265 255.328H199.561L198.3 202.787H189.035Z" fill="#070808"/>
<path d="M209.962 257.657H204.821L196.32 262.207L210.938 262.032L209.962 257.657Z" fill="#070808"/>
<path d="M210.988 263.955L210.938 262.032L196.32 262.206L196.371 264.13L210.988 263.955Z" fill="white"/>
<path d="M201.27 259.333L202.953 259.793" stroke="white" stroke-width="1.4566" stroke-miterlimit="10" stroke-linecap="round" stroke-linejoin="round"/>
<path d="M202.914 258.488L204.599 258.948" stroke="white" stroke-width="1.4566" stroke-miterlimit="10" stroke-linecap="round" stroke-linejoin="round"/>
<path d="M203.756 250.411H208.996L209.961 257.658H204.721L203.756 250.411Z" fill="#F9B189"/>
<path d="M204.482 202.787L211.625 255.328H203.65L193.268 202.787H204.482Z" fill="#070808"/>
<path d="M198.995 231.768L194.918 211.137L191.941 209.197" stroke="#111111" stroke-width="0.6376" stroke-miterlimit="10" stroke-linecap="round" stroke-linejoin="round"/>
<path d="M205.53 210.488L201.074 206.98" stroke="#111111" stroke-width="0.6376" stroke-miterlimit="10" stroke-linecap="round" stroke-linejoin="round"/>
<path d="M187.66 182.818L179.545 193.476C178.647 194.478 178.591 195.98 179.411 197.046C180.446 198.391 182.431 198.512 183.621 197.302L192.344 187.213C193.54 185.998 193.579 184.061 192.433 182.799C191.152 181.389 188.931 181.398 187.66 182.818Z" fill="#F9B189"/>
<path d="M191.636 178.774C191.636 178.774 187.668 179.268 184.631 185.158L189.298 190.752L191.636 178.774Z" fill="#E6515B"/>
<path d="M185.111 193.913L173.985 186.934L171.77 189.221L179.836 197.487L185.111 193.913Z" fill="#F9B189"/>
<path d="M172.201 182.573L166.684 184.183C166.684 184.183 166.684 188.46 171.773 189.233C172.051 189.276 173.304 188.796 173.518 188.603L174.365 186.19C174.666 185.794 174.639 185.24 174.305 184.873L172.201 182.573Z" fill="#F9B189"/>
<path d="M172.656 183.285L170.705 180.723C170.414 180.366 169.918 180.29 169.591 180.554C169.276 180.807 169.225 181.285 169.474 181.65L171.276 184.46L172.656 183.285Z" fill="#F8B0A0"/>
<path d="M170.297 185.33L167.953 183.015C167.629 182.689 167.148 182.657 166.872 182.941C166.607 183.213 166.623 183.684 166.909 184.02L169.146 186.59L170.297 185.33Z" fill="#F8B0A0"/>
<path d="M171.201 183.748L168.986 181.559C168.659 181.236 168.163 181.223 167.871 181.528C167.591 181.821 167.595 182.307 167.883 182.641L169.981 185.098L171.201 183.748Z" fill="#F8B0A0"/>
<path d="M167.472 177.028L166.594 177.084V182.851L169.677 187.678L170.614 187.601L168.96 181.537L167.472 177.028Z" fill="#2A428F"/>
<path d="M172.639 185.031L170.063 187.46C169.828 187.753 169.38 187.748 169.149 187.452L163.539 180.449C163.401 180.272 163.404 180.024 163.545 179.85L166.247 177.264C166.443 177.02 166.816 177.024 167.007 177.272L172.645 184.311C172.811 184.523 172.808 184.821 172.639 185.031Z" fill="#020403"/>
<path d="M173.497 184.975L170.92 187.404C170.685 187.697 170.238 187.693 170.007 187.397L164.396 180.394C164.259 180.216 164.262 179.969 164.402 179.794L167.105 177.208C167.3 176.964 167.673 176.969 167.864 177.216L173.503 184.256C173.669 184.467 173.666 184.765 173.497 184.975Z" fill="white"/>
<path d="M173.77 186.975C174.072 186.826 174.826 186.04 174.693 184.848C174.518 183.28 173.707 182.091 173.707 182.091C173.437 181.586 173.126 181.341 172.688 181.402C172.214 181.469 171.909 181.974 171.995 182.323L172.489 183.419C172.489 183.419 171.946 184.808 173.083 186.914L173.77 186.975Z" fill="#F9B189"/>
<path d="M199.102 177.644C199.102 177.644 202.103 178.346 204.243 179.425C205.59 180.105 205.739 181.573 205.569 183.073L204.482 202.787H189.034L187.953 183.74C187.805 181.651 189.031 179.603 191.016 178.929C193.237 178.174 194.64 177.454 195.823 177.386L199.102 177.644Z" fill="#E6515B"/>
<path d="M188.28 189.535L187.953 183.74" stroke="#111111" stroke-width="0.6376" stroke-miterlimit="10" stroke-linecap="round" stroke-linejoin="round"/>
<path d="M199.101 177.644L200.882 178.134C200.882 178.134 199.56 180.684 194.753 180.252C191.383 179.949 192.741 178.3 192.741 178.3L194.417 177.693L199.101 177.644Z" fill="#F9B189"/>
<path d="M213.703 188.963L205.725 200.707L207.873 203.058L216.679 194.429L213.703 188.963Z" fill="#F9B189"/>
<path d="M198.394 201.242L201.806 199.507L201.471 198.757C201.35 198.485 201.425 198.163 201.655 197.974C201.893 197.778 202.235 197.773 202.48 197.961L205.841 200.599L207.872 203.056C206.029 204.635 204.825 204.615 204.131 204.309C204.049 204.336 203.969 204.365 203.888 204.389L201.052 205.202C200.79 205.314 200.485 205.205 200.356 204.95C200.263 204.765 200.23 204.469 200.775 204.192L200.229 204.469C199.952 204.589 199.629 204.467 199.499 204.195C199.378 203.953 199.527 203.635 199.847 203.426L199.429 203.591C199.127 203.721 198.771 203.573 198.658 203.252C198.56 202.975 198.707 202.668 198.969 202.535L199.572 202.23L198.855 202.403C198.525 202.52 198.158 202.344 198.049 201.997C197.958 201.701 198.118 201.383 198.394 201.242Z" fill="#F9B189"/>
<path d="M199.391 202.315L201.409 201.363" stroke="#111111" stroke-width="0.4141" stroke-miterlimit="10" stroke-linecap="round" stroke-linejoin="round"/>
<path d="M199.934 203.392L201.878 202.582" stroke="#111111" stroke-width="0.4141" stroke-miterlimit="10" stroke-linecap="round" stroke-linejoin="round"/>
<path d="M200.596 204.265L202.244 203.615" stroke="#111111" stroke-width="0.4141" stroke-miterlimit="10" stroke-linecap="round" stroke-linejoin="round"/>
<path d="M202.511 185.724L212.655 194.475C213.601 195.431 215.095 195.579 216.21 194.824C217.615 193.873 217.856 191.899 216.722 190.638L207.184 181.318C206.043 180.05 204.113 179.893 202.783 180.961C201.298 182.153 201.171 184.37 202.511 185.724Z" fill="#F9B189"/>
<path d="M202.054 178.517C202.054 178.517 207.349 179.552 211.692 185.058L207.09 191.058L200.49 186.332L202.054 178.517Z" fill="#E6515B"/>
<path d="M190.897 161.095C190.897 161.095 189.11 162.691 190.592 166.279L193.045 161.437L190.897 161.095Z" fill="#070808"/>
<path d="M200.909 161.526C200.909 161.526 202.997 161.3 203.471 164.519C203.945 167.738 201.578 169.664 198.953 171.22L200.909 161.526Z" fill="#070808"/>
<path d="M196.556 171.77C199.863 171.77 202.544 169.026 202.544 165.642C202.544 162.258 199.863 159.514 196.556 159.514C193.249 159.514 190.568 162.258 190.568 165.642C190.568 169.026 193.249 171.77 196.556 171.77Z" fill="#070808"/>
<path d="M191.915 169.167C192.667 168.795 192.974 167.883 192.602 167.131C192.23 166.379 191.318 166.072 190.566 166.444C189.815 166.816 189.507 167.728 189.879 168.48C190.252 169.232 191.163 169.539 191.915 169.167Z" fill="#F3805F"/>
<path d="M194.393 171.808L194.303 178.419L199.233 177.604L198.877 168.121L194.393 171.808Z" fill="#F9B189"/>
<path d="M194.344 175.157L197.807 171.769L194.234 172.397L194.344 175.157Z" fill="#F3805F"/>
<path d="M191.284 162.698C191.284 162.698 189.95 168.023 190.553 170.068C191.155 172.113 192.743 173.438 195.393 173.003C195.393 173.003 198.451 172.945 199.354 168.436C200.715 161.647 194.573 159.162 191.284 162.698Z" fill="#F9B189"/>
<path d="M198.498 168.432C198.498 168.432 196.54 163.938 198.667 163.061C199.305 162.797 199.678 162.664 199.98 164.918C200.282 167.17 199.494 167.539 199.494 167.539L198.498 168.432Z" fill="#070808"/>
<path d="M201.203 168.947C200.926 169.769 200.036 170.212 199.215 169.935C198.393 169.658 197.95 168.768 198.227 167.946C198.504 167.124 199.394 166.682 200.216 166.958C201.037 167.235 201.48 168.125 201.203 168.947Z" fill="#F9B189"/>
<path d="M200.438 168.01C200.438 168.01 199.298 167.644 198.953 168.901" stroke="#111111" stroke-width="0.3944" stroke-miterlimit="10" stroke-linecap="round" stroke-linejoin="round"/>
<path d="M199.304 163.111C199.304 163.111 197.712 164.482 193.772 163.689C189.832 162.895 189.678 160.224 190.152 159.286C190.152 159.286 191.602 160.412 193.99 159.796C195.323 159.452 198.299 158.199 200.084 159.541C200.7 160.003 201.059 160.77 200.909 161.525C200.795 162.112 200.404 162.779 199.304 163.111Z" fill="#070808"/>
<path d="M145.198 183.823H130.023V200.506H145.198V183.823Z" fill="white"/>
<path d="M135.05 185.332H130.779V189.603H135.05V185.332ZM134.195 188.748H131.634V186.186H134.195V188.748Z" fill="black"/>
<path d="M133.341 187.039H132.486V187.893H133.341V187.039Z" fill="black"/>
<path d="M140.174 185.332V189.603H144.444V185.332H140.174ZM143.59 188.748H141.028V186.186H143.59V188.748Z" fill="black"/>
<path d="M142.735 187.039H141.881V187.893H142.735V187.039Z" fill="black"/>
<path d="M130.779 198.998H135.05V194.728H130.779V198.998ZM131.634 195.58H134.195V198.142H131.634V195.58Z" fill="black"/>
<path d="M133.341 196.435H132.486V197.29H133.341V196.435Z" fill="black"/>
<path d="M139.32 185.332H137.611V186.186H139.32V185.332Z" fill="black"/>
<path d="M137.612 188.748H138.466V187.894H139.32V187.039H136.757V186.185H135.904V187.039V187.467V187.894H137.612V188.748Z" fill="black"/>
<path d="M136.759 188.748H135.904V189.602H136.759V188.748Z" fill="black"/>
<path d="M139.32 189.603H138.466V190.456H135.904V191.31H139.32V189.603Z" fill="black"/>
<path d="M131.634 193.019H132.487V192.165H131.634V190.456H130.779V193.874H131.634V193.019Z" fill="black"/>
<path d="M133.341 190.456H132.486V191.31H133.341V190.456Z" fill="black"/>
<path d="M135.905 193.874H137.612V193.019H136.758V192.165H135.051V190.456H134.196V192.165H133.342V193.874H134.196V193.019H134.623H135.051H135.905V193.874Z" fill="black"/>
<path d="M139.319 192.165H138.465V193.874H139.319V192.165Z" fill="black"/>
<path d="M138.466 194.728H135.904V195.58H137.612V198.144H135.904V198.998H138.466V198.144H140.175V197.289H138.466V194.728Z" fill="black"/>
<path d="M136.759 196.435H135.904V197.29H136.759V196.435Z" fill="black"/>
<path d="M140.175 194.728H139.32V196.436H140.175V194.728Z" fill="black"/>
<path d="M143.591 196.435H141.029V198.999H141.882V197.29H143.591V196.435Z" fill="black"/>
<path d="M144.445 198.144H142.736V198.998H144.445V198.144Z" fill="black"/>
<path d="M144.444 194.728H143.59V195.582H144.444V194.728Z" fill="black"/>
<path d="M141.028 195.58H141.881V193.019H140.174V193.873H141.028V195.58Z" fill="black"/>
<path d="M142.735 191.31H141.881V190.456H141.028V191.31H140.174V192.165H143.59V191.31H144.444V190.456H142.735V191.31Z" fill="black"/>
<path d="M144.445 193.019H142.736V193.873H144.445V193.019Z" fill="black"/>
<path d="M168.604 178.665L165.738 181.009L168.314 184.159L171.18 181.815L168.604 178.665Z" fill="white"/>
<path d="M166.912 180.526L166.105 181.185L166.764 181.992L167.571 181.333L166.912 180.526ZM167.28 181.303L166.795 181.698L166.4 181.214L166.884 180.819L167.28 181.303Z" fill="black"/>
<path d="M166.861 181.103L166.699 181.235L166.831 181.397L166.993 181.265L166.861 181.103Z" fill="black"/>
<path d="M167.881 179.735L168.54 180.542L169.347 179.883L168.688 179.076L167.881 179.735ZM169.054 179.852L168.569 180.247L168.174 179.763L168.658 179.368L169.054 179.852Z" fill="black"/>
<path d="M168.634 179.652L168.473 179.784L168.605 179.946L168.766 179.814L168.634 179.652Z" fill="black"/>
<path d="M168.218 183.765L169.024 183.106L168.366 182.299L167.559 182.958L168.218 183.765ZM167.85 182.989L168.334 182.594L168.73 183.078L168.246 183.474L167.85 182.989Z" fill="black"/>
<path d="M168.312 182.877L168.15 183.009L168.283 183.171L168.444 183.039L168.312 182.877Z" fill="black"/>
<path d="M167.726 179.858L167.404 180.121L167.536 180.282L167.858 180.019L167.726 179.858Z" fill="black"/>
<path d="M167.923 180.775L168.085 180.644L167.953 180.482L168.114 180.35L167.982 180.189L167.498 180.584L167.366 180.423L167.205 180.555L167.337 180.716L167.403 180.798L167.469 180.878L167.791 180.614L167.923 180.775Z" fill="black"/>
<path d="M167.771 180.898L167.609 181.031L167.742 181.192L167.903 181.06L167.771 180.898Z" fill="black"/>
<path d="M168.379 180.674L168.218 180.805L168.349 180.967L167.865 181.362L167.998 181.524L168.643 180.995L168.379 180.674Z" fill="black"/>
<path d="M167.455 182.506L167.617 182.374L167.485 182.212L167.323 182.344L167.06 182.021L166.898 182.153L167.426 182.799L167.587 182.667L167.455 182.506Z" fill="black"/>
<path d="M167.388 181.749L167.227 181.881L167.359 182.043L167.52 181.911L167.388 181.749Z" fill="black"/>
<path d="M168.393 182.006L168.716 181.743L168.584 181.581L168.423 181.713L168.291 181.553L167.968 181.817L167.704 181.494L167.543 181.626L167.807 181.949L167.645 182.08L167.909 182.403L168.07 182.271L167.938 182.11L168.018 182.043L168.1 181.978L168.261 181.846L168.393 182.006Z" fill="black"/>
<path d="M168.782 181.147L168.621 181.279L168.884 181.601L169.045 181.469L168.782 181.147Z" fill="black"/>
<path d="M169.01 181.772L168.525 182.168L168.657 182.329L168.98 182.066L169.375 182.55L169.053 182.813L169.184 182.975L169.668 182.579L169.537 182.418L169.859 182.154L169.728 181.993L169.405 182.257L169.01 181.772Z" fill="black"/>
<path d="M168.959 182.35L168.797 182.482L168.929 182.644L169.091 182.511L168.959 182.35Z" fill="black"/>
<path d="M169.339 181.5L169.178 181.632L169.441 181.953L169.602 181.821L169.339 181.5Z" fill="black"/>
<path d="M170.24 181.305L169.756 181.7L170.153 182.184L170.314 182.051L170.049 181.73L170.372 181.466L170.24 181.305Z" fill="black"/>
<path d="M170.671 181.487L170.35 181.75L170.482 181.911L170.803 181.648L170.671 181.487Z" fill="black"/>
<path d="M170.144 180.84L169.982 180.972L170.115 181.133L170.276 181.001L170.144 180.84Z" fill="black"/>
<path d="M169.623 181.539L169.785 181.407L169.389 180.923L169.066 181.186L169.198 181.348L169.36 181.216L169.623 181.539Z" fill="black"/>
<path d="M169.287 180.468L169.126 180.599L168.994 180.438L168.832 180.57L168.964 180.731L168.803 180.863L168.935 181.024L169.58 180.497L169.448 180.336L169.61 180.204L169.478 180.043L169.155 180.306L169.287 180.468Z" fill="black"/>
<path d="M169.88 180.518L169.559 180.781L169.69 180.942L170.012 180.679L169.88 180.518Z" fill="black"/>
<path d="M195.767 166.561C195.569 166.626 195.461 166.838 195.528 167.035C195.593 167.232 195.807 167.338 196.006 167.273C196.204 167.208 196.312 166.996 196.246 166.799C196.18 166.602 195.966 166.496 195.767 166.561Z" fill="#1A2E35"/>
<path d="M195.242 166.549C195.285 166.592 195.529 166.381 195.888 166.358C196.246 166.329 196.517 166.503 196.554 166.455C196.572 166.435 196.527 166.356 196.407 166.278C196.29 166.199 196.095 166.128 195.871 166.144C195.648 166.161 195.464 166.258 195.361 166.352C195.255 166.445 195.221 166.529 195.242 166.549Z" fill="#1A2E35"/>
<path d="M191.804 166.561C191.606 166.626 191.498 166.838 191.565 167.035C191.63 167.232 191.844 167.338 192.043 167.273C192.241 167.208 192.349 166.996 192.283 166.799C192.218 166.602 192.003 166.496 191.804 166.561Z" fill="#1A2E35"/>
<path d="M191.27 166.556C191.313 166.599 191.557 166.389 191.916 166.365C192.274 166.337 192.545 166.51 192.582 166.463C192.6 166.442 192.555 166.364 192.435 166.285C192.318 166.207 192.123 166.136 191.899 166.152C191.676 166.168 191.492 166.266 191.389 166.359C191.282 166.454 191.248 166.537 191.27 166.556Z" fill="#1A2E35"/>
<path d="M193.972 169.485C193.972 169.457 193.746 169.43 193.384 169.41C193.289 169.407 193.213 169.392 193.203 169.343C193.182 169.288 193.21 169.186 193.249 169.072C193.322 168.831 193.396 168.585 193.473 168.329C193.779 167.271 193.985 166.401 193.93 166.386C193.875 166.371 193.584 167.215 193.277 168.272C193.205 168.53 193.136 168.777 193.068 169.02C193.043 169.13 192.988 169.26 193.049 169.41C193.082 169.484 193.159 169.534 193.222 169.544C193.286 169.558 193.339 169.553 193.384 169.552C193.746 169.537 193.972 169.513 193.972 169.485Z" fill="#1A2E35"/>
<path d="M195.166 169.783C194.45 170.131 194.116 170.237 193.453 170.43C193.453 170.43 193.925 171.058 194.651 170.726C195.406 170.381 195.166 169.783 195.166 169.783Z" fill="white"/>
<path d="M196.519 165.641C196.437 165.744 196.156 165.696 195.789 165.681C195.423 165.651 195.137 165.666 195.071 165.552C194.995 165.433 195.349 165.164 195.821 165.202C196.294 165.222 196.609 165.533 196.519 165.641Z" fill="#1A2E35"/>
<path d="M192.386 165.574C192.36 165.706 192.121 165.768 191.855 165.793C191.587 165.815 191.341 165.795 191.292 165.67C191.242 165.549 191.467 165.346 191.812 165.316C192.157 165.285 192.415 165.447 192.386 165.574Z" fill="#1A2E35"/>
<path d="M435.411 157.158C435.392 157.257 435.709 157.177 436 157.389C436.296 157.593 436.465 158.018 436.548 157.965C436.587 157.938 436.585 157.834 436.526 157.698C436.468 157.562 436.347 157.398 436.171 157.272C435.994 157.147 435.803 157.09 435.66 157.084C435.516 157.075 435.421 157.11 435.411 157.158Z" fill="#1A2E35"/>
<path d="M401.995 186.625C401.818 186.683 401.723 186.872 401.781 187.049C401.84 187.223 402.031 187.32 402.207 187.26C402.385 187.203 402.48 187.013 402.422 186.837C402.364 186.661 402.172 186.566 401.995 186.625Z" fill="#1A2E35"/>
<path d="M401.527 186.613C401.565 186.65 401.783 186.463 402.103 186.442C402.423 186.417 402.664 186.571 402.698 186.528C402.715 186.509 402.675 186.44 402.568 186.37C402.464 186.3 402.29 186.237 402.09 186.251C401.891 186.266 401.727 186.354 401.634 186.437C401.539 186.521 401.508 186.597 401.527 186.613Z" fill="#1A2E35"/>
<path d="M398.458 186.626C398.28 186.684 398.186 186.873 398.243 187.049C398.303 187.224 398.494 187.32 398.67 187.261C398.847 187.203 398.942 187.014 398.884 186.838C398.827 186.661 398.636 186.567 398.458 186.626Z" fill="#1A2E35"/>
<path d="M397.98 186.62C398.019 186.657 398.236 186.471 398.556 186.45C398.876 186.425 399.117 186.579 399.151 186.536C399.167 186.517 399.127 186.447 399.021 186.377C398.917 186.308 398.743 186.244 398.543 186.259C398.344 186.274 398.18 186.36 398.087 186.444C397.992 186.529 397.961 186.603 397.98 186.62Z" fill="#1A2E35"/>
<path d="M400.391 189.234C400.391 189.209 400.191 189.185 399.866 189.167C399.781 189.164 399.715 189.151 399.704 189.108C399.685 189.059 399.71 188.969 399.744 188.867C399.809 188.65 399.875 188.433 399.944 188.203C400.218 187.258 400.4 186.482 400.353 186.469C400.304 186.456 400.043 187.209 399.769 188.154C399.706 188.385 399.644 188.604 399.583 188.822C399.561 188.92 399.512 189.037 399.565 189.17C399.593 189.237 399.663 189.281 399.721 189.29C399.777 189.302 399.824 189.299 399.864 189.297C400.19 189.281 400.391 189.259 400.391 189.234Z" fill="#1A2E35"/>
<path d="M401.457 189.501C400.818 189.812 400.52 189.906 399.928 190.078C399.928 190.078 400.348 190.639 400.998 190.342C401.672 190.034 401.457 189.501 401.457 189.501Z" fill="white"/>
<path d="M402.667 185.803C402.594 185.896 402.324 185.742 401.996 185.729C401.669 185.702 401.434 185.825 401.374 185.724C401.306 185.619 401.623 185.378 402.044 185.412C402.466 185.428 402.748 185.707 402.667 185.803Z" fill="#1A2E35"/>
<path d="M398.978 185.743C398.954 185.86 398.687 185.672 398.449 185.694C398.209 185.714 398.045 185.94 398 185.828C397.956 185.72 398.156 185.539 398.465 185.512C398.773 185.486 399.003 185.629 398.978 185.743Z" fill="#1A2E35"/>
<path d="M432.011 157.911C432.033 157.966 432.334 157.886 432.663 158.016C432.994 158.142 433.169 158.407 433.221 158.381C433.246 158.37 433.236 158.283 433.16 158.164C433.086 158.047 432.938 157.904 432.732 157.824C432.526 157.744 432.324 157.753 432.193 157.79C432.062 157.828 431.999 157.886 432.011 157.911Z" fill="#1A2E35"/>
<path d="M435.282 158.773C435.32 158.819 435.581 158.652 435.935 158.677C436.289 158.696 436.536 158.896 436.577 158.856C436.598 158.838 436.561 158.758 436.453 158.668C436.348 158.579 436.163 158.486 435.942 158.473C435.722 158.459 435.531 158.527 435.418 158.603C435.305 158.677 435.263 158.752 435.282 158.773Z" fill="#1A2E35"/>
<path d="M433.813 160.225C433.819 160.205 433.613 160.118 433.276 159.992C433.19 159.963 433.11 159.926 433.11 159.862C433.104 159.794 433.163 159.706 433.23 159.615C433.363 159.421 433.502 159.218 433.647 159.004C434.234 158.134 434.679 157.41 434.645 157.386C434.61 157.362 434.106 158.049 433.52 158.92C433.378 159.135 433.242 159.341 433.111 159.536C433.055 159.628 432.971 159.729 432.984 159.871C432.993 159.942 433.046 160.005 433.098 160.034C433.15 160.065 433.2 160.077 433.243 160.09C433.591 160.191 433.807 160.244 433.813 160.225Z" fill="#1A2E35"/>
<path d="M434.75 161.215C434.68 161.055 434.531 160.935 434.368 160.877C434.132 160.794 433.866 160.839 433.685 160.988C433.564 161.113 433.61 161.331 433.624 161.382C433.746 161.538 433.758 161.671 433.929 161.766C434.101 161.861 434.535 161.801 434.673 161.68C434.796 161.573 434.819 161.375 434.75 161.215Z" fill="#FF9A6C"/>
<path d="M434.773 160.701C434.718 160.685 434.629 161.06 434.246 161.251C433.864 161.442 433.474 161.307 433.458 161.359C433.448 161.381 433.53 161.452 433.698 161.497C433.862 161.541 434.115 161.544 434.351 161.429C434.585 161.312 434.72 161.113 434.768 160.964C434.819 160.808 434.799 160.706 434.773 160.701Z" fill="#1A2E35"/>
<path d="M432.222 156.583C432.299 156.657 432.521 156.366 432.849 156.33C433.174 156.284 433.5 156.508 433.556 156.417C433.58 156.374 433.53 156.297 433.401 156.234C433.275 156.17 433.069 156.127 432.844 156.154C432.621 156.182 432.433 156.274 432.326 156.366C432.218 156.462 432.188 156.548 432.222 156.583Z" fill="#1A2E35"/>
<path d="M344.76 137.31C344.737 137.492 344.873 137.662 345.063 137.69C345.252 137.718 345.425 137.592 345.448 137.41C345.471 137.228 345.335 137.058 345.145 137.03C344.956 137.001 344.783 137.127 344.76 137.31Z" fill="#1A2E35"/>
<path d="M344.678 136.634C344.716 136.683 344.996 136.513 345.369 136.548C345.743 136.578 345.999 136.794 346.043 136.753C346.065 136.735 346.028 136.649 345.917 136.551C345.808 136.454 345.615 136.351 345.383 136.332C345.15 136.313 344.947 136.38 344.828 136.457C344.706 136.534 344.659 136.612 344.678 136.634Z" fill="#1A2E35"/>
<path d="M348.282 137.775C348.258 137.957 348.395 138.127 348.584 138.156C348.774 138.184 348.947 138.058 348.969 137.876C348.993 137.694 348.856 137.523 348.667 137.495C348.479 137.468 348.306 137.593 348.282 137.775Z" fill="#1A2E35"/>
<path d="M348.336 137.039C348.375 137.088 348.656 136.917 349.028 136.953C349.401 136.983 349.657 137.199 349.702 137.157C349.724 137.14 349.687 137.054 349.576 136.956C349.466 136.858 349.274 136.756 349.041 136.737C348.809 136.718 348.606 136.784 348.486 136.861C348.363 136.938 348.317 137.017 348.336 137.039Z" fill="#1A2E35"/>
<path d="M346.731 139.679C346.734 139.658 346.506 139.596 346.135 139.515C346.041 139.495 345.953 139.469 345.943 139.402C345.927 139.331 345.976 139.232 346.032 139.125C346.143 138.903 346.258 138.671 346.38 138.426C346.865 137.43 347.225 136.608 347.185 136.589C347.145 136.569 346.719 137.362 346.233 138.358C346.116 138.604 346.004 138.838 345.897 139.063C345.851 139.168 345.779 139.285 345.814 139.432C345.833 139.506 345.899 139.564 345.958 139.586C346.017 139.609 346.07 139.615 346.118 139.623C346.494 139.678 346.728 139.7 346.731 139.679Z" fill="#1A2E35"/>
<path d="M347.804 140.037C347.743 140.028 347.706 140.432 347.333 140.689C346.961 140.945 346.533 140.86 346.526 140.917C346.518 140.942 346.615 141.004 346.797 141.026C346.974 141.048 347.241 141.014 347.469 140.859C347.697 140.702 347.808 140.475 347.838 140.311C347.869 140.142 347.832 140.037 347.804 140.037Z" fill="#1A2E35"/>
<path d="M348.374 135.568C348.402 135.673 348.778 135.659 349.211 135.752C349.645 135.836 349.987 135.996 350.052 135.91C350.081 135.869 350.03 135.768 349.895 135.657C349.763 135.546 349.545 135.432 349.286 135.379C349.026 135.325 348.783 135.346 348.617 135.396C348.45 135.447 348.362 135.519 348.374 135.568Z" fill="#1A2E35"/>
<path d="M344.915 135.568C344.973 135.659 345.238 135.595 345.547 135.619C345.857 135.632 346.113 135.728 346.181 135.644C346.211 135.604 346.178 135.515 346.072 135.425C345.967 135.334 345.784 135.251 345.571 135.239C345.358 135.226 345.167 135.287 345.053 135.364C344.933 135.439 344.89 135.524 344.915 135.568Z" fill="#1A2E35"/>
<path d="M485.833 265.366H2.96009C2.70245 265.366 2.49219 265.086 2.49219 264.744C2.49219 264.402 2.70245 264.121 2.96009 264.121H485.833C486.09 264.121 486.3 264.401 486.3 264.744C486.3 265.086 486.09 265.366 485.833 265.366Z" fill="#2E3552"/>
</g>
<defs>
<linearGradient id="paint0_linear" x1="265.723" y1="141.419" x2="425.103" y2="95.4404" gradientUnits="userSpaceOnUse">
<stop stop-color="#D6DCFD"/>
<stop offset="1" stop-color="#D6DCFD" stop-opacity="0"/>
</linearGradient>
<clipPath id="clip0">
<rect width="488.364" height="268.894" fill="white"/>
</clipPath>
</defs>
</svg>
