<svg width="45" height="46" viewBox="0 0 45 46" fill="none" xmlns="http://www.w3.org/2000/svg">
<g clip-path="url(#clip0)">
<path d="M36.3867 13.9242C36.8721 13.9242 37.2656 13.5307 37.2656 13.0453V3.48727C37.2656 2.0334 36.0828 0.850586 34.6289 0.850586H2.63672C1.18283 0.850586 0 2.0334 0 3.48727V43.2133C0 44.6672 1.18283 45.85 2.63672 45.85H34.6289C36.0828 45.85 37.2656 44.6672 37.2656 43.2133V36.7383C37.2656 36.2529 36.8721 35.8595 36.3867 35.8595C35.9014 35.8595 35.5078 36.2529 35.5078 36.7383V43.2133C35.5078 43.698 35.1135 44.0922 34.6289 44.0922H2.63672C2.15209 44.0922 1.75781 43.698 1.75781 43.2133V3.48727C1.75781 3.00265 2.15209 2.60838 2.63672 2.60838H34.6289C35.1135 2.60838 35.5078 3.00265 35.5078 3.48727V13.0453C35.5078 13.5307 35.9014 13.9242 36.3867 13.9242Z" fill="#6654A4"/>
<path d="M18.6328 5.59668C14.1742 5.59668 10.5469 9.22397 10.5469 13.6825C10.5469 15.9955 11.5233 18.0845 13.0853 19.5596C13.1146 19.5909 13.1457 19.6205 13.1797 19.6475C14.6186 20.964 16.5335 21.7683 18.6327 21.7683C20.732 21.7683 22.6469 20.9639 24.0857 19.6475C24.1197 19.6205 24.1508 19.5908 24.1801 19.5596C25.7423 18.0845 26.7188 15.9955 26.7188 13.6825C26.7188 9.22397 23.0914 5.59668 18.6328 5.59668ZM18.6328 20.0106C17.1976 20.0106 15.8731 19.5296 14.8104 18.7214C15.5828 17.3516 17.0243 16.495 18.6328 16.495C20.2413 16.495 21.6828 17.3516 22.4553 18.7214C21.3924 19.5296 20.068 20.0106 18.6328 20.0106ZM17.2266 13.331V12.7597C17.2266 11.9843 17.8574 11.3534 18.6328 11.3534C19.4082 11.3534 20.0391 11.9843 20.0391 12.7597V13.331C20.0391 14.1063 19.4082 14.7372 18.6328 14.7372C17.8574 14.7372 17.2266 14.1063 17.2266 13.331ZM23.7252 17.4339C23.077 16.4726 22.1787 15.7249 21.1357 15.2633C21.5496 14.7283 21.7969 14.0582 21.7969 13.331V12.7597C21.7969 11.015 20.3775 9.59565 18.6328 9.59565C16.8881 9.59565 15.4688 11.015 15.4688 12.7597V13.331C15.4688 14.0582 15.716 14.7283 16.13 15.2633C15.087 15.7249 14.1886 16.4726 13.5404 17.4339C12.7644 16.3834 12.3047 15.0858 12.3047 13.6825C12.3047 10.1932 15.1435 7.35447 18.6328 7.35447C22.1222 7.35447 24.9609 10.1932 24.9609 13.6825C24.9609 15.0858 24.5012 16.3834 23.7252 17.4339Z" fill="#6654A4"/>
<path d="M23.3789 39.3467H18.6328C18.1475 39.3467 17.7539 39.7402 17.7539 40.2256C17.7539 40.711 18.1475 41.1045 18.6328 41.1045H23.3789C23.8642 41.1045 24.2578 40.711 24.2578 40.2256C24.2578 39.7402 23.8642 39.3467 23.3789 39.3467Z" fill="#6654A4"/>
<path d="M23.3789 34.4248H10.8984C10.4131 34.4248 10.0195 34.8183 10.0195 35.3037C10.0195 35.7891 10.4131 36.1826 10.8984 36.1826H23.3789C23.8642 36.1826 24.2578 35.7891 24.2578 35.3037C24.2578 34.8183 23.8642 34.4248 23.3789 34.4248Z" fill="#6654A4"/>
<path d="M23.3789 29.5029H10.8984C10.4131 29.5029 10.0195 29.8964 10.0195 30.3818C10.0195 30.8672 10.4131 31.2607 10.8984 31.2607H23.3789C23.8642 31.2607 24.2578 30.8672 24.2578 30.3818C24.2578 29.8964 23.8642 29.5029 23.3789 29.5029Z" fill="#6654A4"/>
<path d="M7.76671 24.8386C7.60332 24.6751 7.37656 24.5811 7.14453 24.5811C6.91329 24.5811 6.68653 24.6751 6.52314 24.8386C6.35967 25.002 6.26562 25.2288 6.26562 25.46C6.26562 25.6911 6.35958 25.9179 6.52314 26.0813C6.6875 26.2448 6.91329 26.3388 7.14453 26.3388C7.37656 26.3388 7.60244 26.2448 7.76671 26.0813C7.93018 25.9179 8.02431 25.6911 8.02431 25.46C8.02431 25.2288 7.93027 25.002 7.76671 24.8386Z" fill="#6654A4"/>
<path d="M7.76671 29.7604C7.60244 29.597 7.37656 29.5029 7.14453 29.5029C6.91329 29.5029 6.6875 29.597 6.52314 29.7604C6.35967 29.9239 6.26562 30.1507 6.26562 30.3818C6.26562 30.613 6.35958 30.8397 6.52314 31.0032C6.6875 31.1667 6.91329 31.2607 7.14453 31.2607C7.37656 31.2607 7.60244 31.1667 7.76671 31.0032C7.93018 30.8397 8.02431 30.613 8.02431 30.3818C8.02431 30.1507 7.93027 29.9239 7.76671 29.7604Z" fill="#6654A4"/>
<path d="M7.76671 34.6823C7.60244 34.5188 7.37656 34.4248 7.14453 34.4248C6.91329 34.4248 6.6875 34.5188 6.52314 34.6823C6.35967 34.8458 6.26562 35.0726 6.26562 35.3037C6.26562 35.5348 6.35958 35.7616 6.52314 35.9251C6.68653 36.0886 6.91329 36.1826 7.14453 36.1826C7.37656 36.1826 7.60332 36.0886 7.76671 35.9251C7.93018 35.7616 8.02431 35.5348 8.02431 35.3037C8.02431 35.0726 7.93027 34.8458 7.76671 34.6823Z" fill="#6654A4"/>
<path d="M23.3789 24.5811H10.8984C10.4131 24.5811 10.0195 24.9745 10.0195 25.46C10.0195 25.9454 10.4131 26.3388 10.8984 26.3388H23.3789C23.8642 26.3388 24.2578 25.9454 24.2578 25.46C24.2578 24.9745 23.8642 24.5811 23.3789 24.5811Z" fill="#6654A4"/>
<path d="M43.1554 12.3047C42.3016 11.8117 41.3068 11.6808 40.3543 11.9359C39.4019 12.1912 38.6058 12.802 38.1129 13.6558L27.0525 32.8125C26.992 32.9175 26.9537 33.034 26.9402 33.1545L26.1617 40.128C26.123 40.475 26.2933 40.812 26.5957 40.9867C26.7322 41.0654 26.8838 41.1044 27.035 41.1044C27.2189 41.1044 27.4021 41.0469 27.5563 40.9332L33.2063 36.7722C33.3039 36.7003 33.3857 36.609 33.4462 36.504L44.5065 17.3473C45.5242 15.5846 44.9182 13.3225 43.1554 12.3047ZM28.1315 38.3265L28.5381 34.6851L31.0818 36.1537L28.1315 38.3265ZM32.3634 34.8638L29.0143 32.9303L37.89 17.5575L41.239 19.4911L32.3634 34.8638ZM42.9842 16.4683L42.1179 17.9688L38.7688 16.0353L39.6351 14.5347C39.8934 14.0875 40.3103 13.7675 40.8092 13.6339C41.3082 13.5001 41.8292 13.5688 42.2764 13.827C42.7237 14.0853 43.0436 14.5022 43.1773 15.0011C43.311 15.4999 43.2424 16.021 42.9842 16.4683Z" fill="#6654A4"/>
</g>
<defs>
<clipPath id="clip0">
<rect width="45" height="44.9995" fill="white" transform="translate(0 0.850586)"/>
</clipPath>
</defs>
</svg>
