<svg xmlns="http://www.w3.org/2000/svg" width="153" height="97" fill="none" viewBox="0 0 153 97"><g clip-path="url(#clip0)"><path fill="#995925" d="M24.8878 71.9059C26.7856 71.3548 28.7451 71.3979 30.6915 71.3203C30.6632 71.6307 30.7234 71.9863 30.5899 72.2428C30.0175 73.3385 29.3566 74.3774 28.8807 75.5356C28.5521 76.3417 27.7483 76.6952 26.832 76.5364C25.8613 76.3683 25.1634 75.902 24.8841 74.8746C24.6135 73.8687 24.8334 72.8923 24.8878 71.9059Z"/><path fill="#995925" d="M22.553 60.7493C22.0133 59.5817 21.9726 58.0909 21.7855 56.8566C21.2646 53.3993 20.8562 49.9255 20.3948 46.4596C20.0937 44.1986 21.1405 42.8205 23.1341 42.8787C24.6576 42.9233 25.5905 44.047 25.28 45.5213C24.3435 49.9664 24.2644 54.4303 24.9245 58.9164C24.9971 59.4115 25.0435 60.0387 25.0972 60.5366C24.0301 60.6537 23.2436 60.7227 22.553 60.7493Z"/><path fill="#0F5FAA" d="M25.0316 71.9949C17.2837 71.9824 9.53576 71.9714 1.78782 71.9618C0.0372776 71.9604 0.0372775 71.9776 0.0372775 70.2325C0.0372775 47.3372 0.0261538 24.4419 0.00390625 1.54667C0.00390625 0.279293 0.366637 0.00842916 1.605 0.0199247C9.77153 0.0960826 17.9475 -0.153227 26.1031 0.159308C35.199 0.507048 43.7377 2.86363 50.9139 8.79533C57.9342 14.5963 61.2315 22.2659 62.1115 31.0866C62.8072 38.0651 61.9664 44.8475 59 51.2706C57.6796 54.1344 56.1351 56.8897 53.8042 59.1098C52.9598 55.6705 52.0631 52.2513 50.808 48.9248C49.841 46.3548 49.0916 44.3539 47.098 42.2825C47.6058 41.9671 47.6784 40.7191 47.7313 40.2363C48.0622 37.3732 48.1274 34.5159 47.7814 31.6391C46.3697 19.923 38.5593 13.1349 27.4598 11.5959C23.2833 11.0176 19.0886 11.2065 14.8991 11.1117C13.6963 11.0844 13.3662 11.4285 13.3698 12.6442C13.4153 28.1698 13.4252 43.6953 13.3996 59.2205C13.3996 59.5402 13.4083 59.8599 13.3996 60.1789C13.393 60.5791 13.5904 60.7537 13.9879 60.7472C17.6667 60.7235 21.3506 61.0044 25.0207 60.5374C25.8768 60.531 26.743 60.7357 27.5824 60.4095L31.946 59.4037C33.8242 58.9891 35.685 58.5365 37.1171 57.1268C38.1606 56.5549 39.1437 55.881 40.0516 55.1151C43.1617 52.5171 45.156 49.1877 46.5808 45.4754C47.0763 45.8066 47.2243 46.3541 47.3839 46.8606C48.155 49.3034 49.0053 51.7254 49.6088 54.2077C50.2226 56.7346 51.2549 59.1759 51.3369 61.8235C45.8081 66.7041 39.3232 69.5952 32.0809 70.9243C32.0824 70.9215 30.3616 71.2836 25.0316 71.9949Z"/><path fill="#B42B80" d="M122.523 32.0583C122.651 30.6932 122.809 29.6571 123.234 28.6872C123.583 27.8897 124.21 27.4723 125.102 27.6188C126.915 27.9177 127.647 29.4696 128.421 30.7801C129.104 31.9354 128.355 33.09 127.517 33.9723C126.646 34.8898 125.492 35.402 124.281 34.7676C123.774 34.5087 123.344 34.1219 123.036 33.6463C122.727 33.1707 122.55 32.623 122.523 32.0583Z"/><path fill="#F08F39" d="M27.387 71.9953C29.3675 71.751 33.3568 71.1123 33.3568 71.1123C33.3286 71.4227 33.2226 72.0758 33.0884 72.3337C32.5168 73.4294 31.8551 74.469 31.3792 75.6271C31.0506 76.4325 30.2468 76.786 29.3305 76.6272C28.3599 76.4591 27.662 75.9928 27.3827 74.9654C27.1113 73.9603 27.3312 72.9839 27.387 71.9953Z"/><path fill="#F08F39" d="M25.0203 60.5366C24.4805 59.3691 24.4639 58.088 24.2781 56.8566C23.7594 53.3993 23.3488 49.9255 22.8889 46.4596C22.5878 44.1986 23.6354 42.8205 25.6282 42.8787C27.1517 42.9233 28.0854 44.047 27.7749 45.5213C26.8376 49.9664 26.7592 54.4303 27.4187 58.9164C27.4912 59.4115 27.5289 59.9115 27.5833 60.4094C26.7425 60.7356 25.8763 60.5308 25.0203 60.5366Z"/><path fill="#F08F39" d="M152.547 72.2653C151.902 73.0053 151.271 73.8193 150.14 73.4666C148.921 73.0865 148.197 72.2746 147.928 70.9469C147.153 67.139 147.319 63.3311 147.728 59.5074C147.825 58.5992 147.904 57.6882 147.946 56.7772C147.962 56.4496 148.145 55.9869 147.643 55.8482C147.248 55.7426 146.941 55.9919 146.718 56.3095C145.539 57.9814 144.444 59.7186 143.169 61.3151C140.981 64.0539 138.749 66.7647 136.404 69.3713C135.046 70.8801 133.004 71.2709 131.125 71.8378C130.57 72.0059 130.123 71.7006 129.69 71.263C128.137 69.6867 127.559 67.7748 127.736 65.6647C128.036 62.0845 128.09 58.4706 129.352 55.0169C131.147 50.1084 133.609 45.651 137.858 42.3977C139.557 41.098 141.583 40.4579 143.728 40.427C145.407 40.404 147.413 42.2835 147.638 44.0035C147.743 44.8219 148.024 44.8966 148.693 44.5682C151.031 43.4187 152.439 45.4728 152.37 47.3652C152.239 51.0704 150.961 54.5988 150.396 58.2436C149.797 62.114 150.063 65.8709 152.239 69.2836C152.239 69.2836 153.723 70.9167 152.547 72.2653ZM130.322 67.0765C130.343 67.2252 130.35 67.7375 130.498 68.2074C130.694 68.831 131.248 69.132 131.804 68.8022C132.607 68.3259 133.48 68.0119 134.202 67.3229C140.25 61.5263 143.982 54.3186 147.194 46.7696C147.556 45.9075 147.242 45.7781 146.505 45.993C145.622 46.2502 144.708 46.3306 144.001 45.7278C142.819 44.722 141.771 45.0956 140.591 45.707C136.896 47.6217 134.94 50.9985 133.069 54.4185C130.976 58.245 130.649 62.4941 130.322 67.0765Z"/><path fill="#F08F39" d="M71.4951 60.6348C71.5677 60.9682 71.6301 61.2606 72.0378 61.188C72.7125 61.0681 72.4056 60.2583 72.3882 59.8007C72.238 55.903 72.1785 52.0211 73.9726 48.4014C77.3395 41.6069 83.7097 40.7375 89.2501 44.8809C92.7033 47.4624 93.9177 51.095 93.1799 55.3131C92.9463 56.6466 92.1215 57.4606 90.6836 57.6683C87.9022 58.0699 85.5198 59.3337 83.3456 61.0702C82.2465 61.9475 81.3455 63.1409 79.7001 63.2127C78.0315 63.2845 76.9325 62.5876 76.8236 61.1636C76.7279 59.9027 77.7268 58.7927 79.2307 58.769C81.9781 58.7302 84.0152 57.2048 86.1168 55.7787C86.3744 55.6034 86.5608 55.3289 86.7937 55.1155C87.4691 54.4969 88.6073 54.295 88.6995 53.1505C88.8344 51.4492 88.3912 49.8606 87.3138 48.5523C84.8944 45.6109 78.6562 45.2473 76.7272 49.9576C74.5646 55.2413 74.2127 60.5285 76.519 65.7712C78.6293 70.5691 82.7463 72.2683 87.9087 71.5003C90.5305 71.1101 93.045 70.2695 95.5116 69.273C96.2842 68.9612 96.237 68.6264 96.0636 68.0516C95.3701 65.7424 95.2968 63.3988 95.6284 61.0221C95.7589 60.0773 96.2994 59.333 96.7623 58.5728C98.0311 56.4893 99.6315 54.627 101.76 53.4092C105.025 51.5411 108.382 51.9614 111.604 53.6247C112.408 54.04 113.312 54.0658 114.101 54.5853C114.688 54.9726 114.899 54.216 114.95 53.7167C115.168 51.5383 115.458 49.3606 115.544 47.1786C115.72 42.6185 115.519 38.0763 114.773 33.5542C114.41 31.3528 114.33 29.1033 114.171 26.8725C114.07 25.4456 115.172 23.931 116.219 23.9454C117.778 23.9662 118.818 25.1539 118.697 26.9041C118.059 36.1723 118.385 45.4464 118.304 54.7182C118.288 56.5683 117.923 58.4478 118.975 60.1944C119.405 60.9078 118.955 61.5925 118.544 62.2226C116.496 65.3731 113.527 67.4481 110.279 69.2026C108.223 70.3133 105.926 70.8378 103.813 71.8149C103.459 71.9788 102.989 71.9989 102.59 71.9479C100.298 71.6605 98.2705 72.4817 96.1964 73.2605C92.9978 74.4604 89.6491 75.0998 86.2336 75.0883C80.5852 75.0689 76.775 72.2144 74.5355 67.1909C74.2134 66.4674 73.8826 65.9616 73.0295 66.2619C71.0432 66.9595 69.8222 66.1268 68.3067 64.1532C66.7107 62.0754 66.5569 59.4831 65.8699 57.0899C65.6653 56.3779 65.4498 55.7061 64.72 55.5775C64.0323 55.4561 63.6877 56.1315 63.2923 56.6143C61.6165 58.6612 60.8686 61.1895 59.6476 63.4721C58.7995 65.057 57.8216 66.5177 56.272 67.5235C55.3108 68.1457 54.4787 68.0265 53.7539 67.1075C52.8935 66.0147 52.1978 64.8566 51.9076 63.4778L49.6115 54.2095C49.008 51.7272 48.1606 49.3031 47.3866 46.8625C47.227 46.3595 46.8062 45.9198 46.5842 45.478C46.4921 45.2718 46.4224 45.0512 46.3042 44.8608C45.443 43.4749 44.9983 43.4296 43.9914 44.6747C43.3385 45.478 42.7008 46.2963 42.1313 47.157C40.063 50.2824 38.3117 53.5694 37.1184 57.128C35.6863 58.5376 33.8255 58.9902 31.9473 59.4048C32.0844 58.9737 32.1584 58.5103 32.3673 58.1166C34.0917 54.8727 35.7327 51.5886 37.6574 48.4467C38.9879 46.274 40.2466 44.0784 41.9645 42.163C43.3791 40.5823 45.5461 40.2856 47.2074 41.5767C49.2009 43.6473 49.8422 46.3581 50.8093 48.9281C52.0607 52.2546 52.961 55.6738 53.8054 59.1131C53.9215 60.4947 54.4482 61.7714 54.8835 63.0647C54.9909 63.3837 55.0133 63.8694 55.4639 63.9017C55.9144 63.934 56.0123 63.4706 56.1734 63.1617C57.4146 60.7699 58.2315 58.1834 59.5975 55.8484C60.3629 54.5422 61.1783 53.2899 62.3811 52.3228C64.3399 50.748 67.4478 51.0346 68.8378 53.5148C69.8839 55.3828 70.153 57.4807 71.0229 59.3818C71.3232 59.9796 71.3232 60.1585 71.4951 60.6348ZM107.253 56.7695C105.646 56.9412 104.502 56.9081 103.463 57.2185C102.442 57.5238 101.214 57.3996 100.438 58.3594C98.5955 60.6348 97.6089 63.1689 97.9121 66.1426C98.1036 68.0243 101.005 69.4095 102.474 69.0488C106.209 68.1313 109.142 66.0155 111.84 63.3801C113.034 62.2126 113.483 60.951 113.605 59.412C113.664 58.6648 113.46 58.3774 112.692 58.5929C111.597 58.899 110.67 58.6044 109.725 57.9736C108.85 57.3931 107.999 56.5446 107.252 56.7695H107.253Z"/><path fill="#F08F39" d="M121.139 54.7269C121.147 50.3134 121.13 46.5457 120.699 42.7321C120.591 41.7772 120.441 40.7448 121.836 40.1068C122.665 39.7274 123.59 39.1548 124.397 39.5248C125.622 40.0874 126.639 40.933 126.4 42.2981C125.873 45.3157 125.39 48.3405 124.91 51.3638C124.075 56.6172 124.33 61.8319 125.815 67.0013C126.145 68.1508 126.481 69.3004 126.758 70.4643C127.109 71.9501 125.912 73.4539 124.326 73.5889C122.707 73.7262 121.304 72.5019 121.061 71.0089C120.161 65.384 121.436 59.7548 121.139 54.7269Z"/><path fill="#132B50" d="M153 77.6416H0V97.0001H153V77.6416Z"/><path fill="#fff" d="M12.8328 81.6631L17.6092 92.9783H16.5058L14.8945 89.2559H10.4794L8.88334 92.9783H7.74219L12.581 81.6631H12.8328ZM12.7029 84.0671L10.948 88.1624H14.4498L12.7029 84.0671Z"/><path fill="#fff" d="M24.043 92.9783V81.6631H26.1664C27.6991 81.6631 28.8114 81.7989 29.5035 82.0705C30.4969 82.4536 31.2732 83.1206 31.8323 84.0714C32.3913 85.0222 32.6711 86.1528 32.6716 87.4633C32.6716 88.5956 32.4499 89.5931 32.0064 90.4557C31.5629 91.3184 30.9876 91.9542 30.2805 92.3633C29.5724 92.7738 28.581 92.9788 27.3061 92.9783H24.043ZM25.0245 91.9099H26.2085C27.6246 91.9099 28.6064 91.8124 29.1539 91.6175C29.9182 91.3461 30.5616 90.8167 30.9711 90.1224C31.4122 89.4039 31.633 88.5238 31.6335 87.482C31.6335 86.3913 31.3941 85.459 30.9153 84.685C30.4652 83.9332 29.7555 83.3681 28.9174 83.0943C28.2765 82.8783 27.2205 82.7707 25.7493 82.7717H25.0238L25.0245 91.9099Z"/><path fill="#fff" d="M38.7227 81.6631H39.837L43.2321 90.4054L46.6839 81.6631H47.7982L43.3395 92.9783H43.1168L38.7227 81.6631Z"/><path fill="#fff" d="M54.375 81.6631H60.2447V82.7717H55.3986V86.3166H60.2026V87.4245H55.3957V91.8704H60.1997V92.9783H54.375V81.6631Z"/><path fill="#fff" d="M66.9141 81.6631H68.957C70.0935 81.6631 70.8642 81.7146 71.269 81.8176C71.8655 81.9637 72.3905 82.3142 72.7511 82.8069C73.1322 83.3127 73.3228 83.9354 73.3228 84.6749C73.3347 85.2412 73.199 85.8009 72.9289 86.3001C72.674 86.7598 72.2814 87.1298 71.8051 87.3591C71.3167 87.5986 70.6434 87.7203 69.7854 87.7241L73.4693 92.9783H72.1998L68.5166 87.7241H67.9362V92.9783H66.9141V81.6631ZM67.9413 82.7717V86.6169L69.7056 86.632C70.389 86.632 70.8944 86.5602 71.2219 86.4165C71.5468 86.2763 71.8164 86.0346 71.9894 85.7282C72.1746 85.4062 72.2698 85.0411 72.2651 84.6706C72.2696 84.3069 72.173 83.9489 71.9858 83.636C71.8192 83.3428 71.5629 83.1096 71.2538 82.97C70.9513 82.8363 70.4492 82.771 69.7477 82.771L67.9413 82.7717Z"/><path fill="#fff" d="M79.3457 82.7717V81.6631H84.9579V82.7717H82.6727V92.9783H81.6295V82.7717H79.3457Z"/><path fill="#fff" d="M91.1348 81.6631H92.1584V92.9783H91.1348V81.6631Z"/><path fill="#fff" d="M98.2949 90.8729L99.1655 90.2981C99.7782 91.5434 100.486 92.1661 101.289 92.1661C101.63 92.1673 101.965 92.0756 102.257 91.901C102.55 91.7333 102.789 91.4863 102.947 91.189C103.102 90.8978 103.183 90.5731 103.182 90.2435C103.177 89.8464 103.056 89.4593 102.835 89.1284C102.515 88.6255 101.93 88.0205 101.081 87.3136C100.231 86.6066 99.6994 86.0907 99.4847 85.766C99.1308 85.2572 98.9418 84.6537 98.9428 84.0359C98.9364 83.5681 99.0463 83.106 99.2627 82.6902C99.4671 82.2939 99.7792 81.962 100.164 81.7318C100.544 81.5005 100.982 81.3793 101.428 81.3819C101.909 81.381 102.379 81.5188 102.782 81.7785C103.203 82.0424 103.647 82.5281 104.116 83.2355L103.28 83.9353C102.893 83.372 102.564 83.0001 102.294 82.8195C102.033 82.6436 101.723 82.5499 101.407 82.5508C101.218 82.5442 101.029 82.5779 100.854 82.6495C100.679 82.7211 100.521 82.8291 100.392 82.9661C100.129 83.2423 99.9867 83.6104 99.9968 83.9899C99.997 84.2346 100.044 84.477 100.136 84.7041C100.26 84.9828 100.432 85.2381 100.644 85.4585C100.777 85.6022 101.218 85.9789 101.966 86.5886C102.853 87.3138 103.462 87.9576 103.792 88.5199C104.12 89.0846 104.286 89.6515 104.286 90.2198C104.295 91.0146 103.992 91.7818 103.44 92.3587C102.875 92.9641 102.19 93.2666 101.382 93.2661C100.773 93.2702 100.178 93.0772 99.6893 92.7165C99.1872 92.3496 98.7225 91.735 98.2949 90.8729Z"/><path fill="#fff" d="M111.158 81.6631H112.183V92.9783H111.158V81.6631Z"/><path fill="#fff" d="M119.383 92.9783V81.6631H119.606L126.426 90.3372V81.6631H127.429V92.9783H127.2L120.441 84.4069V92.9783H119.383Z"/><path fill="#fff" d="M144.653 83.5629L143.859 84.3935C143.332 83.8066 142.695 83.3272 141.982 82.9824C141.302 82.6619 140.639 82.502 139.995 82.5024C139.184 82.5041 138.389 82.7303 137.701 83.1555C136.984 83.5815 136.4 84.1948 136.012 84.928C135.617 85.6553 135.411 86.4683 135.413 87.2939C135.412 88.1416 135.625 88.9759 136.034 89.7209C136.427 90.4672 137.019 91.0924 137.746 91.5286C138.467 91.9649 139.296 92.1926 140.14 92.186C141.193 92.186 142.084 91.8581 142.813 91.2024C143.542 90.5467 143.975 89.6946 144.113 88.6461H140.848V87.554H145.263C145.254 89.3023 144.785 90.6913 143.854 91.7211C142.923 92.751 141.678 93.2649 140.117 93.263C138.224 93.263 136.724 92.55 135.619 91.1241C134.769 90.0272 134.344 88.7579 134.344 87.3162C134.337 86.2747 134.588 85.2475 135.075 84.3245C135.532 83.435 136.225 82.6861 137.08 82.159C137.931 81.6384 138.892 81.378 139.963 81.378C140.809 81.3729 141.646 81.5502 142.415 81.8975C143.179 82.2438 143.924 82.7989 144.653 83.5629Z"/></g><defs><clipPath id="clip0"><rect width="153" height="97" fill="#fff"/></clipPath></defs></svg>