<svg width="39" height="39" viewBox="0 0 39 39" fill="none" xmlns="http://www.w3.org/2000/svg">
<path d="M24.8025 24.6528C23.396 26.0588 21.4887 26.8487 19.5 26.8487C17.5113 26.8487 15.604 26.0588 14.1975 24.6528H24.8025ZM13.875 15.6004H13.8938H13.875ZM25.125 15.6004H25.1438H25.125ZM36.375 19.3504C36.375 21.5664 35.9385 23.7607 35.0905 25.8081C34.2424 27.8554 32.9994 29.7157 31.4324 31.2827C29.8654 32.8496 28.0052 34.0926 25.9578 34.9407C23.9104 35.7887 21.7161 36.2252 19.5 36.2252C17.2839 36.2252 15.0896 35.7887 13.0422 34.9407C10.9948 34.0926 9.13456 32.8496 7.56757 31.2827C6.00058 29.7157 4.75758 27.8554 3.90953 25.8081C3.06148 23.7607 2.625 21.5664 2.625 19.3504C2.625 14.8749 4.4029 10.5827 7.56757 7.4181C10.7322 4.25346 15.0245 2.47559 19.5 2.47559C23.9755 2.47559 28.2677 4.25346 31.4324 7.4181C34.5971 10.5827 36.375 14.8749 36.375 19.3504Z" stroke="#6654A4" stroke-width="4" stroke-linecap="round" stroke-linejoin="round"/>
</svg>
