<svg width="56" height="55" viewBox="0 0 56 55" fill="none" xmlns="http://www.w3.org/2000/svg">
<path d="M52.9585 8.39207L19.2734 0.568709C17.8482 0.237812 16.4356 1.24687 16.1341 2.81092L15.4941 7.32433L54.3611 16.3507L55.001 11.8372C55.3025 10.2738 54.3836 8.72307 52.9585 8.39207Z" fill="#6654A4"/>
<path d="M38.7936 17.308C38.4002 15.753 36.9194 14.8339 35.503 15.265L29.1084 17.2132L14.0333 13.7119L12.3754 22.3088L2.01653 25.4641C0.600174 25.8953 -0.237329 27.5203 0.155495 29.0748L5.9933 52.1614C6.38676 53.7158 7.86755 54.6355 9.28391 54.2038L42.7704 44.0054C44.1867 43.5736 45.0242 41.9492 44.6314 40.3941L43.6294 36.4309L47.385 37.3022C48.8101 37.6337 50.2227 36.6247 50.5242 35.0606L52.9003 22.7383L39.3725 19.5967L38.7936 17.308ZM42.6608 29.0416L43.489 24.7461C43.6134 24.103 44.1945 23.6881 44.7804 23.8239L48.6945 24.7334C49.281 24.8699 49.659 25.5069 49.5353 26.1507L48.7071 30.4461C48.5828 31.0893 48.0017 31.5047 47.4157 31.3683L43.5017 30.4594C42.9145 30.3224 42.5364 29.6847 42.6608 29.0416ZM2.59925 27.768L11.8662 24.9466L33.7317 18.2876L36.0846 17.5701C36.1275 17.5574 36.1704 17.5514 36.2123 17.5514C36.401 17.5514 36.6267 17.6873 36.6926 17.9476L36.9689 19.0394L37.8344 22.4622L3.39712 32.9499L2.25532 28.4359C2.18378 28.1526 2.34124 27.8465 2.59925 27.768ZM42.5315 41.0329C42.5755 41.2081 42.5293 41.353 42.4825 41.4436C42.4363 41.5342 42.3472 41.6526 42.1876 41.7008L8.70173 51.8993C8.6594 51.912 8.6159 51.9186 8.57402 51.9186C8.3853 51.9186 8.15963 51.7821 8.09367 51.5218L4.68865 38.0557L39.1259 27.5675L41.2263 35.8727L42.5315 41.0329Z" fill="#6654A4"/>
<path d="M14.1128 41.9542C13.9521 41.3201 13.3489 40.9457 12.7712 41.1215L8.86045 42.3129C8.28321 42.4887 7.94153 43.1512 8.10222 43.7852L9.18731 48.0764C9.348 48.7105 9.95112 49.0849 10.5289 48.9086L14.4396 47.7177C15.0174 47.542 15.3585 46.8795 15.1984 46.2454L14.1128 41.9542Z" fill="#6654A4"/>
</svg>
