<svg width="56" height="54" viewBox="0 0 56 54" fill="none" xmlns="http://www.w3.org/2000/svg">
<g clip-path="url(#clip0)">
<path d="M51.6211 23.539C52.3049 23.539 52.9606 23.2733 53.4441 22.8003C53.9276 22.3273 54.1992 21.6858 54.1992 21.0169V12.61C54.1992 11.9411 53.9276 11.2996 53.4441 10.8266C52.9606 10.3536 52.3049 10.0879 51.6211 10.0879H36.1523C35.4686 10.0879 34.8128 10.3536 34.3293 10.8266C33.8458 11.2996 33.5742 11.9411 33.5742 12.61V21.8576H24.9805V12.61C24.9805 11.9411 24.7088 11.2996 24.2254 10.8266C23.7419 10.3536 23.0861 10.0879 22.4023 10.0879H13.8086C13.1248 10.0879 12.4691 10.3536 11.9856 10.8266C11.5021 11.2996 11.2305 11.9411 11.2305 12.61V21.0169C11.2305 21.6858 11.5021 22.3273 11.9856 22.8003C12.4691 23.2733 13.1248 23.539 13.8086 23.539H18.1055V31.1052C18.1055 31.3282 18.196 31.542 18.3572 31.6997C18.5183 31.8573 18.7369 31.9459 18.9648 31.9459H23.2617V38.6715H13.8086C13.1248 38.6715 12.4691 38.9372 11.9856 39.4102C11.5021 39.8831 11.2305 40.5246 11.2305 41.1935V49.6005C11.2305 50.2694 11.5021 50.9109 11.9856 51.3838C12.4691 51.8568 13.1248 52.1225 13.8086 52.1225H22.4023C23.0861 52.1225 23.7419 51.8568 24.2254 51.3838C24.7088 50.9109 24.9805 50.2694 24.9805 49.6005V40.3528H40.4492V49.6005C40.4492 50.2694 40.7208 50.9109 41.2043 51.3838C41.6878 51.8568 42.3436 52.1225 43.0273 52.1225H51.6211C52.3049 52.1225 52.9606 51.8568 53.4441 51.3838C53.9276 50.9109 54.1992 50.2694 54.1992 49.6005V41.1935C54.1992 40.5246 53.9276 39.8831 53.4441 39.4102C52.9606 38.9372 52.3049 38.6715 51.6211 38.6715H42.168V31.1052C42.168 30.8823 42.0774 30.6684 41.9163 30.5108C41.7551 30.3531 41.5365 30.2645 41.3086 30.2645H35.293V23.539H51.6211Z" fill="#CBC2EC"/>
<path d="M17.2461 1.68164H3.49609C2.81233 1.68164 2.15658 1.94736 1.67308 2.42034C1.18959 2.89332 0.917969 3.53482 0.917969 4.20372V17.6548C0.917969 18.3237 1.18959 18.9652 1.67308 19.4382C2.15658 19.9112 2.81233 20.1769 3.49609 20.1769H17.2461C17.9299 20.1769 18.5856 19.9112 19.0691 19.4382C19.5526 18.9652 19.8242 18.3237 19.8242 17.6548V4.20372C19.8242 3.53482 19.5526 2.89332 19.0691 2.42034C18.5856 1.94736 17.9299 1.68164 17.2461 1.68164ZM18.1055 17.6548C18.1055 17.8778 18.0149 18.0916 17.8538 18.2493C17.6926 18.4069 17.474 18.4955 17.2461 18.4955H3.49609C3.26817 18.4955 3.04959 18.4069 2.88842 18.2493C2.72726 18.0916 2.63672 17.8778 2.63672 17.6548V4.20372C2.63672 3.98075 2.72726 3.76692 2.88842 3.60926C3.04959 3.4516 3.26817 3.36303 3.49609 3.36303H17.2461C17.474 3.36303 17.6926 3.4516 17.8538 3.60926C18.0149 3.76692 18.1055 3.98075 18.1055 4.20372V17.6548Z" fill="#6654A4"/>
<path d="M17.2461 25.2207H3.49609C2.81233 25.2207 2.15658 25.4864 1.67308 25.9594C1.18959 26.4324 0.917969 27.0739 0.917969 27.7428V41.1939C0.917969 41.8628 1.18959 42.5043 1.67308 42.9773C2.15658 43.4502 2.81233 43.716 3.49609 43.716H17.2461C17.9299 43.716 18.5856 43.4502 19.0691 42.9773C19.5526 42.5043 19.8242 41.8628 19.8242 41.1939V27.7428C19.8242 27.0739 19.5526 26.4324 19.0691 25.9594C18.5856 25.4864 17.9299 25.2207 17.2461 25.2207ZM18.1055 41.1939C18.1055 41.4168 18.0149 41.6307 17.8538 41.7883C17.6926 41.946 17.474 42.0346 17.2461 42.0346H3.49609C3.26817 42.0346 3.04959 41.946 2.88842 41.7883C2.72726 41.6307 2.63672 41.4168 2.63672 41.1939V27.7428C2.63672 27.5198 2.72726 27.306 2.88842 27.1483C3.04959 26.9907 3.26817 26.9021 3.49609 26.9021H17.2461C17.474 26.9021 17.6926 26.9907 17.8538 27.1483C18.0149 27.306 18.1055 27.5198 18.1055 27.7428V41.1939Z" fill="#6654A4"/>
<path d="M41.3086 1.68164H27.5586C26.8748 1.68164 26.2191 1.94736 25.7356 2.42034C25.2521 2.89332 24.9805 3.53482 24.9805 4.20372V17.6548C24.9805 18.3237 25.2521 18.9652 25.7356 19.4382C26.2191 19.9112 26.8748 20.1769 27.5586 20.1769H41.3086C41.9924 20.1769 42.6481 19.9112 43.1316 19.4382C43.6151 18.9652 43.8867 18.3237 43.8867 17.6548V4.20372C43.8867 3.53482 43.6151 2.89332 43.1316 2.42034C42.6481 1.94736 41.9924 1.68164 41.3086 1.68164ZM42.168 17.6548C42.168 17.8778 42.0774 18.0916 41.9163 18.2493C41.7551 18.4069 41.5365 18.4955 41.3086 18.4955H27.5586C27.3307 18.4955 27.1121 18.4069 26.9509 18.2493C26.7898 18.0916 26.6992 17.8778 26.6992 17.6548V4.20372C26.6992 3.98075 26.7898 3.76692 26.9509 3.60926C27.1121 3.4516 27.3307 3.36303 27.5586 3.36303H41.3086C41.5365 3.36303 41.7551 3.4516 41.9163 3.60926C42.0774 3.76692 42.168 3.98075 42.168 4.20372V17.6548Z" fill="#6654A4"/>
<path d="M10.3711 7.56641C9.69122 7.56641 9.02662 7.76363 8.46132 8.13314C7.89603 8.50264 7.45544 9.02783 7.19526 9.6423C6.93508 10.2568 6.86701 10.9329 6.99965 11.5852C7.13228 12.2375 7.45967 12.8367 7.94042 13.307C8.42116 13.7773 9.03366 14.0976 9.70047 14.2273C10.3673 14.3571 11.0584 14.2905 11.6866 14.036C12.3147 13.7815 12.8516 13.3504 13.2293 12.7974C13.607 12.2444 13.8086 11.5943 13.8086 10.9292C13.8086 10.0373 13.4464 9.18198 12.8018 8.55134C12.1571 7.9207 11.2828 7.56641 10.3711 7.56641ZM10.3711 12.6106C10.0312 12.6106 9.69886 12.512 9.41621 12.3272C9.13356 12.1424 8.91327 11.8798 8.78318 11.5726C8.65309 11.2654 8.61905 10.9273 8.68537 10.6012C8.75169 10.275 8.91538 9.9754 9.15576 9.74026C9.39613 9.50511 9.70238 9.34498 10.0358 9.2801C10.3692 9.21522 10.7148 9.24852 11.0288 9.37578C11.3429 9.50304 11.6113 9.71855 11.8002 9.99505C11.989 10.2716 12.0898 10.5966 12.0898 10.9292C12.0898 11.3751 11.9088 11.8028 11.5864 12.1181C11.2641 12.4334 10.8269 12.6106 10.3711 12.6106Z" fill="#6654A4"/>
<path d="M34.4336 7.56641C33.7537 7.56641 33.0891 7.76363 32.5238 8.13314C31.9585 8.50264 31.5179 9.02783 31.2578 9.6423C30.9976 10.2568 30.9295 10.9329 31.0621 11.5852C31.1948 12.2375 31.5222 12.8367 32.0029 13.307C32.4837 13.7773 33.0962 14.0976 33.763 14.2273C34.4298 14.3571 35.121 14.2905 35.7491 14.036C36.3772 13.7815 36.9141 13.3504 37.2918 12.7974C37.6695 12.2444 37.8711 11.5943 37.8711 10.9292C37.8711 10.0373 37.5089 9.18198 36.8643 8.55134C36.2196 7.9207 35.3453 7.56641 34.4336 7.56641ZM34.4336 12.6106C34.0937 12.6106 33.7614 12.512 33.4787 12.3272C33.1961 12.1424 32.9758 11.8798 32.8457 11.5726C32.7156 11.2654 32.6816 10.9273 32.7479 10.6012C32.8142 10.275 32.9779 9.9754 33.2183 9.74026C33.4586 9.50511 33.7649 9.34498 34.0983 9.2801C34.4317 9.21522 34.7773 9.24852 35.0913 9.37578C35.4054 9.50304 35.6738 9.71855 35.8627 9.99505C36.0515 10.2716 36.1523 10.5966 36.1523 10.9292C36.1523 11.3751 35.9713 11.8028 35.6489 12.1181C35.3266 12.4334 34.8894 12.6106 34.4336 12.6106Z" fill="#6654A4"/>
<path d="M10.3711 31.1055C9.69122 31.1055 9.02662 31.3027 8.46132 31.6722C7.89603 32.0417 7.45544 32.5669 7.19526 33.1814C6.93508 33.7958 6.86701 34.472 6.99965 35.1243C7.13228 35.7766 7.45967 36.3758 7.94042 36.8461C8.42116 37.3164 9.03366 37.6366 9.70047 37.7664C10.3673 37.8962 11.0584 37.8296 11.6866 37.575C12.3147 37.3205 12.8516 36.8895 13.2293 36.3365C13.607 35.7835 13.8086 35.1333 13.8086 34.4682C13.8086 33.5764 13.4464 32.721 12.8018 32.0904C12.1571 31.4598 11.2828 31.1055 10.3711 31.1055ZM10.3711 36.1496C10.0312 36.1496 9.69886 36.051 9.41621 35.8663C9.13356 35.6815 8.91327 35.4189 8.78318 35.1117C8.65309 34.8044 8.61905 34.4664 8.68537 34.1402C8.75169 33.8141 8.91538 33.5145 9.15576 33.2793C9.39613 33.0442 9.70238 32.884 10.0358 32.8192C10.3692 32.7543 10.7148 32.7876 11.0288 32.9148C11.3429 33.0421 11.6113 33.2576 11.8002 33.5341C11.989 33.8106 12.0898 34.1357 12.0898 34.4682C12.0898 34.9142 11.9088 35.3418 11.5864 35.6572C11.2641 35.9725 10.8269 36.1496 10.3711 36.1496Z" fill="#6654A4"/>
<path d="M40.4492 31.9464H35.293V28.5836C35.293 27.9147 35.0213 27.2732 34.5379 26.8002C34.0544 26.3272 33.3986 26.0615 32.7148 26.0615H27.5586C26.8748 26.0615 26.2191 26.3272 25.7356 26.8002C25.2521 27.2732 24.9805 27.9147 24.9805 28.5836V33.6278C24.9805 34.2967 25.2521 34.9382 25.7356 35.4111C26.2191 35.8841 26.8748 36.1498 27.5586 36.1498H30.9961V41.194C30.9961 41.8629 31.2677 42.5044 31.7512 42.9774C32.2347 43.4504 32.8905 43.7161 33.5742 43.7161H40.4492C41.133 43.7161 41.7887 43.4504 42.2722 42.9774C42.7557 42.5044 43.0273 41.8629 43.0273 41.194V34.4685C43.0273 33.7996 42.7557 33.1581 42.2722 32.6851C41.7887 32.2121 41.133 31.9464 40.4492 31.9464ZM41.3086 41.194C41.3086 41.417 41.2181 41.6308 41.0569 41.7885C40.8957 41.9461 40.6771 42.0347 40.4492 42.0347H33.5742C33.3463 42.0347 33.1277 41.9461 32.9665 41.7885C32.8054 41.6308 32.7148 41.417 32.7148 41.194V35.3091C32.7148 35.0862 32.6243 34.8723 32.4631 34.7147C32.302 34.557 32.0834 34.4685 31.8555 34.4685H27.5586C27.3307 34.4685 27.1121 34.3799 26.9509 34.2222C26.7898 34.0646 26.6992 33.8507 26.6992 33.6278V28.5836C26.6992 28.3606 26.7898 28.1468 26.9509 27.9891C27.1121 27.8315 27.3307 27.7429 27.5586 27.7429H32.7148C32.9428 27.7429 33.1614 27.8315 33.3225 27.9891C33.4837 28.1468 33.5742 28.3606 33.5742 28.5836V32.7871C33.5742 33.01 33.6648 33.2239 33.8259 33.3815C33.9871 33.5392 34.2057 33.6278 34.4336 33.6278H40.4492C40.6771 33.6278 40.8957 33.7163 41.0569 33.874C41.2181 34.0317 41.3086 34.2455 41.3086 34.4685V41.194Z" fill="#6654A4"/>
</g>
<defs>
<clipPath id="clip0">
<rect width="55" height="53.8043" fill="white" transform="translate(0.0585938)"/>
</clipPath>
</defs>
</svg>
