<svg width="56" height="55" viewBox="0 0 56 55" fill="none" xmlns="http://www.w3.org/2000/svg">
<g clip-path="url(#clip0)">
<path d="M51.0482 13.9531H24.694C22.4826 13.9531 20.6836 15.713 20.6836 17.8764V32.4484C20.6836 34.6118 22.4826 36.3716 24.694 36.3716H51.0482C53.2596 36.3716 55.0586 34.6118 55.0586 32.4484V17.8764C55.0586 15.713 53.2596 13.9531 51.0482 13.9531Z" fill="#6654A4"/>
<path d="M37.8724 20.6787C35.3447 20.6787 33.2891 22.6896 33.2891 25.1624C33.2891 27.6352 35.3447 29.6461 37.8724 29.6461C40.4001 29.6461 42.4557 27.6352 42.4557 25.1624C42.4557 22.6896 40.4001 20.6787 37.8724 20.6787Z" fill="#FAFAFA"/>
<path d="M33.2878 39.7343V48.2376C33.2878 49.7307 32.0709 50.9435 30.5767 50.9435H6.20714C4.71297 50.9435 3.49609 49.7307 3.49609 48.2376V6.57063C3.49609 5.07756 4.71297 3.86472 6.20714 3.86472H6.36068H7.50651C8.45526 3.86472 9.22526 4.61799 9.22526 5.54611C9.22526 7.70949 11.0242 9.46934 13.2357 9.46934H23.5482C25.7596 9.46934 27.5586 7.70949 27.5586 5.54611C27.5586 4.61799 28.3286 3.86472 29.2773 3.86472H30.4232H30.5767C32.0709 3.86472 33.2878 5.07756 33.2878 6.57063V10.5903H36.7253V6.57063C36.7253 3.22356 33.9661 0.501953 30.5767 0.501953H30.4232H29.2773H7.50651H6.36068H6.20714C2.81776 0.501953 0.0585938 3.22356 0.0585938 6.57063V48.2399C0.0585938 51.5847 2.81776 54.3063 6.20714 54.3063H30.5767C33.9661 54.3063 36.7253 51.5847 36.7253 48.2376V39.7343H33.2878Z" fill="#6654A4"/>
<path d="M24.694 39.7338C20.5873 39.7338 17.2461 36.4652 17.2461 32.4478V17.8758C17.2461 13.8584 20.5873 10.5898 24.694 10.5898H33.2878V6.57017C33.2878 5.0771 32.0709 3.86426 30.5767 3.86426H30.4232H29.2773C28.3286 3.86426 27.5586 4.61752 27.5586 5.54564C27.5586 7.70903 25.7596 9.46888 23.5482 9.46888H13.2357C11.0242 9.46888 9.22526 7.70903 9.22526 5.54564C9.22526 4.61752 8.45526 3.86426 7.50651 3.86426H6.36068H6.20714C4.71297 3.86426 3.49609 5.0771 3.49609 6.57017V48.2394C3.49609 49.7325 4.71297 50.9453 6.20714 50.9453H30.5767C32.0709 50.9453 33.2878 49.7325 33.2878 48.2394V39.7338H24.694Z" fill="#FAFAFA"/>
<path d="M28.1302 26.8442H26.9844C26.0356 26.8442 25.2656 26.091 25.2656 25.1628C25.2656 24.2347 26.0356 23.4814 26.9844 23.4814H28.1302C29.079 23.4814 29.849 24.2347 29.849 25.1628C29.849 26.091 29.079 26.8442 28.1302 26.8442Z" fill="#CBC2EC"/>
<path d="M27.5573 23.4814H26.9844C26.0356 23.4814 25.2656 24.2347 25.2656 25.1628C25.2656 26.091 26.0356 26.8442 26.9844 26.8442H27.5573V23.4814Z" fill="#CBC2EC"/>
<path d="M48.7552 26.8442H47.6094C46.6606 26.8442 45.8906 26.091 45.8906 25.1628C45.8906 24.2347 46.6606 23.4814 47.6094 23.4814H48.7552C49.704 23.4814 50.474 24.2347 50.474 25.1628C50.474 26.091 49.704 26.8442 48.7552 26.8442Z" fill="#CBC2EC"/>
<path d="M48.1823 23.4814H47.6094C46.6606 23.4814 45.8906 24.2347 45.8906 25.1628C45.8906 26.091 46.6606 26.8442 47.6094 26.8442H48.1823V23.4814Z" fill="#CBC2EC"/>
</g>
<defs>
<clipPath id="clip0">
<rect width="55" height="53.8043" fill="white" transform="translate(0.0585938 0.501953)"/>
</clipPath>
</defs>
</svg>
