<svg width="32" height="32" viewBox="0 0 32 32" fill="none" xmlns="http://www.w3.org/2000/svg">
<path fill-rule="evenodd" clip-rule="evenodd" d="M13.5624 24.5947C13.9518 24.5947 14.3384 24.4303 14.6024 24.1119L21.0398 16.345C21.4371 15.8647 21.4318 15.1787 21.0251 14.7049L14.3584 6.93802C13.8878 6.38916 13.0464 6.31537 12.4798 6.77232C11.9144 7.22927 11.8384 8.04609 12.3104 8.59495L18.2771 15.5476L12.5238 22.4886C12.0624 23.0452 12.1531 23.8607 12.7278 24.3086C12.9731 24.5015 13.2691 24.5947 13.5624 24.5947Z" fill="#656668"/>
<mask id="mask0" mask-type="alpha" maskUnits="userSpaceOnUse" x="12" y="6" width="10" height="19">
<path fill-rule="evenodd" clip-rule="evenodd" d="M13.5624 24.5947C13.9518 24.5947 14.3384 24.4303 14.6024 24.1119L21.0398 16.345C21.4371 15.8647 21.4318 15.1787 21.0251 14.7049L14.3584 6.93802C13.8878 6.38916 13.0464 6.31537 12.4798 6.77232C11.9144 7.22927 11.8384 8.04609 12.3104 8.59495L18.2771 15.5476L12.5238 22.4886C12.0624 23.0452 12.1531 23.8607 12.7278 24.3086C12.9731 24.5015 13.2691 24.5947 13.5624 24.5947Z" fill="white"/>
</mask>
<g mask="url(#mask0)">
<rect width="32" height="31.0675" transform="matrix(-1 0 0 1 32 0)" fill="#656668"/>
</g>
</svg>
