<svg width="49" height="49" viewBox="0 0 49 49" fill="none" xmlns="http://www.w3.org/2000/svg">
<path fill-rule="evenodd" clip-rule="evenodd" d="M47.0008 37.0678C47.0008 39.6623 45.9701 42.1505 44.1355 43.9851C42.3009 45.8197 39.8127 46.8504 37.2182 46.8504C34.6236 46.8504 32.1354 45.8197 30.3008 43.9851C28.4662 42.1505 27.4355 39.6623 27.4355 37.0678C27.4355 34.4733 28.4662 31.985 30.3008 30.1504C32.1354 28.3158 34.6236 27.2852 37.2182 27.2852C39.8127 27.2852 42.3009 28.3158 44.1355 30.1504C45.9701 31.985 47.0008 34.4733 47.0008 37.0678V37.0678Z" stroke="#6654A4" stroke-width="2.625" stroke-linejoin="round"/>
<path d="M42.1088 37.0671H32.3262M37.2175 32.1758V41.9584V32.1758Z" stroke="#6654A4" stroke-width="2.625" stroke-linecap="round" stroke-linejoin="round"/>
<path d="M28.3446 26.8592C26.8283 26.3554 25.1848 25.8174 23.5217 25.1815V20.2902C23.5217 20.2902 26.4565 19.082 26.4565 14.4206C27.9875 14.4206 27.9875 10.3706 26.4565 10.3706C26.4565 9.92063 28.0707 7.23041 27.4348 4.63802C26.5054 0.920627 15.6467 0.920627 14.7174 4.64291C10.0853 3.71356 12.7609 9.89128 12.7609 10.5125C11.2299 10.5125 11.2299 14.4255 12.7609 14.4255C12.7609 19.0869 15.6957 20.2951 15.6957 20.2951V25.1864C10.2614 27.2554 3.78533 28.625 2.97826 31.056C2.04891 33.8538 2 39.0239 2 39.0239H22.5435" stroke="#6654A4" stroke-width="2.625" stroke-linejoin="round"/>
</svg>
