<svg xmlns="http://www.w3.org/2000/svg" width="24" height="24" fill="none" viewBox="0 0 24 24"><path fill="#494B52" fill-rule="evenodd" d="M19.0001 18H5.00006C4.44906 18 4.00006 17.552 4.00006 17V7.25L11.4001 12.8C11.5781 12.934 11.7891 13 12.0001 13C12.2111 13 12.4221 12.934 12.6001 12.8L20.0001 7.25V17C20.0001 17.552 19.5511 18 19.0001 18ZM18.333 6L12 10.75L5.66701 6H18.333ZM19 4H5.00003C3.34603 4 2.00003 5.346 2.00003 7V17C2.00003 18.654 3.34603 20 5.00003 20H19C20.654 20 22 18.654 22 17V7C22 5.346 20.654 4 19 4Z" clip-rule="evenodd"/><mask id="mask0" width="20" height="16" x="2" y="4" mask-type="alpha" maskUnits="userSpaceOnUse"><path fill="#fff" fill-rule="evenodd" d="M19.0001 18H5.00006C4.44906 18 4.00006 17.552 4.00006 17V7.25L11.4001 12.8C11.5781 12.934 11.7891 13 12.0001 13C12.2111 13 12.4221 12.934 12.6001 12.8L20.0001 7.25V17C20.0001 17.552 19.5511 18 19.0001 18ZM18.333 6L12 10.75L5.66701 6H18.333ZM19 4H5.00003C3.34603 4 2.00003 5.346 2.00003 7V17C2.00003 18.654 3.34603 20 5.00003 20H19C20.654 20 22 18.654 22 17V7C22 5.346 20.654 4 19 4Z" clip-rule="evenodd"/></mask></svg>