<svg width="126" height="103" viewBox="0 0 126 103" fill="none" xmlns="http://www.w3.org/2000/svg">
<g clip-path="url(#clip0)">
<path d="M12.3934 95.1843C12.3934 95.5099 12.3791 95.7808 12.353 95.9971C12.3269 96.2157 12.2864 96.3916 12.2318 96.5247C12.1771 96.6601 12.1105 96.7576 12.0297 96.8194C11.9489 96.8812 11.861 96.9121 11.7635 96.9121H1.25978C0.90324 96.9121 0.606122 96.8027 0.363673 96.5841C0.121224 96.3655 0 96.0114 0 95.5194V76.5977C0 76.1058 0.121224 75.7517 0.363673 75.533C0.606122 75.3144 0.905617 75.2051 1.25978 75.2051H11.6993C11.7968 75.2051 11.8824 75.2336 11.9584 75.2882C12.0345 75.3453 12.0987 75.4427 12.1533 75.5806C12.208 75.7208 12.2484 75.899 12.2746 76.1177C12.3007 76.3363 12.315 76.612 12.315 76.9471C12.315 77.2608 12.3007 77.5245 12.2746 77.7432C12.2484 77.9618 12.208 78.1377 12.1533 78.2708C12.0987 78.4038 12.0345 78.5037 11.9584 78.5654C11.8824 78.6272 11.7968 78.6581 11.6993 78.6581H4.23334V83.9577H10.5513C10.6487 83.9577 10.7367 83.9886 10.8175 84.0504C10.8983 84.1122 10.9649 84.2073 11.0195 84.3356C11.0742 84.4639 11.1146 84.6374 11.1408 84.8561C11.1669 85.0747 11.1812 85.3409 11.1812 85.6522C11.1812 85.9778 11.1669 86.2439 11.1408 86.4578C11.1146 86.6693 11.0742 86.8404 11.0195 86.9688C10.9649 87.0971 10.8983 87.1898 10.8175 87.2444C10.7367 87.3015 10.6487 87.3276 10.5513 87.3276H4.23334V93.4495H11.7635C11.861 93.4495 11.9489 93.4804 12.0297 93.5422C12.1105 93.604 12.1771 93.7014 12.2318 93.8345C12.2864 93.9699 12.3269 94.1458 12.353 94.3621C12.3791 94.5878 12.3934 94.8588 12.3934 95.1843Z" fill="white"/>
<path d="M28.182 96.3916C28.182 96.5484 28.1273 96.672 28.0203 96.7599C27.9134 96.8502 27.7422 96.9144 27.5117 96.9524C27.2811 96.9904 26.9388 97.0118 26.4848 97.0118C25.9999 97.0118 25.6481 96.9928 25.4271 96.9524C25.206 96.912 25.0491 96.8478 24.9588 96.7599C24.8661 96.6696 24.821 96.5484 24.821 96.3916V95.2009C24.2291 95.8616 23.5517 96.3749 22.7934 96.7433C22.0352 97.1116 21.1914 97.297 20.2643 97.297C19.499 97.297 18.7954 97.1924 18.156 96.9857C17.5142 96.7789 16.9604 96.4723 16.4921 96.0636C16.0239 95.6548 15.6602 95.1486 15.4011 94.545C15.142 93.9414 15.0137 93.2356 15.0137 92.4323C15.0137 91.5601 15.1777 90.802 15.5057 90.1604C15.8337 89.5163 16.3234 88.9864 16.977 88.5657C17.6283 88.1475 18.4389 87.8361 19.4086 87.6341C20.3784 87.4321 21.5027 87.3323 22.7863 87.3323H24.1934V86.4269C24.1934 85.9563 24.1483 85.5452 24.0556 85.1935C23.9629 84.8417 23.8131 84.5471 23.604 84.3118C23.3948 84.0765 23.1143 83.903 22.7625 83.7913C22.4131 83.6796 21.9781 83.6226 21.4623 83.6226C20.7825 83.6226 20.1764 83.701 19.644 83.8579C19.1115 84.0147 18.6385 84.1882 18.2297 84.3783C17.8208 84.5684 17.4786 84.7419 17.2028 84.8988C16.9271 85.0556 16.7037 85.1341 16.5325 85.1341C16.4137 85.1341 16.3091 85.096 16.2164 85.0176C16.1237 84.9392 16.05 84.8275 15.9906 84.6825C15.9312 84.5375 15.886 84.3593 15.8527 84.1454C15.8195 83.9339 15.8052 83.6986 15.8052 83.442C15.8052 83.095 15.8313 82.8217 15.886 82.6197C15.9407 82.4177 16.0429 82.2371 16.1926 82.0755C16.3424 81.9139 16.6062 81.7333 16.9842 81.5384C17.3621 81.3435 17.8018 81.1605 18.3081 80.9942C18.8144 80.8255 19.3659 80.69 19.9649 80.583C20.5638 80.4761 21.1795 80.4238 21.8141 80.4238C22.9455 80.4238 23.913 80.5379 24.714 80.7684C25.5174 80.9966 26.1758 81.3507 26.694 81.826C27.2098 82.3013 27.5877 82.9144 27.8254 83.663C28.0631 84.4116 28.182 85.3004 28.182 86.3294V96.3916ZM24.1911 89.9845H22.6389C21.9805 89.9845 21.4219 90.0344 20.9584 90.1366C20.4949 90.2364 20.117 90.3885 19.827 90.5905C19.537 90.7925 19.3231 91.0349 19.1876 91.3201C19.0521 91.6053 18.9856 91.9332 18.9856 92.3016C18.9856 92.929 19.1757 93.4209 19.5584 93.7774C19.9411 94.1362 20.4711 94.3145 21.151 94.3145C21.7214 94.3145 22.2467 94.1648 22.7269 93.8606C23.207 93.5564 23.6943 93.1167 24.1887 92.5345V89.9845H24.1911Z" fill="white"/>
<path d="M42.3861 92.114C42.3861 92.9648 42.2316 93.7134 41.925 94.3621C41.6184 95.0109 41.1834 95.5528 40.6248 95.99C40.0639 96.4249 39.4031 96.7529 38.6377 96.9715C37.8723 97.1902 37.0427 97.2995 36.149 97.2995C35.6094 97.2995 35.096 97.2567 34.6064 97.1735C34.1167 97.0904 33.677 96.9834 33.2895 96.8551C32.9021 96.7268 32.5788 96.5961 32.3198 96.4606C32.0607 96.3275 31.8729 96.2015 31.754 96.0827C31.6352 95.9663 31.5449 95.7809 31.4783 95.529C31.4141 95.2771 31.3809 94.9064 31.3809 94.4144C31.3809 94.0912 31.3904 93.8298 31.4141 93.6349C31.4379 93.4401 31.4688 93.2832 31.5116 93.1644C31.5544 93.0479 31.609 92.9695 31.6732 92.9291C31.7374 92.8911 31.8182 92.8697 31.9157 92.8697C32.0345 92.8697 32.208 92.9386 32.441 93.0788C32.6715 93.219 32.9615 93.3735 33.3062 93.5399C33.6508 93.7086 34.0525 93.8654 34.5089 94.0104C34.9677 94.1554 35.4858 94.2291 36.0682 94.2291C36.4343 94.2291 36.7599 94.1887 37.0451 94.1126C37.3304 94.0342 37.5776 93.9225 37.7891 93.7775C38.0007 93.6326 38.1575 93.4472 38.2669 93.2238C38.3738 93.0004 38.4285 92.7437 38.4285 92.4514C38.4285 92.1163 38.3287 91.8288 38.129 91.5888C37.9294 91.3487 37.6655 91.1396 37.3375 90.959C37.0095 90.7808 36.6363 90.612 36.2227 90.4552C35.8067 90.2983 35.3813 90.1248 34.9463 89.9347C34.5089 89.7446 34.0834 89.526 33.6699 89.2812C33.2539 89.034 32.8831 88.7346 32.5551 88.3757C32.2271 88.0193 31.9632 87.5867 31.7635 87.0853C31.5639 86.5815 31.4641 85.9778 31.4641 85.2744C31.4641 84.5591 31.5995 83.9008 31.8681 83.3043C32.1367 82.7078 32.5242 82.1945 33.0305 81.7691C33.5368 81.3437 34.1548 81.0133 34.8797 80.7804C35.6071 80.5452 36.4224 80.4287 37.328 80.4287C37.7796 80.4287 38.2193 80.462 38.6448 80.5285C39.0703 80.5951 39.4554 80.6782 39.8 80.7804C40.1447 80.8802 40.4347 80.9896 40.6723 81.1084C40.91 81.2248 41.0788 81.327 41.181 81.4102C41.2832 81.4934 41.3569 81.5789 41.3997 81.6621C41.4425 81.7453 41.4758 81.8475 41.4972 81.9639C41.5185 82.0804 41.5376 82.2277 41.5542 82.3988C41.5708 82.5723 41.578 82.7886 41.578 83.0452C41.578 83.3471 41.5708 83.5942 41.5542 83.7843C41.5376 83.9744 41.5114 84.1266 41.4734 84.2359C41.4353 84.3476 41.3854 84.4236 41.3189 84.4616C41.2547 84.502 41.1786 84.521 41.0931 84.521C40.9956 84.521 40.8459 84.4616 40.6414 84.3452C40.437 84.2287 40.1803 84.1028 39.8737 83.9673C39.5671 83.8319 39.2105 83.7083 38.8064 83.5895C38.4024 83.473 37.9412 83.4136 37.4254 83.4136C37.0594 83.4136 36.7409 83.454 36.4723 83.53C36.2037 83.6085 35.9826 83.7202 35.8091 83.8651C35.6356 84.0101 35.5072 84.1812 35.4217 84.3761C35.3361 84.571 35.2933 84.7825 35.2933 85.0059C35.2933 85.3528 35.3955 85.6428 35.5999 85.878C35.8044 86.1133 36.073 86.3201 36.4081 86.4983C36.7409 86.6765 37.1212 86.8453 37.5467 87.0021C37.9721 87.159 38.4024 87.3301 38.8397 87.5131C39.2747 87.6984 39.7073 87.9123 40.1328 88.1595C40.5583 88.4066 40.9386 88.7084 41.2713 89.0649C41.6041 89.4238 41.8751 89.8515 42.0795 90.3482C42.2839 90.8425 42.3861 91.4319 42.3861 92.114Z" fill="white"/>
<path d="M53.3315 96.9124L51.5868 102.212C51.4894 102.492 51.2255 102.692 50.7953 102.816C50.3651 102.939 49.7352 103.001 48.9056 103.001C48.4754 103.001 48.1307 102.982 47.8716 102.942C47.6126 102.901 47.42 102.837 47.2893 102.749C47.1609 102.659 47.0896 102.547 47.0801 102.414C47.0682 102.279 47.1015 102.117 47.1776 101.927L49.1005 96.9124C48.9603 96.8459 48.8343 96.7413 48.7202 96.6011C48.6061 96.4609 48.5229 96.3135 48.4706 96.1567L43.51 82.4015C43.3697 82.0094 43.3008 81.7123 43.3008 81.5032C43.3008 81.2964 43.365 81.1348 43.4957 81.016C43.6264 80.8971 43.8427 80.8187 44.1494 80.7736C44.456 80.7284 44.8624 80.707 45.3687 80.707C45.8322 80.707 46.1983 80.7165 46.4669 80.7332C46.7355 80.7498 46.947 80.7926 47.0968 80.8591C47.2465 80.9257 47.3606 81.0302 47.4367 81.1681C47.5127 81.3083 47.5864 81.5055 47.6625 81.7646L51.0568 91.7792H51.1043L54.2062 81.5649C54.2704 81.275 54.3536 81.0825 54.4558 80.9875C54.558 80.8924 54.7268 80.8235 54.9645 80.7783C55.2022 80.7332 55.6157 80.7118 56.2076 80.7118C56.6711 80.7118 57.0562 80.7332 57.3628 80.7783C57.6694 80.8235 57.8952 80.9067 58.0426 81.0302C58.1876 81.1538 58.2613 81.3178 58.2613 81.5245C58.2613 81.7313 58.2185 81.9737 58.1329 82.2541L53.3315 96.9124Z" fill="white"/>
<path d="M78.9703 93.6223C78.9703 93.9027 78.9631 94.1404 78.9465 94.3352C78.9299 94.5301 78.9061 94.6988 78.8728 94.8391C78.8395 94.9793 78.7967 95.0981 78.7445 95.2003C78.6898 95.3001 78.6042 95.4165 78.4854 95.5449C78.3665 95.6732 78.1383 95.8396 77.7984 96.0392C77.4585 96.2412 77.0449 96.4337 76.5553 96.6191C76.0656 96.8044 75.5047 96.9565 74.8748 97.0801C74.2449 97.2037 73.5627 97.2655 72.8306 97.2655C71.3973 97.2655 70.1043 97.0349 68.9514 96.5787C67.7986 96.12 66.8193 95.4356 66.0112 94.523C65.203 93.6128 64.5826 92.4744 64.1524 91.1103C63.7222 89.7462 63.5059 88.1587 63.5059 86.3478C63.5059 84.5036 63.7436 82.8639 64.2166 81.4332C64.6896 80.0026 65.3527 78.8 66.2037 77.828C67.0546 76.8561 68.0743 76.117 69.2652 75.6132C70.456 75.1093 71.7681 74.8574 73.199 74.8574C73.7814 74.8574 74.34 74.9073 74.8795 75.0071C75.4191 75.107 75.9159 75.24 76.3746 75.4016C76.8334 75.5632 77.2446 75.751 77.6107 75.9625C77.9767 76.174 78.2334 76.357 78.3784 76.5067C78.5234 76.6564 78.6232 76.7824 78.6779 76.8846C78.7326 76.9868 78.7754 77.1127 78.8063 77.2696C78.8395 77.4264 78.8633 77.6118 78.8799 77.8233C78.8966 78.0348 78.9037 78.2986 78.9037 78.6123C78.9037 78.9474 78.8918 79.2326 78.8704 79.4678C78.849 79.7031 78.811 79.8932 78.7563 80.0382C78.7017 80.1832 78.6375 80.2901 78.5614 80.3567C78.4854 80.4232 78.3998 80.4565 78.3023 80.4565C78.1407 80.4565 77.9363 80.359 77.6891 80.1618C77.4419 79.9669 77.121 79.7483 76.7288 79.5082C76.3342 79.2682 75.866 79.0496 75.3217 78.8547C74.7773 78.6598 74.1284 78.5624 73.3749 78.5624C72.5454 78.5624 71.8038 78.7382 71.1525 79.09C70.5012 79.4417 69.945 79.9455 69.4886 80.5991C69.0299 81.2526 68.6828 82.044 68.4475 82.9732C68.2098 83.9024 68.091 84.9481 68.091 86.1102C68.091 87.384 68.217 88.489 68.4713 89.423C68.7233 90.357 69.0845 91.1246 69.5528 91.7306C70.0211 92.3366 70.5868 92.7858 71.2499 93.0804C71.9131 93.3775 72.6571 93.5249 73.489 93.5249C74.2425 93.5249 74.8962 93.4322 75.4453 93.2468C75.9943 93.0614 76.465 92.8594 76.8595 92.6337C77.2517 92.4103 77.575 92.2083 77.8293 92.03C78.0813 91.8518 78.2786 91.7615 78.4188 91.7615C78.5258 91.7615 78.6137 91.7852 78.6779 91.828C78.7421 91.8732 78.7967 91.9611 78.8395 92.0966C78.8823 92.2297 78.9156 92.4174 78.937 92.6574C78.9608 92.8998 78.9703 93.2207 78.9703 93.6223Z" fill="#F05665"/>
<path d="M94.0648 96.3916C94.0648 96.5484 94.0101 96.672 93.9032 96.7599C93.7962 96.8502 93.6251 96.9144 93.3945 96.9524C93.1639 96.9904 92.8216 97.0118 92.3676 97.0118C91.8827 97.0118 91.531 96.9928 91.3099 96.9524C91.0888 96.912 90.932 96.8478 90.8416 96.7599C90.7489 96.6696 90.7038 96.5484 90.7038 96.3916V95.2009C90.1119 95.8616 89.4345 96.3749 88.6762 96.7433C87.918 97.1116 87.0742 97.297 86.1472 97.297C85.3818 97.297 84.6782 97.1924 84.0388 96.9857C83.397 96.7789 82.8432 96.4723 82.3749 96.0636C81.9067 95.6548 81.543 95.1486 81.2839 94.545C81.0248 93.9414 80.8965 93.2356 80.8965 92.4323C80.8965 91.5601 81.0605 90.802 81.3885 90.1604C81.7165 89.5163 82.2062 88.9864 82.8598 88.5657C83.5111 88.1475 84.3217 87.8361 85.2915 87.6341C86.2613 87.4321 87.3856 87.3323 88.6691 87.3323H90.0763V86.4269C90.0763 85.9563 90.0311 85.5452 89.9384 85.1935C89.8457 84.8417 89.696 84.5471 89.4868 84.3118C89.2776 84.0765 88.9971 83.903 88.6453 83.7913C88.2959 83.6796 87.8609 83.6226 87.3451 83.6226C86.6653 83.6226 86.0592 83.701 85.5268 83.8579C84.9943 84.0147 84.5213 84.1882 84.1125 84.3783C83.7037 84.5684 83.3614 84.7419 83.0857 84.8988C82.8099 85.0556 82.5865 85.1341 82.4154 85.1341C82.2965 85.1341 82.1919 85.096 82.0992 85.0176C82.0065 84.9392 81.9328 84.8275 81.8734 84.6825C81.814 84.5375 81.7688 84.3593 81.7355 84.1454C81.7023 83.9339 81.688 83.6986 81.688 83.442C81.688 83.095 81.7142 82.8217 81.7688 82.6197C81.8235 82.4177 81.9257 82.2371 82.0755 82.0755C82.2252 81.9139 82.489 81.7333 82.867 81.5384C83.2449 81.3435 83.6846 81.1605 84.1909 80.9942C84.6972 80.8255 85.2487 80.69 85.8477 80.583C86.4467 80.4761 87.0623 80.4238 87.6969 80.4238C88.8284 80.4238 89.7958 80.5379 90.5968 80.7684C91.4002 80.9966 92.0586 81.3507 92.5768 81.826C93.0926 82.3013 93.4706 82.9144 93.7082 83.663C93.9459 84.4116 94.0648 85.3004 94.0648 86.3294V96.3916ZM90.0739 89.9845H88.5217C87.8633 89.9845 87.3047 90.0344 86.8412 90.1366C86.3777 90.2364 85.9998 90.3885 85.7098 90.5905C85.4198 90.7925 85.2059 91.0349 85.0704 91.3201C84.9349 91.6053 84.8684 91.9332 84.8684 92.3016C84.8684 92.929 85.0585 93.4209 85.4412 93.7774C85.8239 94.1362 86.354 94.3145 87.0338 94.3145C87.6042 94.3145 88.1295 94.1648 88.6097 93.8606C89.0898 93.5564 89.5771 93.1167 90.0715 92.5345V89.9845H90.0739Z" fill="#F05665"/>
<path d="M108.267 92.114C108.267 92.9648 108.112 93.7133 107.806 94.3621C107.499 95.0109 107.064 95.5528 106.506 95.99C105.945 96.4249 105.284 96.7529 104.519 96.9715C103.753 97.1902 102.924 97.2995 102.03 97.2995C101.49 97.2995 100.977 97.2567 100.487 97.1735C99.9976 97.0904 99.5578 96.9834 99.1704 96.8551C98.783 96.7267 98.4597 96.596 98.2006 96.4606C97.9415 96.3275 97.7537 96.2015 97.6349 96.0827C97.5161 95.9663 97.4257 95.7809 97.3592 95.529C97.295 95.2771 97.2617 94.9064 97.2617 94.4144C97.2617 94.0912 97.2712 93.8298 97.295 93.6349C97.3188 93.4401 97.3497 93.2832 97.3925 93.1644C97.4352 93.0479 97.4899 92.9695 97.5541 92.9291C97.6183 92.8911 97.6991 92.8697 97.7965 92.8697C97.9154 92.8697 98.0889 92.9386 98.3218 93.0788C98.5524 93.219 98.8424 93.3735 99.187 93.5399C99.5317 93.7086 99.9334 93.8654 100.39 94.0104C100.849 94.1554 101.367 94.2291 101.949 94.2291C102.315 94.2291 102.641 94.1887 102.926 94.1126C103.211 94.0342 103.458 93.9225 103.67 93.7775C103.882 93.6326 104.038 93.4472 104.148 93.2238C104.255 93.0004 104.309 92.7437 104.309 92.4514C104.309 92.1163 104.21 91.8288 104.01 91.5888C103.81 91.3487 103.546 91.1396 103.218 90.959C102.89 90.7807 102.517 90.612 102.104 90.4552C101.688 90.2983 101.262 90.1248 100.827 89.9347C100.39 89.7446 99.9643 89.526 99.5507 89.2812C99.1348 89.034 98.7639 88.7346 98.4359 88.3757C98.1079 88.0193 97.8441 87.5867 97.6444 87.0853C97.4447 86.5815 97.3449 85.9778 97.3449 85.2744C97.3449 84.5591 97.4804 83.9008 97.749 83.3043C98.0176 82.7078 98.405 82.1945 98.9113 81.7691C99.4176 81.3437 100.036 81.0133 100.761 80.7804C101.488 80.5452 102.303 80.4287 103.209 80.4287C103.66 80.4287 104.1 80.462 104.526 80.5285C104.951 80.5951 105.336 80.6782 105.681 80.7804C106.026 80.8802 106.316 80.9896 106.553 81.1084C106.791 81.2248 106.96 81.327 107.062 81.4102C107.164 81.4934 107.238 81.5789 107.281 81.6621C107.323 81.7453 107.357 81.8475 107.378 81.9639C107.399 82.0804 107.418 82.2277 107.435 82.3988C107.452 82.5723 107.459 82.7886 107.459 83.0452C107.459 83.3471 107.452 83.5942 107.435 83.7843C107.418 83.9744 107.392 84.1266 107.354 84.2359C107.316 84.3476 107.266 84.4236 107.2 84.4616C107.136 84.502 107.059 84.521 106.974 84.521C106.876 84.521 106.727 84.4616 106.522 84.3452C106.318 84.2287 106.061 84.1028 105.755 83.9673C105.448 83.8319 105.091 83.7083 104.687 83.5895C104.283 83.473 103.822 83.4136 103.306 83.4136C102.94 83.4136 102.622 83.454 102.353 83.53C102.085 83.6085 101.863 83.7202 101.69 83.8651C101.516 84.0101 101.388 84.1812 101.303 84.3761C101.217 84.571 101.174 84.7825 101.174 85.0059C101.174 85.3528 101.276 85.6428 101.481 85.878C101.685 86.1133 101.954 86.3201 102.289 86.4983C102.622 86.6765 103.002 86.8453 103.428 87.0021C103.853 87.159 104.283 87.3301 104.721 87.5131C105.156 87.6984 105.588 87.9123 106.014 88.1595C106.439 88.4066 106.819 88.7084 107.152 89.0649C107.485 89.4238 107.756 89.8515 107.96 90.3482C108.165 90.8425 108.267 91.4319 108.267 92.114Z" fill="#F05665"/>
<path d="M125.088 96.3414C125.088 96.4531 125.055 96.5505 124.991 96.6337C124.926 96.7169 124.817 96.7882 124.667 96.8428C124.515 96.8999 124.308 96.9403 124.045 96.9688C123.781 96.9973 123.455 97.0116 123.068 97.0116C122.668 97.0116 122.338 96.9973 122.074 96.9688C121.81 96.9403 121.603 96.8999 121.451 96.8428C121.299 96.7882 121.192 96.7169 121.128 96.6337C121.064 96.5505 121.031 96.4531 121.031 96.3414V87.8026C121.031 87.0754 120.978 86.5051 120.876 86.0916C120.774 85.678 120.626 85.3216 120.432 85.0269C120.237 84.7298 119.987 84.5017 119.68 84.3401C119.374 84.1785 119.015 84.0977 118.606 84.0977C118.09 84.0977 117.567 84.2925 117.04 84.6847C116.512 85.0768 115.963 85.6471 115.392 86.3957V96.3438C115.392 96.4555 115.359 96.5529 115.295 96.6361C115.231 96.7193 115.119 96.7906 114.965 96.8452C114.808 96.9023 114.601 96.9427 114.342 96.9712C114.083 96.9997 113.755 97.014 113.355 97.014C112.956 97.014 112.628 96.9997 112.369 96.9712C112.11 96.9427 111.903 96.9023 111.746 96.8452C111.589 96.7906 111.48 96.7193 111.416 96.6361C111.352 96.5529 111.318 96.4555 111.318 96.3438V74.2875C111.318 74.1758 111.352 74.076 111.416 73.9856C111.48 73.8953 111.592 73.8217 111.746 73.7599C111.903 73.6981 112.11 73.6506 112.369 73.6173C112.628 73.584 112.956 73.5674 113.355 73.5674C113.755 73.5674 114.083 73.584 114.342 73.6173C114.601 73.6506 114.808 73.6981 114.965 73.7599C115.121 73.8217 115.231 73.8977 115.295 73.9856C115.359 74.076 115.392 74.1758 115.392 74.2875V82.5577C116.094 81.8424 116.807 81.3076 117.534 80.9559C118.261 80.6042 119.017 80.4283 119.804 80.4283C120.783 80.4283 121.611 80.5971 122.286 80.9322C122.958 81.2672 123.503 81.7259 123.919 82.3082C124.332 82.8904 124.632 83.5701 124.815 84.3472C124.998 85.1243 125.09 86.0678 125.09 87.1729V96.3414H125.088Z" fill="#F05665"/>
<path d="M87.5104 47.5011V47.9313C87.5104 50.7522 84.6152 53.0598 81.0783 53.0598H58.9395C64.0166 50.814 68.3355 47.0805 71.3875 42.375H81.0783C84.6152 42.3726 87.5104 44.6802 87.5104 47.5011Z" fill="#F05665"/>
<path d="M93.6923 26.4887V26.9307C93.6923 29.7516 90.7972 32.0592 87.2603 32.0592H75.6133C76.0292 30.0606 76.2455 27.9883 76.2455 25.8542C76.2455 24.3261 76.1362 22.8289 75.9199 21.3721H87.2603C90.7996 21.3721 93.6923 23.6678 93.6923 26.4887Z" fill="#F05665"/>
<path d="M100.166 5.11661V5.55864C100.166 8.37955 97.2706 10.6752 93.7337 10.6752H72.2057C69.6386 6.22406 65.9639 2.52385 61.5879 0H93.7361C94.1806 0 94.6061 0.0404005 95.0292 0.10219C95.4451 0.173485 95.8492 0.275674 96.2343 0.399252L96.7976 0.615514C97.5178 0.933966 98.1715 1.36411 98.6944 1.86555C99.6119 2.74724 100.166 3.88558 100.166 5.11661Z" fill="#F05665"/>
<path d="M42.1242 28.0996V37.3799C38.8844 37.4725 35.7421 37.8409 32.8089 38.4778C32.0578 35.2671 31.6228 31.7499 31.5254 28.0996H42.1242Z" fill="#BAB7B7"/>
<path d="M69.3631 28.0879C69.0754 33.2164 67.4068 38.0668 64.5331 42.1782C62.439 40.9875 60.0288 39.9942 57.3809 39.2242C58.1914 35.7569 58.6644 31.9949 58.7642 28.0879H69.3631Z" fill="white"/>
<path d="M69.3615 24.9604H58.7603C58.6605 21.0629 58.1875 17.2891 57.377 13.8336C60.0249 13.0636 62.4351 12.0703 64.5292 10.8701C67.4053 14.9815 69.0739 19.8438 69.3615 24.9604Z" fill="white"/>
<path d="M42.1245 40.5078V53.0605C41.1666 52.7824 40.2182 52.2287 39.2983 51.4302C37.827 50.1374 36.4936 48.2623 35.336 45.8526C34.6847 44.5098 34.1214 43.053 33.627 41.4941C36.2939 40.9285 39.1605 40.6005 42.1245 40.5078Z" fill="#BAB7B7"/>
<path d="M62.5839 8.40804C60.806 9.3729 58.7808 10.1833 56.5679 10.8273C56.0141 9.03306 55.3723 7.35049 54.6212 5.80339C54.0388 4.59375 53.4065 3.49581 52.7434 2.51193C52.5556 2.22438 52.3583 1.9487 52.161 1.69204C52.0137 1.48766 51.8544 1.29279 51.707 1.10742C53.7037 1.78472 55.61 2.7282 57.3879 3.89744C58.208 4.42977 58.9876 5.01439 59.7482 5.65129C60.4803 6.2573 61.1815 6.91322 61.8518 7.60953C62.1014 7.8757 62.3486 8.14187 62.5839 8.40804Z" fill="white"/>
<path d="M53.6343 41.4911C53.1399 43.0501 52.5766 44.5069 51.9253 45.8496C50.7701 48.2594 49.4366 50.1368 47.9629 51.4273C47.043 52.2282 46.0946 52.7819 45.1367 53.0576V40.5049C48.1008 40.5999 50.9674 40.9279 53.6343 41.4911Z" fill="#BAB7B7"/>
<path d="M35.5551 51.9413C34.1907 51.4684 32.8572 50.8956 31.5832 50.1874C29.3417 48.9564 27.2571 47.3665 25.4079 45.4392C25.1607 45.1825 24.9135 44.9163 24.6758 44.6502C24.9325 44.5076 25.1892 44.3721 25.4649 44.239C27.0456 43.4595 28.795 42.7822 30.6918 42.2285C31.2457 44.0228 31.897 45.7053 32.6386 47.2524C33.5204 49.0705 34.4973 50.6508 35.5551 51.9413Z" fill="white"/>
<path d="M42.1241 0V12.5527C39.1601 12.46 36.2958 12.1225 33.6289 11.5688C34.1233 10.0098 34.6866 8.55303 35.3379 7.21031C36.4931 4.80053 37.8266 2.9231 39.3003 1.63266C40.2178 0.819893 41.1638 0.278051 42.1241 0Z" fill="#BAB7B7"/>
<path d="M42.1246 15.6807V24.9609H31.5234C31.6233 21.3106 32.0559 17.7934 32.807 14.5732C35.7425 15.2078 38.8825 15.588 42.1246 15.6807Z" fill="#BAB7B7"/>
<path d="M55.7375 28.0883C55.6377 31.7505 55.205 35.2677 54.4539 38.476C51.5208 37.8391 48.3785 37.4707 45.1387 37.3781V28.0859H55.7375V28.0883Z" fill="#BAB7B7"/>
<path d="M62.5839 44.6498C62.3463 44.9159 62.099 45.1821 61.8518 45.4387C60.4685 46.8742 58.9567 48.1266 57.338 49.1817C55.5791 50.351 53.6823 51.2731 51.707 51.9409C52.0636 51.5107 52.4082 51.0378 52.7434 50.5459C53.4042 49.562 54.0364 48.464 54.6212 47.2544C55.3723 45.7049 56.0141 44.0247 56.5679 42.2305C58.7808 42.8769 60.806 43.6873 62.5839 44.6498Z" fill="white"/>
<path d="M35.5546 1.10742C34.4969 2.40975 33.52 3.97824 32.6405 5.80339C31.8989 7.35287 31.2476 9.03306 30.6938 10.8273C28.5094 10.1904 26.5056 9.39191 24.7467 8.43893C24.7277 8.42942 24.6967 8.41754 24.6777 8.40804C24.8156 8.25356 24.944 8.11097 25.0937 7.9565C25.1935 7.84481 25.3005 7.72123 25.4098 7.60715C28.3026 4.60563 31.7705 2.40024 35.5546 1.10742Z" fill="white"/>
<path d="M55.7379 24.9609H45.1367V15.6807C48.3765 15.588 51.5188 15.2078 54.452 14.5732C55.2055 17.7934 55.6381 21.3106 55.7379 24.9609Z" fill="#BAB7B7"/>
<path d="M53.6339 11.5688C50.967 12.1225 48.1003 12.46 45.1387 12.5527V0C46.0966 0.278051 47.045 0.819893 47.9649 1.63028C49.4362 2.9231 50.7697 4.79816 51.9272 7.20793C52.5761 8.55303 53.1395 10.0098 53.6339 11.5688Z" fill="#BAB7B7"/>
</g>
<defs>
<clipPath id="clip0">
<rect width="125.087" height="103" fill="white"/>
</clipPath>
</defs>
</svg>
