<svg xmlns="http://www.w3.org/2000/svg" width="24" height="24" fill="none" viewBox="0 0 24 24"><path fill="#494B52" fill-rule="evenodd" d="M12 11C11.173 11 10.5 10.327 10.5 9.49999C10.5 8.67299 11.173 7.99999 12 7.99999C12.827 7.99999 13.5 8.67299 13.5 9.49999C13.5 10.327 12.827 11 12 11ZM12 5.99999C10.07 5.99999 8.5 7.56999 8.5 9.49999C8.5 11.43 10.07 13 12 13C13.93 13 15.5 11.43 15.5 9.49999C15.5 7.56999 13.93 5.99999 12 5.99999ZM12 19.6465C10.325 18.0625 6.00004 13.6155 6.00004 9.92249C6.00004 6.65749 8.69104 4.00049 12 4.00049C15.309 4.00049 18 6.65749 18 9.92249C18 13.6155 13.675 18.0625 12 19.6465ZM12 2.00049C7.58902 2.00049 4.00002 5.55349 4.00002 9.92249C4.00002 15.3975 11.049 21.5015 11.349 21.7585C11.537 21.9195 11.768 22.0005 12 22.0005C12.232 22.0005 12.463 21.9195 12.651 21.7585C12.951 21.5015 20 15.3975 20 9.92249C20 5.55349 16.411 2.00049 12 2.00049Z" clip-rule="evenodd"/><mask id="mask0" width="16" height="21" x="4" y="2" mask-type="alpha" maskUnits="userSpaceOnUse"><path fill="#fff" fill-rule="evenodd" d="M12 11C11.173 11 10.5 10.327 10.5 9.49999C10.5 8.67299 11.173 7.99999 12 7.99999C12.827 7.99999 13.5 8.67299 13.5 9.49999C13.5 10.327 12.827 11 12 11ZM12 5.99999C10.07 5.99999 8.5 7.56999 8.5 9.49999C8.5 11.43 10.07 13 12 13C13.93 13 15.5 11.43 15.5 9.49999C15.5 7.56999 13.93 5.99999 12 5.99999ZM12 19.6465C10.325 18.0625 6.00004 13.6155 6.00004 9.92249C6.00004 6.65749 8.69104 4.00049 12 4.00049C15.309 4.00049 18 6.65749 18 9.92249C18 13.6155 13.675 18.0625 12 19.6465ZM12 2.00049C7.58902 2.00049 4.00002 5.55349 4.00002 9.92249C4.00002 15.3975 11.049 21.5015 11.349 21.7585C11.537 21.9195 11.768 22.0005 12 22.0005C12.232 22.0005 12.463 21.9195 12.651 21.7585C12.951 21.5015 20 15.3975 20 9.92249C20 5.55349 16.411 2.00049 12 2.00049Z" clip-rule="evenodd"/></mask></svg>