<svg width="178" height="55" viewBox="0 0 178 55" fill="none" xmlns="http://www.w3.org/2000/svg">
<path d="M172.438 54.0039H5.5625C2.50312 54.0039 0 51.5737 0 48.6035V5.40039C0 2.43018 2.50312 0 5.5625 0H172.438C175.497 0 178 2.43018 178 5.40039V48.6035C178 51.5737 175.497 54.0039 172.438 54.0039Z" fill="black"/>
<path fill-rule="evenodd" clip-rule="evenodd" d="M13.6289 26.4619V12.2859C13.6289 11.4758 14.3242 10.8008 15.0195 10.8008C15.7148 10.8008 15.993 10.9358 16.4102 11.2058L43.2492 25.5169C43.8055 25.7869 44.0836 26.1919 44.0836 26.597C44.0836 27.002 43.8055 27.407 43.2492 27.677L16.4102 41.9881C16.132 42.1231 15.7148 42.3931 15.0195 42.3931C14.3242 42.3931 13.6289 41.7181 13.6289 40.908V26.4619Z" fill="url(#paint0_linear)"/>
<path fill-rule="evenodd" clip-rule="evenodd" d="M31.0105 26.5969L14.7402 10.8008C14.8793 10.8008 14.8793 10.8008 15.0184 10.8008C15.7137 10.8008 15.9918 10.9358 16.409 11.2058L36.1558 21.7366L31.0105 26.5969Z" fill="url(#paint1_linear)"/>
<path fill-rule="evenodd" clip-rule="evenodd" d="M36.018 31.3224L31.0117 26.4621L36.157 21.4668L43.2492 25.247C43.8055 25.5171 44.0836 25.9221 44.0836 26.3271C44.0836 26.7321 43.8055 27.1372 43.2492 27.4072L36.018 31.3224Z" fill="url(#paint2_linear)"/>
<path fill-rule="evenodd" clip-rule="evenodd" d="M14.8789 42.1231L31.0102 26.4619L36.0164 31.3223L16.4086 41.718C15.9914 41.9881 15.7133 42.1231 14.8789 42.1231C15.018 42.1231 15.018 42.1231 14.8789 42.1231Z" fill="url(#paint3_linear)"/>
<path fill-rule="evenodd" clip-rule="evenodd" d="M98.8741 45.7683C98.1788 45.2283 97.6225 44.2832 97.3444 43.7432L99.5694 42.7981C99.7085 43.0681 99.9866 43.4731 100.265 43.8782C100.821 44.4182 101.655 44.9583 102.49 44.9583C103.324 44.9583 104.298 44.5532 104.854 43.8782C105.271 43.2031 105.549 42.5281 105.549 41.583V40.773C103.88 42.7981 100.404 42.5281 98.4569 40.3679C96.3709 38.2078 96.3709 34.5625 98.4569 32.4023C100.543 30.3772 103.602 30.1072 105.41 31.9973V31.0522H107.774V41.178C107.774 43.7432 106.801 45.2283 105.549 46.1733C104.715 46.8484 103.463 47.1184 102.351 47.1184C101.099 46.9834 99.8475 46.5784 98.8741 45.7683ZM157.141 46.3083L159.505 40.908L155.333 31.5923H157.698L160.618 38.2078L163.538 31.5923H165.902L159.505 46.3083H157.141ZM145.877 41.178C145.182 40.5029 144.904 39.5579 144.904 38.6128C144.904 37.8027 145.182 36.9927 145.738 36.4526C146.712 35.5076 148.102 35.1025 149.632 35.1025C150.605 35.1025 151.44 35.2376 152.135 35.6426C152.135 34.0225 150.744 33.3474 149.632 33.3474C148.658 33.3474 147.685 33.8875 147.268 34.8325L145.182 34.0225C145.599 33.0774 146.712 31.3223 149.493 31.3223C150.883 31.3223 152.274 31.7273 153.108 32.6724C153.943 33.6174 154.221 34.6975 154.221 36.1826V41.853H151.857V40.908C151.579 41.313 151.022 41.583 150.605 41.853C150.049 42.123 149.354 42.2581 148.658 42.2581C147.824 42.123 146.573 41.853 145.877 41.178ZM71.7569 36.3176C71.7569 33.6174 73.8428 30.6472 77.5975 30.6472C81.2132 30.6472 83.4382 33.6174 83.4382 36.3176C83.4382 39.0178 81.3522 41.988 77.5975 41.988C73.8428 41.988 71.7569 39.0178 71.7569 36.3176ZM84.2725 36.3176C84.2725 33.6174 86.3585 30.6472 90.1132 30.6472C93.7288 30.6472 95.9538 33.6174 95.9538 36.3176C95.9538 39.0178 93.8678 41.988 90.1132 41.988C86.4975 41.988 84.2725 39.0178 84.2725 36.3176ZM56.0428 39.2878C52.5663 35.9126 52.7053 30.3772 56.1819 26.8669C57.9897 25.1118 60.2147 24.3018 62.5788 24.3018C64.8038 24.3018 67.0288 25.1118 68.6975 26.7319L67.0288 28.4871C64.5256 26.0569 60.4928 26.1919 58.1288 28.6221C55.6257 31.1873 55.6257 35.1025 58.1288 37.6677C60.6319 40.2329 64.8038 40.3679 67.3069 37.8027C68.1413 36.9927 68.4194 35.9126 68.5585 34.8325H62.7178V32.4023H70.9225C71.0616 32.9424 71.0616 33.6174 71.0616 34.2925C71.0616 36.3176 70.2272 38.3428 68.8366 39.6929C67.3069 41.178 65.0819 41.988 62.8569 41.988C60.3538 41.853 57.8507 41.043 56.0428 39.2878ZM114.866 40.2329C112.78 38.0728 112.78 34.4275 114.866 32.1323C116.952 29.9722 120.429 29.9722 122.376 32.1323C123.071 32.8074 123.488 33.7524 123.905 34.6975L116.257 37.8027C116.674 38.7478 117.648 39.5579 119.038 39.5579C120.29 39.5579 121.124 39.1528 121.958 37.9377L124.044 39.2878C123.766 39.5579 123.488 39.8279 123.349 40.0979C120.985 42.3931 116.952 42.3931 114.866 40.2329ZM129.329 41.853V26.8669H134.335C137.255 26.8669 139.619 28.8921 139.619 31.3223C139.619 33.7524 137.533 35.7776 134.891 35.7776H131.832V41.718H129.329V41.853ZM141.01 41.853V26.8669H143.374V41.853H141.01ZM109.582 41.583V24.8418H112.085V41.583H109.582ZM151.996 37.3977C151.44 36.9927 150.605 36.8577 149.771 36.8577C148.102 36.8577 147.129 37.6677 147.129 38.6128C147.129 39.5579 148.102 40.0979 149.076 40.0979C150.466 40.0979 151.996 39.0178 151.996 37.3977ZM80.796 36.3176C80.796 34.6975 79.6835 32.9424 77.5975 32.9424C75.5116 32.9424 74.3991 34.6975 74.3991 36.3176C74.3991 37.9377 75.5116 39.6929 77.5975 39.6929C79.5444 39.6929 80.796 37.9377 80.796 36.3176ZM93.3116 36.3176C93.3116 34.6975 92.1991 32.9424 90.1132 32.9424C88.0272 32.9424 86.9147 34.6975 86.9147 36.3176C86.9147 37.9377 88.0272 39.6929 90.1132 39.6929C92.1991 39.6929 93.3116 37.9377 93.3116 36.3176ZM105.688 37.2627C105.688 37.1277 105.688 36.9927 105.827 36.8577C105.827 36.7227 105.827 36.4526 105.827 36.3176C105.827 36.1826 105.827 35.9126 105.827 35.7776V35.6426C105.827 35.5076 105.688 35.2375 105.688 35.1025C105.271 33.7524 104.019 32.8074 102.768 32.8074C101.099 32.8074 99.7085 34.4275 99.7085 36.1826C99.7085 38.0728 101.099 39.5579 102.907 39.5579C104.019 39.6929 105.132 38.7478 105.688 37.2627ZM115.84 36.0476L120.985 33.8874C120.429 32.9424 119.594 32.6724 118.899 32.6724C116.813 32.8074 115.562 34.9675 115.84 36.0476ZM137.116 31.4573C137.116 30.1072 136.004 29.1621 134.474 29.1621H131.693V33.8874H134.613C136.004 33.8874 137.116 32.8074 137.116 31.4573Z" fill="white"/>
<path fill-rule="evenodd" clip-rule="evenodd" d="M158.949 43.6075H158.811V43.4727H158.949H158.811V43.6075H158.949Z" fill="white"/>
<path fill-rule="evenodd" clip-rule="evenodd" d="M159.225 43.6075C159.225 43.4727 159.225 43.4727 159.225 43.6075C159.086 43.4727 159.086 43.4727 159.225 43.6075C159.086 43.6075 159.086 43.6075 159.225 43.6075ZM159.225 43.4727C159.225 43.6075 159.225 43.6075 159.225 43.4727C159.225 43.6075 159.086 43.6075 159.225 43.4727C159.086 43.4727 159.225 43.4727 159.225 43.4727Z" fill="white"/>
<path fill-rule="evenodd" clip-rule="evenodd" d="M159.365 43.4727H159.227H159.365V43.6075V43.4727Z" fill="white"/>
<path d="M54.0957 13.636C54.0957 11.2058 55.9035 9.7207 58.1285 9.7207C59.6582 9.7207 60.6317 10.3958 61.327 11.3408L60.2145 12.0159C59.7973 11.4758 59.102 11.0708 58.1285 11.0708C56.5988 11.0708 55.4863 12.1509 55.4863 13.771C55.4863 15.3911 56.5988 16.4712 58.1285 16.4712C58.9629 16.4712 59.6582 16.0662 59.9364 15.7962V14.5811H57.7113V13.366H61.466V16.2012C60.7707 17.0112 59.6582 17.5513 58.2676 17.5513C55.9035 17.5513 54.0957 15.9312 54.0957 13.636Z" fill="white"/>
<path d="M63.1348 17.4161V9.85547H68.4191V11.0706H64.3863V12.9607H68.2801V14.1758H64.3863V16.336H68.4191V17.5511L63.1348 17.4161Z" fill="white"/>
<path d="M72.3113 17.4161V11.0706H69.9473V9.85547H76.066V11.0706H73.7019V17.4161H72.3113Z" fill="white"/>
<path d="M80.7949 17.4161V9.85547H82.1856V17.4161H80.7949Z" fill="white"/>
<path d="M85.9402 17.4161V11.0706H83.5762V9.85547H89.6949V11.0706H87.3309V17.4161H85.9402Z" fill="white"/>
<path d="M94.1465 13.636C94.1465 11.3408 95.8152 9.7207 98.1793 9.7207C100.543 9.7207 102.212 11.3408 102.212 13.636C102.212 15.9312 100.543 17.5513 98.1793 17.5513C95.8152 17.5513 94.1465 15.7962 94.1465 13.636ZM100.682 13.636C100.682 12.0159 99.709 10.9358 98.0402 10.9358C96.5106 10.9358 95.3981 12.1509 95.3981 13.636C95.3981 15.2561 96.3715 16.3362 98.0402 16.3362C99.709 16.3362 100.682 15.1211 100.682 13.636Z" fill="white"/>
<path d="M109.164 17.4161L105.131 12.0156V17.4161H103.74V9.85547H105.131L109.164 15.1209V9.85547H110.554V17.4161H109.164Z" fill="white"/>
<defs>
<linearGradient id="paint0_linear" x1="22.6226" y1="8.875" x2="29.9842" y2="40.0151" gradientUnits="userSpaceOnUse">
<stop stop-color="#006884"/>
<stop offset="1" stop-color="#8AD1D0"/>
</linearGradient>
<linearGradient id="paint1_linear" x1="13.1281" y1="13.2901" x2="34.055" y2="24.9429" gradientUnits="userSpaceOnUse">
<stop stop-color="#24BBB6"/>
<stop offset="1" stop-color="#DBE692"/>
</linearGradient>
<linearGradient id="paint2_linear" x1="37.5399" y1="31.8896" x2="37.5399" y2="21.1586" gradientUnits="userSpaceOnUse">
<stop stop-color="#FCC072"/>
<stop offset="1" stop-color="#F58A5B"/>
</linearGradient>
<linearGradient id="paint3_linear" x1="17.2356" y1="44.9166" x2="33.491" y2="27.8766" gradientUnits="userSpaceOnUse">
<stop stop-color="#712B8F"/>
<stop offset="1" stop-color="#EA1D27"/>
</linearGradient>
</defs>
</svg>
