<svg width="45" height="46" viewBox="0 0 45 46" fill="none" xmlns="http://www.w3.org/2000/svg">
<path d="M19.6875 24.1802L16.0453 20.538L14.0625 22.5208L19.6875 28.1457L30.9375 16.8959L28.9547 14.9131L19.6875 24.1802Z" fill="#6654A4"/>
<path d="M22.5 43.0376L13.815 38.4069C11.3391 37.0897 9.26856 35.1231 7.82568 32.7183C6.3828 30.3134 5.62203 27.5611 5.62501 24.7566V6.47555C5.62575 5.72987 5.92231 5.01494 6.44959 4.48766C6.97688 3.96038 7.69182 3.66383 8.43751 3.66309H36.5625C37.3082 3.66383 38.0231 3.96038 38.5504 4.48766C39.0777 5.01494 39.3743 5.72987 39.375 6.47555V24.7566C39.378 27.5611 38.6172 30.3134 37.1743 32.7183C35.7315 35.1231 33.6609 37.0897 31.185 38.4069L22.5 43.0376ZM8.43751 6.47555V24.7566C8.43517 27.0513 9.05781 29.3033 10.2386 31.2709C11.4194 33.2385 13.1137 34.8474 15.1397 35.9249L22.5 39.8497L29.8603 35.9263C31.8865 34.8487 33.581 33.2396 34.7618 31.2717C35.9426 29.3038 36.5651 27.0515 36.5625 24.7566V6.47555H8.43751Z" fill="#6654A4"/>
</svg>
